M48
; DRILL file {KiCad (5.1.5-0-10_14)} date Saturday, April 03, 2021 at 03:28:42 AM
; FORMAT={-:-/ absolute / inch / decimal}
; #@! TF.CreationDate,2021-04-03T03:28:42-04:00
; #@! TF.GenerationSoftware,Kicad,Pcbnew,(5.1.5-0-10_14)
FMAT,2
INCH
T1C0.0079
T2C0.0118
T3C0.0157
T4C0.0200
T5C0.0454
%
G90
G05
T1
X2.8575Y-4.165
X2.8575Y-4.225
X2.8575Y-4.325
X2.8575Y-4.425
X2.8575Y-4.525
X2.8575Y-4.625
X2.8575Y-4.7425
X2.95Y-4.525
X3.015Y-4.74
X3.05Y-4.0725
X3.0551Y-4.4449
X3.0925Y-4.7391
X3.1083Y-4.5689
X3.1083Y-4.6594
X3.1083Y-4.8012
X3.1201Y-4.4449
X3.1339Y-4.7697
X3.15Y-4.0725
X3.1594Y-4.8012
X3.185Y-4.6594
X3.185Y-4.7697
X3.2106Y-4.8012
X3.2362Y-4.7697
X3.25Y-4.0725
X3.2618Y-4.8012
X3.2874Y-4.7697
X3.313Y-4.8012
X3.3386Y-4.5689
X3.3386Y-4.6594
X3.3386Y-4.8012
X3.35Y-4.0725
X3.3642Y-4.7874
X3.3642Y-4.8465
X3.3937Y-4.7146
X3.3957Y-4.5295
X3.3996Y-4.7539
X3.3996Y-4.8799
X3.435Y-4.7874
X3.435Y-4.8465
X3.45Y-4.0725
X3.4606Y-4.378
X3.4941Y-4.1122
X3.4941Y-4.1516
X3.4941Y-4.1909
X3.4941Y-4.2303
X3.4941Y-4.2697
X3.4941Y-4.3484
X3.4941Y-4.4075
X3.4941Y-4.4469
X3.4941Y-4.4862
X3.4941Y-4.5256
X3.4961Y-4.5689
X3.5079Y-4.6594
X3.5079Y-4.8012
X3.5689Y-4.0925
X3.5689Y-4.1319
X3.5689Y-4.1713
X3.5689Y-4.2106
X3.5689Y-4.25
X3.5689Y-4.3091
X3.5689Y-4.3878
X3.5689Y-4.4272
X3.5689Y-4.4665
X3.5689Y-4.5059
X3.5965Y-4.5571
X3.6024Y-4.2894
X3.6083Y-4.3681
X3.6102Y-4.6594
X3.6358Y-4.8012
X3.6378Y-4.2697
X3.65Y-4.0725
X3.6614Y-4.6594
X3.7126Y-4.3445
X3.7126Y-4.8012
X3.7382Y-4.5689
X3.7382Y-4.6594
X3.7382Y-4.8012
X3.75Y-4.0725
X3.7638Y-4.7874
X3.7638Y-4.8465
X3.7736Y-4.6555
X3.7992Y-4.7539
X3.7992Y-4.8799
X3.8346Y-4.7815
X3.8346Y-4.8465
X3.85Y-4.0725
X3.872Y-4.6516
X3.874Y-4.7815
X3.876Y-4.7283
X3.9075Y-4.5689
X3.9075Y-4.8012
X3.9114Y-4.6594
X3.9331Y-4.7697
X3.95Y-4.0725
X3.9587Y-4.8012
X3.9843Y-4.7697
X4.0098Y-4.8012
X4.0354Y-4.7697
X4.05Y-4.0725
X4.061Y-4.8012
X4.0866Y-4.7697
X4.1122Y-4.8012
X4.126Y-4.3445
X4.1378Y-4.6594
X4.1378Y-4.7992
X4.1437Y-4.2697
X4.15Y-4.0725
X4.1659Y-4.7874
X4.1659Y-4.8465
X4.2013Y-4.8799
X4.2028Y-4.7539
X4.225Y-4.0725
X4.2368Y-4.8465
X4.2461Y-4.3445
X4.25Y-4.7008
X4.252Y-4.7461
X4.2618Y-4.1319
X4.2618Y-4.3091
X4.2618Y-4.5059
X4.2756Y-4.7776
X4.3091Y-4.6594
X4.3091Y-4.8012
X4.3346Y-4.772
X4.3366Y-4.1122
X4.3366Y-4.3091
X4.3366Y-4.5059
X4.3602Y-4.7437
X4.3602Y-4.8012
X4.3701Y-4.2736
X4.372Y-4.3445
X4.3858Y-4.772
X4.4114Y-4.8012
X4.4291Y-4.2736
X4.4291Y-4.3445
X4.437Y-4.7697
X4.45Y-4.0725
X4.4626Y-4.3091
X4.4626Y-4.8012
X4.4882Y-4.7697
X4.5138Y-4.8012
X4.5374Y-4.2854
X4.5374Y-4.3445
X4.5394Y-4.6614
X4.5394Y-4.8012
X4.55Y-4.0725
X4.565Y-4.7874
X4.565Y-4.8465
X4.5768Y-4.2697
X4.5827Y-4.5768
X4.5945Y-4.6516
X4.5965Y-4.3445
X4.6004Y-4.7539
X4.6004Y-4.8799
X4.6358Y-4.7874
X4.6378Y-4.8465
X4.65Y-4.0725
X4.6516Y-4.3445
X4.675Y-4.95
X4.689Y-4.5768
X4.7028Y-4.8406
X4.7067Y-4.7579
X4.7087Y-4.6476
X4.7283Y-4.5768
X4.7475Y-4.0725
X4.75Y-4.925
X4.7795Y-4.5768
X4.7835Y-4.7717
X4.8091Y-4.6594
X4.8091Y-4.8012
X4.8248Y-4.4469
X4.825Y-4.95
X4.8346Y-4.7697
X4.8475Y-4.0725
X4.8602Y-4.8012
X4.8701Y-4.4272
X4.8858Y-4.7697
X4.9114Y-4.8012
X4.9291Y-4.2717
X4.9291Y-4.3425
X4.9311Y-4.3071
X4.937Y-4.7717
X4.945Y-4.0725
X4.9626Y-4.8012
X4.9646Y-4.2717
X4.9646Y-4.3425
X4.9882Y-4.7697
X5.0138Y-4.8012
X5.0236Y-4.2717
X5.0236Y-4.3425
X5.0394Y-4.6594
X5.0394Y-4.8012
X5.045Y-4.0725
X5.0571Y-4.3071
X5.065Y-4.7874
X5.065Y-4.8465
X5.1004Y-4.7539
X5.1004Y-4.8799
X5.1339Y-4.6772
X5.1358Y-4.7874
X5.1358Y-4.8465
X5.145Y-4.0725
X5.1555Y-4.3681
X5.1791Y-4.1122
X5.1791Y-4.1516
X5.1791Y-4.1909
X5.1791Y-4.2303
X5.1791Y-4.2697
X5.1791Y-4.3091
X5.1791Y-4.3484
X5.1791Y-4.4075
X5.1791Y-4.4469
X5.1791Y-4.4862
X5.1791Y-4.5256
X5.2087Y-4.6594
X5.2087Y-4.8012
X5.2343Y-4.7697
X5.2539Y-4.0925
X5.2539Y-4.1319
X5.2539Y-4.1713
X5.2539Y-4.2106
X5.2539Y-4.25
X5.2539Y-4.2894
X5.2539Y-4.3287
X5.2539Y-4.3878
X5.2539Y-4.4272
X5.2539Y-4.4665
X5.2539Y-4.5059
X5.2539Y-4.5453
X5.2598Y-4.8012
X5.2854Y-4.7697
X5.3Y-4.0725
X5.311Y-4.6594
X5.311Y-4.8012
X5.3189Y-4.189
X5.3307Y-4.2323
X5.3366Y-4.7697
X5.3622Y-4.5453
X5.3622Y-4.8012
X5.3642Y-4.3091
X5.37Y-4.0725
X5.3878Y-4.7697
X5.4134Y-4.4783
X5.4134Y-4.8012
X5.439Y-4.6594
X5.439Y-4.8012
X5.445Y-4.0725
X5.4508Y-4.1122
X5.4646Y-4.7874
X5.4646Y-4.8465
X5.4941Y-4.8789
X5.5Y-4.7539
X5.5197Y-4.6811
X5.5354Y-4.7874
X5.545Y-4.0725
X5.5709Y-4.7539
X5.6063Y-4.8465
X5.645Y-4.0725
X5.6555Y-4.5689
X5.6555Y-4.6594
X5.6555Y-4.8012
X5.6811Y-4.7697
X5.7067Y-4.8012
X5.7323Y-4.7697
X5.745Y-4.0725
X5.7579Y-4.4862
X5.7579Y-4.8012
X5.7835Y-4.7697
X5.7953Y-4.4469
X5.8091Y-4.8012
X5.815Y-4.2343
X5.8189Y-4.3681
X5.8346Y-4.7697
X5.8406Y-4.3287
X5.845Y-4.0725
X5.8484Y-4.1811
X5.8602Y-4.8012
X5.8661Y-4.7067
X5.8819Y-4.2697
X5.8858Y-4.6594
X5.8858Y-4.8012
X5.9035Y-4.2303
X5.9035Y-4.5059
X5.9035Y-4.5531
X5.9114Y-4.7874
X5.9114Y-4.8465
X5.9173Y-4.3091
X5.9252Y-4.1909
X5.9272Y-4.1122
X5.937Y-4.4862
X5.937Y-4.5256
X5.937Y-4.5807
X5.9449Y-4.1319
X5.945Y-4.0725
X5.9469Y-4.8799
X5.9488Y-4.622
X6.0079Y-4.6594
X6.0079Y-4.8012
X6.0157Y-4.5689
X6.0217Y-4.1063
X6.0217Y-4.1339
X6.0217Y-4.3091
X6.0217Y-4.5059
X6.0276Y-4.2106
X6.0335Y-4.7697
X6.045Y-4.0725
X6.0551Y-4.2736
X6.0571Y-4.3445
X6.0591Y-4.8012
X6.0846Y-4.7697
X6.0886Y-4.0728
X6.1102Y-4.8012
X6.1142Y-4.2736
X6.1142Y-4.3445
X6.123Y-4.563
X6.1358Y-4.7697
X6.145Y-4.0725
X6.1476Y-4.3091
X6.1614Y-4.8012
X6.187Y-4.7697
X6.2126Y-4.8012
X6.2382Y-4.8012
X6.245Y-4.0725
X6.255Y-4.17
X6.255Y-4.555
X6.2638Y-4.7874
X6.2638Y-4.8465
X6.2992Y-4.7539
X6.2992Y-4.8799
X6.305Y-4.17
X6.305Y-4.56
X6.3346Y-4.7874
X6.3346Y-4.8465
X6.345Y-4.0725
X6.35Y-4.725
X6.445Y-4.0725
X6.445Y-4.625
X6.45Y-4.825
X6.55Y-4.725
X6.55Y-4.925
X6.6425Y-4.165
X6.6425Y-4.225
X6.6425Y-4.325
X6.6425Y-4.425
X6.6425Y-4.525
X6.6425Y-4.625
X6.6425Y-4.725
X6.6425Y-4.815
T2
X3.0138Y-4.4783
T3
X2.9961Y-4.376
X3.0138Y-4.7981
X3.0433Y-4.3406
X3.0551Y-4.5197
X3.0551Y-4.8375
X3.1142Y-4.5197
X3.126Y-4.3031
X3.1535Y-4.4783
X3.1732Y-4.3386
X3.1732Y-4.4134
X3.3681Y-4.25
X3.4094Y-4.2106
X3.4094Y-4.3484
X3.4488Y-4.3091
X3.4508Y-4.25
T4
X3.075Y-4.925
X3.125Y-4.925
X3.175Y-4.925
X3.225Y-4.925
X3.275Y-4.925
X3.325Y-4.925
X3.375Y-4.925
X3.425Y-4.925
X3.475Y-4.925
X3.525Y-4.925
X3.575Y-4.925
X3.625Y-4.925
X3.675Y-4.925
X3.725Y-4.925
X3.775Y-4.925
X3.825Y-4.925
X3.875Y-4.925
X3.925Y-4.925
X3.975Y-4.925
X4.025Y-4.925
X4.075Y-4.925
X4.125Y-4.925
X4.175Y-4.925
X4.225Y-4.925
X4.275Y-4.925
X4.325Y-4.925
X4.375Y-4.925
X4.425Y-4.925
X4.475Y-4.925
X4.525Y-4.925
X4.575Y-4.925
X4.625Y-4.925
X4.875Y-4.925
X4.925Y-4.925
X4.975Y-4.925
X5.025Y-4.925
X5.075Y-4.925
X5.125Y-4.925
X5.175Y-4.925
X5.225Y-4.925
X5.275Y-4.925
X5.325Y-4.925
X5.375Y-4.925
X5.425Y-4.925
X5.475Y-4.925
X5.525Y-4.925
X5.575Y-4.925
X5.625Y-4.925
X5.675Y-4.925
X5.725Y-4.925
X5.775Y-4.925
X5.825Y-4.925
X5.875Y-4.925
X5.925Y-4.925
X5.975Y-4.925
X6.025Y-4.925
X6.075Y-4.925
X6.125Y-4.925
X6.175Y-4.925
X6.225Y-4.925
X6.275Y-4.925
X6.325Y-4.925
X6.375Y-4.925
X6.425Y-4.925
T5
X2.89Y-4.105
X2.97Y-4.96
X6.61Y-4.96
X6.61Y-4.105
T0
M30
