G04 #@! TF.GenerationSoftware,KiCad,Pcbnew,7.0.10*
G04 #@! TF.CreationDate,2024-05-19T03:44:08-04:00*
G04 #@! TF.ProjectId,MacIIROMSIMM,4d616349-4952-44f4-9d53-494d4d2e6b69,1.0*
G04 #@! TF.SameCoordinates,Original*
G04 #@! TF.FileFunction,Legend,Bot*
G04 #@! TF.FilePolarity,Positive*
%FSLAX46Y46*%
G04 Gerber Fmt 4.6, Leading zero omitted, Abs format (unit mm)*
G04 Created by KiCad (PCBNEW 7.0.10) date 2024-05-19 03:44:08*
%MOMM*%
%LPD*%
G01*
G04 APERTURE LIST*
G04 Aperture macros list*
%AMRoundRect*
0 Rectangle with rounded corners*
0 $1 Rounding radius*
0 $2 $3 $4 $5 $6 $7 $8 $9 X,Y pos of 4 corners*
0 Add a 4 corners polygon primitive as box body*
4,1,4,$2,$3,$4,$5,$6,$7,$8,$9,$2,$3,0*
0 Add four circle primitives for the rounded corners*
1,1,$1+$1,$2,$3*
1,1,$1+$1,$4,$5*
1,1,$1+$1,$6,$7*
1,1,$1+$1,$8,$9*
0 Add four rect primitives between the rounded corners*
20,1,$1+$1,$2,$3,$4,$5,0*
20,1,$1+$1,$4,$5,$6,$7,0*
20,1,$1+$1,$6,$7,$8,$9,0*
20,1,$1+$1,$8,$9,$2,$3,0*%
G04 Aperture macros list end*
%ADD10C,0.203200*%
%ADD11C,0.175000*%
%ADD12RoundRect,0.477520X-0.119380X-1.122680X0.119380X-1.122680X0.119380X1.122680X-0.119380X1.122680X0*%
%ADD13C,1.448000*%
G04 APERTURE END LIST*
D10*
X166351856Y-124501345D02*
X165809990Y-124501345D01*
X165809990Y-124501345D02*
X166351856Y-125314145D01*
X166351856Y-125314145D02*
X165809990Y-125314145D01*
X165500352Y-125314145D02*
X165500352Y-124501345D01*
X165035895Y-125314145D02*
X165384237Y-124849688D01*
X165035895Y-124501345D02*
X165500352Y-124965802D01*
X164648847Y-125275441D02*
X164648847Y-125314145D01*
X164648847Y-125314145D02*
X164687552Y-125391555D01*
X164687552Y-125391555D02*
X164726256Y-125430260D01*
X165616466Y-125848658D02*
X165693876Y-125809953D01*
X165693876Y-125809953D02*
X165809990Y-125809953D01*
X165809990Y-125809953D02*
X165926104Y-125848658D01*
X165926104Y-125848658D02*
X166003514Y-125926068D01*
X166003514Y-125926068D02*
X166042219Y-126003477D01*
X166042219Y-126003477D02*
X166080923Y-126158296D01*
X166080923Y-126158296D02*
X166080923Y-126274410D01*
X166080923Y-126274410D02*
X166042219Y-126429229D01*
X166042219Y-126429229D02*
X166003514Y-126506639D01*
X166003514Y-126506639D02*
X165926104Y-126584049D01*
X165926104Y-126584049D02*
X165809990Y-126622753D01*
X165809990Y-126622753D02*
X165732581Y-126622753D01*
X165732581Y-126622753D02*
X165616466Y-126584049D01*
X165616466Y-126584049D02*
X165577762Y-126545344D01*
X165577762Y-126545344D02*
X165577762Y-126274410D01*
X165577762Y-126274410D02*
X165732581Y-126274410D01*
X164958485Y-126197001D02*
X165229419Y-126197001D01*
X165229419Y-126622753D02*
X165229419Y-125809953D01*
X165229419Y-125809953D02*
X164842371Y-125809953D01*
G36*
X101321551Y-116161528D02*
G01*
X101071750Y-116161528D01*
X101071750Y-114848743D01*
X101321551Y-114848743D01*
X101321551Y-116161528D01*
G37*
G36*
X100752854Y-116161528D02*
G01*
X100503053Y-116161528D01*
X100503053Y-114848743D01*
X100752854Y-114848743D01*
X100752854Y-116161528D01*
G37*
G36*
X95517659Y-116161528D02*
G01*
X94688531Y-116161528D01*
X94688531Y-115964876D01*
X95267858Y-115964876D01*
X95267858Y-115592832D01*
X94810775Y-115592832D01*
X94810775Y-115406810D01*
X95267858Y-115406810D01*
X95267858Y-115045395D01*
X94688531Y-115045395D01*
X94688531Y-114848743D01*
X95517659Y-114848743D01*
X95517659Y-116161528D01*
G37*
G36*
X105846020Y-115210706D02*
G01*
X105894727Y-115218427D01*
X105940328Y-115235502D01*
X105983358Y-115262240D01*
X106024351Y-115298948D01*
X106063840Y-115345934D01*
X106097006Y-115390445D01*
X106104139Y-115333519D01*
X106104411Y-115331360D01*
X106109486Y-115296944D01*
X106115029Y-115271676D01*
X106121554Y-115254149D01*
X106129578Y-115242959D01*
X106139614Y-115236698D01*
X106142544Y-115235917D01*
X106156310Y-115234143D01*
X106177486Y-115232715D01*
X106203775Y-115231763D01*
X106232882Y-115231417D01*
X106312260Y-115231417D01*
X106312260Y-116161528D01*
X106083719Y-116161528D01*
X106083719Y-115580404D01*
X106067030Y-115550834D01*
X106066685Y-115550223D01*
X106038340Y-115507578D01*
X106006954Y-115474732D01*
X105971876Y-115451129D01*
X105932456Y-115436216D01*
X105911259Y-115431555D01*
X105882212Y-115428566D01*
X105851716Y-115430094D01*
X105815682Y-115436135D01*
X105790995Y-115440111D01*
X105768669Y-115440138D01*
X105754122Y-115434723D01*
X105746527Y-115423716D01*
X105745576Y-115419992D01*
X105742685Y-115406366D01*
X105738588Y-115385498D01*
X105733684Y-115359448D01*
X105728374Y-115330275D01*
X105713483Y-115247111D01*
X105730435Y-115236634D01*
X105744256Y-115228916D01*
X105783973Y-115214811D01*
X105828154Y-115210158D01*
X105846020Y-115210706D01*
G37*
G36*
X107602584Y-114824840D02*
G01*
X107633001Y-114825233D01*
X107656233Y-114826382D01*
X107675006Y-114828577D01*
X107692047Y-114832109D01*
X107710084Y-114837267D01*
X107742744Y-114848863D01*
X107793801Y-114874265D01*
X107836830Y-114906381D01*
X107872337Y-114945715D01*
X107900832Y-114992771D01*
X107922823Y-115048052D01*
X107924192Y-115052496D01*
X107929353Y-115073063D01*
X107933029Y-115096216D01*
X107935563Y-115124634D01*
X107937299Y-115160995D01*
X107939964Y-115236732D01*
X108076813Y-115236732D01*
X108076813Y-115296671D01*
X108076460Y-115321792D01*
X108074143Y-115347996D01*
X108068400Y-115366927D01*
X108057795Y-115380185D01*
X108040892Y-115389372D01*
X108016256Y-115396090D01*
X107982451Y-115401940D01*
X107938626Y-115408649D01*
X107938626Y-116161740D01*
X107825683Y-116160305D01*
X107712741Y-116158871D01*
X107711378Y-115777525D01*
X107710014Y-115396180D01*
X107476228Y-115396180D01*
X107476228Y-115236732D01*
X107720714Y-115236732D01*
X107720674Y-115195542D01*
X107720308Y-115173676D01*
X107716620Y-115128691D01*
X107708705Y-115091930D01*
X107696244Y-115062189D01*
X107678916Y-115038265D01*
X107674820Y-115034033D01*
X107656467Y-115019384D01*
X107634351Y-115008901D01*
X107606226Y-115001734D01*
X107569842Y-114997034D01*
X107555382Y-114995659D01*
X107531891Y-114993172D01*
X107512710Y-114990834D01*
X107500981Y-114989009D01*
X107489419Y-114983939D01*
X107480755Y-114973072D01*
X107475035Y-114955303D01*
X107471880Y-114929441D01*
X107470913Y-114894295D01*
X107470913Y-114838523D01*
X107493501Y-114831674D01*
X107503766Y-114829475D01*
X107526449Y-114826971D01*
X107556820Y-114825382D01*
X107593156Y-114824826D01*
X107602584Y-114824840D01*
G37*
G36*
X93953158Y-114811525D02*
G01*
X93976955Y-114812698D01*
X93998965Y-114814514D01*
X94016863Y-114816902D01*
X94028323Y-114819793D01*
X94045962Y-114829280D01*
X94069210Y-114848682D01*
X94085952Y-114871434D01*
X94087146Y-114874187D01*
X94092019Y-114886168D01*
X94100296Y-114906856D01*
X94111707Y-114935563D01*
X94125981Y-114971600D01*
X94142847Y-115014278D01*
X94162037Y-115062908D01*
X94183279Y-115116801D01*
X94206303Y-115175270D01*
X94230839Y-115237624D01*
X94256616Y-115303175D01*
X94283364Y-115371234D01*
X94310813Y-115441112D01*
X94338693Y-115512121D01*
X94366733Y-115583571D01*
X94394663Y-115654774D01*
X94422213Y-115725042D01*
X94449112Y-115793684D01*
X94475090Y-115860012D01*
X94499877Y-115923339D01*
X94523202Y-115982973D01*
X94544795Y-116038228D01*
X94564387Y-116088413D01*
X94581705Y-116132841D01*
X94596482Y-116170822D01*
X94608445Y-116201668D01*
X94617324Y-116224689D01*
X94622850Y-116239197D01*
X94624752Y-116244503D01*
X94624717Y-116244657D01*
X94619055Y-116246106D01*
X94605392Y-116246820D01*
X94586129Y-116246880D01*
X94563667Y-116246363D01*
X94540406Y-116245347D01*
X94518748Y-116243911D01*
X94501091Y-116242134D01*
X94489839Y-116240094D01*
X94485918Y-116238762D01*
X94464557Y-116226746D01*
X94441687Y-116206875D01*
X94415413Y-116180130D01*
X94150830Y-115499821D01*
X94131471Y-115450033D01*
X94100484Y-115370302D01*
X94070707Y-115293633D01*
X94042361Y-115220598D01*
X94015667Y-115151767D01*
X93990844Y-115087709D01*
X93968113Y-115028995D01*
X93947695Y-114976196D01*
X93929811Y-114929880D01*
X93914681Y-114890619D01*
X93902526Y-114858983D01*
X93893565Y-114835542D01*
X93888021Y-114820866D01*
X93886113Y-114815525D01*
X93886607Y-114814652D01*
X93894299Y-114812558D01*
X93909504Y-114811385D01*
X93929899Y-114811064D01*
X93953158Y-114811525D01*
G37*
G36*
X98456445Y-115217004D02*
G01*
X98504561Y-115223539D01*
X98547789Y-115234944D01*
X98552538Y-115236650D01*
X98597849Y-115257212D01*
X98644304Y-115285422D01*
X98688901Y-115319482D01*
X98711054Y-115338373D01*
X98719989Y-115298211D01*
X98722748Y-115286491D01*
X98728618Y-115267410D01*
X98735486Y-115254497D01*
X98744750Y-115244733D01*
X98748672Y-115241526D01*
X98754957Y-115237372D01*
X98762482Y-115234546D01*
X98773127Y-115232794D01*
X98788767Y-115231859D01*
X98811282Y-115231485D01*
X98842549Y-115231417D01*
X98924522Y-115231417D01*
X98924522Y-116161528D01*
X98695981Y-116161528D01*
X98695981Y-115487770D01*
X98674216Y-115468108D01*
X98671217Y-115465438D01*
X98644316Y-115444128D01*
X98614831Y-115424573D01*
X98586037Y-115408782D01*
X98561208Y-115398765D01*
X98558640Y-115398057D01*
X98538925Y-115394416D01*
X98514154Y-115391864D01*
X98489063Y-115390917D01*
X98460935Y-115392350D01*
X98425374Y-115399927D01*
X98396431Y-115414445D01*
X98372871Y-115436387D01*
X98369022Y-115441037D01*
X98362574Y-115449010D01*
X98357067Y-115456713D01*
X98352421Y-115464986D01*
X98348558Y-115474667D01*
X98345401Y-115486593D01*
X98342869Y-115501604D01*
X98340887Y-115520538D01*
X98339374Y-115544232D01*
X98338252Y-115573527D01*
X98337444Y-115609259D01*
X98336871Y-115652267D01*
X98336454Y-115703390D01*
X98336116Y-115763465D01*
X98335777Y-115833332D01*
X98334182Y-116161528D01*
X98105375Y-116161528D01*
X98107282Y-115828017D01*
X98107408Y-115806116D01*
X98107797Y-115741276D01*
X98108178Y-115685919D01*
X98108582Y-115639168D01*
X98109041Y-115600146D01*
X98109587Y-115567975D01*
X98110252Y-115541779D01*
X98111066Y-115520680D01*
X98112063Y-115503800D01*
X98113274Y-115490262D01*
X98114730Y-115479189D01*
X98116464Y-115469704D01*
X98118506Y-115460929D01*
X98120890Y-115451986D01*
X98121262Y-115450640D01*
X98141963Y-115391827D01*
X98169035Y-115341494D01*
X98202572Y-115299547D01*
X98242664Y-115265892D01*
X98289403Y-115240434D01*
X98342882Y-115223079D01*
X98361610Y-115219474D01*
X98407455Y-115215571D01*
X98456445Y-115217004D01*
G37*
G36*
X97952904Y-115770365D02*
G01*
X97951859Y-115781215D01*
X97940347Y-115857994D01*
X97922395Y-115927128D01*
X97898144Y-115988405D01*
X97867733Y-116041615D01*
X97831304Y-116086546D01*
X97788996Y-116122988D01*
X97740950Y-116150729D01*
X97687306Y-116169560D01*
X97666187Y-116173353D01*
X97632654Y-116175817D01*
X97595199Y-116175716D01*
X97557376Y-116173197D01*
X97522740Y-116168409D01*
X97494845Y-116161502D01*
X97468171Y-116151666D01*
X97422644Y-116129969D01*
X97381127Y-116102573D01*
X97339987Y-116067270D01*
X97310065Y-116038887D01*
X97303497Y-116074962D01*
X97298133Y-116100011D01*
X97288341Y-116130402D01*
X97276754Y-116151046D01*
X97263553Y-116161550D01*
X97261281Y-116162196D01*
X97248102Y-116164023D01*
X97227411Y-116165498D01*
X97201563Y-116166484D01*
X97172910Y-116166843D01*
X97096190Y-116166843D01*
X97096190Y-115894495D01*
X97324731Y-115894495D01*
X97361282Y-115928975D01*
X97371837Y-115938596D01*
X97409422Y-115967039D01*
X97447292Y-115986155D01*
X97487108Y-115996841D01*
X97504643Y-115999409D01*
X97532609Y-116001389D01*
X97557864Y-115999487D01*
X97585162Y-115993541D01*
X97596592Y-115990044D01*
X97630471Y-115973355D01*
X97658818Y-115948450D01*
X97681895Y-115914971D01*
X97699969Y-115872564D01*
X97713303Y-115820871D01*
X97717022Y-115793658D01*
X97719352Y-115758922D01*
X97720287Y-115719829D01*
X97719860Y-115679361D01*
X97718104Y-115640503D01*
X97715049Y-115606236D01*
X97710728Y-115579544D01*
X97702485Y-115548640D01*
X97685132Y-115503640D01*
X97663422Y-115465887D01*
X97638120Y-115436879D01*
X97631931Y-115431567D01*
X97595852Y-115408498D01*
X97555385Y-115393795D01*
X97512297Y-115387415D01*
X97468353Y-115389311D01*
X97425319Y-115399440D01*
X97384961Y-115417756D01*
X97349046Y-115444215D01*
X97324731Y-115466627D01*
X97324731Y-115894495D01*
X97096190Y-115894495D01*
X97096190Y-114816853D01*
X97324731Y-114816853D01*
X97324731Y-115300348D01*
X97352635Y-115279051D01*
X97371968Y-115265157D01*
X97412621Y-115241973D01*
X97455215Y-115226377D01*
X97502176Y-115217605D01*
X97555930Y-115214891D01*
X97608783Y-115217964D01*
X97667240Y-115229827D01*
X97721081Y-115250956D01*
X97771201Y-115281717D01*
X97818496Y-115322479D01*
X97853578Y-115362589D01*
X97888776Y-115416978D01*
X97916884Y-115478020D01*
X97937626Y-115544798D01*
X97950727Y-115616393D01*
X97955912Y-115691888D01*
X97954841Y-115719829D01*
X97952904Y-115770365D01*
G37*
G36*
X107411002Y-115682330D02*
G01*
X107409021Y-115750711D01*
X107399393Y-115818085D01*
X107381997Y-115882933D01*
X107356709Y-115943736D01*
X107323386Y-115999672D01*
X107281832Y-116049914D01*
X107233323Y-116092201D01*
X107178090Y-116126365D01*
X107116364Y-116152235D01*
X107048377Y-116169643D01*
X107037964Y-116171323D01*
X107004879Y-116174686D01*
X106966628Y-116176479D01*
X106927093Y-116176655D01*
X106890155Y-116175165D01*
X106859697Y-116171962D01*
X106818866Y-116163827D01*
X106754071Y-116142964D01*
X106695331Y-116113512D01*
X106642999Y-116075792D01*
X106597428Y-116030125D01*
X106558969Y-115976832D01*
X106527974Y-115916234D01*
X106504797Y-115848651D01*
X106501348Y-115835528D01*
X106497322Y-115818125D01*
X106494492Y-115801438D01*
X106492650Y-115783198D01*
X106491592Y-115761136D01*
X106491111Y-115732984D01*
X106491089Y-115725705D01*
X106723287Y-115725705D01*
X106723471Y-115730251D01*
X106726175Y-115774026D01*
X106730557Y-115810003D01*
X106737150Y-115840722D01*
X106746487Y-115868723D01*
X106759099Y-115896546D01*
X106769329Y-115915300D01*
X106789224Y-115943032D01*
X106812809Y-115964367D01*
X106842760Y-115982040D01*
X106848939Y-115985051D01*
X106863900Y-115991708D01*
X106877393Y-115996015D01*
X106892441Y-115998555D01*
X106912069Y-115999911D01*
X106939303Y-116000667D01*
X106974424Y-116000565D01*
X107002804Y-115998627D01*
X107021802Y-115994899D01*
X107033168Y-115990878D01*
X107070771Y-115972516D01*
X107101784Y-115947988D01*
X107127048Y-115916304D01*
X107147402Y-115876474D01*
X107163684Y-115827507D01*
X107168664Y-115803399D01*
X107172956Y-115766632D01*
X107175200Y-115724982D01*
X107175396Y-115681512D01*
X107173545Y-115639285D01*
X107169646Y-115601363D01*
X107163699Y-115570809D01*
X107162210Y-115565416D01*
X107144241Y-115515012D01*
X107121202Y-115473777D01*
X107092701Y-115441350D01*
X107058346Y-115417369D01*
X107017743Y-115401476D01*
X106970500Y-115393308D01*
X106940326Y-115392590D01*
X106900083Y-115396818D01*
X106862353Y-115406244D01*
X106830849Y-115420152D01*
X106817654Y-115428760D01*
X106786761Y-115457585D01*
X106761828Y-115494975D01*
X106742936Y-115540706D01*
X106730162Y-115594554D01*
X106723586Y-115656295D01*
X106723287Y-115725705D01*
X106491089Y-115725705D01*
X106491001Y-115696473D01*
X106491005Y-115690577D01*
X106491217Y-115654475D01*
X106491877Y-115626569D01*
X106493153Y-115604732D01*
X106495219Y-115586834D01*
X106498242Y-115570746D01*
X106502396Y-115554340D01*
X106502796Y-115552898D01*
X106519344Y-115500163D01*
X106537944Y-115455388D01*
X106560043Y-115415984D01*
X106587088Y-115379362D01*
X106620525Y-115342932D01*
X106665677Y-115303351D01*
X106715566Y-115271294D01*
X106770396Y-115247220D01*
X106831337Y-115230617D01*
X106899559Y-115220976D01*
X106964136Y-115218802D01*
X107035630Y-115225427D01*
X107104203Y-115242003D01*
X107170620Y-115268664D01*
X107182781Y-115274735D01*
X107231574Y-115303902D01*
X107273483Y-115338104D01*
X107311367Y-115379594D01*
X107344897Y-115429117D01*
X107372283Y-115486336D01*
X107392511Y-115548624D01*
X107405458Y-115614461D01*
X107410935Y-115681512D01*
X107411002Y-115682330D01*
G37*
G36*
X92807815Y-115595102D02*
G01*
X92798736Y-115681190D01*
X92783649Y-115763212D01*
X92762548Y-115839054D01*
X92748239Y-115878375D01*
X92716913Y-115946234D01*
X92680004Y-116005176D01*
X92637265Y-116055430D01*
X92588453Y-116097224D01*
X92533321Y-116130788D01*
X92471624Y-116156350D01*
X92403116Y-116174138D01*
X92401414Y-116174387D01*
X92388969Y-116175104D01*
X92368901Y-116175437D01*
X92343592Y-116175364D01*
X92315420Y-116174865D01*
X92305646Y-116174585D01*
X92262916Y-116172085D01*
X92226715Y-116167153D01*
X92193723Y-116159009D01*
X92160619Y-116146875D01*
X92124083Y-116129971D01*
X92078414Y-116103274D01*
X92028317Y-116062946D01*
X91983988Y-116014134D01*
X91945565Y-115957169D01*
X91913184Y-115892380D01*
X91886983Y-115820097D01*
X91867098Y-115740649D01*
X91853666Y-115654367D01*
X91846825Y-115561579D01*
X91846764Y-115507793D01*
X92078915Y-115507793D01*
X92080001Y-115566230D01*
X92085662Y-115647361D01*
X92096077Y-115720432D01*
X92111155Y-115785194D01*
X92130802Y-115841398D01*
X92154924Y-115888794D01*
X92183430Y-115927133D01*
X92216226Y-115956164D01*
X92253220Y-115975640D01*
X92257903Y-115977330D01*
X92302738Y-115987724D01*
X92348249Y-115988540D01*
X92392387Y-115979933D01*
X92433103Y-115962057D01*
X92443930Y-115955006D01*
X92473319Y-115928024D01*
X92499720Y-115891774D01*
X92522767Y-115847045D01*
X92542096Y-115794630D01*
X92557339Y-115735317D01*
X92568134Y-115669898D01*
X92570157Y-115648258D01*
X92571983Y-115618112D01*
X92573426Y-115582801D01*
X92574375Y-115545103D01*
X92574716Y-115507793D01*
X92574590Y-115480446D01*
X92573203Y-115422046D01*
X92570121Y-115371186D01*
X92565136Y-115325756D01*
X92558040Y-115283647D01*
X92548625Y-115242750D01*
X92544069Y-115226256D01*
X92524710Y-115172255D01*
X92500761Y-115126004D01*
X92472663Y-115088127D01*
X92440853Y-115059247D01*
X92405773Y-115039989D01*
X92405735Y-115039974D01*
X92369392Y-115030309D01*
X92329093Y-115026986D01*
X92288987Y-115030020D01*
X92253227Y-115039427D01*
X92231244Y-115049880D01*
X92196175Y-115075703D01*
X92165531Y-115110919D01*
X92139388Y-115155320D01*
X92117824Y-115208696D01*
X92100918Y-115270840D01*
X92088746Y-115341543D01*
X92081385Y-115420597D01*
X92078915Y-115507793D01*
X91846764Y-115507793D01*
X91846712Y-115462616D01*
X91846812Y-115459614D01*
X91853670Y-115362781D01*
X91867276Y-115273668D01*
X91887570Y-115192377D01*
X91914489Y-115119008D01*
X91947975Y-115053663D01*
X91987967Y-114996444D01*
X92034403Y-114947451D01*
X92087224Y-114906786D01*
X92146370Y-114874551D01*
X92211779Y-114850847D01*
X92230504Y-114846688D01*
X92264697Y-114842411D01*
X92304119Y-114840284D01*
X92345691Y-114840283D01*
X92386337Y-114842382D01*
X92422979Y-114846558D01*
X92452540Y-114852785D01*
X92502977Y-114870411D01*
X92560708Y-114899607D01*
X92612206Y-114936853D01*
X92657740Y-114982426D01*
X92697579Y-115036606D01*
X92731993Y-115099668D01*
X92761248Y-115171892D01*
X92763215Y-115177629D01*
X92784120Y-115252350D01*
X92799037Y-115333572D01*
X92807961Y-115419179D01*
X92810888Y-115507061D01*
X92810862Y-115507793D01*
X92807815Y-115595102D01*
G37*
G36*
X102228400Y-115216782D02*
G01*
X102272532Y-115220780D01*
X102314168Y-115228929D01*
X102356691Y-115241662D01*
X102380327Y-115250378D01*
X102414694Y-115266108D01*
X102445844Y-115285165D01*
X102476719Y-115309450D01*
X102510261Y-115340864D01*
X102511287Y-115341883D01*
X102532870Y-115363924D01*
X102548855Y-115382115D01*
X102561491Y-115399548D01*
X102573029Y-115419314D01*
X102585721Y-115444506D01*
X102598155Y-115471182D01*
X102612917Y-115507710D01*
X102623577Y-115542617D01*
X102630847Y-115578948D01*
X102635440Y-115619747D01*
X102638069Y-115668059D01*
X102638940Y-115711415D01*
X102637662Y-115759125D01*
X102633458Y-115801139D01*
X102626045Y-115840061D01*
X102615138Y-115878491D01*
X102596180Y-115928515D01*
X102564522Y-115989237D01*
X102526058Y-116041953D01*
X102480955Y-116086504D01*
X102429379Y-116122736D01*
X102371495Y-116150490D01*
X102307468Y-116169611D01*
X102300527Y-116170987D01*
X102268931Y-116174848D01*
X102231319Y-116176633D01*
X102191174Y-116176343D01*
X102151980Y-116173978D01*
X102117219Y-116169541D01*
X102090336Y-116164079D01*
X102029083Y-116145656D01*
X101972107Y-116120136D01*
X101921204Y-116088406D01*
X101878166Y-116051353D01*
X101852797Y-116025383D01*
X101887867Y-115980514D01*
X101906268Y-115957271D01*
X101919943Y-115941186D01*
X101930499Y-115930971D01*
X101939564Y-115925306D01*
X101948767Y-115922874D01*
X101959739Y-115922357D01*
X101973908Y-115924404D01*
X101991128Y-115931745D01*
X102013201Y-115945517D01*
X102033118Y-115958574D01*
X102056361Y-115972810D01*
X102076269Y-115984051D01*
X102087576Y-115989775D01*
X102098677Y-115994288D01*
X102110437Y-115997119D01*
X102125349Y-115998659D01*
X102145904Y-115999297D01*
X102174595Y-115999423D01*
X102199457Y-115999334D01*
X102221283Y-115998775D01*
X102237211Y-115997349D01*
X102249810Y-115994659D01*
X102261647Y-115990311D01*
X102275289Y-115983908D01*
X102293129Y-115974043D01*
X102327252Y-115947201D01*
X102355557Y-115912406D01*
X102378432Y-115869124D01*
X102396264Y-115816821D01*
X102398966Y-115805451D01*
X102404312Y-115770217D01*
X102407310Y-115729080D01*
X102407965Y-115685257D01*
X102406281Y-115641966D01*
X102402263Y-115602424D01*
X102395915Y-115569847D01*
X102390718Y-115552226D01*
X102370642Y-115503901D01*
X102344293Y-115463437D01*
X102312020Y-115431301D01*
X102274175Y-115407957D01*
X102264167Y-115403562D01*
X102249237Y-115398430D01*
X102232865Y-115395117D01*
X102211989Y-115393075D01*
X102183547Y-115391756D01*
X102172892Y-115391461D01*
X102139902Y-115391976D01*
X102111815Y-115395587D01*
X102085318Y-115403164D01*
X102057098Y-115415578D01*
X102023840Y-115433698D01*
X102011620Y-115440366D01*
X101984374Y-115451556D01*
X101962022Y-115454498D01*
X101943521Y-115449396D01*
X101938056Y-115444710D01*
X101927242Y-115432748D01*
X101913396Y-115415769D01*
X101898210Y-115395775D01*
X101862706Y-115347402D01*
X101875148Y-115334011D01*
X101885210Y-115324425D01*
X101906060Y-115307782D01*
X101931481Y-115289924D01*
X101958506Y-115272899D01*
X101984169Y-115258753D01*
X101987841Y-115256933D01*
X102027315Y-115240078D01*
X102067774Y-115228279D01*
X102112298Y-115220820D01*
X102163966Y-115216985D01*
X102178389Y-115216501D01*
X102228400Y-115216782D01*
G37*
G36*
X99917409Y-115957765D02*
G01*
X99913099Y-115991256D01*
X99908013Y-116010683D01*
X99889007Y-116055857D01*
X99861614Y-116094797D01*
X99826309Y-116127028D01*
X99783571Y-116152078D01*
X99733873Y-116169473D01*
X99730602Y-116170254D01*
X99700702Y-116174660D01*
X99664263Y-116176450D01*
X99624574Y-116175766D01*
X99584925Y-116172748D01*
X99548606Y-116167537D01*
X99518907Y-116160273D01*
X99493795Y-116151166D01*
X99434101Y-116121647D01*
X99377592Y-116082168D01*
X99372955Y-116078430D01*
X99357945Y-116066609D01*
X99346901Y-116058341D01*
X99341942Y-116055230D01*
X99341750Y-116055318D01*
X99338873Y-116061166D01*
X99334140Y-116074367D01*
X99328472Y-116092381D01*
X99321339Y-116112800D01*
X99313118Y-116131022D01*
X99305658Y-116142891D01*
X99304166Y-116144480D01*
X99288661Y-116154467D01*
X99264828Y-116161433D01*
X99232008Y-116165513D01*
X99189543Y-116166843D01*
X99142434Y-116166843D01*
X99142434Y-115921290D01*
X99360346Y-115921290D01*
X99390906Y-115949263D01*
X99414963Y-115968529D01*
X99451776Y-115990946D01*
X99490766Y-116008115D01*
X99528096Y-116018111D01*
X99536976Y-116019448D01*
X99580722Y-116022242D01*
X99618990Y-116018129D01*
X99650931Y-116007370D01*
X99675696Y-115990232D01*
X99692436Y-115966977D01*
X99697948Y-115951373D01*
X99701788Y-115922103D01*
X99699419Y-115892012D01*
X99690912Y-115865870D01*
X99688060Y-115860759D01*
X99667794Y-115837271D01*
X99637509Y-115817128D01*
X99597269Y-115800352D01*
X99547140Y-115786966D01*
X99487189Y-115776994D01*
X99417481Y-115770459D01*
X99360346Y-115766773D01*
X99360346Y-115921290D01*
X99142434Y-115921290D01*
X99142434Y-115836356D01*
X99142477Y-115768948D01*
X99142604Y-115711196D01*
X99142836Y-115662229D01*
X99143193Y-115621178D01*
X99143694Y-115587172D01*
X99144361Y-115559342D01*
X99145214Y-115536816D01*
X99146273Y-115518726D01*
X99147558Y-115504200D01*
X99149090Y-115492368D01*
X99150888Y-115482361D01*
X99154180Y-115467651D01*
X99172952Y-115409567D01*
X99199468Y-115358749D01*
X99233775Y-115315133D01*
X99275921Y-115278658D01*
X99325951Y-115249261D01*
X99338663Y-115243482D01*
X99384661Y-115227701D01*
X99434670Y-115218566D01*
X99491194Y-115215565D01*
X99553406Y-115218623D01*
X99628434Y-115231020D01*
X99700013Y-115252609D01*
X99767002Y-115283029D01*
X99828262Y-115321922D01*
X99835192Y-115327043D01*
X99854286Y-115341431D01*
X99865908Y-115352238D01*
X99870664Y-115361888D01*
X99869158Y-115372809D01*
X99861997Y-115387426D01*
X99849786Y-115408164D01*
X99839096Y-115425536D01*
X99822300Y-115448529D01*
X99805660Y-115464003D01*
X99787695Y-115472201D01*
X99766924Y-115473365D01*
X99741866Y-115467737D01*
X99711040Y-115455560D01*
X99672966Y-115437074D01*
X99657759Y-115429437D01*
X99620464Y-115412329D01*
X99588454Y-115400724D01*
X99559343Y-115394008D01*
X99530740Y-115391570D01*
X99500259Y-115392797D01*
X99465487Y-115398853D01*
X99432683Y-115412412D01*
X99406319Y-115433452D01*
X99386158Y-115462326D01*
X99371962Y-115499387D01*
X99363491Y-115544986D01*
X99360510Y-115599475D01*
X99360346Y-115630036D01*
X99405732Y-115630036D01*
X99422497Y-115630222D01*
X99487320Y-115634122D01*
X99553092Y-115642697D01*
X99617541Y-115655440D01*
X99678394Y-115671843D01*
X99733379Y-115691400D01*
X99780224Y-115713604D01*
X99781240Y-115714172D01*
X99811575Y-115734248D01*
X99841100Y-115759163D01*
X99867592Y-115786619D01*
X99888829Y-115814322D01*
X99902587Y-115839975D01*
X99905542Y-115848370D01*
X99913325Y-115881914D01*
X99917383Y-115919849D01*
X99917385Y-115922103D01*
X99917409Y-115957765D01*
G37*
G36*
X103574074Y-115957765D02*
G01*
X103569763Y-115991256D01*
X103564678Y-116010683D01*
X103545671Y-116055857D01*
X103518278Y-116094797D01*
X103482974Y-116127028D01*
X103440235Y-116152078D01*
X103390538Y-116169473D01*
X103387267Y-116170254D01*
X103357367Y-116174660D01*
X103320927Y-116176450D01*
X103281238Y-116175766D01*
X103241590Y-116172748D01*
X103205271Y-116167537D01*
X103175572Y-116160273D01*
X103150459Y-116151166D01*
X103090765Y-116121647D01*
X103034257Y-116082168D01*
X103029620Y-116078430D01*
X103014610Y-116066609D01*
X103003565Y-116058341D01*
X102998606Y-116055230D01*
X102998414Y-116055318D01*
X102995538Y-116061166D01*
X102990805Y-116074367D01*
X102985136Y-116092381D01*
X102978003Y-116112800D01*
X102969783Y-116131022D01*
X102962323Y-116142891D01*
X102960831Y-116144480D01*
X102945326Y-116154467D01*
X102921493Y-116161433D01*
X102888672Y-116165513D01*
X102846207Y-116166843D01*
X102799098Y-116166843D01*
X102799098Y-115921290D01*
X103017010Y-115921290D01*
X103047571Y-115949263D01*
X103071627Y-115968529D01*
X103108441Y-115990946D01*
X103147431Y-116008115D01*
X103184761Y-116018111D01*
X103193640Y-116019448D01*
X103237387Y-116022242D01*
X103275655Y-116018129D01*
X103307595Y-116007370D01*
X103332360Y-115990232D01*
X103349100Y-115966977D01*
X103354613Y-115951373D01*
X103358453Y-115922103D01*
X103356083Y-115892012D01*
X103347577Y-115865870D01*
X103344725Y-115860759D01*
X103324459Y-115837271D01*
X103294173Y-115817128D01*
X103253933Y-115800352D01*
X103203805Y-115786966D01*
X103143853Y-115776994D01*
X103074146Y-115770459D01*
X103017010Y-115766773D01*
X103017010Y-115921290D01*
X102799098Y-115921290D01*
X102799098Y-115845066D01*
X102799099Y-115836356D01*
X102799142Y-115768948D01*
X102799269Y-115711196D01*
X102799501Y-115662229D01*
X102799857Y-115621178D01*
X102800359Y-115587172D01*
X102801026Y-115559342D01*
X102801879Y-115536816D01*
X102802937Y-115518726D01*
X102804223Y-115504200D01*
X102805754Y-115492368D01*
X102807553Y-115482361D01*
X102810845Y-115467651D01*
X102829617Y-115409567D01*
X102856133Y-115358749D01*
X102890440Y-115315133D01*
X102932585Y-115278658D01*
X102982616Y-115249261D01*
X102995327Y-115243482D01*
X103041326Y-115227701D01*
X103091334Y-115218566D01*
X103147858Y-115215565D01*
X103210071Y-115218623D01*
X103285099Y-115231020D01*
X103356678Y-115252609D01*
X103423667Y-115283029D01*
X103484927Y-115321922D01*
X103491857Y-115327043D01*
X103510951Y-115341431D01*
X103522573Y-115352238D01*
X103527328Y-115361888D01*
X103525823Y-115372809D01*
X103518662Y-115387426D01*
X103506451Y-115408164D01*
X103495761Y-115425536D01*
X103478965Y-115448529D01*
X103462325Y-115464003D01*
X103444359Y-115472201D01*
X103423588Y-115473365D01*
X103398530Y-115467737D01*
X103367704Y-115455560D01*
X103329630Y-115437074D01*
X103314424Y-115429437D01*
X103277128Y-115412329D01*
X103245119Y-115400724D01*
X103216007Y-115394008D01*
X103187405Y-115391570D01*
X103156923Y-115392797D01*
X103122152Y-115398853D01*
X103089347Y-115412412D01*
X103062984Y-115433452D01*
X103042823Y-115462326D01*
X103028626Y-115499387D01*
X103020156Y-115544986D01*
X103017174Y-115599475D01*
X103017010Y-115630036D01*
X103062396Y-115630036D01*
X103079161Y-115630222D01*
X103143985Y-115634122D01*
X103209757Y-115642697D01*
X103274205Y-115655440D01*
X103335058Y-115671843D01*
X103390044Y-115691400D01*
X103436889Y-115713604D01*
X103437904Y-115714172D01*
X103468239Y-115734248D01*
X103497764Y-115759163D01*
X103524257Y-115786619D01*
X103545493Y-115814322D01*
X103559251Y-115839975D01*
X103562207Y-115848370D01*
X103569990Y-115881914D01*
X103574047Y-115919849D01*
X103574049Y-115922103D01*
X103574074Y-115957765D01*
G37*
G36*
X103912014Y-114848788D02*
G01*
X103954223Y-114849358D01*
X103986023Y-114850592D01*
X104007561Y-114852495D01*
X104018982Y-114855075D01*
X104027748Y-114861796D01*
X104040149Y-114876509D01*
X104052990Y-114896265D01*
X104053412Y-114896999D01*
X104063381Y-114914742D01*
X104077350Y-114940199D01*
X104094844Y-114972470D01*
X104115391Y-115010656D01*
X104138515Y-115053857D01*
X104163744Y-115101175D01*
X104190601Y-115151708D01*
X104218615Y-115204559D01*
X104247310Y-115258827D01*
X104276213Y-115313612D01*
X104304849Y-115368016D01*
X104332745Y-115421139D01*
X104359427Y-115472081D01*
X104384420Y-115519942D01*
X104407250Y-115563824D01*
X104427443Y-115602827D01*
X104444526Y-115636051D01*
X104458024Y-115662596D01*
X104467464Y-115681564D01*
X104472370Y-115692055D01*
X104476909Y-115702585D01*
X104484853Y-115719234D01*
X104491023Y-115729864D01*
X104494366Y-115732536D01*
X104495281Y-115731065D01*
X104500021Y-115721461D01*
X104507232Y-115705542D01*
X104515752Y-115685843D01*
X104517505Y-115681950D01*
X104524906Y-115666784D01*
X104536746Y-115643404D01*
X104552609Y-115612603D01*
X104572080Y-115575173D01*
X104594743Y-115531906D01*
X104620181Y-115483597D01*
X104647979Y-115431037D01*
X104677721Y-115375019D01*
X104708991Y-115316337D01*
X104741374Y-115255783D01*
X104750282Y-115239158D01*
X104787806Y-115169233D01*
X104820748Y-115108054D01*
X104849410Y-115055081D01*
X104874096Y-115009775D01*
X104895111Y-114971594D01*
X104912758Y-114940000D01*
X104927341Y-114914453D01*
X104939163Y-114894412D01*
X104948529Y-114879337D01*
X104955743Y-114868689D01*
X104961108Y-114861927D01*
X104964928Y-114858512D01*
X104970933Y-114855397D01*
X104978784Y-114852897D01*
X104989658Y-114851108D01*
X105005077Y-114849915D01*
X105026563Y-114849203D01*
X105055635Y-114848858D01*
X105093815Y-114848763D01*
X105206757Y-114848743D01*
X105206757Y-116161528D01*
X104988315Y-116161528D01*
X104989909Y-115688941D01*
X104990127Y-115621940D01*
X104990329Y-115555088D01*
X104990503Y-115492092D01*
X104990649Y-115433704D01*
X104990764Y-115380677D01*
X104990847Y-115333763D01*
X104990897Y-115293715D01*
X104990913Y-115261287D01*
X104990893Y-115237230D01*
X104990837Y-115222297D01*
X104990742Y-115217241D01*
X104990381Y-115217881D01*
X104986102Y-115225751D01*
X104977301Y-115242026D01*
X104964359Y-115265999D01*
X104947655Y-115296968D01*
X104927571Y-115334225D01*
X104904485Y-115377067D01*
X104878777Y-115424788D01*
X104850829Y-115476682D01*
X104821020Y-115532046D01*
X104789729Y-115590174D01*
X104779959Y-115608313D01*
X104748673Y-115666214D01*
X104718699Y-115721419D01*
X104690448Y-115773186D01*
X104664331Y-115820772D01*
X104640758Y-115863437D01*
X104620141Y-115900437D01*
X104602892Y-115931030D01*
X104589421Y-115954476D01*
X104580138Y-115970031D01*
X104575456Y-115976953D01*
X104561433Y-115988457D01*
X104541095Y-115997125D01*
X104514549Y-116001256D01*
X104479891Y-116001333D01*
X104474308Y-116001066D01*
X104453678Y-115999493D01*
X104439561Y-115996674D01*
X104428563Y-115991636D01*
X104417293Y-115983408D01*
X104413824Y-115980109D01*
X104408240Y-115973315D01*
X104401119Y-115963127D01*
X104392123Y-115948943D01*
X104380910Y-115930160D01*
X104367142Y-115906178D01*
X104350479Y-115876392D01*
X104330580Y-115840202D01*
X104307107Y-115797006D01*
X104279718Y-115746200D01*
X104248075Y-115687184D01*
X104211837Y-115619354D01*
X104183731Y-115566664D01*
X104154354Y-115511566D01*
X104126545Y-115459381D01*
X104100732Y-115410917D01*
X104077346Y-115366983D01*
X104056817Y-115328386D01*
X104039575Y-115295933D01*
X104026050Y-115270434D01*
X104016671Y-115252696D01*
X104011869Y-115243528D01*
X103997613Y-115215776D01*
X103999230Y-115688652D01*
X104000848Y-116161528D01*
X103782359Y-116161528D01*
X103782359Y-114848743D01*
X103893722Y-114848743D01*
X103912014Y-114848788D01*
G37*
G36*
X96130749Y-114838604D02*
G01*
X96203280Y-114845905D01*
X96269855Y-114861974D01*
X96330565Y-114886844D01*
X96385500Y-114920551D01*
X96434750Y-114963129D01*
X96465388Y-114998710D01*
X96495968Y-115047247D01*
X96518406Y-115099553D01*
X96532676Y-115154336D01*
X96538750Y-115210304D01*
X96536601Y-115266165D01*
X96526203Y-115320627D01*
X96507527Y-115372398D01*
X96480546Y-115420187D01*
X96445235Y-115462699D01*
X96428471Y-115478470D01*
X96405267Y-115497114D01*
X96379302Y-115514214D01*
X96349302Y-115530380D01*
X96313989Y-115546225D01*
X96272088Y-115562362D01*
X96222324Y-115579403D01*
X96163421Y-115597960D01*
X96163280Y-115598003D01*
X96115206Y-115613247D01*
X96076125Y-115626988D01*
X96044620Y-115639862D01*
X96019277Y-115652506D01*
X95998679Y-115665553D01*
X95981409Y-115679641D01*
X95980397Y-115680578D01*
X95958540Y-115703909D01*
X95944704Y-115727163D01*
X95937450Y-115753686D01*
X95935338Y-115786826D01*
X95936343Y-115812534D01*
X95942962Y-115849943D01*
X95956427Y-115881922D01*
X95977506Y-115910722D01*
X95981386Y-115914869D01*
X96012534Y-115939595D01*
X96051017Y-115957962D01*
X96095550Y-115969615D01*
X96144852Y-115974202D01*
X96197639Y-115971369D01*
X96200376Y-115971021D01*
X96242362Y-115962851D01*
X96283660Y-115948975D01*
X96326607Y-115928448D01*
X96373543Y-115900325D01*
X96376465Y-115898433D01*
X96405095Y-115880296D01*
X96426909Y-115867610D01*
X96443588Y-115859703D01*
X96456812Y-115855903D01*
X96468264Y-115855539D01*
X96479624Y-115857939D01*
X96486590Y-115860388D01*
X96499075Y-115867272D01*
X96511305Y-115878165D01*
X96524490Y-115894464D01*
X96539842Y-115917561D01*
X96558571Y-115948853D01*
X96590935Y-116004581D01*
X96573949Y-116022105D01*
X96558483Y-116036718D01*
X96521288Y-116065130D01*
X96476773Y-116092395D01*
X96427123Y-116117460D01*
X96374521Y-116139274D01*
X96321153Y-116156782D01*
X96269204Y-116168934D01*
X96246628Y-116172135D01*
X96210711Y-116175102D01*
X96171035Y-116176604D01*
X96131164Y-116176592D01*
X96094663Y-116175014D01*
X96065095Y-116171820D01*
X96056108Y-116170232D01*
X96015674Y-116160443D01*
X95972914Y-116146557D01*
X95932143Y-116130103D01*
X95897676Y-116112605D01*
X95875156Y-116097845D01*
X95839182Y-116068497D01*
X95805060Y-116034222D01*
X95775510Y-115997852D01*
X95753252Y-115962219D01*
X95748202Y-115952294D01*
X95731766Y-115916802D01*
X95720084Y-115884289D01*
X95712304Y-115851374D01*
X95707575Y-115814678D01*
X95705046Y-115770818D01*
X95704866Y-115765416D01*
X95704542Y-115722868D01*
X95706793Y-115687821D01*
X95712060Y-115657651D01*
X95720781Y-115629733D01*
X95733397Y-115601443D01*
X95748570Y-115574043D01*
X95768598Y-115545388D01*
X95792179Y-115519472D01*
X95820300Y-115495650D01*
X95853953Y-115473273D01*
X95894126Y-115451693D01*
X95941809Y-115430264D01*
X95997990Y-115408337D01*
X96063659Y-115385265D01*
X96094201Y-115374837D01*
X96138435Y-115359070D01*
X96174438Y-115345161D01*
X96203487Y-115332538D01*
X96226860Y-115320630D01*
X96245834Y-115308866D01*
X96261685Y-115296674D01*
X96274676Y-115284403D01*
X96292799Y-115259587D01*
X96302862Y-115231002D01*
X96305994Y-115196077D01*
X96305987Y-115194104D01*
X96300989Y-115153788D01*
X96286953Y-115118834D01*
X96264180Y-115089540D01*
X96232972Y-115066203D01*
X96193631Y-115049121D01*
X96146457Y-115038590D01*
X96116559Y-115035818D01*
X96066913Y-115037816D01*
X96016599Y-115048403D01*
X95964291Y-115067902D01*
X95908661Y-115096638D01*
X95897745Y-115102853D01*
X95870002Y-115116889D01*
X95847436Y-115124266D01*
X95828556Y-115124437D01*
X95811873Y-115116854D01*
X95795896Y-115100972D01*
X95779135Y-115076243D01*
X95760098Y-115042120D01*
X95724156Y-114974301D01*
X95744479Y-114957080D01*
X95779199Y-114930913D01*
X95834806Y-114898957D01*
X95896847Y-114873155D01*
X95963671Y-114854050D01*
X96033628Y-114842188D01*
X96105066Y-114838113D01*
X96130749Y-114838604D01*
G37*
G36*
X93368243Y-114834425D02*
G01*
X93439097Y-114841707D01*
X93503144Y-114856851D01*
X93560959Y-114880086D01*
X93613122Y-114911642D01*
X93660208Y-114951749D01*
X93668641Y-114960322D01*
X93708758Y-115008081D01*
X93740354Y-115059543D01*
X93764357Y-115116457D01*
X93781696Y-115180572D01*
X93782234Y-115183166D01*
X93785631Y-115202738D01*
X93785900Y-115213891D01*
X93783098Y-115218181D01*
X93782819Y-115218263D01*
X93774622Y-115220011D01*
X93758372Y-115223086D01*
X93736287Y-115227079D01*
X93710586Y-115231580D01*
X93696085Y-115234012D01*
X93659685Y-115239004D01*
X93631346Y-115240243D01*
X93609445Y-115237055D01*
X93592356Y-115228766D01*
X93578453Y-115214703D01*
X93566112Y-115194193D01*
X93553706Y-115166561D01*
X93542759Y-115141689D01*
X93531474Y-115121113D01*
X93518382Y-115103419D01*
X93501024Y-115084792D01*
X93479269Y-115064868D01*
X93453041Y-115047013D01*
X93424876Y-115035554D01*
X93392048Y-115029444D01*
X93351829Y-115027640D01*
X93342020Y-115027751D01*
X93296924Y-115031929D01*
X93259527Y-115042547D01*
X93228808Y-115060157D01*
X93203747Y-115085308D01*
X93183320Y-115118553D01*
X93180186Y-115124974D01*
X93173467Y-115139953D01*
X93169257Y-115153101D01*
X93166979Y-115167532D01*
X93166059Y-115186361D01*
X93165920Y-115212703D01*
X93166966Y-115244678D01*
X93171506Y-115277474D01*
X93180412Y-115304198D01*
X93194512Y-115327167D01*
X93214638Y-115348697D01*
X93233526Y-115363886D01*
X93264132Y-115381164D01*
X93300893Y-115394257D01*
X93345172Y-115403618D01*
X93398335Y-115409701D01*
X93444840Y-115413382D01*
X93444840Y-115569575D01*
X93374418Y-115575634D01*
X93361590Y-115576825D01*
X93306235Y-115584517D01*
X93260234Y-115595832D01*
X93222912Y-115611205D01*
X93193596Y-115631067D01*
X93171612Y-115655852D01*
X93156287Y-115685995D01*
X93146945Y-115721927D01*
X93144523Y-115739534D01*
X93143113Y-115783955D01*
X93148306Y-115825516D01*
X93159829Y-115861280D01*
X93178833Y-115893967D01*
X93207788Y-115926157D01*
X93242621Y-115951593D01*
X93281892Y-115970044D01*
X93324164Y-115981277D01*
X93367998Y-115985060D01*
X93411955Y-115981161D01*
X93454598Y-115969348D01*
X93494487Y-115949389D01*
X93530185Y-115921051D01*
X93537947Y-115912695D01*
X93553858Y-115892831D01*
X93570733Y-115869092D01*
X93586014Y-115844963D01*
X93591489Y-115835844D01*
X93609311Y-115809639D01*
X93626734Y-115791215D01*
X93645341Y-115780194D01*
X93666711Y-115776196D01*
X93692428Y-115778844D01*
X93724071Y-115787759D01*
X93763224Y-115802563D01*
X93826698Y-115828317D01*
X93813151Y-115866036D01*
X93809075Y-115877119D01*
X93779084Y-115945286D01*
X93743794Y-116004327D01*
X93702988Y-116054441D01*
X93656447Y-116095827D01*
X93603952Y-116128685D01*
X93545286Y-116153213D01*
X93480229Y-116169610D01*
X93462670Y-116172053D01*
X93435656Y-116174482D01*
X93405156Y-116176218D01*
X93375005Y-116176993D01*
X93307256Y-116174050D01*
X93236986Y-116162932D01*
X93172294Y-116143868D01*
X93113664Y-116117179D01*
X93061584Y-116083188D01*
X93016540Y-116042218D01*
X92979016Y-115994591D01*
X92949500Y-115940630D01*
X92928477Y-115880656D01*
X92925713Y-115868763D01*
X92920548Y-115834891D01*
X92917648Y-115796842D01*
X92917110Y-115758235D01*
X92919030Y-115722687D01*
X92923505Y-115693815D01*
X92934306Y-115658024D01*
X92957945Y-115609013D01*
X92990241Y-115566049D01*
X93030931Y-115529459D01*
X93079755Y-115499567D01*
X93092775Y-115493188D01*
X93112045Y-115484288D01*
X93126752Y-115478175D01*
X93134458Y-115475904D01*
X93139741Y-115475271D01*
X93141636Y-115471779D01*
X93135355Y-115466378D01*
X93121959Y-115460384D01*
X93108759Y-115455293D01*
X93064462Y-115431183D01*
X93025425Y-115398730D01*
X92992694Y-115359133D01*
X92967313Y-115313592D01*
X92950327Y-115263307D01*
X92948053Y-115251645D01*
X92944824Y-115222556D01*
X92943378Y-115188956D01*
X92943725Y-115154590D01*
X92945876Y-115123204D01*
X92949843Y-115098544D01*
X92957683Y-115072033D01*
X92977198Y-115026431D01*
X93002623Y-114983951D01*
X93031955Y-114948261D01*
X93055628Y-114926211D01*
X93105556Y-114890464D01*
X93161374Y-114863431D01*
X93223176Y-114845079D01*
X93291059Y-114835375D01*
X93365116Y-114834288D01*
X93368243Y-114834425D01*
G37*
G36*
X97197173Y-112805156D02*
G01*
X97196582Y-112853650D01*
X97190216Y-112965044D01*
X97176579Y-113070890D01*
X97155312Y-113173059D01*
X97126059Y-113273423D01*
X97088461Y-113373853D01*
X97073505Y-113408518D01*
X97022029Y-113510688D01*
X96962442Y-113606255D01*
X96895098Y-113694967D01*
X96820354Y-113776573D01*
X96738565Y-113850823D01*
X96650086Y-113917464D01*
X96555274Y-113976246D01*
X96454484Y-114026918D01*
X96348072Y-114069228D01*
X96236394Y-114102925D01*
X96119804Y-114127759D01*
X95998659Y-114143477D01*
X95993849Y-114143872D01*
X95965740Y-114145306D01*
X95930077Y-114146101D01*
X95889378Y-114146290D01*
X95846157Y-114145909D01*
X95802930Y-114144992D01*
X95762213Y-114143572D01*
X95726519Y-114141685D01*
X95698366Y-114139365D01*
X95681772Y-114137535D01*
X95621957Y-114129825D01*
X95568208Y-114120735D01*
X95516891Y-114109490D01*
X95464374Y-114095320D01*
X95407022Y-114077452D01*
X95340268Y-114053552D01*
X95235357Y-114007174D01*
X95136166Y-113952078D01*
X95043107Y-113888616D01*
X94956590Y-113817140D01*
X94877024Y-113738000D01*
X94804821Y-113651550D01*
X94740391Y-113558140D01*
X94684144Y-113458121D01*
X94638062Y-113355292D01*
X94600407Y-113246978D01*
X94571317Y-113134448D01*
X94550862Y-113018834D01*
X94539114Y-112901271D01*
X94536426Y-112794177D01*
X95042220Y-112794177D01*
X95042363Y-112839437D01*
X95043111Y-112882911D01*
X95044463Y-112922392D01*
X95046421Y-112955673D01*
X95048985Y-112980549D01*
X95060310Y-113048198D01*
X95082541Y-113143459D01*
X95111189Y-113231050D01*
X95146523Y-113311649D01*
X95188816Y-113385936D01*
X95238339Y-113454588D01*
X95257280Y-113477182D01*
X95296421Y-113518031D01*
X95339756Y-113555342D01*
X95390398Y-113591927D01*
X95450642Y-113628658D01*
X95523626Y-113663620D01*
X95600728Y-113690463D01*
X95683321Y-113709652D01*
X95772775Y-113721652D01*
X95846208Y-113725901D01*
X95948087Y-113723170D01*
X96047546Y-113710153D01*
X96144819Y-113686827D01*
X96175130Y-113676463D01*
X96216153Y-113659431D01*
X96259698Y-113638768D01*
X96302604Y-113616074D01*
X96341709Y-113592947D01*
X96373851Y-113570987D01*
X96387890Y-113560113D01*
X96452474Y-113502043D01*
X96509779Y-113436296D01*
X96559742Y-113362989D01*
X96602301Y-113282239D01*
X96637390Y-113194162D01*
X96664948Y-113098874D01*
X96684912Y-112996494D01*
X96686411Y-112985744D01*
X96690323Y-112946207D01*
X96693075Y-112899530D01*
X96694666Y-112848242D01*
X96695093Y-112794872D01*
X96694356Y-112741949D01*
X96692453Y-112692004D01*
X96689383Y-112647565D01*
X96685143Y-112611162D01*
X96681222Y-112587009D01*
X96659452Y-112485875D01*
X96630174Y-112391899D01*
X96593454Y-112305205D01*
X96549361Y-112225919D01*
X96497960Y-112154166D01*
X96439321Y-112090069D01*
X96373509Y-112033755D01*
X96346466Y-112015060D01*
X96308340Y-111992135D01*
X96265956Y-111969392D01*
X96222472Y-111948426D01*
X96181041Y-111930831D01*
X96144819Y-111918201D01*
X96096414Y-111905433D01*
X96008759Y-111889242D01*
X95918573Y-111880723D01*
X95827854Y-111879860D01*
X95738594Y-111886637D01*
X95652789Y-111901035D01*
X95572433Y-111923038D01*
X95557688Y-111928137D01*
X95475830Y-111962679D01*
X95400553Y-112005492D01*
X95331973Y-112056420D01*
X95270204Y-112115308D01*
X95215361Y-112182001D01*
X95167562Y-112256344D01*
X95126920Y-112338181D01*
X95093552Y-112427358D01*
X95067572Y-112523718D01*
X95049097Y-112627107D01*
X95047675Y-112639405D01*
X95045409Y-112669745D01*
X95043743Y-112707124D01*
X95042680Y-112749337D01*
X95042220Y-112794177D01*
X94536426Y-112794177D01*
X94536143Y-112782892D01*
X94542019Y-112664832D01*
X94556813Y-112548225D01*
X94580597Y-112434204D01*
X94613440Y-112323903D01*
X94637904Y-112257923D01*
X94682315Y-112157685D01*
X94733303Y-112064641D01*
X94791654Y-111977544D01*
X94858155Y-111895146D01*
X94933592Y-111816201D01*
X94936611Y-111813287D01*
X95020256Y-111740207D01*
X95110731Y-111675122D01*
X95207683Y-111618202D01*
X95310759Y-111569612D01*
X95419604Y-111529522D01*
X95533865Y-111498096D01*
X95653189Y-111475505D01*
X95662905Y-111474181D01*
X95699864Y-111470598D01*
X95744424Y-111467946D01*
X95794313Y-111466224D01*
X95847261Y-111465434D01*
X95900997Y-111465576D01*
X95953248Y-111466649D01*
X96001744Y-111468655D01*
X96044212Y-111471593D01*
X96078383Y-111475463D01*
X96126955Y-111483419D01*
X96245724Y-111509651D01*
X96358803Y-111544588D01*
X96465990Y-111588106D01*
X96567081Y-111640081D01*
X96661872Y-111700389D01*
X96750161Y-111768906D01*
X96831745Y-111845508D01*
X96906419Y-111930070D01*
X96973981Y-112022468D01*
X97028324Y-112111743D01*
X97080079Y-112215702D01*
X97122336Y-112324123D01*
X97155136Y-112437143D01*
X97178516Y-112554898D01*
X97192515Y-112677524D01*
X97196798Y-112794872D01*
X97197173Y-112805156D01*
G37*
G36*
X99328456Y-114120599D02*
G01*
X98839483Y-114120599D01*
X98839483Y-113093773D01*
X98702624Y-113096108D01*
X98702259Y-113096115D01*
X98654494Y-113097089D01*
X98615967Y-113098406D01*
X98585297Y-113100361D01*
X98561102Y-113103254D01*
X98542000Y-113107383D01*
X98526609Y-113113045D01*
X98513548Y-113120539D01*
X98501434Y-113130162D01*
X98488886Y-113142214D01*
X98488256Y-113142887D01*
X98480909Y-113152266D01*
X98468241Y-113169872D01*
X98450653Y-113195106D01*
X98428548Y-113227369D01*
X98402328Y-113266062D01*
X98372397Y-113310587D01*
X98339157Y-113360345D01*
X98303010Y-113414738D01*
X98264360Y-113473166D01*
X98223608Y-113535032D01*
X98181158Y-113599737D01*
X98158981Y-113633579D01*
X98112173Y-113704801D01*
X98068625Y-113770776D01*
X98028614Y-113831093D01*
X97992416Y-113885343D01*
X97960308Y-113933114D01*
X97932566Y-113973996D01*
X97909467Y-114007579D01*
X97891287Y-114033452D01*
X97878303Y-114051205D01*
X97870791Y-114060427D01*
X97865177Y-114065939D01*
X97839021Y-114086950D01*
X97811602Y-114102947D01*
X97779157Y-114117942D01*
X97530685Y-114119469D01*
X97483143Y-114119704D01*
X97436079Y-114119815D01*
X97393400Y-114119791D01*
X97356147Y-114119639D01*
X97325362Y-114119366D01*
X97302083Y-114118977D01*
X97287353Y-114118480D01*
X97282212Y-114117882D01*
X97283573Y-114115495D01*
X97290301Y-114105055D01*
X97302247Y-114086968D01*
X97318951Y-114061911D01*
X97339955Y-114030561D01*
X97364800Y-113993593D01*
X97393028Y-113951683D01*
X97424179Y-113905509D01*
X97457795Y-113855747D01*
X97493416Y-113803072D01*
X97530585Y-113748162D01*
X97568842Y-113691691D01*
X97607729Y-113634338D01*
X97646787Y-113576777D01*
X97685556Y-113519686D01*
X97723579Y-113463740D01*
X97760397Y-113409616D01*
X97795550Y-113357991D01*
X97828580Y-113309540D01*
X97859027Y-113264940D01*
X97886435Y-113224867D01*
X97910343Y-113189997D01*
X97930292Y-113161007D01*
X97945825Y-113138574D01*
X97956481Y-113123372D01*
X97961804Y-113116079D01*
X97968896Y-113107491D01*
X97998944Y-113075016D01*
X98031255Y-113045260D01*
X98062257Y-113021584D01*
X98075546Y-113012360D01*
X98085456Y-113004771D01*
X98088654Y-113001268D01*
X98086533Y-113000200D01*
X98076343Y-112995940D01*
X98059780Y-112989363D01*
X98039082Y-112981370D01*
X98010861Y-112970173D01*
X97932229Y-112933633D01*
X97861045Y-112891690D01*
X97795459Y-112843167D01*
X97733621Y-112786886D01*
X97705460Y-112757449D01*
X97655385Y-112696656D01*
X97613733Y-112632790D01*
X97579669Y-112564284D01*
X97552356Y-112489573D01*
X97530961Y-112407091D01*
X97530553Y-112405159D01*
X97524988Y-112369607D01*
X97521119Y-112326647D01*
X97519899Y-112299657D01*
X97995815Y-112299657D01*
X98002213Y-112370093D01*
X98018738Y-112438155D01*
X98045251Y-112503030D01*
X98049128Y-112510582D01*
X98082814Y-112563250D01*
X98124783Y-112609547D01*
X98174686Y-112649268D01*
X98232176Y-112682210D01*
X98296905Y-112708169D01*
X98368525Y-112726940D01*
X98446688Y-112738321D01*
X98450592Y-112738659D01*
X98473773Y-112740086D01*
X98505165Y-112741365D01*
X98542795Y-112742447D01*
X98584691Y-112743283D01*
X98628881Y-112743823D01*
X98673392Y-112744017D01*
X98839483Y-112744035D01*
X98839483Y-111871227D01*
X98625558Y-111873754D01*
X98599091Y-111874083D01*
X98541896Y-111874970D01*
X98493504Y-111876086D01*
X98452622Y-111877553D01*
X98417958Y-111879497D01*
X98388218Y-111882042D01*
X98362110Y-111885312D01*
X98338340Y-111889432D01*
X98315615Y-111894525D01*
X98292643Y-111900717D01*
X98268130Y-111908132D01*
X98254192Y-111912707D01*
X98192982Y-111938426D01*
X98140106Y-111970740D01*
X98095515Y-112009707D01*
X98059160Y-112055387D01*
X98030990Y-112107841D01*
X98010957Y-112167128D01*
X97999010Y-112233308D01*
X97995815Y-112299657D01*
X97519899Y-112299657D01*
X97518973Y-112279183D01*
X97518577Y-112230120D01*
X97519957Y-112182365D01*
X97523141Y-112138823D01*
X97528154Y-112102399D01*
X97541274Y-112044064D01*
X97565484Y-111968162D01*
X97596396Y-111897648D01*
X97633249Y-111834471D01*
X97635236Y-111831572D01*
X97654993Y-111806170D01*
X97680808Y-111777228D01*
X97710355Y-111747038D01*
X97741306Y-111717893D01*
X97771337Y-111692088D01*
X97798121Y-111671916D01*
X97821901Y-111656438D01*
X97895922Y-111615771D01*
X97978760Y-111580398D01*
X98070050Y-111550445D01*
X98169423Y-111526041D01*
X98276514Y-111507309D01*
X98286530Y-111506002D01*
X98299695Y-111504633D01*
X98315109Y-111503420D01*
X98333470Y-111502350D01*
X98355477Y-111501409D01*
X98381829Y-111500584D01*
X98413223Y-111499862D01*
X98450358Y-111499228D01*
X98493932Y-111498669D01*
X98544644Y-111498171D01*
X98603193Y-111497722D01*
X98670276Y-111497308D01*
X98746592Y-111496914D01*
X98832840Y-111496528D01*
X99328456Y-111494430D01*
X99328456Y-111871227D01*
X99328456Y-114120599D01*
G37*
G36*
X102411109Y-112972576D02*
G01*
X102411109Y-114121043D01*
X101835769Y-114119232D01*
X101753882Y-114118965D01*
X101670863Y-114118663D01*
X101597260Y-114118350D01*
X101532431Y-114118016D01*
X101475732Y-114117650D01*
X101426520Y-114117239D01*
X101384151Y-114116773D01*
X101347981Y-114116241D01*
X101317369Y-114115631D01*
X101291670Y-114114933D01*
X101270240Y-114114134D01*
X101252437Y-114113225D01*
X101237617Y-114112193D01*
X101225137Y-114111027D01*
X101214353Y-114109717D01*
X101204623Y-114108251D01*
X101143169Y-114096791D01*
X101042150Y-114071383D01*
X100948675Y-114039135D01*
X100862902Y-114000188D01*
X100784990Y-113954681D01*
X100715097Y-113902754D01*
X100653383Y-113844547D01*
X100600007Y-113780200D01*
X100555127Y-113709853D01*
X100518902Y-113633645D01*
X100491492Y-113551716D01*
X100473054Y-113464206D01*
X100470208Y-113442242D01*
X100466788Y-113392250D01*
X100466615Y-113347608D01*
X100952334Y-113347608D01*
X100954154Y-113388634D01*
X100958240Y-113426522D01*
X100964557Y-113458052D01*
X100981282Y-113507149D01*
X101008659Y-113559909D01*
X101044038Y-113605831D01*
X101087510Y-113644993D01*
X101139166Y-113677475D01*
X101199094Y-113703356D01*
X101267387Y-113722714D01*
X101269999Y-113723291D01*
X101281389Y-113725664D01*
X101292806Y-113727681D01*
X101305214Y-113729378D01*
X101319577Y-113730794D01*
X101336858Y-113731966D01*
X101358022Y-113732931D01*
X101384032Y-113733728D01*
X101415853Y-113734393D01*
X101454447Y-113734966D01*
X101500780Y-113735482D01*
X101555815Y-113735980D01*
X101620515Y-113736497D01*
X101922137Y-113738827D01*
X101922137Y-112972576D01*
X101657719Y-112972595D01*
X101590919Y-112972691D01*
X101526818Y-112973041D01*
X101471428Y-112973701D01*
X101423742Y-112974727D01*
X101382758Y-112976174D01*
X101347472Y-112978099D01*
X101316878Y-112980557D01*
X101289974Y-112983604D01*
X101265754Y-112987295D01*
X101243216Y-112991687D01*
X101221355Y-112996835D01*
X101206343Y-113000867D01*
X101145096Y-113022762D01*
X101092109Y-113051334D01*
X101047348Y-113086613D01*
X101010780Y-113128631D01*
X100982369Y-113177419D01*
X100962083Y-113233008D01*
X100960830Y-113237901D01*
X100955637Y-113269021D01*
X100952817Y-113306663D01*
X100952334Y-113347608D01*
X100466615Y-113347608D01*
X100466582Y-113338943D01*
X100469454Y-113285723D01*
X100475268Y-113235990D01*
X100483889Y-113193146D01*
X100497216Y-113150126D01*
X100515054Y-113105118D01*
X100535435Y-113063030D01*
X100556672Y-113027701D01*
X100575392Y-113002607D01*
X100620698Y-112953857D01*
X100674772Y-112908833D01*
X100736619Y-112868152D01*
X100805243Y-112832431D01*
X100879648Y-112802289D01*
X100958838Y-112778342D01*
X100962862Y-112777296D01*
X100979730Y-112772271D01*
X100990638Y-112767939D01*
X100993385Y-112765141D01*
X100989979Y-112763187D01*
X100978530Y-112758180D01*
X100962794Y-112752170D01*
X100953286Y-112748575D01*
X100917973Y-112733068D01*
X100878599Y-112713158D01*
X100838365Y-112690612D01*
X100800473Y-112667198D01*
X100768123Y-112644682D01*
X100760879Y-112639159D01*
X100701986Y-112588285D01*
X100652737Y-112533759D01*
X100612570Y-112474770D01*
X100580925Y-112410508D01*
X100557239Y-112340162D01*
X100554233Y-112328758D01*
X100550120Y-112311158D01*
X100547203Y-112294284D01*
X100545272Y-112275864D01*
X100544118Y-112253629D01*
X100544015Y-112248643D01*
X101029300Y-112248643D01*
X101031748Y-112304077D01*
X101041629Y-112364924D01*
X101059267Y-112418766D01*
X101084854Y-112465940D01*
X101118579Y-112506784D01*
X101160635Y-112541637D01*
X101211213Y-112570837D01*
X101229222Y-112579223D01*
X101260298Y-112591910D01*
X101292311Y-112602304D01*
X101328484Y-112611393D01*
X101372043Y-112620166D01*
X101374454Y-112620593D01*
X101388970Y-112622567D01*
X101408123Y-112624280D01*
X101432768Y-112625762D01*
X101463762Y-112627043D01*
X101501961Y-112628154D01*
X101548221Y-112629127D01*
X101603398Y-112629990D01*
X101668349Y-112630776D01*
X101922137Y-112633516D01*
X101922137Y-111872388D01*
X101695839Y-111872388D01*
X101678664Y-111872405D01*
X101627773Y-111872639D01*
X101578228Y-111873125D01*
X101531576Y-111873833D01*
X101489365Y-111874731D01*
X101453141Y-111875788D01*
X101424453Y-111876972D01*
X101404847Y-111878253D01*
X101341389Y-111886253D01*
X101273794Y-111901050D01*
X101214903Y-111921746D01*
X101164512Y-111948542D01*
X101122419Y-111981638D01*
X101088421Y-112021236D01*
X101062313Y-112067534D01*
X101043892Y-112120734D01*
X101032956Y-112181037D01*
X101029300Y-112248643D01*
X100544015Y-112248643D01*
X100543533Y-112225306D01*
X100543308Y-112188626D01*
X100543312Y-112172065D01*
X100544086Y-112127118D01*
X100546322Y-112089060D01*
X100550427Y-112055100D01*
X100556806Y-112022444D01*
X100565867Y-111988301D01*
X100578014Y-111949878D01*
X100595920Y-111902917D01*
X100630820Y-111835242D01*
X100674438Y-111773554D01*
X100726703Y-111717894D01*
X100787548Y-111668303D01*
X100856905Y-111624821D01*
X100934705Y-111587489D01*
X101020879Y-111556348D01*
X101115360Y-111531440D01*
X101218078Y-111512805D01*
X101328966Y-111500484D01*
X101336377Y-111500015D01*
X101358345Y-111499156D01*
X101389894Y-111498360D01*
X101430332Y-111497632D01*
X101478970Y-111496981D01*
X101535115Y-111496412D01*
X101598079Y-111495931D01*
X101667171Y-111495546D01*
X101741700Y-111495263D01*
X101820975Y-111495089D01*
X101904306Y-111495029D01*
X102411109Y-111495029D01*
X102411109Y-112633516D01*
X102411109Y-112972576D01*
G37*
G36*
X105791398Y-114120599D02*
G01*
X105360890Y-114120599D01*
X105360976Y-113231679D01*
X105360985Y-113189510D01*
X105361049Y-113085832D01*
X105361171Y-112986063D01*
X105361347Y-112890719D01*
X105361575Y-112800318D01*
X105361853Y-112715376D01*
X105362176Y-112636410D01*
X105362543Y-112563938D01*
X105362951Y-112498477D01*
X105363397Y-112440544D01*
X105363878Y-112390655D01*
X105364391Y-112349327D01*
X105364934Y-112317079D01*
X105365504Y-112294426D01*
X105366097Y-112281886D01*
X105367831Y-112259342D01*
X105369118Y-112239024D01*
X105369688Y-112224957D01*
X105369426Y-112219308D01*
X105368039Y-112221504D01*
X105361970Y-112232263D01*
X105351329Y-112251544D01*
X105336385Y-112278851D01*
X105317403Y-112313692D01*
X105294652Y-112355572D01*
X105268399Y-112403998D01*
X105238911Y-112458476D01*
X105206455Y-112518511D01*
X105171298Y-112583611D01*
X105133707Y-112653282D01*
X105093951Y-112727029D01*
X105052296Y-112804359D01*
X105009009Y-112884778D01*
X104964358Y-112967792D01*
X104956743Y-112981954D01*
X104903288Y-113081378D01*
X104854588Y-113171934D01*
X104810392Y-113254050D01*
X104770444Y-113328158D01*
X104734491Y-113394686D01*
X104702280Y-113454065D01*
X104673557Y-113506723D01*
X104648068Y-113553092D01*
X104625559Y-113593600D01*
X104605776Y-113628678D01*
X104588466Y-113658755D01*
X104573376Y-113684261D01*
X104560250Y-113705626D01*
X104548836Y-113723279D01*
X104538881Y-113737651D01*
X104530129Y-113749170D01*
X104522328Y-113758268D01*
X104515223Y-113765373D01*
X104508562Y-113770916D01*
X104502089Y-113775326D01*
X104495552Y-113779033D01*
X104488697Y-113782466D01*
X104481270Y-113786056D01*
X104472304Y-113790180D01*
X104460963Y-113794196D01*
X104447973Y-113796954D01*
X104431089Y-113798771D01*
X104408065Y-113799966D01*
X104376656Y-113800855D01*
X104350479Y-113801097D01*
X104306562Y-113799055D01*
X104270466Y-113793157D01*
X104240600Y-113782758D01*
X104215372Y-113767213D01*
X104193190Y-113745876D01*
X104172463Y-113718104D01*
X104170860Y-113715479D01*
X104163860Y-113703155D01*
X104152291Y-113682218D01*
X104136439Y-113653201D01*
X104116589Y-113616634D01*
X104093027Y-113573051D01*
X104066039Y-113522982D01*
X104035911Y-113466960D01*
X104002929Y-113405516D01*
X103967378Y-113339182D01*
X103929544Y-113268489D01*
X103889714Y-113193970D01*
X103848172Y-113116156D01*
X103805205Y-113035579D01*
X103761099Y-112952770D01*
X103737655Y-112908737D01*
X103694586Y-112827869D01*
X103653022Y-112749868D01*
X103613233Y-112675235D01*
X103575486Y-112604471D01*
X103540049Y-112538078D01*
X103507191Y-112476558D01*
X103477179Y-112420411D01*
X103450282Y-112370139D01*
X103426768Y-112326244D01*
X103406905Y-112289227D01*
X103390960Y-112259589D01*
X103379202Y-112237832D01*
X103371900Y-112224457D01*
X103369320Y-112219967D01*
X103369232Y-112220425D01*
X103369346Y-112228239D01*
X103370100Y-112244172D01*
X103371392Y-112266253D01*
X103373119Y-112292513D01*
X103373555Y-112302246D01*
X103374087Y-112323494D01*
X103374602Y-112354265D01*
X103375097Y-112393943D01*
X103375568Y-112441913D01*
X103376011Y-112497559D01*
X103376424Y-112560267D01*
X103376804Y-112629420D01*
X103377146Y-112704405D01*
X103377448Y-112784605D01*
X103377707Y-112869406D01*
X103377918Y-112958192D01*
X103378079Y-113050348D01*
X103378187Y-113145258D01*
X103378237Y-113242309D01*
X103378425Y-114120599D01*
X102942601Y-114120599D01*
X102942601Y-111495029D01*
X103162224Y-111495029D01*
X103211157Y-111495049D01*
X103261798Y-111495205D01*
X103303650Y-111495637D01*
X103337723Y-111496482D01*
X103365028Y-111497881D01*
X103386573Y-111499972D01*
X103403371Y-111502894D01*
X103416430Y-111506786D01*
X103426761Y-111511788D01*
X103435374Y-111518038D01*
X103443280Y-111525676D01*
X103451488Y-111534840D01*
X103454797Y-111539714D01*
X103463246Y-111553949D01*
X103476070Y-111576539D01*
X103492950Y-111606886D01*
X103513569Y-111644388D01*
X103537608Y-111688447D01*
X103564747Y-111738463D01*
X103594670Y-111793836D01*
X103627056Y-111853966D01*
X103661587Y-111918253D01*
X103697946Y-111986099D01*
X103735813Y-112056902D01*
X103774869Y-112130064D01*
X103814797Y-112204984D01*
X103855278Y-112281063D01*
X103895992Y-112357702D01*
X103936623Y-112434300D01*
X103976850Y-112510257D01*
X104016356Y-112584975D01*
X104054822Y-112657853D01*
X104091929Y-112728292D01*
X104127359Y-112795691D01*
X104160794Y-112859452D01*
X104191914Y-112918974D01*
X104220401Y-112973657D01*
X104245937Y-113022903D01*
X104268204Y-113066111D01*
X104286881Y-113102682D01*
X104301652Y-113132015D01*
X104312198Y-113153511D01*
X104318199Y-113166571D01*
X104329364Y-113193312D01*
X104340152Y-113219348D01*
X104349269Y-113241545D01*
X104355486Y-113256925D01*
X104358503Y-113264352D01*
X104363701Y-113275115D01*
X104367175Y-113277543D01*
X104370053Y-113272869D01*
X104370445Y-113271834D01*
X104377777Y-113252761D01*
X104385388Y-113233644D01*
X104393529Y-113213992D01*
X104402449Y-113193317D01*
X104412400Y-113171126D01*
X104423633Y-113146931D01*
X104436398Y-113120241D01*
X104450946Y-113090565D01*
X104467528Y-113057415D01*
X104486394Y-113020299D01*
X104507796Y-112978727D01*
X104531984Y-112932209D01*
X104559208Y-112880256D01*
X104589721Y-112822376D01*
X104623772Y-112758080D01*
X104661612Y-112686877D01*
X104703491Y-112608277D01*
X104749662Y-112521791D01*
X104800374Y-112426927D01*
X104855878Y-112323197D01*
X104892398Y-112254992D01*
X104936507Y-112172681D01*
X104979148Y-112093178D01*
X105020050Y-112016988D01*
X105058940Y-111944617D01*
X105095547Y-111876568D01*
X105129596Y-111813348D01*
X105160816Y-111755462D01*
X105188934Y-111703414D01*
X105213678Y-111657711D01*
X105234776Y-111618857D01*
X105251953Y-111587358D01*
X105264939Y-111563719D01*
X105273461Y-111548444D01*
X105277245Y-111542040D01*
X105281788Y-111536679D01*
X105296354Y-111523460D01*
X105313055Y-111511783D01*
X105336972Y-111497686D01*
X105564185Y-111496142D01*
X105791398Y-111494599D01*
X105791398Y-114120599D01*
G37*
G36*
X94151724Y-114120599D02*
G01*
X93721216Y-114120599D01*
X93721303Y-113231679D01*
X93721311Y-113189510D01*
X93721376Y-113085832D01*
X93721497Y-112986063D01*
X93721674Y-112890719D01*
X93721902Y-112800318D01*
X93722179Y-112715376D01*
X93722503Y-112636410D01*
X93722870Y-112563938D01*
X93723278Y-112498477D01*
X93723723Y-112440544D01*
X93724204Y-112390655D01*
X93724718Y-112349327D01*
X93725260Y-112317079D01*
X93725830Y-112294426D01*
X93726424Y-112281886D01*
X93728158Y-112259342D01*
X93729445Y-112239024D01*
X93730015Y-112224957D01*
X93729753Y-112219308D01*
X93728365Y-112221504D01*
X93722296Y-112232263D01*
X93711656Y-112251544D01*
X93696711Y-112278851D01*
X93677730Y-112313692D01*
X93654979Y-112355572D01*
X93628726Y-112403998D01*
X93599237Y-112458476D01*
X93566781Y-112518511D01*
X93531624Y-112583611D01*
X93494034Y-112653282D01*
X93454278Y-112727029D01*
X93412622Y-112804359D01*
X93369335Y-112884778D01*
X93324684Y-112967792D01*
X93317070Y-112981954D01*
X93263614Y-113081378D01*
X93214915Y-113171934D01*
X93170718Y-113254050D01*
X93130770Y-113328158D01*
X93094818Y-113394686D01*
X93062607Y-113454065D01*
X93033883Y-113506723D01*
X93008394Y-113553092D01*
X92985885Y-113593600D01*
X92966102Y-113628678D01*
X92948793Y-113658755D01*
X92933702Y-113684261D01*
X92920577Y-113705626D01*
X92909163Y-113723279D01*
X92899207Y-113737651D01*
X92890455Y-113749170D01*
X92882654Y-113758268D01*
X92875550Y-113765373D01*
X92868888Y-113770916D01*
X92862416Y-113775326D01*
X92855879Y-113779033D01*
X92849024Y-113782466D01*
X92841597Y-113786056D01*
X92832630Y-113790180D01*
X92821290Y-113794196D01*
X92808300Y-113796954D01*
X92791415Y-113798771D01*
X92768391Y-113799966D01*
X92736982Y-113800855D01*
X92710806Y-113801097D01*
X92666889Y-113799055D01*
X92630793Y-113793157D01*
X92600927Y-113782758D01*
X92575699Y-113767213D01*
X92553517Y-113745876D01*
X92532789Y-113718104D01*
X92531186Y-113715479D01*
X92524187Y-113703155D01*
X92512618Y-113682218D01*
X92496765Y-113653201D01*
X92476915Y-113616634D01*
X92453353Y-113573051D01*
X92426366Y-113522982D01*
X92396238Y-113466960D01*
X92363255Y-113405516D01*
X92327704Y-113339182D01*
X92289871Y-113268489D01*
X92250040Y-113193970D01*
X92208499Y-113116156D01*
X92165532Y-113035579D01*
X92121425Y-112952770D01*
X92097982Y-112908737D01*
X92054912Y-112827869D01*
X92013348Y-112749868D01*
X91973559Y-112675235D01*
X91935812Y-112604471D01*
X91900375Y-112538078D01*
X91867517Y-112476558D01*
X91837506Y-112420411D01*
X91810609Y-112370139D01*
X91787094Y-112326244D01*
X91767231Y-112289227D01*
X91751286Y-112259589D01*
X91739529Y-112237832D01*
X91732226Y-112224457D01*
X91729647Y-112219967D01*
X91729558Y-112220425D01*
X91729672Y-112228239D01*
X91730427Y-112244172D01*
X91731719Y-112266253D01*
X91733445Y-112292513D01*
X91733882Y-112302246D01*
X91734414Y-112323494D01*
X91734929Y-112354265D01*
X91735423Y-112393943D01*
X91735894Y-112441913D01*
X91736338Y-112497559D01*
X91736751Y-112560267D01*
X91737130Y-112629420D01*
X91737473Y-112704405D01*
X91737775Y-112784605D01*
X91738033Y-112869406D01*
X91738245Y-112958192D01*
X91738406Y-113050348D01*
X91738513Y-113145258D01*
X91738563Y-113242309D01*
X91738751Y-114120599D01*
X91302928Y-114120599D01*
X91302928Y-111495029D01*
X91522550Y-111495029D01*
X91571483Y-111495049D01*
X91622125Y-111495205D01*
X91663977Y-111495637D01*
X91698050Y-111496482D01*
X91725354Y-111497881D01*
X91746900Y-111499972D01*
X91763697Y-111502894D01*
X91776756Y-111506786D01*
X91787087Y-111511788D01*
X91795701Y-111518038D01*
X91803606Y-111525676D01*
X91811814Y-111534840D01*
X91815124Y-111539714D01*
X91823572Y-111553949D01*
X91836396Y-111576539D01*
X91853277Y-111606886D01*
X91873896Y-111644388D01*
X91897934Y-111688447D01*
X91925074Y-111738463D01*
X91954996Y-111793836D01*
X91987382Y-111853966D01*
X92021914Y-111918253D01*
X92058272Y-111986099D01*
X92096139Y-112056902D01*
X92135196Y-112130064D01*
X92175123Y-112204984D01*
X92215604Y-112281063D01*
X92256319Y-112357702D01*
X92296949Y-112434300D01*
X92337176Y-112510257D01*
X92376682Y-112584975D01*
X92415148Y-112657853D01*
X92452256Y-112728292D01*
X92487686Y-112795691D01*
X92521120Y-112859452D01*
X92552240Y-112918974D01*
X92580728Y-112973657D01*
X92606264Y-113022903D01*
X92628530Y-113066111D01*
X92647208Y-113102682D01*
X92661979Y-113132015D01*
X92672524Y-113153511D01*
X92678525Y-113166571D01*
X92689690Y-113193312D01*
X92700478Y-113219348D01*
X92709595Y-113241545D01*
X92715812Y-113256925D01*
X92718830Y-113264352D01*
X92724028Y-113275115D01*
X92727502Y-113277543D01*
X92730379Y-113272869D01*
X92730771Y-113271834D01*
X92738104Y-113252761D01*
X92745715Y-113233644D01*
X92753855Y-113213992D01*
X92762775Y-113193317D01*
X92772727Y-113171126D01*
X92783959Y-113146931D01*
X92796724Y-113120241D01*
X92811272Y-113090565D01*
X92827854Y-113057415D01*
X92846721Y-113020299D01*
X92868122Y-112978727D01*
X92892310Y-112932209D01*
X92919535Y-112880256D01*
X92950047Y-112822376D01*
X92984098Y-112758080D01*
X93021938Y-112686877D01*
X93063818Y-112608277D01*
X93109988Y-112521791D01*
X93160700Y-112426927D01*
X93216205Y-112323197D01*
X93252725Y-112254992D01*
X93296833Y-112172681D01*
X93339474Y-112093178D01*
X93380376Y-112016988D01*
X93419267Y-111944617D01*
X93455873Y-111876568D01*
X93489922Y-111813348D01*
X93521143Y-111755462D01*
X93549261Y-111703414D01*
X93574005Y-111657711D01*
X93595102Y-111618857D01*
X93612280Y-111587358D01*
X93625266Y-111563719D01*
X93633787Y-111548444D01*
X93637572Y-111542040D01*
X93642114Y-111536679D01*
X93656680Y-111523460D01*
X93673382Y-111511783D01*
X93697299Y-111497686D01*
X93924512Y-111496142D01*
X94151724Y-111494599D01*
X94151724Y-114120599D01*
G37*
G36*
X108634299Y-112204135D02*
G01*
X108627490Y-112285171D01*
X108612818Y-112359654D01*
X108590012Y-112428292D01*
X108558805Y-112491795D01*
X108518930Y-112550872D01*
X108470117Y-112606232D01*
X108436252Y-112638627D01*
X108391861Y-112675218D01*
X108346161Y-112705680D01*
X108296170Y-112732176D01*
X108256716Y-112750912D01*
X108302683Y-112768684D01*
X108306596Y-112770206D01*
X108387282Y-112806444D01*
X108459111Y-112848544D01*
X108522156Y-112896600D01*
X108576485Y-112950704D01*
X108622172Y-113010950D01*
X108659286Y-113077430D01*
X108687898Y-113150238D01*
X108708080Y-113229467D01*
X108719903Y-113315208D01*
X108722073Y-113350251D01*
X108721909Y-113363223D01*
X108721055Y-113430948D01*
X108712119Y-113511462D01*
X108695631Y-113589133D01*
X108671960Y-113661304D01*
X108637984Y-113734076D01*
X108593816Y-113804759D01*
X108541209Y-113869742D01*
X108480620Y-113928712D01*
X108412506Y-113981356D01*
X108337324Y-114027360D01*
X108255529Y-114066413D01*
X108167580Y-114098201D01*
X108073933Y-114122411D01*
X107975044Y-114138730D01*
X107958324Y-114140530D01*
X107911766Y-114143893D01*
X107859301Y-114145835D01*
X107804207Y-114146352D01*
X107749761Y-114145438D01*
X107699240Y-114143086D01*
X107655921Y-114139291D01*
X107628149Y-114135740D01*
X107525868Y-114117058D01*
X107430054Y-114090359D01*
X107340901Y-114055726D01*
X107258602Y-114013245D01*
X107183350Y-113962997D01*
X107115339Y-113905068D01*
X107056977Y-113842465D01*
X107008120Y-113775589D01*
X106968375Y-113703782D01*
X106937276Y-113626312D01*
X106937164Y-113625977D01*
X106922570Y-113578140D01*
X106912089Y-113533113D01*
X106905221Y-113487589D01*
X106901467Y-113438263D01*
X106900327Y-113381825D01*
X106900686Y-113356393D01*
X107364120Y-113356393D01*
X107364441Y-113401245D01*
X107367156Y-113442537D01*
X107372302Y-113476879D01*
X107376561Y-113494953D01*
X107397614Y-113556847D01*
X107427100Y-113612514D01*
X107464594Y-113661542D01*
X107509671Y-113703516D01*
X107561909Y-113738022D01*
X107620882Y-113764648D01*
X107686167Y-113782979D01*
X107692653Y-113784234D01*
X107728731Y-113789253D01*
X107770459Y-113792585D01*
X107813831Y-113794074D01*
X107854839Y-113793564D01*
X107889479Y-113790898D01*
X107915806Y-113786949D01*
X107982445Y-113770699D01*
X108043015Y-113746448D01*
X108097033Y-113714515D01*
X108144016Y-113675221D01*
X108183482Y-113628882D01*
X108214947Y-113575820D01*
X108216669Y-113572256D01*
X108229406Y-113544526D01*
X108238990Y-113519893D01*
X108245847Y-113496074D01*
X108250400Y-113470782D01*
X108253075Y-113441733D01*
X108254298Y-113406642D01*
X108254493Y-113363223D01*
X108254296Y-113330046D01*
X108253807Y-113301830D01*
X108252822Y-113280096D01*
X108251123Y-113262671D01*
X108248491Y-113247386D01*
X108244708Y-113232068D01*
X108239557Y-113214548D01*
X108235001Y-113200318D01*
X108211439Y-113142972D01*
X108181659Y-113093751D01*
X108144918Y-113051771D01*
X108100473Y-113016148D01*
X108047581Y-112985998D01*
X107993237Y-112963942D01*
X107924425Y-112946195D01*
X107851022Y-112937401D01*
X107773863Y-112937708D01*
X107736956Y-112940973D01*
X107665833Y-112953446D01*
X107601678Y-112973512D01*
X107544702Y-113001010D01*
X107495114Y-113035778D01*
X107453125Y-113077654D01*
X107418946Y-113126477D01*
X107392786Y-113182085D01*
X107374856Y-113244317D01*
X107370508Y-113269566D01*
X107366154Y-113311370D01*
X107364120Y-113356393D01*
X106900686Y-113356393D01*
X106900901Y-113341153D01*
X106904063Y-113287621D01*
X106910371Y-113239417D01*
X106920255Y-113193540D01*
X106934149Y-113146994D01*
X106935582Y-113142767D01*
X106965951Y-113070040D01*
X107005025Y-113003317D01*
X107052620Y-112942777D01*
X107108553Y-112888600D01*
X107172639Y-112840964D01*
X107244695Y-112800048D01*
X107324538Y-112766032D01*
X107364369Y-112751510D01*
X107328616Y-112733914D01*
X107281153Y-112707907D01*
X107226787Y-112671642D01*
X107176263Y-112631041D01*
X107131821Y-112587931D01*
X107095706Y-112544141D01*
X107057655Y-112482420D01*
X107027056Y-112413103D01*
X107005051Y-112338005D01*
X106991753Y-112257523D01*
X106988131Y-112188369D01*
X107425716Y-112188369D01*
X107430535Y-112256162D01*
X107444232Y-112326400D01*
X107446650Y-112335366D01*
X107467727Y-112390985D01*
X107497414Y-112440930D01*
X107534959Y-112484447D01*
X107579607Y-112520783D01*
X107630605Y-112549187D01*
X107687197Y-112568906D01*
X107698827Y-112571547D01*
X107733198Y-112576936D01*
X107772750Y-112580602D01*
X107813678Y-112582345D01*
X107852180Y-112581964D01*
X107884451Y-112579261D01*
X107940423Y-112567601D01*
X107997548Y-112546462D01*
X108048171Y-112517128D01*
X108091929Y-112479914D01*
X108128459Y-112435138D01*
X108157397Y-112383113D01*
X108178379Y-112324156D01*
X108181309Y-112311964D01*
X108187106Y-112276835D01*
X108191032Y-112236166D01*
X108192986Y-112193139D01*
X108192869Y-112150932D01*
X108190579Y-112112726D01*
X108186017Y-112081702D01*
X108177348Y-112048978D01*
X108154549Y-111993329D01*
X108123211Y-111943514D01*
X108083900Y-111900219D01*
X108037180Y-111864129D01*
X107983616Y-111835930D01*
X107934360Y-111819296D01*
X107876659Y-111808256D01*
X107816497Y-111804332D01*
X107756045Y-111807403D01*
X107697476Y-111817351D01*
X107642961Y-111834055D01*
X107594672Y-111857396D01*
X107570236Y-111873526D01*
X107526665Y-111911433D01*
X107490577Y-111956134D01*
X107462206Y-112006902D01*
X107441784Y-112063014D01*
X107429543Y-112123745D01*
X107425716Y-112188369D01*
X106988131Y-112188369D01*
X106987276Y-112172049D01*
X106987802Y-112140887D01*
X106993960Y-112068132D01*
X107007542Y-112000021D01*
X107029179Y-111933890D01*
X107059503Y-111867073D01*
X107074695Y-111838782D01*
X107106572Y-111787896D01*
X107142987Y-111740994D01*
X107186691Y-111694338D01*
X107248443Y-111639873D01*
X107320632Y-111589868D01*
X107399611Y-111547808D01*
X107485101Y-111513821D01*
X107576824Y-111488035D01*
X107674501Y-111470578D01*
X107712234Y-111466922D01*
X107758348Y-111464728D01*
X107808558Y-111464121D01*
X107859934Y-111465047D01*
X107909548Y-111467453D01*
X107954471Y-111471283D01*
X107991775Y-111476483D01*
X108016148Y-111481179D01*
X108108326Y-111504703D01*
X108194688Y-111536120D01*
X108274786Y-111575121D01*
X108348170Y-111621396D01*
X108414391Y-111674634D01*
X108473001Y-111734526D01*
X108523551Y-111800760D01*
X108565591Y-111873027D01*
X108591794Y-111932075D01*
X108615915Y-112008319D01*
X108630185Y-112087344D01*
X108634880Y-112170335D01*
X108634488Y-112193139D01*
X108634299Y-112204135D01*
G37*
G36*
X146326116Y-110922762D02*
G01*
X146335589Y-110925189D01*
X146352028Y-110930897D01*
X146373333Y-110939010D01*
X146397407Y-110948658D01*
X146422150Y-110958968D01*
X146445464Y-110969067D01*
X146465251Y-110978082D01*
X146479410Y-110985142D01*
X146485845Y-110989373D01*
X146488921Y-110994577D01*
X146492006Y-111012690D01*
X146487145Y-111036684D01*
X146474275Y-111066975D01*
X146469071Y-111077857D01*
X146452491Y-111125452D01*
X146445778Y-111172705D01*
X146448891Y-111218704D01*
X146461791Y-111262535D01*
X146484440Y-111303286D01*
X146500506Y-111326032D01*
X146513248Y-111344387D01*
X146521534Y-111357164D01*
X146526190Y-111365945D01*
X146528041Y-111372314D01*
X146527914Y-111377853D01*
X146526635Y-111384144D01*
X146524575Y-111390364D01*
X146517919Y-111399829D01*
X146505494Y-111410372D01*
X146485468Y-111423754D01*
X146479413Y-111427503D01*
X146461739Y-111437713D01*
X146447572Y-111444852D01*
X146439535Y-111447558D01*
X146435811Y-111446103D01*
X146425285Y-111438259D01*
X146410572Y-111425060D01*
X146393278Y-111408144D01*
X146375004Y-111389147D01*
X146357356Y-111369710D01*
X146341938Y-111351469D01*
X146330353Y-111336062D01*
X146310204Y-111303301D01*
X146284505Y-111247043D01*
X146268445Y-111189055D01*
X146262178Y-111130324D01*
X146265861Y-111071837D01*
X146279649Y-111014581D01*
X146282159Y-111007289D01*
X146291832Y-110981939D01*
X146301962Y-110958899D01*
X146311596Y-110940079D01*
X146319778Y-110927387D01*
X146325554Y-110922732D01*
X146326116Y-110922762D01*
G37*
G36*
X149863625Y-111359831D02*
G01*
X149881385Y-111362914D01*
X149899991Y-111368349D01*
X149909743Y-111371871D01*
X149951189Y-111392698D01*
X149991503Y-111421917D01*
X150028677Y-111457894D01*
X150060701Y-111498996D01*
X150070171Y-111511969D01*
X150078356Y-111520786D01*
X150082847Y-111522617D01*
X150084073Y-111519509D01*
X150086661Y-111507552D01*
X150089641Y-111489154D01*
X150092583Y-111466778D01*
X150094814Y-111449260D01*
X150099062Y-111424292D01*
X150104081Y-111406763D01*
X150110519Y-111394699D01*
X150119023Y-111386125D01*
X150119583Y-111385747D01*
X150129011Y-111383048D01*
X150147307Y-111381143D01*
X150175007Y-111379994D01*
X150212648Y-111379564D01*
X150297944Y-111379397D01*
X150297944Y-111838686D01*
X150297944Y-112297975D01*
X150185090Y-112297975D01*
X150072236Y-112297975D01*
X150072236Y-112013950D01*
X150072236Y-111729926D01*
X150055177Y-111697839D01*
X150050822Y-111690107D01*
X150030594Y-111661125D01*
X150005931Y-111633641D01*
X149979541Y-111610433D01*
X149954134Y-111594277D01*
X149943343Y-111589395D01*
X149930730Y-111585289D01*
X149916241Y-111582914D01*
X149897004Y-111581836D01*
X149870149Y-111581625D01*
X149852688Y-111581845D01*
X149826038Y-111582785D01*
X149802653Y-111584281D01*
X149786148Y-111586139D01*
X149778261Y-111587345D01*
X149764705Y-111588212D01*
X149754208Y-111585893D01*
X149745996Y-111579192D01*
X149739295Y-111566908D01*
X149733328Y-111547844D01*
X149727322Y-111520799D01*
X149720501Y-111484577D01*
X149716624Y-111463127D01*
X149711919Y-111436792D01*
X149708174Y-111415452D01*
X149705699Y-111400884D01*
X149704805Y-111394866D01*
X149707749Y-111391772D01*
X149717741Y-111384980D01*
X149732363Y-111376459D01*
X149740877Y-111371987D01*
X149754340Y-111366311D01*
X149768777Y-111362754D01*
X149787362Y-111360641D01*
X149813270Y-111359300D01*
X149816024Y-111359196D01*
X149843056Y-111358719D01*
X149863625Y-111359831D01*
G37*
G36*
X149134011Y-111359831D02*
G01*
X149151772Y-111362914D01*
X149170378Y-111368349D01*
X149180130Y-111371871D01*
X149221576Y-111392698D01*
X149261890Y-111421917D01*
X149299063Y-111457894D01*
X149331088Y-111498996D01*
X149340558Y-111511969D01*
X149348743Y-111520786D01*
X149353233Y-111522617D01*
X149354460Y-111519509D01*
X149357048Y-111507552D01*
X149360028Y-111489154D01*
X149362969Y-111466778D01*
X149365200Y-111449260D01*
X149369449Y-111424292D01*
X149374468Y-111406763D01*
X149380906Y-111394699D01*
X149389409Y-111386125D01*
X149389969Y-111385747D01*
X149399397Y-111383048D01*
X149417693Y-111381143D01*
X149445394Y-111379994D01*
X149483034Y-111379564D01*
X149568331Y-111379397D01*
X149568331Y-111838686D01*
X149568331Y-112297975D01*
X149455477Y-112297975D01*
X149342623Y-112297975D01*
X149342623Y-112013950D01*
X149342623Y-111729926D01*
X149325564Y-111697839D01*
X149321209Y-111690107D01*
X149300981Y-111661125D01*
X149276317Y-111633641D01*
X149249927Y-111610433D01*
X149224520Y-111594277D01*
X149213729Y-111589395D01*
X149201117Y-111585289D01*
X149186628Y-111582914D01*
X149167391Y-111581836D01*
X149140536Y-111581625D01*
X149123075Y-111581845D01*
X149096425Y-111582785D01*
X149073039Y-111584281D01*
X149056534Y-111586139D01*
X149048648Y-111587345D01*
X149035091Y-111588212D01*
X149024595Y-111585893D01*
X149016383Y-111579192D01*
X149009681Y-111566908D01*
X149003714Y-111547844D01*
X148997708Y-111520799D01*
X148990888Y-111484577D01*
X148987010Y-111463127D01*
X148982306Y-111436792D01*
X148978561Y-111415452D01*
X148976086Y-111400884D01*
X148975192Y-111394866D01*
X148978135Y-111391772D01*
X148988127Y-111384980D01*
X149002749Y-111376459D01*
X149011263Y-111371987D01*
X149024727Y-111366311D01*
X149039163Y-111362754D01*
X149057748Y-111360641D01*
X149083656Y-111359300D01*
X149086410Y-111359196D01*
X149113442Y-111358719D01*
X149134011Y-111359831D01*
G37*
G36*
X141659409Y-111359831D02*
G01*
X141677169Y-111362914D01*
X141695776Y-111368349D01*
X141705527Y-111371871D01*
X141746973Y-111392698D01*
X141787288Y-111421917D01*
X141824461Y-111457894D01*
X141856485Y-111498996D01*
X141865955Y-111511969D01*
X141874141Y-111520786D01*
X141878631Y-111522617D01*
X141879858Y-111519509D01*
X141882446Y-111507552D01*
X141885425Y-111489154D01*
X141888367Y-111466778D01*
X141890598Y-111449260D01*
X141894846Y-111424292D01*
X141899866Y-111406763D01*
X141906303Y-111394699D01*
X141914807Y-111386125D01*
X141915367Y-111385747D01*
X141924795Y-111383048D01*
X141943091Y-111381143D01*
X141970792Y-111379994D01*
X142008432Y-111379564D01*
X142093729Y-111379397D01*
X142093729Y-111838686D01*
X142093729Y-112297975D01*
X141980875Y-112297975D01*
X141868021Y-112297975D01*
X141868021Y-112013950D01*
X141868021Y-111729926D01*
X141850961Y-111697839D01*
X141846607Y-111690107D01*
X141826378Y-111661125D01*
X141801715Y-111633641D01*
X141775325Y-111610433D01*
X141749918Y-111594277D01*
X141739127Y-111589395D01*
X141726515Y-111585289D01*
X141712025Y-111582914D01*
X141692789Y-111581836D01*
X141665934Y-111581625D01*
X141648473Y-111581845D01*
X141621823Y-111582785D01*
X141598437Y-111584281D01*
X141581932Y-111586139D01*
X141574046Y-111587345D01*
X141560489Y-111588212D01*
X141549992Y-111585893D01*
X141541781Y-111579192D01*
X141535079Y-111566908D01*
X141529112Y-111547844D01*
X141523106Y-111520799D01*
X141516286Y-111484577D01*
X141512408Y-111463127D01*
X141507704Y-111436792D01*
X141503959Y-111415452D01*
X141501484Y-111400884D01*
X141500589Y-111394866D01*
X141503533Y-111391772D01*
X141513525Y-111384980D01*
X141528147Y-111376459D01*
X141536661Y-111371987D01*
X141550124Y-111366311D01*
X141564561Y-111362754D01*
X141583146Y-111360641D01*
X141609054Y-111359300D01*
X141611808Y-111359196D01*
X141638840Y-111358719D01*
X141659409Y-111359831D01*
G37*
G36*
X139589947Y-111631350D02*
G01*
X139589947Y-112297975D01*
X139477093Y-112297975D01*
X139364239Y-112297975D01*
X139364239Y-111967813D01*
X139364239Y-111637652D01*
X139335365Y-111611263D01*
X139330244Y-111606662D01*
X139287141Y-111574201D01*
X139242909Y-111552041D01*
X139197153Y-111540025D01*
X139149475Y-111537998D01*
X139128953Y-111540021D01*
X139097120Y-111547937D01*
X139070952Y-111562214D01*
X139048028Y-111583949D01*
X139044953Y-111587536D01*
X139037930Y-111595925D01*
X139031920Y-111604000D01*
X139026840Y-111612591D01*
X139022605Y-111622531D01*
X139019132Y-111634652D01*
X139016340Y-111649785D01*
X139014143Y-111668762D01*
X139012459Y-111692415D01*
X139011205Y-111721575D01*
X139010298Y-111757074D01*
X139009653Y-111799744D01*
X139009188Y-111850417D01*
X139008820Y-111909924D01*
X139008465Y-111979097D01*
X139006849Y-112297975D01*
X138893972Y-112297975D01*
X138781094Y-112297975D01*
X138782971Y-111963350D01*
X138783299Y-111904642D01*
X138783688Y-111841961D01*
X138784140Y-111788182D01*
X138784734Y-111742431D01*
X138785550Y-111703831D01*
X138786668Y-111671507D01*
X138788168Y-111644583D01*
X138790129Y-111622183D01*
X138792632Y-111603432D01*
X138795756Y-111587453D01*
X138799580Y-111573371D01*
X138804184Y-111560310D01*
X138809649Y-111547395D01*
X138816054Y-111533748D01*
X138823478Y-111518496D01*
X138823704Y-111518033D01*
X138851814Y-111472125D01*
X138887544Y-111433104D01*
X138930037Y-111401744D01*
X138978436Y-111378815D01*
X138987164Y-111376067D01*
X139015366Y-111370267D01*
X139049684Y-111366293D01*
X139087064Y-111364259D01*
X139124453Y-111364280D01*
X139158799Y-111366471D01*
X139187049Y-111370948D01*
X139197501Y-111373646D01*
X139241121Y-111389597D01*
X139286129Y-111412860D01*
X139329550Y-111441953D01*
X139364239Y-111468209D01*
X139364239Y-111216467D01*
X139364239Y-110964724D01*
X139477093Y-110964724D01*
X139589947Y-110964724D01*
X139589947Y-111631350D01*
G37*
G36*
X147711514Y-111096414D02*
G01*
X147727138Y-111098758D01*
X147739196Y-111103924D01*
X147748516Y-111112973D01*
X147755928Y-111126967D01*
X147762260Y-111146969D01*
X147768341Y-111174041D01*
X147775000Y-111209246D01*
X147783066Y-111253646D01*
X147807559Y-111387270D01*
X147882221Y-111399925D01*
X147956882Y-111412580D01*
X147956882Y-111466142D01*
X147956791Y-111482477D01*
X147956071Y-111502648D01*
X147954296Y-111516250D01*
X147951072Y-111525730D01*
X147946003Y-111533535D01*
X147943180Y-111537010D01*
X147937922Y-111541936D01*
X147930990Y-111544985D01*
X147920178Y-111546607D01*
X147903280Y-111547251D01*
X147878090Y-111547365D01*
X147821055Y-111547365D01*
X147819046Y-111834749D01*
X147818882Y-111858261D01*
X147818428Y-111919457D01*
X147817943Y-111971415D01*
X147817347Y-112015071D01*
X147816559Y-112051360D01*
X147815500Y-112081218D01*
X147814087Y-112105581D01*
X147812241Y-112125386D01*
X147809882Y-112141566D01*
X147806929Y-112155059D01*
X147803301Y-112166800D01*
X147798918Y-112177725D01*
X147793700Y-112188769D01*
X147787566Y-112200868D01*
X147784322Y-112206896D01*
X147759629Y-112240839D01*
X147727338Y-112270188D01*
X147689652Y-112293238D01*
X147648773Y-112308284D01*
X147639819Y-112309936D01*
X147616856Y-112311841D01*
X147587713Y-112312399D01*
X147555113Y-112311730D01*
X147521774Y-112309955D01*
X147490420Y-112307195D01*
X147463769Y-112303571D01*
X147444544Y-112299205D01*
X147441652Y-112298255D01*
X147413175Y-112287214D01*
X147383594Y-112273245D01*
X147356654Y-112258248D01*
X147336095Y-112244124D01*
X147321570Y-112232362D01*
X147353738Y-112179872D01*
X147360649Y-112168632D01*
X147377764Y-112141668D01*
X147391499Y-112122639D01*
X147403269Y-112110695D01*
X147414491Y-112104990D01*
X147426579Y-112104677D01*
X147440949Y-112108907D01*
X147459016Y-112116833D01*
X147488862Y-112127160D01*
X147518404Y-112130007D01*
X147544507Y-112124863D01*
X147565744Y-112112022D01*
X147580685Y-112091777D01*
X147582337Y-112087741D01*
X147584070Y-112081424D01*
X147585500Y-112072762D01*
X147586656Y-112060849D01*
X147587567Y-112044779D01*
X147588260Y-112023646D01*
X147588764Y-111996544D01*
X147589107Y-111962568D01*
X147589317Y-111920812D01*
X147589422Y-111870370D01*
X147589451Y-111810335D01*
X147589451Y-111547365D01*
X147468723Y-111547365D01*
X147347996Y-111547365D01*
X147347996Y-111468630D01*
X147347996Y-111389895D01*
X147468723Y-111389895D01*
X147589451Y-111389895D01*
X147589451Y-111242922D01*
X147589451Y-111095950D01*
X147660020Y-111095950D01*
X147666250Y-111095938D01*
X147691494Y-111095827D01*
X147711514Y-111096414D01*
G37*
G36*
X147018643Y-111096414D02*
G01*
X147034268Y-111098758D01*
X147046326Y-111103924D01*
X147055646Y-111112973D01*
X147063058Y-111126967D01*
X147069390Y-111146969D01*
X147075471Y-111174041D01*
X147082130Y-111209246D01*
X147090196Y-111253646D01*
X147114689Y-111387270D01*
X147189350Y-111399925D01*
X147264012Y-111412580D01*
X147264012Y-111466142D01*
X147263921Y-111482477D01*
X147263200Y-111502648D01*
X147261425Y-111516250D01*
X147258201Y-111525730D01*
X147253133Y-111533535D01*
X147250310Y-111537010D01*
X147245052Y-111541936D01*
X147238120Y-111544985D01*
X147227308Y-111546607D01*
X147210409Y-111547251D01*
X147185219Y-111547365D01*
X147128185Y-111547365D01*
X147126176Y-111834749D01*
X147126011Y-111858261D01*
X147125557Y-111919457D01*
X147125073Y-111971415D01*
X147124477Y-112015071D01*
X147123689Y-112051360D01*
X147122629Y-112081218D01*
X147121217Y-112105581D01*
X147119371Y-112125386D01*
X147117012Y-112141566D01*
X147114058Y-112155059D01*
X147110431Y-112166800D01*
X147106048Y-112177725D01*
X147100830Y-112188769D01*
X147094696Y-112200868D01*
X147091451Y-112206896D01*
X147066758Y-112240839D01*
X147034468Y-112270188D01*
X146996781Y-112293238D01*
X146955902Y-112308284D01*
X146946949Y-112309936D01*
X146923985Y-112311841D01*
X146894843Y-112312399D01*
X146862242Y-112311730D01*
X146828904Y-112309955D01*
X146797549Y-112307195D01*
X146770899Y-112303571D01*
X146751673Y-112299205D01*
X146748782Y-112298255D01*
X146720304Y-112287214D01*
X146690724Y-112273245D01*
X146663783Y-112258248D01*
X146643225Y-112244124D01*
X146628699Y-112232362D01*
X146660867Y-112179872D01*
X146667778Y-112168632D01*
X146684893Y-112141668D01*
X146698628Y-112122639D01*
X146710399Y-112110695D01*
X146721620Y-112104990D01*
X146733708Y-112104677D01*
X146748078Y-112108907D01*
X146766146Y-112116833D01*
X146795991Y-112127160D01*
X146825533Y-112130007D01*
X146851637Y-112124863D01*
X146872874Y-112112022D01*
X146887815Y-112091777D01*
X146889467Y-112087741D01*
X146891199Y-112081424D01*
X146892629Y-112072762D01*
X146893786Y-112060849D01*
X146894697Y-112044779D01*
X146895390Y-112023646D01*
X146895894Y-111996544D01*
X146896236Y-111962568D01*
X146896446Y-111920812D01*
X146896552Y-111870370D01*
X146896580Y-111810335D01*
X146896580Y-111547365D01*
X146775853Y-111547365D01*
X146655125Y-111547365D01*
X146655125Y-111468630D01*
X146655125Y-111389895D01*
X146775853Y-111389895D01*
X146896580Y-111389895D01*
X146896580Y-111242922D01*
X146896580Y-111095950D01*
X146967149Y-111095950D01*
X146973379Y-111095938D01*
X146998624Y-111095827D01*
X147018643Y-111096414D01*
G37*
G36*
X141353617Y-111631350D02*
G01*
X141353617Y-112297975D01*
X141240763Y-112297975D01*
X141127909Y-112297975D01*
X141127909Y-112087397D01*
X141127909Y-111876820D01*
X141087614Y-111880596D01*
X141084718Y-111880880D01*
X141064247Y-111883599D01*
X141047469Y-111886971D01*
X141037776Y-111890332D01*
X141035694Y-111892428D01*
X141027811Y-111902455D01*
X141015129Y-111919756D01*
X140998303Y-111943397D01*
X140977989Y-111972445D01*
X140954841Y-112005967D01*
X140929516Y-112043030D01*
X140902670Y-112082698D01*
X140888138Y-112104221D01*
X140861711Y-112143101D01*
X140836998Y-112179131D01*
X140814683Y-112211332D01*
X140795454Y-112238722D01*
X140779995Y-112260322D01*
X140768992Y-112275151D01*
X140763131Y-112282228D01*
X140749155Y-112295350D01*
X140623751Y-112296927D01*
X140498348Y-112298503D01*
X140660891Y-112063345D01*
X140675811Y-112041788D01*
X140706554Y-111997547D01*
X140735769Y-111955736D01*
X140762827Y-111917244D01*
X140787096Y-111882959D01*
X140807946Y-111853772D01*
X140824745Y-111830571D01*
X140836864Y-111814245D01*
X140843670Y-111805685D01*
X140863907Y-111783181D01*
X140848433Y-111772163D01*
X140845580Y-111769504D01*
X140836218Y-111759444D01*
X140821627Y-111743050D01*
X140802612Y-111721275D01*
X140779977Y-111695072D01*
X140754528Y-111665394D01*
X140727070Y-111633194D01*
X140698406Y-111599425D01*
X140669343Y-111565040D01*
X140640685Y-111530991D01*
X140613236Y-111498233D01*
X140587803Y-111467717D01*
X140565188Y-111440397D01*
X140546198Y-111417226D01*
X140531637Y-111399156D01*
X140522311Y-111387141D01*
X140519023Y-111382134D01*
X140520424Y-111381714D01*
X140530329Y-111380971D01*
X140548480Y-111380333D01*
X140573400Y-111379836D01*
X140603608Y-111379512D01*
X140637628Y-111379397D01*
X140638867Y-111379397D01*
X140677765Y-111379490D01*
X140707640Y-111379825D01*
X140729926Y-111380502D01*
X140746057Y-111381618D01*
X140757467Y-111383271D01*
X140765590Y-111385560D01*
X140771859Y-111388582D01*
X140772606Y-111389091D01*
X140780420Y-111396516D01*
X140793815Y-111411025D01*
X140811975Y-111431664D01*
X140834082Y-111457482D01*
X140859317Y-111487525D01*
X140886865Y-111520840D01*
X140915906Y-111556474D01*
X140922036Y-111564042D01*
X140950481Y-111598971D01*
X140976980Y-111631206D01*
X141000761Y-111659830D01*
X141021055Y-111683928D01*
X141037091Y-111702583D01*
X141048101Y-111714881D01*
X141053312Y-111719905D01*
X141060783Y-111722406D01*
X141076274Y-111725653D01*
X141095103Y-111728370D01*
X141127909Y-111732112D01*
X141127909Y-111348418D01*
X141127909Y-110964724D01*
X141240763Y-110964724D01*
X141353617Y-110964724D01*
X141353617Y-111631350D01*
G37*
G36*
X137548079Y-112597169D02*
G01*
X137435225Y-112597169D01*
X137322371Y-112597169D01*
X137322371Y-112413317D01*
X137322371Y-112229464D01*
X137285015Y-112255698D01*
X137251582Y-112276872D01*
X137218901Y-112292036D01*
X137183421Y-112302454D01*
X137141381Y-112309535D01*
X137096026Y-112312744D01*
X137034167Y-112308691D01*
X136975288Y-112294935D01*
X136920156Y-112271817D01*
X136869537Y-112239682D01*
X136824199Y-112198873D01*
X136784908Y-112149734D01*
X136775845Y-112135895D01*
X136746564Y-112082645D01*
X136724466Y-112026245D01*
X136709169Y-111965269D01*
X136700292Y-111898296D01*
X136697452Y-111823902D01*
X136697513Y-111812895D01*
X136698398Y-111795741D01*
X136930259Y-111795741D01*
X136930376Y-111861542D01*
X136936684Y-111922127D01*
X136948971Y-111976540D01*
X136967025Y-112023828D01*
X136990635Y-112063035D01*
X136993040Y-112066186D01*
X137010225Y-112086082D01*
X137028189Y-112100805D01*
X137051522Y-112114213D01*
X137068029Y-112122286D01*
X137082621Y-112127976D01*
X137097282Y-112131285D01*
X137115490Y-112132979D01*
X137140719Y-112133821D01*
X137174765Y-112133370D01*
X137210165Y-112128746D01*
X137240552Y-112118745D01*
X137268592Y-112102429D01*
X137296951Y-112078861D01*
X137322371Y-112055084D01*
X137322371Y-111850406D01*
X137322371Y-111645729D01*
X137286368Y-111610363D01*
X137281071Y-111605267D01*
X137247657Y-111577584D01*
X137214608Y-111557394D01*
X137206437Y-111553452D01*
X137189174Y-111546180D01*
X137173021Y-111541739D01*
X137154110Y-111539252D01*
X137128571Y-111537837D01*
X137127818Y-111537808D01*
X137101525Y-111537293D01*
X137081965Y-111538387D01*
X137065526Y-111541506D01*
X137048599Y-111547067D01*
X137047595Y-111547450D01*
X137014625Y-111565668D01*
X136987044Y-111592847D01*
X136964843Y-111629000D01*
X136948018Y-111674142D01*
X136936560Y-111728285D01*
X136930464Y-111791445D01*
X136930259Y-111795741D01*
X136698398Y-111795741D01*
X136701657Y-111732541D01*
X136712378Y-111660083D01*
X136729790Y-111595180D01*
X136754005Y-111537490D01*
X136785136Y-111486673D01*
X136823295Y-111442385D01*
X136859200Y-111411233D01*
X136898158Y-111387041D01*
X136940441Y-111370652D01*
X136987881Y-111361365D01*
X137042306Y-111358478D01*
X137058079Y-111358711D01*
X137114023Y-111363696D01*
X137164443Y-111375771D01*
X137211306Y-111395720D01*
X137256579Y-111424330D01*
X137302227Y-111462388D01*
X137318986Y-111476924D01*
X137330255Y-111484282D01*
X137335055Y-111483595D01*
X137335330Y-111482661D01*
X137337793Y-111472685D01*
X137341556Y-111456095D01*
X137345923Y-111435944D01*
X137348865Y-111422506D01*
X137353726Y-111404928D01*
X137359950Y-111392226D01*
X137369060Y-111383607D01*
X137382578Y-111378282D01*
X137402026Y-111375457D01*
X137428926Y-111374343D01*
X137464802Y-111374148D01*
X137548079Y-111374148D01*
X137548079Y-111985658D01*
X137548079Y-112055084D01*
X137548079Y-112597169D01*
G37*
G36*
X147436388Y-114641910D02*
G01*
X147411052Y-114766765D01*
X147407245Y-114785403D01*
X147398618Y-114826015D01*
X147391030Y-114858143D01*
X147383932Y-114883119D01*
X147376772Y-114902277D01*
X147369001Y-114916949D01*
X147360070Y-114928467D01*
X147349428Y-114938164D01*
X147336526Y-114947372D01*
X147314647Y-114961852D01*
X146746056Y-114963233D01*
X146177465Y-114964614D01*
X146177465Y-115282111D01*
X146177465Y-115599607D01*
X145980627Y-115599607D01*
X145783788Y-115599607D01*
X145783788Y-115282042D01*
X145783788Y-114964476D01*
X145648090Y-114964476D01*
X145623979Y-114964469D01*
X145587916Y-114964380D01*
X145560253Y-114964103D01*
X145539641Y-114963534D01*
X145524729Y-114962569D01*
X145514167Y-114961104D01*
X145506607Y-114959035D01*
X145500697Y-114956257D01*
X145495090Y-114952666D01*
X145491622Y-114950270D01*
X145482086Y-114942972D01*
X145474568Y-114935157D01*
X145468830Y-114925576D01*
X145464630Y-114912982D01*
X145461731Y-114896127D01*
X145459892Y-114873766D01*
X145458876Y-114844648D01*
X145458441Y-114807529D01*
X145458349Y-114761159D01*
X145458349Y-114618041D01*
X145621069Y-114618041D01*
X145783788Y-114618041D01*
X145783788Y-113809692D01*
X145783788Y-113545503D01*
X146162972Y-113545503D01*
X146163499Y-113555067D01*
X146165076Y-113571476D01*
X146167486Y-113592308D01*
X146168369Y-113602841D01*
X146169438Y-113625200D01*
X146170460Y-113657410D01*
X146171431Y-113699113D01*
X146172344Y-113749950D01*
X146173194Y-113809562D01*
X146173975Y-113877589D01*
X146174682Y-113953672D01*
X146175309Y-114037452D01*
X146175851Y-114128570D01*
X146178420Y-114618041D01*
X146566631Y-114618041D01*
X146591649Y-114618039D01*
X146662787Y-114617997D01*
X146724280Y-114617895D01*
X146776772Y-114617720D01*
X146820910Y-114617459D01*
X146857337Y-114617102D01*
X146886700Y-114616636D01*
X146909643Y-114616049D01*
X146926811Y-114615328D01*
X146938851Y-114614463D01*
X146946406Y-114613440D01*
X146950122Y-114612248D01*
X146950644Y-114610875D01*
X146949925Y-114609781D01*
X146943881Y-114601262D01*
X146932288Y-114585252D01*
X146915597Y-114562362D01*
X146894263Y-114533207D01*
X146868737Y-114498400D01*
X146839472Y-114458553D01*
X146806922Y-114414281D01*
X146771538Y-114366197D01*
X146733774Y-114314913D01*
X146694083Y-114261045D01*
X146652916Y-114205204D01*
X146610728Y-114148005D01*
X146567971Y-114090060D01*
X146525097Y-114031983D01*
X146482559Y-113974388D01*
X146440811Y-113917887D01*
X146400304Y-113863095D01*
X146361492Y-113810624D01*
X146324827Y-113761087D01*
X146290763Y-113715100D01*
X146259752Y-113673273D01*
X146232246Y-113636222D01*
X146208699Y-113604559D01*
X146189563Y-113578898D01*
X146175291Y-113559852D01*
X146166336Y-113548035D01*
X146163150Y-113544059D01*
X146162972Y-113545503D01*
X145783788Y-113545503D01*
X145783788Y-113001343D01*
X145996527Y-113001343D01*
X146209266Y-113001343D01*
X146577353Y-113493439D01*
X146609479Y-113536388D01*
X146664907Y-113610490D01*
X146722296Y-113687214D01*
X146780820Y-113765456D01*
X146839656Y-113844114D01*
X146897977Y-113922084D01*
X146954959Y-113998265D01*
X147009777Y-114071553D01*
X147061606Y-114140845D01*
X147109622Y-114205039D01*
X147153000Y-114263032D01*
X147190914Y-114313722D01*
X147413175Y-114610875D01*
X147436388Y-114641910D01*
G37*
G36*
X145352528Y-114641910D02*
G01*
X145327192Y-114766765D01*
X145323384Y-114785403D01*
X145314758Y-114826015D01*
X145307170Y-114858143D01*
X145300071Y-114883119D01*
X145292911Y-114902277D01*
X145285141Y-114916949D01*
X145276209Y-114928467D01*
X145265568Y-114938164D01*
X145252665Y-114947372D01*
X145230786Y-114961852D01*
X144662196Y-114963233D01*
X144093605Y-114964614D01*
X144093605Y-115282111D01*
X144093605Y-115599607D01*
X143896766Y-115599607D01*
X143699928Y-115599607D01*
X143699928Y-115282042D01*
X143699928Y-114964476D01*
X143564230Y-114964476D01*
X143540119Y-114964469D01*
X143504056Y-114964380D01*
X143476393Y-114964103D01*
X143455780Y-114963534D01*
X143440868Y-114962569D01*
X143430307Y-114961104D01*
X143422746Y-114959035D01*
X143416837Y-114956257D01*
X143411229Y-114952666D01*
X143407762Y-114950270D01*
X143398226Y-114942972D01*
X143390708Y-114935157D01*
X143384969Y-114925576D01*
X143380770Y-114912982D01*
X143377870Y-114896127D01*
X143376032Y-114873766D01*
X143375015Y-114844648D01*
X143374581Y-114807529D01*
X143374489Y-114761159D01*
X143374489Y-114618041D01*
X143537209Y-114618041D01*
X143699928Y-114618041D01*
X143699928Y-113809692D01*
X143699928Y-113545503D01*
X144079112Y-113545503D01*
X144079639Y-113555067D01*
X144081216Y-113571476D01*
X144083626Y-113592308D01*
X144084508Y-113602841D01*
X144085577Y-113625200D01*
X144086600Y-113657410D01*
X144087570Y-113699113D01*
X144088483Y-113749950D01*
X144089333Y-113809562D01*
X144090115Y-113877589D01*
X144090822Y-113953672D01*
X144091449Y-114037452D01*
X144091990Y-114128570D01*
X144094560Y-114618041D01*
X144482770Y-114618041D01*
X144507789Y-114618039D01*
X144578927Y-114617997D01*
X144640420Y-114617895D01*
X144692912Y-114617720D01*
X144737050Y-114617459D01*
X144773477Y-114617102D01*
X144802840Y-114616636D01*
X144825783Y-114616049D01*
X144842951Y-114615328D01*
X144854990Y-114614463D01*
X144862545Y-114613440D01*
X144866261Y-114612248D01*
X144866783Y-114610875D01*
X144866065Y-114609781D01*
X144860021Y-114601262D01*
X144848428Y-114585252D01*
X144831737Y-114562362D01*
X144810403Y-114533207D01*
X144784877Y-114498400D01*
X144755612Y-114458553D01*
X144723061Y-114414281D01*
X144687678Y-114366197D01*
X144649914Y-114314913D01*
X144610222Y-114261045D01*
X144569056Y-114205204D01*
X144526868Y-114148005D01*
X144484110Y-114090060D01*
X144441236Y-114031983D01*
X144398699Y-113974388D01*
X144356950Y-113917887D01*
X144316444Y-113863095D01*
X144277632Y-113810624D01*
X144240967Y-113761087D01*
X144206903Y-113715100D01*
X144175891Y-113673273D01*
X144148386Y-113636222D01*
X144124838Y-113604559D01*
X144105702Y-113578898D01*
X144091431Y-113559852D01*
X144082475Y-113548035D01*
X144079290Y-113544059D01*
X144079112Y-113545503D01*
X143699928Y-113545503D01*
X143699928Y-113001343D01*
X143912667Y-113001343D01*
X144125406Y-113001343D01*
X144493493Y-113493439D01*
X144525619Y-113536388D01*
X144581047Y-113610490D01*
X144638436Y-113687214D01*
X144696960Y-113765456D01*
X144755795Y-113844114D01*
X144814116Y-113922084D01*
X144871098Y-113998265D01*
X144925916Y-114071553D01*
X144977746Y-114140845D01*
X145025762Y-114205039D01*
X145069139Y-114263032D01*
X145107054Y-114313722D01*
X145329315Y-114610875D01*
X145352528Y-114641910D01*
G37*
G36*
X150429256Y-115258422D02*
G01*
X150597581Y-115258424D01*
X150756063Y-115258430D01*
X150904999Y-115258441D01*
X151044691Y-115258457D01*
X151175438Y-115258482D01*
X151297539Y-115258515D01*
X151411295Y-115258559D01*
X151517006Y-115258615D01*
X151614972Y-115258684D01*
X151705491Y-115258768D01*
X151788865Y-115258868D01*
X151865392Y-115258986D01*
X151935373Y-115259123D01*
X151999108Y-115259280D01*
X152056896Y-115259460D01*
X152109038Y-115259662D01*
X152155832Y-115259889D01*
X152197580Y-115260143D01*
X152234580Y-115260424D01*
X152267133Y-115260734D01*
X152295538Y-115261075D01*
X152320095Y-115261447D01*
X152341105Y-115261853D01*
X152358867Y-115262293D01*
X152373680Y-115262770D01*
X152385845Y-115263284D01*
X152395662Y-115263838D01*
X152403430Y-115264432D01*
X152409449Y-115265067D01*
X152414019Y-115265746D01*
X152417440Y-115266470D01*
X152420011Y-115267240D01*
X152422033Y-115268057D01*
X152423806Y-115268924D01*
X152439673Y-115278242D01*
X152460855Y-115297643D01*
X152476803Y-115324034D01*
X152479112Y-115329476D01*
X152481896Y-115338606D01*
X152483906Y-115350184D01*
X152485266Y-115365819D01*
X152486098Y-115387120D01*
X152486525Y-115415699D01*
X152486670Y-115453164D01*
X152486590Y-115477566D01*
X152485962Y-115514947D01*
X152484756Y-115545050D01*
X152483023Y-115566804D01*
X152480811Y-115579140D01*
X152476151Y-115590982D01*
X152457918Y-115618935D01*
X152432328Y-115639661D01*
X152400176Y-115652439D01*
X152398305Y-115652618D01*
X152386790Y-115652990D01*
X152365400Y-115653345D01*
X152334557Y-115653683D01*
X152294687Y-115654004D01*
X152246212Y-115654307D01*
X152189559Y-115654594D01*
X152125151Y-115654864D01*
X152053412Y-115655117D01*
X151974766Y-115655354D01*
X151889639Y-115655574D01*
X151798453Y-115655777D01*
X151701634Y-115655963D01*
X151599606Y-115656133D01*
X151492793Y-115656287D01*
X151381619Y-115656424D01*
X151266508Y-115656544D01*
X151147886Y-115656649D01*
X151026175Y-115656737D01*
X150901801Y-115656810D01*
X150775188Y-115656866D01*
X150646760Y-115656906D01*
X150516940Y-115656930D01*
X150386155Y-115656938D01*
X150254827Y-115656931D01*
X150123382Y-115656908D01*
X149992242Y-115656869D01*
X149861834Y-115656814D01*
X149732580Y-115656744D01*
X149604906Y-115656658D01*
X149479235Y-115656557D01*
X149355992Y-115656441D01*
X149235602Y-115656309D01*
X149118487Y-115656162D01*
X149005073Y-115656000D01*
X148895784Y-115655822D01*
X148791045Y-115655630D01*
X148691279Y-115655423D01*
X148596910Y-115655200D01*
X148508364Y-115654963D01*
X148426064Y-115654711D01*
X148350435Y-115654444D01*
X148281901Y-115654163D01*
X148220886Y-115653867D01*
X148167814Y-115653557D01*
X148123110Y-115653231D01*
X148087198Y-115652892D01*
X148060503Y-115652538D01*
X148043448Y-115652170D01*
X148036458Y-115651788D01*
X148023115Y-115647845D01*
X147996410Y-115633314D01*
X147974280Y-115612403D01*
X147959632Y-115587544D01*
X147957665Y-115581759D01*
X147955321Y-115571625D01*
X147953679Y-115558522D01*
X147952666Y-115540943D01*
X147952208Y-115517385D01*
X147952230Y-115486343D01*
X147952658Y-115446312D01*
X147954258Y-115327531D01*
X147970005Y-115305189D01*
X147974954Y-115298892D01*
X147991445Y-115282785D01*
X148008886Y-115270635D01*
X148032019Y-115258421D01*
X150217619Y-115258421D01*
X150250786Y-115258421D01*
X150429256Y-115258422D01*
G37*
G36*
X143171784Y-111851693D02*
G01*
X143170685Y-111898744D01*
X143167592Y-111938565D01*
X143162032Y-111973606D01*
X143153531Y-112006321D01*
X143141618Y-112039160D01*
X143125819Y-112074576D01*
X143093222Y-112132476D01*
X143053772Y-112183076D01*
X143007754Y-112225554D01*
X142954998Y-112260041D01*
X142895334Y-112286669D01*
X142828591Y-112305571D01*
X142806323Y-112308996D01*
X142774553Y-112311587D01*
X142738095Y-112312938D01*
X142699954Y-112313045D01*
X142663139Y-112311905D01*
X142630654Y-112309513D01*
X142605508Y-112305865D01*
X142558884Y-112293812D01*
X142496742Y-112269361D01*
X142441212Y-112236859D01*
X142392533Y-112196550D01*
X142350941Y-112148677D01*
X142316673Y-112093484D01*
X142289965Y-112031213D01*
X142271054Y-111962108D01*
X142268528Y-111949227D01*
X142265352Y-111929175D01*
X142263366Y-111908796D01*
X142262430Y-111885552D01*
X142262401Y-111856904D01*
X142262406Y-111856673D01*
X142495408Y-111856673D01*
X142497253Y-111899256D01*
X142501265Y-111937699D01*
X142507445Y-111968935D01*
X142516188Y-111997228D01*
X142535107Y-112040641D01*
X142558799Y-112075605D01*
X142587910Y-112102985D01*
X142623090Y-112123648D01*
X142623967Y-112124048D01*
X142640585Y-112130663D01*
X142657344Y-112134872D01*
X142677693Y-112137304D01*
X142705080Y-112138586D01*
X142725992Y-112138931D01*
X142754733Y-112137903D01*
X142778194Y-112134358D01*
X142799568Y-112127717D01*
X142822051Y-112117403D01*
X142841685Y-112105437D01*
X142872356Y-112077521D01*
X142897908Y-112041525D01*
X142917684Y-111998458D01*
X142931033Y-111949328D01*
X142934652Y-111924282D01*
X142937508Y-111886735D01*
X142938567Y-111845276D01*
X142937831Y-111803463D01*
X142935301Y-111764853D01*
X142930977Y-111733004D01*
X142921491Y-111695068D01*
X142903030Y-111649640D01*
X142878515Y-111611220D01*
X142848521Y-111580659D01*
X142813621Y-111558809D01*
X142808690Y-111556585D01*
X142792962Y-111550657D01*
X142776415Y-111546818D01*
X142755823Y-111544474D01*
X142727964Y-111543031D01*
X142717206Y-111542680D01*
X142692135Y-111542499D01*
X142672822Y-111543822D01*
X142655790Y-111547011D01*
X142637564Y-111552427D01*
X142609857Y-111564373D01*
X142576227Y-111588390D01*
X142548016Y-111621197D01*
X142525123Y-111662920D01*
X142507445Y-111713686D01*
X142502879Y-111734725D01*
X142498221Y-111771342D01*
X142495731Y-111813013D01*
X142495408Y-111856673D01*
X142262406Y-111856673D01*
X142263137Y-111820314D01*
X142263378Y-111811669D01*
X142265518Y-111765756D01*
X142269261Y-111727316D01*
X142275160Y-111693795D01*
X142283764Y-111662642D01*
X142295625Y-111631305D01*
X142311294Y-111597231D01*
X142341959Y-111544378D01*
X142381889Y-111494872D01*
X142428793Y-111453012D01*
X142482360Y-111418994D01*
X142542279Y-111393012D01*
X142608239Y-111375261D01*
X142679930Y-111365937D01*
X142743221Y-111364986D01*
X142812097Y-111372599D01*
X142878435Y-111389790D01*
X142943737Y-111416848D01*
X142961554Y-111425829D01*
X142983855Y-111438385D01*
X143002644Y-111451439D01*
X143021366Y-111467482D01*
X143043469Y-111489008D01*
X143076636Y-111525246D01*
X143103686Y-111561924D01*
X143125687Y-111601257D01*
X143144094Y-111645852D01*
X143160362Y-111698316D01*
X143164120Y-111713228D01*
X143167258Y-111729782D01*
X143169415Y-111748179D01*
X143170770Y-111770583D01*
X143171504Y-111799156D01*
X143171796Y-111836061D01*
X143171789Y-111845276D01*
X143171784Y-111851693D01*
G37*
G36*
X138626134Y-111851693D02*
G01*
X138625036Y-111898744D01*
X138621942Y-111938565D01*
X138616382Y-111973606D01*
X138607881Y-112006321D01*
X138595968Y-112039160D01*
X138580169Y-112074576D01*
X138547572Y-112132476D01*
X138508122Y-112183076D01*
X138462104Y-112225554D01*
X138409348Y-112260041D01*
X138349684Y-112286669D01*
X138282941Y-112305571D01*
X138260673Y-112308996D01*
X138228903Y-112311587D01*
X138192445Y-112312938D01*
X138154304Y-112313045D01*
X138117489Y-112311905D01*
X138085004Y-112309513D01*
X138059858Y-112305865D01*
X138013234Y-112293812D01*
X137951092Y-112269361D01*
X137895562Y-112236859D01*
X137846883Y-112196550D01*
X137805291Y-112148677D01*
X137771023Y-112093484D01*
X137744315Y-112031213D01*
X137725404Y-111962108D01*
X137722878Y-111949227D01*
X137719702Y-111929175D01*
X137717717Y-111908796D01*
X137716780Y-111885552D01*
X137716751Y-111856904D01*
X137717065Y-111841310D01*
X137950599Y-111841310D01*
X137950630Y-111856005D01*
X137951066Y-111887944D01*
X137952187Y-111912769D01*
X137954206Y-111932917D01*
X137957338Y-111950826D01*
X137961795Y-111968935D01*
X137970538Y-111997228D01*
X137989457Y-112040641D01*
X138013149Y-112075605D01*
X138042260Y-112102985D01*
X138077440Y-112123648D01*
X138078317Y-112124048D01*
X138094935Y-112130663D01*
X138111694Y-112134872D01*
X138132043Y-112137304D01*
X138159430Y-112138586D01*
X138180342Y-112138931D01*
X138209083Y-112137903D01*
X138232544Y-112134358D01*
X138253918Y-112127717D01*
X138276401Y-112117403D01*
X138296035Y-112105437D01*
X138326706Y-112077521D01*
X138352258Y-112041525D01*
X138372034Y-111998458D01*
X138385383Y-111949328D01*
X138389002Y-111924282D01*
X138391858Y-111886735D01*
X138392917Y-111845276D01*
X138392181Y-111803463D01*
X138389651Y-111764853D01*
X138385327Y-111733004D01*
X138375841Y-111695068D01*
X138357380Y-111649640D01*
X138332865Y-111611220D01*
X138302871Y-111580659D01*
X138267971Y-111558809D01*
X138263040Y-111556585D01*
X138247312Y-111550657D01*
X138230765Y-111546818D01*
X138210174Y-111544474D01*
X138182314Y-111543031D01*
X138171556Y-111542680D01*
X138146485Y-111542499D01*
X138127172Y-111543822D01*
X138110140Y-111547011D01*
X138091914Y-111552427D01*
X138064207Y-111564373D01*
X138030577Y-111588390D01*
X138002366Y-111621197D01*
X137979473Y-111662920D01*
X137961795Y-111713686D01*
X137959910Y-111720829D01*
X137955988Y-111738573D01*
X137953310Y-111757054D01*
X137951661Y-111778712D01*
X137950829Y-111805985D01*
X137950599Y-111841310D01*
X137717065Y-111841310D01*
X137717487Y-111820314D01*
X137717728Y-111811669D01*
X137719868Y-111765756D01*
X137723611Y-111727316D01*
X137729510Y-111693795D01*
X137738114Y-111662642D01*
X137749975Y-111631305D01*
X137765644Y-111597231D01*
X137796309Y-111544378D01*
X137836239Y-111494872D01*
X137883143Y-111453012D01*
X137936710Y-111418994D01*
X137996629Y-111393012D01*
X138062589Y-111375261D01*
X138134280Y-111365937D01*
X138197572Y-111364986D01*
X138266447Y-111372599D01*
X138332786Y-111389790D01*
X138398087Y-111416848D01*
X138415904Y-111425829D01*
X138438205Y-111438385D01*
X138456994Y-111451439D01*
X138475716Y-111467482D01*
X138497819Y-111489008D01*
X138530986Y-111525246D01*
X138558036Y-111561924D01*
X138580037Y-111601257D01*
X138598444Y-111645852D01*
X138614712Y-111698316D01*
X138618470Y-111713228D01*
X138621608Y-111729782D01*
X138623765Y-111748179D01*
X138625121Y-111770583D01*
X138625855Y-111799156D01*
X138626146Y-111836061D01*
X138626139Y-111845276D01*
X138626134Y-111851693D01*
G37*
G36*
X148888746Y-111740252D02*
G01*
X148894799Y-111811675D01*
X148891986Y-111887075D01*
X148885603Y-111935632D01*
X148869031Y-112006667D01*
X148844648Y-112071198D01*
X148812688Y-112128941D01*
X148773385Y-112179613D01*
X148726972Y-112222931D01*
X148673680Y-112258611D01*
X148613744Y-112286370D01*
X148547397Y-112305925D01*
X148546308Y-112306160D01*
X148522390Y-112309628D01*
X148490950Y-112311923D01*
X148454742Y-112313047D01*
X148416518Y-112313001D01*
X148379030Y-112311785D01*
X148345032Y-112309400D01*
X148317276Y-112305847D01*
X148308271Y-112304191D01*
X148245473Y-112287810D01*
X148186177Y-112264000D01*
X148132351Y-112233679D01*
X148085959Y-112197765D01*
X148083327Y-112195344D01*
X148069770Y-112182324D01*
X148060224Y-112172230D01*
X148056613Y-112167078D01*
X148058268Y-112163626D01*
X148065234Y-112153349D01*
X148076168Y-112138548D01*
X148089465Y-112121268D01*
X148103515Y-112103559D01*
X148116714Y-112087468D01*
X148127452Y-112075043D01*
X148134123Y-112068330D01*
X148134257Y-112068227D01*
X148147077Y-112062148D01*
X148163741Y-112061358D01*
X148185389Y-112066106D01*
X148213162Y-112076642D01*
X148248203Y-112093215D01*
X148249316Y-112093775D01*
X148276005Y-112106552D01*
X148302425Y-112118139D01*
X148325580Y-112127282D01*
X148342475Y-112132725D01*
X148348181Y-112134039D01*
X148382108Y-112138817D01*
X148419906Y-112140178D01*
X148456975Y-112138124D01*
X148488715Y-112132656D01*
X148514152Y-112124691D01*
X148554820Y-112104819D01*
X148589098Y-112077534D01*
X148617245Y-112042487D01*
X148639515Y-111999323D01*
X148656167Y-111947691D01*
X148667455Y-111887239D01*
X148670089Y-111867555D01*
X148372038Y-111867555D01*
X148314065Y-111867550D01*
X148259459Y-111867514D01*
X148213765Y-111867417D01*
X148176153Y-111867231D01*
X148145790Y-111866926D01*
X148121846Y-111866473D01*
X148103490Y-111865842D01*
X148089891Y-111865004D01*
X148080216Y-111863929D01*
X148073635Y-111862589D01*
X148069318Y-111860954D01*
X148066431Y-111858994D01*
X148064145Y-111856680D01*
X148057952Y-111845630D01*
X148052752Y-111824442D01*
X148050086Y-111796607D01*
X148049886Y-111764054D01*
X148051609Y-111736330D01*
X148252704Y-111736330D01*
X148458636Y-111736330D01*
X148664568Y-111736330D01*
X148657131Y-111704449D01*
X148654936Y-111695580D01*
X148637924Y-111647765D01*
X148614025Y-111607732D01*
X148583327Y-111575601D01*
X148545918Y-111551495D01*
X148534569Y-111546015D01*
X148521364Y-111540461D01*
X148508890Y-111537000D01*
X148494338Y-111535139D01*
X148474902Y-111534385D01*
X148447776Y-111534243D01*
X148441861Y-111534248D01*
X148415683Y-111534562D01*
X148396880Y-111535632D01*
X148382822Y-111537836D01*
X148370883Y-111541557D01*
X148358432Y-111547174D01*
X148342699Y-111555923D01*
X148310080Y-111582298D01*
X148284638Y-111616010D01*
X148266721Y-111656524D01*
X148256680Y-111703302D01*
X148252704Y-111736330D01*
X148051609Y-111736330D01*
X148052083Y-111728711D01*
X148056608Y-111692507D01*
X148063394Y-111657372D01*
X148072370Y-111625234D01*
X148095448Y-111568160D01*
X148124633Y-111518255D01*
X148160223Y-111475917D01*
X148202926Y-111440304D01*
X148253452Y-111410576D01*
X148276229Y-111399855D01*
X148310134Y-111386588D01*
X148343611Y-111377492D01*
X148379335Y-111372064D01*
X148419981Y-111369800D01*
X148468225Y-111370198D01*
X148510610Y-111372087D01*
X148546006Y-111375462D01*
X148576426Y-111380950D01*
X148604637Y-111389204D01*
X148633406Y-111400875D01*
X148665500Y-111416613D01*
X148680454Y-111424744D01*
X148734374Y-111461238D01*
X148780950Y-111504870D01*
X148819929Y-111555115D01*
X148851057Y-111611445D01*
X148874081Y-111673333D01*
X148887887Y-111736330D01*
X148888746Y-111740252D01*
G37*
G36*
X151947054Y-110992148D02*
G01*
X151990243Y-110993566D01*
X152030136Y-110996011D01*
X152064345Y-110999443D01*
X152090484Y-111003823D01*
X152102008Y-111006526D01*
X152184656Y-111031304D01*
X152260371Y-111063885D01*
X152328984Y-111104100D01*
X152390328Y-111151780D01*
X152444233Y-111206758D01*
X152490531Y-111268865D01*
X152529055Y-111337932D01*
X152559637Y-111413791D01*
X152582108Y-111496273D01*
X152586318Y-111519702D01*
X152591361Y-111564336D01*
X152594115Y-111614119D01*
X152594579Y-111665972D01*
X152592751Y-111716818D01*
X152588630Y-111763576D01*
X152582216Y-111803169D01*
X152573422Y-111839456D01*
X152547029Y-111918772D01*
X152512338Y-111992226D01*
X152469791Y-112059380D01*
X152419829Y-112119800D01*
X152362893Y-112173048D01*
X152299424Y-112218689D01*
X152229862Y-112256286D01*
X152154650Y-112285403D01*
X152074227Y-112305604D01*
X152068968Y-112306504D01*
X152041414Y-112309531D01*
X152006155Y-112311473D01*
X151965389Y-112312374D01*
X151921316Y-112312280D01*
X151876135Y-112311236D01*
X151832044Y-112309288D01*
X151791242Y-112306481D01*
X151755928Y-112302860D01*
X151728302Y-112298471D01*
X151690558Y-112289823D01*
X151611792Y-112265740D01*
X151539581Y-112235020D01*
X151475037Y-112198102D01*
X151442230Y-112176426D01*
X151442230Y-111914386D01*
X151442230Y-111652346D01*
X151660065Y-111652346D01*
X151877899Y-111652346D01*
X151877899Y-111729430D01*
X151877943Y-111749734D01*
X151877685Y-111777848D01*
X151875904Y-111798593D01*
X151871319Y-111813086D01*
X151862649Y-111822442D01*
X151848614Y-111827778D01*
X151827932Y-111830207D01*
X151799323Y-111830847D01*
X151761505Y-111830812D01*
X151667938Y-111830812D01*
X151667938Y-111946586D01*
X151667938Y-112062359D01*
X151690246Y-112072216D01*
X151718834Y-112083909D01*
X151757038Y-112096151D01*
X151797011Y-112104675D01*
X151841599Y-112110046D01*
X151893646Y-112112835D01*
X151921902Y-112113564D01*
X151949597Y-112113811D01*
X151971370Y-112113177D01*
X151989752Y-112111499D01*
X152007270Y-112108618D01*
X152026453Y-112104370D01*
X152054789Y-112096679D01*
X152115249Y-112073143D01*
X152169037Y-112041532D01*
X152216078Y-112001927D01*
X152256299Y-111954411D01*
X152289626Y-111899063D01*
X152315985Y-111835966D01*
X152335302Y-111765200D01*
X152338742Y-111742293D01*
X152341198Y-111709503D01*
X152342232Y-111671878D01*
X152341876Y-111632347D01*
X152340162Y-111593841D01*
X152337122Y-111559288D01*
X152332786Y-111531618D01*
X152328160Y-111511824D01*
X152306994Y-111447197D01*
X152278112Y-111388929D01*
X152241886Y-111337493D01*
X152198689Y-111293360D01*
X152148897Y-111257002D01*
X152092882Y-111228889D01*
X152079249Y-111223602D01*
X152049223Y-111213871D01*
X152018970Y-111207234D01*
X151985958Y-111203339D01*
X151947653Y-111201836D01*
X151901519Y-111202373D01*
X151883938Y-111202996D01*
X151835354Y-111206528D01*
X151793334Y-111213026D01*
X151755055Y-111223182D01*
X151717696Y-111237691D01*
X151678436Y-111257247D01*
X151647271Y-111274083D01*
X151623777Y-111286558D01*
X151606603Y-111295285D01*
X151594308Y-111300924D01*
X151585453Y-111304134D01*
X151578598Y-111305576D01*
X151572305Y-111305910D01*
X151560734Y-111305006D01*
X151547548Y-111300701D01*
X151534590Y-111291779D01*
X151520579Y-111277072D01*
X151504235Y-111255413D01*
X151484278Y-111225633D01*
X151442757Y-111161587D01*
X151456928Y-111146680D01*
X151466535Y-111137865D01*
X151486104Y-111122764D01*
X151510952Y-111105565D01*
X151538726Y-111087813D01*
X151567073Y-111071053D01*
X151593641Y-111056833D01*
X151642603Y-111035371D01*
X151709996Y-111013648D01*
X151780966Y-110998694D01*
X151789097Y-110997538D01*
X151821592Y-110994452D01*
X151860341Y-110992551D01*
X151902958Y-110991796D01*
X151947054Y-110992148D01*
G37*
G36*
X145833619Y-111365017D02*
G01*
X145868160Y-111367767D01*
X145895606Y-111372077D01*
X145916059Y-111377549D01*
X145950042Y-111389619D01*
X145984342Y-111404773D01*
X146015405Y-111421390D01*
X146039676Y-111437846D01*
X146061469Y-111457530D01*
X146093133Y-111496889D01*
X146116289Y-111541800D01*
X146130520Y-111591364D01*
X146135410Y-111644682D01*
X146134808Y-111665915D01*
X146127419Y-111716039D01*
X146111496Y-111760249D01*
X146086886Y-111798902D01*
X146053434Y-111832352D01*
X146042307Y-111841067D01*
X146023032Y-111854316D01*
X146001438Y-111866630D01*
X145975958Y-111878729D01*
X145945025Y-111891333D01*
X145907071Y-111905162D01*
X145860530Y-111920935D01*
X145858052Y-111921755D01*
X145820956Y-111934160D01*
X145792165Y-111944168D01*
X145770059Y-111952470D01*
X145753020Y-111959755D01*
X145739425Y-111966712D01*
X145727654Y-111974031D01*
X145716088Y-111982402D01*
X145702058Y-111995730D01*
X145688968Y-112018309D01*
X145684342Y-112043090D01*
X145687664Y-112068517D01*
X145698420Y-112093037D01*
X145716095Y-112115095D01*
X145740173Y-112133136D01*
X145770141Y-112145606D01*
X145788025Y-112148761D01*
X145815362Y-112150459D01*
X145848485Y-112150187D01*
X145903231Y-112148160D01*
X145968174Y-112115368D01*
X145979482Y-112109747D01*
X146012785Y-112094666D01*
X146039379Y-112085500D01*
X146060593Y-112081985D01*
X146077758Y-112083859D01*
X146092203Y-112090860D01*
X146095515Y-112093981D01*
X146104441Y-112105204D01*
X146115944Y-112121666D01*
X146128584Y-112141066D01*
X146140920Y-112161102D01*
X146151515Y-112179471D01*
X146158927Y-112193873D01*
X146161718Y-112202006D01*
X146161281Y-112203214D01*
X146154799Y-112210080D01*
X146142173Y-112220258D01*
X146125488Y-112232021D01*
X146111011Y-112241303D01*
X146061240Y-112268079D01*
X146007148Y-112289226D01*
X145945915Y-112305903D01*
X145945747Y-112305941D01*
X145925437Y-112309289D01*
X145899251Y-112311361D01*
X145865665Y-112312234D01*
X145823156Y-112311982D01*
X145794638Y-112311453D01*
X145768610Y-112310648D01*
X145748648Y-112309331D01*
X145732351Y-112307169D01*
X145717317Y-112303826D01*
X145701144Y-112298970D01*
X145681433Y-112292266D01*
X145627200Y-112269304D01*
X145579978Y-112239973D01*
X145541346Y-112204708D01*
X145511166Y-112163356D01*
X145489299Y-112115762D01*
X145475606Y-112061770D01*
X145472406Y-112038150D01*
X145471592Y-111986263D01*
X145480109Y-111939169D01*
X145497931Y-111896922D01*
X145525031Y-111859578D01*
X145561380Y-111827189D01*
X145606953Y-111799810D01*
X145616900Y-111795155D01*
X145641481Y-111784786D01*
X145671616Y-111773080D01*
X145704389Y-111761153D01*
X145736887Y-111750119D01*
X145749965Y-111745821D01*
X145798663Y-111728802D01*
X145837966Y-111712992D01*
X145868623Y-111697819D01*
X145891383Y-111682711D01*
X145906994Y-111667097D01*
X145916204Y-111650406D01*
X145919762Y-111632065D01*
X145918416Y-111611504D01*
X145911576Y-111590612D01*
X145895143Y-111567751D01*
X145871427Y-111549305D01*
X145842145Y-111536951D01*
X145834092Y-111535227D01*
X145811919Y-111532831D01*
X145784962Y-111531876D01*
X145756976Y-111532346D01*
X145731713Y-111534226D01*
X145712927Y-111537499D01*
X145707096Y-111539325D01*
X145689614Y-111545794D01*
X145667680Y-111554752D01*
X145644689Y-111564839D01*
X145614161Y-111577178D01*
X145584377Y-111585024D01*
X145561325Y-111585736D01*
X145545433Y-111579253D01*
X145541522Y-111574854D01*
X145532587Y-111562643D01*
X145520855Y-111545246D01*
X145507841Y-111524854D01*
X145478060Y-111476938D01*
X145498387Y-111459465D01*
X145503314Y-111455337D01*
X145541801Y-111428410D01*
X145586872Y-111404344D01*
X145635163Y-111384746D01*
X145683307Y-111371223D01*
X145690273Y-111369897D01*
X145720310Y-111366269D01*
X145756405Y-111364255D01*
X145795271Y-111363843D01*
X145833619Y-111365017D01*
G37*
G36*
X140122687Y-111365017D02*
G01*
X140157228Y-111367767D01*
X140184674Y-111372077D01*
X140205127Y-111377549D01*
X140239110Y-111389619D01*
X140273410Y-111404773D01*
X140304473Y-111421390D01*
X140328744Y-111437846D01*
X140350537Y-111457530D01*
X140382201Y-111496889D01*
X140405357Y-111541800D01*
X140419588Y-111591364D01*
X140424478Y-111644682D01*
X140423876Y-111665915D01*
X140416487Y-111716039D01*
X140400564Y-111760249D01*
X140375954Y-111798902D01*
X140342502Y-111832352D01*
X140331375Y-111841067D01*
X140312100Y-111854316D01*
X140290506Y-111866630D01*
X140265026Y-111878729D01*
X140234093Y-111891333D01*
X140196139Y-111905162D01*
X140149598Y-111920935D01*
X140147120Y-111921755D01*
X140110024Y-111934160D01*
X140081233Y-111944168D01*
X140059127Y-111952470D01*
X140042088Y-111959755D01*
X140028493Y-111966712D01*
X140016722Y-111974031D01*
X140005156Y-111982402D01*
X139991126Y-111995730D01*
X139978036Y-112018309D01*
X139973410Y-112043090D01*
X139976732Y-112068517D01*
X139987488Y-112093037D01*
X140005163Y-112115095D01*
X140029241Y-112133136D01*
X140059209Y-112145606D01*
X140077093Y-112148761D01*
X140104430Y-112150459D01*
X140137553Y-112150187D01*
X140192299Y-112148160D01*
X140257242Y-112115368D01*
X140268550Y-112109747D01*
X140301853Y-112094666D01*
X140328447Y-112085500D01*
X140349661Y-112081985D01*
X140366826Y-112083859D01*
X140381271Y-112090860D01*
X140384583Y-112093981D01*
X140393509Y-112105204D01*
X140405012Y-112121666D01*
X140417652Y-112141066D01*
X140429988Y-112161102D01*
X140440583Y-112179471D01*
X140447995Y-112193873D01*
X140450786Y-112202006D01*
X140450349Y-112203214D01*
X140443867Y-112210080D01*
X140431241Y-112220258D01*
X140414556Y-112232021D01*
X140400079Y-112241303D01*
X140350308Y-112268079D01*
X140296216Y-112289226D01*
X140234983Y-112305903D01*
X140234815Y-112305941D01*
X140214505Y-112309289D01*
X140188319Y-112311361D01*
X140154733Y-112312234D01*
X140112224Y-112311982D01*
X140083706Y-112311453D01*
X140057678Y-112310648D01*
X140037716Y-112309331D01*
X140021419Y-112307169D01*
X140006385Y-112303826D01*
X139990212Y-112298970D01*
X139970501Y-112292266D01*
X139916268Y-112269304D01*
X139869046Y-112239973D01*
X139830414Y-112204708D01*
X139800234Y-112163356D01*
X139778367Y-112115762D01*
X139764674Y-112061770D01*
X139761474Y-112038150D01*
X139760660Y-111986263D01*
X139769177Y-111939169D01*
X139786999Y-111896922D01*
X139814099Y-111859578D01*
X139850448Y-111827189D01*
X139896021Y-111799810D01*
X139905968Y-111795155D01*
X139930549Y-111784786D01*
X139960684Y-111773080D01*
X139993457Y-111761153D01*
X140025955Y-111750119D01*
X140039033Y-111745821D01*
X140087731Y-111728802D01*
X140127034Y-111712992D01*
X140157691Y-111697819D01*
X140180451Y-111682711D01*
X140196062Y-111667097D01*
X140205272Y-111650406D01*
X140208830Y-111632065D01*
X140207484Y-111611504D01*
X140200644Y-111590612D01*
X140184211Y-111567751D01*
X140160495Y-111549305D01*
X140131213Y-111536951D01*
X140123160Y-111535227D01*
X140100987Y-111532831D01*
X140074030Y-111531876D01*
X140046044Y-111532346D01*
X140020781Y-111534226D01*
X140001995Y-111537499D01*
X139996164Y-111539325D01*
X139978682Y-111545794D01*
X139956748Y-111554752D01*
X139933757Y-111564839D01*
X139903229Y-111577178D01*
X139873445Y-111585024D01*
X139850393Y-111585736D01*
X139834501Y-111579253D01*
X139830590Y-111574854D01*
X139821655Y-111562643D01*
X139809923Y-111545246D01*
X139796909Y-111524854D01*
X139767128Y-111476938D01*
X139787455Y-111459465D01*
X139792382Y-111455337D01*
X139830869Y-111428410D01*
X139875940Y-111404344D01*
X139924231Y-111384746D01*
X139972375Y-111371223D01*
X139979341Y-111369897D01*
X140009378Y-111366269D01*
X140045473Y-111364255D01*
X140084339Y-111363843D01*
X140122687Y-111365017D01*
G37*
G36*
X151282144Y-112093134D02*
G01*
X151272580Y-112144106D01*
X151254671Y-112190291D01*
X151228805Y-112229782D01*
X151195202Y-112262313D01*
X151154082Y-112287619D01*
X151105665Y-112305435D01*
X151094655Y-112307774D01*
X151068514Y-112310912D01*
X151036635Y-112312708D01*
X151002014Y-112313149D01*
X150967649Y-112312223D01*
X150936537Y-112309918D01*
X150911676Y-112306222D01*
X150895811Y-112302409D01*
X150841845Y-112282848D01*
X150787560Y-112253143D01*
X150733419Y-112213536D01*
X150709605Y-112193890D01*
X150700134Y-112226959D01*
X150699107Y-112230516D01*
X150690967Y-112255422D01*
X150682046Y-112273919D01*
X150670728Y-112286950D01*
X150655399Y-112295452D01*
X150634444Y-112300367D01*
X150606248Y-112302635D01*
X150569196Y-112303195D01*
X150507136Y-112303224D01*
X150508606Y-112065732D01*
X150733613Y-112065732D01*
X150763795Y-112090752D01*
X150763987Y-112090911D01*
X150784575Y-112106062D01*
X150809476Y-112121760D01*
X150833344Y-112134630D01*
X150833487Y-112134698D01*
X150852343Y-112143347D01*
X150867708Y-112148942D01*
X150883079Y-112152236D01*
X150901952Y-112153979D01*
X150927826Y-112154922D01*
X150946573Y-112155151D01*
X150977583Y-112153668D01*
X151001514Y-112149173D01*
X151020482Y-112141165D01*
X151036605Y-112129142D01*
X151036658Y-112129093D01*
X151053424Y-112106933D01*
X151062574Y-112080178D01*
X151064271Y-112051271D01*
X151058680Y-112022657D01*
X151045966Y-111996780D01*
X151026294Y-111976084D01*
X151013636Y-111967426D01*
X150973675Y-111947541D01*
X150924926Y-111932298D01*
X150867914Y-111921838D01*
X150803162Y-111916301D01*
X150733613Y-111913224D01*
X150733613Y-111989478D01*
X150733613Y-112065732D01*
X150508606Y-112065732D01*
X150509159Y-111976473D01*
X150509235Y-111964207D01*
X150509654Y-111899100D01*
X150510058Y-111843472D01*
X150510478Y-111796454D01*
X150510947Y-111757175D01*
X150511496Y-111724768D01*
X150512157Y-111698362D01*
X150512961Y-111677089D01*
X150513940Y-111660079D01*
X150515127Y-111646463D01*
X150516552Y-111635373D01*
X150518247Y-111625938D01*
X150520244Y-111617290D01*
X150522575Y-111608559D01*
X150539022Y-111560540D01*
X150565366Y-111508919D01*
X150598452Y-111464653D01*
X150637878Y-111428265D01*
X150683239Y-111400275D01*
X150696917Y-111393715D01*
X150724354Y-111381876D01*
X150749729Y-111373465D01*
X150775541Y-111368036D01*
X150804288Y-111365146D01*
X150838467Y-111364351D01*
X150880577Y-111365207D01*
X150903168Y-111366095D01*
X150945421Y-111368975D01*
X150981391Y-111373633D01*
X151013921Y-111380618D01*
X151045859Y-111390480D01*
X151080048Y-111403770D01*
X151101198Y-111413430D01*
X151127606Y-111427214D01*
X151154414Y-111442712D01*
X151179995Y-111458846D01*
X151202722Y-111474538D01*
X151220969Y-111488709D01*
X151233110Y-111500281D01*
X151237519Y-111508175D01*
X151237329Y-111509793D01*
X151233176Y-111520760D01*
X151224772Y-111536942D01*
X151213699Y-111555750D01*
X151201538Y-111574590D01*
X151189870Y-111590872D01*
X151180276Y-111602004D01*
X151174723Y-111606877D01*
X151158939Y-111615584D01*
X151137877Y-111619657D01*
X151132785Y-111620088D01*
X151122813Y-111620227D01*
X151112787Y-111618743D01*
X151100857Y-111614989D01*
X151085174Y-111608314D01*
X151063889Y-111598070D01*
X151035152Y-111583607D01*
X150959074Y-111544997D01*
X150904552Y-111542979D01*
X150878972Y-111542607D01*
X150845967Y-111544871D01*
X150819717Y-111551095D01*
X150798215Y-111561835D01*
X150779455Y-111577648D01*
X150763940Y-111595647D01*
X150751018Y-111617181D01*
X150742331Y-111642112D01*
X150737107Y-111672748D01*
X150734570Y-111711397D01*
X150732507Y-111773073D01*
X150789487Y-111773176D01*
X150807265Y-111773403D01*
X150876658Y-111777886D01*
X150945077Y-111787741D01*
X151010707Y-111802504D01*
X151071734Y-111821708D01*
X151126343Y-111844887D01*
X151172720Y-111871575D01*
X151185901Y-111881027D01*
X151224011Y-111915690D01*
X151252969Y-111954799D01*
X151272497Y-111997786D01*
X151282315Y-112044086D01*
X151282290Y-112051271D01*
X151282144Y-112093134D01*
G37*
G36*
X151572683Y-112966733D02*
G01*
X151658252Y-112973809D01*
X151737873Y-112986186D01*
X151813331Y-113004219D01*
X151886412Y-113028262D01*
X151958903Y-113058668D01*
X151990935Y-113074312D01*
X152072010Y-113121774D01*
X152146943Y-113177401D01*
X152215279Y-113240631D01*
X152276561Y-113310906D01*
X152330333Y-113387666D01*
X152376139Y-113470353D01*
X152413524Y-113558406D01*
X152442031Y-113651266D01*
X152445204Y-113664221D01*
X152464271Y-113764806D01*
X152474344Y-113867576D01*
X152475464Y-113970944D01*
X152467673Y-114073323D01*
X152451015Y-114173125D01*
X152425531Y-114268763D01*
X152418985Y-114288406D01*
X152382254Y-114379182D01*
X152336880Y-114464473D01*
X152283359Y-114543789D01*
X152222187Y-114616641D01*
X152153861Y-114682539D01*
X152078877Y-114740994D01*
X151997733Y-114791516D01*
X151910924Y-114833616D01*
X151818947Y-114866804D01*
X151803427Y-114871375D01*
X151777906Y-114878218D01*
X151751311Y-114884351D01*
X151721302Y-114890256D01*
X151685542Y-114896414D01*
X151641693Y-114903307D01*
X151637484Y-114903802D01*
X151620229Y-114904830D01*
X151595124Y-114905532D01*
X151564067Y-114905921D01*
X151528957Y-114906012D01*
X151491692Y-114905818D01*
X151454169Y-114905354D01*
X151418288Y-114904633D01*
X151385946Y-114903670D01*
X151359042Y-114902478D01*
X151339474Y-114901072D01*
X151270546Y-114892760D01*
X151173351Y-114875107D01*
X151082722Y-114850880D01*
X150997372Y-114819652D01*
X150916014Y-114780996D01*
X150837363Y-114734485D01*
X150791517Y-114704650D01*
X150791434Y-114317535D01*
X150791352Y-113930420D01*
X151108918Y-113930420D01*
X151426483Y-113930420D01*
X151426483Y-114046423D01*
X151426483Y-114162426D01*
X151408637Y-114180273D01*
X151390790Y-114198120D01*
X151253791Y-114198120D01*
X151116791Y-114198120D01*
X151116791Y-114369002D01*
X151116791Y-114539883D01*
X151144348Y-114552060D01*
X151170288Y-114562480D01*
X151205081Y-114574656D01*
X151243385Y-114586677D01*
X151281664Y-114597437D01*
X151316379Y-114605831D01*
X151321407Y-114606880D01*
X151338709Y-114609907D01*
X151357558Y-114612142D01*
X151379745Y-114613685D01*
X151407059Y-114614634D01*
X151441288Y-114615090D01*
X151484222Y-114615151D01*
X151521658Y-114615024D01*
X151553112Y-114614710D01*
X151577619Y-114614061D01*
X151597010Y-114612925D01*
X151613118Y-114611148D01*
X151627775Y-114608577D01*
X151642813Y-114605059D01*
X151660065Y-114600440D01*
X151694825Y-114589423D01*
X151738089Y-114572570D01*
X151781258Y-114552843D01*
X151820921Y-114531818D01*
X151853663Y-114511070D01*
X151904799Y-114469234D01*
X151954963Y-114415753D01*
X151998888Y-114354851D01*
X152036118Y-114287365D01*
X152066196Y-114214133D01*
X152088667Y-114135989D01*
X152103075Y-114053772D01*
X152104078Y-114044862D01*
X152107323Y-113999920D01*
X152108576Y-113949481D01*
X152107872Y-113897465D01*
X152105250Y-113847795D01*
X152100745Y-113804393D01*
X152085924Y-113726422D01*
X152062122Y-113648171D01*
X152030509Y-113576143D01*
X151991420Y-113510705D01*
X151945191Y-113452226D01*
X151892158Y-113401071D01*
X151832656Y-113357609D01*
X151767022Y-113322208D01*
X151695590Y-113295233D01*
X151618697Y-113277052D01*
X151601707Y-113274622D01*
X151565001Y-113271400D01*
X151522761Y-113269608D01*
X151478109Y-113269249D01*
X151434164Y-113270326D01*
X151394044Y-113272842D01*
X151360870Y-113276799D01*
X151312090Y-113285818D01*
X151267329Y-113296746D01*
X151225169Y-113310362D01*
X151182925Y-113327654D01*
X151137913Y-113349606D01*
X151087448Y-113377205D01*
X151063264Y-113390562D01*
X151029044Y-113407405D01*
X151000792Y-113417901D01*
X150977165Y-113422235D01*
X150956817Y-113420592D01*
X150938402Y-113413156D01*
X150920577Y-113400112D01*
X150919229Y-113398826D01*
X150910627Y-113388657D01*
X150898309Y-113372209D01*
X150883362Y-113351131D01*
X150866876Y-113327071D01*
X150849940Y-113301678D01*
X150833641Y-113276599D01*
X150819069Y-113253484D01*
X150807313Y-113233980D01*
X150799460Y-113219737D01*
X150796601Y-113212402D01*
X150797863Y-113208791D01*
X150806466Y-113198504D01*
X150822057Y-113184439D01*
X150843276Y-113167579D01*
X150868765Y-113148901D01*
X150897163Y-113129388D01*
X150927113Y-113110019D01*
X150957255Y-113091773D01*
X150986231Y-113075632D01*
X151014630Y-113061150D01*
X151084668Y-113030093D01*
X151155766Y-113005521D01*
X151229597Y-112987058D01*
X151307834Y-112974333D01*
X151392151Y-112966971D01*
X151484222Y-112964600D01*
X151572683Y-112966733D01*
G37*
G36*
X138891827Y-114303070D02*
G01*
X138891827Y-114465820D01*
X138891827Y-115600037D01*
X138310499Y-115598073D01*
X138263601Y-115597917D01*
X138176370Y-115597628D01*
X138098634Y-115597352D01*
X138029722Y-115597059D01*
X137968962Y-115596721D01*
X137915684Y-115596308D01*
X137869216Y-115595791D01*
X137828888Y-115595141D01*
X137794028Y-115594330D01*
X137763966Y-115593327D01*
X137738030Y-115592104D01*
X137715549Y-115590632D01*
X137695853Y-115588881D01*
X137678270Y-115586823D01*
X137662130Y-115584429D01*
X137646760Y-115581669D01*
X137631490Y-115578515D01*
X137615650Y-115574936D01*
X137598568Y-115570905D01*
X137579573Y-115566392D01*
X137564857Y-115562734D01*
X137504943Y-115544632D01*
X137442264Y-115521206D01*
X137380137Y-115493884D01*
X137321873Y-115464096D01*
X137270786Y-115433270D01*
X137265952Y-115430016D01*
X137210967Y-115387694D01*
X137158525Y-115337959D01*
X137110588Y-115283039D01*
X137069118Y-115225164D01*
X137036076Y-115166563D01*
X137020508Y-115133039D01*
X137002406Y-115088342D01*
X136988713Y-115045240D01*
X136978931Y-115001351D01*
X136972562Y-114954291D01*
X136969109Y-114901677D01*
X136968072Y-114841124D01*
X136968100Y-114828002D01*
X137446921Y-114828002D01*
X137446955Y-114834008D01*
X137451904Y-114901377D01*
X137465209Y-114962416D01*
X137486814Y-115017072D01*
X137516661Y-115065292D01*
X137554693Y-115107023D01*
X137600854Y-115142214D01*
X137655086Y-115170810D01*
X137717333Y-115192759D01*
X137787538Y-115208009D01*
X137865644Y-115216506D01*
X137873214Y-115216925D01*
X137899412Y-115217966D01*
X137933879Y-115218924D01*
X137975009Y-115219772D01*
X138021195Y-115220484D01*
X138070831Y-115221033D01*
X138122310Y-115221395D01*
X138174024Y-115221541D01*
X138403669Y-115221678D01*
X138403669Y-114843749D01*
X138403669Y-114465820D01*
X138176649Y-114466010D01*
X138145977Y-114466063D01*
X138065504Y-114466512D01*
X137994771Y-114467419D01*
X137933225Y-114468808D01*
X137880309Y-114470702D01*
X137835471Y-114473123D01*
X137798156Y-114476094D01*
X137767809Y-114479637D01*
X137743876Y-114483776D01*
X137716895Y-114490114D01*
X137653502Y-114510670D01*
X137598600Y-114537397D01*
X137552180Y-114570305D01*
X137514230Y-114609407D01*
X137484740Y-114654716D01*
X137463699Y-114706243D01*
X137451096Y-114764001D01*
X137446921Y-114828002D01*
X136968100Y-114828002D01*
X136968135Y-114811727D01*
X136968488Y-114779679D01*
X136969292Y-114754609D01*
X136970699Y-114734497D01*
X136972864Y-114717321D01*
X136975942Y-114701059D01*
X136980087Y-114683690D01*
X136996171Y-114632720D01*
X137023365Y-114572190D01*
X137057691Y-114515310D01*
X137097842Y-114464196D01*
X137142509Y-114420963D01*
X137184097Y-114389735D01*
X137244700Y-114352793D01*
X137311978Y-114319933D01*
X137383942Y-114292101D01*
X137458606Y-114270247D01*
X137487236Y-114263198D01*
X137455982Y-114250771D01*
X137380574Y-114216986D01*
X137306747Y-114174988D01*
X137241411Y-114127626D01*
X137184759Y-114075106D01*
X137136984Y-114017634D01*
X137098281Y-113955415D01*
X137068843Y-113888657D01*
X137048863Y-113817566D01*
X137047987Y-113813132D01*
X137043157Y-113778316D01*
X137041830Y-113760056D01*
X137524531Y-113760056D01*
X137525651Y-113799328D01*
X137528755Y-113834383D01*
X137533880Y-113862182D01*
X137542196Y-113889434D01*
X137564821Y-113940489D01*
X137595088Y-113985072D01*
X137633217Y-114023352D01*
X137679429Y-114055495D01*
X137733943Y-114081668D01*
X137796978Y-114102039D01*
X137868755Y-114116775D01*
X137871043Y-114117126D01*
X137888287Y-114119336D01*
X137909059Y-114121236D01*
X137934353Y-114122868D01*
X137965167Y-114124270D01*
X138002495Y-114125481D01*
X138047334Y-114126540D01*
X138100679Y-114127487D01*
X138163526Y-114128360D01*
X138403669Y-114131363D01*
X138403669Y-113754598D01*
X138403669Y-113377832D01*
X138150403Y-113380767D01*
X138131500Y-113380992D01*
X138069438Y-113381844D01*
X138016702Y-113382776D01*
X137972372Y-113383824D01*
X137935530Y-113385020D01*
X137905255Y-113386399D01*
X137880629Y-113387994D01*
X137860733Y-113389839D01*
X137844648Y-113391966D01*
X137809635Y-113398239D01*
X137747058Y-113414221D01*
X137693211Y-113435242D01*
X137647567Y-113461710D01*
X137609605Y-113494028D01*
X137578798Y-113532602D01*
X137554623Y-113577838D01*
X137536556Y-113630140D01*
X137532734Y-113647325D01*
X137528108Y-113681016D01*
X137525362Y-113719605D01*
X137524531Y-113760056D01*
X137041830Y-113760056D01*
X137040137Y-113736751D01*
X137038956Y-113691569D01*
X137039639Y-113645898D01*
X137042214Y-113602870D01*
X137046707Y-113565613D01*
X137052670Y-113533331D01*
X137073256Y-113455759D01*
X137101621Y-113385100D01*
X137137886Y-113321125D01*
X137182174Y-113263605D01*
X137234607Y-113212310D01*
X137250181Y-113199421D01*
X137308985Y-113157253D01*
X137373807Y-113120491D01*
X137445391Y-113088835D01*
X137524482Y-113061983D01*
X137611828Y-113039637D01*
X137708174Y-113021494D01*
X137713617Y-113020629D01*
X137725217Y-113018853D01*
X137736601Y-113017278D01*
X137748438Y-113015890D01*
X137761397Y-113014673D01*
X137776150Y-113013614D01*
X137793364Y-113012698D01*
X137813710Y-113011910D01*
X137837858Y-113011237D01*
X137866476Y-113010663D01*
X137900236Y-113010175D01*
X137939805Y-113009758D01*
X137985855Y-113009397D01*
X138039055Y-113009078D01*
X138100074Y-113008786D01*
X138169582Y-113008508D01*
X138248249Y-113008228D01*
X138336744Y-113007932D01*
X138891827Y-113006103D01*
X138891827Y-113377832D01*
X138891827Y-114303070D01*
G37*
G36*
X143220064Y-114359594D02*
G01*
X143219198Y-114416573D01*
X143217766Y-114470014D01*
X143215765Y-114518180D01*
X143213198Y-114559335D01*
X143210064Y-114591744D01*
X143200996Y-114658153D01*
X143182743Y-114763717D01*
X143160593Y-114861349D01*
X143134205Y-114952314D01*
X143103235Y-115037883D01*
X143067340Y-115119322D01*
X143030843Y-115189321D01*
X142989667Y-115255606D01*
X142943881Y-115316846D01*
X142891579Y-115375823D01*
X142847033Y-115419127D01*
X142776291Y-115476043D01*
X142700086Y-115524050D01*
X142618303Y-115563208D01*
X142530826Y-115593578D01*
X142437539Y-115615221D01*
X142423722Y-115617595D01*
X142403654Y-115620477D01*
X142383379Y-115622480D01*
X142360840Y-115623701D01*
X142333980Y-115624238D01*
X142300743Y-115624187D01*
X142259073Y-115623645D01*
X142249412Y-115623477D01*
X142199698Y-115622108D01*
X142157657Y-115619773D01*
X142120896Y-115616107D01*
X142087024Y-115610746D01*
X142053648Y-115603322D01*
X142018375Y-115593472D01*
X141978812Y-115580829D01*
X141959269Y-115574043D01*
X141875652Y-115538359D01*
X141797373Y-115493778D01*
X141724558Y-115440489D01*
X141657328Y-115378679D01*
X141595807Y-115308537D01*
X141540119Y-115230250D01*
X141490386Y-115144006D01*
X141446732Y-115049993D01*
X141409279Y-114948398D01*
X141378152Y-114839410D01*
X141353474Y-114723217D01*
X141335367Y-114600006D01*
X141335306Y-114599485D01*
X141327583Y-114517038D01*
X141322585Y-114427816D01*
X141320300Y-114334640D01*
X141320451Y-114300475D01*
X141784036Y-114300475D01*
X141784094Y-114325944D01*
X141785309Y-114412294D01*
X141788216Y-114490216D01*
X141792966Y-114561250D01*
X141799707Y-114626935D01*
X141808589Y-114688810D01*
X141819764Y-114748413D01*
X141833379Y-114807285D01*
X141836009Y-114817549D01*
X141861079Y-114901650D01*
X141890121Y-114976239D01*
X141923332Y-115041576D01*
X141960910Y-115097922D01*
X142003052Y-115145539D01*
X142049955Y-115184688D01*
X142101816Y-115215631D01*
X142158832Y-115238628D01*
X142173675Y-115242669D01*
X142196458Y-115246590D01*
X142225017Y-115249153D01*
X142261697Y-115250629D01*
X142278559Y-115251028D01*
X142305410Y-115251431D01*
X142325678Y-115251086D01*
X142341964Y-115249716D01*
X142356867Y-115247048D01*
X142372987Y-115242804D01*
X142392923Y-115236709D01*
X142395858Y-115235777D01*
X142451836Y-115212739D01*
X142502811Y-115181157D01*
X142548947Y-115140838D01*
X142590405Y-115091592D01*
X142627350Y-115033225D01*
X142659942Y-114965547D01*
X142688345Y-114888366D01*
X142694999Y-114867096D01*
X142712495Y-114804103D01*
X142726999Y-114739492D01*
X142738649Y-114672024D01*
X142747581Y-114600458D01*
X142753933Y-114523553D01*
X142757840Y-114440070D01*
X142759440Y-114348768D01*
X142758869Y-114248408D01*
X142757378Y-114180521D01*
X142753890Y-114095486D01*
X142748540Y-114018489D01*
X142741115Y-113948170D01*
X142731403Y-113883169D01*
X142719193Y-113822126D01*
X142704272Y-113763681D01*
X142686429Y-113706474D01*
X142665451Y-113649143D01*
X142661858Y-113640117D01*
X142629837Y-113571786D01*
X142592774Y-113512554D01*
X142550479Y-113462223D01*
X142502761Y-113420596D01*
X142449430Y-113387476D01*
X142390298Y-113362665D01*
X142381157Y-113359731D01*
X142365901Y-113355670D01*
X142350136Y-113352979D01*
X142331364Y-113351396D01*
X142307091Y-113350656D01*
X142274820Y-113350498D01*
X142236017Y-113351071D01*
X142204470Y-113353107D01*
X142177584Y-113357215D01*
X142152445Y-113364007D01*
X142126140Y-113374095D01*
X142095759Y-113388090D01*
X142053621Y-113412598D01*
X142007318Y-113450472D01*
X141965039Y-113497727D01*
X141926878Y-113554156D01*
X141892926Y-113619551D01*
X141863278Y-113693705D01*
X141838025Y-113776409D01*
X141817261Y-113867454D01*
X141801079Y-113966635D01*
X141789571Y-114073741D01*
X141789424Y-114075577D01*
X141787991Y-114099579D01*
X141786704Y-114131773D01*
X141785614Y-114170059D01*
X141784772Y-114212338D01*
X141784229Y-114256510D01*
X141784036Y-114300475D01*
X141320451Y-114300475D01*
X141320717Y-114240331D01*
X141323822Y-114147714D01*
X141329604Y-114059610D01*
X141338051Y-113978840D01*
X141338512Y-113975273D01*
X141358172Y-113852961D01*
X141384347Y-113737837D01*
X141416920Y-113630074D01*
X141455774Y-113529845D01*
X141500794Y-113437325D01*
X141551863Y-113352687D01*
X141608866Y-113276105D01*
X141671685Y-113207754D01*
X141740206Y-113147806D01*
X141814311Y-113096435D01*
X141893885Y-113053816D01*
X141978812Y-113020122D01*
X142005153Y-113011587D01*
X142043809Y-113000310D01*
X142079938Y-112991769D01*
X142116140Y-112985548D01*
X142155018Y-112981232D01*
X142199170Y-112978407D01*
X142251199Y-112976656D01*
X142281510Y-112976002D01*
X142314891Y-112975592D01*
X142341856Y-112975829D01*
X142364742Y-112976827D01*
X142385884Y-112978700D01*
X142407621Y-112981564D01*
X142432290Y-112985532D01*
X142486081Y-112996523D01*
X142555639Y-113015924D01*
X142623252Y-113040328D01*
X142686125Y-113068701D01*
X142741467Y-113100008D01*
X142782635Y-113128846D01*
X142832073Y-113169133D01*
X142880567Y-113214216D01*
X142925350Y-113261498D01*
X142963656Y-113308386D01*
X142997624Y-113357011D01*
X143049185Y-113444813D01*
X143094301Y-113540883D01*
X143132965Y-113645203D01*
X143165172Y-113757757D01*
X143190916Y-113878528D01*
X143210190Y-114007500D01*
X143213310Y-114040635D01*
X143215859Y-114082387D01*
X143217839Y-114131017D01*
X143219249Y-114184788D01*
X143220089Y-114241966D01*
X143220361Y-114300813D01*
X143220119Y-114348768D01*
X143220064Y-114359594D01*
G37*
G36*
X149305518Y-112985831D02*
G01*
X149329850Y-112986354D01*
X149347520Y-112987441D01*
X149360334Y-112989254D01*
X149370099Y-112991958D01*
X149378621Y-112995714D01*
X149384064Y-112998668D01*
X149411050Y-113019942D01*
X149432714Y-113049752D01*
X149449388Y-113088533D01*
X149449801Y-113089788D01*
X149480374Y-113182784D01*
X149510935Y-113275975D01*
X149541292Y-113368764D01*
X149571253Y-113460553D01*
X149600624Y-113550742D01*
X149629214Y-113638736D01*
X149656829Y-113723934D01*
X149683278Y-113805740D01*
X149708368Y-113883556D01*
X149731906Y-113956782D01*
X149753699Y-114024822D01*
X149773556Y-114087077D01*
X149791283Y-114142949D01*
X149806688Y-114191841D01*
X149819579Y-114233153D01*
X149829763Y-114266289D01*
X149837047Y-114290650D01*
X149841239Y-114305638D01*
X149844395Y-114317954D01*
X149851166Y-114343852D01*
X149856023Y-114361012D01*
X149859399Y-114370490D01*
X149861730Y-114373340D01*
X149863449Y-114370617D01*
X149864990Y-114363377D01*
X149866727Y-114354004D01*
X149870528Y-114334627D01*
X149875412Y-114310480D01*
X149880744Y-114284728D01*
X149883576Y-114272656D01*
X149889150Y-114250842D01*
X149897079Y-114220892D01*
X149907146Y-114183567D01*
X149919138Y-114139627D01*
X149932838Y-114089831D01*
X149948032Y-114034942D01*
X149964504Y-113975719D01*
X149982039Y-113912922D01*
X150000421Y-113847312D01*
X150019437Y-113779650D01*
X150038870Y-113710696D01*
X150058505Y-113641211D01*
X150078127Y-113571954D01*
X150097521Y-113503687D01*
X150116471Y-113437169D01*
X150134763Y-113373162D01*
X150152182Y-113312426D01*
X150168511Y-113255720D01*
X150183536Y-113203807D01*
X150197042Y-113157445D01*
X150208814Y-113117396D01*
X150218635Y-113084420D01*
X150226292Y-113059278D01*
X150231568Y-113042729D01*
X150234250Y-113035535D01*
X150238104Y-113029987D01*
X150250690Y-113016513D01*
X150265832Y-113004041D01*
X150288331Y-112988221D01*
X150463731Y-112986707D01*
X150493909Y-112986509D01*
X150533232Y-112986448D01*
X150568147Y-112986625D01*
X150597435Y-112987019D01*
X150619880Y-112987614D01*
X150634262Y-112988391D01*
X150639366Y-112989332D01*
X150638000Y-112994220D01*
X150633676Y-113008677D01*
X150626539Y-113032201D01*
X150616742Y-113064301D01*
X150604435Y-113104486D01*
X150589771Y-113152265D01*
X150572899Y-113207144D01*
X150553973Y-113268635D01*
X150533142Y-113336243D01*
X150510559Y-113409479D01*
X150486375Y-113487851D01*
X150460740Y-113570867D01*
X150433808Y-113658035D01*
X150405728Y-113748864D01*
X150376653Y-113842863D01*
X150346733Y-113939541D01*
X150053865Y-114885611D01*
X149890746Y-114885676D01*
X149727627Y-114885741D01*
X149511670Y-114225677D01*
X149503410Y-114200428D01*
X149477224Y-114120328D01*
X149451928Y-114042883D01*
X149427723Y-113968702D01*
X149404806Y-113898396D01*
X149383375Y-113832575D01*
X149363629Y-113771849D01*
X149345765Y-113716829D01*
X149329982Y-113668123D01*
X149316477Y-113626343D01*
X149305450Y-113592099D01*
X149297097Y-113566000D01*
X149291618Y-113548657D01*
X149289210Y-113540680D01*
X149286773Y-113532061D01*
X149282616Y-113520342D01*
X149279660Y-113515747D01*
X149277426Y-113518973D01*
X149273266Y-113529917D01*
X149268488Y-113545929D01*
X149268156Y-113547103D01*
X149264816Y-113558034D01*
X149258481Y-113578184D01*
X149249352Y-113606931D01*
X149237628Y-113643656D01*
X149223508Y-113687739D01*
X149207191Y-113738559D01*
X149188878Y-113795497D01*
X149168767Y-113857933D01*
X149147058Y-113925245D01*
X149123950Y-113996815D01*
X149099642Y-114072022D01*
X149074335Y-114150246D01*
X149048227Y-114230867D01*
X148836093Y-114885623D01*
X148672979Y-114885682D01*
X148509865Y-114885741D01*
X148215648Y-113936981D01*
X147921431Y-112988221D01*
X148074319Y-112986657D01*
X148085493Y-112986551D01*
X148136806Y-112986343D01*
X148178937Y-112986675D01*
X148211560Y-112987539D01*
X148234349Y-112988926D01*
X148246977Y-112990830D01*
X148255365Y-112993924D01*
X148277268Y-113006887D01*
X148297334Y-113024611D01*
X148311345Y-113043634D01*
X148311898Y-113045027D01*
X148315228Y-113055375D01*
X148321090Y-113074771D01*
X148329266Y-113102444D01*
X148339536Y-113137622D01*
X148351683Y-113179535D01*
X148365488Y-113227411D01*
X148380731Y-113280481D01*
X148397195Y-113337972D01*
X148414661Y-113399114D01*
X148432910Y-113463136D01*
X148451723Y-113529267D01*
X148470882Y-113596736D01*
X148490169Y-113664772D01*
X148509364Y-113732604D01*
X148528250Y-113799461D01*
X148546606Y-113864572D01*
X148564216Y-113927167D01*
X148580860Y-113986474D01*
X148596319Y-114041722D01*
X148610376Y-114092140D01*
X148622810Y-114136957D01*
X148633405Y-114175403D01*
X148641940Y-114206707D01*
X148648198Y-114230096D01*
X148651960Y-114244802D01*
X148654038Y-114253543D01*
X148660466Y-114281970D01*
X148666448Y-114310226D01*
X148670914Y-114333311D01*
X148671512Y-114336622D01*
X148674979Y-114353932D01*
X148677908Y-114365640D01*
X148679717Y-114369367D01*
X148681414Y-114364937D01*
X148685278Y-114352181D01*
X148690609Y-114333254D01*
X148696791Y-114310287D01*
X148698352Y-114304795D01*
X148703357Y-114288269D01*
X148711198Y-114263012D01*
X148721624Y-114229802D01*
X148734387Y-114189416D01*
X148749235Y-114142632D01*
X148765919Y-114090226D01*
X148784188Y-114032976D01*
X148803793Y-113971659D01*
X148824483Y-113907053D01*
X148846008Y-113839934D01*
X148868119Y-113771079D01*
X148890564Y-113701267D01*
X148913094Y-113631275D01*
X148935460Y-113561879D01*
X148957410Y-113493856D01*
X148978694Y-113427985D01*
X148999063Y-113365042D01*
X149018267Y-113305805D01*
X149036054Y-113251050D01*
X149052176Y-113201556D01*
X149066383Y-113158099D01*
X149078423Y-113121456D01*
X149088047Y-113092405D01*
X149095005Y-113071723D01*
X149099046Y-113060188D01*
X149109136Y-113038900D01*
X149129748Y-113013063D01*
X149156066Y-112995463D01*
X149163802Y-112992393D01*
X149174574Y-112989605D01*
X149188563Y-112987702D01*
X149207590Y-112986524D01*
X149233474Y-112985913D01*
X149268034Y-112985712D01*
X149272718Y-112985707D01*
X149305518Y-112985831D01*
G37*
G36*
X144214857Y-111021163D02*
G01*
X144216275Y-111022493D01*
X144220038Y-111026236D01*
X144223635Y-111030490D01*
X144227311Y-111035929D01*
X144231311Y-111043229D01*
X144235881Y-111053068D01*
X144241268Y-111066121D01*
X144247716Y-111083063D01*
X144255473Y-111104572D01*
X144264782Y-111131323D01*
X144275891Y-111163992D01*
X144289044Y-111203255D01*
X144304489Y-111249789D01*
X144322469Y-111304269D01*
X144343232Y-111367371D01*
X144367023Y-111439772D01*
X144371883Y-111454573D01*
X144392657Y-111518031D01*
X144412704Y-111579562D01*
X144431738Y-111638272D01*
X144449474Y-111693269D01*
X144465626Y-111743658D01*
X144479908Y-111788548D01*
X144492036Y-111827043D01*
X144501723Y-111858252D01*
X144508684Y-111881280D01*
X144512633Y-111895235D01*
X144527191Y-111951784D01*
X144536212Y-111904725D01*
X144537525Y-111898593D01*
X144541931Y-111880497D01*
X144548702Y-111854319D01*
X144557580Y-111820968D01*
X144568306Y-111781356D01*
X144580623Y-111736391D01*
X144594274Y-111686984D01*
X144608999Y-111634046D01*
X144624542Y-111578485D01*
X144640643Y-111521213D01*
X144657046Y-111463140D01*
X144673493Y-111405175D01*
X144689725Y-111348228D01*
X144705485Y-111293210D01*
X144720515Y-111241031D01*
X144734556Y-111192601D01*
X144747351Y-111148830D01*
X144758642Y-111110628D01*
X144768172Y-111078905D01*
X144775681Y-111054571D01*
X144780913Y-111038537D01*
X144783610Y-111031712D01*
X144793021Y-111021480D01*
X144805870Y-111011245D01*
X144807619Y-111010142D01*
X144813614Y-111007238D01*
X144821533Y-111005063D01*
X144832806Y-111003515D01*
X144848862Y-111002488D01*
X144871128Y-111001880D01*
X144901034Y-111001585D01*
X144940009Y-111001502D01*
X144980430Y-111001699D01*
X145014295Y-111002340D01*
X145039058Y-111003408D01*
X145054255Y-111004881D01*
X145059424Y-111006739D01*
X145057977Y-111011829D01*
X145053637Y-111026245D01*
X145046628Y-111049253D01*
X145037173Y-111080128D01*
X145025498Y-111118144D01*
X145011827Y-111162575D01*
X144996385Y-111212697D01*
X144979395Y-111267782D01*
X144961084Y-111327106D01*
X144941675Y-111389944D01*
X144921392Y-111455568D01*
X144900462Y-111523255D01*
X144879107Y-111592278D01*
X144857552Y-111661911D01*
X144836023Y-111731429D01*
X144814743Y-111800107D01*
X144793937Y-111867218D01*
X144773830Y-111932038D01*
X144754646Y-111993840D01*
X144736610Y-112051900D01*
X144719947Y-112105490D01*
X144704880Y-112153886D01*
X144691635Y-112196363D01*
X144680436Y-112232194D01*
X144671508Y-112260654D01*
X144665074Y-112281017D01*
X144659618Y-112298177D01*
X144546599Y-112296764D01*
X144433580Y-112295350D01*
X144284194Y-111838686D01*
X144282091Y-111832258D01*
X144260320Y-111765721D01*
X144239469Y-111702019D01*
X144219771Y-111641867D01*
X144201461Y-111585978D01*
X144184774Y-111535068D01*
X144169944Y-111489850D01*
X144157204Y-111451039D01*
X144146789Y-111419348D01*
X144138934Y-111395494D01*
X144133872Y-111380189D01*
X144131839Y-111374148D01*
X144131161Y-111372761D01*
X144127717Y-111373587D01*
X144123253Y-111384646D01*
X144121077Y-111391493D01*
X144115831Y-111407787D01*
X144107806Y-111432621D01*
X144097245Y-111465249D01*
X144084388Y-111504924D01*
X144069479Y-111550900D01*
X144052759Y-111602431D01*
X144034470Y-111658772D01*
X144014854Y-111719175D01*
X143994154Y-111782894D01*
X143972610Y-111849184D01*
X143827584Y-112295350D01*
X143713890Y-112296765D01*
X143699952Y-112296920D01*
X143668066Y-112297131D01*
X143640638Y-112297110D01*
X143619177Y-112296870D01*
X143605193Y-112296424D01*
X143600197Y-112295786D01*
X143600192Y-112295753D01*
X143598493Y-112289989D01*
X143593872Y-112274835D01*
X143586514Y-112250891D01*
X143576606Y-112218756D01*
X143564333Y-112179030D01*
X143549881Y-112132314D01*
X143533436Y-112079206D01*
X143515183Y-112020308D01*
X143495308Y-111956219D01*
X143473998Y-111887538D01*
X143451437Y-111814867D01*
X143427811Y-111738803D01*
X143403307Y-111659949D01*
X143402477Y-111657277D01*
X143377930Y-111578284D01*
X143354225Y-111501962D01*
X143331551Y-111428925D01*
X143310098Y-111359785D01*
X143290056Y-111295154D01*
X143271614Y-111235646D01*
X143254963Y-111181873D01*
X143240292Y-111134448D01*
X143227790Y-111093984D01*
X143217648Y-111061093D01*
X143210055Y-111036388D01*
X143205201Y-111020481D01*
X143203275Y-111013986D01*
X143200133Y-111001467D01*
X143312244Y-111001487D01*
X143319799Y-111001490D01*
X143355644Y-111001603D01*
X143382786Y-111001966D01*
X143402747Y-111002698D01*
X143417045Y-111003922D01*
X143427200Y-111005759D01*
X143434731Y-111008329D01*
X143441159Y-111011753D01*
X143442072Y-111012324D01*
X143455714Y-111023794D01*
X143465634Y-111036832D01*
X143466036Y-111037732D01*
X143469429Y-111047591D01*
X143475301Y-111066426D01*
X143483391Y-111093307D01*
X143493436Y-111127306D01*
X143505172Y-111167496D01*
X143518337Y-111212947D01*
X143532667Y-111262731D01*
X143547901Y-111315921D01*
X143563775Y-111371588D01*
X143580027Y-111428803D01*
X143596393Y-111486638D01*
X143612612Y-111544164D01*
X143628419Y-111600454D01*
X143643552Y-111654579D01*
X143657749Y-111705611D01*
X143670747Y-111752622D01*
X143682282Y-111794682D01*
X143692092Y-111830864D01*
X143699915Y-111860240D01*
X143705486Y-111881880D01*
X143708545Y-111894858D01*
X143710647Y-111904817D01*
X143714765Y-111922752D01*
X143718002Y-111934768D01*
X143719795Y-111938672D01*
X143721477Y-111934532D01*
X143725064Y-111922667D01*
X143729511Y-111906120D01*
X143732069Y-111897009D01*
X143737825Y-111877903D01*
X143746181Y-111850946D01*
X143756849Y-111817030D01*
X143769536Y-111777049D01*
X143783954Y-111731894D01*
X143799811Y-111682459D01*
X143816818Y-111629634D01*
X143834684Y-111574313D01*
X143853120Y-111517389D01*
X143871835Y-111459753D01*
X143890538Y-111402297D01*
X143908940Y-111345915D01*
X143926750Y-111291499D01*
X143943679Y-111239941D01*
X143959435Y-111192133D01*
X143973730Y-111148969D01*
X143986272Y-111111339D01*
X143996771Y-111080138D01*
X144004938Y-111056256D01*
X144010481Y-111040587D01*
X144013111Y-111034023D01*
X144019654Y-111024870D01*
X144030307Y-111015067D01*
X144044286Y-111008350D01*
X144063372Y-111004196D01*
X144089346Y-111002083D01*
X144123990Y-111001487D01*
X144193742Y-111001467D01*
X144214857Y-111021163D01*
G37*
G36*
X140161607Y-112981276D02*
G01*
X140205479Y-112982231D01*
X140248026Y-112983905D01*
X140286957Y-112986245D01*
X140319983Y-112989199D01*
X140344814Y-112992713D01*
X140404444Y-113005517D01*
X140496423Y-113032143D01*
X140580932Y-113065864D01*
X140658345Y-113106916D01*
X140729039Y-113155541D01*
X140793389Y-113211977D01*
X140851771Y-113276464D01*
X140904560Y-113349240D01*
X140933253Y-113397041D01*
X140970227Y-113473306D01*
X141000690Y-113556526D01*
X141025004Y-113647605D01*
X141030309Y-113670151D01*
X141035269Y-113691154D01*
X141037921Y-113707143D01*
X141037276Y-113719041D01*
X141032344Y-113727776D01*
X141022136Y-113734274D01*
X141005663Y-113739460D01*
X140981936Y-113744260D01*
X140949966Y-113749600D01*
X140908763Y-113756406D01*
X140891184Y-113759366D01*
X140842674Y-113767114D01*
X140802688Y-113772683D01*
X140769921Y-113776156D01*
X140743069Y-113777617D01*
X140720828Y-113777150D01*
X140701895Y-113774839D01*
X140684965Y-113770767D01*
X140680338Y-113769310D01*
X140654398Y-113757947D01*
X140632815Y-113741702D01*
X140614402Y-113719175D01*
X140597970Y-113688962D01*
X140582330Y-113649661D01*
X140567147Y-113609568D01*
X140548633Y-113569282D01*
X140528113Y-113534540D01*
X140503977Y-113502672D01*
X140474617Y-113471012D01*
X140466548Y-113463105D01*
X140426750Y-113428871D01*
X140386260Y-113402810D01*
X140342173Y-113383298D01*
X140291582Y-113368711D01*
X140283057Y-113366783D01*
X140262268Y-113362670D01*
X140242915Y-113360109D01*
X140222021Y-113358888D01*
X140196606Y-113358796D01*
X140163695Y-113359620D01*
X140148703Y-113360192D01*
X140109387Y-113362695D01*
X140077470Y-113366329D01*
X140054485Y-113370935D01*
X140000213Y-113390902D01*
X139949443Y-113419963D01*
X139905209Y-113456812D01*
X139868156Y-113500800D01*
X139838931Y-113551280D01*
X139818182Y-113607605D01*
X139816051Y-113616279D01*
X139811013Y-113647236D01*
X139807693Y-113684687D01*
X139806154Y-113725753D01*
X139806463Y-113767553D01*
X139808684Y-113807206D01*
X139812883Y-113841834D01*
X139825593Y-113901099D01*
X139851981Y-113982211D01*
X139888786Y-114063622D01*
X139935967Y-114145244D01*
X139993483Y-114226989D01*
X140005712Y-114242628D01*
X140019562Y-114259641D01*
X140035151Y-114278077D01*
X140052887Y-114298361D01*
X140073178Y-114320920D01*
X140096434Y-114346180D01*
X140123062Y-114374568D01*
X140153472Y-114406509D01*
X140188070Y-114442431D01*
X140227266Y-114482758D01*
X140271469Y-114527918D01*
X140321085Y-114578337D01*
X140376525Y-114634441D01*
X140438195Y-114696656D01*
X140506505Y-114765408D01*
X140581863Y-114841124D01*
X140602274Y-114861618D01*
X140669469Y-114929083D01*
X140729767Y-114989655D01*
X140783554Y-115043767D01*
X140831220Y-115091853D01*
X140873151Y-115134346D01*
X140909736Y-115171679D01*
X140941364Y-115204286D01*
X140968420Y-115232601D01*
X140991295Y-115257057D01*
X141010375Y-115278088D01*
X141026049Y-115296127D01*
X141038704Y-115311608D01*
X141048729Y-115324965D01*
X141056511Y-115336630D01*
X141062439Y-115347037D01*
X141066900Y-115356621D01*
X141070282Y-115365814D01*
X141072973Y-115375049D01*
X141075361Y-115384762D01*
X141077835Y-115395384D01*
X141079159Y-115401627D01*
X141082858Y-115429513D01*
X141085075Y-115466930D01*
X141085839Y-115514311D01*
X141085917Y-115599607D01*
X140193584Y-115599607D01*
X139301251Y-115599607D01*
X139301251Y-115453588D01*
X139301253Y-115447082D01*
X139301446Y-115398681D01*
X139302102Y-115359354D01*
X139303423Y-115327830D01*
X139305610Y-115302841D01*
X139308866Y-115283117D01*
X139313393Y-115267388D01*
X139319392Y-115254386D01*
X139327067Y-115242841D01*
X139336620Y-115231483D01*
X139343115Y-115224829D01*
X139360391Y-115210065D01*
X139377003Y-115198990D01*
X139377905Y-115198508D01*
X139381938Y-115196462D01*
X139386311Y-115194685D01*
X139391749Y-115193155D01*
X139398978Y-115191851D01*
X139408724Y-115190749D01*
X139421711Y-115189830D01*
X139438666Y-115189070D01*
X139460314Y-115188449D01*
X139487381Y-115187943D01*
X139520592Y-115187531D01*
X139560673Y-115187192D01*
X139608350Y-115186904D01*
X139664347Y-115186643D01*
X139729392Y-115186390D01*
X139804209Y-115186122D01*
X139828164Y-115186038D01*
X139900488Y-115185802D01*
X139963364Y-115185640D01*
X140017597Y-115185568D01*
X140063991Y-115185602D01*
X140103354Y-115185755D01*
X140136488Y-115186045D01*
X140164200Y-115186485D01*
X140187296Y-115187093D01*
X140206579Y-115187882D01*
X140222855Y-115188869D01*
X140236930Y-115190068D01*
X140249608Y-115191495D01*
X140261695Y-115193166D01*
X140273996Y-115195096D01*
X140295670Y-115198851D01*
X140328784Y-115205227D01*
X140360794Y-115212023D01*
X140387055Y-115218288D01*
X140436177Y-115231068D01*
X140413043Y-115206690D01*
X140409979Y-115203493D01*
X140398852Y-115192000D01*
X140381397Y-115174049D01*
X140358282Y-115150324D01*
X140330177Y-115121511D01*
X140297751Y-115088296D01*
X140261672Y-115051362D01*
X140222609Y-115011396D01*
X140181231Y-114969083D01*
X140138208Y-114925109D01*
X140130509Y-114917241D01*
X140061358Y-114846537D01*
X139999075Y-114782772D01*
X139943204Y-114725462D01*
X139893288Y-114674124D01*
X139848869Y-114628275D01*
X139809490Y-114587431D01*
X139774696Y-114551110D01*
X139744028Y-114518829D01*
X139717029Y-114490104D01*
X139693244Y-114464452D01*
X139672214Y-114441389D01*
X139653482Y-114420434D01*
X139636593Y-114401102D01*
X139621088Y-114382910D01*
X139606511Y-114365375D01*
X139592405Y-114348014D01*
X139554190Y-114298091D01*
X139501190Y-114219704D01*
X139454741Y-114139325D01*
X139415921Y-114058877D01*
X139385814Y-113980285D01*
X139376617Y-113951221D01*
X139364565Y-113906931D01*
X139355989Y-113864505D01*
X139350433Y-113820886D01*
X139347438Y-113773015D01*
X139346547Y-113717834D01*
X139347261Y-113673141D01*
X139351051Y-113614479D01*
X139358485Y-113561155D01*
X139369995Y-113510352D01*
X139386010Y-113459253D01*
X139409288Y-113401431D01*
X139448437Y-113327596D01*
X139495715Y-113259984D01*
X139550732Y-113198885D01*
X139613100Y-113144589D01*
X139682430Y-113097387D01*
X139758333Y-113057568D01*
X139840419Y-113025423D01*
X139928300Y-113001241D01*
X140021587Y-112985312D01*
X140044941Y-112983244D01*
X140079048Y-112981730D01*
X140118700Y-112981091D01*
X140161607Y-112981276D01*
G37*
%LPC*%
D11*
X163195000Y-127635000D02*
X123825000Y-127635000D01*
X123317000Y-125031500D01*
X163703000Y-125031500D01*
X163195000Y-127635000D01*
G36*
X163195000Y-127635000D02*
G01*
X123825000Y-127635000D01*
X123317000Y-125031500D01*
X163703000Y-125031500D01*
X163195000Y-127635000D01*
G37*
X117475000Y-127635000D02*
X78105000Y-127635000D01*
X77597000Y-125031500D01*
X117983000Y-125031500D01*
X117475000Y-127635000D01*
G36*
X117475000Y-127635000D02*
G01*
X78105000Y-127635000D01*
X77597000Y-125031500D01*
X117983000Y-125031500D01*
X117475000Y-127635000D01*
G37*
D12*
X78105000Y-126111000D03*
X79375000Y-126111000D03*
X80645000Y-126111000D03*
X81915000Y-126111000D03*
X83185000Y-126111000D03*
X84455000Y-126111000D03*
X85725000Y-126111000D03*
X86995000Y-126111000D03*
X88265000Y-126111000D03*
X89535000Y-126111000D03*
X90805000Y-126111000D03*
X92075000Y-126111000D03*
X93345000Y-126111000D03*
X94615000Y-126111000D03*
X95885000Y-126111000D03*
X97155000Y-126111000D03*
X98425000Y-126111000D03*
X99695000Y-126111000D03*
X100965000Y-126111000D03*
X102235000Y-126111000D03*
X103505000Y-126111000D03*
X104775000Y-126111000D03*
X106045000Y-126111000D03*
X107315000Y-126111000D03*
X108585000Y-126111000D03*
X109855000Y-126111000D03*
X111125000Y-126111000D03*
X112395000Y-126111000D03*
X113665000Y-126111000D03*
X114935000Y-126111000D03*
X116205000Y-126111000D03*
X117475000Y-126111000D03*
X123825000Y-126111000D03*
X125095000Y-126111000D03*
X126365000Y-126111000D03*
X127635000Y-126111000D03*
X128905000Y-126111000D03*
X130175000Y-126111000D03*
X131445000Y-126111000D03*
X132715000Y-126111000D03*
X133985000Y-126111000D03*
X135255000Y-126111000D03*
X136525000Y-126111000D03*
X137795000Y-126111000D03*
X139065000Y-126111000D03*
X140335000Y-126111000D03*
X141605000Y-126111000D03*
X142875000Y-126111000D03*
X144145000Y-126111000D03*
X145415000Y-126111000D03*
X146685000Y-126111000D03*
X147955000Y-126111000D03*
X149225000Y-126111000D03*
X150495000Y-126111000D03*
X151765000Y-126111000D03*
X153035000Y-126111000D03*
X154305000Y-126111000D03*
X155575000Y-126111000D03*
X156845000Y-126111000D03*
X158115000Y-126111000D03*
X159385000Y-126111000D03*
X160655000Y-126111000D03*
X161925000Y-126111000D03*
X163195000Y-126111000D03*
D13*
X73406000Y-104267000D03*
X75438000Y-125984000D03*
X167894000Y-125984000D03*
X167894000Y-104267000D03*
%LPD*%
M02*
