G04 #@! TF.GenerationSoftware,KiCad,Pcbnew,7.0.10*
G04 #@! TF.CreationDate,2024-02-16T17:31:47-05:00*
G04 #@! TF.ProjectId,MacIIROMSIMM,4d616349-4952-44f4-9d53-494d4d2e6b69,1.0*
G04 #@! TF.SameCoordinates,Original*
G04 #@! TF.FileFunction,Legend,Top*
G04 #@! TF.FilePolarity,Positive*
%FSLAX46Y46*%
G04 Gerber Fmt 4.6, Leading zero omitted, Abs format (unit mm)*
G04 Created by KiCad (PCBNEW 7.0.10) date 2024-02-16 17:31:47*
%MOMM*%
%LPD*%
G01*
G04 APERTURE LIST*
G04 Aperture macros list*
%AMRoundRect*
0 Rectangle with rounded corners*
0 $1 Rounding radius*
0 $2 $3 $4 $5 $6 $7 $8 $9 X,Y pos of 4 corners*
0 Add a 4 corners polygon primitive as box body*
4,1,4,$2,$3,$4,$5,$6,$7,$8,$9,$2,$3,0*
0 Add four circle primitives for the rounded corners*
1,1,$1+$1,$2,$3*
1,1,$1+$1,$4,$5*
1,1,$1+$1,$6,$7*
1,1,$1+$1,$8,$9*
0 Add four rect primitives between the rounded corners*
20,1,$1+$1,$2,$3,$4,$5,0*
20,1,$1+$1,$4,$5,$6,$7,0*
20,1,$1+$1,$6,$7,$8,$9,0*
20,1,$1+$1,$8,$9,$2,$3,0*%
G04 Aperture macros list end*
%ADD10C,0.350000*%
%ADD11C,0.203200*%
%ADD12C,0.120000*%
%ADD13C,0.150000*%
%ADD14C,0.100000*%
%ADD15C,0.175000*%
%ADD16C,2.000000*%
%ADD17RoundRect,0.237500X-0.237500X-0.287500X0.237500X-0.287500X0.237500X0.287500X-0.237500X0.287500X0*%
%ADD18RoundRect,0.237500X0.287500X-0.237500X0.287500X0.237500X-0.287500X0.237500X-0.287500X-0.237500X0*%
%ADD19RoundRect,0.124500X-0.124500X0.624500X-0.124500X-0.624500X0.124500X-0.624500X0.124500X0.624500X0*%
%ADD20RoundRect,0.476560X-0.119140X-1.122440X0.119140X-1.122440X0.119140X1.122440X-0.119140X1.122440X0*%
%ADD21RoundRect,0.087000X-0.487000X-0.087000X0.487000X-0.087000X0.487000X0.087000X-0.487000X0.087000X0*%
%ADD22RoundRect,0.120000X0.120000X-0.420000X0.120000X0.420000X-0.120000X0.420000X-0.120000X-0.420000X0*%
%ADD23RoundRect,0.200000X0.200000X0.325000X-0.200000X0.325000X-0.200000X-0.325000X0.200000X-0.325000X0*%
%ADD24RoundRect,0.200000X0.325000X-0.200000X0.325000X0.200000X-0.325000X0.200000X-0.325000X-0.200000X0*%
%ADD25RoundRect,0.225000X0.500000X0.225000X-0.500000X0.225000X-0.500000X-0.225000X0.500000X-0.225000X0*%
%ADD26C,1.448000*%
%ADD27RoundRect,0.200000X-0.200000X-0.325000X0.200000X-0.325000X0.200000X0.325000X-0.200000X0.325000X0*%
%ADD28RoundRect,0.215000X0.215000X-0.597000X0.215000X0.597000X-0.215000X0.597000X-0.215000X-0.597000X0*%
G04 APERTURE END LIST*
D10*
X162623400Y-111696500D02*
X162623500Y-111696500D01*
D11*
X164465000Y-106299000D02*
X162052000Y-106299000D01*
D10*
X163893550Y-107505500D02*
X163893650Y-107505500D01*
X163258400Y-107505500D02*
X163258500Y-107505500D01*
D11*
X162052000Y-108077000D02*
X162052000Y-106299000D01*
X164465000Y-108077000D02*
X164465000Y-106299000D01*
X162052000Y-108077000D02*
X164465000Y-108077000D01*
X162052000Y-112903000D02*
X162052000Y-111125000D01*
X164465000Y-112903000D02*
X164465000Y-111125000D01*
D10*
X163258400Y-111696500D02*
X163258500Y-111696500D01*
X163893550Y-112331500D02*
X163893650Y-112331500D01*
D11*
X164465000Y-111125000D02*
X162052000Y-111125000D01*
X162052000Y-112903000D02*
X164465000Y-112903000D01*
X164465000Y-113538000D02*
X162052000Y-113538000D01*
X164465000Y-115316000D02*
X164465000Y-113538000D01*
D10*
X163258400Y-114109500D02*
X163258500Y-114109500D01*
X163893550Y-114109500D02*
X163893650Y-114109500D01*
D11*
X162052000Y-115316000D02*
X162052000Y-113538000D01*
X162052000Y-115316000D02*
X164465000Y-115316000D01*
D10*
X162623550Y-114109500D02*
X162623650Y-114109500D01*
X162623400Y-107505500D02*
X162623500Y-107505500D01*
D11*
X164465000Y-108712000D02*
X162052000Y-108712000D01*
D10*
X163893550Y-109918500D02*
X163893650Y-109918500D01*
D11*
X164465000Y-110490000D02*
X164465000Y-108712000D01*
X162052000Y-110490000D02*
X164465000Y-110490000D01*
D10*
X163258400Y-109918500D02*
X163258500Y-109918500D01*
D11*
X162052000Y-110490000D02*
X162052000Y-108712000D01*
D10*
X162623400Y-109283500D02*
X162623500Y-109283500D01*
D11*
X165320969Y-107593790D02*
X165320969Y-106693790D01*
X165749540Y-107593790D02*
X165749540Y-106693790D01*
X166135254Y-107550933D02*
X166220968Y-107593790D01*
X166220968Y-107593790D02*
X166392397Y-107593790D01*
X166392397Y-107593790D02*
X166478111Y-107550933D01*
X166478111Y-107550933D02*
X166520968Y-107465218D01*
X166520968Y-107465218D02*
X166520968Y-107422361D01*
X166520968Y-107422361D02*
X166478111Y-107336647D01*
X166478111Y-107336647D02*
X166392397Y-107293790D01*
X166392397Y-107293790D02*
X166263826Y-107293790D01*
X166263826Y-107293790D02*
X166178111Y-107250933D01*
X166178111Y-107250933D02*
X166135254Y-107165218D01*
X166135254Y-107165218D02*
X166135254Y-107122361D01*
X166135254Y-107122361D02*
X166178111Y-107036647D01*
X166178111Y-107036647D02*
X166263826Y-106993790D01*
X166263826Y-106993790D02*
X166392397Y-106993790D01*
X166392397Y-106993790D02*
X166478111Y-107036647D01*
X166906682Y-107593790D02*
X166906682Y-106993790D01*
X166906682Y-106693790D02*
X166863825Y-106736647D01*
X166863825Y-106736647D02*
X166906682Y-106779504D01*
X166906682Y-106779504D02*
X166949539Y-106736647D01*
X166949539Y-106736647D02*
X166906682Y-106693790D01*
X166906682Y-106693790D02*
X166906682Y-106779504D01*
X164519857Y-105434790D02*
X164219857Y-105006218D01*
X164005571Y-105434790D02*
X164005571Y-104534790D01*
X164005571Y-104534790D02*
X164348428Y-104534790D01*
X164348428Y-104534790D02*
X164434143Y-104577647D01*
X164434143Y-104577647D02*
X164477000Y-104620504D01*
X164477000Y-104620504D02*
X164519857Y-104706218D01*
X164519857Y-104706218D02*
X164519857Y-104834790D01*
X164519857Y-104834790D02*
X164477000Y-104920504D01*
X164477000Y-104920504D02*
X164434143Y-104963361D01*
X164434143Y-104963361D02*
X164348428Y-105006218D01*
X164348428Y-105006218D02*
X164005571Y-105006218D01*
X165077000Y-104534790D02*
X165248428Y-104534790D01*
X165248428Y-104534790D02*
X165334143Y-104577647D01*
X165334143Y-104577647D02*
X165419857Y-104663361D01*
X165419857Y-104663361D02*
X165462714Y-104834790D01*
X165462714Y-104834790D02*
X165462714Y-105134790D01*
X165462714Y-105134790D02*
X165419857Y-105306218D01*
X165419857Y-105306218D02*
X165334143Y-105391933D01*
X165334143Y-105391933D02*
X165248428Y-105434790D01*
X165248428Y-105434790D02*
X165077000Y-105434790D01*
X165077000Y-105434790D02*
X164991286Y-105391933D01*
X164991286Y-105391933D02*
X164905571Y-105306218D01*
X164905571Y-105306218D02*
X164862714Y-105134790D01*
X164862714Y-105134790D02*
X164862714Y-104834790D01*
X164862714Y-104834790D02*
X164905571Y-104663361D01*
X164905571Y-104663361D02*
X164991286Y-104577647D01*
X164991286Y-104577647D02*
X165077000Y-104534790D01*
X165848428Y-105434790D02*
X165848428Y-104534790D01*
X165848428Y-104534790D02*
X166148428Y-105177647D01*
X166148428Y-105177647D02*
X166448428Y-104534790D01*
X166448428Y-104534790D02*
X166448428Y-105434790D01*
X165278112Y-112376933D02*
X165406684Y-112419790D01*
X165406684Y-112419790D02*
X165620969Y-112419790D01*
X165620969Y-112419790D02*
X165706684Y-112376933D01*
X165706684Y-112376933D02*
X165749541Y-112334075D01*
X165749541Y-112334075D02*
X165792398Y-112248361D01*
X165792398Y-112248361D02*
X165792398Y-112162647D01*
X165792398Y-112162647D02*
X165749541Y-112076933D01*
X165749541Y-112076933D02*
X165706684Y-112034075D01*
X165706684Y-112034075D02*
X165620969Y-111991218D01*
X165620969Y-111991218D02*
X165449541Y-111948361D01*
X165449541Y-111948361D02*
X165363826Y-111905504D01*
X165363826Y-111905504D02*
X165320969Y-111862647D01*
X165320969Y-111862647D02*
X165278112Y-111776933D01*
X165278112Y-111776933D02*
X165278112Y-111691218D01*
X165278112Y-111691218D02*
X165320969Y-111605504D01*
X165320969Y-111605504D02*
X165363826Y-111562647D01*
X165363826Y-111562647D02*
X165449541Y-111519790D01*
X165449541Y-111519790D02*
X165663826Y-111519790D01*
X165663826Y-111519790D02*
X165792398Y-111562647D01*
X166092398Y-111819790D02*
X166306684Y-112419790D01*
X166520969Y-111819790D02*
X166306684Y-112419790D01*
X166306684Y-112419790D02*
X166220969Y-112634075D01*
X166220969Y-112634075D02*
X166178112Y-112676933D01*
X166178112Y-112676933D02*
X166092398Y-112719790D01*
X166820969Y-112376933D02*
X166906683Y-112419790D01*
X166906683Y-112419790D02*
X167078112Y-112419790D01*
X167078112Y-112419790D02*
X167163826Y-112376933D01*
X167163826Y-112376933D02*
X167206683Y-112291218D01*
X167206683Y-112291218D02*
X167206683Y-112248361D01*
X167206683Y-112248361D02*
X167163826Y-112162647D01*
X167163826Y-112162647D02*
X167078112Y-112119790D01*
X167078112Y-112119790D02*
X166949541Y-112119790D01*
X166949541Y-112119790D02*
X166863826Y-112076933D01*
X166863826Y-112076933D02*
X166820969Y-111991218D01*
X166820969Y-111991218D02*
X166820969Y-111948361D01*
X166820969Y-111948361D02*
X166863826Y-111862647D01*
X166863826Y-111862647D02*
X166949541Y-111819790D01*
X166949541Y-111819790D02*
X167078112Y-111819790D01*
X167078112Y-111819790D02*
X167163826Y-111862647D01*
X167978112Y-111519790D02*
X167806683Y-111519790D01*
X167806683Y-111519790D02*
X167720969Y-111562647D01*
X167720969Y-111562647D02*
X167678112Y-111605504D01*
X167678112Y-111605504D02*
X167592397Y-111734075D01*
X167592397Y-111734075D02*
X167549540Y-111905504D01*
X167549540Y-111905504D02*
X167549540Y-112248361D01*
X167549540Y-112248361D02*
X167592397Y-112334075D01*
X167592397Y-112334075D02*
X167635254Y-112376933D01*
X167635254Y-112376933D02*
X167720969Y-112419790D01*
X167720969Y-112419790D02*
X167892397Y-112419790D01*
X167892397Y-112419790D02*
X167978112Y-112376933D01*
X167978112Y-112376933D02*
X168020969Y-112334075D01*
X168020969Y-112334075D02*
X168063826Y-112248361D01*
X168063826Y-112248361D02*
X168063826Y-112034075D01*
X168063826Y-112034075D02*
X168020969Y-111948361D01*
X168020969Y-111948361D02*
X167978112Y-111905504D01*
X167978112Y-111905504D02*
X167892397Y-111862647D01*
X167892397Y-111862647D02*
X167720969Y-111862647D01*
X167720969Y-111862647D02*
X167635254Y-111905504D01*
X167635254Y-111905504D02*
X167592397Y-111948361D01*
X167592397Y-111948361D02*
X167549540Y-112034075D01*
X165278112Y-114789933D02*
X165406684Y-114832790D01*
X165406684Y-114832790D02*
X165620969Y-114832790D01*
X165620969Y-114832790D02*
X165706684Y-114789933D01*
X165706684Y-114789933D02*
X165749541Y-114747075D01*
X165749541Y-114747075D02*
X165792398Y-114661361D01*
X165792398Y-114661361D02*
X165792398Y-114575647D01*
X165792398Y-114575647D02*
X165749541Y-114489933D01*
X165749541Y-114489933D02*
X165706684Y-114447075D01*
X165706684Y-114447075D02*
X165620969Y-114404218D01*
X165620969Y-114404218D02*
X165449541Y-114361361D01*
X165449541Y-114361361D02*
X165363826Y-114318504D01*
X165363826Y-114318504D02*
X165320969Y-114275647D01*
X165320969Y-114275647D02*
X165278112Y-114189933D01*
X165278112Y-114189933D02*
X165278112Y-114104218D01*
X165278112Y-114104218D02*
X165320969Y-114018504D01*
X165320969Y-114018504D02*
X165363826Y-113975647D01*
X165363826Y-113975647D02*
X165449541Y-113932790D01*
X165449541Y-113932790D02*
X165663826Y-113932790D01*
X165663826Y-113932790D02*
X165792398Y-113975647D01*
X166092398Y-114232790D02*
X166306684Y-114832790D01*
X166520969Y-114232790D02*
X166306684Y-114832790D01*
X166306684Y-114832790D02*
X166220969Y-115047075D01*
X166220969Y-115047075D02*
X166178112Y-115089933D01*
X166178112Y-115089933D02*
X166092398Y-115132790D01*
X166820969Y-114789933D02*
X166906683Y-114832790D01*
X166906683Y-114832790D02*
X167078112Y-114832790D01*
X167078112Y-114832790D02*
X167163826Y-114789933D01*
X167163826Y-114789933D02*
X167206683Y-114704218D01*
X167206683Y-114704218D02*
X167206683Y-114661361D01*
X167206683Y-114661361D02*
X167163826Y-114575647D01*
X167163826Y-114575647D02*
X167078112Y-114532790D01*
X167078112Y-114532790D02*
X166949541Y-114532790D01*
X166949541Y-114532790D02*
X166863826Y-114489933D01*
X166863826Y-114489933D02*
X166820969Y-114404218D01*
X166820969Y-114404218D02*
X166820969Y-114361361D01*
X166820969Y-114361361D02*
X166863826Y-114275647D01*
X166863826Y-114275647D02*
X166949541Y-114232790D01*
X166949541Y-114232790D02*
X167078112Y-114232790D01*
X167078112Y-114232790D02*
X167163826Y-114275647D01*
X167506683Y-113932790D02*
X168106683Y-113932790D01*
X168106683Y-113932790D02*
X167720969Y-114832790D01*
X165320969Y-110006790D02*
X165320969Y-109106790D01*
X165749540Y-110006790D02*
X165749540Y-109106790D01*
X166092397Y-110006790D02*
X166563826Y-109406790D01*
X166092397Y-109406790D02*
X166563826Y-110006790D01*
X111755723Y-119702649D02*
X111755723Y-120360630D01*
X111755723Y-120360630D02*
X111794428Y-120438040D01*
X111794428Y-120438040D02*
X111833133Y-120476745D01*
X111833133Y-120476745D02*
X111910542Y-120515449D01*
X111910542Y-120515449D02*
X112065361Y-120515449D01*
X112065361Y-120515449D02*
X112142771Y-120476745D01*
X112142771Y-120476745D02*
X112181476Y-120438040D01*
X112181476Y-120438040D02*
X112220180Y-120360630D01*
X112220180Y-120360630D02*
X112220180Y-119702649D01*
X112955571Y-119973583D02*
X112955571Y-120515449D01*
X112762047Y-119663945D02*
X112568524Y-120244516D01*
X112568524Y-120244516D02*
X113071685Y-120244516D01*
X145955723Y-119702649D02*
X145955723Y-120360630D01*
X145955723Y-120360630D02*
X145994428Y-120438040D01*
X145994428Y-120438040D02*
X146033133Y-120476745D01*
X146033133Y-120476745D02*
X146110542Y-120515449D01*
X146110542Y-120515449D02*
X146265361Y-120515449D01*
X146265361Y-120515449D02*
X146342771Y-120476745D01*
X146342771Y-120476745D02*
X146381476Y-120438040D01*
X146381476Y-120438040D02*
X146420180Y-120360630D01*
X146420180Y-120360630D02*
X146420180Y-119702649D01*
X147194276Y-119702649D02*
X146807228Y-119702649D01*
X146807228Y-119702649D02*
X146768524Y-120089697D01*
X146768524Y-120089697D02*
X146807228Y-120050992D01*
X146807228Y-120050992D02*
X146884638Y-120012287D01*
X146884638Y-120012287D02*
X147078162Y-120012287D01*
X147078162Y-120012287D02*
X147155571Y-120050992D01*
X147155571Y-120050992D02*
X147194276Y-120089697D01*
X147194276Y-120089697D02*
X147232981Y-120167106D01*
X147232981Y-120167106D02*
X147232981Y-120360630D01*
X147232981Y-120360630D02*
X147194276Y-120438040D01*
X147194276Y-120438040D02*
X147155571Y-120476745D01*
X147155571Y-120476745D02*
X147078162Y-120515449D01*
X147078162Y-120515449D02*
X146884638Y-120515449D01*
X146884638Y-120515449D02*
X146807228Y-120476745D01*
X146807228Y-120476745D02*
X146768524Y-120438040D01*
X134218676Y-119702649D02*
X134218676Y-120360630D01*
X134218676Y-120360630D02*
X134257381Y-120438040D01*
X134257381Y-120438040D02*
X134296086Y-120476745D01*
X134296086Y-120476745D02*
X134373495Y-120515449D01*
X134373495Y-120515449D02*
X134528314Y-120515449D01*
X134528314Y-120515449D02*
X134605724Y-120476745D01*
X134605724Y-120476745D02*
X134644429Y-120438040D01*
X134644429Y-120438040D02*
X134683133Y-120360630D01*
X134683133Y-120360630D02*
X134683133Y-119702649D01*
X135495934Y-120515449D02*
X135031477Y-120515449D01*
X135263705Y-120515449D02*
X135263705Y-119702649D01*
X135263705Y-119702649D02*
X135186296Y-119818764D01*
X135186296Y-119818764D02*
X135108886Y-119896173D01*
X135108886Y-119896173D02*
X135031477Y-119934878D01*
X135999095Y-119702649D02*
X136076505Y-119702649D01*
X136076505Y-119702649D02*
X136153914Y-119741354D01*
X136153914Y-119741354D02*
X136192619Y-119780059D01*
X136192619Y-119780059D02*
X136231324Y-119857468D01*
X136231324Y-119857468D02*
X136270029Y-120012287D01*
X136270029Y-120012287D02*
X136270029Y-120205811D01*
X136270029Y-120205811D02*
X136231324Y-120360630D01*
X136231324Y-120360630D02*
X136192619Y-120438040D01*
X136192619Y-120438040D02*
X136153914Y-120476745D01*
X136153914Y-120476745D02*
X136076505Y-120515449D01*
X136076505Y-120515449D02*
X135999095Y-120515449D01*
X135999095Y-120515449D02*
X135921686Y-120476745D01*
X135921686Y-120476745D02*
X135882981Y-120438040D01*
X135882981Y-120438040D02*
X135844276Y-120360630D01*
X135844276Y-120360630D02*
X135805572Y-120205811D01*
X135805572Y-120205811D02*
X135805572Y-120012287D01*
X135805572Y-120012287D02*
X135844276Y-119857468D01*
X135844276Y-119857468D02*
X135882981Y-119780059D01*
X135882981Y-119780059D02*
X135921686Y-119741354D01*
X135921686Y-119741354D02*
X135999095Y-119702649D01*
X154905723Y-119702649D02*
X154905723Y-120360630D01*
X154905723Y-120360630D02*
X154944428Y-120438040D01*
X154944428Y-120438040D02*
X154983133Y-120476745D01*
X154983133Y-120476745D02*
X155060542Y-120515449D01*
X155060542Y-120515449D02*
X155215361Y-120515449D01*
X155215361Y-120515449D02*
X155292771Y-120476745D01*
X155292771Y-120476745D02*
X155331476Y-120438040D01*
X155331476Y-120438040D02*
X155370180Y-120360630D01*
X155370180Y-120360630D02*
X155370180Y-119702649D01*
X156105571Y-119702649D02*
X155950752Y-119702649D01*
X155950752Y-119702649D02*
X155873343Y-119741354D01*
X155873343Y-119741354D02*
X155834638Y-119780059D01*
X155834638Y-119780059D02*
X155757228Y-119896173D01*
X155757228Y-119896173D02*
X155718524Y-120050992D01*
X155718524Y-120050992D02*
X155718524Y-120360630D01*
X155718524Y-120360630D02*
X155757228Y-120438040D01*
X155757228Y-120438040D02*
X155795933Y-120476745D01*
X155795933Y-120476745D02*
X155873343Y-120515449D01*
X155873343Y-120515449D02*
X156028162Y-120515449D01*
X156028162Y-120515449D02*
X156105571Y-120476745D01*
X156105571Y-120476745D02*
X156144276Y-120438040D01*
X156144276Y-120438040D02*
X156182981Y-120360630D01*
X156182981Y-120360630D02*
X156182981Y-120167106D01*
X156182981Y-120167106D02*
X156144276Y-120089697D01*
X156144276Y-120089697D02*
X156105571Y-120050992D01*
X156105571Y-120050992D02*
X156028162Y-120012287D01*
X156028162Y-120012287D02*
X155873343Y-120012287D01*
X155873343Y-120012287D02*
X155795933Y-120050992D01*
X155795933Y-120050992D02*
X155757228Y-120089697D01*
X155757228Y-120089697D02*
X155718524Y-120167106D01*
X98830723Y-109252649D02*
X98830723Y-109910630D01*
X98830723Y-109910630D02*
X98869428Y-109988040D01*
X98869428Y-109988040D02*
X98908133Y-110026745D01*
X98908133Y-110026745D02*
X98985542Y-110065449D01*
X98985542Y-110065449D02*
X99140361Y-110065449D01*
X99140361Y-110065449D02*
X99217771Y-110026745D01*
X99217771Y-110026745D02*
X99256476Y-109988040D01*
X99256476Y-109988040D02*
X99295180Y-109910630D01*
X99295180Y-109910630D02*
X99295180Y-109252649D01*
X100107981Y-110065449D02*
X99643524Y-110065449D01*
X99875752Y-110065449D02*
X99875752Y-109252649D01*
X99875752Y-109252649D02*
X99798343Y-109368764D01*
X99798343Y-109368764D02*
X99720933Y-109446173D01*
X99720933Y-109446173D02*
X99643524Y-109484878D01*
X101555723Y-119702649D02*
X101555723Y-120360630D01*
X101555723Y-120360630D02*
X101594428Y-120438040D01*
X101594428Y-120438040D02*
X101633133Y-120476745D01*
X101633133Y-120476745D02*
X101710542Y-120515449D01*
X101710542Y-120515449D02*
X101865361Y-120515449D01*
X101865361Y-120515449D02*
X101942771Y-120476745D01*
X101942771Y-120476745D02*
X101981476Y-120438040D01*
X101981476Y-120438040D02*
X102020180Y-120360630D01*
X102020180Y-120360630D02*
X102020180Y-119702649D01*
X102329819Y-119702649D02*
X102832981Y-119702649D01*
X102832981Y-119702649D02*
X102562047Y-120012287D01*
X102562047Y-120012287D02*
X102678162Y-120012287D01*
X102678162Y-120012287D02*
X102755571Y-120050992D01*
X102755571Y-120050992D02*
X102794276Y-120089697D01*
X102794276Y-120089697D02*
X102832981Y-120167106D01*
X102832981Y-120167106D02*
X102832981Y-120360630D01*
X102832981Y-120360630D02*
X102794276Y-120438040D01*
X102794276Y-120438040D02*
X102755571Y-120476745D01*
X102755571Y-120476745D02*
X102678162Y-120515449D01*
X102678162Y-120515449D02*
X102445933Y-120515449D01*
X102445933Y-120515449D02*
X102368524Y-120476745D01*
X102368524Y-120476745D02*
X102329819Y-120438040D01*
X141620723Y-109252649D02*
X141620723Y-109910630D01*
X141620723Y-109910630D02*
X141659428Y-109988040D01*
X141659428Y-109988040D02*
X141698133Y-110026745D01*
X141698133Y-110026745D02*
X141775542Y-110065449D01*
X141775542Y-110065449D02*
X141930361Y-110065449D01*
X141930361Y-110065449D02*
X142007771Y-110026745D01*
X142007771Y-110026745D02*
X142046476Y-109988040D01*
X142046476Y-109988040D02*
X142085180Y-109910630D01*
X142085180Y-109910630D02*
X142085180Y-109252649D01*
X142433524Y-109330059D02*
X142472228Y-109291354D01*
X142472228Y-109291354D02*
X142549638Y-109252649D01*
X142549638Y-109252649D02*
X142743162Y-109252649D01*
X142743162Y-109252649D02*
X142820571Y-109291354D01*
X142820571Y-109291354D02*
X142859276Y-109330059D01*
X142859276Y-109330059D02*
X142897981Y-109407468D01*
X142897981Y-109407468D02*
X142897981Y-109484878D01*
X142897981Y-109484878D02*
X142859276Y-109600992D01*
X142859276Y-109600992D02*
X142394819Y-110065449D01*
X142394819Y-110065449D02*
X142897981Y-110065449D01*
X81255723Y-119702649D02*
X81255723Y-120360630D01*
X81255723Y-120360630D02*
X81294428Y-120438040D01*
X81294428Y-120438040D02*
X81333133Y-120476745D01*
X81333133Y-120476745D02*
X81410542Y-120515449D01*
X81410542Y-120515449D02*
X81565361Y-120515449D01*
X81565361Y-120515449D02*
X81642771Y-120476745D01*
X81642771Y-120476745D02*
X81681476Y-120438040D01*
X81681476Y-120438040D02*
X81720180Y-120360630D01*
X81720180Y-120360630D02*
X81720180Y-119702649D01*
X82029819Y-119702649D02*
X82571685Y-119702649D01*
X82571685Y-119702649D02*
X82223343Y-120515449D01*
X124455723Y-119702649D02*
X124455723Y-120360630D01*
X124455723Y-120360630D02*
X124494428Y-120438040D01*
X124494428Y-120438040D02*
X124533133Y-120476745D01*
X124533133Y-120476745D02*
X124610542Y-120515449D01*
X124610542Y-120515449D02*
X124765361Y-120515449D01*
X124765361Y-120515449D02*
X124842771Y-120476745D01*
X124842771Y-120476745D02*
X124881476Y-120438040D01*
X124881476Y-120438040D02*
X124920180Y-120360630D01*
X124920180Y-120360630D02*
X124920180Y-119702649D01*
X125345933Y-120515449D02*
X125500752Y-120515449D01*
X125500752Y-120515449D02*
X125578162Y-120476745D01*
X125578162Y-120476745D02*
X125616866Y-120438040D01*
X125616866Y-120438040D02*
X125694276Y-120321925D01*
X125694276Y-120321925D02*
X125732981Y-120167106D01*
X125732981Y-120167106D02*
X125732981Y-119857468D01*
X125732981Y-119857468D02*
X125694276Y-119780059D01*
X125694276Y-119780059D02*
X125655571Y-119741354D01*
X125655571Y-119741354D02*
X125578162Y-119702649D01*
X125578162Y-119702649D02*
X125423343Y-119702649D01*
X125423343Y-119702649D02*
X125345933Y-119741354D01*
X125345933Y-119741354D02*
X125307228Y-119780059D01*
X125307228Y-119780059D02*
X125268524Y-119857468D01*
X125268524Y-119857468D02*
X125268524Y-120050992D01*
X125268524Y-120050992D02*
X125307228Y-120128402D01*
X125307228Y-120128402D02*
X125345933Y-120167106D01*
X125345933Y-120167106D02*
X125423343Y-120205811D01*
X125423343Y-120205811D02*
X125578162Y-120205811D01*
X125578162Y-120205811D02*
X125655571Y-120167106D01*
X125655571Y-120167106D02*
X125694276Y-120128402D01*
X125694276Y-120128402D02*
X125732981Y-120050992D01*
X157539267Y-111197745D02*
X157655381Y-111236449D01*
X157655381Y-111236449D02*
X157848905Y-111236449D01*
X157848905Y-111236449D02*
X157926314Y-111197745D01*
X157926314Y-111197745D02*
X157965019Y-111159040D01*
X157965019Y-111159040D02*
X158003724Y-111081630D01*
X158003724Y-111081630D02*
X158003724Y-111004221D01*
X158003724Y-111004221D02*
X157965019Y-110926811D01*
X157965019Y-110926811D02*
X157926314Y-110888106D01*
X157926314Y-110888106D02*
X157848905Y-110849402D01*
X157848905Y-110849402D02*
X157694086Y-110810697D01*
X157694086Y-110810697D02*
X157616676Y-110771992D01*
X157616676Y-110771992D02*
X157577971Y-110733287D01*
X157577971Y-110733287D02*
X157539267Y-110655878D01*
X157539267Y-110655878D02*
X157539267Y-110578468D01*
X157539267Y-110578468D02*
X157577971Y-110501059D01*
X157577971Y-110501059D02*
X157616676Y-110462354D01*
X157616676Y-110462354D02*
X157694086Y-110423649D01*
X157694086Y-110423649D02*
X157887609Y-110423649D01*
X157887609Y-110423649D02*
X158003724Y-110462354D01*
X158274657Y-110423649D02*
X158468181Y-111236449D01*
X158468181Y-111236449D02*
X158623000Y-110655878D01*
X158623000Y-110655878D02*
X158777819Y-111236449D01*
X158777819Y-111236449D02*
X158971343Y-110423649D01*
X159706733Y-111236449D02*
X159242276Y-111236449D01*
X159474504Y-111236449D02*
X159474504Y-110423649D01*
X159474504Y-110423649D02*
X159397095Y-110539764D01*
X159397095Y-110539764D02*
X159319685Y-110617173D01*
X159319685Y-110617173D02*
X159242276Y-110655878D01*
D12*
X154187221Y-108940000D02*
X154512779Y-108940000D01*
X154187221Y-109960000D02*
X154512779Y-109960000D01*
X95990000Y-122512779D02*
X95990000Y-122187221D01*
X97010000Y-122512779D02*
X97010000Y-122187221D01*
X116340000Y-122512779D02*
X116340000Y-122187221D01*
X117360000Y-122512779D02*
X117360000Y-122187221D01*
X139190000Y-122512779D02*
X139190000Y-122187221D01*
X140210000Y-122512779D02*
X140210000Y-122187221D01*
X150540000Y-122512779D02*
X150540000Y-122187221D01*
X151560000Y-122512779D02*
X151560000Y-122187221D01*
X159490000Y-122512779D02*
X159490000Y-122187221D01*
X160510000Y-122512779D02*
X160510000Y-122187221D01*
D13*
X115825000Y-116400000D02*
X115825000Y-122375000D01*
X108925000Y-117925000D02*
X108925000Y-122375000D01*
X150025000Y-116400000D02*
X150025000Y-122375000D01*
X143125000Y-117925000D02*
X143125000Y-122375000D01*
X138675000Y-116400000D02*
X138675000Y-122375000D01*
X131775000Y-117925000D02*
X131775000Y-122375000D01*
X158975000Y-116400000D02*
X158975000Y-122375000D01*
X152075000Y-117925000D02*
X152075000Y-122375000D01*
D12*
X111587221Y-108940000D02*
X111912779Y-108940000D01*
X111587221Y-109960000D02*
X111912779Y-109960000D01*
D14*
X108650000Y-103580000D02*
X89250000Y-103580000D01*
D12*
X90250000Y-115820000D02*
X108650000Y-115820000D01*
D13*
X105625000Y-116400000D02*
X105625000Y-122375000D01*
X98725000Y-117925000D02*
X98725000Y-122375000D01*
D12*
X78187221Y-113240000D02*
X78512779Y-113240000D01*
X78187221Y-114260000D02*
X78512779Y-114260000D01*
D14*
X151440000Y-103580000D02*
X132040000Y-103580000D01*
D12*
X133040000Y-115820000D02*
X151440000Y-115820000D01*
X85840000Y-122512779D02*
X85840000Y-122187221D01*
X86860000Y-122512779D02*
X86860000Y-122187221D01*
D13*
X85325000Y-116400000D02*
X85325000Y-122375000D01*
X78425000Y-117925000D02*
X78425000Y-122375000D01*
D12*
X106203500Y-122512779D02*
X106203500Y-122187221D01*
X107223500Y-122512779D02*
X107223500Y-122187221D01*
D13*
X128525000Y-116400000D02*
X128525000Y-122375000D01*
X121625000Y-117925000D02*
X121625000Y-122375000D01*
D12*
X129040000Y-122512779D02*
X129040000Y-122187221D01*
X130060000Y-122512779D02*
X130060000Y-122187221D01*
X140990000Y-122512779D02*
X140990000Y-122187221D01*
X142010000Y-122512779D02*
X142010000Y-122187221D01*
X86090000Y-108862779D02*
X86090000Y-108537221D01*
X87110000Y-108862779D02*
X87110000Y-108537221D01*
X126687221Y-108890000D02*
X127012779Y-108890000D01*
X126687221Y-109910000D02*
X127012779Y-109910000D01*
X77090000Y-121285779D02*
X77090000Y-120960221D01*
X78110000Y-121285779D02*
X78110000Y-120960221D01*
X95940000Y-118220000D02*
X95940000Y-120250000D01*
X98260000Y-119630000D02*
X98260000Y-118220000D01*
X157012779Y-104910000D02*
X156687221Y-104910000D01*
X157012779Y-103890000D02*
X156687221Y-103890000D01*
X154240000Y-105262779D02*
X154240000Y-104937221D01*
X155260000Y-105262779D02*
X155260000Y-104937221D01*
X118912779Y-120210000D02*
X118587221Y-120210000D01*
X118912779Y-119190000D02*
X118587221Y-119190000D01*
X77590000Y-109570000D02*
X77590000Y-110500000D01*
X77590000Y-109570000D02*
X79050000Y-109570000D01*
X77590000Y-112730000D02*
X77590000Y-111800000D01*
X77590000Y-112730000D02*
X79750000Y-112730000D01*
X159537221Y-103890000D02*
X159862779Y-103890000D01*
X159537221Y-104910000D02*
X159862779Y-104910000D01*
X155857000Y-108111000D02*
X157928000Y-108111000D01*
X155857000Y-113631000D02*
X155857000Y-108111000D01*
X155857000Y-113631000D02*
X156673000Y-113631000D01*
X156673000Y-115317000D02*
X156673000Y-113631000D01*
X159318000Y-108111000D02*
X161388000Y-108111000D01*
X159318000Y-113631000D02*
X161388000Y-113631000D01*
X161388000Y-113631000D02*
X161388000Y-108111000D01*
%LPC*%
D15*
X163195000Y-127635000D02*
X123825000Y-127635000D01*
X123317000Y-125031500D01*
X163703000Y-125031500D01*
X163195000Y-127635000D01*
G36*
X163195000Y-127635000D02*
G01*
X123825000Y-127635000D01*
X123317000Y-125031500D01*
X163703000Y-125031500D01*
X163195000Y-127635000D01*
G37*
X117475000Y-127635000D02*
X78105000Y-127635000D01*
X77597000Y-125031500D01*
X117983000Y-125031500D01*
X117475000Y-127635000D01*
G36*
X117475000Y-127635000D02*
G01*
X78105000Y-127635000D01*
X77597000Y-125031500D01*
X117983000Y-125031500D01*
X117475000Y-127635000D01*
G37*
D16*
X75438000Y-123444000D03*
D17*
X153600000Y-109450000D03*
X155100000Y-109450000D03*
D18*
X96500000Y-123100000D03*
X96500000Y-121600000D03*
X116850000Y-123100000D03*
X116850000Y-121600000D03*
X139700000Y-123100000D03*
X139700000Y-121600000D03*
X151050000Y-123100000D03*
X151050000Y-121600000D03*
X160000000Y-123100000D03*
X160000000Y-121600000D03*
D19*
X115300000Y-117200000D03*
X114650000Y-117200000D03*
X114000000Y-117200000D03*
X113350000Y-117200000D03*
X112700000Y-117200000D03*
X112050000Y-117200000D03*
X111400000Y-117200000D03*
X110750000Y-117200000D03*
X110100000Y-117200000D03*
X109450000Y-117200000D03*
X109450000Y-123100000D03*
X110100000Y-123100000D03*
X110750000Y-123100000D03*
X111400000Y-123100000D03*
X112050000Y-123100000D03*
X112700000Y-123100000D03*
X113350000Y-123100000D03*
X114000000Y-123100000D03*
X114650000Y-123100000D03*
X115300000Y-123100000D03*
X149500000Y-117200000D03*
X148850000Y-117200000D03*
X148200000Y-117200000D03*
X147550000Y-117200000D03*
X146900000Y-117200000D03*
X146250000Y-117200000D03*
X145600000Y-117200000D03*
X144950000Y-117200000D03*
X144300000Y-117200000D03*
X143650000Y-117200000D03*
X143650000Y-123100000D03*
X144300000Y-123100000D03*
X144950000Y-123100000D03*
X145600000Y-123100000D03*
X146250000Y-123100000D03*
X146900000Y-123100000D03*
X147550000Y-123100000D03*
X148200000Y-123100000D03*
X148850000Y-123100000D03*
X149500000Y-123100000D03*
D20*
X78105000Y-126111000D03*
X79375000Y-126111000D03*
X80645000Y-126111000D03*
X81915000Y-126111000D03*
X83185000Y-126111000D03*
X84455000Y-126111000D03*
X85725000Y-126111000D03*
X86995000Y-126111000D03*
X88265000Y-126111000D03*
X89535000Y-126111000D03*
X90805000Y-126111000D03*
X92075000Y-126111000D03*
X93345000Y-126111000D03*
X94615000Y-126111000D03*
X95885000Y-126111000D03*
X97155000Y-126111000D03*
X98425000Y-126111000D03*
X99695000Y-126111000D03*
X100965000Y-126111000D03*
X102235000Y-126111000D03*
X103505000Y-126111000D03*
X104775000Y-126111000D03*
X106045000Y-126111000D03*
X107315000Y-126111000D03*
X108585000Y-126111000D03*
X109855000Y-126111000D03*
X111125000Y-126111000D03*
X112395000Y-126111000D03*
X113665000Y-126111000D03*
X114935000Y-126111000D03*
X116205000Y-126111000D03*
X117475000Y-126111000D03*
X123825000Y-126111000D03*
X125095000Y-126111000D03*
X126365000Y-126111000D03*
X127635000Y-126111000D03*
X128905000Y-126111000D03*
X130175000Y-126111000D03*
X131445000Y-126111000D03*
X132715000Y-126111000D03*
X133985000Y-126111000D03*
X135255000Y-126111000D03*
X136525000Y-126111000D03*
X137795000Y-126111000D03*
X139065000Y-126111000D03*
X140335000Y-126111000D03*
X141605000Y-126111000D03*
X142875000Y-126111000D03*
X144145000Y-126111000D03*
X145415000Y-126111000D03*
X146685000Y-126111000D03*
X147955000Y-126111000D03*
X149225000Y-126111000D03*
X150495000Y-126111000D03*
X151765000Y-126111000D03*
X153035000Y-126111000D03*
X154305000Y-126111000D03*
X155575000Y-126111000D03*
X156845000Y-126111000D03*
X158115000Y-126111000D03*
X159385000Y-126111000D03*
X160655000Y-126111000D03*
X161925000Y-126111000D03*
X163195000Y-126111000D03*
D19*
X138150000Y-117200000D03*
X137500000Y-117200000D03*
X136850000Y-117200000D03*
X136200000Y-117200000D03*
X135550000Y-117200000D03*
X134900000Y-117200000D03*
X134250000Y-117200000D03*
X133600000Y-117200000D03*
X132950000Y-117200000D03*
X132300000Y-117200000D03*
X132300000Y-123100000D03*
X132950000Y-123100000D03*
X133600000Y-123100000D03*
X134250000Y-123100000D03*
X134900000Y-123100000D03*
X135550000Y-123100000D03*
X136200000Y-123100000D03*
X136850000Y-123100000D03*
X137500000Y-123100000D03*
X138150000Y-123100000D03*
X158450000Y-117200000D03*
X157800000Y-117200000D03*
X157150000Y-117200000D03*
X156500000Y-117200000D03*
X155850000Y-117200000D03*
X155200000Y-117200000D03*
X154550000Y-117200000D03*
X153900000Y-117200000D03*
X153250000Y-117200000D03*
X152600000Y-117200000D03*
X152600000Y-123100000D03*
X153250000Y-123100000D03*
X153900000Y-123100000D03*
X154550000Y-123100000D03*
X155200000Y-123100000D03*
X155850000Y-123100000D03*
X156500000Y-123100000D03*
X157150000Y-123100000D03*
X157800000Y-123100000D03*
X158450000Y-123100000D03*
D17*
X111000000Y-109450000D03*
X112500000Y-109450000D03*
D21*
X89700000Y-103950000D03*
X89700000Y-104450000D03*
X89700000Y-104950000D03*
X89700000Y-105450000D03*
X89700000Y-105950000D03*
X89700000Y-106450000D03*
X89700000Y-106950000D03*
X89700000Y-107450000D03*
X89700000Y-107950000D03*
X89700000Y-108450000D03*
X89700000Y-108950000D03*
X89700000Y-109450000D03*
X89700000Y-109950000D03*
X89700000Y-110450000D03*
X89700000Y-110950000D03*
X89700000Y-111450000D03*
X89700000Y-111950000D03*
X89700000Y-112450000D03*
X89700000Y-112950000D03*
X89700000Y-113450000D03*
X89700000Y-113950000D03*
X89700000Y-114450000D03*
X89700000Y-114950000D03*
X89700000Y-115450000D03*
X109200000Y-115450000D03*
X109200000Y-114950000D03*
X109200000Y-114450000D03*
X109200000Y-113950000D03*
X109200000Y-113450000D03*
X109200000Y-112950000D03*
X109200000Y-112450000D03*
X109200000Y-111950000D03*
X109200000Y-111450000D03*
X109200000Y-110950000D03*
X109200000Y-110450000D03*
X109200000Y-109950000D03*
X109200000Y-109450000D03*
X109200000Y-108950000D03*
X109200000Y-108450000D03*
X109200000Y-107950000D03*
X109200000Y-107450000D03*
X109200000Y-106950000D03*
X109200000Y-106450000D03*
X109200000Y-105950000D03*
X109200000Y-105450000D03*
X109200000Y-104950000D03*
X109200000Y-104450000D03*
X109200000Y-103950000D03*
D19*
X105100000Y-117200000D03*
X104450000Y-117200000D03*
X103800000Y-117200000D03*
X103150000Y-117200000D03*
X102500000Y-117200000D03*
X101850000Y-117200000D03*
X101200000Y-117200000D03*
X100550000Y-117200000D03*
X99900000Y-117200000D03*
X99250000Y-117200000D03*
X99250000Y-123100000D03*
X99900000Y-123100000D03*
X100550000Y-123100000D03*
X101200000Y-123100000D03*
X101850000Y-123100000D03*
X102500000Y-123100000D03*
X103150000Y-123100000D03*
X103800000Y-123100000D03*
X104450000Y-123100000D03*
X105100000Y-123100000D03*
D17*
X77600000Y-113750000D03*
X79100000Y-113750000D03*
D21*
X132490000Y-103950000D03*
X132490000Y-104450000D03*
X132490000Y-104950000D03*
X132490000Y-105450000D03*
X132490000Y-105950000D03*
X132490000Y-106450000D03*
X132490000Y-106950000D03*
X132490000Y-107450000D03*
X132490000Y-107950000D03*
X132490000Y-108450000D03*
X132490000Y-108950000D03*
X132490000Y-109450000D03*
X132490000Y-109950000D03*
X132490000Y-110450000D03*
X132490000Y-110950000D03*
X132490000Y-111450000D03*
X132490000Y-111950000D03*
X132490000Y-112450000D03*
X132490000Y-112950000D03*
X132490000Y-113450000D03*
X132490000Y-113950000D03*
X132490000Y-114450000D03*
X132490000Y-114950000D03*
X132490000Y-115450000D03*
X151990000Y-115450000D03*
X151990000Y-114950000D03*
X151990000Y-114450000D03*
X151990000Y-113950000D03*
X151990000Y-113450000D03*
X151990000Y-112950000D03*
X151990000Y-112450000D03*
X151990000Y-111950000D03*
X151990000Y-111450000D03*
X151990000Y-110950000D03*
X151990000Y-110450000D03*
X151990000Y-109950000D03*
X151990000Y-109450000D03*
X151990000Y-108950000D03*
X151990000Y-108450000D03*
X151990000Y-107950000D03*
X151990000Y-107450000D03*
X151990000Y-106950000D03*
X151990000Y-106450000D03*
X151990000Y-105950000D03*
X151990000Y-105450000D03*
X151990000Y-104950000D03*
X151990000Y-104450000D03*
X151990000Y-103950000D03*
D18*
X86350000Y-123100000D03*
X86350000Y-121600000D03*
D19*
X84800000Y-117200000D03*
X84150000Y-117200000D03*
X83500000Y-117200000D03*
X82850000Y-117200000D03*
X82200000Y-117200000D03*
X81550000Y-117200000D03*
X80900000Y-117200000D03*
X80250000Y-117200000D03*
X79600000Y-117200000D03*
X78950000Y-117200000D03*
X78950000Y-123100000D03*
X79600000Y-123100000D03*
X80250000Y-123100000D03*
X80900000Y-123100000D03*
X81550000Y-123100000D03*
X82200000Y-123100000D03*
X82850000Y-123100000D03*
X83500000Y-123100000D03*
X84150000Y-123100000D03*
X84800000Y-123100000D03*
D18*
X106713500Y-123100000D03*
X106713500Y-121600000D03*
D19*
X128000000Y-117200000D03*
X127350000Y-117200000D03*
X126700000Y-117200000D03*
X126050000Y-117200000D03*
X125400000Y-117200000D03*
X124750000Y-117200000D03*
X124100000Y-117200000D03*
X123450000Y-117200000D03*
X122800000Y-117200000D03*
X122150000Y-117200000D03*
X122150000Y-123100000D03*
X122800000Y-123100000D03*
X123450000Y-123100000D03*
X124100000Y-123100000D03*
X124750000Y-123100000D03*
X125400000Y-123100000D03*
X126050000Y-123100000D03*
X126700000Y-123100000D03*
X127350000Y-123100000D03*
X128000000Y-123100000D03*
D18*
X129550000Y-123100000D03*
X129550000Y-121600000D03*
X141500000Y-123100000D03*
X141500000Y-121600000D03*
X86600000Y-109450000D03*
X86600000Y-107950000D03*
D16*
X167894000Y-123444000D03*
X162433000Y-104267000D03*
X75946000Y-104267000D03*
D17*
X126100000Y-109400000D03*
X127600000Y-109400000D03*
D18*
X77600000Y-121873000D03*
X77600000Y-120373000D03*
D22*
X96450000Y-119800000D03*
X97100000Y-119800000D03*
X97750000Y-119800000D03*
X97750000Y-118100000D03*
X96450000Y-118100000D03*
D23*
X157650000Y-104400000D03*
X156050000Y-104400000D03*
D24*
X154750000Y-105900000D03*
X154750000Y-104300000D03*
D23*
X119550000Y-119700000D03*
X117950000Y-119700000D03*
D25*
X79400000Y-112100000D03*
X79400000Y-110200000D03*
X77300000Y-111150000D03*
D26*
X73406000Y-104267000D03*
X75438000Y-125984000D03*
X167894000Y-125984000D03*
X167894000Y-104267000D03*
D27*
X158900000Y-104400000D03*
X160500000Y-104400000D03*
D28*
X157353000Y-114681000D03*
X158623000Y-114681000D03*
X159893000Y-114681000D03*
X159893000Y-107061000D03*
X158623000Y-107061000D03*
X157353000Y-107061000D03*
%LPD*%
M02*
