G04 #@! TF.GenerationSoftware,KiCad,Pcbnew,7.0.10*
G04 #@! TF.CreationDate,2024-05-18T05:47:17-04:00*
G04 #@! TF.ProjectId,MacIIROMSIMM,4d616349-4952-44f4-9d53-494d4d2e6b69,1.0*
G04 #@! TF.SameCoordinates,Original*
G04 #@! TF.FileFunction,Soldermask,Bot*
G04 #@! TF.FilePolarity,Negative*
%FSLAX46Y46*%
G04 Gerber Fmt 4.6, Leading zero omitted, Abs format (unit mm)*
G04 Created by KiCad (PCBNEW 7.0.10) date 2024-05-18 05:47:17*
%MOMM*%
%LPD*%
G01*
G04 APERTURE LIST*
G04 APERTURE END LIST*
G36*
X78313629Y-124523234D02*
G01*
X78320243Y-124525700D01*
X78325007Y-124526273D01*
X78381387Y-124548506D01*
X78444720Y-124572128D01*
X78448540Y-124574987D01*
X78449829Y-124575496D01*
X78496789Y-124611107D01*
X78556725Y-124655975D01*
X78601611Y-124715935D01*
X78637203Y-124762870D01*
X78637711Y-124764158D01*
X78640572Y-124767980D01*
X78664200Y-124831330D01*
X78686426Y-124887691D01*
X78686998Y-124892454D01*
X78689466Y-124899071D01*
X78691738Y-124920205D01*
X78718561Y-124944000D01*
X78761439Y-124944000D01*
X78788261Y-124920205D01*
X78790534Y-124899071D01*
X78793000Y-124892457D01*
X78793573Y-124887691D01*
X78815817Y-124831283D01*
X78839428Y-124767980D01*
X78842286Y-124764161D01*
X78842796Y-124762870D01*
X78878465Y-124715832D01*
X78923275Y-124655975D01*
X78983132Y-124611165D01*
X79030170Y-124575496D01*
X79031461Y-124574986D01*
X79035280Y-124572128D01*
X79098594Y-124548513D01*
X79154992Y-124526273D01*
X79159757Y-124525700D01*
X79166371Y-124523234D01*
X79270860Y-124512000D01*
X79479140Y-124512000D01*
X79583629Y-124523234D01*
X79590243Y-124525700D01*
X79595007Y-124526273D01*
X79651387Y-124548506D01*
X79714720Y-124572128D01*
X79718540Y-124574987D01*
X79719829Y-124575496D01*
X79766789Y-124611107D01*
X79826725Y-124655975D01*
X79871611Y-124715935D01*
X79907203Y-124762870D01*
X79907711Y-124764158D01*
X79910572Y-124767980D01*
X79934200Y-124831330D01*
X79956426Y-124887691D01*
X79956998Y-124892454D01*
X79959466Y-124899071D01*
X79961738Y-124920205D01*
X79988561Y-124944000D01*
X80031439Y-124944000D01*
X80058261Y-124920205D01*
X80060534Y-124899071D01*
X80063000Y-124892457D01*
X80063573Y-124887691D01*
X80085817Y-124831283D01*
X80109428Y-124767980D01*
X80112286Y-124764161D01*
X80112796Y-124762870D01*
X80148465Y-124715832D01*
X80193275Y-124655975D01*
X80253132Y-124611165D01*
X80300170Y-124575496D01*
X80301461Y-124574986D01*
X80305280Y-124572128D01*
X80368594Y-124548513D01*
X80424992Y-124526273D01*
X80429757Y-124525700D01*
X80436371Y-124523234D01*
X80540860Y-124512000D01*
X80749140Y-124512000D01*
X80853629Y-124523234D01*
X80860243Y-124525700D01*
X80865007Y-124526273D01*
X80921387Y-124548506D01*
X80984720Y-124572128D01*
X80988540Y-124574987D01*
X80989829Y-124575496D01*
X81036789Y-124611107D01*
X81096725Y-124655975D01*
X81141611Y-124715935D01*
X81177203Y-124762870D01*
X81177711Y-124764158D01*
X81180572Y-124767980D01*
X81204200Y-124831330D01*
X81226426Y-124887691D01*
X81226998Y-124892454D01*
X81229466Y-124899071D01*
X81231738Y-124920205D01*
X81258561Y-124944000D01*
X81301439Y-124944000D01*
X81328261Y-124920205D01*
X81330534Y-124899071D01*
X81333000Y-124892457D01*
X81333573Y-124887691D01*
X81355817Y-124831283D01*
X81379428Y-124767980D01*
X81382286Y-124764161D01*
X81382796Y-124762870D01*
X81418465Y-124715832D01*
X81463275Y-124655975D01*
X81523132Y-124611165D01*
X81570170Y-124575496D01*
X81571461Y-124574986D01*
X81575280Y-124572128D01*
X81638594Y-124548513D01*
X81694992Y-124526273D01*
X81699757Y-124525700D01*
X81706371Y-124523234D01*
X81810860Y-124512000D01*
X82019140Y-124512000D01*
X82123629Y-124523234D01*
X82130243Y-124525700D01*
X82135007Y-124526273D01*
X82191387Y-124548506D01*
X82254720Y-124572128D01*
X82258540Y-124574987D01*
X82259829Y-124575496D01*
X82306789Y-124611107D01*
X82366725Y-124655975D01*
X82411611Y-124715935D01*
X82447203Y-124762870D01*
X82447711Y-124764158D01*
X82450572Y-124767980D01*
X82474200Y-124831330D01*
X82496426Y-124887691D01*
X82496998Y-124892454D01*
X82499466Y-124899071D01*
X82501738Y-124920205D01*
X82528561Y-124944000D01*
X82571439Y-124944000D01*
X82598261Y-124920205D01*
X82600534Y-124899071D01*
X82603000Y-124892457D01*
X82603573Y-124887691D01*
X82625817Y-124831283D01*
X82649428Y-124767980D01*
X82652286Y-124764161D01*
X82652796Y-124762870D01*
X82688465Y-124715832D01*
X82733275Y-124655975D01*
X82793132Y-124611165D01*
X82840170Y-124575496D01*
X82841461Y-124574986D01*
X82845280Y-124572128D01*
X82908594Y-124548513D01*
X82964992Y-124526273D01*
X82969757Y-124525700D01*
X82976371Y-124523234D01*
X83080860Y-124512000D01*
X83289140Y-124512000D01*
X83393629Y-124523234D01*
X83400243Y-124525700D01*
X83405007Y-124526273D01*
X83461387Y-124548506D01*
X83524720Y-124572128D01*
X83528540Y-124574987D01*
X83529829Y-124575496D01*
X83576789Y-124611107D01*
X83636725Y-124655975D01*
X83681611Y-124715935D01*
X83717203Y-124762870D01*
X83717711Y-124764158D01*
X83720572Y-124767980D01*
X83744200Y-124831330D01*
X83766426Y-124887691D01*
X83766998Y-124892454D01*
X83769466Y-124899071D01*
X83771738Y-124920205D01*
X83798561Y-124944000D01*
X83841439Y-124944000D01*
X83868261Y-124920205D01*
X83870534Y-124899071D01*
X83873000Y-124892457D01*
X83873573Y-124887691D01*
X83895817Y-124831283D01*
X83919428Y-124767980D01*
X83922286Y-124764161D01*
X83922796Y-124762870D01*
X83958465Y-124715832D01*
X84003275Y-124655975D01*
X84063132Y-124611165D01*
X84110170Y-124575496D01*
X84111461Y-124574986D01*
X84115280Y-124572128D01*
X84178594Y-124548513D01*
X84234992Y-124526273D01*
X84239757Y-124525700D01*
X84246371Y-124523234D01*
X84350860Y-124512000D01*
X84559140Y-124512000D01*
X84663629Y-124523234D01*
X84670243Y-124525700D01*
X84675007Y-124526273D01*
X84731387Y-124548506D01*
X84794720Y-124572128D01*
X84798540Y-124574987D01*
X84799829Y-124575496D01*
X84846789Y-124611107D01*
X84906725Y-124655975D01*
X84951611Y-124715935D01*
X84987203Y-124762870D01*
X84987711Y-124764158D01*
X84990572Y-124767980D01*
X85014200Y-124831330D01*
X85036426Y-124887691D01*
X85036998Y-124892454D01*
X85039466Y-124899071D01*
X85041738Y-124920205D01*
X85068561Y-124944000D01*
X85111439Y-124944000D01*
X85138261Y-124920205D01*
X85140534Y-124899071D01*
X85143000Y-124892457D01*
X85143573Y-124887691D01*
X85165817Y-124831283D01*
X85189428Y-124767980D01*
X85192286Y-124764161D01*
X85192796Y-124762870D01*
X85228465Y-124715832D01*
X85273275Y-124655975D01*
X85333132Y-124611165D01*
X85380170Y-124575496D01*
X85381461Y-124574986D01*
X85385280Y-124572128D01*
X85448594Y-124548513D01*
X85504992Y-124526273D01*
X85509757Y-124525700D01*
X85516371Y-124523234D01*
X85620860Y-124512000D01*
X85829140Y-124512000D01*
X85933629Y-124523234D01*
X85940243Y-124525700D01*
X85945007Y-124526273D01*
X86001387Y-124548506D01*
X86064720Y-124572128D01*
X86068540Y-124574987D01*
X86069829Y-124575496D01*
X86116789Y-124611107D01*
X86176725Y-124655975D01*
X86221611Y-124715935D01*
X86257203Y-124762870D01*
X86257711Y-124764158D01*
X86260572Y-124767980D01*
X86284200Y-124831330D01*
X86306426Y-124887691D01*
X86306998Y-124892454D01*
X86309466Y-124899071D01*
X86311738Y-124920205D01*
X86338561Y-124944000D01*
X86381439Y-124944000D01*
X86408261Y-124920205D01*
X86410534Y-124899071D01*
X86413000Y-124892457D01*
X86413573Y-124887691D01*
X86435817Y-124831283D01*
X86459428Y-124767980D01*
X86462286Y-124764161D01*
X86462796Y-124762870D01*
X86498465Y-124715832D01*
X86543275Y-124655975D01*
X86603132Y-124611165D01*
X86650170Y-124575496D01*
X86651461Y-124574986D01*
X86655280Y-124572128D01*
X86718594Y-124548513D01*
X86774992Y-124526273D01*
X86779757Y-124525700D01*
X86786371Y-124523234D01*
X86890860Y-124512000D01*
X87099140Y-124512000D01*
X87203629Y-124523234D01*
X87210243Y-124525700D01*
X87215007Y-124526273D01*
X87271387Y-124548506D01*
X87334720Y-124572128D01*
X87338540Y-124574987D01*
X87339829Y-124575496D01*
X87386789Y-124611107D01*
X87446725Y-124655975D01*
X87491611Y-124715935D01*
X87527203Y-124762870D01*
X87527711Y-124764158D01*
X87530572Y-124767980D01*
X87554200Y-124831330D01*
X87576426Y-124887691D01*
X87576998Y-124892454D01*
X87579466Y-124899071D01*
X87581738Y-124920205D01*
X87608561Y-124944000D01*
X87651439Y-124944000D01*
X87678261Y-124920205D01*
X87680534Y-124899071D01*
X87683000Y-124892457D01*
X87683573Y-124887691D01*
X87705817Y-124831283D01*
X87729428Y-124767980D01*
X87732286Y-124764161D01*
X87732796Y-124762870D01*
X87768465Y-124715832D01*
X87813275Y-124655975D01*
X87873132Y-124611165D01*
X87920170Y-124575496D01*
X87921461Y-124574986D01*
X87925280Y-124572128D01*
X87988594Y-124548513D01*
X88044992Y-124526273D01*
X88049757Y-124525700D01*
X88056371Y-124523234D01*
X88160860Y-124512000D01*
X88369140Y-124512000D01*
X88473629Y-124523234D01*
X88480243Y-124525700D01*
X88485007Y-124526273D01*
X88541387Y-124548506D01*
X88604720Y-124572128D01*
X88608540Y-124574987D01*
X88609829Y-124575496D01*
X88656789Y-124611107D01*
X88716725Y-124655975D01*
X88761611Y-124715935D01*
X88797203Y-124762870D01*
X88797711Y-124764158D01*
X88800572Y-124767980D01*
X88824200Y-124831330D01*
X88846426Y-124887691D01*
X88846998Y-124892454D01*
X88849466Y-124899071D01*
X88851738Y-124920205D01*
X88878561Y-124944000D01*
X88921439Y-124944000D01*
X88948261Y-124920205D01*
X88950534Y-124899071D01*
X88953000Y-124892457D01*
X88953573Y-124887691D01*
X88975817Y-124831283D01*
X88999428Y-124767980D01*
X89002286Y-124764161D01*
X89002796Y-124762870D01*
X89038465Y-124715832D01*
X89083275Y-124655975D01*
X89143132Y-124611165D01*
X89190170Y-124575496D01*
X89191461Y-124574986D01*
X89195280Y-124572128D01*
X89258594Y-124548513D01*
X89314992Y-124526273D01*
X89319757Y-124525700D01*
X89326371Y-124523234D01*
X89430860Y-124512000D01*
X89639140Y-124512000D01*
X89743629Y-124523234D01*
X89750243Y-124525700D01*
X89755007Y-124526273D01*
X89811387Y-124548506D01*
X89874720Y-124572128D01*
X89878540Y-124574987D01*
X89879829Y-124575496D01*
X89926789Y-124611107D01*
X89986725Y-124655975D01*
X90031611Y-124715935D01*
X90067203Y-124762870D01*
X90067711Y-124764158D01*
X90070572Y-124767980D01*
X90094200Y-124831330D01*
X90116426Y-124887691D01*
X90116998Y-124892454D01*
X90119466Y-124899071D01*
X90121738Y-124920205D01*
X90148561Y-124944000D01*
X90191439Y-124944000D01*
X90218261Y-124920205D01*
X90220534Y-124899071D01*
X90223000Y-124892457D01*
X90223573Y-124887691D01*
X90245817Y-124831283D01*
X90269428Y-124767980D01*
X90272286Y-124764161D01*
X90272796Y-124762870D01*
X90308465Y-124715832D01*
X90353275Y-124655975D01*
X90413132Y-124611165D01*
X90460170Y-124575496D01*
X90461461Y-124574986D01*
X90465280Y-124572128D01*
X90528594Y-124548513D01*
X90584992Y-124526273D01*
X90589757Y-124525700D01*
X90596371Y-124523234D01*
X90700860Y-124512000D01*
X90909140Y-124512000D01*
X91013629Y-124523234D01*
X91020243Y-124525700D01*
X91025007Y-124526273D01*
X91081387Y-124548506D01*
X91144720Y-124572128D01*
X91148540Y-124574987D01*
X91149829Y-124575496D01*
X91196789Y-124611107D01*
X91256725Y-124655975D01*
X91301611Y-124715935D01*
X91337203Y-124762870D01*
X91337711Y-124764158D01*
X91340572Y-124767980D01*
X91364200Y-124831330D01*
X91386426Y-124887691D01*
X91386998Y-124892454D01*
X91389466Y-124899071D01*
X91391738Y-124920205D01*
X91418561Y-124944000D01*
X91461439Y-124944000D01*
X91488261Y-124920205D01*
X91490534Y-124899071D01*
X91493000Y-124892457D01*
X91493573Y-124887691D01*
X91515817Y-124831283D01*
X91539428Y-124767980D01*
X91542286Y-124764161D01*
X91542796Y-124762870D01*
X91578465Y-124715832D01*
X91623275Y-124655975D01*
X91683132Y-124611165D01*
X91730170Y-124575496D01*
X91731461Y-124574986D01*
X91735280Y-124572128D01*
X91798594Y-124548513D01*
X91854992Y-124526273D01*
X91859757Y-124525700D01*
X91866371Y-124523234D01*
X91970860Y-124512000D01*
X92179140Y-124512000D01*
X92283629Y-124523234D01*
X92290243Y-124525700D01*
X92295007Y-124526273D01*
X92351387Y-124548506D01*
X92414720Y-124572128D01*
X92418540Y-124574987D01*
X92419829Y-124575496D01*
X92466789Y-124611107D01*
X92526725Y-124655975D01*
X92571611Y-124715935D01*
X92607203Y-124762870D01*
X92607711Y-124764158D01*
X92610572Y-124767980D01*
X92634200Y-124831330D01*
X92656426Y-124887691D01*
X92656998Y-124892454D01*
X92659466Y-124899071D01*
X92661738Y-124920205D01*
X92688561Y-124944000D01*
X92731439Y-124944000D01*
X92758261Y-124920205D01*
X92760534Y-124899071D01*
X92763000Y-124892457D01*
X92763573Y-124887691D01*
X92785817Y-124831283D01*
X92809428Y-124767980D01*
X92812286Y-124764161D01*
X92812796Y-124762870D01*
X92848465Y-124715832D01*
X92893275Y-124655975D01*
X92953132Y-124611165D01*
X93000170Y-124575496D01*
X93001461Y-124574986D01*
X93005280Y-124572128D01*
X93068594Y-124548513D01*
X93124992Y-124526273D01*
X93129757Y-124525700D01*
X93136371Y-124523234D01*
X93240860Y-124512000D01*
X93449140Y-124512000D01*
X93553629Y-124523234D01*
X93560243Y-124525700D01*
X93565007Y-124526273D01*
X93621387Y-124548506D01*
X93684720Y-124572128D01*
X93688540Y-124574987D01*
X93689829Y-124575496D01*
X93736789Y-124611107D01*
X93796725Y-124655975D01*
X93841611Y-124715935D01*
X93877203Y-124762870D01*
X93877711Y-124764158D01*
X93880572Y-124767980D01*
X93904200Y-124831330D01*
X93926426Y-124887691D01*
X93926998Y-124892454D01*
X93929466Y-124899071D01*
X93931738Y-124920205D01*
X93958561Y-124944000D01*
X94001439Y-124944000D01*
X94028261Y-124920205D01*
X94030534Y-124899071D01*
X94033000Y-124892457D01*
X94033573Y-124887691D01*
X94055817Y-124831283D01*
X94079428Y-124767980D01*
X94082286Y-124764161D01*
X94082796Y-124762870D01*
X94118465Y-124715832D01*
X94163275Y-124655975D01*
X94223132Y-124611165D01*
X94270170Y-124575496D01*
X94271461Y-124574986D01*
X94275280Y-124572128D01*
X94338594Y-124548513D01*
X94394992Y-124526273D01*
X94399757Y-124525700D01*
X94406371Y-124523234D01*
X94510860Y-124512000D01*
X94719140Y-124512000D01*
X94823629Y-124523234D01*
X94830243Y-124525700D01*
X94835007Y-124526273D01*
X94891387Y-124548506D01*
X94954720Y-124572128D01*
X94958540Y-124574987D01*
X94959829Y-124575496D01*
X95006789Y-124611107D01*
X95066725Y-124655975D01*
X95111611Y-124715935D01*
X95147203Y-124762870D01*
X95147711Y-124764158D01*
X95150572Y-124767980D01*
X95174200Y-124831330D01*
X95196426Y-124887691D01*
X95196998Y-124892454D01*
X95199466Y-124899071D01*
X95201738Y-124920205D01*
X95228561Y-124944000D01*
X95271439Y-124944000D01*
X95298261Y-124920205D01*
X95300534Y-124899071D01*
X95303000Y-124892457D01*
X95303573Y-124887691D01*
X95325817Y-124831283D01*
X95349428Y-124767980D01*
X95352286Y-124764161D01*
X95352796Y-124762870D01*
X95388465Y-124715832D01*
X95433275Y-124655975D01*
X95493132Y-124611165D01*
X95540170Y-124575496D01*
X95541461Y-124574986D01*
X95545280Y-124572128D01*
X95608594Y-124548513D01*
X95664992Y-124526273D01*
X95669757Y-124525700D01*
X95676371Y-124523234D01*
X95780860Y-124512000D01*
X95989140Y-124512000D01*
X96093629Y-124523234D01*
X96100243Y-124525700D01*
X96105007Y-124526273D01*
X96161387Y-124548506D01*
X96224720Y-124572128D01*
X96228540Y-124574987D01*
X96229829Y-124575496D01*
X96276789Y-124611107D01*
X96336725Y-124655975D01*
X96381611Y-124715935D01*
X96417203Y-124762870D01*
X96417711Y-124764158D01*
X96420572Y-124767980D01*
X96444200Y-124831330D01*
X96466426Y-124887691D01*
X96466998Y-124892454D01*
X96469466Y-124899071D01*
X96471738Y-124920205D01*
X96498561Y-124944000D01*
X96541439Y-124944000D01*
X96568261Y-124920205D01*
X96570534Y-124899071D01*
X96573000Y-124892457D01*
X96573573Y-124887691D01*
X96595817Y-124831283D01*
X96619428Y-124767980D01*
X96622286Y-124764161D01*
X96622796Y-124762870D01*
X96658465Y-124715832D01*
X96703275Y-124655975D01*
X96763132Y-124611165D01*
X96810170Y-124575496D01*
X96811461Y-124574986D01*
X96815280Y-124572128D01*
X96878594Y-124548513D01*
X96934992Y-124526273D01*
X96939757Y-124525700D01*
X96946371Y-124523234D01*
X97050860Y-124512000D01*
X97259140Y-124512000D01*
X97363629Y-124523234D01*
X97370243Y-124525700D01*
X97375007Y-124526273D01*
X97431387Y-124548506D01*
X97494720Y-124572128D01*
X97498540Y-124574987D01*
X97499829Y-124575496D01*
X97546789Y-124611107D01*
X97606725Y-124655975D01*
X97651611Y-124715935D01*
X97687203Y-124762870D01*
X97687711Y-124764158D01*
X97690572Y-124767980D01*
X97714200Y-124831330D01*
X97736426Y-124887691D01*
X97736998Y-124892454D01*
X97739466Y-124899071D01*
X97741738Y-124920205D01*
X97768561Y-124944000D01*
X97811439Y-124944000D01*
X97838261Y-124920205D01*
X97840534Y-124899071D01*
X97843000Y-124892457D01*
X97843573Y-124887691D01*
X97865817Y-124831283D01*
X97889428Y-124767980D01*
X97892286Y-124764161D01*
X97892796Y-124762870D01*
X97928465Y-124715832D01*
X97973275Y-124655975D01*
X98033132Y-124611165D01*
X98080170Y-124575496D01*
X98081461Y-124574986D01*
X98085280Y-124572128D01*
X98148594Y-124548513D01*
X98204992Y-124526273D01*
X98209757Y-124525700D01*
X98216371Y-124523234D01*
X98320860Y-124512000D01*
X98529140Y-124512000D01*
X98633629Y-124523234D01*
X98640243Y-124525700D01*
X98645007Y-124526273D01*
X98701387Y-124548506D01*
X98764720Y-124572128D01*
X98768540Y-124574987D01*
X98769829Y-124575496D01*
X98816789Y-124611107D01*
X98876725Y-124655975D01*
X98921611Y-124715935D01*
X98957203Y-124762870D01*
X98957711Y-124764158D01*
X98960572Y-124767980D01*
X98984200Y-124831330D01*
X99006426Y-124887691D01*
X99006998Y-124892454D01*
X99009466Y-124899071D01*
X99011738Y-124920205D01*
X99038561Y-124944000D01*
X99081439Y-124944000D01*
X99108261Y-124920205D01*
X99110534Y-124899071D01*
X99113000Y-124892457D01*
X99113573Y-124887691D01*
X99135817Y-124831283D01*
X99159428Y-124767980D01*
X99162286Y-124764161D01*
X99162796Y-124762870D01*
X99198465Y-124715832D01*
X99243275Y-124655975D01*
X99303132Y-124611165D01*
X99350170Y-124575496D01*
X99351461Y-124574986D01*
X99355280Y-124572128D01*
X99418594Y-124548513D01*
X99474992Y-124526273D01*
X99479757Y-124525700D01*
X99486371Y-124523234D01*
X99590860Y-124512000D01*
X99799140Y-124512000D01*
X99903629Y-124523234D01*
X99910243Y-124525700D01*
X99915007Y-124526273D01*
X99971387Y-124548506D01*
X100034720Y-124572128D01*
X100038540Y-124574987D01*
X100039829Y-124575496D01*
X100086789Y-124611107D01*
X100146725Y-124655975D01*
X100191611Y-124715935D01*
X100227203Y-124762870D01*
X100227711Y-124764158D01*
X100230572Y-124767980D01*
X100254200Y-124831330D01*
X100276426Y-124887691D01*
X100276998Y-124892454D01*
X100279466Y-124899071D01*
X100281738Y-124920205D01*
X100308561Y-124944000D01*
X100351439Y-124944000D01*
X100378261Y-124920205D01*
X100380534Y-124899071D01*
X100383000Y-124892457D01*
X100383573Y-124887691D01*
X100405817Y-124831283D01*
X100429428Y-124767980D01*
X100432286Y-124764161D01*
X100432796Y-124762870D01*
X100468465Y-124715832D01*
X100513275Y-124655975D01*
X100573132Y-124611165D01*
X100620170Y-124575496D01*
X100621461Y-124574986D01*
X100625280Y-124572128D01*
X100688594Y-124548513D01*
X100744992Y-124526273D01*
X100749757Y-124525700D01*
X100756371Y-124523234D01*
X100860860Y-124512000D01*
X101069140Y-124512000D01*
X101173629Y-124523234D01*
X101180243Y-124525700D01*
X101185007Y-124526273D01*
X101241387Y-124548506D01*
X101304720Y-124572128D01*
X101308540Y-124574987D01*
X101309829Y-124575496D01*
X101356789Y-124611107D01*
X101416725Y-124655975D01*
X101461611Y-124715935D01*
X101497203Y-124762870D01*
X101497711Y-124764158D01*
X101500572Y-124767980D01*
X101524200Y-124831330D01*
X101546426Y-124887691D01*
X101546998Y-124892454D01*
X101549466Y-124899071D01*
X101551738Y-124920205D01*
X101578561Y-124944000D01*
X101621439Y-124944000D01*
X101648261Y-124920205D01*
X101650534Y-124899071D01*
X101653000Y-124892457D01*
X101653573Y-124887691D01*
X101675817Y-124831283D01*
X101699428Y-124767980D01*
X101702286Y-124764161D01*
X101702796Y-124762870D01*
X101738465Y-124715832D01*
X101783275Y-124655975D01*
X101843132Y-124611165D01*
X101890170Y-124575496D01*
X101891461Y-124574986D01*
X101895280Y-124572128D01*
X101958594Y-124548513D01*
X102014992Y-124526273D01*
X102019757Y-124525700D01*
X102026371Y-124523234D01*
X102130860Y-124512000D01*
X102339140Y-124512000D01*
X102443629Y-124523234D01*
X102450243Y-124525700D01*
X102455007Y-124526273D01*
X102511387Y-124548506D01*
X102574720Y-124572128D01*
X102578540Y-124574987D01*
X102579829Y-124575496D01*
X102626789Y-124611107D01*
X102686725Y-124655975D01*
X102731611Y-124715935D01*
X102767203Y-124762870D01*
X102767711Y-124764158D01*
X102770572Y-124767980D01*
X102794200Y-124831330D01*
X102816426Y-124887691D01*
X102816998Y-124892454D01*
X102819466Y-124899071D01*
X102821738Y-124920205D01*
X102848561Y-124944000D01*
X102891439Y-124944000D01*
X102918261Y-124920205D01*
X102920534Y-124899071D01*
X102923000Y-124892457D01*
X102923573Y-124887691D01*
X102945817Y-124831283D01*
X102969428Y-124767980D01*
X102972286Y-124764161D01*
X102972796Y-124762870D01*
X103008465Y-124715832D01*
X103053275Y-124655975D01*
X103113132Y-124611165D01*
X103160170Y-124575496D01*
X103161461Y-124574986D01*
X103165280Y-124572128D01*
X103228594Y-124548513D01*
X103284992Y-124526273D01*
X103289757Y-124525700D01*
X103296371Y-124523234D01*
X103400860Y-124512000D01*
X103609140Y-124512000D01*
X103713629Y-124523234D01*
X103720243Y-124525700D01*
X103725007Y-124526273D01*
X103781387Y-124548506D01*
X103844720Y-124572128D01*
X103848540Y-124574987D01*
X103849829Y-124575496D01*
X103896789Y-124611107D01*
X103956725Y-124655975D01*
X104001611Y-124715935D01*
X104037203Y-124762870D01*
X104037711Y-124764158D01*
X104040572Y-124767980D01*
X104064200Y-124831330D01*
X104086426Y-124887691D01*
X104086998Y-124892454D01*
X104089466Y-124899071D01*
X104091738Y-124920205D01*
X104118561Y-124944000D01*
X104161439Y-124944000D01*
X104188261Y-124920205D01*
X104190534Y-124899071D01*
X104193000Y-124892457D01*
X104193573Y-124887691D01*
X104215817Y-124831283D01*
X104239428Y-124767980D01*
X104242286Y-124764161D01*
X104242796Y-124762870D01*
X104278465Y-124715832D01*
X104323275Y-124655975D01*
X104383132Y-124611165D01*
X104430170Y-124575496D01*
X104431461Y-124574986D01*
X104435280Y-124572128D01*
X104498594Y-124548513D01*
X104554992Y-124526273D01*
X104559757Y-124525700D01*
X104566371Y-124523234D01*
X104670860Y-124512000D01*
X104879140Y-124512000D01*
X104983629Y-124523234D01*
X104990243Y-124525700D01*
X104995007Y-124526273D01*
X105051387Y-124548506D01*
X105114720Y-124572128D01*
X105118540Y-124574987D01*
X105119829Y-124575496D01*
X105166789Y-124611107D01*
X105226725Y-124655975D01*
X105271611Y-124715935D01*
X105307203Y-124762870D01*
X105307711Y-124764158D01*
X105310572Y-124767980D01*
X105334200Y-124831330D01*
X105356426Y-124887691D01*
X105356998Y-124892454D01*
X105359466Y-124899071D01*
X105361738Y-124920205D01*
X105388561Y-124944000D01*
X105431439Y-124944000D01*
X105458261Y-124920205D01*
X105460534Y-124899071D01*
X105463000Y-124892457D01*
X105463573Y-124887691D01*
X105485817Y-124831283D01*
X105509428Y-124767980D01*
X105512286Y-124764161D01*
X105512796Y-124762870D01*
X105548465Y-124715832D01*
X105593275Y-124655975D01*
X105653132Y-124611165D01*
X105700170Y-124575496D01*
X105701461Y-124574986D01*
X105705280Y-124572128D01*
X105768594Y-124548513D01*
X105824992Y-124526273D01*
X105829757Y-124525700D01*
X105836371Y-124523234D01*
X105940860Y-124512000D01*
X106149140Y-124512000D01*
X106253629Y-124523234D01*
X106260243Y-124525700D01*
X106265007Y-124526273D01*
X106321387Y-124548506D01*
X106384720Y-124572128D01*
X106388540Y-124574987D01*
X106389829Y-124575496D01*
X106436789Y-124611107D01*
X106496725Y-124655975D01*
X106541611Y-124715935D01*
X106577203Y-124762870D01*
X106577711Y-124764158D01*
X106580572Y-124767980D01*
X106604200Y-124831330D01*
X106626426Y-124887691D01*
X106626998Y-124892454D01*
X106629466Y-124899071D01*
X106631738Y-124920205D01*
X106658561Y-124944000D01*
X106701439Y-124944000D01*
X106728261Y-124920205D01*
X106730534Y-124899071D01*
X106733000Y-124892457D01*
X106733573Y-124887691D01*
X106755817Y-124831283D01*
X106779428Y-124767980D01*
X106782286Y-124764161D01*
X106782796Y-124762870D01*
X106818465Y-124715832D01*
X106863275Y-124655975D01*
X106923132Y-124611165D01*
X106970170Y-124575496D01*
X106971461Y-124574986D01*
X106975280Y-124572128D01*
X107038594Y-124548513D01*
X107094992Y-124526273D01*
X107099757Y-124525700D01*
X107106371Y-124523234D01*
X107210860Y-124512000D01*
X107419140Y-124512000D01*
X107523629Y-124523234D01*
X107530243Y-124525700D01*
X107535007Y-124526273D01*
X107591387Y-124548506D01*
X107654720Y-124572128D01*
X107658540Y-124574987D01*
X107659829Y-124575496D01*
X107706789Y-124611107D01*
X107766725Y-124655975D01*
X107811611Y-124715935D01*
X107847203Y-124762870D01*
X107847711Y-124764158D01*
X107850572Y-124767980D01*
X107874200Y-124831330D01*
X107896426Y-124887691D01*
X107896998Y-124892454D01*
X107899466Y-124899071D01*
X107901738Y-124920205D01*
X107928561Y-124944000D01*
X107971439Y-124944000D01*
X107998261Y-124920205D01*
X108000534Y-124899071D01*
X108003000Y-124892457D01*
X108003573Y-124887691D01*
X108025817Y-124831283D01*
X108049428Y-124767980D01*
X108052286Y-124764161D01*
X108052796Y-124762870D01*
X108088465Y-124715832D01*
X108133275Y-124655975D01*
X108193132Y-124611165D01*
X108240170Y-124575496D01*
X108241461Y-124574986D01*
X108245280Y-124572128D01*
X108308594Y-124548513D01*
X108364992Y-124526273D01*
X108369757Y-124525700D01*
X108376371Y-124523234D01*
X108480860Y-124512000D01*
X108689140Y-124512000D01*
X108793629Y-124523234D01*
X108800243Y-124525700D01*
X108805007Y-124526273D01*
X108861387Y-124548506D01*
X108924720Y-124572128D01*
X108928540Y-124574987D01*
X108929829Y-124575496D01*
X108976789Y-124611107D01*
X109036725Y-124655975D01*
X109081611Y-124715935D01*
X109117203Y-124762870D01*
X109117711Y-124764158D01*
X109120572Y-124767980D01*
X109144200Y-124831330D01*
X109166426Y-124887691D01*
X109166998Y-124892454D01*
X109169466Y-124899071D01*
X109171738Y-124920205D01*
X109198561Y-124944000D01*
X109241439Y-124944000D01*
X109268261Y-124920205D01*
X109270534Y-124899071D01*
X109273000Y-124892457D01*
X109273573Y-124887691D01*
X109295817Y-124831283D01*
X109319428Y-124767980D01*
X109322286Y-124764161D01*
X109322796Y-124762870D01*
X109358465Y-124715832D01*
X109403275Y-124655975D01*
X109463132Y-124611165D01*
X109510170Y-124575496D01*
X109511461Y-124574986D01*
X109515280Y-124572128D01*
X109578594Y-124548513D01*
X109634992Y-124526273D01*
X109639757Y-124525700D01*
X109646371Y-124523234D01*
X109750860Y-124512000D01*
X109959140Y-124512000D01*
X110063629Y-124523234D01*
X110070243Y-124525700D01*
X110075007Y-124526273D01*
X110131387Y-124548506D01*
X110194720Y-124572128D01*
X110198540Y-124574987D01*
X110199829Y-124575496D01*
X110246789Y-124611107D01*
X110306725Y-124655975D01*
X110351611Y-124715935D01*
X110387203Y-124762870D01*
X110387711Y-124764158D01*
X110390572Y-124767980D01*
X110414200Y-124831330D01*
X110436426Y-124887691D01*
X110436998Y-124892454D01*
X110439466Y-124899071D01*
X110441738Y-124920205D01*
X110468561Y-124944000D01*
X110511439Y-124944000D01*
X110538261Y-124920205D01*
X110540534Y-124899071D01*
X110543000Y-124892457D01*
X110543573Y-124887691D01*
X110565817Y-124831283D01*
X110589428Y-124767980D01*
X110592286Y-124764161D01*
X110592796Y-124762870D01*
X110628465Y-124715832D01*
X110673275Y-124655975D01*
X110733132Y-124611165D01*
X110780170Y-124575496D01*
X110781461Y-124574986D01*
X110785280Y-124572128D01*
X110848594Y-124548513D01*
X110904992Y-124526273D01*
X110909757Y-124525700D01*
X110916371Y-124523234D01*
X111020860Y-124512000D01*
X111229140Y-124512000D01*
X111333629Y-124523234D01*
X111340243Y-124525700D01*
X111345007Y-124526273D01*
X111401387Y-124548506D01*
X111464720Y-124572128D01*
X111468540Y-124574987D01*
X111469829Y-124575496D01*
X111516789Y-124611107D01*
X111576725Y-124655975D01*
X111621611Y-124715935D01*
X111657203Y-124762870D01*
X111657711Y-124764158D01*
X111660572Y-124767980D01*
X111684200Y-124831330D01*
X111706426Y-124887691D01*
X111706998Y-124892454D01*
X111709466Y-124899071D01*
X111711738Y-124920205D01*
X111738561Y-124944000D01*
X111781439Y-124944000D01*
X111808261Y-124920205D01*
X111810534Y-124899071D01*
X111813000Y-124892457D01*
X111813573Y-124887691D01*
X111835817Y-124831283D01*
X111859428Y-124767980D01*
X111862286Y-124764161D01*
X111862796Y-124762870D01*
X111898465Y-124715832D01*
X111943275Y-124655975D01*
X112003132Y-124611165D01*
X112050170Y-124575496D01*
X112051461Y-124574986D01*
X112055280Y-124572128D01*
X112118594Y-124548513D01*
X112174992Y-124526273D01*
X112179757Y-124525700D01*
X112186371Y-124523234D01*
X112290860Y-124512000D01*
X112499140Y-124512000D01*
X112603629Y-124523234D01*
X112610243Y-124525700D01*
X112615007Y-124526273D01*
X112671387Y-124548506D01*
X112734720Y-124572128D01*
X112738540Y-124574987D01*
X112739829Y-124575496D01*
X112786789Y-124611107D01*
X112846725Y-124655975D01*
X112891611Y-124715935D01*
X112927203Y-124762870D01*
X112927711Y-124764158D01*
X112930572Y-124767980D01*
X112954200Y-124831330D01*
X112976426Y-124887691D01*
X112976998Y-124892454D01*
X112979466Y-124899071D01*
X112981738Y-124920205D01*
X113008561Y-124944000D01*
X113051439Y-124944000D01*
X113078261Y-124920205D01*
X113080534Y-124899071D01*
X113083000Y-124892457D01*
X113083573Y-124887691D01*
X113105817Y-124831283D01*
X113129428Y-124767980D01*
X113132286Y-124764161D01*
X113132796Y-124762870D01*
X113168465Y-124715832D01*
X113213275Y-124655975D01*
X113273132Y-124611165D01*
X113320170Y-124575496D01*
X113321461Y-124574986D01*
X113325280Y-124572128D01*
X113388594Y-124548513D01*
X113444992Y-124526273D01*
X113449757Y-124525700D01*
X113456371Y-124523234D01*
X113560860Y-124512000D01*
X113769140Y-124512000D01*
X113873629Y-124523234D01*
X113880243Y-124525700D01*
X113885007Y-124526273D01*
X113941387Y-124548506D01*
X114004720Y-124572128D01*
X114008540Y-124574987D01*
X114009829Y-124575496D01*
X114056789Y-124611107D01*
X114116725Y-124655975D01*
X114161611Y-124715935D01*
X114197203Y-124762870D01*
X114197711Y-124764158D01*
X114200572Y-124767980D01*
X114224200Y-124831330D01*
X114246426Y-124887691D01*
X114246998Y-124892454D01*
X114249466Y-124899071D01*
X114251738Y-124920205D01*
X114278561Y-124944000D01*
X114321439Y-124944000D01*
X114348261Y-124920205D01*
X114350534Y-124899071D01*
X114353000Y-124892457D01*
X114353573Y-124887691D01*
X114375817Y-124831283D01*
X114399428Y-124767980D01*
X114402286Y-124764161D01*
X114402796Y-124762870D01*
X114438465Y-124715832D01*
X114483275Y-124655975D01*
X114543132Y-124611165D01*
X114590170Y-124575496D01*
X114591461Y-124574986D01*
X114595280Y-124572128D01*
X114658594Y-124548513D01*
X114714992Y-124526273D01*
X114719757Y-124525700D01*
X114726371Y-124523234D01*
X114830860Y-124512000D01*
X115039140Y-124512000D01*
X115143629Y-124523234D01*
X115150243Y-124525700D01*
X115155007Y-124526273D01*
X115211387Y-124548506D01*
X115274720Y-124572128D01*
X115278540Y-124574987D01*
X115279829Y-124575496D01*
X115326789Y-124611107D01*
X115386725Y-124655975D01*
X115431611Y-124715935D01*
X115467203Y-124762870D01*
X115467711Y-124764158D01*
X115470572Y-124767980D01*
X115494200Y-124831330D01*
X115516426Y-124887691D01*
X115516998Y-124892454D01*
X115519466Y-124899071D01*
X115521738Y-124920205D01*
X115548561Y-124944000D01*
X115591439Y-124944000D01*
X115618261Y-124920205D01*
X115620534Y-124899071D01*
X115623000Y-124892457D01*
X115623573Y-124887691D01*
X115645817Y-124831283D01*
X115669428Y-124767980D01*
X115672286Y-124764161D01*
X115672796Y-124762870D01*
X115708465Y-124715832D01*
X115753275Y-124655975D01*
X115813132Y-124611165D01*
X115860170Y-124575496D01*
X115861461Y-124574986D01*
X115865280Y-124572128D01*
X115928594Y-124548513D01*
X115984992Y-124526273D01*
X115989757Y-124525700D01*
X115996371Y-124523234D01*
X116100860Y-124512000D01*
X116309140Y-124512000D01*
X116413629Y-124523234D01*
X116420243Y-124525700D01*
X116425007Y-124526273D01*
X116481387Y-124548506D01*
X116544720Y-124572128D01*
X116548540Y-124574987D01*
X116549829Y-124575496D01*
X116596789Y-124611107D01*
X116656725Y-124655975D01*
X116701611Y-124715935D01*
X116737203Y-124762870D01*
X116737711Y-124764158D01*
X116740572Y-124767980D01*
X116764200Y-124831330D01*
X116786426Y-124887691D01*
X116786998Y-124892454D01*
X116789466Y-124899071D01*
X116791738Y-124920205D01*
X116818561Y-124944000D01*
X116861439Y-124944000D01*
X116888261Y-124920205D01*
X116890534Y-124899071D01*
X116893000Y-124892457D01*
X116893573Y-124887691D01*
X116915817Y-124831283D01*
X116939428Y-124767980D01*
X116942286Y-124764161D01*
X116942796Y-124762870D01*
X116978465Y-124715832D01*
X117023275Y-124655975D01*
X117083132Y-124611165D01*
X117130170Y-124575496D01*
X117131461Y-124574986D01*
X117135280Y-124572128D01*
X117198594Y-124548513D01*
X117254992Y-124526273D01*
X117259757Y-124525700D01*
X117266371Y-124523234D01*
X117370860Y-124512000D01*
X117579140Y-124512000D01*
X117683629Y-124523234D01*
X117690243Y-124525700D01*
X117695007Y-124526273D01*
X117751387Y-124548506D01*
X117814720Y-124572128D01*
X117818540Y-124574987D01*
X117819829Y-124575496D01*
X117866789Y-124611107D01*
X117926725Y-124655975D01*
X117971611Y-124715935D01*
X118007203Y-124762870D01*
X118007710Y-124764158D01*
X118010572Y-124767980D01*
X118034204Y-124831340D01*
X118056426Y-124887692D01*
X118056997Y-124892453D01*
X118059466Y-124899071D01*
X118070700Y-125003560D01*
X118070700Y-127218440D01*
X118059466Y-127322929D01*
X118056997Y-127329547D01*
X118056426Y-127334307D01*
X118034211Y-127390640D01*
X118010572Y-127454020D01*
X118007710Y-127457842D01*
X118007203Y-127459129D01*
X117971669Y-127505986D01*
X117926725Y-127566025D01*
X117866686Y-127610969D01*
X117819829Y-127646503D01*
X117818542Y-127647010D01*
X117814720Y-127649872D01*
X117751340Y-127673511D01*
X117695007Y-127695726D01*
X117690247Y-127696297D01*
X117683629Y-127698766D01*
X117579140Y-127710000D01*
X117519691Y-127710000D01*
X117508965Y-127713275D01*
X117503428Y-127717753D01*
X117488773Y-127717486D01*
X117475000Y-127722500D01*
X117468417Y-127722500D01*
X78111583Y-127722500D01*
X78105000Y-127722500D01*
X78075073Y-127717223D01*
X78069987Y-127712955D01*
X78060307Y-127710000D01*
X78000860Y-127710000D01*
X77896371Y-127698766D01*
X77889753Y-127696297D01*
X77884992Y-127695726D01*
X77828640Y-127673504D01*
X77765280Y-127649872D01*
X77761458Y-127647010D01*
X77760170Y-127646503D01*
X77713235Y-127610911D01*
X77653275Y-127566025D01*
X77608407Y-127506089D01*
X77572796Y-127459129D01*
X77572287Y-127457840D01*
X77569428Y-127454020D01*
X77545806Y-127390687D01*
X77523573Y-127334307D01*
X77523000Y-127329543D01*
X77520534Y-127322929D01*
X77509300Y-127218440D01*
X77509300Y-125003560D01*
X77520534Y-124899071D01*
X77523000Y-124892457D01*
X77523573Y-124887692D01*
X77545813Y-124831294D01*
X77569428Y-124767980D01*
X77572286Y-124764161D01*
X77572796Y-124762870D01*
X77608465Y-124715832D01*
X77653275Y-124655975D01*
X77713132Y-124611165D01*
X77760170Y-124575496D01*
X77761461Y-124574986D01*
X77765280Y-124572128D01*
X77828594Y-124548513D01*
X77884992Y-124526273D01*
X77889757Y-124525700D01*
X77896371Y-124523234D01*
X78000860Y-124512000D01*
X78209140Y-124512000D01*
X78313629Y-124523234D01*
G37*
G36*
X124033629Y-124523234D02*
G01*
X124040243Y-124525700D01*
X124045007Y-124526273D01*
X124101387Y-124548506D01*
X124164720Y-124572128D01*
X124168540Y-124574987D01*
X124169829Y-124575496D01*
X124216789Y-124611107D01*
X124276725Y-124655975D01*
X124321611Y-124715935D01*
X124357203Y-124762870D01*
X124357711Y-124764158D01*
X124360572Y-124767980D01*
X124384200Y-124831330D01*
X124406426Y-124887691D01*
X124406998Y-124892454D01*
X124409466Y-124899071D01*
X124411738Y-124920205D01*
X124438561Y-124944000D01*
X124481439Y-124944000D01*
X124508261Y-124920205D01*
X124510534Y-124899071D01*
X124513000Y-124892457D01*
X124513573Y-124887691D01*
X124535817Y-124831283D01*
X124559428Y-124767980D01*
X124562286Y-124764161D01*
X124562796Y-124762870D01*
X124598465Y-124715832D01*
X124643275Y-124655975D01*
X124703132Y-124611165D01*
X124750170Y-124575496D01*
X124751461Y-124574986D01*
X124755280Y-124572128D01*
X124818594Y-124548513D01*
X124874992Y-124526273D01*
X124879757Y-124525700D01*
X124886371Y-124523234D01*
X124990860Y-124512000D01*
X125199140Y-124512000D01*
X125303629Y-124523234D01*
X125310243Y-124525700D01*
X125315007Y-124526273D01*
X125371387Y-124548506D01*
X125434720Y-124572128D01*
X125438540Y-124574987D01*
X125439829Y-124575496D01*
X125486789Y-124611107D01*
X125546725Y-124655975D01*
X125591611Y-124715935D01*
X125627203Y-124762870D01*
X125627711Y-124764158D01*
X125630572Y-124767980D01*
X125654200Y-124831330D01*
X125676426Y-124887691D01*
X125676998Y-124892454D01*
X125679466Y-124899071D01*
X125681738Y-124920205D01*
X125708561Y-124944000D01*
X125751439Y-124944000D01*
X125778261Y-124920205D01*
X125780534Y-124899071D01*
X125783000Y-124892457D01*
X125783573Y-124887691D01*
X125805817Y-124831283D01*
X125829428Y-124767980D01*
X125832286Y-124764161D01*
X125832796Y-124762870D01*
X125868465Y-124715832D01*
X125913275Y-124655975D01*
X125973132Y-124611165D01*
X126020170Y-124575496D01*
X126021461Y-124574986D01*
X126025280Y-124572128D01*
X126088594Y-124548513D01*
X126144992Y-124526273D01*
X126149757Y-124525700D01*
X126156371Y-124523234D01*
X126260860Y-124512000D01*
X126469140Y-124512000D01*
X126573629Y-124523234D01*
X126580243Y-124525700D01*
X126585007Y-124526273D01*
X126641387Y-124548506D01*
X126704720Y-124572128D01*
X126708540Y-124574987D01*
X126709829Y-124575496D01*
X126756789Y-124611107D01*
X126816725Y-124655975D01*
X126861611Y-124715935D01*
X126897203Y-124762870D01*
X126897711Y-124764158D01*
X126900572Y-124767980D01*
X126924200Y-124831330D01*
X126946426Y-124887691D01*
X126946998Y-124892454D01*
X126949466Y-124899071D01*
X126951738Y-124920205D01*
X126978561Y-124944000D01*
X127021439Y-124944000D01*
X127048261Y-124920205D01*
X127050534Y-124899071D01*
X127053000Y-124892457D01*
X127053573Y-124887691D01*
X127075817Y-124831283D01*
X127099428Y-124767980D01*
X127102286Y-124764161D01*
X127102796Y-124762870D01*
X127138465Y-124715832D01*
X127183275Y-124655975D01*
X127243132Y-124611165D01*
X127290170Y-124575496D01*
X127291461Y-124574986D01*
X127295280Y-124572128D01*
X127358594Y-124548513D01*
X127414992Y-124526273D01*
X127419757Y-124525700D01*
X127426371Y-124523234D01*
X127530860Y-124512000D01*
X127739140Y-124512000D01*
X127843629Y-124523234D01*
X127850243Y-124525700D01*
X127855007Y-124526273D01*
X127911387Y-124548506D01*
X127974720Y-124572128D01*
X127978540Y-124574987D01*
X127979829Y-124575496D01*
X128026789Y-124611107D01*
X128086725Y-124655975D01*
X128131611Y-124715935D01*
X128167203Y-124762870D01*
X128167711Y-124764158D01*
X128170572Y-124767980D01*
X128194200Y-124831330D01*
X128216426Y-124887691D01*
X128216998Y-124892454D01*
X128219466Y-124899071D01*
X128221738Y-124920205D01*
X128248561Y-124944000D01*
X128291439Y-124944000D01*
X128318261Y-124920205D01*
X128320534Y-124899071D01*
X128323000Y-124892457D01*
X128323573Y-124887691D01*
X128345817Y-124831283D01*
X128369428Y-124767980D01*
X128372286Y-124764161D01*
X128372796Y-124762870D01*
X128408465Y-124715832D01*
X128453275Y-124655975D01*
X128513132Y-124611165D01*
X128560170Y-124575496D01*
X128561461Y-124574986D01*
X128565280Y-124572128D01*
X128628594Y-124548513D01*
X128684992Y-124526273D01*
X128689757Y-124525700D01*
X128696371Y-124523234D01*
X128800860Y-124512000D01*
X129009140Y-124512000D01*
X129113629Y-124523234D01*
X129120243Y-124525700D01*
X129125007Y-124526273D01*
X129181387Y-124548506D01*
X129244720Y-124572128D01*
X129248540Y-124574987D01*
X129249829Y-124575496D01*
X129296789Y-124611107D01*
X129356725Y-124655975D01*
X129401611Y-124715935D01*
X129437203Y-124762870D01*
X129437711Y-124764158D01*
X129440572Y-124767980D01*
X129464200Y-124831330D01*
X129486426Y-124887691D01*
X129486998Y-124892454D01*
X129489466Y-124899071D01*
X129491738Y-124920205D01*
X129518561Y-124944000D01*
X129561439Y-124944000D01*
X129588261Y-124920205D01*
X129590534Y-124899071D01*
X129593000Y-124892457D01*
X129593573Y-124887691D01*
X129615817Y-124831283D01*
X129639428Y-124767980D01*
X129642286Y-124764161D01*
X129642796Y-124762870D01*
X129678465Y-124715832D01*
X129723275Y-124655975D01*
X129783132Y-124611165D01*
X129830170Y-124575496D01*
X129831461Y-124574986D01*
X129835280Y-124572128D01*
X129898594Y-124548513D01*
X129954992Y-124526273D01*
X129959757Y-124525700D01*
X129966371Y-124523234D01*
X130070860Y-124512000D01*
X130279140Y-124512000D01*
X130383629Y-124523234D01*
X130390243Y-124525700D01*
X130395007Y-124526273D01*
X130451387Y-124548506D01*
X130514720Y-124572128D01*
X130518540Y-124574987D01*
X130519829Y-124575496D01*
X130566789Y-124611107D01*
X130626725Y-124655975D01*
X130671611Y-124715935D01*
X130707203Y-124762870D01*
X130707711Y-124764158D01*
X130710572Y-124767980D01*
X130734200Y-124831330D01*
X130756426Y-124887691D01*
X130756998Y-124892454D01*
X130759466Y-124899071D01*
X130761738Y-124920205D01*
X130788561Y-124944000D01*
X130831439Y-124944000D01*
X130858261Y-124920205D01*
X130860534Y-124899071D01*
X130863000Y-124892457D01*
X130863573Y-124887691D01*
X130885817Y-124831283D01*
X130909428Y-124767980D01*
X130912286Y-124764161D01*
X130912796Y-124762870D01*
X130948465Y-124715832D01*
X130993275Y-124655975D01*
X131053132Y-124611165D01*
X131100170Y-124575496D01*
X131101461Y-124574986D01*
X131105280Y-124572128D01*
X131168594Y-124548513D01*
X131224992Y-124526273D01*
X131229757Y-124525700D01*
X131236371Y-124523234D01*
X131340860Y-124512000D01*
X131549140Y-124512000D01*
X131653629Y-124523234D01*
X131660243Y-124525700D01*
X131665007Y-124526273D01*
X131721387Y-124548506D01*
X131784720Y-124572128D01*
X131788540Y-124574987D01*
X131789829Y-124575496D01*
X131836789Y-124611107D01*
X131896725Y-124655975D01*
X131941611Y-124715935D01*
X131977203Y-124762870D01*
X131977711Y-124764158D01*
X131980572Y-124767980D01*
X132004200Y-124831330D01*
X132026426Y-124887691D01*
X132026998Y-124892454D01*
X132029466Y-124899071D01*
X132031738Y-124920205D01*
X132058561Y-124944000D01*
X132101439Y-124944000D01*
X132128261Y-124920205D01*
X132130534Y-124899071D01*
X132133000Y-124892457D01*
X132133573Y-124887691D01*
X132155817Y-124831283D01*
X132179428Y-124767980D01*
X132182286Y-124764161D01*
X132182796Y-124762870D01*
X132218465Y-124715832D01*
X132263275Y-124655975D01*
X132323132Y-124611165D01*
X132370170Y-124575496D01*
X132371461Y-124574986D01*
X132375280Y-124572128D01*
X132438594Y-124548513D01*
X132494992Y-124526273D01*
X132499757Y-124525700D01*
X132506371Y-124523234D01*
X132610860Y-124512000D01*
X132819140Y-124512000D01*
X132923629Y-124523234D01*
X132930243Y-124525700D01*
X132935007Y-124526273D01*
X132991387Y-124548506D01*
X133054720Y-124572128D01*
X133058540Y-124574987D01*
X133059829Y-124575496D01*
X133106789Y-124611107D01*
X133166725Y-124655975D01*
X133211611Y-124715935D01*
X133247203Y-124762870D01*
X133247711Y-124764158D01*
X133250572Y-124767980D01*
X133274200Y-124831330D01*
X133296426Y-124887691D01*
X133296998Y-124892454D01*
X133299466Y-124899071D01*
X133301738Y-124920205D01*
X133328561Y-124944000D01*
X133371439Y-124944000D01*
X133398261Y-124920205D01*
X133400534Y-124899071D01*
X133403000Y-124892457D01*
X133403573Y-124887691D01*
X133425817Y-124831283D01*
X133449428Y-124767980D01*
X133452286Y-124764161D01*
X133452796Y-124762870D01*
X133488465Y-124715832D01*
X133533275Y-124655975D01*
X133593132Y-124611165D01*
X133640170Y-124575496D01*
X133641461Y-124574986D01*
X133645280Y-124572128D01*
X133708594Y-124548513D01*
X133764992Y-124526273D01*
X133769757Y-124525700D01*
X133776371Y-124523234D01*
X133880860Y-124512000D01*
X134089140Y-124512000D01*
X134193629Y-124523234D01*
X134200243Y-124525700D01*
X134205007Y-124526273D01*
X134261387Y-124548506D01*
X134324720Y-124572128D01*
X134328540Y-124574987D01*
X134329829Y-124575496D01*
X134376789Y-124611107D01*
X134436725Y-124655975D01*
X134481611Y-124715935D01*
X134517203Y-124762870D01*
X134517711Y-124764158D01*
X134520572Y-124767980D01*
X134544200Y-124831330D01*
X134566426Y-124887691D01*
X134566998Y-124892454D01*
X134569466Y-124899071D01*
X134571738Y-124920205D01*
X134598561Y-124944000D01*
X134641439Y-124944000D01*
X134668261Y-124920205D01*
X134670534Y-124899071D01*
X134673000Y-124892457D01*
X134673573Y-124887691D01*
X134695817Y-124831283D01*
X134719428Y-124767980D01*
X134722286Y-124764161D01*
X134722796Y-124762870D01*
X134758465Y-124715832D01*
X134803275Y-124655975D01*
X134863132Y-124611165D01*
X134910170Y-124575496D01*
X134911461Y-124574986D01*
X134915280Y-124572128D01*
X134978594Y-124548513D01*
X135034992Y-124526273D01*
X135039757Y-124525700D01*
X135046371Y-124523234D01*
X135150860Y-124512000D01*
X135359140Y-124512000D01*
X135463629Y-124523234D01*
X135470243Y-124525700D01*
X135475007Y-124526273D01*
X135531387Y-124548506D01*
X135594720Y-124572128D01*
X135598540Y-124574987D01*
X135599829Y-124575496D01*
X135646789Y-124611107D01*
X135706725Y-124655975D01*
X135751611Y-124715935D01*
X135787203Y-124762870D01*
X135787711Y-124764158D01*
X135790572Y-124767980D01*
X135814200Y-124831330D01*
X135836426Y-124887691D01*
X135836998Y-124892454D01*
X135839466Y-124899071D01*
X135841738Y-124920205D01*
X135868561Y-124944000D01*
X135911439Y-124944000D01*
X135938261Y-124920205D01*
X135940534Y-124899071D01*
X135943000Y-124892457D01*
X135943573Y-124887691D01*
X135965817Y-124831283D01*
X135989428Y-124767980D01*
X135992286Y-124764161D01*
X135992796Y-124762870D01*
X136028465Y-124715832D01*
X136073275Y-124655975D01*
X136133132Y-124611165D01*
X136180170Y-124575496D01*
X136181461Y-124574986D01*
X136185280Y-124572128D01*
X136248594Y-124548513D01*
X136304992Y-124526273D01*
X136309757Y-124525700D01*
X136316371Y-124523234D01*
X136420860Y-124512000D01*
X136629140Y-124512000D01*
X136733629Y-124523234D01*
X136740243Y-124525700D01*
X136745007Y-124526273D01*
X136801387Y-124548506D01*
X136864720Y-124572128D01*
X136868540Y-124574987D01*
X136869829Y-124575496D01*
X136916789Y-124611107D01*
X136976725Y-124655975D01*
X137021611Y-124715935D01*
X137057203Y-124762870D01*
X137057711Y-124764158D01*
X137060572Y-124767980D01*
X137084200Y-124831330D01*
X137106426Y-124887691D01*
X137106998Y-124892454D01*
X137109466Y-124899071D01*
X137111738Y-124920205D01*
X137138561Y-124944000D01*
X137181439Y-124944000D01*
X137208261Y-124920205D01*
X137210534Y-124899071D01*
X137213000Y-124892457D01*
X137213573Y-124887691D01*
X137235817Y-124831283D01*
X137259428Y-124767980D01*
X137262286Y-124764161D01*
X137262796Y-124762870D01*
X137298465Y-124715832D01*
X137343275Y-124655975D01*
X137403132Y-124611165D01*
X137450170Y-124575496D01*
X137451461Y-124574986D01*
X137455280Y-124572128D01*
X137518594Y-124548513D01*
X137574992Y-124526273D01*
X137579757Y-124525700D01*
X137586371Y-124523234D01*
X137690860Y-124512000D01*
X137899140Y-124512000D01*
X138003629Y-124523234D01*
X138010243Y-124525700D01*
X138015007Y-124526273D01*
X138071387Y-124548506D01*
X138134720Y-124572128D01*
X138138540Y-124574987D01*
X138139829Y-124575496D01*
X138186789Y-124611107D01*
X138246725Y-124655975D01*
X138291611Y-124715935D01*
X138327203Y-124762870D01*
X138327711Y-124764158D01*
X138330572Y-124767980D01*
X138354200Y-124831330D01*
X138376426Y-124887691D01*
X138376998Y-124892454D01*
X138379466Y-124899071D01*
X138381738Y-124920205D01*
X138408561Y-124944000D01*
X138451439Y-124944000D01*
X138478261Y-124920205D01*
X138480534Y-124899071D01*
X138483000Y-124892457D01*
X138483573Y-124887691D01*
X138505817Y-124831283D01*
X138529428Y-124767980D01*
X138532286Y-124764161D01*
X138532796Y-124762870D01*
X138568465Y-124715832D01*
X138613275Y-124655975D01*
X138673132Y-124611165D01*
X138720170Y-124575496D01*
X138721461Y-124574986D01*
X138725280Y-124572128D01*
X138788594Y-124548513D01*
X138844992Y-124526273D01*
X138849757Y-124525700D01*
X138856371Y-124523234D01*
X138960860Y-124512000D01*
X139169140Y-124512000D01*
X139273629Y-124523234D01*
X139280243Y-124525700D01*
X139285007Y-124526273D01*
X139341387Y-124548506D01*
X139404720Y-124572128D01*
X139408540Y-124574987D01*
X139409829Y-124575496D01*
X139456789Y-124611107D01*
X139516725Y-124655975D01*
X139561611Y-124715935D01*
X139597203Y-124762870D01*
X139597711Y-124764158D01*
X139600572Y-124767980D01*
X139624200Y-124831330D01*
X139646426Y-124887691D01*
X139646998Y-124892454D01*
X139649466Y-124899071D01*
X139651738Y-124920205D01*
X139678561Y-124944000D01*
X139721439Y-124944000D01*
X139748261Y-124920205D01*
X139750534Y-124899071D01*
X139753000Y-124892457D01*
X139753573Y-124887691D01*
X139775817Y-124831283D01*
X139799428Y-124767980D01*
X139802286Y-124764161D01*
X139802796Y-124762870D01*
X139838465Y-124715832D01*
X139883275Y-124655975D01*
X139943132Y-124611165D01*
X139990170Y-124575496D01*
X139991461Y-124574986D01*
X139995280Y-124572128D01*
X140058594Y-124548513D01*
X140114992Y-124526273D01*
X140119757Y-124525700D01*
X140126371Y-124523234D01*
X140230860Y-124512000D01*
X140439140Y-124512000D01*
X140543629Y-124523234D01*
X140550243Y-124525700D01*
X140555007Y-124526273D01*
X140611387Y-124548506D01*
X140674720Y-124572128D01*
X140678540Y-124574987D01*
X140679829Y-124575496D01*
X140726789Y-124611107D01*
X140786725Y-124655975D01*
X140831611Y-124715935D01*
X140867203Y-124762870D01*
X140867711Y-124764158D01*
X140870572Y-124767980D01*
X140894200Y-124831330D01*
X140916426Y-124887691D01*
X140916998Y-124892454D01*
X140919466Y-124899071D01*
X140921738Y-124920205D01*
X140948561Y-124944000D01*
X140991439Y-124944000D01*
X141018261Y-124920205D01*
X141020534Y-124899071D01*
X141023000Y-124892457D01*
X141023573Y-124887691D01*
X141045817Y-124831283D01*
X141069428Y-124767980D01*
X141072286Y-124764161D01*
X141072796Y-124762870D01*
X141108465Y-124715832D01*
X141153275Y-124655975D01*
X141213132Y-124611165D01*
X141260170Y-124575496D01*
X141261461Y-124574986D01*
X141265280Y-124572128D01*
X141328594Y-124548513D01*
X141384992Y-124526273D01*
X141389757Y-124525700D01*
X141396371Y-124523234D01*
X141500860Y-124512000D01*
X141709140Y-124512000D01*
X141813629Y-124523234D01*
X141820243Y-124525700D01*
X141825007Y-124526273D01*
X141881387Y-124548506D01*
X141944720Y-124572128D01*
X141948540Y-124574987D01*
X141949829Y-124575496D01*
X141996789Y-124611107D01*
X142056725Y-124655975D01*
X142101611Y-124715935D01*
X142137203Y-124762870D01*
X142137711Y-124764158D01*
X142140572Y-124767980D01*
X142164200Y-124831330D01*
X142186426Y-124887691D01*
X142186998Y-124892454D01*
X142189466Y-124899071D01*
X142191738Y-124920205D01*
X142218561Y-124944000D01*
X142261439Y-124944000D01*
X142288261Y-124920205D01*
X142290534Y-124899071D01*
X142293000Y-124892457D01*
X142293573Y-124887691D01*
X142315817Y-124831283D01*
X142339428Y-124767980D01*
X142342286Y-124764161D01*
X142342796Y-124762870D01*
X142378465Y-124715832D01*
X142423275Y-124655975D01*
X142483132Y-124611165D01*
X142530170Y-124575496D01*
X142531461Y-124574986D01*
X142535280Y-124572128D01*
X142598594Y-124548513D01*
X142654992Y-124526273D01*
X142659757Y-124525700D01*
X142666371Y-124523234D01*
X142770860Y-124512000D01*
X142979140Y-124512000D01*
X143083629Y-124523234D01*
X143090243Y-124525700D01*
X143095007Y-124526273D01*
X143151387Y-124548506D01*
X143214720Y-124572128D01*
X143218540Y-124574987D01*
X143219829Y-124575496D01*
X143266789Y-124611107D01*
X143326725Y-124655975D01*
X143371611Y-124715935D01*
X143407203Y-124762870D01*
X143407711Y-124764158D01*
X143410572Y-124767980D01*
X143434200Y-124831330D01*
X143456426Y-124887691D01*
X143456998Y-124892454D01*
X143459466Y-124899071D01*
X143461738Y-124920205D01*
X143488561Y-124944000D01*
X143531439Y-124944000D01*
X143558261Y-124920205D01*
X143560534Y-124899071D01*
X143563000Y-124892457D01*
X143563573Y-124887691D01*
X143585817Y-124831283D01*
X143609428Y-124767980D01*
X143612286Y-124764161D01*
X143612796Y-124762870D01*
X143648465Y-124715832D01*
X143693275Y-124655975D01*
X143753132Y-124611165D01*
X143800170Y-124575496D01*
X143801461Y-124574986D01*
X143805280Y-124572128D01*
X143868594Y-124548513D01*
X143924992Y-124526273D01*
X143929757Y-124525700D01*
X143936371Y-124523234D01*
X144040860Y-124512000D01*
X144249140Y-124512000D01*
X144353629Y-124523234D01*
X144360243Y-124525700D01*
X144365007Y-124526273D01*
X144421387Y-124548506D01*
X144484720Y-124572128D01*
X144488540Y-124574987D01*
X144489829Y-124575496D01*
X144536789Y-124611107D01*
X144596725Y-124655975D01*
X144641611Y-124715935D01*
X144677203Y-124762870D01*
X144677711Y-124764158D01*
X144680572Y-124767980D01*
X144704200Y-124831330D01*
X144726426Y-124887691D01*
X144726998Y-124892454D01*
X144729466Y-124899071D01*
X144731738Y-124920205D01*
X144758561Y-124944000D01*
X144801439Y-124944000D01*
X144828261Y-124920205D01*
X144830534Y-124899071D01*
X144833000Y-124892457D01*
X144833573Y-124887691D01*
X144855817Y-124831283D01*
X144879428Y-124767980D01*
X144882286Y-124764161D01*
X144882796Y-124762870D01*
X144918465Y-124715832D01*
X144963275Y-124655975D01*
X145023132Y-124611165D01*
X145070170Y-124575496D01*
X145071461Y-124574986D01*
X145075280Y-124572128D01*
X145138594Y-124548513D01*
X145194992Y-124526273D01*
X145199757Y-124525700D01*
X145206371Y-124523234D01*
X145310860Y-124512000D01*
X145519140Y-124512000D01*
X145623629Y-124523234D01*
X145630243Y-124525700D01*
X145635007Y-124526273D01*
X145691387Y-124548506D01*
X145754720Y-124572128D01*
X145758540Y-124574987D01*
X145759829Y-124575496D01*
X145806789Y-124611107D01*
X145866725Y-124655975D01*
X145911611Y-124715935D01*
X145947203Y-124762870D01*
X145947711Y-124764158D01*
X145950572Y-124767980D01*
X145974200Y-124831330D01*
X145996426Y-124887691D01*
X145996998Y-124892454D01*
X145999466Y-124899071D01*
X146001738Y-124920205D01*
X146028561Y-124944000D01*
X146071439Y-124944000D01*
X146098261Y-124920205D01*
X146100534Y-124899071D01*
X146103000Y-124892457D01*
X146103573Y-124887691D01*
X146125817Y-124831283D01*
X146149428Y-124767980D01*
X146152286Y-124764161D01*
X146152796Y-124762870D01*
X146188465Y-124715832D01*
X146233275Y-124655975D01*
X146293132Y-124611165D01*
X146340170Y-124575496D01*
X146341461Y-124574986D01*
X146345280Y-124572128D01*
X146408594Y-124548513D01*
X146464992Y-124526273D01*
X146469757Y-124525700D01*
X146476371Y-124523234D01*
X146580860Y-124512000D01*
X146789140Y-124512000D01*
X146893629Y-124523234D01*
X146900243Y-124525700D01*
X146905007Y-124526273D01*
X146961387Y-124548506D01*
X147024720Y-124572128D01*
X147028540Y-124574987D01*
X147029829Y-124575496D01*
X147076789Y-124611107D01*
X147136725Y-124655975D01*
X147181611Y-124715935D01*
X147217203Y-124762870D01*
X147217711Y-124764158D01*
X147220572Y-124767980D01*
X147244200Y-124831330D01*
X147266426Y-124887691D01*
X147266998Y-124892454D01*
X147269466Y-124899071D01*
X147271738Y-124920205D01*
X147298561Y-124944000D01*
X147341439Y-124944000D01*
X147368261Y-124920205D01*
X147370534Y-124899071D01*
X147373000Y-124892457D01*
X147373573Y-124887691D01*
X147395817Y-124831283D01*
X147419428Y-124767980D01*
X147422286Y-124764161D01*
X147422796Y-124762870D01*
X147458465Y-124715832D01*
X147503275Y-124655975D01*
X147563132Y-124611165D01*
X147610170Y-124575496D01*
X147611461Y-124574986D01*
X147615280Y-124572128D01*
X147678594Y-124548513D01*
X147734992Y-124526273D01*
X147739757Y-124525700D01*
X147746371Y-124523234D01*
X147850860Y-124512000D01*
X148059140Y-124512000D01*
X148163629Y-124523234D01*
X148170243Y-124525700D01*
X148175007Y-124526273D01*
X148231387Y-124548506D01*
X148294720Y-124572128D01*
X148298540Y-124574987D01*
X148299829Y-124575496D01*
X148346789Y-124611107D01*
X148406725Y-124655975D01*
X148451611Y-124715935D01*
X148487203Y-124762870D01*
X148487711Y-124764158D01*
X148490572Y-124767980D01*
X148514200Y-124831330D01*
X148536426Y-124887691D01*
X148536998Y-124892454D01*
X148539466Y-124899071D01*
X148541738Y-124920205D01*
X148568561Y-124944000D01*
X148611439Y-124944000D01*
X148638261Y-124920205D01*
X148640534Y-124899071D01*
X148643000Y-124892457D01*
X148643573Y-124887691D01*
X148665817Y-124831283D01*
X148689428Y-124767980D01*
X148692286Y-124764161D01*
X148692796Y-124762870D01*
X148728465Y-124715832D01*
X148773275Y-124655975D01*
X148833132Y-124611165D01*
X148880170Y-124575496D01*
X148881461Y-124574986D01*
X148885280Y-124572128D01*
X148948594Y-124548513D01*
X149004992Y-124526273D01*
X149009757Y-124525700D01*
X149016371Y-124523234D01*
X149120860Y-124512000D01*
X149329140Y-124512000D01*
X149433629Y-124523234D01*
X149440243Y-124525700D01*
X149445007Y-124526273D01*
X149501387Y-124548506D01*
X149564720Y-124572128D01*
X149568540Y-124574987D01*
X149569829Y-124575496D01*
X149616789Y-124611107D01*
X149676725Y-124655975D01*
X149721611Y-124715935D01*
X149757203Y-124762870D01*
X149757711Y-124764158D01*
X149760572Y-124767980D01*
X149784200Y-124831330D01*
X149806426Y-124887691D01*
X149806998Y-124892454D01*
X149809466Y-124899071D01*
X149811738Y-124920205D01*
X149838561Y-124944000D01*
X149881439Y-124944000D01*
X149908261Y-124920205D01*
X149910534Y-124899071D01*
X149913000Y-124892457D01*
X149913573Y-124887691D01*
X149935817Y-124831283D01*
X149959428Y-124767980D01*
X149962286Y-124764161D01*
X149962796Y-124762870D01*
X149998465Y-124715832D01*
X150043275Y-124655975D01*
X150103132Y-124611165D01*
X150150170Y-124575496D01*
X150151461Y-124574986D01*
X150155280Y-124572128D01*
X150218594Y-124548513D01*
X150274992Y-124526273D01*
X150279757Y-124525700D01*
X150286371Y-124523234D01*
X150390860Y-124512000D01*
X150599140Y-124512000D01*
X150703629Y-124523234D01*
X150710243Y-124525700D01*
X150715007Y-124526273D01*
X150771387Y-124548506D01*
X150834720Y-124572128D01*
X150838540Y-124574987D01*
X150839829Y-124575496D01*
X150886789Y-124611107D01*
X150946725Y-124655975D01*
X150991611Y-124715935D01*
X151027203Y-124762870D01*
X151027711Y-124764158D01*
X151030572Y-124767980D01*
X151054200Y-124831330D01*
X151076426Y-124887691D01*
X151076998Y-124892454D01*
X151079466Y-124899071D01*
X151081738Y-124920205D01*
X151108561Y-124944000D01*
X151151439Y-124944000D01*
X151178261Y-124920205D01*
X151180534Y-124899071D01*
X151183000Y-124892457D01*
X151183573Y-124887691D01*
X151205817Y-124831283D01*
X151229428Y-124767980D01*
X151232286Y-124764161D01*
X151232796Y-124762870D01*
X151268465Y-124715832D01*
X151313275Y-124655975D01*
X151373132Y-124611165D01*
X151420170Y-124575496D01*
X151421461Y-124574986D01*
X151425280Y-124572128D01*
X151488594Y-124548513D01*
X151544992Y-124526273D01*
X151549757Y-124525700D01*
X151556371Y-124523234D01*
X151660860Y-124512000D01*
X151869140Y-124512000D01*
X151973629Y-124523234D01*
X151980243Y-124525700D01*
X151985007Y-124526273D01*
X152041387Y-124548506D01*
X152104720Y-124572128D01*
X152108540Y-124574987D01*
X152109829Y-124575496D01*
X152156789Y-124611107D01*
X152216725Y-124655975D01*
X152261611Y-124715935D01*
X152297203Y-124762870D01*
X152297711Y-124764158D01*
X152300572Y-124767980D01*
X152324200Y-124831330D01*
X152346426Y-124887691D01*
X152346998Y-124892454D01*
X152349466Y-124899071D01*
X152351738Y-124920205D01*
X152378561Y-124944000D01*
X152421439Y-124944000D01*
X152448261Y-124920205D01*
X152450534Y-124899071D01*
X152453000Y-124892457D01*
X152453573Y-124887691D01*
X152475817Y-124831283D01*
X152499428Y-124767980D01*
X152502286Y-124764161D01*
X152502796Y-124762870D01*
X152538465Y-124715832D01*
X152583275Y-124655975D01*
X152643132Y-124611165D01*
X152690170Y-124575496D01*
X152691461Y-124574986D01*
X152695280Y-124572128D01*
X152758594Y-124548513D01*
X152814992Y-124526273D01*
X152819757Y-124525700D01*
X152826371Y-124523234D01*
X152930860Y-124512000D01*
X153139140Y-124512000D01*
X153243629Y-124523234D01*
X153250243Y-124525700D01*
X153255007Y-124526273D01*
X153311387Y-124548506D01*
X153374720Y-124572128D01*
X153378540Y-124574987D01*
X153379829Y-124575496D01*
X153426789Y-124611107D01*
X153486725Y-124655975D01*
X153531611Y-124715935D01*
X153567203Y-124762870D01*
X153567711Y-124764158D01*
X153570572Y-124767980D01*
X153594200Y-124831330D01*
X153616426Y-124887691D01*
X153616998Y-124892454D01*
X153619466Y-124899071D01*
X153621738Y-124920205D01*
X153648561Y-124944000D01*
X153691439Y-124944000D01*
X153718261Y-124920205D01*
X153720534Y-124899071D01*
X153723000Y-124892457D01*
X153723573Y-124887691D01*
X153745817Y-124831283D01*
X153769428Y-124767980D01*
X153772286Y-124764161D01*
X153772796Y-124762870D01*
X153808465Y-124715832D01*
X153853275Y-124655975D01*
X153913132Y-124611165D01*
X153960170Y-124575496D01*
X153961461Y-124574986D01*
X153965280Y-124572128D01*
X154028594Y-124548513D01*
X154084992Y-124526273D01*
X154089757Y-124525700D01*
X154096371Y-124523234D01*
X154200860Y-124512000D01*
X154409140Y-124512000D01*
X154513629Y-124523234D01*
X154520243Y-124525700D01*
X154525007Y-124526273D01*
X154581387Y-124548506D01*
X154644720Y-124572128D01*
X154648540Y-124574987D01*
X154649829Y-124575496D01*
X154696789Y-124611107D01*
X154756725Y-124655975D01*
X154801611Y-124715935D01*
X154837203Y-124762870D01*
X154837711Y-124764158D01*
X154840572Y-124767980D01*
X154864200Y-124831330D01*
X154886426Y-124887691D01*
X154886998Y-124892454D01*
X154889466Y-124899071D01*
X154891738Y-124920205D01*
X154918561Y-124944000D01*
X154961439Y-124944000D01*
X154988261Y-124920205D01*
X154990534Y-124899071D01*
X154993000Y-124892457D01*
X154993573Y-124887691D01*
X155015817Y-124831283D01*
X155039428Y-124767980D01*
X155042286Y-124764161D01*
X155042796Y-124762870D01*
X155078465Y-124715832D01*
X155123275Y-124655975D01*
X155183132Y-124611165D01*
X155230170Y-124575496D01*
X155231461Y-124574986D01*
X155235280Y-124572128D01*
X155298594Y-124548513D01*
X155354992Y-124526273D01*
X155359757Y-124525700D01*
X155366371Y-124523234D01*
X155470860Y-124512000D01*
X155679140Y-124512000D01*
X155783629Y-124523234D01*
X155790243Y-124525700D01*
X155795007Y-124526273D01*
X155851387Y-124548506D01*
X155914720Y-124572128D01*
X155918540Y-124574987D01*
X155919829Y-124575496D01*
X155966789Y-124611107D01*
X156026725Y-124655975D01*
X156071611Y-124715935D01*
X156107203Y-124762870D01*
X156107711Y-124764158D01*
X156110572Y-124767980D01*
X156134200Y-124831330D01*
X156156426Y-124887691D01*
X156156998Y-124892454D01*
X156159466Y-124899071D01*
X156161738Y-124920205D01*
X156188561Y-124944000D01*
X156231439Y-124944000D01*
X156258261Y-124920205D01*
X156260534Y-124899071D01*
X156263000Y-124892457D01*
X156263573Y-124887691D01*
X156285817Y-124831283D01*
X156309428Y-124767980D01*
X156312286Y-124764161D01*
X156312796Y-124762870D01*
X156348465Y-124715832D01*
X156393275Y-124655975D01*
X156453132Y-124611165D01*
X156500170Y-124575496D01*
X156501461Y-124574986D01*
X156505280Y-124572128D01*
X156568594Y-124548513D01*
X156624992Y-124526273D01*
X156629757Y-124525700D01*
X156636371Y-124523234D01*
X156740860Y-124512000D01*
X156949140Y-124512000D01*
X157053629Y-124523234D01*
X157060243Y-124525700D01*
X157065007Y-124526273D01*
X157121387Y-124548506D01*
X157184720Y-124572128D01*
X157188540Y-124574987D01*
X157189829Y-124575496D01*
X157236789Y-124611107D01*
X157296725Y-124655975D01*
X157341611Y-124715935D01*
X157377203Y-124762870D01*
X157377711Y-124764158D01*
X157380572Y-124767980D01*
X157404200Y-124831330D01*
X157426426Y-124887691D01*
X157426998Y-124892454D01*
X157429466Y-124899071D01*
X157431738Y-124920205D01*
X157458561Y-124944000D01*
X157501439Y-124944000D01*
X157528261Y-124920205D01*
X157530534Y-124899071D01*
X157533000Y-124892457D01*
X157533573Y-124887691D01*
X157555817Y-124831283D01*
X157579428Y-124767980D01*
X157582286Y-124764161D01*
X157582796Y-124762870D01*
X157618465Y-124715832D01*
X157663275Y-124655975D01*
X157723132Y-124611165D01*
X157770170Y-124575496D01*
X157771461Y-124574986D01*
X157775280Y-124572128D01*
X157838594Y-124548513D01*
X157894992Y-124526273D01*
X157899757Y-124525700D01*
X157906371Y-124523234D01*
X158010860Y-124512000D01*
X158219140Y-124512000D01*
X158323629Y-124523234D01*
X158330243Y-124525700D01*
X158335007Y-124526273D01*
X158391387Y-124548506D01*
X158454720Y-124572128D01*
X158458540Y-124574987D01*
X158459829Y-124575496D01*
X158506789Y-124611107D01*
X158566725Y-124655975D01*
X158611611Y-124715935D01*
X158647203Y-124762870D01*
X158647711Y-124764158D01*
X158650572Y-124767980D01*
X158674200Y-124831330D01*
X158696426Y-124887691D01*
X158696998Y-124892454D01*
X158699466Y-124899071D01*
X158701738Y-124920205D01*
X158728561Y-124944000D01*
X158771439Y-124944000D01*
X158798261Y-124920205D01*
X158800534Y-124899071D01*
X158803000Y-124892457D01*
X158803573Y-124887691D01*
X158825817Y-124831283D01*
X158849428Y-124767980D01*
X158852286Y-124764161D01*
X158852796Y-124762870D01*
X158888465Y-124715832D01*
X158933275Y-124655975D01*
X158993132Y-124611165D01*
X159040170Y-124575496D01*
X159041461Y-124574986D01*
X159045280Y-124572128D01*
X159108594Y-124548513D01*
X159164992Y-124526273D01*
X159169757Y-124525700D01*
X159176371Y-124523234D01*
X159280860Y-124512000D01*
X159489140Y-124512000D01*
X159593629Y-124523234D01*
X159600243Y-124525700D01*
X159605007Y-124526273D01*
X159661387Y-124548506D01*
X159724720Y-124572128D01*
X159728540Y-124574987D01*
X159729829Y-124575496D01*
X159776789Y-124611107D01*
X159836725Y-124655975D01*
X159881611Y-124715935D01*
X159917203Y-124762870D01*
X159917711Y-124764158D01*
X159920572Y-124767980D01*
X159944200Y-124831330D01*
X159966426Y-124887691D01*
X159966998Y-124892454D01*
X159969466Y-124899071D01*
X159971738Y-124920205D01*
X159998561Y-124944000D01*
X160041439Y-124944000D01*
X160068261Y-124920205D01*
X160070534Y-124899071D01*
X160073000Y-124892457D01*
X160073573Y-124887691D01*
X160095817Y-124831283D01*
X160119428Y-124767980D01*
X160122286Y-124764161D01*
X160122796Y-124762870D01*
X160158465Y-124715832D01*
X160203275Y-124655975D01*
X160263132Y-124611165D01*
X160310170Y-124575496D01*
X160311461Y-124574986D01*
X160315280Y-124572128D01*
X160378594Y-124548513D01*
X160434992Y-124526273D01*
X160439757Y-124525700D01*
X160446371Y-124523234D01*
X160550860Y-124512000D01*
X160759140Y-124512000D01*
X160863629Y-124523234D01*
X160870243Y-124525700D01*
X160875007Y-124526273D01*
X160931387Y-124548506D01*
X160994720Y-124572128D01*
X160998540Y-124574987D01*
X160999829Y-124575496D01*
X161046789Y-124611107D01*
X161106725Y-124655975D01*
X161151611Y-124715935D01*
X161187203Y-124762870D01*
X161187711Y-124764158D01*
X161190572Y-124767980D01*
X161214200Y-124831330D01*
X161236426Y-124887691D01*
X161236998Y-124892454D01*
X161239466Y-124899071D01*
X161241738Y-124920205D01*
X161268561Y-124944000D01*
X161311439Y-124944000D01*
X161338261Y-124920205D01*
X161340534Y-124899071D01*
X161343000Y-124892457D01*
X161343573Y-124887691D01*
X161365817Y-124831283D01*
X161389428Y-124767980D01*
X161392286Y-124764161D01*
X161392796Y-124762870D01*
X161428465Y-124715832D01*
X161473275Y-124655975D01*
X161533132Y-124611165D01*
X161580170Y-124575496D01*
X161581461Y-124574986D01*
X161585280Y-124572128D01*
X161648594Y-124548513D01*
X161704992Y-124526273D01*
X161709757Y-124525700D01*
X161716371Y-124523234D01*
X161820860Y-124512000D01*
X162029140Y-124512000D01*
X162133629Y-124523234D01*
X162140243Y-124525700D01*
X162145007Y-124526273D01*
X162201387Y-124548506D01*
X162264720Y-124572128D01*
X162268540Y-124574987D01*
X162269829Y-124575496D01*
X162316789Y-124611107D01*
X162376725Y-124655975D01*
X162421611Y-124715935D01*
X162457203Y-124762870D01*
X162457711Y-124764158D01*
X162460572Y-124767980D01*
X162484200Y-124831330D01*
X162506426Y-124887691D01*
X162506998Y-124892454D01*
X162509466Y-124899071D01*
X162511738Y-124920205D01*
X162538561Y-124944000D01*
X162581439Y-124944000D01*
X162608261Y-124920205D01*
X162610534Y-124899071D01*
X162613000Y-124892457D01*
X162613573Y-124887691D01*
X162635817Y-124831283D01*
X162659428Y-124767980D01*
X162662286Y-124764161D01*
X162662796Y-124762870D01*
X162698465Y-124715832D01*
X162743275Y-124655975D01*
X162803132Y-124611165D01*
X162850170Y-124575496D01*
X162851461Y-124574986D01*
X162855280Y-124572128D01*
X162918594Y-124548513D01*
X162974992Y-124526273D01*
X162979757Y-124525700D01*
X162986371Y-124523234D01*
X163090860Y-124512000D01*
X163299140Y-124512000D01*
X163403629Y-124523234D01*
X163410243Y-124525700D01*
X163415007Y-124526273D01*
X163471387Y-124548506D01*
X163534720Y-124572128D01*
X163538540Y-124574987D01*
X163539829Y-124575496D01*
X163586789Y-124611107D01*
X163646725Y-124655975D01*
X163691611Y-124715935D01*
X163727203Y-124762870D01*
X163727710Y-124764158D01*
X163730572Y-124767980D01*
X163754204Y-124831340D01*
X163776426Y-124887692D01*
X163776997Y-124892453D01*
X163779466Y-124899071D01*
X163790700Y-125003560D01*
X163790700Y-127218440D01*
X163779466Y-127322929D01*
X163776997Y-127329547D01*
X163776426Y-127334307D01*
X163754211Y-127390640D01*
X163730572Y-127454020D01*
X163727710Y-127457842D01*
X163727203Y-127459129D01*
X163691669Y-127505986D01*
X163646725Y-127566025D01*
X163586686Y-127610969D01*
X163539829Y-127646503D01*
X163538542Y-127647010D01*
X163534720Y-127649872D01*
X163471340Y-127673511D01*
X163415007Y-127695726D01*
X163410247Y-127696297D01*
X163403629Y-127698766D01*
X163299140Y-127710000D01*
X163239691Y-127710000D01*
X163228965Y-127713275D01*
X163223428Y-127717753D01*
X163208773Y-127717486D01*
X163195000Y-127722500D01*
X163188417Y-127722500D01*
X123831583Y-127722500D01*
X123825000Y-127722500D01*
X123795073Y-127717223D01*
X123789987Y-127712955D01*
X123780307Y-127710000D01*
X123720860Y-127710000D01*
X123616371Y-127698766D01*
X123609753Y-127696297D01*
X123604992Y-127695726D01*
X123548640Y-127673504D01*
X123485280Y-127649872D01*
X123481458Y-127647010D01*
X123480170Y-127646503D01*
X123433235Y-127610911D01*
X123373275Y-127566025D01*
X123328407Y-127506089D01*
X123292796Y-127459129D01*
X123292287Y-127457840D01*
X123289428Y-127454020D01*
X123265806Y-127390687D01*
X123243573Y-127334307D01*
X123243000Y-127329543D01*
X123240534Y-127322929D01*
X123229300Y-127218440D01*
X123229300Y-125003560D01*
X123240534Y-124899071D01*
X123243000Y-124892457D01*
X123243573Y-124887692D01*
X123265813Y-124831294D01*
X123289428Y-124767980D01*
X123292286Y-124764161D01*
X123292796Y-124762870D01*
X123328465Y-124715832D01*
X123373275Y-124655975D01*
X123433132Y-124611165D01*
X123480170Y-124575496D01*
X123481461Y-124574986D01*
X123485280Y-124572128D01*
X123548594Y-124548513D01*
X123604992Y-124526273D01*
X123609757Y-124525700D01*
X123616371Y-124523234D01*
X123720860Y-124512000D01*
X123929140Y-124512000D01*
X124033629Y-124523234D01*
G37*
G36*
X75599105Y-125278152D02*
G01*
X75752132Y-125331699D01*
X75889407Y-125417954D01*
X76004046Y-125532593D01*
X76090301Y-125669868D01*
X76143848Y-125822895D01*
X76162000Y-125984000D01*
X76143848Y-126145105D01*
X76090301Y-126298132D01*
X76004046Y-126435407D01*
X75889407Y-126550046D01*
X75752132Y-126636301D01*
X75599105Y-126689848D01*
X75438000Y-126708000D01*
X75276895Y-126689848D01*
X75123868Y-126636301D01*
X74986593Y-126550046D01*
X74871954Y-126435407D01*
X74785699Y-126298132D01*
X74732152Y-126145105D01*
X74714000Y-125984000D01*
X74732152Y-125822895D01*
X74785699Y-125669868D01*
X74871954Y-125532593D01*
X74986593Y-125417954D01*
X75123868Y-125331699D01*
X75276895Y-125278152D01*
X75438000Y-125260000D01*
X75599105Y-125278152D01*
G37*
G36*
X168055105Y-125278152D02*
G01*
X168208132Y-125331699D01*
X168345407Y-125417954D01*
X168460046Y-125532593D01*
X168546301Y-125669868D01*
X168599848Y-125822895D01*
X168618000Y-125984000D01*
X168599848Y-126145105D01*
X168546301Y-126298132D01*
X168460046Y-126435407D01*
X168345407Y-126550046D01*
X168208132Y-126636301D01*
X168055105Y-126689848D01*
X167894000Y-126708000D01*
X167732895Y-126689848D01*
X167579868Y-126636301D01*
X167442593Y-126550046D01*
X167327954Y-126435407D01*
X167241699Y-126298132D01*
X167188152Y-126145105D01*
X167170000Y-125984000D01*
X167188152Y-125822895D01*
X167241699Y-125669868D01*
X167327954Y-125532593D01*
X167442593Y-125417954D01*
X167579868Y-125331699D01*
X167732895Y-125278152D01*
X167894000Y-125260000D01*
X168055105Y-125278152D01*
G37*
G36*
X73567105Y-103561152D02*
G01*
X73720132Y-103614699D01*
X73857407Y-103700954D01*
X73972046Y-103815593D01*
X74058301Y-103952868D01*
X74111848Y-104105895D01*
X74130000Y-104267000D01*
X74111848Y-104428105D01*
X74058301Y-104581132D01*
X73972046Y-104718407D01*
X73857407Y-104833046D01*
X73720132Y-104919301D01*
X73567105Y-104972848D01*
X73406000Y-104991000D01*
X73244895Y-104972848D01*
X73091868Y-104919301D01*
X72954593Y-104833046D01*
X72839954Y-104718407D01*
X72753699Y-104581132D01*
X72700152Y-104428105D01*
X72682000Y-104267000D01*
X72700152Y-104105895D01*
X72753699Y-103952868D01*
X72839954Y-103815593D01*
X72954593Y-103700954D01*
X73091868Y-103614699D01*
X73244895Y-103561152D01*
X73406000Y-103543000D01*
X73567105Y-103561152D01*
G37*
G36*
X168055105Y-103561152D02*
G01*
X168208132Y-103614699D01*
X168345407Y-103700954D01*
X168460046Y-103815593D01*
X168546301Y-103952868D01*
X168599848Y-104105895D01*
X168618000Y-104267000D01*
X168599848Y-104428105D01*
X168546301Y-104581132D01*
X168460046Y-104718407D01*
X168345407Y-104833046D01*
X168208132Y-104919301D01*
X168055105Y-104972848D01*
X167894000Y-104991000D01*
X167732895Y-104972848D01*
X167579868Y-104919301D01*
X167442593Y-104833046D01*
X167327954Y-104718407D01*
X167241699Y-104581132D01*
X167188152Y-104428105D01*
X167170000Y-104267000D01*
X167188152Y-104105895D01*
X167241699Y-103952868D01*
X167327954Y-103815593D01*
X167442593Y-103700954D01*
X167579868Y-103614699D01*
X167732895Y-103561152D01*
X167894000Y-103543000D01*
X168055105Y-103561152D01*
G37*
M02*
