M48
; DRILL file {KiCad 7.0.10} date Friday, February 16, 2024 at 05:31:47 PM
; FORMAT={-:-/ absolute / metric / decimal}
; #@! TF.CreationDate,2024-02-16T17:31:47-05:00
; #@! TF.GenerationSoftware,Kicad,Pcbnew,7.0.10
; #@! TF.FileFunction,MixedPlating,1,4
FMAT,2
METRIC
; #@! TA.AperFunction,Plated,PTH,ViaDrill
T1C0.200
; #@! TA.AperFunction,Plated,PTH,ViaDrill
T2C0.300
; #@! TA.AperFunction,Plated,PTH,ViaDrill
T3C0.400
; #@! TA.AperFunction,Plated,PTH,ComponentDrill
T4C0.508
; #@! TA.AperFunction,NonPlated,NPTH,ComponentDrill
T5C1.152
%
G90
G05
T1
X72.581Y-105.791
X72.581Y-107.315
X72.581Y-109.855
X72.581Y-112.395
X72.581Y-114.935
X72.581Y-117.475
X72.581Y-120.459
X74.93Y-114.935
X76.581Y-120.396
X77.47Y-103.441
X77.6Y-112.9
X78.55Y-120.373
X78.95Y-116.05
X78.95Y-118.35
X78.95Y-121.95
X79.25Y-112.9
X79.6Y-118.35
X79.6Y-121.15
X80.01Y-103.441
X80.25Y-121.95
X80.9Y-121.05
X81.55Y-121.85
X82.2Y-121.05
X82.55Y-103.441
X82.85Y-121.95
X83.5Y-118.3
X83.5Y-121.15
X84.15Y-116.1
X84.15Y-121.95
X84.8Y-118.35
X84.8Y-121.95
X85.09Y-103.441
X85.45Y-121.6
X85.45Y-123.1
X86.2Y-119.75
X86.35Y-120.75
X86.35Y-123.95
X86.6Y-114.7
X87.25Y-121.6
X87.25Y-123.1
X87.63Y-103.441
X87.9Y-111.2
X88.75Y-104.45
X88.75Y-105.45
X88.75Y-106.45
X88.75Y-107.45
X88.75Y-108.45
X88.75Y-109.45
X88.75Y-110.45
X88.75Y-111.95
X88.75Y-112.95
X88.75Y-113.95
X88.75Y-114.95
X90.65Y-103.95
X90.65Y-104.95
X90.65Y-105.95
X90.65Y-106.95
X90.65Y-107.95
X90.65Y-108.95
X90.65Y-110.2
X90.65Y-111.45
X90.65Y-112.45
X90.65Y-113.45
X90.65Y-114.45
X90.9Y-121.55
X91.35Y-115.75
X91.9Y-119.65
X92.4Y-108.45
X92.71Y-103.441
X94.1Y-110.55
X94.1Y-117.7
X95.25Y-103.441
X95.6Y-121.6
X95.6Y-123.1
X95.85Y-118.1
X96.45Y-117.2
X96.5Y-120.75
X96.5Y-123.95
X97.4Y-121.45
X97.4Y-123.1
X97.79Y-103.441
X98.35Y-117.15
X98.35Y-118.15
X98.4Y-121.25
X98.45Y-120.1
X99.25Y-121.95
X99.35Y-118.35
X99.9Y-121.15
X100.33Y-103.441
X100.55Y-121.95
X101.2Y-121.15
X101.85Y-121.95
X102.5Y-121.15
X102.87Y-103.441
X103.15Y-121.95
X103.8Y-121.15
X104.45Y-121.95
X104.8Y-110.35
X105.1Y-118.35
X105.1Y-121.9
X105.41Y-103.441
X105.813Y-121.6
X105.813Y-123.1
X106.713Y-123.95
X106.75Y-120.75
X107.315Y-103.441
X107.55Y-110.35
X107.614Y-123.1
X107.95Y-119.4
X108.0Y-120.55
X108.25Y-104.95
X108.25Y-109.7
X108.25Y-114.45
X108.6Y-121.35
X109.45Y-118.35
X109.45Y-121.95
X110.1Y-121.21
X110.15Y-104.45
X110.15Y-109.45
X110.15Y-114.45
X110.75Y-120.49
X110.75Y-121.95
X110.85Y-104.65
X111.0Y-108.55
X111.05Y-110.35
X111.4Y-121.21
X112.05Y-121.95
X112.5Y-108.55
X112.5Y-110.35
X112.7Y-121.15
X113.03Y-103.441
X113.35Y-109.45
X113.35Y-121.95
X114.0Y-121.15
X114.65Y-121.95
X115.25Y-108.65
X115.25Y-110.35
X115.3Y-118.3
X115.3Y-121.95
X115.57Y-103.441
X115.95Y-121.6
X115.95Y-123.1
X116.4Y-116.25
X116.45Y-108.45
X116.7Y-118.15
X116.85Y-123.95
X117.75Y-121.6
X117.8Y-123.1
X118.11Y-103.441
X118.745Y-125.73
X119.1Y-116.25
X119.15Y-123.25
X119.55Y-120.85
X119.6Y-118.05
X119.65Y-110.95
X120.1Y-116.25
X120.587Y-103.441
X120.65Y-125.095
X120.85Y-121.2
X121.4Y-116.25
X122.15Y-118.35
X122.15Y-121.95
X122.555Y-125.73
X122.8Y-121.15
X123.126Y-103.441
X123.2Y-112.95
X123.45Y-121.95
X124.1Y-121.15
X124.35Y-112.45
X124.75Y-121.95
X125.2Y-108.5
X125.2Y-110.3
X125.25Y-109.4
X125.4Y-121.2
X125.603Y-103.441
X126.05Y-121.95
X126.1Y-108.5
X126.1Y-110.3
X126.7Y-121.15
X127.35Y-121.95
X127.6Y-108.5
X127.6Y-110.3
X128.0Y-118.35
X128.0Y-121.95
X128.143Y-103.441
X128.45Y-109.4
X128.65Y-121.6
X128.65Y-123.1
X129.55Y-120.75
X129.55Y-123.95
X130.4Y-118.8
X130.45Y-121.6
X130.45Y-123.1
X130.683Y-103.441
X130.95Y-110.95
X131.55Y-104.45
X131.55Y-105.45
X131.55Y-106.45
X131.55Y-107.45
X131.55Y-108.45
X131.55Y-109.45
X131.55Y-110.45
X131.55Y-111.95
X131.55Y-112.95
X131.55Y-113.95
X131.55Y-114.95
X132.3Y-118.35
X132.3Y-121.95
X132.95Y-121.15
X133.45Y-103.95
X133.45Y-104.95
X133.45Y-105.95
X133.45Y-106.95
X133.45Y-107.95
X133.45Y-108.95
X133.45Y-109.95
X133.45Y-111.45
X133.45Y-112.45
X133.45Y-113.45
X133.45Y-114.45
X133.45Y-115.45
X133.6Y-121.95
X134.25Y-121.15
X134.62Y-103.441
X134.9Y-118.35
X134.9Y-121.95
X135.1Y-106.4
X135.4Y-107.5
X135.55Y-121.15
X135.6Y-111.05
X135.85Y-114.05
X136.2Y-115.45
X136.2Y-121.95
X136.25Y-109.45
X136.398Y-103.441
X136.85Y-121.15
X137.5Y-121.95
X137.55Y-114.3
X138.15Y-118.35
X138.15Y-121.95
X138.303Y-103.441
X138.45Y-104.45
X138.8Y-121.6
X138.8Y-123.1
X139.55Y-123.925
X139.7Y-120.75
X140.2Y-118.9
X140.6Y-121.6
X140.843Y-103.441
X141.5Y-120.75
X142.4Y-123.1
X143.383Y-103.441
X143.65Y-116.05
X143.65Y-118.35
X143.65Y-121.95
X144.3Y-121.15
X144.95Y-121.95
X145.6Y-121.15
X145.923Y-103.441
X146.25Y-121.95
X146.55Y-115.7
X146.9Y-121.15
X147.55Y-121.95
X147.6Y-115.7
X147.7Y-107.55
X148.05Y-110.95
X148.2Y-121.15
X148.4Y-105.95
X148.463Y-103.441
X148.85Y-121.95
X149.0Y-119.55
X149.5Y-118.35
X149.5Y-121.95
X149.85Y-116.05
X150.15Y-121.6
X150.15Y-123.1
X150.5Y-106.45
X150.55Y-104.45
X150.8Y-116.35
X151.0Y-104.95
X151.003Y-103.441
X151.05Y-123.95
X151.1Y-117.4
X152.6Y-118.35
X152.6Y-121.95
X152.8Y-116.05
X152.85Y-109.45
X152.95Y-104.3
X152.95Y-105.0
X152.95Y-114.45
X153.1Y-106.95
X153.25Y-121.15
X153.543Y-103.441
X153.6Y-108.55
X153.786Y-110.314
X153.9Y-121.95
X154.55Y-121.15
X154.95Y-108.6
X155.1Y-110.35
X155.1Y-115.5
X155.2Y-121.95
X155.85Y-121.15
X156.083Y-103.441
X156.5Y-121.95
X157.15Y-121.15
X157.353Y-105.918
X157.353Y-113.411
X157.8Y-121.95
X158.45Y-121.95
X158.623Y-103.441
X158.623Y-108.204
X159.1Y-121.6
X159.1Y-123.1
X159.6Y-116.8
X159.893Y-105.918
X159.893Y-115.824
X160.0Y-120.75
X160.0Y-123.95
X160.528Y-103.441
X160.9Y-121.6
X160.9Y-123.1
X161.29Y-120.015
X163.703Y-103.441
X163.703Y-117.475
X163.83Y-122.555
X165.163Y-103.441
X166.37Y-120.015
X166.624Y-103.441
X168.719Y-105.791
X168.719Y-107.315
X168.719Y-109.855
X168.719Y-112.395
X168.719Y-114.935
X168.719Y-117.475
X168.719Y-120.015
X168.719Y-122.301
T2
X76.55Y-113.75
T3
X76.1Y-111.15
X76.55Y-121.873
X77.3Y-110.25
X77.6Y-114.8
X77.6Y-122.873
X79.1Y-114.8
X79.4Y-109.3
X80.1Y-113.75
X80.6Y-110.2
X80.6Y-112.1
X85.55Y-107.95
X85.6Y-109.45
X86.6Y-106.95
X86.6Y-110.45
X87.55Y-109.45
X87.65Y-107.95
T4
X78.105Y-125.095
X79.375Y-125.095
X80.645Y-125.095
X81.915Y-125.095
X83.185Y-125.095
X84.455Y-125.095
X85.725Y-125.095
X86.995Y-125.095
X88.265Y-125.095
X89.535Y-125.095
X90.805Y-125.095
X92.075Y-125.095
X93.345Y-125.095
X94.615Y-125.095
X95.885Y-125.095
X97.155Y-125.095
X98.425Y-125.095
X99.695Y-125.095
X100.965Y-125.095
X102.235Y-125.095
X103.505Y-125.095
X104.775Y-125.095
X106.045Y-125.095
X107.315Y-125.095
X108.585Y-125.095
X109.855Y-125.095
X111.125Y-125.095
X112.395Y-125.095
X113.665Y-125.095
X114.935Y-125.095
X116.205Y-125.095
X117.475Y-125.095
X123.825Y-125.095
X125.095Y-125.095
X126.365Y-125.095
X127.635Y-125.095
X128.905Y-125.095
X130.175Y-125.095
X131.445Y-125.095
X132.715Y-125.095
X133.985Y-125.095
X135.255Y-125.095
X136.525Y-125.095
X137.795Y-125.095
X139.065Y-125.095
X140.335Y-125.095
X141.605Y-125.095
X142.875Y-125.095
X144.145Y-125.095
X145.415Y-125.095
X146.685Y-125.095
X147.955Y-125.095
X149.225Y-125.095
X150.495Y-125.095
X151.765Y-125.095
X153.035Y-125.095
X154.305Y-125.095
X155.575Y-125.095
X156.845Y-125.095
X158.115Y-125.095
X159.385Y-125.095
X160.655Y-125.095
X161.925Y-125.095
X163.195Y-125.095
T5
X73.406Y-104.267
X75.438Y-125.984
X167.894Y-104.267
X167.894Y-125.984
M30
