G04 #@! TF.GenerationSoftware,KiCad,Pcbnew,(6.0.1-0)*
G04 #@! TF.CreationDate,2022-02-13T04:03:45-05:00*
G04 #@! TF.ProjectId,ROMSIMM,524f4d53-494d-44d2-9e6b-696361645f70,1.0*
G04 #@! TF.SameCoordinates,Original*
G04 #@! TF.FileFunction,Legend,Bot*
G04 #@! TF.FilePolarity,Positive*
%FSLAX46Y46*%
G04 Gerber Fmt 4.6, Leading zero omitted, Abs format (unit mm)*
G04 Created by KiCad (PCBNEW (6.0.1-0)) date 2022-02-13 04:03:45*
%MOMM*%
%LPD*%
G01*
G04 APERTURE LIST*
G04 Aperture macros list*
%AMRoundRect*
0 Rectangle with rounded corners*
0 $1 Rounding radius*
0 $2 $3 $4 $5 $6 $7 $8 $9 X,Y pos of 4 corners*
0 Add a 4 corners polygon primitive as box body*
4,1,4,$2,$3,$4,$5,$6,$7,$8,$9,$2,$3,0*
0 Add four circle primitives for the rounded corners*
1,1,$1+$1,$2,$3*
1,1,$1+$1,$4,$5*
1,1,$1+$1,$6,$7*
1,1,$1+$1,$8,$9*
0 Add four rect primitives between the rounded corners*
20,1,$1+$1,$2,$3,$4,$5,0*
20,1,$1+$1,$4,$5,$6,$7,0*
20,1,$1+$1,$6,$7,$8,$9,0*
20,1,$1+$1,$8,$9,$2,$3,0*%
G04 Aperture macros list end*
%ADD10C,0.203200*%
%ADD11C,0.300000*%
%ADD12C,0.225000*%
%ADD13C,0.175000*%
%ADD14RoundRect,0.491560X-0.104140X-1.107440X0.104140X-1.107440X0.104140X1.107440X-0.104140X1.107440X0*%
%ADD15C,1.448000*%
G04 APERTURE END LIST*
D10*
X109440133Y-114869685D02*
X109053085Y-114869685D01*
X109294990Y-115547019D02*
X109294990Y-114676161D01*
X109246609Y-114579400D01*
X109149847Y-114531019D01*
X109053085Y-114531019D01*
X108569276Y-115547019D02*
X108666038Y-115498638D01*
X108714419Y-115450257D01*
X108762800Y-115353495D01*
X108762800Y-115063209D01*
X108714419Y-114966447D01*
X108666038Y-114918066D01*
X108569276Y-114869685D01*
X108424133Y-114869685D01*
X108327371Y-114918066D01*
X108278990Y-114966447D01*
X108230609Y-115063209D01*
X108230609Y-115353495D01*
X108278990Y-115450257D01*
X108327371Y-115498638D01*
X108424133Y-115547019D01*
X108569276Y-115547019D01*
X107795180Y-115547019D02*
X107795180Y-114869685D01*
X107795180Y-115063209D02*
X107746800Y-114966447D01*
X107698419Y-114918066D01*
X107601657Y-114869685D01*
X107504895Y-114869685D01*
X106392133Y-115547019D02*
X106392133Y-114531019D01*
X106053466Y-115256733D01*
X105714800Y-114531019D01*
X105714800Y-115547019D01*
X104795561Y-115547019D02*
X104795561Y-115014828D01*
X104843942Y-114918066D01*
X104940704Y-114869685D01*
X105134228Y-114869685D01*
X105230990Y-114918066D01*
X104795561Y-115498638D02*
X104892323Y-115547019D01*
X105134228Y-115547019D01*
X105230990Y-115498638D01*
X105279371Y-115401876D01*
X105279371Y-115305114D01*
X105230990Y-115208352D01*
X105134228Y-115159971D01*
X104892323Y-115159971D01*
X104795561Y-115111590D01*
X103876323Y-115498638D02*
X103973085Y-115547019D01*
X104166609Y-115547019D01*
X104263371Y-115498638D01*
X104311752Y-115450257D01*
X104360133Y-115353495D01*
X104360133Y-115063209D01*
X104311752Y-114966447D01*
X104263371Y-114918066D01*
X104166609Y-114869685D01*
X103973085Y-114869685D01*
X103876323Y-114918066D01*
X102666800Y-115547019D02*
X102666800Y-114531019D01*
X102182990Y-115547019D02*
X102182990Y-114531019D01*
X100489657Y-115547019D02*
X100489657Y-115014828D01*
X100538038Y-114918066D01*
X100634800Y-114869685D01*
X100828323Y-114869685D01*
X100925085Y-114918066D01*
X100489657Y-115498638D02*
X100586419Y-115547019D01*
X100828323Y-115547019D01*
X100925085Y-115498638D01*
X100973466Y-115401876D01*
X100973466Y-115305114D01*
X100925085Y-115208352D01*
X100828323Y-115159971D01*
X100586419Y-115159971D01*
X100489657Y-115111590D01*
X100005847Y-114869685D02*
X100005847Y-115547019D01*
X100005847Y-114966447D02*
X99957466Y-114918066D01*
X99860704Y-114869685D01*
X99715561Y-114869685D01*
X99618800Y-114918066D01*
X99570419Y-115014828D01*
X99570419Y-115547019D01*
X98651180Y-115547019D02*
X98651180Y-114531019D01*
X98651180Y-115498638D02*
X98747942Y-115547019D01*
X98941466Y-115547019D01*
X99038228Y-115498638D01*
X99086609Y-115450257D01*
X99134990Y-115353495D01*
X99134990Y-115063209D01*
X99086609Y-114966447D01*
X99038228Y-114918066D01*
X98941466Y-114869685D01*
X98747942Y-114869685D01*
X98651180Y-114918066D01*
X97441657Y-115498638D02*
X97296514Y-115547019D01*
X97054609Y-115547019D01*
X96957847Y-115498638D01*
X96909466Y-115450257D01*
X96861085Y-115353495D01*
X96861085Y-115256733D01*
X96909466Y-115159971D01*
X96957847Y-115111590D01*
X97054609Y-115063209D01*
X97248133Y-115014828D01*
X97344895Y-114966447D01*
X97393276Y-114918066D01*
X97441657Y-114821304D01*
X97441657Y-114724542D01*
X97393276Y-114627780D01*
X97344895Y-114579400D01*
X97248133Y-114531019D01*
X97006228Y-114531019D01*
X96861085Y-114579400D01*
X96425657Y-115014828D02*
X96086990Y-115014828D01*
X95941847Y-115547019D02*
X96425657Y-115547019D01*
X96425657Y-114531019D01*
X95941847Y-114531019D01*
X94780704Y-114482638D02*
X95651561Y-115788923D01*
X94538800Y-114531019D02*
X93909847Y-114531019D01*
X94248514Y-114918066D01*
X94103371Y-114918066D01*
X94006609Y-114966447D01*
X93958228Y-115014828D01*
X93909847Y-115111590D01*
X93909847Y-115353495D01*
X93958228Y-115450257D01*
X94006609Y-115498638D01*
X94103371Y-115547019D01*
X94393657Y-115547019D01*
X94490419Y-115498638D01*
X94538800Y-115450257D01*
X93280895Y-114531019D02*
X93184133Y-114531019D01*
X93087371Y-114579400D01*
X93038990Y-114627780D01*
X92990609Y-114724542D01*
X92942228Y-114918066D01*
X92942228Y-115159971D01*
X92990609Y-115353495D01*
X93038990Y-115450257D01*
X93087371Y-115498638D01*
X93184133Y-115547019D01*
X93280895Y-115547019D01*
X93377657Y-115498638D01*
X93426038Y-115450257D01*
X93474419Y-115353495D01*
X93522800Y-115159971D01*
X93522800Y-114918066D01*
X93474419Y-114724542D01*
X93426038Y-114627780D01*
X93377657Y-114579400D01*
X93280895Y-114531019D01*
D11*
X110254142Y-112594571D02*
X110399285Y-112522000D01*
X110471857Y-112449428D01*
X110544428Y-112304285D01*
X110544428Y-112231714D01*
X110471857Y-112086571D01*
X110399285Y-112014000D01*
X110254142Y-111941428D01*
X109963857Y-111941428D01*
X109818714Y-112014000D01*
X109746142Y-112086571D01*
X109673571Y-112231714D01*
X109673571Y-112304285D01*
X109746142Y-112449428D01*
X109818714Y-112522000D01*
X109963857Y-112594571D01*
X110254142Y-112594571D01*
X110399285Y-112667142D01*
X110471857Y-112739714D01*
X110544428Y-112884857D01*
X110544428Y-113175142D01*
X110471857Y-113320285D01*
X110399285Y-113392857D01*
X110254142Y-113465428D01*
X109963857Y-113465428D01*
X109818714Y-113392857D01*
X109746142Y-113320285D01*
X109673571Y-113175142D01*
X109673571Y-112884857D01*
X109746142Y-112739714D01*
X109818714Y-112667142D01*
X109963857Y-112594571D01*
X107859285Y-113465428D02*
X107859285Y-111941428D01*
X107351285Y-113030000D01*
X106843285Y-111941428D01*
X106843285Y-113465428D01*
X105609571Y-112667142D02*
X105391857Y-112739714D01*
X105319285Y-112812285D01*
X105246714Y-112957428D01*
X105246714Y-113175142D01*
X105319285Y-113320285D01*
X105391857Y-113392857D01*
X105537000Y-113465428D01*
X106117571Y-113465428D01*
X106117571Y-111941428D01*
X105609571Y-111941428D01*
X105464428Y-112014000D01*
X105391857Y-112086571D01*
X105319285Y-112231714D01*
X105319285Y-112376857D01*
X105391857Y-112522000D01*
X105464428Y-112594571D01*
X105609571Y-112667142D01*
X106117571Y-112667142D01*
X102561571Y-113465428D02*
X103069571Y-112739714D01*
X103432428Y-113465428D02*
X103432428Y-111941428D01*
X102851857Y-111941428D01*
X102706714Y-112014000D01*
X102634142Y-112086571D01*
X102561571Y-112231714D01*
X102561571Y-112449428D01*
X102634142Y-112594571D01*
X102706714Y-112667142D01*
X102851857Y-112739714D01*
X103432428Y-112739714D01*
X101618142Y-111941428D02*
X101327857Y-111941428D01*
X101182714Y-112014000D01*
X101037571Y-112159142D01*
X100965000Y-112449428D01*
X100965000Y-112957428D01*
X101037571Y-113247714D01*
X101182714Y-113392857D01*
X101327857Y-113465428D01*
X101618142Y-113465428D01*
X101763285Y-113392857D01*
X101908428Y-113247714D01*
X101981000Y-112957428D01*
X101981000Y-112449428D01*
X101908428Y-112159142D01*
X101763285Y-112014000D01*
X101618142Y-111941428D01*
X100311857Y-113465428D02*
X100311857Y-111941428D01*
X99803857Y-113030000D01*
X99295857Y-111941428D01*
X99295857Y-113465428D01*
X97481571Y-113392857D02*
X97263857Y-113465428D01*
X96901000Y-113465428D01*
X96755857Y-113392857D01*
X96683285Y-113320285D01*
X96610714Y-113175142D01*
X96610714Y-113030000D01*
X96683285Y-112884857D01*
X96755857Y-112812285D01*
X96901000Y-112739714D01*
X97191285Y-112667142D01*
X97336428Y-112594571D01*
X97409000Y-112522000D01*
X97481571Y-112376857D01*
X97481571Y-112231714D01*
X97409000Y-112086571D01*
X97336428Y-112014000D01*
X97191285Y-111941428D01*
X96828428Y-111941428D01*
X96610714Y-112014000D01*
X95957571Y-113465428D02*
X95957571Y-111941428D01*
X95231857Y-113465428D02*
X95231857Y-111941428D01*
X94723857Y-113030000D01*
X94215857Y-111941428D01*
X94215857Y-113465428D01*
X93490142Y-113465428D02*
X93490142Y-111941428D01*
X92982142Y-113030000D01*
X92474142Y-111941428D01*
X92474142Y-113465428D01*
D12*
X154305000Y-111633000D02*
X154450142Y-111560428D01*
X154667857Y-111560428D01*
X154885571Y-111633000D01*
X155030714Y-111778142D01*
X155103285Y-111923285D01*
X155175857Y-112213571D01*
X155175857Y-112431285D01*
X155103285Y-112721571D01*
X155030714Y-112866714D01*
X154885571Y-113011857D01*
X154667857Y-113084428D01*
X154522714Y-113084428D01*
X154305000Y-113011857D01*
X154232428Y-112939285D01*
X154232428Y-112431285D01*
X154522714Y-112431285D01*
X152926142Y-113084428D02*
X152926142Y-112286142D01*
X152998714Y-112141000D01*
X153143857Y-112068428D01*
X153434142Y-112068428D01*
X153579285Y-112141000D01*
X152926142Y-113011857D02*
X153071285Y-113084428D01*
X153434142Y-113084428D01*
X153579285Y-113011857D01*
X153651857Y-112866714D01*
X153651857Y-112721571D01*
X153579285Y-112576428D01*
X153434142Y-112503857D01*
X153071285Y-112503857D01*
X152926142Y-112431285D01*
X152200428Y-113084428D02*
X152200428Y-112068428D01*
X152200428Y-112358714D02*
X152127857Y-112213571D01*
X152055285Y-112141000D01*
X151910142Y-112068428D01*
X151765000Y-112068428D01*
X151257000Y-113084428D02*
X151257000Y-112068428D01*
X151257000Y-112358714D02*
X151184428Y-112213571D01*
X151111857Y-112141000D01*
X150966714Y-112068428D01*
X150821571Y-112068428D01*
X149733000Y-113011857D02*
X149878142Y-113084428D01*
X150168428Y-113084428D01*
X150313571Y-113011857D01*
X150386142Y-112866714D01*
X150386142Y-112286142D01*
X150313571Y-112141000D01*
X150168428Y-112068428D01*
X149878142Y-112068428D01*
X149733000Y-112141000D01*
X149660428Y-112286142D01*
X149660428Y-112431285D01*
X150386142Y-112576428D01*
X149225000Y-112068428D02*
X148644428Y-112068428D01*
X149007285Y-111560428D02*
X149007285Y-112866714D01*
X148934714Y-113011857D01*
X148789571Y-113084428D01*
X148644428Y-113084428D01*
X148354142Y-112068428D02*
X147773571Y-112068428D01*
X148136428Y-111560428D02*
X148136428Y-112866714D01*
X148063857Y-113011857D01*
X147918714Y-113084428D01*
X147773571Y-113084428D01*
X147193000Y-111560428D02*
X147193000Y-111633000D01*
X147265571Y-111778142D01*
X147338142Y-111850714D01*
X146612428Y-113011857D02*
X146467285Y-113084428D01*
X146177000Y-113084428D01*
X146031857Y-113011857D01*
X145959285Y-112866714D01*
X145959285Y-112794142D01*
X146031857Y-112649000D01*
X146177000Y-112576428D01*
X146394714Y-112576428D01*
X146539857Y-112503857D01*
X146612428Y-112358714D01*
X146612428Y-112286142D01*
X146539857Y-112141000D01*
X146394714Y-112068428D01*
X146177000Y-112068428D01*
X146031857Y-112141000D01*
X144290142Y-111560428D02*
X143927285Y-113084428D01*
X143637000Y-111995857D01*
X143346714Y-113084428D01*
X142983857Y-111560428D01*
X142185571Y-113084428D02*
X142330714Y-113011857D01*
X142403285Y-112939285D01*
X142475857Y-112794142D01*
X142475857Y-112358714D01*
X142403285Y-112213571D01*
X142330714Y-112141000D01*
X142185571Y-112068428D01*
X141967857Y-112068428D01*
X141822714Y-112141000D01*
X141750142Y-112213571D01*
X141677571Y-112358714D01*
X141677571Y-112794142D01*
X141750142Y-112939285D01*
X141822714Y-113011857D01*
X141967857Y-113084428D01*
X142185571Y-113084428D01*
X141024428Y-113084428D02*
X141024428Y-112068428D01*
X141024428Y-112358714D02*
X140951857Y-112213571D01*
X140879285Y-112141000D01*
X140734142Y-112068428D01*
X140589000Y-112068428D01*
X140081000Y-113084428D02*
X140081000Y-111560428D01*
X139935857Y-112503857D02*
X139500428Y-113084428D01*
X139500428Y-112068428D02*
X140081000Y-112649000D01*
X138919857Y-113011857D02*
X138774714Y-113084428D01*
X138484428Y-113084428D01*
X138339285Y-113011857D01*
X138266714Y-112866714D01*
X138266714Y-112794142D01*
X138339285Y-112649000D01*
X138484428Y-112576428D01*
X138702142Y-112576428D01*
X138847285Y-112503857D01*
X138919857Y-112358714D01*
X138919857Y-112286142D01*
X138847285Y-112141000D01*
X138702142Y-112068428D01*
X138484428Y-112068428D01*
X138339285Y-112141000D01*
X137613571Y-113084428D02*
X137613571Y-111560428D01*
X136960428Y-113084428D02*
X136960428Y-112286142D01*
X137033000Y-112141000D01*
X137178142Y-112068428D01*
X137395857Y-112068428D01*
X137541000Y-112141000D01*
X137613571Y-112213571D01*
X136017000Y-113084428D02*
X136162142Y-113011857D01*
X136234714Y-112939285D01*
X136307285Y-112794142D01*
X136307285Y-112358714D01*
X136234714Y-112213571D01*
X136162142Y-112141000D01*
X136017000Y-112068428D01*
X135799285Y-112068428D01*
X135654142Y-112141000D01*
X135581571Y-112213571D01*
X135509000Y-112358714D01*
X135509000Y-112794142D01*
X135581571Y-112939285D01*
X135654142Y-113011857D01*
X135799285Y-113084428D01*
X136017000Y-113084428D01*
X134855857Y-112068428D02*
X134855857Y-113592428D01*
X134855857Y-112141000D02*
X134710714Y-112068428D01*
X134420428Y-112068428D01*
X134275285Y-112141000D01*
X134202714Y-112213571D01*
X134130142Y-112358714D01*
X134130142Y-112794142D01*
X134202714Y-112939285D01*
X134275285Y-113011857D01*
X134420428Y-113084428D01*
X134710714Y-113084428D01*
X134855857Y-113011857D01*
D11*
X145257286Y-114740571D02*
X145257286Y-115740571D01*
X145614428Y-114169142D02*
X145971571Y-115240571D01*
X145043000Y-115240571D01*
X143828714Y-114740571D02*
X143828714Y-115740571D01*
X144185857Y-114169142D02*
X144543000Y-115240571D01*
X143614428Y-115240571D01*
X142757286Y-114240571D02*
X142614428Y-114240571D01*
X142471571Y-114312000D01*
X142400143Y-114383428D01*
X142328714Y-114526285D01*
X142257286Y-114812000D01*
X142257286Y-115169142D01*
X142328714Y-115454857D01*
X142400143Y-115597714D01*
X142471571Y-115669142D01*
X142614428Y-115740571D01*
X142757286Y-115740571D01*
X142900143Y-115669142D01*
X142971571Y-115597714D01*
X143043000Y-115454857D01*
X143114428Y-115169142D01*
X143114428Y-114812000D01*
X143043000Y-114526285D01*
X142971571Y-114383428D01*
X142900143Y-114312000D01*
X142757286Y-114240571D01*
X141685857Y-114383428D02*
X141614428Y-114312000D01*
X141471571Y-114240571D01*
X141114428Y-114240571D01*
X140971571Y-114312000D01*
X140900143Y-114383428D01*
X140828714Y-114526285D01*
X140828714Y-114669142D01*
X140900143Y-114883428D01*
X141757286Y-115740571D01*
X140828714Y-115740571D01*
X139328714Y-115597714D02*
X139400143Y-115669142D01*
X139614428Y-115740571D01*
X139757286Y-115740571D01*
X139971571Y-115669142D01*
X140114428Y-115526285D01*
X140185857Y-115383428D01*
X140257286Y-115097714D01*
X140257286Y-114883428D01*
X140185857Y-114597714D01*
X140114428Y-114454857D01*
X139971571Y-114312000D01*
X139757286Y-114240571D01*
X139614428Y-114240571D01*
X139400143Y-114312000D01*
X139328714Y-114383428D01*
X148739142Y-114312000D02*
X148881999Y-114240571D01*
X149096285Y-114240571D01*
X149310571Y-114312000D01*
X149453428Y-114454857D01*
X149524856Y-114597714D01*
X149596285Y-114883428D01*
X149596285Y-115097714D01*
X149524856Y-115383428D01*
X149453428Y-115526285D01*
X149310571Y-115669142D01*
X149096285Y-115740571D01*
X148953428Y-115740571D01*
X148739142Y-115669142D01*
X148667714Y-115597714D01*
X148667714Y-115097714D01*
X148953428Y-115097714D01*
X148167714Y-114240571D02*
X147810571Y-115740571D01*
X147524856Y-114669142D01*
X147239142Y-115740571D01*
X146881999Y-114240571D01*
D10*
X166351857Y-124503591D02*
X165809990Y-124503591D01*
X166351857Y-125316391D01*
X165809990Y-125316391D01*
X165500352Y-125316391D02*
X165500352Y-124503591D01*
X165035895Y-125316391D02*
X165384238Y-124851934D01*
X165035895Y-124503591D02*
X165500352Y-124968048D01*
X164648847Y-125277686D02*
X164648847Y-125316391D01*
X164687552Y-125393800D01*
X164726257Y-125432505D01*
X165616466Y-125850904D02*
X165693876Y-125812199D01*
X165809990Y-125812199D01*
X165926104Y-125850904D01*
X166003514Y-125928313D01*
X166042219Y-126005723D01*
X166080923Y-126160542D01*
X166080923Y-126276656D01*
X166042219Y-126431475D01*
X166003514Y-126508884D01*
X165926104Y-126586294D01*
X165809990Y-126624999D01*
X165732580Y-126624999D01*
X165616466Y-126586294D01*
X165577761Y-126547589D01*
X165577761Y-126276656D01*
X165732580Y-126276656D01*
X164958485Y-126199246D02*
X165229419Y-126199246D01*
X165229419Y-126624999D02*
X165229419Y-125812199D01*
X164842371Y-125812199D01*
%LPC*%
D13*
X163195000Y-127635000D02*
X123825000Y-127635000D01*
X123825000Y-127635000D02*
X123317000Y-125031500D01*
X123317000Y-125031500D02*
X163703000Y-125031500D01*
X163703000Y-125031500D02*
X163195000Y-127635000D01*
G36*
X163195000Y-127635000D02*
G01*
X123825000Y-127635000D01*
X123317000Y-125031500D01*
X163703000Y-125031500D01*
X163195000Y-127635000D01*
G37*
X163195000Y-127635000D02*
X123825000Y-127635000D01*
X123317000Y-125031500D01*
X163703000Y-125031500D01*
X163195000Y-127635000D01*
X117475000Y-127635000D02*
X78105000Y-127635000D01*
X78105000Y-127635000D02*
X77597000Y-125031500D01*
X77597000Y-125031500D02*
X117983000Y-125031500D01*
X117983000Y-125031500D02*
X117475000Y-127635000D01*
G36*
X117475000Y-127635000D02*
G01*
X78105000Y-127635000D01*
X77597000Y-125031500D01*
X117983000Y-125031500D01*
X117475000Y-127635000D01*
G37*
X117475000Y-127635000D02*
X78105000Y-127635000D01*
X77597000Y-125031500D01*
X117983000Y-125031500D01*
X117475000Y-127635000D01*
D14*
X78105000Y-126111000D03*
X79375000Y-126111000D03*
X80645000Y-126111000D03*
X81915000Y-126111000D03*
X83185000Y-126111000D03*
X84455000Y-126111000D03*
X85725000Y-126111000D03*
X86995000Y-126111000D03*
X88265000Y-126111000D03*
X89535000Y-126111000D03*
X90805000Y-126111000D03*
X92075000Y-126111000D03*
X93345000Y-126111000D03*
X94615000Y-126111000D03*
X95885000Y-126111000D03*
X97155000Y-126111000D03*
X98425000Y-126111000D03*
X99695000Y-126111000D03*
X100965000Y-126111000D03*
X102235000Y-126111000D03*
X103505000Y-126111000D03*
X104775000Y-126111000D03*
X106045000Y-126111000D03*
X107315000Y-126111000D03*
X108585000Y-126111000D03*
X109855000Y-126111000D03*
X111125000Y-126111000D03*
X112395000Y-126111000D03*
X113665000Y-126111000D03*
X114935000Y-126111000D03*
X116205000Y-126111000D03*
X117475000Y-126111000D03*
X123825000Y-126111000D03*
X125095000Y-126111000D03*
X126365000Y-126111000D03*
X127635000Y-126111000D03*
X128905000Y-126111000D03*
X130175000Y-126111000D03*
X131445000Y-126111000D03*
X132715000Y-126111000D03*
X133985000Y-126111000D03*
X135255000Y-126111000D03*
X136525000Y-126111000D03*
X137795000Y-126111000D03*
X139065000Y-126111000D03*
X140335000Y-126111000D03*
X141605000Y-126111000D03*
X142875000Y-126111000D03*
X144145000Y-126111000D03*
X145415000Y-126111000D03*
X146685000Y-126111000D03*
X147955000Y-126111000D03*
X149225000Y-126111000D03*
X150495000Y-126111000D03*
X151765000Y-126111000D03*
X153035000Y-126111000D03*
X154305000Y-126111000D03*
X155575000Y-126111000D03*
X156845000Y-126111000D03*
X158115000Y-126111000D03*
X159385000Y-126111000D03*
X160655000Y-126111000D03*
X161925000Y-126111000D03*
X163195000Y-126111000D03*
D15*
X73406000Y-104267000D03*
X75438000Y-125984000D03*
X167894000Y-125984000D03*
X167894000Y-104267000D03*
M02*
