M48
; DRILL file {KiCad (5.1.5-0-10_14)} date Saturday, May 16, 2020 at 02:03:33 PM
; FORMAT={-:-/ absolute / inch / decimal}
; #@! TF.CreationDate,2020-05-16T14:03:33-04:00
; #@! TF.GenerationSoftware,Kicad,Pcbnew,(5.1.5-0-10_14)
FMAT,2
INCH
T1C0.0079
T2C0.0150
T3C0.0157
T4C0.0200
T5C0.0433
%
G90
G05
T1
X2.8575Y-4.225
X2.8575Y-4.425
X2.8575Y-4.625
X2.8575Y-4.7425
X2.95Y-4.125
X2.95Y-4.325
X2.95Y-4.525
X3.015Y-4.745
X3.05Y-4.425
X3.05Y-4.625
X3.13Y-4.87
X3.15Y-4.325
X3.15Y-4.525
X3.2Y-4.88
X3.25Y-4.0325
X3.25Y-4.88
X3.255Y-4.225
X3.255Y-4.425
X3.255Y-4.64
X3.255Y-4.805
X3.265Y-4.6
X3.285Y-4.35
X3.285Y-4.4
X3.285Y-4.45
X3.285Y-4.5
X3.285Y-4.55
X3.3Y-4.88
X3.35Y-4.88
X3.4Y-4.135
X3.4Y-4.88
X3.425Y-4.065
X3.435Y-4.84
X3.445Y-4.88
X3.45Y-4.0325
X3.45Y-4.135
X3.4825Y-4.8275
X3.5Y-4.135
X3.5Y-4.45
X3.5Y-4.67
X3.5Y-4.765
X3.55Y-4.135
X3.55Y-4.25
X3.55Y-4.3
X3.55Y-4.35
X3.55Y-4.4
X3.55Y-4.5
X3.55Y-4.55
X3.55Y-4.6
X3.55Y-4.65
X3.55Y-4.815
X3.595Y-4.8
X3.6Y-4.135
X3.6Y-4.225
X3.6Y-4.88
X3.645Y-4.785
X3.65Y-4.0325
X3.65Y-4.135
X3.65Y-4.88
X3.67Y-4.255
X3.7Y-4.135
X3.7Y-4.88
X3.72Y-4.5
X3.72Y-4.6
X3.745Y-4.77
X3.75Y-4.88
X3.795Y-4.15
X3.8Y-4.88
X3.85Y-4.0325
X3.85Y-4.88
X3.855Y-4.695
X3.855Y-4.74
X3.875Y-4.645
X3.9Y-4.88
X3.94Y-4.23
X3.95Y-4.88
X4.0Y-4.88
X4.05Y-4.0325
X4.05Y-4.88
X4.075Y-4.15
X4.1Y-4.88
X4.15Y-4.88
X4.2Y-4.065
X4.2Y-4.135
X4.2Y-4.88
X4.225Y-4.77
X4.25Y-4.0325
X4.25Y-4.135
X4.25Y-4.88
X4.3Y-4.135
X4.3Y-4.67
X4.3Y-4.765
X4.3Y-4.88
X4.35Y-4.135
X4.35Y-4.88
X4.375Y-4.77
X4.4Y-4.135
X4.4Y-4.225
X4.4Y-4.88
X4.425Y-4.77
X4.45Y-4.0325
X4.45Y-4.135
X4.45Y-4.88
X4.475Y-4.77
X4.49Y-4.325
X4.5Y-4.135
X4.5Y-4.88
X4.51Y-4.275
X4.525Y-4.77
X4.555Y-4.8
X4.61Y-4.15
X4.61Y-4.845
X4.615Y-4.35
X4.625Y-4.685
X4.635Y-4.4
X4.65Y-4.0325
X4.655Y-4.55
X4.675Y-4.23
X4.675Y-4.45
X4.675Y-4.95
X4.695Y-4.19
X4.715Y-4.15
X4.715Y-4.3
X4.715Y-4.83
X4.715Y-4.89
X4.735Y-4.25
X4.75Y-4.035
X4.75Y-4.1825
X4.75Y-4.795
X4.75Y-4.925
X4.785Y-4.15
X4.785Y-4.215
X4.785Y-4.83
X4.785Y-4.89
X4.79Y-4.645
X4.825Y-4.95
X4.85Y-4.0325
X4.855Y-4.83
X4.87Y-4.64
X4.885Y-4.16
X4.9Y-4.88
X4.91Y-4.745
X4.945Y-4.88
X5.0Y-4.065
X5.0Y-4.135
X5.0Y-4.835
X5.0Y-4.88
X5.05Y-4.0325
X5.05Y-4.135
X5.05Y-4.88
X5.055Y-4.82
X5.1Y-4.135
X5.1Y-4.67
X5.1Y-4.765
X5.1Y-4.88
X5.13Y-4.805
X5.15Y-4.135
X5.15Y-4.88
X5.185Y-4.79
X5.2Y-4.135
X5.2Y-4.225
X5.2Y-4.88
X5.23Y-4.775
X5.25Y-4.0325
X5.25Y-4.135
X5.25Y-4.88
X5.3Y-4.135
X5.3Y-4.88
X5.35Y-4.88
X5.3775Y-4.74
X5.385Y-4.065
X5.4Y-4.88
X5.415Y-4.195
X5.4375Y-4.68
X5.45Y-4.0325
X5.45Y-4.215
X5.47Y-4.645
X5.495Y-4.215
X5.555Y-4.135
X5.555Y-4.8775
X5.59Y-4.155
X5.6Y-4.88
X5.625Y-4.845
X5.635Y-4.225
X5.645Y-4.7
X5.65Y-4.0325
X5.65Y-4.88
X5.665Y-4.83
X5.685Y-4.76
X5.7Y-4.88
X5.705Y-4.815
X5.71Y-4.71
X5.75Y-4.88
X5.8Y-4.135
X5.85Y-4.0325
X5.85Y-4.135
X5.855Y-4.28
X5.87Y-4.835
X5.9Y-4.135
X5.9Y-4.425
X5.9Y-4.475
X5.9Y-4.67
X5.9Y-4.765
X5.915Y-4.82
X5.95Y-4.135
X5.95Y-4.325
X5.95Y-4.375
X5.95Y-4.525
X5.95Y-4.575
X5.95Y-4.62
X5.95Y-4.88
X5.96Y-4.805
X6.0Y-4.135
X6.0Y-4.225
X6.0Y-4.88
X6.05Y-4.0325
X6.05Y-4.135
X6.05Y-4.28
X6.05Y-4.88
X6.1Y-4.135
X6.1Y-4.88
X6.15Y-4.7075
X6.15Y-4.88
X6.19Y-4.71
X6.2Y-4.88
X6.25Y-4.0325
X6.25Y-4.88
X6.3Y-4.88
X6.35Y-4.325
X6.35Y-4.525
X6.35Y-4.88
X6.37Y-4.855
X6.45Y-4.0325
X6.45Y-4.425
X6.45Y-4.625
X6.45Y-4.8
X6.55Y-4.125
X6.55Y-4.325
X6.55Y-4.525
X6.55Y-4.725
X6.55Y-4.925
X6.6425Y-4.225
X6.6425Y-4.425
X6.6425Y-4.625
X6.6425Y-4.825
T2
X6.32Y-4.815
T3
X3.08Y-4.14
X3.08Y-4.2
X3.08Y-4.77
X3.08Y-4.83
X3.13Y-4.095
X3.13Y-4.245
X3.13Y-4.725
X3.18Y-4.14
X3.18Y-4.2
X3.18Y-4.77
X3.18Y-4.83
X6.32Y-4.14
X6.32Y-4.2
X6.32Y-4.755
X6.37Y-4.095
X6.37Y-4.245
X6.37Y-4.71
X6.42Y-4.14
X6.42Y-4.2
X6.42Y-4.755
X6.42Y-4.815
T4
X3.075Y-4.925
X3.125Y-4.925
X3.175Y-4.925
X3.225Y-4.925
X3.275Y-4.925
X3.325Y-4.925
X3.375Y-4.925
X3.425Y-4.925
X3.475Y-4.925
X3.525Y-4.925
X3.575Y-4.925
X3.625Y-4.925
X3.675Y-4.925
X3.725Y-4.925
X3.775Y-4.925
X3.825Y-4.925
X3.875Y-4.925
X3.925Y-4.925
X3.975Y-4.925
X4.025Y-4.925
X4.075Y-4.925
X4.125Y-4.925
X4.175Y-4.925
X4.225Y-4.925
X4.275Y-4.925
X4.325Y-4.925
X4.375Y-4.925
X4.425Y-4.925
X4.475Y-4.925
X4.525Y-4.925
X4.575Y-4.925
X4.625Y-4.925
X4.875Y-4.925
X4.925Y-4.925
X4.975Y-4.925
X5.025Y-4.925
X5.075Y-4.925
X5.125Y-4.925
X5.175Y-4.925
X5.225Y-4.925
X5.275Y-4.925
X5.325Y-4.925
X5.375Y-4.925
X5.425Y-4.925
X5.475Y-4.925
X5.525Y-4.925
X5.575Y-4.925
X5.625Y-4.925
X5.675Y-4.925
X5.725Y-4.925
X5.775Y-4.925
X5.825Y-4.925
X5.875Y-4.925
X5.925Y-4.925
X5.975Y-4.925
X6.025Y-4.925
X6.075Y-4.925
X6.125Y-4.925
X6.175Y-4.925
X6.225Y-4.925
X6.275Y-4.925
X6.325Y-4.925
X6.375Y-4.925
X6.425Y-4.925
T5
X6.61Y-4.065
X6.61Y-4.96
X2.89Y-4.065
X2.97Y-4.96
T0
M30
