G04 #@! TF.GenerationSoftware,KiCad,Pcbnew,(6.0.1-0)*
G04 #@! TF.CreationDate,2022-02-13T04:03:45-05:00*
G04 #@! TF.ProjectId,ROMSIMM,524f4d53-494d-44d2-9e6b-696361645f70,1.0*
G04 #@! TF.SameCoordinates,Original*
G04 #@! TF.FileFunction,Legend,Top*
G04 #@! TF.FilePolarity,Positive*
%FSLAX46Y46*%
G04 Gerber Fmt 4.6, Leading zero omitted, Abs format (unit mm)*
G04 Created by KiCad (PCBNEW (6.0.1-0)) date 2022-02-13 04:03:45*
%MOMM*%
%LPD*%
G01*
G04 APERTURE LIST*
G04 Aperture macros list*
%AMRoundRect*
0 Rectangle with rounded corners*
0 $1 Rounding radius*
0 $2 $3 $4 $5 $6 $7 $8 $9 X,Y pos of 4 corners*
0 Add a 4 corners polygon primitive as box body*
4,1,4,$2,$3,$4,$5,$6,$7,$8,$9,$2,$3,0*
0 Add four circle primitives for the rounded corners*
1,1,$1+$1,$2,$3*
1,1,$1+$1,$4,$5*
1,1,$1+$1,$6,$7*
1,1,$1+$1,$8,$9*
0 Add four rect primitives between the rounded corners*
20,1,$1+$1,$2,$3,$4,$5,0*
20,1,$1+$1,$4,$5,$6,$7,0*
20,1,$1+$1,$6,$7,$8,$9,0*
20,1,$1+$1,$8,$9,$2,$3,0*%
G04 Aperture macros list end*
%ADD10C,0.350000*%
%ADD11C,0.203200*%
%ADD12C,0.120000*%
%ADD13C,0.150000*%
%ADD14C,0.100000*%
%ADD15C,0.175000*%
%ADD16C,2.000000*%
%ADD17RoundRect,0.262500X-0.212500X-0.262500X0.212500X-0.262500X0.212500X0.262500X-0.212500X0.262500X0*%
%ADD18RoundRect,0.262500X0.262500X-0.212500X0.262500X0.212500X-0.262500X0.212500X-0.262500X-0.212500X0*%
%ADD19RoundRect,0.136500X-0.112500X0.612500X-0.112500X-0.612500X0.112500X-0.612500X0.112500X0.612500X0*%
%ADD20RoundRect,0.491560X-0.104140X-1.107440X0.104140X-1.107440X0.104140X1.107440X-0.104140X1.107440X0*%
%ADD21RoundRect,0.099000X-0.475000X-0.075000X0.475000X-0.075000X0.475000X0.075000X-0.475000X0.075000X0*%
%ADD22RoundRect,0.140000X0.100000X-0.400000X0.100000X0.400000X-0.100000X0.400000X-0.100000X-0.400000X0*%
%ADD23RoundRect,0.225000X0.175000X0.300000X-0.175000X0.300000X-0.175000X-0.300000X0.175000X-0.300000X0*%
%ADD24RoundRect,0.225000X0.300000X-0.175000X0.300000X0.175000X-0.300000X0.175000X-0.300000X-0.175000X0*%
%ADD25RoundRect,0.250000X0.475000X0.200000X-0.475000X0.200000X-0.475000X-0.200000X0.475000X-0.200000X0*%
%ADD26C,1.448000*%
%ADD27RoundRect,0.225000X-0.175000X-0.300000X0.175000X-0.300000X0.175000X0.300000X-0.175000X0.300000X0*%
%ADD28RoundRect,0.240000X0.190000X-0.572000X0.190000X0.572000X-0.190000X0.572000X-0.190000X-0.572000X0*%
G04 APERTURE END LIST*
D10*
X162623400Y-111696500D02*
X162623500Y-111696500D01*
D11*
X164465000Y-106299000D02*
X162052000Y-106299000D01*
D10*
X163893550Y-107505500D02*
X163893650Y-107505500D01*
X163258400Y-107505500D02*
X163258500Y-107505500D01*
D11*
X162052000Y-108077000D02*
X162052000Y-106299000D01*
X164465000Y-108077000D02*
X164465000Y-106299000D01*
X162052000Y-108077000D02*
X164465000Y-108077000D01*
X162052000Y-112903000D02*
X162052000Y-111125000D01*
X164465000Y-112903000D02*
X164465000Y-111125000D01*
D10*
X163258400Y-111696500D02*
X163258500Y-111696500D01*
X163893550Y-112331500D02*
X163893650Y-112331500D01*
D11*
X164465000Y-111125000D02*
X162052000Y-111125000D01*
X162052000Y-112903000D02*
X164465000Y-112903000D01*
X164465000Y-113538000D02*
X162052000Y-113538000D01*
X164465000Y-115316000D02*
X164465000Y-113538000D01*
D10*
X163258400Y-114109500D02*
X163258500Y-114109500D01*
X163893550Y-114109500D02*
X163893650Y-114109500D01*
D11*
X162052000Y-115316000D02*
X162052000Y-113538000D01*
X162052000Y-115316000D02*
X164465000Y-115316000D01*
D10*
X162623550Y-114109500D02*
X162623650Y-114109500D01*
X162623400Y-107505500D02*
X162623500Y-107505500D01*
D11*
X164465000Y-108712000D02*
X162052000Y-108712000D01*
D10*
X163893550Y-109918500D02*
X163893650Y-109918500D01*
D11*
X164465000Y-110490000D02*
X164465000Y-108712000D01*
X162052000Y-110490000D02*
X164465000Y-110490000D01*
D10*
X163258400Y-109918500D02*
X163258500Y-109918500D01*
D11*
X162052000Y-110490000D02*
X162052000Y-108712000D01*
D10*
X162623400Y-109283500D02*
X162623500Y-109283500D01*
D11*
X165319365Y-107595142D02*
X165319365Y-106695142D01*
X165747937Y-107595142D02*
X165747937Y-106695142D01*
X166133651Y-107552285D02*
X166219365Y-107595142D01*
X166390794Y-107595142D01*
X166476508Y-107552285D01*
X166519365Y-107466571D01*
X166519365Y-107423714D01*
X166476508Y-107338000D01*
X166390794Y-107295142D01*
X166262222Y-107295142D01*
X166176508Y-107252285D01*
X166133651Y-107166571D01*
X166133651Y-107123714D01*
X166176508Y-107038000D01*
X166262222Y-106995142D01*
X166390794Y-106995142D01*
X166476508Y-107038000D01*
X166905080Y-107595142D02*
X166905080Y-106995142D01*
X166905080Y-106695142D02*
X166862222Y-106738000D01*
X166905080Y-106780857D01*
X166947937Y-106738000D01*
X166905080Y-106695142D01*
X166905080Y-106780857D01*
X164519857Y-105436142D02*
X164219857Y-105007571D01*
X164005571Y-105436142D02*
X164005571Y-104536142D01*
X164348428Y-104536142D01*
X164434142Y-104579000D01*
X164477000Y-104621857D01*
X164519857Y-104707571D01*
X164519857Y-104836142D01*
X164477000Y-104921857D01*
X164434142Y-104964714D01*
X164348428Y-105007571D01*
X164005571Y-105007571D01*
X165077000Y-104536142D02*
X165248428Y-104536142D01*
X165334142Y-104579000D01*
X165419857Y-104664714D01*
X165462714Y-104836142D01*
X165462714Y-105136142D01*
X165419857Y-105307571D01*
X165334142Y-105393285D01*
X165248428Y-105436142D01*
X165077000Y-105436142D01*
X164991285Y-105393285D01*
X164905571Y-105307571D01*
X164862714Y-105136142D01*
X164862714Y-104836142D01*
X164905571Y-104664714D01*
X164991285Y-104579000D01*
X165077000Y-104536142D01*
X165848428Y-105436142D02*
X165848428Y-104536142D01*
X166148428Y-105179000D01*
X166448428Y-104536142D01*
X166448428Y-105436142D01*
X165276508Y-112378285D02*
X165405080Y-112421142D01*
X165619365Y-112421142D01*
X165705080Y-112378285D01*
X165747937Y-112335428D01*
X165790794Y-112249714D01*
X165790794Y-112164000D01*
X165747937Y-112078285D01*
X165705080Y-112035428D01*
X165619365Y-111992571D01*
X165447937Y-111949714D01*
X165362222Y-111906857D01*
X165319365Y-111864000D01*
X165276508Y-111778285D01*
X165276508Y-111692571D01*
X165319365Y-111606857D01*
X165362222Y-111564000D01*
X165447937Y-111521142D01*
X165662222Y-111521142D01*
X165790794Y-111564000D01*
X166090794Y-111821142D02*
X166305080Y-112421142D01*
X166519365Y-111821142D02*
X166305080Y-112421142D01*
X166219365Y-112635428D01*
X166176508Y-112678285D01*
X166090794Y-112721142D01*
X166819365Y-112378285D02*
X166905080Y-112421142D01*
X167076508Y-112421142D01*
X167162222Y-112378285D01*
X167205080Y-112292571D01*
X167205080Y-112249714D01*
X167162222Y-112164000D01*
X167076508Y-112121142D01*
X166947937Y-112121142D01*
X166862222Y-112078285D01*
X166819365Y-111992571D01*
X166819365Y-111949714D01*
X166862222Y-111864000D01*
X166947937Y-111821142D01*
X167076508Y-111821142D01*
X167162222Y-111864000D01*
X167976508Y-111521142D02*
X167805080Y-111521142D01*
X167719365Y-111564000D01*
X167676508Y-111606857D01*
X167590794Y-111735428D01*
X167547937Y-111906857D01*
X167547937Y-112249714D01*
X167590794Y-112335428D01*
X167633651Y-112378285D01*
X167719365Y-112421142D01*
X167890794Y-112421142D01*
X167976508Y-112378285D01*
X168019365Y-112335428D01*
X168062222Y-112249714D01*
X168062222Y-112035428D01*
X168019365Y-111949714D01*
X167976508Y-111906857D01*
X167890794Y-111864000D01*
X167719365Y-111864000D01*
X167633651Y-111906857D01*
X167590794Y-111949714D01*
X167547937Y-112035428D01*
X165276508Y-114791285D02*
X165405080Y-114834142D01*
X165619365Y-114834142D01*
X165705080Y-114791285D01*
X165747937Y-114748428D01*
X165790794Y-114662714D01*
X165790794Y-114577000D01*
X165747937Y-114491285D01*
X165705080Y-114448428D01*
X165619365Y-114405571D01*
X165447937Y-114362714D01*
X165362222Y-114319857D01*
X165319365Y-114277000D01*
X165276508Y-114191285D01*
X165276508Y-114105571D01*
X165319365Y-114019857D01*
X165362222Y-113977000D01*
X165447937Y-113934142D01*
X165662222Y-113934142D01*
X165790794Y-113977000D01*
X166090794Y-114234142D02*
X166305080Y-114834142D01*
X166519365Y-114234142D02*
X166305080Y-114834142D01*
X166219365Y-115048428D01*
X166176508Y-115091285D01*
X166090794Y-115134142D01*
X166819365Y-114791285D02*
X166905080Y-114834142D01*
X167076508Y-114834142D01*
X167162222Y-114791285D01*
X167205080Y-114705571D01*
X167205080Y-114662714D01*
X167162222Y-114577000D01*
X167076508Y-114534142D01*
X166947937Y-114534142D01*
X166862222Y-114491285D01*
X166819365Y-114405571D01*
X166819365Y-114362714D01*
X166862222Y-114277000D01*
X166947937Y-114234142D01*
X167076508Y-114234142D01*
X167162222Y-114277000D01*
X167505080Y-113934142D02*
X168105080Y-113934142D01*
X167719365Y-114834142D01*
X165319365Y-110008142D02*
X165319365Y-109108142D01*
X165747937Y-110008142D02*
X165747937Y-109108142D01*
X166090794Y-110008142D02*
X166562222Y-109408142D01*
X166090794Y-109408142D02*
X166562222Y-110008142D01*
X111755723Y-119704895D02*
X111755723Y-120362876D01*
X111794428Y-120440285D01*
X111833133Y-120478990D01*
X111910542Y-120517695D01*
X112065361Y-120517695D01*
X112142771Y-120478990D01*
X112181476Y-120440285D01*
X112220180Y-120362876D01*
X112220180Y-119704895D01*
X112955571Y-119975828D02*
X112955571Y-120517695D01*
X112762047Y-119666190D02*
X112568523Y-120246761D01*
X113071685Y-120246761D01*
X145955723Y-119704895D02*
X145955723Y-120362876D01*
X145994428Y-120440285D01*
X146033133Y-120478990D01*
X146110542Y-120517695D01*
X146265361Y-120517695D01*
X146342771Y-120478990D01*
X146381476Y-120440285D01*
X146420180Y-120362876D01*
X146420180Y-119704895D01*
X147194276Y-119704895D02*
X146807228Y-119704895D01*
X146768523Y-120091942D01*
X146807228Y-120053238D01*
X146884638Y-120014533D01*
X147078161Y-120014533D01*
X147155571Y-120053238D01*
X147194276Y-120091942D01*
X147232980Y-120169352D01*
X147232980Y-120362876D01*
X147194276Y-120440285D01*
X147155571Y-120478990D01*
X147078161Y-120517695D01*
X146884638Y-120517695D01*
X146807228Y-120478990D01*
X146768523Y-120440285D01*
X134218676Y-119704895D02*
X134218676Y-120362876D01*
X134257380Y-120440285D01*
X134296085Y-120478990D01*
X134373495Y-120517695D01*
X134528314Y-120517695D01*
X134605723Y-120478990D01*
X134644428Y-120440285D01*
X134683133Y-120362876D01*
X134683133Y-119704895D01*
X135495933Y-120517695D02*
X135031476Y-120517695D01*
X135263704Y-120517695D02*
X135263704Y-119704895D01*
X135186295Y-119821009D01*
X135108885Y-119898419D01*
X135031476Y-119937123D01*
X135999095Y-119704895D02*
X136076504Y-119704895D01*
X136153914Y-119743600D01*
X136192619Y-119782304D01*
X136231323Y-119859714D01*
X136270028Y-120014533D01*
X136270028Y-120208057D01*
X136231323Y-120362876D01*
X136192619Y-120440285D01*
X136153914Y-120478990D01*
X136076504Y-120517695D01*
X135999095Y-120517695D01*
X135921685Y-120478990D01*
X135882980Y-120440285D01*
X135844276Y-120362876D01*
X135805571Y-120208057D01*
X135805571Y-120014533D01*
X135844276Y-119859714D01*
X135882980Y-119782304D01*
X135921685Y-119743600D01*
X135999095Y-119704895D01*
X154905723Y-119704895D02*
X154905723Y-120362876D01*
X154944428Y-120440285D01*
X154983133Y-120478990D01*
X155060542Y-120517695D01*
X155215361Y-120517695D01*
X155292771Y-120478990D01*
X155331476Y-120440285D01*
X155370180Y-120362876D01*
X155370180Y-119704895D01*
X156105571Y-119704895D02*
X155950752Y-119704895D01*
X155873342Y-119743600D01*
X155834638Y-119782304D01*
X155757228Y-119898419D01*
X155718523Y-120053238D01*
X155718523Y-120362876D01*
X155757228Y-120440285D01*
X155795933Y-120478990D01*
X155873342Y-120517695D01*
X156028161Y-120517695D01*
X156105571Y-120478990D01*
X156144276Y-120440285D01*
X156182980Y-120362876D01*
X156182980Y-120169352D01*
X156144276Y-120091942D01*
X156105571Y-120053238D01*
X156028161Y-120014533D01*
X155873342Y-120014533D01*
X155795933Y-120053238D01*
X155757228Y-120091942D01*
X155718523Y-120169352D01*
X98830723Y-109254895D02*
X98830723Y-109912876D01*
X98869428Y-109990285D01*
X98908133Y-110028990D01*
X98985542Y-110067695D01*
X99140361Y-110067695D01*
X99217771Y-110028990D01*
X99256476Y-109990285D01*
X99295180Y-109912876D01*
X99295180Y-109254895D01*
X100107980Y-110067695D02*
X99643523Y-110067695D01*
X99875752Y-110067695D02*
X99875752Y-109254895D01*
X99798342Y-109371009D01*
X99720933Y-109448419D01*
X99643523Y-109487123D01*
X101555723Y-119704895D02*
X101555723Y-120362876D01*
X101594428Y-120440285D01*
X101633133Y-120478990D01*
X101710542Y-120517695D01*
X101865361Y-120517695D01*
X101942771Y-120478990D01*
X101981476Y-120440285D01*
X102020180Y-120362876D01*
X102020180Y-119704895D01*
X102329819Y-119704895D02*
X102832980Y-119704895D01*
X102562047Y-120014533D01*
X102678161Y-120014533D01*
X102755571Y-120053238D01*
X102794276Y-120091942D01*
X102832980Y-120169352D01*
X102832980Y-120362876D01*
X102794276Y-120440285D01*
X102755571Y-120478990D01*
X102678161Y-120517695D01*
X102445933Y-120517695D01*
X102368523Y-120478990D01*
X102329819Y-120440285D01*
X141620723Y-109254895D02*
X141620723Y-109912876D01*
X141659428Y-109990285D01*
X141698133Y-110028990D01*
X141775542Y-110067695D01*
X141930361Y-110067695D01*
X142007771Y-110028990D01*
X142046476Y-109990285D01*
X142085180Y-109912876D01*
X142085180Y-109254895D01*
X142433523Y-109332304D02*
X142472228Y-109293600D01*
X142549638Y-109254895D01*
X142743161Y-109254895D01*
X142820571Y-109293600D01*
X142859276Y-109332304D01*
X142897980Y-109409714D01*
X142897980Y-109487123D01*
X142859276Y-109603238D01*
X142394819Y-110067695D01*
X142897980Y-110067695D01*
X81255723Y-119704895D02*
X81255723Y-120362876D01*
X81294428Y-120440285D01*
X81333133Y-120478990D01*
X81410542Y-120517695D01*
X81565361Y-120517695D01*
X81642771Y-120478990D01*
X81681476Y-120440285D01*
X81720180Y-120362876D01*
X81720180Y-119704895D01*
X82029819Y-119704895D02*
X82571685Y-119704895D01*
X82223342Y-120517695D01*
X124455723Y-119704895D02*
X124455723Y-120362876D01*
X124494428Y-120440285D01*
X124533133Y-120478990D01*
X124610542Y-120517695D01*
X124765361Y-120517695D01*
X124842771Y-120478990D01*
X124881476Y-120440285D01*
X124920180Y-120362876D01*
X124920180Y-119704895D01*
X125345933Y-120517695D02*
X125500752Y-120517695D01*
X125578161Y-120478990D01*
X125616866Y-120440285D01*
X125694276Y-120324171D01*
X125732980Y-120169352D01*
X125732980Y-119859714D01*
X125694276Y-119782304D01*
X125655571Y-119743600D01*
X125578161Y-119704895D01*
X125423342Y-119704895D01*
X125345933Y-119743600D01*
X125307228Y-119782304D01*
X125268523Y-119859714D01*
X125268523Y-120053238D01*
X125307228Y-120130647D01*
X125345933Y-120169352D01*
X125423342Y-120208057D01*
X125578161Y-120208057D01*
X125655571Y-120169352D01*
X125694276Y-120130647D01*
X125732980Y-120053238D01*
X157539266Y-111199990D02*
X157655380Y-111238695D01*
X157848904Y-111238695D01*
X157926314Y-111199990D01*
X157965019Y-111161285D01*
X158003723Y-111083876D01*
X158003723Y-111006466D01*
X157965019Y-110929057D01*
X157926314Y-110890352D01*
X157848904Y-110851647D01*
X157694085Y-110812942D01*
X157616676Y-110774238D01*
X157577971Y-110735533D01*
X157539266Y-110658123D01*
X157539266Y-110580714D01*
X157577971Y-110503304D01*
X157616676Y-110464600D01*
X157694085Y-110425895D01*
X157887609Y-110425895D01*
X158003723Y-110464600D01*
X158274657Y-110425895D02*
X158468180Y-111238695D01*
X158623000Y-110658123D01*
X158777819Y-111238695D01*
X158971342Y-110425895D01*
X159706733Y-111238695D02*
X159242276Y-111238695D01*
X159474504Y-111238695D02*
X159474504Y-110425895D01*
X159397095Y-110542009D01*
X159319685Y-110619419D01*
X159242276Y-110658123D01*
D12*
X154187221Y-109960000D02*
X154512779Y-109960000D01*
X154187221Y-108940000D02*
X154512779Y-108940000D01*
X97010000Y-122512779D02*
X97010000Y-122187221D01*
X95990000Y-122512779D02*
X95990000Y-122187221D01*
X116340000Y-122512779D02*
X116340000Y-122187221D01*
X117360000Y-122512779D02*
X117360000Y-122187221D01*
X139190000Y-122512779D02*
X139190000Y-122187221D01*
X140210000Y-122512779D02*
X140210000Y-122187221D01*
X151560000Y-122512779D02*
X151560000Y-122187221D01*
X150540000Y-122512779D02*
X150540000Y-122187221D01*
X160510000Y-122512779D02*
X160510000Y-122187221D01*
X159490000Y-122512779D02*
X159490000Y-122187221D01*
D13*
X115825000Y-116400000D02*
X115825000Y-122375000D01*
X108925000Y-117925000D02*
X108925000Y-122375000D01*
X143125000Y-117925000D02*
X143125000Y-122375000D01*
X150025000Y-116400000D02*
X150025000Y-122375000D01*
X131775000Y-117925000D02*
X131775000Y-122375000D01*
X138675000Y-116400000D02*
X138675000Y-122375000D01*
X158975000Y-116400000D02*
X158975000Y-122375000D01*
X152075000Y-117925000D02*
X152075000Y-122375000D01*
D12*
X111587221Y-109960000D02*
X111912779Y-109960000D01*
X111587221Y-108940000D02*
X111912779Y-108940000D01*
D14*
X108650000Y-103580000D02*
X89250000Y-103580000D01*
D12*
X90250000Y-115820000D02*
X108650000Y-115820000D01*
D13*
X105625000Y-116400000D02*
X105625000Y-122375000D01*
X98725000Y-117925000D02*
X98725000Y-122375000D01*
D12*
X78187221Y-114260000D02*
X78512779Y-114260000D01*
X78187221Y-113240000D02*
X78512779Y-113240000D01*
X133040000Y-115820000D02*
X151440000Y-115820000D01*
D14*
X151440000Y-103580000D02*
X132040000Y-103580000D01*
D12*
X86860000Y-122512779D02*
X86860000Y-122187221D01*
X85840000Y-122512779D02*
X85840000Y-122187221D01*
D13*
X85325000Y-116400000D02*
X85325000Y-122375000D01*
X78425000Y-117925000D02*
X78425000Y-122375000D01*
D12*
X107223500Y-122512779D02*
X107223500Y-122187221D01*
X106203500Y-122512779D02*
X106203500Y-122187221D01*
D13*
X128525000Y-116400000D02*
X128525000Y-122375000D01*
X121625000Y-117925000D02*
X121625000Y-122375000D01*
D12*
X129040000Y-122512779D02*
X129040000Y-122187221D01*
X130060000Y-122512779D02*
X130060000Y-122187221D01*
X142010000Y-122512779D02*
X142010000Y-122187221D01*
X140990000Y-122512779D02*
X140990000Y-122187221D01*
X87110000Y-108862779D02*
X87110000Y-108537221D01*
X86090000Y-108862779D02*
X86090000Y-108537221D01*
X126687221Y-109910000D02*
X127012779Y-109910000D01*
X126687221Y-108890000D02*
X127012779Y-108890000D01*
X77090000Y-121285779D02*
X77090000Y-120960221D01*
X78110000Y-121285779D02*
X78110000Y-120960221D01*
X95940000Y-118220000D02*
X95940000Y-120250000D01*
X98260000Y-119630000D02*
X98260000Y-118220000D01*
X157012779Y-103890000D02*
X156687221Y-103890000D01*
X157012779Y-104910000D02*
X156687221Y-104910000D01*
X154240000Y-105262779D02*
X154240000Y-104937221D01*
X155260000Y-105262779D02*
X155260000Y-104937221D01*
X118912779Y-120210000D02*
X118587221Y-120210000D01*
X118912779Y-119190000D02*
X118587221Y-119190000D01*
X77590000Y-109570000D02*
X79050000Y-109570000D01*
X77590000Y-112730000D02*
X77590000Y-111800000D01*
X77590000Y-112730000D02*
X79750000Y-112730000D01*
X77590000Y-109570000D02*
X77590000Y-110500000D01*
X159537221Y-103890000D02*
X159862779Y-103890000D01*
X159537221Y-104910000D02*
X159862779Y-104910000D01*
X155857000Y-108111000D02*
X157928000Y-108111000D01*
X155857000Y-113631000D02*
X156673000Y-113631000D01*
X159318000Y-108111000D02*
X161388000Y-108111000D01*
X161388000Y-113631000D02*
X161388000Y-108111000D01*
X159318000Y-113631000D02*
X161388000Y-113631000D01*
X156673000Y-115317000D02*
X156673000Y-113631000D01*
X155857000Y-113631000D02*
X155857000Y-108111000D01*
%LPC*%
D15*
X163195000Y-127635000D02*
X123825000Y-127635000D01*
X123825000Y-127635000D02*
X123317000Y-125031500D01*
X123317000Y-125031500D02*
X163703000Y-125031500D01*
X163703000Y-125031500D02*
X163195000Y-127635000D01*
G36*
X163195000Y-127635000D02*
G01*
X123825000Y-127635000D01*
X123317000Y-125031500D01*
X163703000Y-125031500D01*
X163195000Y-127635000D01*
G37*
X163195000Y-127635000D02*
X123825000Y-127635000D01*
X123317000Y-125031500D01*
X163703000Y-125031500D01*
X163195000Y-127635000D01*
X117475000Y-127635000D02*
X78105000Y-127635000D01*
X78105000Y-127635000D02*
X77597000Y-125031500D01*
X77597000Y-125031500D02*
X117983000Y-125031500D01*
X117983000Y-125031500D02*
X117475000Y-127635000D01*
G36*
X117475000Y-127635000D02*
G01*
X78105000Y-127635000D01*
X77597000Y-125031500D01*
X117983000Y-125031500D01*
X117475000Y-127635000D01*
G37*
X117475000Y-127635000D02*
X78105000Y-127635000D01*
X77597000Y-125031500D01*
X117983000Y-125031500D01*
X117475000Y-127635000D01*
D16*
X75438000Y-123444000D03*
D17*
X153600000Y-109450000D03*
X155100000Y-109450000D03*
D18*
X96500000Y-123100000D03*
X96500000Y-121600000D03*
X116850000Y-123100000D03*
X116850000Y-121600000D03*
X139700000Y-123100000D03*
X139700000Y-121600000D03*
X151050000Y-123100000D03*
X151050000Y-121600000D03*
X160000000Y-123100000D03*
X160000000Y-121600000D03*
D19*
X115300000Y-117200000D03*
X114650000Y-117200000D03*
X114000000Y-117200000D03*
X113350000Y-117200000D03*
X112700000Y-117200000D03*
X112050000Y-117200000D03*
X111400000Y-117200000D03*
X110750000Y-117200000D03*
X110100000Y-117200000D03*
X109450000Y-117200000D03*
X109450000Y-123100000D03*
X110100000Y-123100000D03*
X110750000Y-123100000D03*
X111400000Y-123100000D03*
X112050000Y-123100000D03*
X112700000Y-123100000D03*
X113350000Y-123100000D03*
X114000000Y-123100000D03*
X114650000Y-123100000D03*
X115300000Y-123100000D03*
X149500000Y-117200000D03*
X148850000Y-117200000D03*
X148200000Y-117200000D03*
X147550000Y-117200000D03*
X146900000Y-117200000D03*
X146250000Y-117200000D03*
X145600000Y-117200000D03*
X144950000Y-117200000D03*
X144300000Y-117200000D03*
X143650000Y-117200000D03*
X143650000Y-123100000D03*
X144300000Y-123100000D03*
X144950000Y-123100000D03*
X145600000Y-123100000D03*
X146250000Y-123100000D03*
X146900000Y-123100000D03*
X147550000Y-123100000D03*
X148200000Y-123100000D03*
X148850000Y-123100000D03*
X149500000Y-123100000D03*
D20*
X78105000Y-126111000D03*
X79375000Y-126111000D03*
X80645000Y-126111000D03*
X81915000Y-126111000D03*
X83185000Y-126111000D03*
X84455000Y-126111000D03*
X85725000Y-126111000D03*
X86995000Y-126111000D03*
X88265000Y-126111000D03*
X89535000Y-126111000D03*
X90805000Y-126111000D03*
X92075000Y-126111000D03*
X93345000Y-126111000D03*
X94615000Y-126111000D03*
X95885000Y-126111000D03*
X97155000Y-126111000D03*
X98425000Y-126111000D03*
X99695000Y-126111000D03*
X100965000Y-126111000D03*
X102235000Y-126111000D03*
X103505000Y-126111000D03*
X104775000Y-126111000D03*
X106045000Y-126111000D03*
X107315000Y-126111000D03*
X108585000Y-126111000D03*
X109855000Y-126111000D03*
X111125000Y-126111000D03*
X112395000Y-126111000D03*
X113665000Y-126111000D03*
X114935000Y-126111000D03*
X116205000Y-126111000D03*
X117475000Y-126111000D03*
X123825000Y-126111000D03*
X125095000Y-126111000D03*
X126365000Y-126111000D03*
X127635000Y-126111000D03*
X128905000Y-126111000D03*
X130175000Y-126111000D03*
X131445000Y-126111000D03*
X132715000Y-126111000D03*
X133985000Y-126111000D03*
X135255000Y-126111000D03*
X136525000Y-126111000D03*
X137795000Y-126111000D03*
X139065000Y-126111000D03*
X140335000Y-126111000D03*
X141605000Y-126111000D03*
X142875000Y-126111000D03*
X144145000Y-126111000D03*
X145415000Y-126111000D03*
X146685000Y-126111000D03*
X147955000Y-126111000D03*
X149225000Y-126111000D03*
X150495000Y-126111000D03*
X151765000Y-126111000D03*
X153035000Y-126111000D03*
X154305000Y-126111000D03*
X155575000Y-126111000D03*
X156845000Y-126111000D03*
X158115000Y-126111000D03*
X159385000Y-126111000D03*
X160655000Y-126111000D03*
X161925000Y-126111000D03*
X163195000Y-126111000D03*
D19*
X138150000Y-117200000D03*
X137500000Y-117200000D03*
X136850000Y-117200000D03*
X136200000Y-117200000D03*
X135550000Y-117200000D03*
X134900000Y-117200000D03*
X134250000Y-117200000D03*
X133600000Y-117200000D03*
X132950000Y-117200000D03*
X132300000Y-117200000D03*
X132300000Y-123100000D03*
X132950000Y-123100000D03*
X133600000Y-123100000D03*
X134250000Y-123100000D03*
X134900000Y-123100000D03*
X135550000Y-123100000D03*
X136200000Y-123100000D03*
X136850000Y-123100000D03*
X137500000Y-123100000D03*
X138150000Y-123100000D03*
X158450000Y-117200000D03*
X157800000Y-117200000D03*
X157150000Y-117200000D03*
X156500000Y-117200000D03*
X155850000Y-117200000D03*
X155200000Y-117200000D03*
X154550000Y-117200000D03*
X153900000Y-117200000D03*
X153250000Y-117200000D03*
X152600000Y-117200000D03*
X152600000Y-123100000D03*
X153250000Y-123100000D03*
X153900000Y-123100000D03*
X154550000Y-123100000D03*
X155200000Y-123100000D03*
X155850000Y-123100000D03*
X156500000Y-123100000D03*
X157150000Y-123100000D03*
X157800000Y-123100000D03*
X158450000Y-123100000D03*
D17*
X111000000Y-109450000D03*
X112500000Y-109450000D03*
D21*
X89700000Y-103950000D03*
X89700000Y-104450000D03*
X89700000Y-104950000D03*
X89700000Y-105450000D03*
X89700000Y-105950000D03*
X89700000Y-106450000D03*
X89700000Y-106950000D03*
X89700000Y-107450000D03*
X89700000Y-107950000D03*
X89700000Y-108450000D03*
X89700000Y-108950000D03*
X89700000Y-109450000D03*
X89700000Y-109950000D03*
X89700000Y-110450000D03*
X89700000Y-110950000D03*
X89700000Y-111450000D03*
X89700000Y-111950000D03*
X89700000Y-112450000D03*
X89700000Y-112950000D03*
X89700000Y-113450000D03*
X89700000Y-113950000D03*
X89700000Y-114450000D03*
X89700000Y-114950000D03*
X89700000Y-115450000D03*
X109200000Y-115450000D03*
X109200000Y-114950000D03*
X109200000Y-114450000D03*
X109200000Y-113950000D03*
X109200000Y-113450000D03*
X109200000Y-112950000D03*
X109200000Y-112450000D03*
X109200000Y-111950000D03*
X109200000Y-111450000D03*
X109200000Y-110950000D03*
X109200000Y-110450000D03*
X109200000Y-109950000D03*
X109200000Y-109450000D03*
X109200000Y-108950000D03*
X109200000Y-108450000D03*
X109200000Y-107950000D03*
X109200000Y-107450000D03*
X109200000Y-106950000D03*
X109200000Y-106450000D03*
X109200000Y-105950000D03*
X109200000Y-105450000D03*
X109200000Y-104950000D03*
X109200000Y-104450000D03*
X109200000Y-103950000D03*
D19*
X105100000Y-117200000D03*
X104450000Y-117200000D03*
X103800000Y-117200000D03*
X103150000Y-117200000D03*
X102500000Y-117200000D03*
X101850000Y-117200000D03*
X101200000Y-117200000D03*
X100550000Y-117200000D03*
X99900000Y-117200000D03*
X99250000Y-117200000D03*
X99250000Y-123100000D03*
X99900000Y-123100000D03*
X100550000Y-123100000D03*
X101200000Y-123100000D03*
X101850000Y-123100000D03*
X102500000Y-123100000D03*
X103150000Y-123100000D03*
X103800000Y-123100000D03*
X104450000Y-123100000D03*
X105100000Y-123100000D03*
D17*
X77600000Y-113750000D03*
X79100000Y-113750000D03*
D21*
X132490000Y-103950000D03*
X132490000Y-104450000D03*
X132490000Y-104950000D03*
X132490000Y-105450000D03*
X132490000Y-105950000D03*
X132490000Y-106450000D03*
X132490000Y-106950000D03*
X132490000Y-107450000D03*
X132490000Y-107950000D03*
X132490000Y-108450000D03*
X132490000Y-108950000D03*
X132490000Y-109450000D03*
X132490000Y-109950000D03*
X132490000Y-110450000D03*
X132490000Y-110950000D03*
X132490000Y-111450000D03*
X132490000Y-111950000D03*
X132490000Y-112450000D03*
X132490000Y-112950000D03*
X132490000Y-113450000D03*
X132490000Y-113950000D03*
X132490000Y-114450000D03*
X132490000Y-114950000D03*
X132490000Y-115450000D03*
X151990000Y-115450000D03*
X151990000Y-114950000D03*
X151990000Y-114450000D03*
X151990000Y-113950000D03*
X151990000Y-113450000D03*
X151990000Y-112950000D03*
X151990000Y-112450000D03*
X151990000Y-111950000D03*
X151990000Y-111450000D03*
X151990000Y-110950000D03*
X151990000Y-110450000D03*
X151990000Y-109950000D03*
X151990000Y-109450000D03*
X151990000Y-108950000D03*
X151990000Y-108450000D03*
X151990000Y-107950000D03*
X151990000Y-107450000D03*
X151990000Y-106950000D03*
X151990000Y-106450000D03*
X151990000Y-105950000D03*
X151990000Y-105450000D03*
X151990000Y-104950000D03*
X151990000Y-104450000D03*
X151990000Y-103950000D03*
D18*
X86350000Y-123100000D03*
X86350000Y-121600000D03*
D19*
X84800000Y-117200000D03*
X84150000Y-117200000D03*
X83500000Y-117200000D03*
X82850000Y-117200000D03*
X82200000Y-117200000D03*
X81550000Y-117200000D03*
X80900000Y-117200000D03*
X80250000Y-117200000D03*
X79600000Y-117200000D03*
X78950000Y-117200000D03*
X78950000Y-123100000D03*
X79600000Y-123100000D03*
X80250000Y-123100000D03*
X80900000Y-123100000D03*
X81550000Y-123100000D03*
X82200000Y-123100000D03*
X82850000Y-123100000D03*
X83500000Y-123100000D03*
X84150000Y-123100000D03*
X84800000Y-123100000D03*
D18*
X106713500Y-123100000D03*
X106713500Y-121600000D03*
D19*
X128000000Y-117200000D03*
X127350000Y-117200000D03*
X126700000Y-117200000D03*
X126050000Y-117200000D03*
X125400000Y-117200000D03*
X124750000Y-117200000D03*
X124100000Y-117200000D03*
X123450000Y-117200000D03*
X122800000Y-117200000D03*
X122150000Y-117200000D03*
X122150000Y-123100000D03*
X122800000Y-123100000D03*
X123450000Y-123100000D03*
X124100000Y-123100000D03*
X124750000Y-123100000D03*
X125400000Y-123100000D03*
X126050000Y-123100000D03*
X126700000Y-123100000D03*
X127350000Y-123100000D03*
X128000000Y-123100000D03*
D18*
X129550000Y-123100000D03*
X129550000Y-121600000D03*
X141500000Y-123100000D03*
X141500000Y-121600000D03*
X86600000Y-109450000D03*
X86600000Y-107950000D03*
D16*
X167894000Y-123444000D03*
X162433000Y-104267000D03*
X75946000Y-104267000D03*
D17*
X126100000Y-109400000D03*
X127600000Y-109400000D03*
D18*
X77600000Y-121873000D03*
X77600000Y-120373000D03*
D22*
X96450000Y-119800000D03*
X97100000Y-119800000D03*
X97750000Y-119800000D03*
X97750000Y-118100000D03*
X96450000Y-118100000D03*
D23*
X157650000Y-104400000D03*
X156050000Y-104400000D03*
D24*
X154750000Y-105900000D03*
X154750000Y-104300000D03*
D23*
X119550000Y-119700000D03*
X117950000Y-119700000D03*
D25*
X79400000Y-112100000D03*
X79400000Y-110200000D03*
X77300000Y-111150000D03*
D26*
X73406000Y-104267000D03*
X75438000Y-125984000D03*
X167894000Y-125984000D03*
X167894000Y-104267000D03*
D27*
X158900000Y-104400000D03*
X160500000Y-104400000D03*
D28*
X157353000Y-114681000D03*
X158623000Y-114681000D03*
X159893000Y-114681000D03*
X159893000Y-107061000D03*
X158623000Y-107061000D03*
X157353000Y-107061000D03*
M02*
