G04 #@! TF.GenerationSoftware,KiCad,Pcbnew,(5.1.5-0-10_14)*
G04 #@! TF.CreationDate,2020-05-15T18:32:20-04:00*
G04 #@! TF.ProjectId,ROMSIMM,524f4d53-494d-44d2-9e6b-696361645f70,rev?*
G04 #@! TF.SameCoordinates,Original*
G04 #@! TF.FileFunction,Soldermask,Bot*
G04 #@! TF.FilePolarity,Negative*
%FSLAX46Y46*%
G04 Gerber Fmt 4.6, Leading zero omitted, Abs format (unit mm)*
G04 Created by KiCad (PCBNEW (5.1.5-0-10_14)) date 2020-05-15 18:32:20*
%MOMM*%
%LPD*%
G04 APERTURE LIST*
%ADD10C,0.100000*%
G04 APERTURE END LIST*
D10*
G36*
X78329734Y-124520044D02*
G01*
X78416388Y-124546330D01*
X78496245Y-124589015D01*
X78566241Y-124646459D01*
X78623685Y-124716455D01*
X78666369Y-124796311D01*
X78667082Y-124798660D01*
X78672799Y-124812460D01*
X78681097Y-124824880D01*
X78691660Y-124835443D01*
X78704080Y-124843742D01*
X78717881Y-124849458D01*
X78732531Y-124852372D01*
X78747469Y-124852372D01*
X78762120Y-124849458D01*
X78775920Y-124843741D01*
X78788340Y-124835443D01*
X78798903Y-124824880D01*
X78807202Y-124812460D01*
X78812918Y-124798660D01*
X78813631Y-124796311D01*
X78856315Y-124716455D01*
X78913759Y-124646459D01*
X78983755Y-124589015D01*
X79063612Y-124546330D01*
X79150266Y-124520044D01*
X79244123Y-124510800D01*
X79505877Y-124510800D01*
X79599734Y-124520044D01*
X79686388Y-124546330D01*
X79766245Y-124589015D01*
X79836241Y-124646459D01*
X79893685Y-124716455D01*
X79936369Y-124796311D01*
X79937082Y-124798660D01*
X79942799Y-124812460D01*
X79951097Y-124824880D01*
X79961660Y-124835443D01*
X79974080Y-124843742D01*
X79987881Y-124849458D01*
X80002531Y-124852372D01*
X80017469Y-124852372D01*
X80032120Y-124849458D01*
X80045920Y-124843741D01*
X80058340Y-124835443D01*
X80068903Y-124824880D01*
X80077202Y-124812460D01*
X80082918Y-124798660D01*
X80083631Y-124796311D01*
X80126315Y-124716455D01*
X80183759Y-124646459D01*
X80253755Y-124589015D01*
X80333612Y-124546330D01*
X80420266Y-124520044D01*
X80514123Y-124510800D01*
X80775877Y-124510800D01*
X80869734Y-124520044D01*
X80956388Y-124546330D01*
X81036245Y-124589015D01*
X81106241Y-124646459D01*
X81163685Y-124716455D01*
X81206369Y-124796311D01*
X81207082Y-124798660D01*
X81212799Y-124812460D01*
X81221097Y-124824880D01*
X81231660Y-124835443D01*
X81244080Y-124843742D01*
X81257881Y-124849458D01*
X81272531Y-124852372D01*
X81287469Y-124852372D01*
X81302120Y-124849458D01*
X81315920Y-124843741D01*
X81328340Y-124835443D01*
X81338903Y-124824880D01*
X81347202Y-124812460D01*
X81352918Y-124798660D01*
X81353631Y-124796311D01*
X81396315Y-124716455D01*
X81453759Y-124646459D01*
X81523755Y-124589015D01*
X81603612Y-124546330D01*
X81690266Y-124520044D01*
X81784123Y-124510800D01*
X82045877Y-124510800D01*
X82139734Y-124520044D01*
X82226388Y-124546330D01*
X82306245Y-124589015D01*
X82376241Y-124646459D01*
X82433685Y-124716455D01*
X82476369Y-124796311D01*
X82477082Y-124798660D01*
X82482799Y-124812460D01*
X82491097Y-124824880D01*
X82501660Y-124835443D01*
X82514080Y-124843742D01*
X82527881Y-124849458D01*
X82542531Y-124852372D01*
X82557469Y-124852372D01*
X82572120Y-124849458D01*
X82585920Y-124843741D01*
X82598340Y-124835443D01*
X82608903Y-124824880D01*
X82617202Y-124812460D01*
X82622918Y-124798660D01*
X82623631Y-124796311D01*
X82666315Y-124716455D01*
X82723759Y-124646459D01*
X82793755Y-124589015D01*
X82873612Y-124546330D01*
X82960266Y-124520044D01*
X83054123Y-124510800D01*
X83315877Y-124510800D01*
X83409734Y-124520044D01*
X83496388Y-124546330D01*
X83576245Y-124589015D01*
X83646241Y-124646459D01*
X83703685Y-124716455D01*
X83746369Y-124796311D01*
X83747082Y-124798660D01*
X83752799Y-124812460D01*
X83761097Y-124824880D01*
X83771660Y-124835443D01*
X83784080Y-124843742D01*
X83797881Y-124849458D01*
X83812531Y-124852372D01*
X83827469Y-124852372D01*
X83842120Y-124849458D01*
X83855920Y-124843741D01*
X83868340Y-124835443D01*
X83878903Y-124824880D01*
X83887202Y-124812460D01*
X83892918Y-124798660D01*
X83893631Y-124796311D01*
X83936315Y-124716455D01*
X83993759Y-124646459D01*
X84063755Y-124589015D01*
X84143612Y-124546330D01*
X84230266Y-124520044D01*
X84324123Y-124510800D01*
X84585877Y-124510800D01*
X84679734Y-124520044D01*
X84766388Y-124546330D01*
X84846245Y-124589015D01*
X84916241Y-124646459D01*
X84973685Y-124716455D01*
X85016369Y-124796311D01*
X85017082Y-124798660D01*
X85022799Y-124812460D01*
X85031097Y-124824880D01*
X85041660Y-124835443D01*
X85054080Y-124843742D01*
X85067881Y-124849458D01*
X85082531Y-124852372D01*
X85097469Y-124852372D01*
X85112120Y-124849458D01*
X85125920Y-124843741D01*
X85138340Y-124835443D01*
X85148903Y-124824880D01*
X85157202Y-124812460D01*
X85162918Y-124798660D01*
X85163631Y-124796311D01*
X85206315Y-124716455D01*
X85263759Y-124646459D01*
X85333755Y-124589015D01*
X85413612Y-124546330D01*
X85500266Y-124520044D01*
X85594123Y-124510800D01*
X85855877Y-124510800D01*
X85949734Y-124520044D01*
X86036388Y-124546330D01*
X86116245Y-124589015D01*
X86186241Y-124646459D01*
X86243685Y-124716455D01*
X86286369Y-124796311D01*
X86287082Y-124798660D01*
X86292799Y-124812460D01*
X86301097Y-124824880D01*
X86311660Y-124835443D01*
X86324080Y-124843742D01*
X86337881Y-124849458D01*
X86352531Y-124852372D01*
X86367469Y-124852372D01*
X86382120Y-124849458D01*
X86395920Y-124843741D01*
X86408340Y-124835443D01*
X86418903Y-124824880D01*
X86427202Y-124812460D01*
X86432918Y-124798660D01*
X86433631Y-124796311D01*
X86476315Y-124716455D01*
X86533759Y-124646459D01*
X86603755Y-124589015D01*
X86683612Y-124546330D01*
X86770266Y-124520044D01*
X86864123Y-124510800D01*
X87125877Y-124510800D01*
X87219734Y-124520044D01*
X87306388Y-124546330D01*
X87386245Y-124589015D01*
X87456241Y-124646459D01*
X87513685Y-124716455D01*
X87556369Y-124796311D01*
X87557082Y-124798660D01*
X87562799Y-124812460D01*
X87571097Y-124824880D01*
X87581660Y-124835443D01*
X87594080Y-124843742D01*
X87607881Y-124849458D01*
X87622531Y-124852372D01*
X87637469Y-124852372D01*
X87652120Y-124849458D01*
X87665920Y-124843741D01*
X87678340Y-124835443D01*
X87688903Y-124824880D01*
X87697202Y-124812460D01*
X87702918Y-124798660D01*
X87703631Y-124796311D01*
X87746315Y-124716455D01*
X87803759Y-124646459D01*
X87873755Y-124589015D01*
X87953612Y-124546330D01*
X88040266Y-124520044D01*
X88134123Y-124510800D01*
X88395877Y-124510800D01*
X88489734Y-124520044D01*
X88576388Y-124546330D01*
X88656245Y-124589015D01*
X88726241Y-124646459D01*
X88783685Y-124716455D01*
X88826369Y-124796311D01*
X88827082Y-124798660D01*
X88832799Y-124812460D01*
X88841097Y-124824880D01*
X88851660Y-124835443D01*
X88864080Y-124843742D01*
X88877881Y-124849458D01*
X88892531Y-124852372D01*
X88907469Y-124852372D01*
X88922120Y-124849458D01*
X88935920Y-124843741D01*
X88948340Y-124835443D01*
X88958903Y-124824880D01*
X88967202Y-124812460D01*
X88972918Y-124798660D01*
X88973631Y-124796311D01*
X89016315Y-124716455D01*
X89073759Y-124646459D01*
X89143755Y-124589015D01*
X89223612Y-124546330D01*
X89310266Y-124520044D01*
X89404123Y-124510800D01*
X89665877Y-124510800D01*
X89759734Y-124520044D01*
X89846388Y-124546330D01*
X89926245Y-124589015D01*
X89996241Y-124646459D01*
X90053685Y-124716455D01*
X90096369Y-124796311D01*
X90097082Y-124798660D01*
X90102799Y-124812460D01*
X90111097Y-124824880D01*
X90121660Y-124835443D01*
X90134080Y-124843742D01*
X90147881Y-124849458D01*
X90162531Y-124852372D01*
X90177469Y-124852372D01*
X90192120Y-124849458D01*
X90205920Y-124843741D01*
X90218340Y-124835443D01*
X90228903Y-124824880D01*
X90237202Y-124812460D01*
X90242918Y-124798660D01*
X90243631Y-124796311D01*
X90286315Y-124716455D01*
X90343759Y-124646459D01*
X90413755Y-124589015D01*
X90493612Y-124546330D01*
X90580266Y-124520044D01*
X90674123Y-124510800D01*
X90935877Y-124510800D01*
X91029734Y-124520044D01*
X91116388Y-124546330D01*
X91196245Y-124589015D01*
X91266241Y-124646459D01*
X91323685Y-124716455D01*
X91366369Y-124796311D01*
X91367082Y-124798660D01*
X91372799Y-124812460D01*
X91381097Y-124824880D01*
X91391660Y-124835443D01*
X91404080Y-124843742D01*
X91417881Y-124849458D01*
X91432531Y-124852372D01*
X91447469Y-124852372D01*
X91462120Y-124849458D01*
X91475920Y-124843741D01*
X91488340Y-124835443D01*
X91498903Y-124824880D01*
X91507202Y-124812460D01*
X91512918Y-124798660D01*
X91513631Y-124796311D01*
X91556315Y-124716455D01*
X91613759Y-124646459D01*
X91683755Y-124589015D01*
X91763612Y-124546330D01*
X91850266Y-124520044D01*
X91944123Y-124510800D01*
X92205877Y-124510800D01*
X92299734Y-124520044D01*
X92386388Y-124546330D01*
X92466245Y-124589015D01*
X92536241Y-124646459D01*
X92593685Y-124716455D01*
X92636369Y-124796311D01*
X92637082Y-124798660D01*
X92642799Y-124812460D01*
X92651097Y-124824880D01*
X92661660Y-124835443D01*
X92674080Y-124843742D01*
X92687881Y-124849458D01*
X92702531Y-124852372D01*
X92717469Y-124852372D01*
X92732120Y-124849458D01*
X92745920Y-124843741D01*
X92758340Y-124835443D01*
X92768903Y-124824880D01*
X92777202Y-124812460D01*
X92782918Y-124798660D01*
X92783631Y-124796311D01*
X92826315Y-124716455D01*
X92883759Y-124646459D01*
X92953755Y-124589015D01*
X93033612Y-124546330D01*
X93120266Y-124520044D01*
X93214123Y-124510800D01*
X93475877Y-124510800D01*
X93569734Y-124520044D01*
X93656388Y-124546330D01*
X93736245Y-124589015D01*
X93806241Y-124646459D01*
X93863685Y-124716455D01*
X93906369Y-124796311D01*
X93907082Y-124798660D01*
X93912799Y-124812460D01*
X93921097Y-124824880D01*
X93931660Y-124835443D01*
X93944080Y-124843742D01*
X93957881Y-124849458D01*
X93972531Y-124852372D01*
X93987469Y-124852372D01*
X94002120Y-124849458D01*
X94015920Y-124843741D01*
X94028340Y-124835443D01*
X94038903Y-124824880D01*
X94047202Y-124812460D01*
X94052918Y-124798660D01*
X94053631Y-124796311D01*
X94096315Y-124716455D01*
X94153759Y-124646459D01*
X94223755Y-124589015D01*
X94303612Y-124546330D01*
X94390266Y-124520044D01*
X94484123Y-124510800D01*
X94745877Y-124510800D01*
X94839734Y-124520044D01*
X94926388Y-124546330D01*
X95006245Y-124589015D01*
X95076241Y-124646459D01*
X95133685Y-124716455D01*
X95176369Y-124796311D01*
X95177082Y-124798660D01*
X95182799Y-124812460D01*
X95191097Y-124824880D01*
X95201660Y-124835443D01*
X95214080Y-124843742D01*
X95227881Y-124849458D01*
X95242531Y-124852372D01*
X95257469Y-124852372D01*
X95272120Y-124849458D01*
X95285920Y-124843741D01*
X95298340Y-124835443D01*
X95308903Y-124824880D01*
X95317202Y-124812460D01*
X95322918Y-124798660D01*
X95323631Y-124796311D01*
X95366315Y-124716455D01*
X95423759Y-124646459D01*
X95493755Y-124589015D01*
X95573612Y-124546330D01*
X95660266Y-124520044D01*
X95754123Y-124510800D01*
X96015877Y-124510800D01*
X96109734Y-124520044D01*
X96196388Y-124546330D01*
X96276245Y-124589015D01*
X96346241Y-124646459D01*
X96403685Y-124716455D01*
X96446369Y-124796311D01*
X96447082Y-124798660D01*
X96452799Y-124812460D01*
X96461097Y-124824880D01*
X96471660Y-124835443D01*
X96484080Y-124843742D01*
X96497881Y-124849458D01*
X96512531Y-124852372D01*
X96527469Y-124852372D01*
X96542120Y-124849458D01*
X96555920Y-124843741D01*
X96568340Y-124835443D01*
X96578903Y-124824880D01*
X96587202Y-124812460D01*
X96592918Y-124798660D01*
X96593631Y-124796311D01*
X96636315Y-124716455D01*
X96693759Y-124646459D01*
X96763755Y-124589015D01*
X96843612Y-124546330D01*
X96930266Y-124520044D01*
X97024123Y-124510800D01*
X97285877Y-124510800D01*
X97379734Y-124520044D01*
X97466388Y-124546330D01*
X97546245Y-124589015D01*
X97616241Y-124646459D01*
X97673685Y-124716455D01*
X97716369Y-124796311D01*
X97717082Y-124798660D01*
X97722799Y-124812460D01*
X97731097Y-124824880D01*
X97741660Y-124835443D01*
X97754080Y-124843742D01*
X97767881Y-124849458D01*
X97782531Y-124852372D01*
X97797469Y-124852372D01*
X97812120Y-124849458D01*
X97825920Y-124843741D01*
X97838340Y-124835443D01*
X97848903Y-124824880D01*
X97857202Y-124812460D01*
X97862918Y-124798660D01*
X97863631Y-124796311D01*
X97906315Y-124716455D01*
X97963759Y-124646459D01*
X98033755Y-124589015D01*
X98113612Y-124546330D01*
X98200266Y-124520044D01*
X98294123Y-124510800D01*
X98555877Y-124510800D01*
X98649734Y-124520044D01*
X98736388Y-124546330D01*
X98816245Y-124589015D01*
X98886241Y-124646459D01*
X98943685Y-124716455D01*
X98986369Y-124796311D01*
X98987082Y-124798660D01*
X98992799Y-124812460D01*
X99001097Y-124824880D01*
X99011660Y-124835443D01*
X99024080Y-124843742D01*
X99037881Y-124849458D01*
X99052531Y-124852372D01*
X99067469Y-124852372D01*
X99082120Y-124849458D01*
X99095920Y-124843741D01*
X99108340Y-124835443D01*
X99118903Y-124824880D01*
X99127202Y-124812460D01*
X99132918Y-124798660D01*
X99133631Y-124796311D01*
X99176315Y-124716455D01*
X99233759Y-124646459D01*
X99303755Y-124589015D01*
X99383612Y-124546330D01*
X99470266Y-124520044D01*
X99564123Y-124510800D01*
X99825877Y-124510800D01*
X99919734Y-124520044D01*
X100006388Y-124546330D01*
X100086245Y-124589015D01*
X100156241Y-124646459D01*
X100213685Y-124716455D01*
X100256369Y-124796311D01*
X100257082Y-124798660D01*
X100262799Y-124812460D01*
X100271097Y-124824880D01*
X100281660Y-124835443D01*
X100294080Y-124843742D01*
X100307881Y-124849458D01*
X100322531Y-124852372D01*
X100337469Y-124852372D01*
X100352120Y-124849458D01*
X100365920Y-124843741D01*
X100378340Y-124835443D01*
X100388903Y-124824880D01*
X100397202Y-124812460D01*
X100402918Y-124798660D01*
X100403631Y-124796311D01*
X100446315Y-124716455D01*
X100503759Y-124646459D01*
X100573755Y-124589015D01*
X100653612Y-124546330D01*
X100740266Y-124520044D01*
X100834123Y-124510800D01*
X101095877Y-124510800D01*
X101189734Y-124520044D01*
X101276388Y-124546330D01*
X101356245Y-124589015D01*
X101426241Y-124646459D01*
X101483685Y-124716455D01*
X101526369Y-124796311D01*
X101527082Y-124798660D01*
X101532799Y-124812460D01*
X101541097Y-124824880D01*
X101551660Y-124835443D01*
X101564080Y-124843742D01*
X101577881Y-124849458D01*
X101592531Y-124852372D01*
X101607469Y-124852372D01*
X101622120Y-124849458D01*
X101635920Y-124843741D01*
X101648340Y-124835443D01*
X101658903Y-124824880D01*
X101667202Y-124812460D01*
X101672918Y-124798660D01*
X101673631Y-124796311D01*
X101716315Y-124716455D01*
X101773759Y-124646459D01*
X101843755Y-124589015D01*
X101923612Y-124546330D01*
X102010266Y-124520044D01*
X102104123Y-124510800D01*
X102365877Y-124510800D01*
X102459734Y-124520044D01*
X102546388Y-124546330D01*
X102626245Y-124589015D01*
X102696241Y-124646459D01*
X102753685Y-124716455D01*
X102796369Y-124796311D01*
X102797082Y-124798660D01*
X102802799Y-124812460D01*
X102811097Y-124824880D01*
X102821660Y-124835443D01*
X102834080Y-124843742D01*
X102847881Y-124849458D01*
X102862531Y-124852372D01*
X102877469Y-124852372D01*
X102892120Y-124849458D01*
X102905920Y-124843741D01*
X102918340Y-124835443D01*
X102928903Y-124824880D01*
X102937202Y-124812460D01*
X102942918Y-124798660D01*
X102943631Y-124796311D01*
X102986315Y-124716455D01*
X103043759Y-124646459D01*
X103113755Y-124589015D01*
X103193612Y-124546330D01*
X103280266Y-124520044D01*
X103374123Y-124510800D01*
X103635877Y-124510800D01*
X103729734Y-124520044D01*
X103816388Y-124546330D01*
X103896245Y-124589015D01*
X103966241Y-124646459D01*
X104023685Y-124716455D01*
X104066369Y-124796311D01*
X104067082Y-124798660D01*
X104072799Y-124812460D01*
X104081097Y-124824880D01*
X104091660Y-124835443D01*
X104104080Y-124843742D01*
X104117881Y-124849458D01*
X104132531Y-124852372D01*
X104147469Y-124852372D01*
X104162120Y-124849458D01*
X104175920Y-124843741D01*
X104188340Y-124835443D01*
X104198903Y-124824880D01*
X104207202Y-124812460D01*
X104212918Y-124798660D01*
X104213631Y-124796311D01*
X104256315Y-124716455D01*
X104313759Y-124646459D01*
X104383755Y-124589015D01*
X104463612Y-124546330D01*
X104550266Y-124520044D01*
X104644123Y-124510800D01*
X104905877Y-124510800D01*
X104999734Y-124520044D01*
X105086388Y-124546330D01*
X105166245Y-124589015D01*
X105236241Y-124646459D01*
X105293685Y-124716455D01*
X105336369Y-124796311D01*
X105337082Y-124798660D01*
X105342799Y-124812460D01*
X105351097Y-124824880D01*
X105361660Y-124835443D01*
X105374080Y-124843742D01*
X105387881Y-124849458D01*
X105402531Y-124852372D01*
X105417469Y-124852372D01*
X105432120Y-124849458D01*
X105445920Y-124843741D01*
X105458340Y-124835443D01*
X105468903Y-124824880D01*
X105477202Y-124812460D01*
X105482918Y-124798660D01*
X105483631Y-124796311D01*
X105526315Y-124716455D01*
X105583759Y-124646459D01*
X105653755Y-124589015D01*
X105733612Y-124546330D01*
X105820266Y-124520044D01*
X105914123Y-124510800D01*
X106175877Y-124510800D01*
X106269734Y-124520044D01*
X106356388Y-124546330D01*
X106436245Y-124589015D01*
X106506241Y-124646459D01*
X106563685Y-124716455D01*
X106606369Y-124796311D01*
X106607082Y-124798660D01*
X106612799Y-124812460D01*
X106621097Y-124824880D01*
X106631660Y-124835443D01*
X106644080Y-124843742D01*
X106657881Y-124849458D01*
X106672531Y-124852372D01*
X106687469Y-124852372D01*
X106702120Y-124849458D01*
X106715920Y-124843741D01*
X106728340Y-124835443D01*
X106738903Y-124824880D01*
X106747202Y-124812460D01*
X106752918Y-124798660D01*
X106753631Y-124796311D01*
X106796315Y-124716455D01*
X106853759Y-124646459D01*
X106923755Y-124589015D01*
X107003612Y-124546330D01*
X107090266Y-124520044D01*
X107184123Y-124510800D01*
X107445877Y-124510800D01*
X107539734Y-124520044D01*
X107626388Y-124546330D01*
X107706245Y-124589015D01*
X107776241Y-124646459D01*
X107833685Y-124716455D01*
X107876369Y-124796311D01*
X107877082Y-124798660D01*
X107882799Y-124812460D01*
X107891097Y-124824880D01*
X107901660Y-124835443D01*
X107914080Y-124843742D01*
X107927881Y-124849458D01*
X107942531Y-124852372D01*
X107957469Y-124852372D01*
X107972120Y-124849458D01*
X107985920Y-124843741D01*
X107998340Y-124835443D01*
X108008903Y-124824880D01*
X108017202Y-124812460D01*
X108022918Y-124798660D01*
X108023631Y-124796311D01*
X108066315Y-124716455D01*
X108123759Y-124646459D01*
X108193755Y-124589015D01*
X108273612Y-124546330D01*
X108360266Y-124520044D01*
X108454123Y-124510800D01*
X108715877Y-124510800D01*
X108809734Y-124520044D01*
X108896388Y-124546330D01*
X108976245Y-124589015D01*
X109046241Y-124646459D01*
X109103685Y-124716455D01*
X109146369Y-124796311D01*
X109147082Y-124798660D01*
X109152799Y-124812460D01*
X109161097Y-124824880D01*
X109171660Y-124835443D01*
X109184080Y-124843742D01*
X109197881Y-124849458D01*
X109212531Y-124852372D01*
X109227469Y-124852372D01*
X109242120Y-124849458D01*
X109255920Y-124843741D01*
X109268340Y-124835443D01*
X109278903Y-124824880D01*
X109287202Y-124812460D01*
X109292918Y-124798660D01*
X109293631Y-124796311D01*
X109336315Y-124716455D01*
X109393759Y-124646459D01*
X109463755Y-124589015D01*
X109543612Y-124546330D01*
X109630266Y-124520044D01*
X109724123Y-124510800D01*
X109985877Y-124510800D01*
X110079734Y-124520044D01*
X110166388Y-124546330D01*
X110246245Y-124589015D01*
X110316241Y-124646459D01*
X110373685Y-124716455D01*
X110416369Y-124796311D01*
X110417082Y-124798660D01*
X110422799Y-124812460D01*
X110431097Y-124824880D01*
X110441660Y-124835443D01*
X110454080Y-124843742D01*
X110467881Y-124849458D01*
X110482531Y-124852372D01*
X110497469Y-124852372D01*
X110512120Y-124849458D01*
X110525920Y-124843741D01*
X110538340Y-124835443D01*
X110548903Y-124824880D01*
X110557202Y-124812460D01*
X110562918Y-124798660D01*
X110563631Y-124796311D01*
X110606315Y-124716455D01*
X110663759Y-124646459D01*
X110733755Y-124589015D01*
X110813612Y-124546330D01*
X110900266Y-124520044D01*
X110994123Y-124510800D01*
X111255877Y-124510800D01*
X111349734Y-124520044D01*
X111436388Y-124546330D01*
X111516245Y-124589015D01*
X111586241Y-124646459D01*
X111643685Y-124716455D01*
X111686369Y-124796311D01*
X111687082Y-124798660D01*
X111692799Y-124812460D01*
X111701097Y-124824880D01*
X111711660Y-124835443D01*
X111724080Y-124843742D01*
X111737881Y-124849458D01*
X111752531Y-124852372D01*
X111767469Y-124852372D01*
X111782120Y-124849458D01*
X111795920Y-124843741D01*
X111808340Y-124835443D01*
X111818903Y-124824880D01*
X111827202Y-124812460D01*
X111832918Y-124798660D01*
X111833631Y-124796311D01*
X111876315Y-124716455D01*
X111933759Y-124646459D01*
X112003755Y-124589015D01*
X112083612Y-124546330D01*
X112170266Y-124520044D01*
X112264123Y-124510800D01*
X112525877Y-124510800D01*
X112619734Y-124520044D01*
X112706388Y-124546330D01*
X112786245Y-124589015D01*
X112856241Y-124646459D01*
X112913685Y-124716455D01*
X112956369Y-124796311D01*
X112957082Y-124798660D01*
X112962799Y-124812460D01*
X112971097Y-124824880D01*
X112981660Y-124835443D01*
X112994080Y-124843742D01*
X113007881Y-124849458D01*
X113022531Y-124852372D01*
X113037469Y-124852372D01*
X113052120Y-124849458D01*
X113065920Y-124843741D01*
X113078340Y-124835443D01*
X113088903Y-124824880D01*
X113097202Y-124812460D01*
X113102918Y-124798660D01*
X113103631Y-124796311D01*
X113146315Y-124716455D01*
X113203759Y-124646459D01*
X113273755Y-124589015D01*
X113353612Y-124546330D01*
X113440266Y-124520044D01*
X113534123Y-124510800D01*
X113795877Y-124510800D01*
X113889734Y-124520044D01*
X113976388Y-124546330D01*
X114056245Y-124589015D01*
X114126241Y-124646459D01*
X114183685Y-124716455D01*
X114226369Y-124796311D01*
X114227082Y-124798660D01*
X114232799Y-124812460D01*
X114241097Y-124824880D01*
X114251660Y-124835443D01*
X114264080Y-124843742D01*
X114277881Y-124849458D01*
X114292531Y-124852372D01*
X114307469Y-124852372D01*
X114322120Y-124849458D01*
X114335920Y-124843741D01*
X114348340Y-124835443D01*
X114358903Y-124824880D01*
X114367202Y-124812460D01*
X114372918Y-124798660D01*
X114373631Y-124796311D01*
X114416315Y-124716455D01*
X114473759Y-124646459D01*
X114543755Y-124589015D01*
X114623612Y-124546330D01*
X114710266Y-124520044D01*
X114804123Y-124510800D01*
X115065877Y-124510800D01*
X115159734Y-124520044D01*
X115246388Y-124546330D01*
X115326245Y-124589015D01*
X115396241Y-124646459D01*
X115453685Y-124716455D01*
X115496369Y-124796311D01*
X115497082Y-124798660D01*
X115502799Y-124812460D01*
X115511097Y-124824880D01*
X115521660Y-124835443D01*
X115534080Y-124843742D01*
X115547881Y-124849458D01*
X115562531Y-124852372D01*
X115577469Y-124852372D01*
X115592120Y-124849458D01*
X115605920Y-124843741D01*
X115618340Y-124835443D01*
X115628903Y-124824880D01*
X115637202Y-124812460D01*
X115642918Y-124798660D01*
X115643631Y-124796311D01*
X115686315Y-124716455D01*
X115743759Y-124646459D01*
X115813755Y-124589015D01*
X115893612Y-124546330D01*
X115980266Y-124520044D01*
X116074123Y-124510800D01*
X116335877Y-124510800D01*
X116429734Y-124520044D01*
X116516388Y-124546330D01*
X116596245Y-124589015D01*
X116666241Y-124646459D01*
X116723685Y-124716455D01*
X116766369Y-124796311D01*
X116767082Y-124798660D01*
X116772799Y-124812460D01*
X116781097Y-124824880D01*
X116791660Y-124835443D01*
X116804080Y-124843742D01*
X116817881Y-124849458D01*
X116832531Y-124852372D01*
X116847469Y-124852372D01*
X116862120Y-124849458D01*
X116875920Y-124843741D01*
X116888340Y-124835443D01*
X116898903Y-124824880D01*
X116907202Y-124812460D01*
X116912918Y-124798660D01*
X116913631Y-124796311D01*
X116956315Y-124716455D01*
X117013759Y-124646459D01*
X117083755Y-124589015D01*
X117163612Y-124546330D01*
X117250266Y-124520044D01*
X117344123Y-124510800D01*
X117605877Y-124510800D01*
X117699734Y-124520044D01*
X117786388Y-124546330D01*
X117866245Y-124589015D01*
X117936241Y-124646459D01*
X117993685Y-124716455D01*
X118036370Y-124796312D01*
X118062656Y-124882966D01*
X118071900Y-124976823D01*
X118071900Y-127245177D01*
X118062656Y-127339034D01*
X118036370Y-127425688D01*
X117993685Y-127505545D01*
X117936241Y-127575541D01*
X117866245Y-127632985D01*
X117786388Y-127675670D01*
X117699734Y-127701956D01*
X117605877Y-127711200D01*
X117344123Y-127711200D01*
X117250266Y-127701956D01*
X117163612Y-127675670D01*
X117083755Y-127632985D01*
X117013759Y-127575541D01*
X116956315Y-127505545D01*
X116913631Y-127425689D01*
X116912918Y-127423340D01*
X116907201Y-127409540D01*
X116898903Y-127397120D01*
X116888340Y-127386557D01*
X116875920Y-127378258D01*
X116862119Y-127372542D01*
X116847469Y-127369628D01*
X116832531Y-127369628D01*
X116817880Y-127372542D01*
X116804080Y-127378259D01*
X116791660Y-127386557D01*
X116781097Y-127397120D01*
X116772798Y-127409540D01*
X116767082Y-127423340D01*
X116766369Y-127425689D01*
X116723685Y-127505545D01*
X116666241Y-127575541D01*
X116596245Y-127632985D01*
X116516388Y-127675670D01*
X116429734Y-127701956D01*
X116335877Y-127711200D01*
X116074123Y-127711200D01*
X115980266Y-127701956D01*
X115893612Y-127675670D01*
X115813755Y-127632985D01*
X115743759Y-127575541D01*
X115686315Y-127505545D01*
X115643631Y-127425689D01*
X115642918Y-127423340D01*
X115637201Y-127409540D01*
X115628903Y-127397120D01*
X115618340Y-127386557D01*
X115605920Y-127378258D01*
X115592119Y-127372542D01*
X115577469Y-127369628D01*
X115562531Y-127369628D01*
X115547880Y-127372542D01*
X115534080Y-127378259D01*
X115521660Y-127386557D01*
X115511097Y-127397120D01*
X115502798Y-127409540D01*
X115497082Y-127423340D01*
X115496369Y-127425689D01*
X115453685Y-127505545D01*
X115396241Y-127575541D01*
X115326245Y-127632985D01*
X115246388Y-127675670D01*
X115159734Y-127701956D01*
X115065877Y-127711200D01*
X114804123Y-127711200D01*
X114710266Y-127701956D01*
X114623612Y-127675670D01*
X114543755Y-127632985D01*
X114473759Y-127575541D01*
X114416315Y-127505545D01*
X114373631Y-127425689D01*
X114372918Y-127423340D01*
X114367201Y-127409540D01*
X114358903Y-127397120D01*
X114348340Y-127386557D01*
X114335920Y-127378258D01*
X114322119Y-127372542D01*
X114307469Y-127369628D01*
X114292531Y-127369628D01*
X114277880Y-127372542D01*
X114264080Y-127378259D01*
X114251660Y-127386557D01*
X114241097Y-127397120D01*
X114232798Y-127409540D01*
X114227082Y-127423340D01*
X114226369Y-127425689D01*
X114183685Y-127505545D01*
X114126241Y-127575541D01*
X114056245Y-127632985D01*
X113976388Y-127675670D01*
X113889734Y-127701956D01*
X113795877Y-127711200D01*
X113534123Y-127711200D01*
X113440266Y-127701956D01*
X113353612Y-127675670D01*
X113273755Y-127632985D01*
X113203759Y-127575541D01*
X113146315Y-127505545D01*
X113103631Y-127425689D01*
X113102918Y-127423340D01*
X113097201Y-127409540D01*
X113088903Y-127397120D01*
X113078340Y-127386557D01*
X113065920Y-127378258D01*
X113052119Y-127372542D01*
X113037469Y-127369628D01*
X113022531Y-127369628D01*
X113007880Y-127372542D01*
X112994080Y-127378259D01*
X112981660Y-127386557D01*
X112971097Y-127397120D01*
X112962798Y-127409540D01*
X112957082Y-127423340D01*
X112956369Y-127425689D01*
X112913685Y-127505545D01*
X112856241Y-127575541D01*
X112786245Y-127632985D01*
X112706388Y-127675670D01*
X112619734Y-127701956D01*
X112525877Y-127711200D01*
X112264123Y-127711200D01*
X112170266Y-127701956D01*
X112083612Y-127675670D01*
X112003755Y-127632985D01*
X111933759Y-127575541D01*
X111876315Y-127505545D01*
X111833631Y-127425689D01*
X111832918Y-127423340D01*
X111827201Y-127409540D01*
X111818903Y-127397120D01*
X111808340Y-127386557D01*
X111795920Y-127378258D01*
X111782119Y-127372542D01*
X111767469Y-127369628D01*
X111752531Y-127369628D01*
X111737880Y-127372542D01*
X111724080Y-127378259D01*
X111711660Y-127386557D01*
X111701097Y-127397120D01*
X111692798Y-127409540D01*
X111687082Y-127423340D01*
X111686369Y-127425689D01*
X111643685Y-127505545D01*
X111586241Y-127575541D01*
X111516245Y-127632985D01*
X111436388Y-127675670D01*
X111349734Y-127701956D01*
X111255877Y-127711200D01*
X110994123Y-127711200D01*
X110900266Y-127701956D01*
X110813612Y-127675670D01*
X110733755Y-127632985D01*
X110663759Y-127575541D01*
X110606315Y-127505545D01*
X110563631Y-127425689D01*
X110562918Y-127423340D01*
X110557201Y-127409540D01*
X110548903Y-127397120D01*
X110538340Y-127386557D01*
X110525920Y-127378258D01*
X110512119Y-127372542D01*
X110497469Y-127369628D01*
X110482531Y-127369628D01*
X110467880Y-127372542D01*
X110454080Y-127378259D01*
X110441660Y-127386557D01*
X110431097Y-127397120D01*
X110422798Y-127409540D01*
X110417082Y-127423340D01*
X110416369Y-127425689D01*
X110373685Y-127505545D01*
X110316241Y-127575541D01*
X110246245Y-127632985D01*
X110166388Y-127675670D01*
X110079734Y-127701956D01*
X109985877Y-127711200D01*
X109724123Y-127711200D01*
X109630266Y-127701956D01*
X109543612Y-127675670D01*
X109463755Y-127632985D01*
X109393759Y-127575541D01*
X109336315Y-127505545D01*
X109293631Y-127425689D01*
X109292918Y-127423340D01*
X109287201Y-127409540D01*
X109278903Y-127397120D01*
X109268340Y-127386557D01*
X109255920Y-127378258D01*
X109242119Y-127372542D01*
X109227469Y-127369628D01*
X109212531Y-127369628D01*
X109197880Y-127372542D01*
X109184080Y-127378259D01*
X109171660Y-127386557D01*
X109161097Y-127397120D01*
X109152798Y-127409540D01*
X109147082Y-127423340D01*
X109146369Y-127425689D01*
X109103685Y-127505545D01*
X109046241Y-127575541D01*
X108976245Y-127632985D01*
X108896388Y-127675670D01*
X108809734Y-127701956D01*
X108715877Y-127711200D01*
X108454123Y-127711200D01*
X108360266Y-127701956D01*
X108273612Y-127675670D01*
X108193755Y-127632985D01*
X108123759Y-127575541D01*
X108066315Y-127505545D01*
X108023631Y-127425689D01*
X108022918Y-127423340D01*
X108017201Y-127409540D01*
X108008903Y-127397120D01*
X107998340Y-127386557D01*
X107985920Y-127378258D01*
X107972119Y-127372542D01*
X107957469Y-127369628D01*
X107942531Y-127369628D01*
X107927880Y-127372542D01*
X107914080Y-127378259D01*
X107901660Y-127386557D01*
X107891097Y-127397120D01*
X107882798Y-127409540D01*
X107877082Y-127423340D01*
X107876369Y-127425689D01*
X107833685Y-127505545D01*
X107776241Y-127575541D01*
X107706245Y-127632985D01*
X107626388Y-127675670D01*
X107539734Y-127701956D01*
X107445877Y-127711200D01*
X107184123Y-127711200D01*
X107090266Y-127701956D01*
X107003612Y-127675670D01*
X106923755Y-127632985D01*
X106853759Y-127575541D01*
X106796315Y-127505545D01*
X106753631Y-127425689D01*
X106752918Y-127423340D01*
X106747201Y-127409540D01*
X106738903Y-127397120D01*
X106728340Y-127386557D01*
X106715920Y-127378258D01*
X106702119Y-127372542D01*
X106687469Y-127369628D01*
X106672531Y-127369628D01*
X106657880Y-127372542D01*
X106644080Y-127378259D01*
X106631660Y-127386557D01*
X106621097Y-127397120D01*
X106612798Y-127409540D01*
X106607082Y-127423340D01*
X106606369Y-127425689D01*
X106563685Y-127505545D01*
X106506241Y-127575541D01*
X106436245Y-127632985D01*
X106356388Y-127675670D01*
X106269734Y-127701956D01*
X106175877Y-127711200D01*
X105914123Y-127711200D01*
X105820266Y-127701956D01*
X105733612Y-127675670D01*
X105653755Y-127632985D01*
X105583759Y-127575541D01*
X105526315Y-127505545D01*
X105483631Y-127425689D01*
X105482918Y-127423340D01*
X105477201Y-127409540D01*
X105468903Y-127397120D01*
X105458340Y-127386557D01*
X105445920Y-127378258D01*
X105432119Y-127372542D01*
X105417469Y-127369628D01*
X105402531Y-127369628D01*
X105387880Y-127372542D01*
X105374080Y-127378259D01*
X105361660Y-127386557D01*
X105351097Y-127397120D01*
X105342798Y-127409540D01*
X105337082Y-127423340D01*
X105336369Y-127425689D01*
X105293685Y-127505545D01*
X105236241Y-127575541D01*
X105166245Y-127632985D01*
X105086388Y-127675670D01*
X104999734Y-127701956D01*
X104905877Y-127711200D01*
X104644123Y-127711200D01*
X104550266Y-127701956D01*
X104463612Y-127675670D01*
X104383755Y-127632985D01*
X104313759Y-127575541D01*
X104256315Y-127505545D01*
X104213631Y-127425689D01*
X104212918Y-127423340D01*
X104207201Y-127409540D01*
X104198903Y-127397120D01*
X104188340Y-127386557D01*
X104175920Y-127378258D01*
X104162119Y-127372542D01*
X104147469Y-127369628D01*
X104132531Y-127369628D01*
X104117880Y-127372542D01*
X104104080Y-127378259D01*
X104091660Y-127386557D01*
X104081097Y-127397120D01*
X104072798Y-127409540D01*
X104067082Y-127423340D01*
X104066369Y-127425689D01*
X104023685Y-127505545D01*
X103966241Y-127575541D01*
X103896245Y-127632985D01*
X103816388Y-127675670D01*
X103729734Y-127701956D01*
X103635877Y-127711200D01*
X103374123Y-127711200D01*
X103280266Y-127701956D01*
X103193612Y-127675670D01*
X103113755Y-127632985D01*
X103043759Y-127575541D01*
X102986315Y-127505545D01*
X102943631Y-127425689D01*
X102942918Y-127423340D01*
X102937201Y-127409540D01*
X102928903Y-127397120D01*
X102918340Y-127386557D01*
X102905920Y-127378258D01*
X102892119Y-127372542D01*
X102877469Y-127369628D01*
X102862531Y-127369628D01*
X102847880Y-127372542D01*
X102834080Y-127378259D01*
X102821660Y-127386557D01*
X102811097Y-127397120D01*
X102802798Y-127409540D01*
X102797082Y-127423340D01*
X102796369Y-127425689D01*
X102753685Y-127505545D01*
X102696241Y-127575541D01*
X102626245Y-127632985D01*
X102546388Y-127675670D01*
X102459734Y-127701956D01*
X102365877Y-127711200D01*
X102104123Y-127711200D01*
X102010266Y-127701956D01*
X101923612Y-127675670D01*
X101843755Y-127632985D01*
X101773759Y-127575541D01*
X101716315Y-127505545D01*
X101673631Y-127425689D01*
X101672918Y-127423340D01*
X101667201Y-127409540D01*
X101658903Y-127397120D01*
X101648340Y-127386557D01*
X101635920Y-127378258D01*
X101622119Y-127372542D01*
X101607469Y-127369628D01*
X101592531Y-127369628D01*
X101577880Y-127372542D01*
X101564080Y-127378259D01*
X101551660Y-127386557D01*
X101541097Y-127397120D01*
X101532798Y-127409540D01*
X101527082Y-127423340D01*
X101526369Y-127425689D01*
X101483685Y-127505545D01*
X101426241Y-127575541D01*
X101356245Y-127632985D01*
X101276388Y-127675670D01*
X101189734Y-127701956D01*
X101095877Y-127711200D01*
X100834123Y-127711200D01*
X100740266Y-127701956D01*
X100653612Y-127675670D01*
X100573755Y-127632985D01*
X100503759Y-127575541D01*
X100446315Y-127505545D01*
X100403631Y-127425689D01*
X100402918Y-127423340D01*
X100397201Y-127409540D01*
X100388903Y-127397120D01*
X100378340Y-127386557D01*
X100365920Y-127378258D01*
X100352119Y-127372542D01*
X100337469Y-127369628D01*
X100322531Y-127369628D01*
X100307880Y-127372542D01*
X100294080Y-127378259D01*
X100281660Y-127386557D01*
X100271097Y-127397120D01*
X100262798Y-127409540D01*
X100257082Y-127423340D01*
X100256369Y-127425689D01*
X100213685Y-127505545D01*
X100156241Y-127575541D01*
X100086245Y-127632985D01*
X100006388Y-127675670D01*
X99919734Y-127701956D01*
X99825877Y-127711200D01*
X99564123Y-127711200D01*
X99470266Y-127701956D01*
X99383612Y-127675670D01*
X99303755Y-127632985D01*
X99233759Y-127575541D01*
X99176315Y-127505545D01*
X99133631Y-127425689D01*
X99132918Y-127423340D01*
X99127201Y-127409540D01*
X99118903Y-127397120D01*
X99108340Y-127386557D01*
X99095920Y-127378258D01*
X99082119Y-127372542D01*
X99067469Y-127369628D01*
X99052531Y-127369628D01*
X99037880Y-127372542D01*
X99024080Y-127378259D01*
X99011660Y-127386557D01*
X99001097Y-127397120D01*
X98992798Y-127409540D01*
X98987082Y-127423340D01*
X98986369Y-127425689D01*
X98943685Y-127505545D01*
X98886241Y-127575541D01*
X98816245Y-127632985D01*
X98736388Y-127675670D01*
X98649734Y-127701956D01*
X98555877Y-127711200D01*
X98294123Y-127711200D01*
X98200266Y-127701956D01*
X98113612Y-127675670D01*
X98033755Y-127632985D01*
X97963759Y-127575541D01*
X97906315Y-127505545D01*
X97863631Y-127425689D01*
X97862918Y-127423340D01*
X97857201Y-127409540D01*
X97848903Y-127397120D01*
X97838340Y-127386557D01*
X97825920Y-127378258D01*
X97812119Y-127372542D01*
X97797469Y-127369628D01*
X97782531Y-127369628D01*
X97767880Y-127372542D01*
X97754080Y-127378259D01*
X97741660Y-127386557D01*
X97731097Y-127397120D01*
X97722798Y-127409540D01*
X97717082Y-127423340D01*
X97716369Y-127425689D01*
X97673685Y-127505545D01*
X97616241Y-127575541D01*
X97546245Y-127632985D01*
X97466388Y-127675670D01*
X97379734Y-127701956D01*
X97285877Y-127711200D01*
X97024123Y-127711200D01*
X96930266Y-127701956D01*
X96843612Y-127675670D01*
X96763755Y-127632985D01*
X96693759Y-127575541D01*
X96636315Y-127505545D01*
X96593631Y-127425689D01*
X96592918Y-127423340D01*
X96587201Y-127409540D01*
X96578903Y-127397120D01*
X96568340Y-127386557D01*
X96555920Y-127378258D01*
X96542119Y-127372542D01*
X96527469Y-127369628D01*
X96512531Y-127369628D01*
X96497880Y-127372542D01*
X96484080Y-127378259D01*
X96471660Y-127386557D01*
X96461097Y-127397120D01*
X96452798Y-127409540D01*
X96447082Y-127423340D01*
X96446369Y-127425689D01*
X96403685Y-127505545D01*
X96346241Y-127575541D01*
X96276245Y-127632985D01*
X96196388Y-127675670D01*
X96109734Y-127701956D01*
X96015877Y-127711200D01*
X95754123Y-127711200D01*
X95660266Y-127701956D01*
X95573612Y-127675670D01*
X95493755Y-127632985D01*
X95423759Y-127575541D01*
X95366315Y-127505545D01*
X95323631Y-127425689D01*
X95322918Y-127423340D01*
X95317201Y-127409540D01*
X95308903Y-127397120D01*
X95298340Y-127386557D01*
X95285920Y-127378258D01*
X95272119Y-127372542D01*
X95257469Y-127369628D01*
X95242531Y-127369628D01*
X95227880Y-127372542D01*
X95214080Y-127378259D01*
X95201660Y-127386557D01*
X95191097Y-127397120D01*
X95182798Y-127409540D01*
X95177082Y-127423340D01*
X95176369Y-127425689D01*
X95133685Y-127505545D01*
X95076241Y-127575541D01*
X95006245Y-127632985D01*
X94926388Y-127675670D01*
X94839734Y-127701956D01*
X94745877Y-127711200D01*
X94484123Y-127711200D01*
X94390266Y-127701956D01*
X94303612Y-127675670D01*
X94223755Y-127632985D01*
X94153759Y-127575541D01*
X94096315Y-127505545D01*
X94053631Y-127425689D01*
X94052918Y-127423340D01*
X94047201Y-127409540D01*
X94038903Y-127397120D01*
X94028340Y-127386557D01*
X94015920Y-127378258D01*
X94002119Y-127372542D01*
X93987469Y-127369628D01*
X93972531Y-127369628D01*
X93957880Y-127372542D01*
X93944080Y-127378259D01*
X93931660Y-127386557D01*
X93921097Y-127397120D01*
X93912798Y-127409540D01*
X93907082Y-127423340D01*
X93906369Y-127425689D01*
X93863685Y-127505545D01*
X93806241Y-127575541D01*
X93736245Y-127632985D01*
X93656388Y-127675670D01*
X93569734Y-127701956D01*
X93475877Y-127711200D01*
X93214123Y-127711200D01*
X93120266Y-127701956D01*
X93033612Y-127675670D01*
X92953755Y-127632985D01*
X92883759Y-127575541D01*
X92826315Y-127505545D01*
X92783631Y-127425689D01*
X92782918Y-127423340D01*
X92777201Y-127409540D01*
X92768903Y-127397120D01*
X92758340Y-127386557D01*
X92745920Y-127378258D01*
X92732119Y-127372542D01*
X92717469Y-127369628D01*
X92702531Y-127369628D01*
X92687880Y-127372542D01*
X92674080Y-127378259D01*
X92661660Y-127386557D01*
X92651097Y-127397120D01*
X92642798Y-127409540D01*
X92637082Y-127423340D01*
X92636369Y-127425689D01*
X92593685Y-127505545D01*
X92536241Y-127575541D01*
X92466245Y-127632985D01*
X92386388Y-127675670D01*
X92299734Y-127701956D01*
X92205877Y-127711200D01*
X91944123Y-127711200D01*
X91850266Y-127701956D01*
X91763612Y-127675670D01*
X91683755Y-127632985D01*
X91613759Y-127575541D01*
X91556315Y-127505545D01*
X91513631Y-127425689D01*
X91512918Y-127423340D01*
X91507201Y-127409540D01*
X91498903Y-127397120D01*
X91488340Y-127386557D01*
X91475920Y-127378258D01*
X91462119Y-127372542D01*
X91447469Y-127369628D01*
X91432531Y-127369628D01*
X91417880Y-127372542D01*
X91404080Y-127378259D01*
X91391660Y-127386557D01*
X91381097Y-127397120D01*
X91372798Y-127409540D01*
X91367082Y-127423340D01*
X91366369Y-127425689D01*
X91323685Y-127505545D01*
X91266241Y-127575541D01*
X91196245Y-127632985D01*
X91116388Y-127675670D01*
X91029734Y-127701956D01*
X90935877Y-127711200D01*
X90674123Y-127711200D01*
X90580266Y-127701956D01*
X90493612Y-127675670D01*
X90413755Y-127632985D01*
X90343759Y-127575541D01*
X90286315Y-127505545D01*
X90243631Y-127425689D01*
X90242918Y-127423340D01*
X90237201Y-127409540D01*
X90228903Y-127397120D01*
X90218340Y-127386557D01*
X90205920Y-127378258D01*
X90192119Y-127372542D01*
X90177469Y-127369628D01*
X90162531Y-127369628D01*
X90147880Y-127372542D01*
X90134080Y-127378259D01*
X90121660Y-127386557D01*
X90111097Y-127397120D01*
X90102798Y-127409540D01*
X90097082Y-127423340D01*
X90096369Y-127425689D01*
X90053685Y-127505545D01*
X89996241Y-127575541D01*
X89926245Y-127632985D01*
X89846388Y-127675670D01*
X89759734Y-127701956D01*
X89665877Y-127711200D01*
X89404123Y-127711200D01*
X89310266Y-127701956D01*
X89223612Y-127675670D01*
X89143755Y-127632985D01*
X89073759Y-127575541D01*
X89016315Y-127505545D01*
X88973631Y-127425689D01*
X88972918Y-127423340D01*
X88967201Y-127409540D01*
X88958903Y-127397120D01*
X88948340Y-127386557D01*
X88935920Y-127378258D01*
X88922119Y-127372542D01*
X88907469Y-127369628D01*
X88892531Y-127369628D01*
X88877880Y-127372542D01*
X88864080Y-127378259D01*
X88851660Y-127386557D01*
X88841097Y-127397120D01*
X88832798Y-127409540D01*
X88827082Y-127423340D01*
X88826369Y-127425689D01*
X88783685Y-127505545D01*
X88726241Y-127575541D01*
X88656245Y-127632985D01*
X88576388Y-127675670D01*
X88489734Y-127701956D01*
X88395877Y-127711200D01*
X88134123Y-127711200D01*
X88040266Y-127701956D01*
X87953612Y-127675670D01*
X87873755Y-127632985D01*
X87803759Y-127575541D01*
X87746315Y-127505545D01*
X87703631Y-127425689D01*
X87702918Y-127423340D01*
X87697201Y-127409540D01*
X87688903Y-127397120D01*
X87678340Y-127386557D01*
X87665920Y-127378258D01*
X87652119Y-127372542D01*
X87637469Y-127369628D01*
X87622531Y-127369628D01*
X87607880Y-127372542D01*
X87594080Y-127378259D01*
X87581660Y-127386557D01*
X87571097Y-127397120D01*
X87562798Y-127409540D01*
X87557082Y-127423340D01*
X87556369Y-127425689D01*
X87513685Y-127505545D01*
X87456241Y-127575541D01*
X87386245Y-127632985D01*
X87306388Y-127675670D01*
X87219734Y-127701956D01*
X87125877Y-127711200D01*
X86864123Y-127711200D01*
X86770266Y-127701956D01*
X86683612Y-127675670D01*
X86603755Y-127632985D01*
X86533759Y-127575541D01*
X86476315Y-127505545D01*
X86433631Y-127425689D01*
X86432918Y-127423340D01*
X86427201Y-127409540D01*
X86418903Y-127397120D01*
X86408340Y-127386557D01*
X86395920Y-127378258D01*
X86382119Y-127372542D01*
X86367469Y-127369628D01*
X86352531Y-127369628D01*
X86337880Y-127372542D01*
X86324080Y-127378259D01*
X86311660Y-127386557D01*
X86301097Y-127397120D01*
X86292798Y-127409540D01*
X86287082Y-127423340D01*
X86286369Y-127425689D01*
X86243685Y-127505545D01*
X86186241Y-127575541D01*
X86116245Y-127632985D01*
X86036388Y-127675670D01*
X85949734Y-127701956D01*
X85855877Y-127711200D01*
X85594123Y-127711200D01*
X85500266Y-127701956D01*
X85413612Y-127675670D01*
X85333755Y-127632985D01*
X85263759Y-127575541D01*
X85206315Y-127505545D01*
X85163631Y-127425689D01*
X85162918Y-127423340D01*
X85157201Y-127409540D01*
X85148903Y-127397120D01*
X85138340Y-127386557D01*
X85125920Y-127378258D01*
X85112119Y-127372542D01*
X85097469Y-127369628D01*
X85082531Y-127369628D01*
X85067880Y-127372542D01*
X85054080Y-127378259D01*
X85041660Y-127386557D01*
X85031097Y-127397120D01*
X85022798Y-127409540D01*
X85017082Y-127423340D01*
X85016369Y-127425689D01*
X84973685Y-127505545D01*
X84916241Y-127575541D01*
X84846245Y-127632985D01*
X84766388Y-127675670D01*
X84679734Y-127701956D01*
X84585877Y-127711200D01*
X84324123Y-127711200D01*
X84230266Y-127701956D01*
X84143612Y-127675670D01*
X84063755Y-127632985D01*
X83993759Y-127575541D01*
X83936315Y-127505545D01*
X83893631Y-127425689D01*
X83892918Y-127423340D01*
X83887201Y-127409540D01*
X83878903Y-127397120D01*
X83868340Y-127386557D01*
X83855920Y-127378258D01*
X83842119Y-127372542D01*
X83827469Y-127369628D01*
X83812531Y-127369628D01*
X83797880Y-127372542D01*
X83784080Y-127378259D01*
X83771660Y-127386557D01*
X83761097Y-127397120D01*
X83752798Y-127409540D01*
X83747082Y-127423340D01*
X83746369Y-127425689D01*
X83703685Y-127505545D01*
X83646241Y-127575541D01*
X83576245Y-127632985D01*
X83496388Y-127675670D01*
X83409734Y-127701956D01*
X83315877Y-127711200D01*
X83054123Y-127711200D01*
X82960266Y-127701956D01*
X82873612Y-127675670D01*
X82793755Y-127632985D01*
X82723759Y-127575541D01*
X82666315Y-127505545D01*
X82623631Y-127425689D01*
X82622918Y-127423340D01*
X82617201Y-127409540D01*
X82608903Y-127397120D01*
X82598340Y-127386557D01*
X82585920Y-127378258D01*
X82572119Y-127372542D01*
X82557469Y-127369628D01*
X82542531Y-127369628D01*
X82527880Y-127372542D01*
X82514080Y-127378259D01*
X82501660Y-127386557D01*
X82491097Y-127397120D01*
X82482798Y-127409540D01*
X82477082Y-127423340D01*
X82476369Y-127425689D01*
X82433685Y-127505545D01*
X82376241Y-127575541D01*
X82306245Y-127632985D01*
X82226388Y-127675670D01*
X82139734Y-127701956D01*
X82045877Y-127711200D01*
X81784123Y-127711200D01*
X81690266Y-127701956D01*
X81603612Y-127675670D01*
X81523755Y-127632985D01*
X81453759Y-127575541D01*
X81396315Y-127505545D01*
X81353631Y-127425689D01*
X81352918Y-127423340D01*
X81347201Y-127409540D01*
X81338903Y-127397120D01*
X81328340Y-127386557D01*
X81315920Y-127378258D01*
X81302119Y-127372542D01*
X81287469Y-127369628D01*
X81272531Y-127369628D01*
X81257880Y-127372542D01*
X81244080Y-127378259D01*
X81231660Y-127386557D01*
X81221097Y-127397120D01*
X81212798Y-127409540D01*
X81207082Y-127423340D01*
X81206369Y-127425689D01*
X81163685Y-127505545D01*
X81106241Y-127575541D01*
X81036245Y-127632985D01*
X80956388Y-127675670D01*
X80869734Y-127701956D01*
X80775877Y-127711200D01*
X80514123Y-127711200D01*
X80420266Y-127701956D01*
X80333612Y-127675670D01*
X80253755Y-127632985D01*
X80183759Y-127575541D01*
X80126315Y-127505545D01*
X80083631Y-127425689D01*
X80082918Y-127423340D01*
X80077201Y-127409540D01*
X80068903Y-127397120D01*
X80058340Y-127386557D01*
X80045920Y-127378258D01*
X80032119Y-127372542D01*
X80017469Y-127369628D01*
X80002531Y-127369628D01*
X79987880Y-127372542D01*
X79974080Y-127378259D01*
X79961660Y-127386557D01*
X79951097Y-127397120D01*
X79942798Y-127409540D01*
X79937082Y-127423340D01*
X79936369Y-127425689D01*
X79893685Y-127505545D01*
X79836241Y-127575541D01*
X79766245Y-127632985D01*
X79686388Y-127675670D01*
X79599734Y-127701956D01*
X79505877Y-127711200D01*
X79244123Y-127711200D01*
X79150266Y-127701956D01*
X79063612Y-127675670D01*
X78983755Y-127632985D01*
X78913759Y-127575541D01*
X78856315Y-127505545D01*
X78813631Y-127425689D01*
X78812918Y-127423340D01*
X78807201Y-127409540D01*
X78798903Y-127397120D01*
X78788340Y-127386557D01*
X78775920Y-127378258D01*
X78762119Y-127372542D01*
X78747469Y-127369628D01*
X78732531Y-127369628D01*
X78717880Y-127372542D01*
X78704080Y-127378259D01*
X78691660Y-127386557D01*
X78681097Y-127397120D01*
X78672798Y-127409540D01*
X78667082Y-127423340D01*
X78666369Y-127425689D01*
X78623685Y-127505545D01*
X78566241Y-127575541D01*
X78496245Y-127632985D01*
X78416388Y-127675670D01*
X78329734Y-127701956D01*
X78235877Y-127711200D01*
X77974123Y-127711200D01*
X77880266Y-127701956D01*
X77793612Y-127675670D01*
X77713755Y-127632985D01*
X77643759Y-127575541D01*
X77586315Y-127505545D01*
X77543630Y-127425688D01*
X77517344Y-127339034D01*
X77508100Y-127245177D01*
X77508100Y-124976823D01*
X77517344Y-124882966D01*
X77543630Y-124796312D01*
X77586315Y-124716455D01*
X77643759Y-124646459D01*
X77713755Y-124589015D01*
X77793612Y-124546330D01*
X77880266Y-124520044D01*
X77974123Y-124510800D01*
X78235877Y-124510800D01*
X78329734Y-124520044D01*
G37*
G36*
X124049734Y-124520044D02*
G01*
X124136388Y-124546330D01*
X124216245Y-124589015D01*
X124286241Y-124646459D01*
X124343685Y-124716455D01*
X124386369Y-124796311D01*
X124387082Y-124798660D01*
X124392799Y-124812460D01*
X124401097Y-124824880D01*
X124411660Y-124835443D01*
X124424080Y-124843742D01*
X124437881Y-124849458D01*
X124452531Y-124852372D01*
X124467469Y-124852372D01*
X124482120Y-124849458D01*
X124495920Y-124843741D01*
X124508340Y-124835443D01*
X124518903Y-124824880D01*
X124527202Y-124812460D01*
X124532918Y-124798660D01*
X124533631Y-124796311D01*
X124576315Y-124716455D01*
X124633759Y-124646459D01*
X124703755Y-124589015D01*
X124783612Y-124546330D01*
X124870266Y-124520044D01*
X124964123Y-124510800D01*
X125225877Y-124510800D01*
X125319734Y-124520044D01*
X125406388Y-124546330D01*
X125486245Y-124589015D01*
X125556241Y-124646459D01*
X125613685Y-124716455D01*
X125656369Y-124796311D01*
X125657082Y-124798660D01*
X125662799Y-124812460D01*
X125671097Y-124824880D01*
X125681660Y-124835443D01*
X125694080Y-124843742D01*
X125707881Y-124849458D01*
X125722531Y-124852372D01*
X125737469Y-124852372D01*
X125752120Y-124849458D01*
X125765920Y-124843741D01*
X125778340Y-124835443D01*
X125788903Y-124824880D01*
X125797202Y-124812460D01*
X125802918Y-124798660D01*
X125803631Y-124796311D01*
X125846315Y-124716455D01*
X125903759Y-124646459D01*
X125973755Y-124589015D01*
X126053612Y-124546330D01*
X126140266Y-124520044D01*
X126234123Y-124510800D01*
X126495877Y-124510800D01*
X126589734Y-124520044D01*
X126676388Y-124546330D01*
X126756245Y-124589015D01*
X126826241Y-124646459D01*
X126883685Y-124716455D01*
X126926369Y-124796311D01*
X126927082Y-124798660D01*
X126932799Y-124812460D01*
X126941097Y-124824880D01*
X126951660Y-124835443D01*
X126964080Y-124843742D01*
X126977881Y-124849458D01*
X126992531Y-124852372D01*
X127007469Y-124852372D01*
X127022120Y-124849458D01*
X127035920Y-124843741D01*
X127048340Y-124835443D01*
X127058903Y-124824880D01*
X127067202Y-124812460D01*
X127072918Y-124798660D01*
X127073631Y-124796311D01*
X127116315Y-124716455D01*
X127173759Y-124646459D01*
X127243755Y-124589015D01*
X127323612Y-124546330D01*
X127410266Y-124520044D01*
X127504123Y-124510800D01*
X127765877Y-124510800D01*
X127859734Y-124520044D01*
X127946388Y-124546330D01*
X128026245Y-124589015D01*
X128096241Y-124646459D01*
X128153685Y-124716455D01*
X128196369Y-124796311D01*
X128197082Y-124798660D01*
X128202799Y-124812460D01*
X128211097Y-124824880D01*
X128221660Y-124835443D01*
X128234080Y-124843742D01*
X128247881Y-124849458D01*
X128262531Y-124852372D01*
X128277469Y-124852372D01*
X128292120Y-124849458D01*
X128305920Y-124843741D01*
X128318340Y-124835443D01*
X128328903Y-124824880D01*
X128337202Y-124812460D01*
X128342918Y-124798660D01*
X128343631Y-124796311D01*
X128386315Y-124716455D01*
X128443759Y-124646459D01*
X128513755Y-124589015D01*
X128593612Y-124546330D01*
X128680266Y-124520044D01*
X128774123Y-124510800D01*
X129035877Y-124510800D01*
X129129734Y-124520044D01*
X129216388Y-124546330D01*
X129296245Y-124589015D01*
X129366241Y-124646459D01*
X129423685Y-124716455D01*
X129466369Y-124796311D01*
X129467082Y-124798660D01*
X129472799Y-124812460D01*
X129481097Y-124824880D01*
X129491660Y-124835443D01*
X129504080Y-124843742D01*
X129517881Y-124849458D01*
X129532531Y-124852372D01*
X129547469Y-124852372D01*
X129562120Y-124849458D01*
X129575920Y-124843741D01*
X129588340Y-124835443D01*
X129598903Y-124824880D01*
X129607202Y-124812460D01*
X129612918Y-124798660D01*
X129613631Y-124796311D01*
X129656315Y-124716455D01*
X129713759Y-124646459D01*
X129783755Y-124589015D01*
X129863612Y-124546330D01*
X129950266Y-124520044D01*
X130044123Y-124510800D01*
X130305877Y-124510800D01*
X130399734Y-124520044D01*
X130486388Y-124546330D01*
X130566245Y-124589015D01*
X130636241Y-124646459D01*
X130693685Y-124716455D01*
X130736369Y-124796311D01*
X130737082Y-124798660D01*
X130742799Y-124812460D01*
X130751097Y-124824880D01*
X130761660Y-124835443D01*
X130774080Y-124843742D01*
X130787881Y-124849458D01*
X130802531Y-124852372D01*
X130817469Y-124852372D01*
X130832120Y-124849458D01*
X130845920Y-124843741D01*
X130858340Y-124835443D01*
X130868903Y-124824880D01*
X130877202Y-124812460D01*
X130882918Y-124798660D01*
X130883631Y-124796311D01*
X130926315Y-124716455D01*
X130983759Y-124646459D01*
X131053755Y-124589015D01*
X131133612Y-124546330D01*
X131220266Y-124520044D01*
X131314123Y-124510800D01*
X131575877Y-124510800D01*
X131669734Y-124520044D01*
X131756388Y-124546330D01*
X131836245Y-124589015D01*
X131906241Y-124646459D01*
X131963685Y-124716455D01*
X132006369Y-124796311D01*
X132007082Y-124798660D01*
X132012799Y-124812460D01*
X132021097Y-124824880D01*
X132031660Y-124835443D01*
X132044080Y-124843742D01*
X132057881Y-124849458D01*
X132072531Y-124852372D01*
X132087469Y-124852372D01*
X132102120Y-124849458D01*
X132115920Y-124843741D01*
X132128340Y-124835443D01*
X132138903Y-124824880D01*
X132147202Y-124812460D01*
X132152918Y-124798660D01*
X132153631Y-124796311D01*
X132196315Y-124716455D01*
X132253759Y-124646459D01*
X132323755Y-124589015D01*
X132403612Y-124546330D01*
X132490266Y-124520044D01*
X132584123Y-124510800D01*
X132845877Y-124510800D01*
X132939734Y-124520044D01*
X133026388Y-124546330D01*
X133106245Y-124589015D01*
X133176241Y-124646459D01*
X133233685Y-124716455D01*
X133276369Y-124796311D01*
X133277082Y-124798660D01*
X133282799Y-124812460D01*
X133291097Y-124824880D01*
X133301660Y-124835443D01*
X133314080Y-124843742D01*
X133327881Y-124849458D01*
X133342531Y-124852372D01*
X133357469Y-124852372D01*
X133372120Y-124849458D01*
X133385920Y-124843741D01*
X133398340Y-124835443D01*
X133408903Y-124824880D01*
X133417202Y-124812460D01*
X133422918Y-124798660D01*
X133423631Y-124796311D01*
X133466315Y-124716455D01*
X133523759Y-124646459D01*
X133593755Y-124589015D01*
X133673612Y-124546330D01*
X133760266Y-124520044D01*
X133854123Y-124510800D01*
X134115877Y-124510800D01*
X134209734Y-124520044D01*
X134296388Y-124546330D01*
X134376245Y-124589015D01*
X134446241Y-124646459D01*
X134503685Y-124716455D01*
X134546369Y-124796311D01*
X134547082Y-124798660D01*
X134552799Y-124812460D01*
X134561097Y-124824880D01*
X134571660Y-124835443D01*
X134584080Y-124843742D01*
X134597881Y-124849458D01*
X134612531Y-124852372D01*
X134627469Y-124852372D01*
X134642120Y-124849458D01*
X134655920Y-124843741D01*
X134668340Y-124835443D01*
X134678903Y-124824880D01*
X134687202Y-124812460D01*
X134692918Y-124798660D01*
X134693631Y-124796311D01*
X134736315Y-124716455D01*
X134793759Y-124646459D01*
X134863755Y-124589015D01*
X134943612Y-124546330D01*
X135030266Y-124520044D01*
X135124123Y-124510800D01*
X135385877Y-124510800D01*
X135479734Y-124520044D01*
X135566388Y-124546330D01*
X135646245Y-124589015D01*
X135716241Y-124646459D01*
X135773685Y-124716455D01*
X135816369Y-124796311D01*
X135817082Y-124798660D01*
X135822799Y-124812460D01*
X135831097Y-124824880D01*
X135841660Y-124835443D01*
X135854080Y-124843742D01*
X135867881Y-124849458D01*
X135882531Y-124852372D01*
X135897469Y-124852372D01*
X135912120Y-124849458D01*
X135925920Y-124843741D01*
X135938340Y-124835443D01*
X135948903Y-124824880D01*
X135957202Y-124812460D01*
X135962918Y-124798660D01*
X135963631Y-124796311D01*
X136006315Y-124716455D01*
X136063759Y-124646459D01*
X136133755Y-124589015D01*
X136213612Y-124546330D01*
X136300266Y-124520044D01*
X136394123Y-124510800D01*
X136655877Y-124510800D01*
X136749734Y-124520044D01*
X136836388Y-124546330D01*
X136916245Y-124589015D01*
X136986241Y-124646459D01*
X137043685Y-124716455D01*
X137086369Y-124796311D01*
X137087082Y-124798660D01*
X137092799Y-124812460D01*
X137101097Y-124824880D01*
X137111660Y-124835443D01*
X137124080Y-124843742D01*
X137137881Y-124849458D01*
X137152531Y-124852372D01*
X137167469Y-124852372D01*
X137182120Y-124849458D01*
X137195920Y-124843741D01*
X137208340Y-124835443D01*
X137218903Y-124824880D01*
X137227202Y-124812460D01*
X137232918Y-124798660D01*
X137233631Y-124796311D01*
X137276315Y-124716455D01*
X137333759Y-124646459D01*
X137403755Y-124589015D01*
X137483612Y-124546330D01*
X137570266Y-124520044D01*
X137664123Y-124510800D01*
X137925877Y-124510800D01*
X138019734Y-124520044D01*
X138106388Y-124546330D01*
X138186245Y-124589015D01*
X138256241Y-124646459D01*
X138313685Y-124716455D01*
X138356369Y-124796311D01*
X138357082Y-124798660D01*
X138362799Y-124812460D01*
X138371097Y-124824880D01*
X138381660Y-124835443D01*
X138394080Y-124843742D01*
X138407881Y-124849458D01*
X138422531Y-124852372D01*
X138437469Y-124852372D01*
X138452120Y-124849458D01*
X138465920Y-124843741D01*
X138478340Y-124835443D01*
X138488903Y-124824880D01*
X138497202Y-124812460D01*
X138502918Y-124798660D01*
X138503631Y-124796311D01*
X138546315Y-124716455D01*
X138603759Y-124646459D01*
X138673755Y-124589015D01*
X138753612Y-124546330D01*
X138840266Y-124520044D01*
X138934123Y-124510800D01*
X139195877Y-124510800D01*
X139289734Y-124520044D01*
X139376388Y-124546330D01*
X139456245Y-124589015D01*
X139526241Y-124646459D01*
X139583685Y-124716455D01*
X139626369Y-124796311D01*
X139627082Y-124798660D01*
X139632799Y-124812460D01*
X139641097Y-124824880D01*
X139651660Y-124835443D01*
X139664080Y-124843742D01*
X139677881Y-124849458D01*
X139692531Y-124852372D01*
X139707469Y-124852372D01*
X139722120Y-124849458D01*
X139735920Y-124843741D01*
X139748340Y-124835443D01*
X139758903Y-124824880D01*
X139767202Y-124812460D01*
X139772918Y-124798660D01*
X139773631Y-124796311D01*
X139816315Y-124716455D01*
X139873759Y-124646459D01*
X139943755Y-124589015D01*
X140023612Y-124546330D01*
X140110266Y-124520044D01*
X140204123Y-124510800D01*
X140465877Y-124510800D01*
X140559734Y-124520044D01*
X140646388Y-124546330D01*
X140726245Y-124589015D01*
X140796241Y-124646459D01*
X140853685Y-124716455D01*
X140896369Y-124796311D01*
X140897082Y-124798660D01*
X140902799Y-124812460D01*
X140911097Y-124824880D01*
X140921660Y-124835443D01*
X140934080Y-124843742D01*
X140947881Y-124849458D01*
X140962531Y-124852372D01*
X140977469Y-124852372D01*
X140992120Y-124849458D01*
X141005920Y-124843741D01*
X141018340Y-124835443D01*
X141028903Y-124824880D01*
X141037202Y-124812460D01*
X141042918Y-124798660D01*
X141043631Y-124796311D01*
X141086315Y-124716455D01*
X141143759Y-124646459D01*
X141213755Y-124589015D01*
X141293612Y-124546330D01*
X141380266Y-124520044D01*
X141474123Y-124510800D01*
X141735877Y-124510800D01*
X141829734Y-124520044D01*
X141916388Y-124546330D01*
X141996245Y-124589015D01*
X142066241Y-124646459D01*
X142123685Y-124716455D01*
X142166369Y-124796311D01*
X142167082Y-124798660D01*
X142172799Y-124812460D01*
X142181097Y-124824880D01*
X142191660Y-124835443D01*
X142204080Y-124843742D01*
X142217881Y-124849458D01*
X142232531Y-124852372D01*
X142247469Y-124852372D01*
X142262120Y-124849458D01*
X142275920Y-124843741D01*
X142288340Y-124835443D01*
X142298903Y-124824880D01*
X142307202Y-124812460D01*
X142312918Y-124798660D01*
X142313631Y-124796311D01*
X142356315Y-124716455D01*
X142413759Y-124646459D01*
X142483755Y-124589015D01*
X142563612Y-124546330D01*
X142650266Y-124520044D01*
X142744123Y-124510800D01*
X143005877Y-124510800D01*
X143099734Y-124520044D01*
X143186388Y-124546330D01*
X143266245Y-124589015D01*
X143336241Y-124646459D01*
X143393685Y-124716455D01*
X143436369Y-124796311D01*
X143437082Y-124798660D01*
X143442799Y-124812460D01*
X143451097Y-124824880D01*
X143461660Y-124835443D01*
X143474080Y-124843742D01*
X143487881Y-124849458D01*
X143502531Y-124852372D01*
X143517469Y-124852372D01*
X143532120Y-124849458D01*
X143545920Y-124843741D01*
X143558340Y-124835443D01*
X143568903Y-124824880D01*
X143577202Y-124812460D01*
X143582918Y-124798660D01*
X143583631Y-124796311D01*
X143626315Y-124716455D01*
X143683759Y-124646459D01*
X143753755Y-124589015D01*
X143833612Y-124546330D01*
X143920266Y-124520044D01*
X144014123Y-124510800D01*
X144275877Y-124510800D01*
X144369734Y-124520044D01*
X144456388Y-124546330D01*
X144536245Y-124589015D01*
X144606241Y-124646459D01*
X144663685Y-124716455D01*
X144706369Y-124796311D01*
X144707082Y-124798660D01*
X144712799Y-124812460D01*
X144721097Y-124824880D01*
X144731660Y-124835443D01*
X144744080Y-124843742D01*
X144757881Y-124849458D01*
X144772531Y-124852372D01*
X144787469Y-124852372D01*
X144802120Y-124849458D01*
X144815920Y-124843741D01*
X144828340Y-124835443D01*
X144838903Y-124824880D01*
X144847202Y-124812460D01*
X144852918Y-124798660D01*
X144853631Y-124796311D01*
X144896315Y-124716455D01*
X144953759Y-124646459D01*
X145023755Y-124589015D01*
X145103612Y-124546330D01*
X145190266Y-124520044D01*
X145284123Y-124510800D01*
X145545877Y-124510800D01*
X145639734Y-124520044D01*
X145726388Y-124546330D01*
X145806245Y-124589015D01*
X145876241Y-124646459D01*
X145933685Y-124716455D01*
X145976369Y-124796311D01*
X145977082Y-124798660D01*
X145982799Y-124812460D01*
X145991097Y-124824880D01*
X146001660Y-124835443D01*
X146014080Y-124843742D01*
X146027881Y-124849458D01*
X146042531Y-124852372D01*
X146057469Y-124852372D01*
X146072120Y-124849458D01*
X146085920Y-124843741D01*
X146098340Y-124835443D01*
X146108903Y-124824880D01*
X146117202Y-124812460D01*
X146122918Y-124798660D01*
X146123631Y-124796311D01*
X146166315Y-124716455D01*
X146223759Y-124646459D01*
X146293755Y-124589015D01*
X146373612Y-124546330D01*
X146460266Y-124520044D01*
X146554123Y-124510800D01*
X146815877Y-124510800D01*
X146909734Y-124520044D01*
X146996388Y-124546330D01*
X147076245Y-124589015D01*
X147146241Y-124646459D01*
X147203685Y-124716455D01*
X147246369Y-124796311D01*
X147247082Y-124798660D01*
X147252799Y-124812460D01*
X147261097Y-124824880D01*
X147271660Y-124835443D01*
X147284080Y-124843742D01*
X147297881Y-124849458D01*
X147312531Y-124852372D01*
X147327469Y-124852372D01*
X147342120Y-124849458D01*
X147355920Y-124843741D01*
X147368340Y-124835443D01*
X147378903Y-124824880D01*
X147387202Y-124812460D01*
X147392918Y-124798660D01*
X147393631Y-124796311D01*
X147436315Y-124716455D01*
X147493759Y-124646459D01*
X147563755Y-124589015D01*
X147643612Y-124546330D01*
X147730266Y-124520044D01*
X147824123Y-124510800D01*
X148085877Y-124510800D01*
X148179734Y-124520044D01*
X148266388Y-124546330D01*
X148346245Y-124589015D01*
X148416241Y-124646459D01*
X148473685Y-124716455D01*
X148516369Y-124796311D01*
X148517082Y-124798660D01*
X148522799Y-124812460D01*
X148531097Y-124824880D01*
X148541660Y-124835443D01*
X148554080Y-124843742D01*
X148567881Y-124849458D01*
X148582531Y-124852372D01*
X148597469Y-124852372D01*
X148612120Y-124849458D01*
X148625920Y-124843741D01*
X148638340Y-124835443D01*
X148648903Y-124824880D01*
X148657202Y-124812460D01*
X148662918Y-124798660D01*
X148663631Y-124796311D01*
X148706315Y-124716455D01*
X148763759Y-124646459D01*
X148833755Y-124589015D01*
X148913612Y-124546330D01*
X149000266Y-124520044D01*
X149094123Y-124510800D01*
X149355877Y-124510800D01*
X149449734Y-124520044D01*
X149536388Y-124546330D01*
X149616245Y-124589015D01*
X149686241Y-124646459D01*
X149743685Y-124716455D01*
X149786369Y-124796311D01*
X149787082Y-124798660D01*
X149792799Y-124812460D01*
X149801097Y-124824880D01*
X149811660Y-124835443D01*
X149824080Y-124843742D01*
X149837881Y-124849458D01*
X149852531Y-124852372D01*
X149867469Y-124852372D01*
X149882120Y-124849458D01*
X149895920Y-124843741D01*
X149908340Y-124835443D01*
X149918903Y-124824880D01*
X149927202Y-124812460D01*
X149932918Y-124798660D01*
X149933631Y-124796311D01*
X149976315Y-124716455D01*
X150033759Y-124646459D01*
X150103755Y-124589015D01*
X150183612Y-124546330D01*
X150270266Y-124520044D01*
X150364123Y-124510800D01*
X150625877Y-124510800D01*
X150719734Y-124520044D01*
X150806388Y-124546330D01*
X150886245Y-124589015D01*
X150956241Y-124646459D01*
X151013685Y-124716455D01*
X151056369Y-124796311D01*
X151057082Y-124798660D01*
X151062799Y-124812460D01*
X151071097Y-124824880D01*
X151081660Y-124835443D01*
X151094080Y-124843742D01*
X151107881Y-124849458D01*
X151122531Y-124852372D01*
X151137469Y-124852372D01*
X151152120Y-124849458D01*
X151165920Y-124843741D01*
X151178340Y-124835443D01*
X151188903Y-124824880D01*
X151197202Y-124812460D01*
X151202918Y-124798660D01*
X151203631Y-124796311D01*
X151246315Y-124716455D01*
X151303759Y-124646459D01*
X151373755Y-124589015D01*
X151453612Y-124546330D01*
X151540266Y-124520044D01*
X151634123Y-124510800D01*
X151895877Y-124510800D01*
X151989734Y-124520044D01*
X152076388Y-124546330D01*
X152156245Y-124589015D01*
X152226241Y-124646459D01*
X152283685Y-124716455D01*
X152326369Y-124796311D01*
X152327082Y-124798660D01*
X152332799Y-124812460D01*
X152341097Y-124824880D01*
X152351660Y-124835443D01*
X152364080Y-124843742D01*
X152377881Y-124849458D01*
X152392531Y-124852372D01*
X152407469Y-124852372D01*
X152422120Y-124849458D01*
X152435920Y-124843741D01*
X152448340Y-124835443D01*
X152458903Y-124824880D01*
X152467202Y-124812460D01*
X152472918Y-124798660D01*
X152473631Y-124796311D01*
X152516315Y-124716455D01*
X152573759Y-124646459D01*
X152643755Y-124589015D01*
X152723612Y-124546330D01*
X152810266Y-124520044D01*
X152904123Y-124510800D01*
X153165877Y-124510800D01*
X153259734Y-124520044D01*
X153346388Y-124546330D01*
X153426245Y-124589015D01*
X153496241Y-124646459D01*
X153553685Y-124716455D01*
X153596369Y-124796311D01*
X153597082Y-124798660D01*
X153602799Y-124812460D01*
X153611097Y-124824880D01*
X153621660Y-124835443D01*
X153634080Y-124843742D01*
X153647881Y-124849458D01*
X153662531Y-124852372D01*
X153677469Y-124852372D01*
X153692120Y-124849458D01*
X153705920Y-124843741D01*
X153718340Y-124835443D01*
X153728903Y-124824880D01*
X153737202Y-124812460D01*
X153742918Y-124798660D01*
X153743631Y-124796311D01*
X153786315Y-124716455D01*
X153843759Y-124646459D01*
X153913755Y-124589015D01*
X153993612Y-124546330D01*
X154080266Y-124520044D01*
X154174123Y-124510800D01*
X154435877Y-124510800D01*
X154529734Y-124520044D01*
X154616388Y-124546330D01*
X154696245Y-124589015D01*
X154766241Y-124646459D01*
X154823685Y-124716455D01*
X154866369Y-124796311D01*
X154867082Y-124798660D01*
X154872799Y-124812460D01*
X154881097Y-124824880D01*
X154891660Y-124835443D01*
X154904080Y-124843742D01*
X154917881Y-124849458D01*
X154932531Y-124852372D01*
X154947469Y-124852372D01*
X154962120Y-124849458D01*
X154975920Y-124843741D01*
X154988340Y-124835443D01*
X154998903Y-124824880D01*
X155007202Y-124812460D01*
X155012918Y-124798660D01*
X155013631Y-124796311D01*
X155056315Y-124716455D01*
X155113759Y-124646459D01*
X155183755Y-124589015D01*
X155263612Y-124546330D01*
X155350266Y-124520044D01*
X155444123Y-124510800D01*
X155705877Y-124510800D01*
X155799734Y-124520044D01*
X155886388Y-124546330D01*
X155966245Y-124589015D01*
X156036241Y-124646459D01*
X156093685Y-124716455D01*
X156136369Y-124796311D01*
X156137082Y-124798660D01*
X156142799Y-124812460D01*
X156151097Y-124824880D01*
X156161660Y-124835443D01*
X156174080Y-124843742D01*
X156187881Y-124849458D01*
X156202531Y-124852372D01*
X156217469Y-124852372D01*
X156232120Y-124849458D01*
X156245920Y-124843741D01*
X156258340Y-124835443D01*
X156268903Y-124824880D01*
X156277202Y-124812460D01*
X156282918Y-124798660D01*
X156283631Y-124796311D01*
X156326315Y-124716455D01*
X156383759Y-124646459D01*
X156453755Y-124589015D01*
X156533612Y-124546330D01*
X156620266Y-124520044D01*
X156714123Y-124510800D01*
X156975877Y-124510800D01*
X157069734Y-124520044D01*
X157156388Y-124546330D01*
X157236245Y-124589015D01*
X157306241Y-124646459D01*
X157363685Y-124716455D01*
X157406369Y-124796311D01*
X157407082Y-124798660D01*
X157412799Y-124812460D01*
X157421097Y-124824880D01*
X157431660Y-124835443D01*
X157444080Y-124843742D01*
X157457881Y-124849458D01*
X157472531Y-124852372D01*
X157487469Y-124852372D01*
X157502120Y-124849458D01*
X157515920Y-124843741D01*
X157528340Y-124835443D01*
X157538903Y-124824880D01*
X157547202Y-124812460D01*
X157552918Y-124798660D01*
X157553631Y-124796311D01*
X157596315Y-124716455D01*
X157653759Y-124646459D01*
X157723755Y-124589015D01*
X157803612Y-124546330D01*
X157890266Y-124520044D01*
X157984123Y-124510800D01*
X158245877Y-124510800D01*
X158339734Y-124520044D01*
X158426388Y-124546330D01*
X158506245Y-124589015D01*
X158576241Y-124646459D01*
X158633685Y-124716455D01*
X158676369Y-124796311D01*
X158677082Y-124798660D01*
X158682799Y-124812460D01*
X158691097Y-124824880D01*
X158701660Y-124835443D01*
X158714080Y-124843742D01*
X158727881Y-124849458D01*
X158742531Y-124852372D01*
X158757469Y-124852372D01*
X158772120Y-124849458D01*
X158785920Y-124843741D01*
X158798340Y-124835443D01*
X158808903Y-124824880D01*
X158817202Y-124812460D01*
X158822918Y-124798660D01*
X158823631Y-124796311D01*
X158866315Y-124716455D01*
X158923759Y-124646459D01*
X158993755Y-124589015D01*
X159073612Y-124546330D01*
X159160266Y-124520044D01*
X159254123Y-124510800D01*
X159515877Y-124510800D01*
X159609734Y-124520044D01*
X159696388Y-124546330D01*
X159776245Y-124589015D01*
X159846241Y-124646459D01*
X159903685Y-124716455D01*
X159946369Y-124796311D01*
X159947082Y-124798660D01*
X159952799Y-124812460D01*
X159961097Y-124824880D01*
X159971660Y-124835443D01*
X159984080Y-124843742D01*
X159997881Y-124849458D01*
X160012531Y-124852372D01*
X160027469Y-124852372D01*
X160042120Y-124849458D01*
X160055920Y-124843741D01*
X160068340Y-124835443D01*
X160078903Y-124824880D01*
X160087202Y-124812460D01*
X160092918Y-124798660D01*
X160093631Y-124796311D01*
X160136315Y-124716455D01*
X160193759Y-124646459D01*
X160263755Y-124589015D01*
X160343612Y-124546330D01*
X160430266Y-124520044D01*
X160524123Y-124510800D01*
X160785877Y-124510800D01*
X160879734Y-124520044D01*
X160966388Y-124546330D01*
X161046245Y-124589015D01*
X161116241Y-124646459D01*
X161173685Y-124716455D01*
X161216369Y-124796311D01*
X161217082Y-124798660D01*
X161222799Y-124812460D01*
X161231097Y-124824880D01*
X161241660Y-124835443D01*
X161254080Y-124843742D01*
X161267881Y-124849458D01*
X161282531Y-124852372D01*
X161297469Y-124852372D01*
X161312120Y-124849458D01*
X161325920Y-124843741D01*
X161338340Y-124835443D01*
X161348903Y-124824880D01*
X161357202Y-124812460D01*
X161362918Y-124798660D01*
X161363631Y-124796311D01*
X161406315Y-124716455D01*
X161463759Y-124646459D01*
X161533755Y-124589015D01*
X161613612Y-124546330D01*
X161700266Y-124520044D01*
X161794123Y-124510800D01*
X162055877Y-124510800D01*
X162149734Y-124520044D01*
X162236388Y-124546330D01*
X162316245Y-124589015D01*
X162386241Y-124646459D01*
X162443685Y-124716455D01*
X162486369Y-124796311D01*
X162487082Y-124798660D01*
X162492799Y-124812460D01*
X162501097Y-124824880D01*
X162511660Y-124835443D01*
X162524080Y-124843742D01*
X162537881Y-124849458D01*
X162552531Y-124852372D01*
X162567469Y-124852372D01*
X162582120Y-124849458D01*
X162595920Y-124843741D01*
X162608340Y-124835443D01*
X162618903Y-124824880D01*
X162627202Y-124812460D01*
X162632918Y-124798660D01*
X162633631Y-124796311D01*
X162676315Y-124716455D01*
X162733759Y-124646459D01*
X162803755Y-124589015D01*
X162883612Y-124546330D01*
X162970266Y-124520044D01*
X163064123Y-124510800D01*
X163325877Y-124510800D01*
X163419734Y-124520044D01*
X163506388Y-124546330D01*
X163586245Y-124589015D01*
X163656241Y-124646459D01*
X163713685Y-124716455D01*
X163756370Y-124796312D01*
X163782656Y-124882966D01*
X163791900Y-124976823D01*
X163791900Y-127245177D01*
X163782656Y-127339034D01*
X163756370Y-127425688D01*
X163713685Y-127505545D01*
X163656241Y-127575541D01*
X163586245Y-127632985D01*
X163506388Y-127675670D01*
X163419734Y-127701956D01*
X163325877Y-127711200D01*
X163064123Y-127711200D01*
X162970266Y-127701956D01*
X162883612Y-127675670D01*
X162803755Y-127632985D01*
X162733759Y-127575541D01*
X162676315Y-127505545D01*
X162633631Y-127425689D01*
X162632918Y-127423340D01*
X162627201Y-127409540D01*
X162618903Y-127397120D01*
X162608340Y-127386557D01*
X162595920Y-127378258D01*
X162582119Y-127372542D01*
X162567469Y-127369628D01*
X162552531Y-127369628D01*
X162537880Y-127372542D01*
X162524080Y-127378259D01*
X162511660Y-127386557D01*
X162501097Y-127397120D01*
X162492798Y-127409540D01*
X162487082Y-127423340D01*
X162486369Y-127425689D01*
X162443685Y-127505545D01*
X162386241Y-127575541D01*
X162316245Y-127632985D01*
X162236388Y-127675670D01*
X162149734Y-127701956D01*
X162055877Y-127711200D01*
X161794123Y-127711200D01*
X161700266Y-127701956D01*
X161613612Y-127675670D01*
X161533755Y-127632985D01*
X161463759Y-127575541D01*
X161406315Y-127505545D01*
X161363631Y-127425689D01*
X161362918Y-127423340D01*
X161357201Y-127409540D01*
X161348903Y-127397120D01*
X161338340Y-127386557D01*
X161325920Y-127378258D01*
X161312119Y-127372542D01*
X161297469Y-127369628D01*
X161282531Y-127369628D01*
X161267880Y-127372542D01*
X161254080Y-127378259D01*
X161241660Y-127386557D01*
X161231097Y-127397120D01*
X161222798Y-127409540D01*
X161217082Y-127423340D01*
X161216369Y-127425689D01*
X161173685Y-127505545D01*
X161116241Y-127575541D01*
X161046245Y-127632985D01*
X160966388Y-127675670D01*
X160879734Y-127701956D01*
X160785877Y-127711200D01*
X160524123Y-127711200D01*
X160430266Y-127701956D01*
X160343612Y-127675670D01*
X160263755Y-127632985D01*
X160193759Y-127575541D01*
X160136315Y-127505545D01*
X160093631Y-127425689D01*
X160092918Y-127423340D01*
X160087201Y-127409540D01*
X160078903Y-127397120D01*
X160068340Y-127386557D01*
X160055920Y-127378258D01*
X160042119Y-127372542D01*
X160027469Y-127369628D01*
X160012531Y-127369628D01*
X159997880Y-127372542D01*
X159984080Y-127378259D01*
X159971660Y-127386557D01*
X159961097Y-127397120D01*
X159952798Y-127409540D01*
X159947082Y-127423340D01*
X159946369Y-127425689D01*
X159903685Y-127505545D01*
X159846241Y-127575541D01*
X159776245Y-127632985D01*
X159696388Y-127675670D01*
X159609734Y-127701956D01*
X159515877Y-127711200D01*
X159254123Y-127711200D01*
X159160266Y-127701956D01*
X159073612Y-127675670D01*
X158993755Y-127632985D01*
X158923759Y-127575541D01*
X158866315Y-127505545D01*
X158823631Y-127425689D01*
X158822918Y-127423340D01*
X158817201Y-127409540D01*
X158808903Y-127397120D01*
X158798340Y-127386557D01*
X158785920Y-127378258D01*
X158772119Y-127372542D01*
X158757469Y-127369628D01*
X158742531Y-127369628D01*
X158727880Y-127372542D01*
X158714080Y-127378259D01*
X158701660Y-127386557D01*
X158691097Y-127397120D01*
X158682798Y-127409540D01*
X158677082Y-127423340D01*
X158676369Y-127425689D01*
X158633685Y-127505545D01*
X158576241Y-127575541D01*
X158506245Y-127632985D01*
X158426388Y-127675670D01*
X158339734Y-127701956D01*
X158245877Y-127711200D01*
X157984123Y-127711200D01*
X157890266Y-127701956D01*
X157803612Y-127675670D01*
X157723755Y-127632985D01*
X157653759Y-127575541D01*
X157596315Y-127505545D01*
X157553631Y-127425689D01*
X157552918Y-127423340D01*
X157547201Y-127409540D01*
X157538903Y-127397120D01*
X157528340Y-127386557D01*
X157515920Y-127378258D01*
X157502119Y-127372542D01*
X157487469Y-127369628D01*
X157472531Y-127369628D01*
X157457880Y-127372542D01*
X157444080Y-127378259D01*
X157431660Y-127386557D01*
X157421097Y-127397120D01*
X157412798Y-127409540D01*
X157407082Y-127423340D01*
X157406369Y-127425689D01*
X157363685Y-127505545D01*
X157306241Y-127575541D01*
X157236245Y-127632985D01*
X157156388Y-127675670D01*
X157069734Y-127701956D01*
X156975877Y-127711200D01*
X156714123Y-127711200D01*
X156620266Y-127701956D01*
X156533612Y-127675670D01*
X156453755Y-127632985D01*
X156383759Y-127575541D01*
X156326315Y-127505545D01*
X156283631Y-127425689D01*
X156282918Y-127423340D01*
X156277201Y-127409540D01*
X156268903Y-127397120D01*
X156258340Y-127386557D01*
X156245920Y-127378258D01*
X156232119Y-127372542D01*
X156217469Y-127369628D01*
X156202531Y-127369628D01*
X156187880Y-127372542D01*
X156174080Y-127378259D01*
X156161660Y-127386557D01*
X156151097Y-127397120D01*
X156142798Y-127409540D01*
X156137082Y-127423340D01*
X156136369Y-127425689D01*
X156093685Y-127505545D01*
X156036241Y-127575541D01*
X155966245Y-127632985D01*
X155886388Y-127675670D01*
X155799734Y-127701956D01*
X155705877Y-127711200D01*
X155444123Y-127711200D01*
X155350266Y-127701956D01*
X155263612Y-127675670D01*
X155183755Y-127632985D01*
X155113759Y-127575541D01*
X155056315Y-127505545D01*
X155013631Y-127425689D01*
X155012918Y-127423340D01*
X155007201Y-127409540D01*
X154998903Y-127397120D01*
X154988340Y-127386557D01*
X154975920Y-127378258D01*
X154962119Y-127372542D01*
X154947469Y-127369628D01*
X154932531Y-127369628D01*
X154917880Y-127372542D01*
X154904080Y-127378259D01*
X154891660Y-127386557D01*
X154881097Y-127397120D01*
X154872798Y-127409540D01*
X154867082Y-127423340D01*
X154866369Y-127425689D01*
X154823685Y-127505545D01*
X154766241Y-127575541D01*
X154696245Y-127632985D01*
X154616388Y-127675670D01*
X154529734Y-127701956D01*
X154435877Y-127711200D01*
X154174123Y-127711200D01*
X154080266Y-127701956D01*
X153993612Y-127675670D01*
X153913755Y-127632985D01*
X153843759Y-127575541D01*
X153786315Y-127505545D01*
X153743631Y-127425689D01*
X153742918Y-127423340D01*
X153737201Y-127409540D01*
X153728903Y-127397120D01*
X153718340Y-127386557D01*
X153705920Y-127378258D01*
X153692119Y-127372542D01*
X153677469Y-127369628D01*
X153662531Y-127369628D01*
X153647880Y-127372542D01*
X153634080Y-127378259D01*
X153621660Y-127386557D01*
X153611097Y-127397120D01*
X153602798Y-127409540D01*
X153597082Y-127423340D01*
X153596369Y-127425689D01*
X153553685Y-127505545D01*
X153496241Y-127575541D01*
X153426245Y-127632985D01*
X153346388Y-127675670D01*
X153259734Y-127701956D01*
X153165877Y-127711200D01*
X152904123Y-127711200D01*
X152810266Y-127701956D01*
X152723612Y-127675670D01*
X152643755Y-127632985D01*
X152573759Y-127575541D01*
X152516315Y-127505545D01*
X152473631Y-127425689D01*
X152472918Y-127423340D01*
X152467201Y-127409540D01*
X152458903Y-127397120D01*
X152448340Y-127386557D01*
X152435920Y-127378258D01*
X152422119Y-127372542D01*
X152407469Y-127369628D01*
X152392531Y-127369628D01*
X152377880Y-127372542D01*
X152364080Y-127378259D01*
X152351660Y-127386557D01*
X152341097Y-127397120D01*
X152332798Y-127409540D01*
X152327082Y-127423340D01*
X152326369Y-127425689D01*
X152283685Y-127505545D01*
X152226241Y-127575541D01*
X152156245Y-127632985D01*
X152076388Y-127675670D01*
X151989734Y-127701956D01*
X151895877Y-127711200D01*
X151634123Y-127711200D01*
X151540266Y-127701956D01*
X151453612Y-127675670D01*
X151373755Y-127632985D01*
X151303759Y-127575541D01*
X151246315Y-127505545D01*
X151203631Y-127425689D01*
X151202918Y-127423340D01*
X151197201Y-127409540D01*
X151188903Y-127397120D01*
X151178340Y-127386557D01*
X151165920Y-127378258D01*
X151152119Y-127372542D01*
X151137469Y-127369628D01*
X151122531Y-127369628D01*
X151107880Y-127372542D01*
X151094080Y-127378259D01*
X151081660Y-127386557D01*
X151071097Y-127397120D01*
X151062798Y-127409540D01*
X151057082Y-127423340D01*
X151056369Y-127425689D01*
X151013685Y-127505545D01*
X150956241Y-127575541D01*
X150886245Y-127632985D01*
X150806388Y-127675670D01*
X150719734Y-127701956D01*
X150625877Y-127711200D01*
X150364123Y-127711200D01*
X150270266Y-127701956D01*
X150183612Y-127675670D01*
X150103755Y-127632985D01*
X150033759Y-127575541D01*
X149976315Y-127505545D01*
X149933631Y-127425689D01*
X149932918Y-127423340D01*
X149927201Y-127409540D01*
X149918903Y-127397120D01*
X149908340Y-127386557D01*
X149895920Y-127378258D01*
X149882119Y-127372542D01*
X149867469Y-127369628D01*
X149852531Y-127369628D01*
X149837880Y-127372542D01*
X149824080Y-127378259D01*
X149811660Y-127386557D01*
X149801097Y-127397120D01*
X149792798Y-127409540D01*
X149787082Y-127423340D01*
X149786369Y-127425689D01*
X149743685Y-127505545D01*
X149686241Y-127575541D01*
X149616245Y-127632985D01*
X149536388Y-127675670D01*
X149449734Y-127701956D01*
X149355877Y-127711200D01*
X149094123Y-127711200D01*
X149000266Y-127701956D01*
X148913612Y-127675670D01*
X148833755Y-127632985D01*
X148763759Y-127575541D01*
X148706315Y-127505545D01*
X148663631Y-127425689D01*
X148662918Y-127423340D01*
X148657201Y-127409540D01*
X148648903Y-127397120D01*
X148638340Y-127386557D01*
X148625920Y-127378258D01*
X148612119Y-127372542D01*
X148597469Y-127369628D01*
X148582531Y-127369628D01*
X148567880Y-127372542D01*
X148554080Y-127378259D01*
X148541660Y-127386557D01*
X148531097Y-127397120D01*
X148522798Y-127409540D01*
X148517082Y-127423340D01*
X148516369Y-127425689D01*
X148473685Y-127505545D01*
X148416241Y-127575541D01*
X148346245Y-127632985D01*
X148266388Y-127675670D01*
X148179734Y-127701956D01*
X148085877Y-127711200D01*
X147824123Y-127711200D01*
X147730266Y-127701956D01*
X147643612Y-127675670D01*
X147563755Y-127632985D01*
X147493759Y-127575541D01*
X147436315Y-127505545D01*
X147393631Y-127425689D01*
X147392918Y-127423340D01*
X147387201Y-127409540D01*
X147378903Y-127397120D01*
X147368340Y-127386557D01*
X147355920Y-127378258D01*
X147342119Y-127372542D01*
X147327469Y-127369628D01*
X147312531Y-127369628D01*
X147297880Y-127372542D01*
X147284080Y-127378259D01*
X147271660Y-127386557D01*
X147261097Y-127397120D01*
X147252798Y-127409540D01*
X147247082Y-127423340D01*
X147246369Y-127425689D01*
X147203685Y-127505545D01*
X147146241Y-127575541D01*
X147076245Y-127632985D01*
X146996388Y-127675670D01*
X146909734Y-127701956D01*
X146815877Y-127711200D01*
X146554123Y-127711200D01*
X146460266Y-127701956D01*
X146373612Y-127675670D01*
X146293755Y-127632985D01*
X146223759Y-127575541D01*
X146166315Y-127505545D01*
X146123631Y-127425689D01*
X146122918Y-127423340D01*
X146117201Y-127409540D01*
X146108903Y-127397120D01*
X146098340Y-127386557D01*
X146085920Y-127378258D01*
X146072119Y-127372542D01*
X146057469Y-127369628D01*
X146042531Y-127369628D01*
X146027880Y-127372542D01*
X146014080Y-127378259D01*
X146001660Y-127386557D01*
X145991097Y-127397120D01*
X145982798Y-127409540D01*
X145977082Y-127423340D01*
X145976369Y-127425689D01*
X145933685Y-127505545D01*
X145876241Y-127575541D01*
X145806245Y-127632985D01*
X145726388Y-127675670D01*
X145639734Y-127701956D01*
X145545877Y-127711200D01*
X145284123Y-127711200D01*
X145190266Y-127701956D01*
X145103612Y-127675670D01*
X145023755Y-127632985D01*
X144953759Y-127575541D01*
X144896315Y-127505545D01*
X144853631Y-127425689D01*
X144852918Y-127423340D01*
X144847201Y-127409540D01*
X144838903Y-127397120D01*
X144828340Y-127386557D01*
X144815920Y-127378258D01*
X144802119Y-127372542D01*
X144787469Y-127369628D01*
X144772531Y-127369628D01*
X144757880Y-127372542D01*
X144744080Y-127378259D01*
X144731660Y-127386557D01*
X144721097Y-127397120D01*
X144712798Y-127409540D01*
X144707082Y-127423340D01*
X144706369Y-127425689D01*
X144663685Y-127505545D01*
X144606241Y-127575541D01*
X144536245Y-127632985D01*
X144456388Y-127675670D01*
X144369734Y-127701956D01*
X144275877Y-127711200D01*
X144014123Y-127711200D01*
X143920266Y-127701956D01*
X143833612Y-127675670D01*
X143753755Y-127632985D01*
X143683759Y-127575541D01*
X143626315Y-127505545D01*
X143583631Y-127425689D01*
X143582918Y-127423340D01*
X143577201Y-127409540D01*
X143568903Y-127397120D01*
X143558340Y-127386557D01*
X143545920Y-127378258D01*
X143532119Y-127372542D01*
X143517469Y-127369628D01*
X143502531Y-127369628D01*
X143487880Y-127372542D01*
X143474080Y-127378259D01*
X143461660Y-127386557D01*
X143451097Y-127397120D01*
X143442798Y-127409540D01*
X143437082Y-127423340D01*
X143436369Y-127425689D01*
X143393685Y-127505545D01*
X143336241Y-127575541D01*
X143266245Y-127632985D01*
X143186388Y-127675670D01*
X143099734Y-127701956D01*
X143005877Y-127711200D01*
X142744123Y-127711200D01*
X142650266Y-127701956D01*
X142563612Y-127675670D01*
X142483755Y-127632985D01*
X142413759Y-127575541D01*
X142356315Y-127505545D01*
X142313631Y-127425689D01*
X142312918Y-127423340D01*
X142307201Y-127409540D01*
X142298903Y-127397120D01*
X142288340Y-127386557D01*
X142275920Y-127378258D01*
X142262119Y-127372542D01*
X142247469Y-127369628D01*
X142232531Y-127369628D01*
X142217880Y-127372542D01*
X142204080Y-127378259D01*
X142191660Y-127386557D01*
X142181097Y-127397120D01*
X142172798Y-127409540D01*
X142167082Y-127423340D01*
X142166369Y-127425689D01*
X142123685Y-127505545D01*
X142066241Y-127575541D01*
X141996245Y-127632985D01*
X141916388Y-127675670D01*
X141829734Y-127701956D01*
X141735877Y-127711200D01*
X141474123Y-127711200D01*
X141380266Y-127701956D01*
X141293612Y-127675670D01*
X141213755Y-127632985D01*
X141143759Y-127575541D01*
X141086315Y-127505545D01*
X141043631Y-127425689D01*
X141042918Y-127423340D01*
X141037201Y-127409540D01*
X141028903Y-127397120D01*
X141018340Y-127386557D01*
X141005920Y-127378258D01*
X140992119Y-127372542D01*
X140977469Y-127369628D01*
X140962531Y-127369628D01*
X140947880Y-127372542D01*
X140934080Y-127378259D01*
X140921660Y-127386557D01*
X140911097Y-127397120D01*
X140902798Y-127409540D01*
X140897082Y-127423340D01*
X140896369Y-127425689D01*
X140853685Y-127505545D01*
X140796241Y-127575541D01*
X140726245Y-127632985D01*
X140646388Y-127675670D01*
X140559734Y-127701956D01*
X140465877Y-127711200D01*
X140204123Y-127711200D01*
X140110266Y-127701956D01*
X140023612Y-127675670D01*
X139943755Y-127632985D01*
X139873759Y-127575541D01*
X139816315Y-127505545D01*
X139773631Y-127425689D01*
X139772918Y-127423340D01*
X139767201Y-127409540D01*
X139758903Y-127397120D01*
X139748340Y-127386557D01*
X139735920Y-127378258D01*
X139722119Y-127372542D01*
X139707469Y-127369628D01*
X139692531Y-127369628D01*
X139677880Y-127372542D01*
X139664080Y-127378259D01*
X139651660Y-127386557D01*
X139641097Y-127397120D01*
X139632798Y-127409540D01*
X139627082Y-127423340D01*
X139626369Y-127425689D01*
X139583685Y-127505545D01*
X139526241Y-127575541D01*
X139456245Y-127632985D01*
X139376388Y-127675670D01*
X139289734Y-127701956D01*
X139195877Y-127711200D01*
X138934123Y-127711200D01*
X138840266Y-127701956D01*
X138753612Y-127675670D01*
X138673755Y-127632985D01*
X138603759Y-127575541D01*
X138546315Y-127505545D01*
X138503631Y-127425689D01*
X138502918Y-127423340D01*
X138497201Y-127409540D01*
X138488903Y-127397120D01*
X138478340Y-127386557D01*
X138465920Y-127378258D01*
X138452119Y-127372542D01*
X138437469Y-127369628D01*
X138422531Y-127369628D01*
X138407880Y-127372542D01*
X138394080Y-127378259D01*
X138381660Y-127386557D01*
X138371097Y-127397120D01*
X138362798Y-127409540D01*
X138357082Y-127423340D01*
X138356369Y-127425689D01*
X138313685Y-127505545D01*
X138256241Y-127575541D01*
X138186245Y-127632985D01*
X138106388Y-127675670D01*
X138019734Y-127701956D01*
X137925877Y-127711200D01*
X137664123Y-127711200D01*
X137570266Y-127701956D01*
X137483612Y-127675670D01*
X137403755Y-127632985D01*
X137333759Y-127575541D01*
X137276315Y-127505545D01*
X137233631Y-127425689D01*
X137232918Y-127423340D01*
X137227201Y-127409540D01*
X137218903Y-127397120D01*
X137208340Y-127386557D01*
X137195920Y-127378258D01*
X137182119Y-127372542D01*
X137167469Y-127369628D01*
X137152531Y-127369628D01*
X137137880Y-127372542D01*
X137124080Y-127378259D01*
X137111660Y-127386557D01*
X137101097Y-127397120D01*
X137092798Y-127409540D01*
X137087082Y-127423340D01*
X137086369Y-127425689D01*
X137043685Y-127505545D01*
X136986241Y-127575541D01*
X136916245Y-127632985D01*
X136836388Y-127675670D01*
X136749734Y-127701956D01*
X136655877Y-127711200D01*
X136394123Y-127711200D01*
X136300266Y-127701956D01*
X136213612Y-127675670D01*
X136133755Y-127632985D01*
X136063759Y-127575541D01*
X136006315Y-127505545D01*
X135963631Y-127425689D01*
X135962918Y-127423340D01*
X135957201Y-127409540D01*
X135948903Y-127397120D01*
X135938340Y-127386557D01*
X135925920Y-127378258D01*
X135912119Y-127372542D01*
X135897469Y-127369628D01*
X135882531Y-127369628D01*
X135867880Y-127372542D01*
X135854080Y-127378259D01*
X135841660Y-127386557D01*
X135831097Y-127397120D01*
X135822798Y-127409540D01*
X135817082Y-127423340D01*
X135816369Y-127425689D01*
X135773685Y-127505545D01*
X135716241Y-127575541D01*
X135646245Y-127632985D01*
X135566388Y-127675670D01*
X135479734Y-127701956D01*
X135385877Y-127711200D01*
X135124123Y-127711200D01*
X135030266Y-127701956D01*
X134943612Y-127675670D01*
X134863755Y-127632985D01*
X134793759Y-127575541D01*
X134736315Y-127505545D01*
X134693631Y-127425689D01*
X134692918Y-127423340D01*
X134687201Y-127409540D01*
X134678903Y-127397120D01*
X134668340Y-127386557D01*
X134655920Y-127378258D01*
X134642119Y-127372542D01*
X134627469Y-127369628D01*
X134612531Y-127369628D01*
X134597880Y-127372542D01*
X134584080Y-127378259D01*
X134571660Y-127386557D01*
X134561097Y-127397120D01*
X134552798Y-127409540D01*
X134547082Y-127423340D01*
X134546369Y-127425689D01*
X134503685Y-127505545D01*
X134446241Y-127575541D01*
X134376245Y-127632985D01*
X134296388Y-127675670D01*
X134209734Y-127701956D01*
X134115877Y-127711200D01*
X133854123Y-127711200D01*
X133760266Y-127701956D01*
X133673612Y-127675670D01*
X133593755Y-127632985D01*
X133523759Y-127575541D01*
X133466315Y-127505545D01*
X133423631Y-127425689D01*
X133422918Y-127423340D01*
X133417201Y-127409540D01*
X133408903Y-127397120D01*
X133398340Y-127386557D01*
X133385920Y-127378258D01*
X133372119Y-127372542D01*
X133357469Y-127369628D01*
X133342531Y-127369628D01*
X133327880Y-127372542D01*
X133314080Y-127378259D01*
X133301660Y-127386557D01*
X133291097Y-127397120D01*
X133282798Y-127409540D01*
X133277082Y-127423340D01*
X133276369Y-127425689D01*
X133233685Y-127505545D01*
X133176241Y-127575541D01*
X133106245Y-127632985D01*
X133026388Y-127675670D01*
X132939734Y-127701956D01*
X132845877Y-127711200D01*
X132584123Y-127711200D01*
X132490266Y-127701956D01*
X132403612Y-127675670D01*
X132323755Y-127632985D01*
X132253759Y-127575541D01*
X132196315Y-127505545D01*
X132153631Y-127425689D01*
X132152918Y-127423340D01*
X132147201Y-127409540D01*
X132138903Y-127397120D01*
X132128340Y-127386557D01*
X132115920Y-127378258D01*
X132102119Y-127372542D01*
X132087469Y-127369628D01*
X132072531Y-127369628D01*
X132057880Y-127372542D01*
X132044080Y-127378259D01*
X132031660Y-127386557D01*
X132021097Y-127397120D01*
X132012798Y-127409540D01*
X132007082Y-127423340D01*
X132006369Y-127425689D01*
X131963685Y-127505545D01*
X131906241Y-127575541D01*
X131836245Y-127632985D01*
X131756388Y-127675670D01*
X131669734Y-127701956D01*
X131575877Y-127711200D01*
X131314123Y-127711200D01*
X131220266Y-127701956D01*
X131133612Y-127675670D01*
X131053755Y-127632985D01*
X130983759Y-127575541D01*
X130926315Y-127505545D01*
X130883631Y-127425689D01*
X130882918Y-127423340D01*
X130877201Y-127409540D01*
X130868903Y-127397120D01*
X130858340Y-127386557D01*
X130845920Y-127378258D01*
X130832119Y-127372542D01*
X130817469Y-127369628D01*
X130802531Y-127369628D01*
X130787880Y-127372542D01*
X130774080Y-127378259D01*
X130761660Y-127386557D01*
X130751097Y-127397120D01*
X130742798Y-127409540D01*
X130737082Y-127423340D01*
X130736369Y-127425689D01*
X130693685Y-127505545D01*
X130636241Y-127575541D01*
X130566245Y-127632985D01*
X130486388Y-127675670D01*
X130399734Y-127701956D01*
X130305877Y-127711200D01*
X130044123Y-127711200D01*
X129950266Y-127701956D01*
X129863612Y-127675670D01*
X129783755Y-127632985D01*
X129713759Y-127575541D01*
X129656315Y-127505545D01*
X129613631Y-127425689D01*
X129612918Y-127423340D01*
X129607201Y-127409540D01*
X129598903Y-127397120D01*
X129588340Y-127386557D01*
X129575920Y-127378258D01*
X129562119Y-127372542D01*
X129547469Y-127369628D01*
X129532531Y-127369628D01*
X129517880Y-127372542D01*
X129504080Y-127378259D01*
X129491660Y-127386557D01*
X129481097Y-127397120D01*
X129472798Y-127409540D01*
X129467082Y-127423340D01*
X129466369Y-127425689D01*
X129423685Y-127505545D01*
X129366241Y-127575541D01*
X129296245Y-127632985D01*
X129216388Y-127675670D01*
X129129734Y-127701956D01*
X129035877Y-127711200D01*
X128774123Y-127711200D01*
X128680266Y-127701956D01*
X128593612Y-127675670D01*
X128513755Y-127632985D01*
X128443759Y-127575541D01*
X128386315Y-127505545D01*
X128343631Y-127425689D01*
X128342918Y-127423340D01*
X128337201Y-127409540D01*
X128328903Y-127397120D01*
X128318340Y-127386557D01*
X128305920Y-127378258D01*
X128292119Y-127372542D01*
X128277469Y-127369628D01*
X128262531Y-127369628D01*
X128247880Y-127372542D01*
X128234080Y-127378259D01*
X128221660Y-127386557D01*
X128211097Y-127397120D01*
X128202798Y-127409540D01*
X128197082Y-127423340D01*
X128196369Y-127425689D01*
X128153685Y-127505545D01*
X128096241Y-127575541D01*
X128026245Y-127632985D01*
X127946388Y-127675670D01*
X127859734Y-127701956D01*
X127765877Y-127711200D01*
X127504123Y-127711200D01*
X127410266Y-127701956D01*
X127323612Y-127675670D01*
X127243755Y-127632985D01*
X127173759Y-127575541D01*
X127116315Y-127505545D01*
X127073631Y-127425689D01*
X127072918Y-127423340D01*
X127067201Y-127409540D01*
X127058903Y-127397120D01*
X127048340Y-127386557D01*
X127035920Y-127378258D01*
X127022119Y-127372542D01*
X127007469Y-127369628D01*
X126992531Y-127369628D01*
X126977880Y-127372542D01*
X126964080Y-127378259D01*
X126951660Y-127386557D01*
X126941097Y-127397120D01*
X126932798Y-127409540D01*
X126927082Y-127423340D01*
X126926369Y-127425689D01*
X126883685Y-127505545D01*
X126826241Y-127575541D01*
X126756245Y-127632985D01*
X126676388Y-127675670D01*
X126589734Y-127701956D01*
X126495877Y-127711200D01*
X126234123Y-127711200D01*
X126140266Y-127701956D01*
X126053612Y-127675670D01*
X125973755Y-127632985D01*
X125903759Y-127575541D01*
X125846315Y-127505545D01*
X125803631Y-127425689D01*
X125802918Y-127423340D01*
X125797201Y-127409540D01*
X125788903Y-127397120D01*
X125778340Y-127386557D01*
X125765920Y-127378258D01*
X125752119Y-127372542D01*
X125737469Y-127369628D01*
X125722531Y-127369628D01*
X125707880Y-127372542D01*
X125694080Y-127378259D01*
X125681660Y-127386557D01*
X125671097Y-127397120D01*
X125662798Y-127409540D01*
X125657082Y-127423340D01*
X125656369Y-127425689D01*
X125613685Y-127505545D01*
X125556241Y-127575541D01*
X125486245Y-127632985D01*
X125406388Y-127675670D01*
X125319734Y-127701956D01*
X125225877Y-127711200D01*
X124964123Y-127711200D01*
X124870266Y-127701956D01*
X124783612Y-127675670D01*
X124703755Y-127632985D01*
X124633759Y-127575541D01*
X124576315Y-127505545D01*
X124533631Y-127425689D01*
X124532918Y-127423340D01*
X124527201Y-127409540D01*
X124518903Y-127397120D01*
X124508340Y-127386557D01*
X124495920Y-127378258D01*
X124482119Y-127372542D01*
X124467469Y-127369628D01*
X124452531Y-127369628D01*
X124437880Y-127372542D01*
X124424080Y-127378259D01*
X124411660Y-127386557D01*
X124401097Y-127397120D01*
X124392798Y-127409540D01*
X124387082Y-127423340D01*
X124386369Y-127425689D01*
X124343685Y-127505545D01*
X124286241Y-127575541D01*
X124216245Y-127632985D01*
X124136388Y-127675670D01*
X124049734Y-127701956D01*
X123955877Y-127711200D01*
X123694123Y-127711200D01*
X123600266Y-127701956D01*
X123513612Y-127675670D01*
X123433755Y-127632985D01*
X123363759Y-127575541D01*
X123306315Y-127505545D01*
X123263630Y-127425688D01*
X123237344Y-127339034D01*
X123228100Y-127245177D01*
X123228100Y-124976823D01*
X123237344Y-124882966D01*
X123263630Y-124796312D01*
X123306315Y-124716455D01*
X123363759Y-124646459D01*
X123433755Y-124589015D01*
X123513612Y-124546330D01*
X123600266Y-124520044D01*
X123694123Y-124510800D01*
X123955877Y-124510800D01*
X124049734Y-124520044D01*
G37*
G36*
X166644674Y-115899659D02*
G01*
X166942828Y-116023158D01*
X167211155Y-116202448D01*
X167439352Y-116430645D01*
X167618642Y-116698972D01*
X167742141Y-116997126D01*
X167805100Y-117313643D01*
X167805100Y-117636357D01*
X167742141Y-117952874D01*
X167618642Y-118251028D01*
X167439352Y-118519355D01*
X167211155Y-118747552D01*
X166942828Y-118926842D01*
X166942827Y-118926843D01*
X166942826Y-118926843D01*
X166644674Y-119050341D01*
X166328158Y-119113300D01*
X166005442Y-119113300D01*
X165688926Y-119050341D01*
X165390774Y-118926843D01*
X165390773Y-118926843D01*
X165390772Y-118926842D01*
X165122445Y-118747552D01*
X164894248Y-118519355D01*
X164714958Y-118251028D01*
X164591459Y-117952874D01*
X164528500Y-117636357D01*
X164528500Y-117313643D01*
X164591459Y-116997126D01*
X164714958Y-116698972D01*
X164894248Y-116430645D01*
X165122445Y-116202448D01*
X165390772Y-116023158D01*
X165688926Y-115899659D01*
X166005442Y-115836700D01*
X166328158Y-115836700D01*
X166644674Y-115899659D01*
G37*
G36*
X75611074Y-115899659D02*
G01*
X75909228Y-116023158D01*
X76177555Y-116202448D01*
X76405752Y-116430645D01*
X76585042Y-116698972D01*
X76708541Y-116997126D01*
X76771500Y-117313643D01*
X76771500Y-117636357D01*
X76708541Y-117952874D01*
X76585042Y-118251028D01*
X76405752Y-118519355D01*
X76177555Y-118747552D01*
X75909228Y-118926842D01*
X75909227Y-118926843D01*
X75909226Y-118926843D01*
X75611074Y-119050341D01*
X75294558Y-119113300D01*
X74971842Y-119113300D01*
X74655326Y-119050341D01*
X74357174Y-118926843D01*
X74357173Y-118926843D01*
X74357172Y-118926842D01*
X74088845Y-118747552D01*
X73860648Y-118519355D01*
X73681358Y-118251028D01*
X73557859Y-117952874D01*
X73494900Y-117636357D01*
X73494900Y-117313643D01*
X73557859Y-116997126D01*
X73681358Y-116698972D01*
X73860648Y-116430645D01*
X74088845Y-116202448D01*
X74357172Y-116023158D01*
X74655326Y-115899659D01*
X74971842Y-115836700D01*
X75294558Y-115836700D01*
X75611074Y-115899659D01*
G37*
M02*
