G04 #@! TF.GenerationSoftware,KiCad,Pcbnew,(6.0.1-0)*
G04 #@! TF.CreationDate,2022-02-13T04:03:45-05:00*
G04 #@! TF.ProjectId,ROMSIMM,524f4d53-494d-44d2-9e6b-696361645f70,1.0*
G04 #@! TF.SameCoordinates,Original*
G04 #@! TF.FileFunction,Soldermask,Top*
G04 #@! TF.FilePolarity,Negative*
%FSLAX46Y46*%
G04 Gerber Fmt 4.6, Leading zero omitted, Abs format (unit mm)*
G04 Created by KiCad (PCBNEW (6.0.1-0)) date 2022-02-13 04:03:45*
%MOMM*%
%LPD*%
G01*
G04 APERTURE LIST*
G04 Aperture macros list*
%AMRoundRect*
0 Rectangle with rounded corners*
0 $1 Rounding radius*
0 $2 $3 $4 $5 $6 $7 $8 $9 X,Y pos of 4 corners*
0 Add a 4 corners polygon primitive as box body*
4,1,4,$2,$3,$4,$5,$6,$7,$8,$9,$2,$3,0*
0 Add four circle primitives for the rounded corners*
1,1,$1+$1,$2,$3*
1,1,$1+$1,$4,$5*
1,1,$1+$1,$6,$7*
1,1,$1+$1,$8,$9*
0 Add four rect primitives between the rounded corners*
20,1,$1+$1,$2,$3,$4,$5,0*
20,1,$1+$1,$4,$5,$6,$7,0*
20,1,$1+$1,$6,$7,$8,$9,0*
20,1,$1+$1,$8,$9,$2,$3,0*%
G04 Aperture macros list end*
%ADD10C,0.175000*%
%ADD11C,2.000000*%
%ADD12RoundRect,0.262500X-0.212500X-0.262500X0.212500X-0.262500X0.212500X0.262500X-0.212500X0.262500X0*%
%ADD13RoundRect,0.262500X0.262500X-0.212500X0.262500X0.212500X-0.262500X0.212500X-0.262500X-0.212500X0*%
%ADD14RoundRect,0.136500X-0.112500X0.612500X-0.112500X-0.612500X0.112500X-0.612500X0.112500X0.612500X0*%
%ADD15RoundRect,0.491560X-0.104140X-1.107440X0.104140X-1.107440X0.104140X1.107440X-0.104140X1.107440X0*%
%ADD16RoundRect,0.099000X-0.475000X-0.075000X0.475000X-0.075000X0.475000X0.075000X-0.475000X0.075000X0*%
%ADD17RoundRect,0.140000X0.100000X-0.400000X0.100000X0.400000X-0.100000X0.400000X-0.100000X-0.400000X0*%
%ADD18RoundRect,0.225000X0.175000X0.300000X-0.175000X0.300000X-0.175000X-0.300000X0.175000X-0.300000X0*%
%ADD19RoundRect,0.225000X0.300000X-0.175000X0.300000X0.175000X-0.300000X0.175000X-0.300000X-0.175000X0*%
%ADD20RoundRect,0.250000X0.475000X0.200000X-0.475000X0.200000X-0.475000X-0.200000X0.475000X-0.200000X0*%
%ADD21C,1.448000*%
%ADD22RoundRect,0.225000X-0.175000X-0.300000X0.175000X-0.300000X0.175000X0.300000X-0.175000X0.300000X0*%
%ADD23RoundRect,0.240000X0.190000X-0.572000X0.190000X0.572000X-0.190000X0.572000X-0.190000X-0.572000X0*%
G04 APERTURE END LIST*
D10*
X163195000Y-127635000D02*
X123825000Y-127635000D01*
X123825000Y-127635000D02*
X123317000Y-125031500D01*
X123317000Y-125031500D02*
X163703000Y-125031500D01*
X163703000Y-125031500D02*
X163195000Y-127635000D01*
G36*
X163195000Y-127635000D02*
G01*
X123825000Y-127635000D01*
X123317000Y-125031500D01*
X163703000Y-125031500D01*
X163195000Y-127635000D01*
G37*
X163195000Y-127635000D02*
X123825000Y-127635000D01*
X123317000Y-125031500D01*
X163703000Y-125031500D01*
X163195000Y-127635000D01*
X117475000Y-127635000D02*
X78105000Y-127635000D01*
X78105000Y-127635000D02*
X77597000Y-125031500D01*
X77597000Y-125031500D02*
X117983000Y-125031500D01*
X117983000Y-125031500D02*
X117475000Y-127635000D01*
G36*
X117475000Y-127635000D02*
G01*
X78105000Y-127635000D01*
X77597000Y-125031500D01*
X117983000Y-125031500D01*
X117475000Y-127635000D01*
G37*
X117475000Y-127635000D02*
X78105000Y-127635000D01*
X77597000Y-125031500D01*
X117983000Y-125031500D01*
X117475000Y-127635000D01*
X163195000Y-127635000D02*
X123825000Y-127635000D01*
X123825000Y-127635000D02*
X123317000Y-125031500D01*
X123317000Y-125031500D02*
X163703000Y-125031500D01*
X163703000Y-125031500D02*
X163195000Y-127635000D01*
G36*
X163195000Y-127635000D02*
G01*
X123825000Y-127635000D01*
X123317000Y-125031500D01*
X163703000Y-125031500D01*
X163195000Y-127635000D01*
G37*
X163195000Y-127635000D02*
X123825000Y-127635000D01*
X123317000Y-125031500D01*
X163703000Y-125031500D01*
X163195000Y-127635000D01*
X117475000Y-127635000D02*
X78105000Y-127635000D01*
X78105000Y-127635000D02*
X77597000Y-125031500D01*
X77597000Y-125031500D02*
X117983000Y-125031500D01*
X117983000Y-125031500D02*
X117475000Y-127635000D01*
G36*
X117475000Y-127635000D02*
G01*
X78105000Y-127635000D01*
X77597000Y-125031500D01*
X117983000Y-125031500D01*
X117475000Y-127635000D01*
G37*
X117475000Y-127635000D02*
X78105000Y-127635000D01*
X77597000Y-125031500D01*
X117983000Y-125031500D01*
X117475000Y-127635000D01*
D11*
X75438000Y-123444000D03*
D12*
X153600000Y-109450000D03*
X155100000Y-109450000D03*
D13*
X96500000Y-123100000D03*
X96500000Y-121600000D03*
X116850000Y-123100000D03*
X116850000Y-121600000D03*
X139700000Y-123100000D03*
X139700000Y-121600000D03*
X151050000Y-123100000D03*
X151050000Y-121600000D03*
X160000000Y-123100000D03*
X160000000Y-121600000D03*
D14*
X115300000Y-117200000D03*
X114650000Y-117200000D03*
X114000000Y-117200000D03*
X113350000Y-117200000D03*
X112700000Y-117200000D03*
X112050000Y-117200000D03*
X111400000Y-117200000D03*
X110750000Y-117200000D03*
X110100000Y-117200000D03*
X109450000Y-117200000D03*
X109450000Y-123100000D03*
X110100000Y-123100000D03*
X110750000Y-123100000D03*
X111400000Y-123100000D03*
X112050000Y-123100000D03*
X112700000Y-123100000D03*
X113350000Y-123100000D03*
X114000000Y-123100000D03*
X114650000Y-123100000D03*
X115300000Y-123100000D03*
X149500000Y-117200000D03*
X148850000Y-117200000D03*
X148200000Y-117200000D03*
X147550000Y-117200000D03*
X146900000Y-117200000D03*
X146250000Y-117200000D03*
X145600000Y-117200000D03*
X144950000Y-117200000D03*
X144300000Y-117200000D03*
X143650000Y-117200000D03*
X143650000Y-123100000D03*
X144300000Y-123100000D03*
X144950000Y-123100000D03*
X145600000Y-123100000D03*
X146250000Y-123100000D03*
X146900000Y-123100000D03*
X147550000Y-123100000D03*
X148200000Y-123100000D03*
X148850000Y-123100000D03*
X149500000Y-123100000D03*
D15*
X78105000Y-126111000D03*
X79375000Y-126111000D03*
X80645000Y-126111000D03*
X81915000Y-126111000D03*
X83185000Y-126111000D03*
X84455000Y-126111000D03*
X85725000Y-126111000D03*
X86995000Y-126111000D03*
X88265000Y-126111000D03*
X89535000Y-126111000D03*
X90805000Y-126111000D03*
X92075000Y-126111000D03*
X93345000Y-126111000D03*
X94615000Y-126111000D03*
X95885000Y-126111000D03*
X97155000Y-126111000D03*
X98425000Y-126111000D03*
X99695000Y-126111000D03*
X100965000Y-126111000D03*
X102235000Y-126111000D03*
X103505000Y-126111000D03*
X104775000Y-126111000D03*
X106045000Y-126111000D03*
X107315000Y-126111000D03*
X108585000Y-126111000D03*
X109855000Y-126111000D03*
X111125000Y-126111000D03*
X112395000Y-126111000D03*
X113665000Y-126111000D03*
X114935000Y-126111000D03*
X116205000Y-126111000D03*
X117475000Y-126111000D03*
X123825000Y-126111000D03*
X125095000Y-126111000D03*
X126365000Y-126111000D03*
X127635000Y-126111000D03*
X128905000Y-126111000D03*
X130175000Y-126111000D03*
X131445000Y-126111000D03*
X132715000Y-126111000D03*
X133985000Y-126111000D03*
X135255000Y-126111000D03*
X136525000Y-126111000D03*
X137795000Y-126111000D03*
X139065000Y-126111000D03*
X140335000Y-126111000D03*
X141605000Y-126111000D03*
X142875000Y-126111000D03*
X144145000Y-126111000D03*
X145415000Y-126111000D03*
X146685000Y-126111000D03*
X147955000Y-126111000D03*
X149225000Y-126111000D03*
X150495000Y-126111000D03*
X151765000Y-126111000D03*
X153035000Y-126111000D03*
X154305000Y-126111000D03*
X155575000Y-126111000D03*
X156845000Y-126111000D03*
X158115000Y-126111000D03*
X159385000Y-126111000D03*
X160655000Y-126111000D03*
X161925000Y-126111000D03*
X163195000Y-126111000D03*
D14*
X138150000Y-117200000D03*
X137500000Y-117200000D03*
X136850000Y-117200000D03*
X136200000Y-117200000D03*
X135550000Y-117200000D03*
X134900000Y-117200000D03*
X134250000Y-117200000D03*
X133600000Y-117200000D03*
X132950000Y-117200000D03*
X132300000Y-117200000D03*
X132300000Y-123100000D03*
X132950000Y-123100000D03*
X133600000Y-123100000D03*
X134250000Y-123100000D03*
X134900000Y-123100000D03*
X135550000Y-123100000D03*
X136200000Y-123100000D03*
X136850000Y-123100000D03*
X137500000Y-123100000D03*
X138150000Y-123100000D03*
X158450000Y-117200000D03*
X157800000Y-117200000D03*
X157150000Y-117200000D03*
X156500000Y-117200000D03*
X155850000Y-117200000D03*
X155200000Y-117200000D03*
X154550000Y-117200000D03*
X153900000Y-117200000D03*
X153250000Y-117200000D03*
X152600000Y-117200000D03*
X152600000Y-123100000D03*
X153250000Y-123100000D03*
X153900000Y-123100000D03*
X154550000Y-123100000D03*
X155200000Y-123100000D03*
X155850000Y-123100000D03*
X156500000Y-123100000D03*
X157150000Y-123100000D03*
X157800000Y-123100000D03*
X158450000Y-123100000D03*
D12*
X111000000Y-109450000D03*
X112500000Y-109450000D03*
D16*
X89700000Y-103950000D03*
X89700000Y-104450000D03*
X89700000Y-104950000D03*
X89700000Y-105450000D03*
X89700000Y-105950000D03*
X89700000Y-106450000D03*
X89700000Y-106950000D03*
X89700000Y-107450000D03*
X89700000Y-107950000D03*
X89700000Y-108450000D03*
X89700000Y-108950000D03*
X89700000Y-109450000D03*
X89700000Y-109950000D03*
X89700000Y-110450000D03*
X89700000Y-110950000D03*
X89700000Y-111450000D03*
X89700000Y-111950000D03*
X89700000Y-112450000D03*
X89700000Y-112950000D03*
X89700000Y-113450000D03*
X89700000Y-113950000D03*
X89700000Y-114450000D03*
X89700000Y-114950000D03*
X89700000Y-115450000D03*
X109200000Y-115450000D03*
X109200000Y-114950000D03*
X109200000Y-114450000D03*
X109200000Y-113950000D03*
X109200000Y-113450000D03*
X109200000Y-112950000D03*
X109200000Y-112450000D03*
X109200000Y-111950000D03*
X109200000Y-111450000D03*
X109200000Y-110950000D03*
X109200000Y-110450000D03*
X109200000Y-109950000D03*
X109200000Y-109450000D03*
X109200000Y-108950000D03*
X109200000Y-108450000D03*
X109200000Y-107950000D03*
X109200000Y-107450000D03*
X109200000Y-106950000D03*
X109200000Y-106450000D03*
X109200000Y-105950000D03*
X109200000Y-105450000D03*
X109200000Y-104950000D03*
X109200000Y-104450000D03*
X109200000Y-103950000D03*
D14*
X105100000Y-117200000D03*
X104450000Y-117200000D03*
X103800000Y-117200000D03*
X103150000Y-117200000D03*
X102500000Y-117200000D03*
X101850000Y-117200000D03*
X101200000Y-117200000D03*
X100550000Y-117200000D03*
X99900000Y-117200000D03*
X99250000Y-117200000D03*
X99250000Y-123100000D03*
X99900000Y-123100000D03*
X100550000Y-123100000D03*
X101200000Y-123100000D03*
X101850000Y-123100000D03*
X102500000Y-123100000D03*
X103150000Y-123100000D03*
X103800000Y-123100000D03*
X104450000Y-123100000D03*
X105100000Y-123100000D03*
D12*
X77600000Y-113750000D03*
X79100000Y-113750000D03*
D16*
X132490000Y-103950000D03*
X132490000Y-104450000D03*
X132490000Y-104950000D03*
X132490000Y-105450000D03*
X132490000Y-105950000D03*
X132490000Y-106450000D03*
X132490000Y-106950000D03*
X132490000Y-107450000D03*
X132490000Y-107950000D03*
X132490000Y-108450000D03*
X132490000Y-108950000D03*
X132490000Y-109450000D03*
X132490000Y-109950000D03*
X132490000Y-110450000D03*
X132490000Y-110950000D03*
X132490000Y-111450000D03*
X132490000Y-111950000D03*
X132490000Y-112450000D03*
X132490000Y-112950000D03*
X132490000Y-113450000D03*
X132490000Y-113950000D03*
X132490000Y-114450000D03*
X132490000Y-114950000D03*
X132490000Y-115450000D03*
X151990000Y-115450000D03*
X151990000Y-114950000D03*
X151990000Y-114450000D03*
X151990000Y-113950000D03*
X151990000Y-113450000D03*
X151990000Y-112950000D03*
X151990000Y-112450000D03*
X151990000Y-111950000D03*
X151990000Y-111450000D03*
X151990000Y-110950000D03*
X151990000Y-110450000D03*
X151990000Y-109950000D03*
X151990000Y-109450000D03*
X151990000Y-108950000D03*
X151990000Y-108450000D03*
X151990000Y-107950000D03*
X151990000Y-107450000D03*
X151990000Y-106950000D03*
X151990000Y-106450000D03*
X151990000Y-105950000D03*
X151990000Y-105450000D03*
X151990000Y-104950000D03*
X151990000Y-104450000D03*
X151990000Y-103950000D03*
D13*
X86350000Y-123100000D03*
X86350000Y-121600000D03*
D14*
X84800000Y-117200000D03*
X84150000Y-117200000D03*
X83500000Y-117200000D03*
X82850000Y-117200000D03*
X82200000Y-117200000D03*
X81550000Y-117200000D03*
X80900000Y-117200000D03*
X80250000Y-117200000D03*
X79600000Y-117200000D03*
X78950000Y-117200000D03*
X78950000Y-123100000D03*
X79600000Y-123100000D03*
X80250000Y-123100000D03*
X80900000Y-123100000D03*
X81550000Y-123100000D03*
X82200000Y-123100000D03*
X82850000Y-123100000D03*
X83500000Y-123100000D03*
X84150000Y-123100000D03*
X84800000Y-123100000D03*
D13*
X106713500Y-123100000D03*
X106713500Y-121600000D03*
D14*
X128000000Y-117200000D03*
X127350000Y-117200000D03*
X126700000Y-117200000D03*
X126050000Y-117200000D03*
X125400000Y-117200000D03*
X124750000Y-117200000D03*
X124100000Y-117200000D03*
X123450000Y-117200000D03*
X122800000Y-117200000D03*
X122150000Y-117200000D03*
X122150000Y-123100000D03*
X122800000Y-123100000D03*
X123450000Y-123100000D03*
X124100000Y-123100000D03*
X124750000Y-123100000D03*
X125400000Y-123100000D03*
X126050000Y-123100000D03*
X126700000Y-123100000D03*
X127350000Y-123100000D03*
X128000000Y-123100000D03*
D13*
X129550000Y-123100000D03*
X129550000Y-121600000D03*
X141500000Y-123100000D03*
X141500000Y-121600000D03*
X86600000Y-109450000D03*
X86600000Y-107950000D03*
D11*
X167894000Y-123444000D03*
X162433000Y-104267000D03*
X75946000Y-104267000D03*
D12*
X126100000Y-109400000D03*
X127600000Y-109400000D03*
D13*
X77600000Y-121873000D03*
X77600000Y-120373000D03*
D17*
X96450000Y-119800000D03*
X97100000Y-119800000D03*
X97750000Y-119800000D03*
X97750000Y-118100000D03*
X96450000Y-118100000D03*
D18*
X157650000Y-104400000D03*
X156050000Y-104400000D03*
D19*
X154750000Y-105900000D03*
X154750000Y-104300000D03*
D18*
X119550000Y-119700000D03*
X117950000Y-119700000D03*
D20*
X79400000Y-112100000D03*
X79400000Y-110200000D03*
X77300000Y-111150000D03*
D21*
X73406000Y-104267000D03*
X75438000Y-125984000D03*
X167894000Y-125984000D03*
X167894000Y-104267000D03*
D22*
X158900000Y-104400000D03*
X160500000Y-104400000D03*
D23*
X157353000Y-114681000D03*
X158623000Y-114681000D03*
X159893000Y-114681000D03*
X159893000Y-107061000D03*
X158623000Y-107061000D03*
X157353000Y-107061000D03*
G36*
X148543820Y-124923216D02*
G01*
X148560484Y-124952790D01*
X148595746Y-124962635D01*
X148627762Y-124944596D01*
X148635912Y-124924920D01*
X148637499Y-124923702D01*
X148639347Y-124924467D01*
X148639748Y-124925901D01*
X148631300Y-125003666D01*
X148631300Y-127218334D01*
X148639910Y-127297586D01*
X148639103Y-127299416D01*
X148637115Y-127299632D01*
X148636180Y-127298784D01*
X148619516Y-127269210D01*
X148584254Y-127259365D01*
X148552238Y-127277404D01*
X148544088Y-127297080D01*
X148542501Y-127298298D01*
X148540653Y-127297533D01*
X148540252Y-127296099D01*
X148548700Y-127218334D01*
X148548700Y-125003666D01*
X148540090Y-124924414D01*
X148540897Y-124922584D01*
X148542885Y-124922368D01*
X148543820Y-124923216D01*
G37*
G36*
X92663820Y-124923216D02*
G01*
X92680484Y-124952790D01*
X92715746Y-124962635D01*
X92747762Y-124944596D01*
X92755912Y-124924920D01*
X92757499Y-124923702D01*
X92759347Y-124924467D01*
X92759748Y-124925901D01*
X92751300Y-125003666D01*
X92751300Y-127218334D01*
X92759910Y-127297586D01*
X92759103Y-127299416D01*
X92757115Y-127299632D01*
X92756180Y-127298784D01*
X92739516Y-127269210D01*
X92704254Y-127259365D01*
X92672238Y-127277404D01*
X92664088Y-127297080D01*
X92662501Y-127298298D01*
X92660653Y-127297533D01*
X92660252Y-127296099D01*
X92668700Y-127218334D01*
X92668700Y-125003666D01*
X92660090Y-124924414D01*
X92660897Y-124922584D01*
X92662885Y-124922368D01*
X92663820Y-124923216D01*
G37*
G36*
X91393820Y-124923216D02*
G01*
X91410484Y-124952790D01*
X91445746Y-124962635D01*
X91477762Y-124944596D01*
X91485912Y-124924920D01*
X91487499Y-124923702D01*
X91489347Y-124924467D01*
X91489748Y-124925901D01*
X91481300Y-125003666D01*
X91481300Y-127218334D01*
X91489910Y-127297586D01*
X91489103Y-127299416D01*
X91487115Y-127299632D01*
X91486180Y-127298784D01*
X91469516Y-127269210D01*
X91434254Y-127259365D01*
X91402238Y-127277404D01*
X91394088Y-127297080D01*
X91392501Y-127298298D01*
X91390653Y-127297533D01*
X91390252Y-127296099D01*
X91398700Y-127218334D01*
X91398700Y-125003666D01*
X91390090Y-124924414D01*
X91390897Y-124922584D01*
X91392885Y-124922368D01*
X91393820Y-124923216D01*
G37*
G36*
X116793820Y-124923216D02*
G01*
X116810484Y-124952790D01*
X116845746Y-124962635D01*
X116877762Y-124944596D01*
X116885912Y-124924920D01*
X116887499Y-124923702D01*
X116889347Y-124924467D01*
X116889748Y-124925901D01*
X116881300Y-125003666D01*
X116881300Y-127218334D01*
X116889910Y-127297586D01*
X116889103Y-127299416D01*
X116887115Y-127299632D01*
X116886180Y-127298784D01*
X116869516Y-127269210D01*
X116834254Y-127259365D01*
X116802238Y-127277404D01*
X116794088Y-127297080D01*
X116792501Y-127298298D01*
X116790653Y-127297533D01*
X116790252Y-127296099D01*
X116798700Y-127218334D01*
X116798700Y-125003666D01*
X116790090Y-124924414D01*
X116790897Y-124922584D01*
X116792885Y-124922368D01*
X116793820Y-124923216D01*
G37*
G36*
X147273820Y-124923216D02*
G01*
X147290484Y-124952790D01*
X147325746Y-124962635D01*
X147357762Y-124944596D01*
X147365912Y-124924920D01*
X147367499Y-124923702D01*
X147369347Y-124924467D01*
X147369748Y-124925901D01*
X147361300Y-125003666D01*
X147361300Y-127218334D01*
X147369910Y-127297586D01*
X147369103Y-127299416D01*
X147367115Y-127299632D01*
X147366180Y-127298784D01*
X147349516Y-127269210D01*
X147314254Y-127259365D01*
X147282238Y-127277404D01*
X147274088Y-127297080D01*
X147272501Y-127298298D01*
X147270653Y-127297533D01*
X147270252Y-127296099D01*
X147278700Y-127218334D01*
X147278700Y-125003666D01*
X147270090Y-124924414D01*
X147270897Y-124922584D01*
X147272885Y-124922368D01*
X147273820Y-124923216D01*
G37*
G36*
X162513820Y-124923216D02*
G01*
X162530484Y-124952790D01*
X162565746Y-124962635D01*
X162597762Y-124944596D01*
X162605912Y-124924920D01*
X162607499Y-124923702D01*
X162609347Y-124924467D01*
X162609748Y-124925901D01*
X162601300Y-125003666D01*
X162601300Y-127218334D01*
X162609910Y-127297586D01*
X162609103Y-127299416D01*
X162607115Y-127299632D01*
X162606180Y-127298784D01*
X162589516Y-127269210D01*
X162554254Y-127259365D01*
X162522238Y-127277404D01*
X162514088Y-127297080D01*
X162512501Y-127298298D01*
X162510653Y-127297533D01*
X162510252Y-127296099D01*
X162518700Y-127218334D01*
X162518700Y-125003666D01*
X162510090Y-124924414D01*
X162510897Y-124922584D01*
X162512885Y-124922368D01*
X162513820Y-124923216D01*
G37*
G36*
X93933820Y-124923216D02*
G01*
X93950484Y-124952790D01*
X93985746Y-124962635D01*
X94017762Y-124944596D01*
X94025912Y-124924920D01*
X94027499Y-124923702D01*
X94029347Y-124924467D01*
X94029748Y-124925901D01*
X94021300Y-125003666D01*
X94021300Y-127218334D01*
X94029910Y-127297586D01*
X94029103Y-127299416D01*
X94027115Y-127299632D01*
X94026180Y-127298784D01*
X94009516Y-127269210D01*
X93974254Y-127259365D01*
X93942238Y-127277404D01*
X93934088Y-127297080D01*
X93932501Y-127298298D01*
X93930653Y-127297533D01*
X93930252Y-127296099D01*
X93938700Y-127218334D01*
X93938700Y-125003666D01*
X93930090Y-124924414D01*
X93930897Y-124922584D01*
X93932885Y-124922368D01*
X93933820Y-124923216D01*
G37*
G36*
X149813820Y-124923216D02*
G01*
X149830484Y-124952790D01*
X149865746Y-124962635D01*
X149897762Y-124944596D01*
X149905912Y-124924920D01*
X149907499Y-124923702D01*
X149909347Y-124924467D01*
X149909748Y-124925901D01*
X149901300Y-125003666D01*
X149901300Y-127218334D01*
X149909910Y-127297586D01*
X149909103Y-127299416D01*
X149907115Y-127299632D01*
X149906180Y-127298784D01*
X149889516Y-127269210D01*
X149854254Y-127259365D01*
X149822238Y-127277404D01*
X149814088Y-127297080D01*
X149812501Y-127298298D01*
X149810653Y-127297533D01*
X149810252Y-127296099D01*
X149818700Y-127218334D01*
X149818700Y-125003666D01*
X149810090Y-124924414D01*
X149810897Y-124922584D01*
X149812885Y-124922368D01*
X149813820Y-124923216D01*
G37*
G36*
X110443820Y-124923216D02*
G01*
X110460484Y-124952790D01*
X110495746Y-124962635D01*
X110527762Y-124944596D01*
X110535912Y-124924920D01*
X110537499Y-124923702D01*
X110539347Y-124924467D01*
X110539748Y-124925901D01*
X110531300Y-125003666D01*
X110531300Y-127218334D01*
X110539910Y-127297586D01*
X110539103Y-127299416D01*
X110537115Y-127299632D01*
X110536180Y-127298784D01*
X110519516Y-127269210D01*
X110484254Y-127259365D01*
X110452238Y-127277404D01*
X110444088Y-127297080D01*
X110442501Y-127298298D01*
X110440653Y-127297533D01*
X110440252Y-127296099D01*
X110448700Y-127218334D01*
X110448700Y-125003666D01*
X110440090Y-124924414D01*
X110440897Y-124922584D01*
X110442885Y-124922368D01*
X110443820Y-124923216D01*
G37*
G36*
X81233820Y-124923216D02*
G01*
X81250484Y-124952790D01*
X81285746Y-124962635D01*
X81317762Y-124944596D01*
X81325912Y-124924920D01*
X81327499Y-124923702D01*
X81329347Y-124924467D01*
X81329748Y-124925901D01*
X81321300Y-125003666D01*
X81321300Y-127218334D01*
X81329910Y-127297586D01*
X81329103Y-127299416D01*
X81327115Y-127299632D01*
X81326180Y-127298784D01*
X81309516Y-127269210D01*
X81274254Y-127259365D01*
X81242238Y-127277404D01*
X81234088Y-127297080D01*
X81232501Y-127298298D01*
X81230653Y-127297533D01*
X81230252Y-127296099D01*
X81238700Y-127218334D01*
X81238700Y-125003666D01*
X81230090Y-124924414D01*
X81230897Y-124922584D01*
X81232885Y-124922368D01*
X81233820Y-124923216D01*
G37*
G36*
X129493820Y-124923216D02*
G01*
X129510484Y-124952790D01*
X129545746Y-124962635D01*
X129577762Y-124944596D01*
X129585912Y-124924920D01*
X129587499Y-124923702D01*
X129589347Y-124924467D01*
X129589748Y-124925901D01*
X129581300Y-125003666D01*
X129581300Y-127218334D01*
X129589910Y-127297586D01*
X129589103Y-127299416D01*
X129587115Y-127299632D01*
X129586180Y-127298784D01*
X129569516Y-127269210D01*
X129534254Y-127259365D01*
X129502238Y-127277404D01*
X129494088Y-127297080D01*
X129492501Y-127298298D01*
X129490653Y-127297533D01*
X129490252Y-127296099D01*
X129498700Y-127218334D01*
X129498700Y-125003666D01*
X129490090Y-124924414D01*
X129490897Y-124922584D01*
X129492885Y-124922368D01*
X129493820Y-124923216D01*
G37*
G36*
X158703820Y-124923216D02*
G01*
X158720484Y-124952790D01*
X158755746Y-124962635D01*
X158787762Y-124944596D01*
X158795912Y-124924920D01*
X158797499Y-124923702D01*
X158799347Y-124924467D01*
X158799748Y-124925901D01*
X158791300Y-125003666D01*
X158791300Y-127218334D01*
X158799910Y-127297586D01*
X158799103Y-127299416D01*
X158797115Y-127299632D01*
X158796180Y-127298784D01*
X158779516Y-127269210D01*
X158744254Y-127259365D01*
X158712238Y-127277404D01*
X158704088Y-127297080D01*
X158702501Y-127298298D01*
X158700653Y-127297533D01*
X158700252Y-127296099D01*
X158708700Y-127218334D01*
X158708700Y-125003666D01*
X158700090Y-124924414D01*
X158700897Y-124922584D01*
X158702885Y-124922368D01*
X158703820Y-124923216D01*
G37*
G36*
X146003820Y-124923216D02*
G01*
X146020484Y-124952790D01*
X146055746Y-124962635D01*
X146087762Y-124944596D01*
X146095912Y-124924920D01*
X146097499Y-124923702D01*
X146099347Y-124924467D01*
X146099748Y-124925901D01*
X146091300Y-125003666D01*
X146091300Y-127218334D01*
X146099910Y-127297586D01*
X146099103Y-127299416D01*
X146097115Y-127299632D01*
X146096180Y-127298784D01*
X146079516Y-127269210D01*
X146044254Y-127259365D01*
X146012238Y-127277404D01*
X146004088Y-127297080D01*
X146002501Y-127298298D01*
X146000653Y-127297533D01*
X146000252Y-127296099D01*
X146008700Y-127218334D01*
X146008700Y-125003666D01*
X146000090Y-124924414D01*
X146000897Y-124922584D01*
X146002885Y-124922368D01*
X146003820Y-124923216D01*
G37*
G36*
X130763820Y-124923216D02*
G01*
X130780484Y-124952790D01*
X130815746Y-124962635D01*
X130847762Y-124944596D01*
X130855912Y-124924920D01*
X130857499Y-124923702D01*
X130859347Y-124924467D01*
X130859748Y-124925901D01*
X130851300Y-125003666D01*
X130851300Y-127218334D01*
X130859910Y-127297586D01*
X130859103Y-127299416D01*
X130857115Y-127299632D01*
X130856180Y-127298784D01*
X130839516Y-127269210D01*
X130804254Y-127259365D01*
X130772238Y-127277404D01*
X130764088Y-127297080D01*
X130762501Y-127298298D01*
X130760653Y-127297533D01*
X130760252Y-127296099D01*
X130768700Y-127218334D01*
X130768700Y-125003666D01*
X130760090Y-124924414D01*
X130760897Y-124922584D01*
X130762885Y-124922368D01*
X130763820Y-124923216D01*
G37*
G36*
X95203820Y-124923216D02*
G01*
X95220484Y-124952790D01*
X95255746Y-124962635D01*
X95287762Y-124944596D01*
X95295912Y-124924920D01*
X95297499Y-124923702D01*
X95299347Y-124924467D01*
X95299748Y-124925901D01*
X95291300Y-125003666D01*
X95291300Y-127218334D01*
X95299910Y-127297586D01*
X95299103Y-127299416D01*
X95297115Y-127299632D01*
X95296180Y-127298784D01*
X95279516Y-127269210D01*
X95244254Y-127259365D01*
X95212238Y-127277404D01*
X95204088Y-127297080D01*
X95202501Y-127298298D01*
X95200653Y-127297533D01*
X95200252Y-127296099D01*
X95208700Y-127218334D01*
X95208700Y-125003666D01*
X95200090Y-124924414D01*
X95200897Y-124922584D01*
X95202885Y-124922368D01*
X95203820Y-124923216D01*
G37*
G36*
X90123820Y-124923216D02*
G01*
X90140484Y-124952790D01*
X90175746Y-124962635D01*
X90207762Y-124944596D01*
X90215912Y-124924920D01*
X90217499Y-124923702D01*
X90219347Y-124924467D01*
X90219748Y-124925901D01*
X90211300Y-125003666D01*
X90211300Y-127218334D01*
X90219910Y-127297586D01*
X90219103Y-127299416D01*
X90217115Y-127299632D01*
X90216180Y-127298784D01*
X90199516Y-127269210D01*
X90164254Y-127259365D01*
X90132238Y-127277404D01*
X90124088Y-127297080D01*
X90122501Y-127298298D01*
X90120653Y-127297533D01*
X90120252Y-127296099D01*
X90128700Y-127218334D01*
X90128700Y-125003666D01*
X90120090Y-124924414D01*
X90120897Y-124922584D01*
X90122885Y-124922368D01*
X90123820Y-124923216D01*
G37*
G36*
X85043820Y-124923216D02*
G01*
X85060484Y-124952790D01*
X85095746Y-124962635D01*
X85127762Y-124944596D01*
X85135912Y-124924920D01*
X85137499Y-124923702D01*
X85139347Y-124924467D01*
X85139748Y-124925901D01*
X85131300Y-125003666D01*
X85131300Y-127218334D01*
X85139910Y-127297586D01*
X85139103Y-127299416D01*
X85137115Y-127299632D01*
X85136180Y-127298784D01*
X85119516Y-127269210D01*
X85084254Y-127259365D01*
X85052238Y-127277404D01*
X85044088Y-127297080D01*
X85042501Y-127298298D01*
X85040653Y-127297533D01*
X85040252Y-127296099D01*
X85048700Y-127218334D01*
X85048700Y-125003666D01*
X85040090Y-124924414D01*
X85040897Y-124922584D01*
X85042885Y-124922368D01*
X85043820Y-124923216D01*
G37*
G36*
X104093820Y-124923216D02*
G01*
X104110484Y-124952790D01*
X104145746Y-124962635D01*
X104177762Y-124944596D01*
X104185912Y-124924920D01*
X104187499Y-124923702D01*
X104189347Y-124924467D01*
X104189748Y-124925901D01*
X104181300Y-125003666D01*
X104181300Y-127218334D01*
X104189910Y-127297586D01*
X104189103Y-127299416D01*
X104187115Y-127299632D01*
X104186180Y-127298784D01*
X104169516Y-127269210D01*
X104134254Y-127259365D01*
X104102238Y-127277404D01*
X104094088Y-127297080D01*
X104092501Y-127298298D01*
X104090653Y-127297533D01*
X104090252Y-127296099D01*
X104098700Y-127218334D01*
X104098700Y-125003666D01*
X104090090Y-124924414D01*
X104090897Y-124922584D01*
X104092885Y-124922368D01*
X104093820Y-124923216D01*
G37*
G36*
X105363820Y-124923216D02*
G01*
X105380484Y-124952790D01*
X105415746Y-124962635D01*
X105447762Y-124944596D01*
X105455912Y-124924920D01*
X105457499Y-124923702D01*
X105459347Y-124924467D01*
X105459748Y-124925901D01*
X105451300Y-125003666D01*
X105451300Y-127218334D01*
X105459910Y-127297586D01*
X105459103Y-127299416D01*
X105457115Y-127299632D01*
X105456180Y-127298784D01*
X105439516Y-127269210D01*
X105404254Y-127259365D01*
X105372238Y-127277404D01*
X105364088Y-127297080D01*
X105362501Y-127298298D01*
X105360653Y-127297533D01*
X105360252Y-127296099D01*
X105368700Y-127218334D01*
X105368700Y-125003666D01*
X105360090Y-124924414D01*
X105360897Y-124922584D01*
X105362885Y-124922368D01*
X105363820Y-124923216D01*
G37*
G36*
X79963820Y-124923216D02*
G01*
X79980484Y-124952790D01*
X80015746Y-124962635D01*
X80047762Y-124944596D01*
X80055912Y-124924920D01*
X80057499Y-124923702D01*
X80059347Y-124924467D01*
X80059748Y-124925901D01*
X80051300Y-125003666D01*
X80051300Y-127218334D01*
X80059910Y-127297586D01*
X80059103Y-127299416D01*
X80057115Y-127299632D01*
X80056180Y-127298784D01*
X80039516Y-127269210D01*
X80004254Y-127259365D01*
X79972238Y-127277404D01*
X79964088Y-127297080D01*
X79962501Y-127298298D01*
X79960653Y-127297533D01*
X79960252Y-127296099D01*
X79968700Y-127218334D01*
X79968700Y-125003666D01*
X79960090Y-124924414D01*
X79960897Y-124922584D01*
X79962885Y-124922368D01*
X79963820Y-124923216D01*
G37*
G36*
X137113820Y-124923216D02*
G01*
X137130484Y-124952790D01*
X137165746Y-124962635D01*
X137197762Y-124944596D01*
X137205912Y-124924920D01*
X137207499Y-124923702D01*
X137209347Y-124924467D01*
X137209748Y-124925901D01*
X137201300Y-125003666D01*
X137201300Y-127218334D01*
X137209910Y-127297586D01*
X137209103Y-127299416D01*
X137207115Y-127299632D01*
X137206180Y-127298784D01*
X137189516Y-127269210D01*
X137154254Y-127259365D01*
X137122238Y-127277404D01*
X137114088Y-127297080D01*
X137112501Y-127298298D01*
X137110653Y-127297533D01*
X137110252Y-127296099D01*
X137118700Y-127218334D01*
X137118700Y-125003666D01*
X137110090Y-124924414D01*
X137110897Y-124922584D01*
X137112885Y-124922368D01*
X137113820Y-124923216D01*
G37*
G36*
X112983820Y-124923216D02*
G01*
X113000484Y-124952790D01*
X113035746Y-124962635D01*
X113067762Y-124944596D01*
X113075912Y-124924920D01*
X113077499Y-124923702D01*
X113079347Y-124924467D01*
X113079748Y-124925901D01*
X113071300Y-125003666D01*
X113071300Y-127218334D01*
X113079910Y-127297586D01*
X113079103Y-127299416D01*
X113077115Y-127299632D01*
X113076180Y-127298784D01*
X113059516Y-127269210D01*
X113024254Y-127259365D01*
X112992238Y-127277404D01*
X112984088Y-127297080D01*
X112982501Y-127298298D01*
X112980653Y-127297533D01*
X112980252Y-127296099D01*
X112988700Y-127218334D01*
X112988700Y-125003666D01*
X112980090Y-124924414D01*
X112980897Y-124922584D01*
X112982885Y-124922368D01*
X112983820Y-124923216D01*
G37*
G36*
X154893820Y-124923216D02*
G01*
X154910484Y-124952790D01*
X154945746Y-124962635D01*
X154977762Y-124944596D01*
X154985912Y-124924920D01*
X154987499Y-124923702D01*
X154989347Y-124924467D01*
X154989748Y-124925901D01*
X154981300Y-125003666D01*
X154981300Y-127218334D01*
X154989910Y-127297586D01*
X154989103Y-127299416D01*
X154987115Y-127299632D01*
X154986180Y-127298784D01*
X154969516Y-127269210D01*
X154934254Y-127259365D01*
X154902238Y-127277404D01*
X154894088Y-127297080D01*
X154892501Y-127298298D01*
X154890653Y-127297533D01*
X154890252Y-127296099D01*
X154898700Y-127218334D01*
X154898700Y-125003666D01*
X154890090Y-124924414D01*
X154890897Y-124922584D01*
X154892885Y-124922368D01*
X154893820Y-124923216D01*
G37*
G36*
X126953820Y-124923216D02*
G01*
X126970484Y-124952790D01*
X127005746Y-124962635D01*
X127037762Y-124944596D01*
X127045912Y-124924920D01*
X127047499Y-124923702D01*
X127049347Y-124924467D01*
X127049748Y-124925901D01*
X127041300Y-125003666D01*
X127041300Y-127218334D01*
X127049910Y-127297586D01*
X127049103Y-127299416D01*
X127047115Y-127299632D01*
X127046180Y-127298784D01*
X127029516Y-127269210D01*
X126994254Y-127259365D01*
X126962238Y-127277404D01*
X126954088Y-127297080D01*
X126952501Y-127298298D01*
X126950653Y-127297533D01*
X126950252Y-127296099D01*
X126958700Y-127218334D01*
X126958700Y-125003666D01*
X126950090Y-124924414D01*
X126950897Y-124922584D01*
X126952885Y-124922368D01*
X126953820Y-124923216D01*
G37*
G36*
X156163820Y-124923216D02*
G01*
X156180484Y-124952790D01*
X156215746Y-124962635D01*
X156247762Y-124944596D01*
X156255912Y-124924920D01*
X156257499Y-124923702D01*
X156259347Y-124924467D01*
X156259748Y-124925901D01*
X156251300Y-125003666D01*
X156251300Y-127218334D01*
X156259910Y-127297586D01*
X156259103Y-127299416D01*
X156257115Y-127299632D01*
X156256180Y-127298784D01*
X156239516Y-127269210D01*
X156204254Y-127259365D01*
X156172238Y-127277404D01*
X156164088Y-127297080D01*
X156162501Y-127298298D01*
X156160653Y-127297533D01*
X156160252Y-127296099D01*
X156168700Y-127218334D01*
X156168700Y-125003666D01*
X156160090Y-124924414D01*
X156160897Y-124922584D01*
X156162885Y-124922368D01*
X156163820Y-124923216D01*
G37*
G36*
X102823820Y-124923216D02*
G01*
X102840484Y-124952790D01*
X102875746Y-124962635D01*
X102907762Y-124944596D01*
X102915912Y-124924920D01*
X102917499Y-124923702D01*
X102919347Y-124924467D01*
X102919748Y-124925901D01*
X102911300Y-125003666D01*
X102911300Y-127218334D01*
X102919910Y-127297586D01*
X102919103Y-127299416D01*
X102917115Y-127299632D01*
X102916180Y-127298784D01*
X102899516Y-127269210D01*
X102864254Y-127259365D01*
X102832238Y-127277404D01*
X102824088Y-127297080D01*
X102822501Y-127298298D01*
X102820653Y-127297533D01*
X102820252Y-127296099D01*
X102828700Y-127218334D01*
X102828700Y-125003666D01*
X102820090Y-124924414D01*
X102820897Y-124922584D01*
X102822885Y-124922368D01*
X102823820Y-124923216D01*
G37*
G36*
X138383820Y-124923216D02*
G01*
X138400484Y-124952790D01*
X138435746Y-124962635D01*
X138467762Y-124944596D01*
X138475912Y-124924920D01*
X138477499Y-124923702D01*
X138479347Y-124924467D01*
X138479748Y-124925901D01*
X138471300Y-125003666D01*
X138471300Y-127218334D01*
X138479910Y-127297586D01*
X138479103Y-127299416D01*
X138477115Y-127299632D01*
X138476180Y-127298784D01*
X138459516Y-127269210D01*
X138424254Y-127259365D01*
X138392238Y-127277404D01*
X138384088Y-127297080D01*
X138382501Y-127298298D01*
X138380653Y-127297533D01*
X138380252Y-127296099D01*
X138388700Y-127218334D01*
X138388700Y-125003666D01*
X138380090Y-124924414D01*
X138380897Y-124922584D01*
X138382885Y-124922368D01*
X138383820Y-124923216D01*
G37*
G36*
X134573820Y-124923216D02*
G01*
X134590484Y-124952790D01*
X134625746Y-124962635D01*
X134657762Y-124944596D01*
X134665912Y-124924920D01*
X134667499Y-124923702D01*
X134669347Y-124924467D01*
X134669748Y-124925901D01*
X134661300Y-125003666D01*
X134661300Y-127218334D01*
X134669910Y-127297586D01*
X134669103Y-127299416D01*
X134667115Y-127299632D01*
X134666180Y-127298784D01*
X134649516Y-127269210D01*
X134614254Y-127259365D01*
X134582238Y-127277404D01*
X134574088Y-127297080D01*
X134572501Y-127298298D01*
X134570653Y-127297533D01*
X134570252Y-127296099D01*
X134578700Y-127218334D01*
X134578700Y-125003666D01*
X134570090Y-124924414D01*
X134570897Y-124922584D01*
X134572885Y-124922368D01*
X134573820Y-124923216D01*
G37*
G36*
X86313820Y-124923216D02*
G01*
X86330484Y-124952790D01*
X86365746Y-124962635D01*
X86397762Y-124944596D01*
X86405912Y-124924920D01*
X86407499Y-124923702D01*
X86409347Y-124924467D01*
X86409748Y-124925901D01*
X86401300Y-125003666D01*
X86401300Y-127218334D01*
X86409910Y-127297586D01*
X86409103Y-127299416D01*
X86407115Y-127299632D01*
X86406180Y-127298784D01*
X86389516Y-127269210D01*
X86354254Y-127259365D01*
X86322238Y-127277404D01*
X86314088Y-127297080D01*
X86312501Y-127298298D01*
X86310653Y-127297533D01*
X86310252Y-127296099D01*
X86318700Y-127218334D01*
X86318700Y-125003666D01*
X86310090Y-124924414D01*
X86310897Y-124922584D01*
X86312885Y-124922368D01*
X86313820Y-124923216D01*
G37*
G36*
X114253820Y-124923216D02*
G01*
X114270484Y-124952790D01*
X114305746Y-124962635D01*
X114337762Y-124944596D01*
X114345912Y-124924920D01*
X114347499Y-124923702D01*
X114349347Y-124924467D01*
X114349748Y-124925901D01*
X114341300Y-125003666D01*
X114341300Y-127218334D01*
X114349910Y-127297586D01*
X114349103Y-127299416D01*
X114347115Y-127299632D01*
X114346180Y-127298784D01*
X114329516Y-127269210D01*
X114294254Y-127259365D01*
X114262238Y-127277404D01*
X114254088Y-127297080D01*
X114252501Y-127298298D01*
X114250653Y-127297533D01*
X114250252Y-127296099D01*
X114258700Y-127218334D01*
X114258700Y-125003666D01*
X114250090Y-124924414D01*
X114250897Y-124922584D01*
X114252885Y-124922368D01*
X114253820Y-124923216D01*
G37*
G36*
X135843820Y-124923216D02*
G01*
X135860484Y-124952790D01*
X135895746Y-124962635D01*
X135927762Y-124944596D01*
X135935912Y-124924920D01*
X135937499Y-124923702D01*
X135939347Y-124924467D01*
X135939748Y-124925901D01*
X135931300Y-125003666D01*
X135931300Y-127218334D01*
X135939910Y-127297586D01*
X135939103Y-127299416D01*
X135937115Y-127299632D01*
X135936180Y-127298784D01*
X135919516Y-127269210D01*
X135884254Y-127259365D01*
X135852238Y-127277404D01*
X135844088Y-127297080D01*
X135842501Y-127298298D01*
X135840653Y-127297533D01*
X135840252Y-127296099D01*
X135848700Y-127218334D01*
X135848700Y-125003666D01*
X135840090Y-124924414D01*
X135840897Y-124922584D01*
X135842885Y-124922368D01*
X135843820Y-124923216D01*
G37*
G36*
X83773820Y-124923216D02*
G01*
X83790484Y-124952790D01*
X83825746Y-124962635D01*
X83857762Y-124944596D01*
X83865912Y-124924920D01*
X83867499Y-124923702D01*
X83869347Y-124924467D01*
X83869748Y-124925901D01*
X83861300Y-125003666D01*
X83861300Y-127218334D01*
X83869910Y-127297586D01*
X83869103Y-127299416D01*
X83867115Y-127299632D01*
X83866180Y-127298784D01*
X83849516Y-127269210D01*
X83814254Y-127259365D01*
X83782238Y-127277404D01*
X83774088Y-127297080D01*
X83772501Y-127298298D01*
X83770653Y-127297533D01*
X83770252Y-127296099D01*
X83778700Y-127218334D01*
X83778700Y-125003666D01*
X83770090Y-124924414D01*
X83770897Y-124922584D01*
X83772885Y-124922368D01*
X83773820Y-124923216D01*
G37*
G36*
X101553820Y-124923216D02*
G01*
X101570484Y-124952790D01*
X101605746Y-124962635D01*
X101637762Y-124944596D01*
X101645912Y-124924920D01*
X101647499Y-124923702D01*
X101649347Y-124924467D01*
X101649748Y-124925901D01*
X101641300Y-125003666D01*
X101641300Y-127218334D01*
X101649910Y-127297586D01*
X101649103Y-127299416D01*
X101647115Y-127299632D01*
X101646180Y-127298784D01*
X101629516Y-127269210D01*
X101594254Y-127259365D01*
X101562238Y-127277404D01*
X101554088Y-127297080D01*
X101552501Y-127298298D01*
X101550653Y-127297533D01*
X101550252Y-127296099D01*
X101558700Y-127218334D01*
X101558700Y-125003666D01*
X101550090Y-124924414D01*
X101550897Y-124922584D01*
X101552885Y-124922368D01*
X101553820Y-124923216D01*
G37*
G36*
X109173820Y-124923216D02*
G01*
X109190484Y-124952790D01*
X109225746Y-124962635D01*
X109257762Y-124944596D01*
X109265912Y-124924920D01*
X109267499Y-124923702D01*
X109269347Y-124924467D01*
X109269748Y-124925901D01*
X109261300Y-125003666D01*
X109261300Y-127218334D01*
X109269910Y-127297586D01*
X109269103Y-127299416D01*
X109267115Y-127299632D01*
X109266180Y-127298784D01*
X109249516Y-127269210D01*
X109214254Y-127259365D01*
X109182238Y-127277404D01*
X109174088Y-127297080D01*
X109172501Y-127298298D01*
X109170653Y-127297533D01*
X109170252Y-127296099D01*
X109178700Y-127218334D01*
X109178700Y-125003666D01*
X109170090Y-124924414D01*
X109170897Y-124922584D01*
X109172885Y-124922368D01*
X109173820Y-124923216D01*
G37*
G36*
X124413820Y-124923216D02*
G01*
X124430484Y-124952790D01*
X124465746Y-124962635D01*
X124497762Y-124944596D01*
X124505912Y-124924920D01*
X124507499Y-124923702D01*
X124509347Y-124924467D01*
X124509748Y-124925901D01*
X124501300Y-125003666D01*
X124501300Y-127218334D01*
X124509910Y-127297586D01*
X124509103Y-127299416D01*
X124507115Y-127299632D01*
X124506180Y-127298784D01*
X124489516Y-127269210D01*
X124454254Y-127259365D01*
X124422238Y-127277404D01*
X124414088Y-127297080D01*
X124412501Y-127298298D01*
X124410653Y-127297533D01*
X124410252Y-127296099D01*
X124418700Y-127218334D01*
X124418700Y-125003666D01*
X124410090Y-124924414D01*
X124410897Y-124922584D01*
X124412885Y-124922368D01*
X124413820Y-124923216D01*
G37*
G36*
X153623820Y-124923216D02*
G01*
X153640484Y-124952790D01*
X153675746Y-124962635D01*
X153707762Y-124944596D01*
X153715912Y-124924920D01*
X153717499Y-124923702D01*
X153719347Y-124924467D01*
X153719748Y-124925901D01*
X153711300Y-125003666D01*
X153711300Y-127218334D01*
X153719910Y-127297586D01*
X153719103Y-127299416D01*
X153717115Y-127299632D01*
X153716180Y-127298784D01*
X153699516Y-127269210D01*
X153664254Y-127259365D01*
X153632238Y-127277404D01*
X153624088Y-127297080D01*
X153622501Y-127298298D01*
X153620653Y-127297533D01*
X153620252Y-127296099D01*
X153628700Y-127218334D01*
X153628700Y-125003666D01*
X153620090Y-124924414D01*
X153620897Y-124922584D01*
X153622885Y-124922368D01*
X153623820Y-124923216D01*
G37*
G36*
X128223820Y-124923216D02*
G01*
X128240484Y-124952790D01*
X128275746Y-124962635D01*
X128307762Y-124944596D01*
X128315912Y-124924920D01*
X128317499Y-124923702D01*
X128319347Y-124924467D01*
X128319748Y-124925901D01*
X128311300Y-125003666D01*
X128311300Y-127218334D01*
X128319910Y-127297586D01*
X128319103Y-127299416D01*
X128317115Y-127299632D01*
X128316180Y-127298784D01*
X128299516Y-127269210D01*
X128264254Y-127259365D01*
X128232238Y-127277404D01*
X128224088Y-127297080D01*
X128222501Y-127298298D01*
X128220653Y-127297533D01*
X128220252Y-127296099D01*
X128228700Y-127218334D01*
X128228700Y-125003666D01*
X128220090Y-124924414D01*
X128220897Y-124922584D01*
X128222885Y-124922368D01*
X128223820Y-124923216D01*
G37*
G36*
X144733820Y-124923216D02*
G01*
X144750484Y-124952790D01*
X144785746Y-124962635D01*
X144817762Y-124944596D01*
X144825912Y-124924920D01*
X144827499Y-124923702D01*
X144829347Y-124924467D01*
X144829748Y-124925901D01*
X144821300Y-125003666D01*
X144821300Y-127218334D01*
X144829910Y-127297586D01*
X144829103Y-127299416D01*
X144827115Y-127299632D01*
X144826180Y-127298784D01*
X144809516Y-127269210D01*
X144774254Y-127259365D01*
X144742238Y-127277404D01*
X144734088Y-127297080D01*
X144732501Y-127298298D01*
X144730653Y-127297533D01*
X144730252Y-127296099D01*
X144738700Y-127218334D01*
X144738700Y-125003666D01*
X144730090Y-124924414D01*
X144730897Y-124922584D01*
X144732885Y-124922368D01*
X144733820Y-124923216D01*
G37*
G36*
X139653820Y-124923216D02*
G01*
X139670484Y-124952790D01*
X139705746Y-124962635D01*
X139737762Y-124944596D01*
X139745912Y-124924920D01*
X139747499Y-124923702D01*
X139749347Y-124924467D01*
X139749748Y-124925901D01*
X139741300Y-125003666D01*
X139741300Y-127218334D01*
X139749910Y-127297586D01*
X139749103Y-127299416D01*
X139747115Y-127299632D01*
X139746180Y-127298784D01*
X139729516Y-127269210D01*
X139694254Y-127259365D01*
X139662238Y-127277404D01*
X139654088Y-127297080D01*
X139652501Y-127298298D01*
X139650653Y-127297533D01*
X139650252Y-127296099D01*
X139658700Y-127218334D01*
X139658700Y-125003666D01*
X139650090Y-124924414D01*
X139650897Y-124922584D01*
X139652885Y-124922368D01*
X139653820Y-124923216D01*
G37*
G36*
X111713820Y-124923216D02*
G01*
X111730484Y-124952790D01*
X111765746Y-124962635D01*
X111797762Y-124944596D01*
X111805912Y-124924920D01*
X111807499Y-124923702D01*
X111809347Y-124924467D01*
X111809748Y-124925901D01*
X111801300Y-125003666D01*
X111801300Y-127218334D01*
X111809910Y-127297586D01*
X111809103Y-127299416D01*
X111807115Y-127299632D01*
X111806180Y-127298784D01*
X111789516Y-127269210D01*
X111754254Y-127259365D01*
X111722238Y-127277404D01*
X111714088Y-127297080D01*
X111712501Y-127298298D01*
X111710653Y-127297533D01*
X111710252Y-127296099D01*
X111718700Y-127218334D01*
X111718700Y-125003666D01*
X111710090Y-124924414D01*
X111710897Y-124922584D01*
X111712885Y-124922368D01*
X111713820Y-124923216D01*
G37*
G36*
X96473820Y-124923216D02*
G01*
X96490484Y-124952790D01*
X96525746Y-124962635D01*
X96557762Y-124944596D01*
X96565912Y-124924920D01*
X96567499Y-124923702D01*
X96569347Y-124924467D01*
X96569748Y-124925901D01*
X96561300Y-125003666D01*
X96561300Y-127218334D01*
X96569910Y-127297586D01*
X96569103Y-127299416D01*
X96567115Y-127299632D01*
X96566180Y-127298784D01*
X96549516Y-127269210D01*
X96514254Y-127259365D01*
X96482238Y-127277404D01*
X96474088Y-127297080D01*
X96472501Y-127298298D01*
X96470653Y-127297533D01*
X96470252Y-127296099D01*
X96478700Y-127218334D01*
X96478700Y-125003666D01*
X96470090Y-124924414D01*
X96470897Y-124922584D01*
X96472885Y-124922368D01*
X96473820Y-124923216D01*
G37*
G36*
X161243820Y-124923216D02*
G01*
X161260484Y-124952790D01*
X161295746Y-124962635D01*
X161327762Y-124944596D01*
X161335912Y-124924920D01*
X161337499Y-124923702D01*
X161339347Y-124924467D01*
X161339748Y-124925901D01*
X161331300Y-125003666D01*
X161331300Y-127218334D01*
X161339910Y-127297586D01*
X161339103Y-127299416D01*
X161337115Y-127299632D01*
X161336180Y-127298784D01*
X161319516Y-127269210D01*
X161284254Y-127259365D01*
X161252238Y-127277404D01*
X161244088Y-127297080D01*
X161242501Y-127298298D01*
X161240653Y-127297533D01*
X161240252Y-127296099D01*
X161248700Y-127218334D01*
X161248700Y-125003666D01*
X161240090Y-124924414D01*
X161240897Y-124922584D01*
X161242885Y-124922368D01*
X161243820Y-124923216D01*
G37*
G36*
X106633820Y-124923216D02*
G01*
X106650484Y-124952790D01*
X106685746Y-124962635D01*
X106717762Y-124944596D01*
X106725912Y-124924920D01*
X106727499Y-124923702D01*
X106729347Y-124924467D01*
X106729748Y-124925901D01*
X106721300Y-125003666D01*
X106721300Y-127218334D01*
X106729910Y-127297586D01*
X106729103Y-127299416D01*
X106727115Y-127299632D01*
X106726180Y-127298784D01*
X106709516Y-127269210D01*
X106674254Y-127259365D01*
X106642238Y-127277404D01*
X106634088Y-127297080D01*
X106632501Y-127298298D01*
X106630653Y-127297533D01*
X106630252Y-127296099D01*
X106638700Y-127218334D01*
X106638700Y-125003666D01*
X106630090Y-124924414D01*
X106630897Y-124922584D01*
X106632885Y-124922368D01*
X106633820Y-124923216D01*
G37*
G36*
X151083820Y-124923216D02*
G01*
X151100484Y-124952790D01*
X151135746Y-124962635D01*
X151167762Y-124944596D01*
X151175912Y-124924920D01*
X151177499Y-124923702D01*
X151179347Y-124924467D01*
X151179748Y-124925901D01*
X151171300Y-125003666D01*
X151171300Y-127218334D01*
X151179910Y-127297586D01*
X151179103Y-127299416D01*
X151177115Y-127299632D01*
X151176180Y-127298784D01*
X151159516Y-127269210D01*
X151124254Y-127259365D01*
X151092238Y-127277404D01*
X151084088Y-127297080D01*
X151082501Y-127298298D01*
X151080653Y-127297533D01*
X151080252Y-127296099D01*
X151088700Y-127218334D01*
X151088700Y-125003666D01*
X151080090Y-124924414D01*
X151080897Y-124922584D01*
X151082885Y-124922368D01*
X151083820Y-124923216D01*
G37*
G36*
X100283820Y-124923216D02*
G01*
X100300484Y-124952790D01*
X100335746Y-124962635D01*
X100367762Y-124944596D01*
X100375912Y-124924920D01*
X100377499Y-124923702D01*
X100379347Y-124924467D01*
X100379748Y-124925901D01*
X100371300Y-125003666D01*
X100371300Y-127218334D01*
X100379910Y-127297586D01*
X100379103Y-127299416D01*
X100377115Y-127299632D01*
X100376180Y-127298784D01*
X100359516Y-127269210D01*
X100324254Y-127259365D01*
X100292238Y-127277404D01*
X100284088Y-127297080D01*
X100282501Y-127298298D01*
X100280653Y-127297533D01*
X100280252Y-127296099D01*
X100288700Y-127218334D01*
X100288700Y-125003666D01*
X100280090Y-124924414D01*
X100280897Y-124922584D01*
X100282885Y-124922368D01*
X100283820Y-124923216D01*
G37*
G36*
X82503820Y-124923216D02*
G01*
X82520484Y-124952790D01*
X82555746Y-124962635D01*
X82587762Y-124944596D01*
X82595912Y-124924920D01*
X82597499Y-124923702D01*
X82599347Y-124924467D01*
X82599748Y-124925901D01*
X82591300Y-125003666D01*
X82591300Y-127218334D01*
X82599910Y-127297586D01*
X82599103Y-127299416D01*
X82597115Y-127299632D01*
X82596180Y-127298784D01*
X82579516Y-127269210D01*
X82544254Y-127259365D01*
X82512238Y-127277404D01*
X82504088Y-127297080D01*
X82502501Y-127298298D01*
X82500653Y-127297533D01*
X82500252Y-127296099D01*
X82508700Y-127218334D01*
X82508700Y-125003666D01*
X82500090Y-124924414D01*
X82500897Y-124922584D01*
X82502885Y-124922368D01*
X82503820Y-124923216D01*
G37*
G36*
X115523820Y-124923216D02*
G01*
X115540484Y-124952790D01*
X115575746Y-124962635D01*
X115607762Y-124944596D01*
X115615912Y-124924920D01*
X115617499Y-124923702D01*
X115619347Y-124924467D01*
X115619748Y-124925901D01*
X115611300Y-125003666D01*
X115611300Y-127218334D01*
X115619910Y-127297586D01*
X115619103Y-127299416D01*
X115617115Y-127299632D01*
X115616180Y-127298784D01*
X115599516Y-127269210D01*
X115564254Y-127259365D01*
X115532238Y-127277404D01*
X115524088Y-127297080D01*
X115522501Y-127298298D01*
X115520653Y-127297533D01*
X115520252Y-127296099D01*
X115528700Y-127218334D01*
X115528700Y-125003666D01*
X115520090Y-124924414D01*
X115520897Y-124922584D01*
X115522885Y-124922368D01*
X115523820Y-124923216D01*
G37*
G36*
X87583820Y-124923216D02*
G01*
X87600484Y-124952790D01*
X87635746Y-124962635D01*
X87667762Y-124944596D01*
X87675912Y-124924920D01*
X87677499Y-124923702D01*
X87679347Y-124924467D01*
X87679748Y-124925901D01*
X87671300Y-125003666D01*
X87671300Y-127218334D01*
X87679910Y-127297586D01*
X87679103Y-127299416D01*
X87677115Y-127299632D01*
X87676180Y-127298784D01*
X87659516Y-127269210D01*
X87624254Y-127259365D01*
X87592238Y-127277404D01*
X87584088Y-127297080D01*
X87582501Y-127298298D01*
X87580653Y-127297533D01*
X87580252Y-127296099D01*
X87588700Y-127218334D01*
X87588700Y-125003666D01*
X87580090Y-124924414D01*
X87580897Y-124922584D01*
X87582885Y-124922368D01*
X87583820Y-124923216D01*
G37*
G36*
X159973820Y-124923216D02*
G01*
X159990484Y-124952790D01*
X160025746Y-124962635D01*
X160057762Y-124944596D01*
X160065912Y-124924920D01*
X160067499Y-124923702D01*
X160069347Y-124924467D01*
X160069748Y-124925901D01*
X160061300Y-125003666D01*
X160061300Y-127218334D01*
X160069910Y-127297586D01*
X160069103Y-127299416D01*
X160067115Y-127299632D01*
X160066180Y-127298784D01*
X160049516Y-127269210D01*
X160014254Y-127259365D01*
X159982238Y-127277404D01*
X159974088Y-127297080D01*
X159972501Y-127298298D01*
X159970653Y-127297533D01*
X159970252Y-127296099D01*
X159978700Y-127218334D01*
X159978700Y-125003666D01*
X159970090Y-124924414D01*
X159970897Y-124922584D01*
X159972885Y-124922368D01*
X159973820Y-124923216D01*
G37*
G36*
X78693820Y-124923216D02*
G01*
X78710484Y-124952790D01*
X78745746Y-124962635D01*
X78777762Y-124944596D01*
X78785912Y-124924920D01*
X78787499Y-124923702D01*
X78789347Y-124924467D01*
X78789748Y-124925901D01*
X78781300Y-125003666D01*
X78781300Y-127218334D01*
X78789910Y-127297586D01*
X78789103Y-127299416D01*
X78787115Y-127299632D01*
X78786180Y-127298784D01*
X78769516Y-127269210D01*
X78734254Y-127259365D01*
X78702238Y-127277404D01*
X78694088Y-127297080D01*
X78692501Y-127298298D01*
X78690653Y-127297533D01*
X78690252Y-127296099D01*
X78698700Y-127218334D01*
X78698700Y-125003666D01*
X78690090Y-124924414D01*
X78690897Y-124922584D01*
X78692885Y-124922368D01*
X78693820Y-124923216D01*
G37*
G36*
X140923820Y-124923216D02*
G01*
X140940484Y-124952790D01*
X140975746Y-124962635D01*
X141007762Y-124944596D01*
X141015912Y-124924920D01*
X141017499Y-124923702D01*
X141019347Y-124924467D01*
X141019748Y-124925901D01*
X141011300Y-125003666D01*
X141011300Y-127218334D01*
X141019910Y-127297586D01*
X141019103Y-127299416D01*
X141017115Y-127299632D01*
X141016180Y-127298784D01*
X140999516Y-127269210D01*
X140964254Y-127259365D01*
X140932238Y-127277404D01*
X140924088Y-127297080D01*
X140922501Y-127298298D01*
X140920653Y-127297533D01*
X140920252Y-127296099D01*
X140928700Y-127218334D01*
X140928700Y-125003666D01*
X140920090Y-124924414D01*
X140920897Y-124922584D01*
X140922885Y-124922368D01*
X140923820Y-124923216D01*
G37*
G36*
X132033820Y-124923216D02*
G01*
X132050484Y-124952790D01*
X132085746Y-124962635D01*
X132117762Y-124944596D01*
X132125912Y-124924920D01*
X132127499Y-124923702D01*
X132129347Y-124924467D01*
X132129748Y-124925901D01*
X132121300Y-125003666D01*
X132121300Y-127218334D01*
X132129910Y-127297586D01*
X132129103Y-127299416D01*
X132127115Y-127299632D01*
X132126180Y-127298784D01*
X132109516Y-127269210D01*
X132074254Y-127259365D01*
X132042238Y-127277404D01*
X132034088Y-127297080D01*
X132032501Y-127298298D01*
X132030653Y-127297533D01*
X132030252Y-127296099D01*
X132038700Y-127218334D01*
X132038700Y-125003666D01*
X132030090Y-124924414D01*
X132030897Y-124922584D01*
X132032885Y-124922368D01*
X132033820Y-124923216D01*
G37*
G36*
X143463820Y-124923216D02*
G01*
X143480484Y-124952790D01*
X143515746Y-124962635D01*
X143547762Y-124944596D01*
X143555912Y-124924920D01*
X143557499Y-124923702D01*
X143559347Y-124924467D01*
X143559748Y-124925901D01*
X143551300Y-125003666D01*
X143551300Y-127218334D01*
X143559910Y-127297586D01*
X143559103Y-127299416D01*
X143557115Y-127299632D01*
X143556180Y-127298784D01*
X143539516Y-127269210D01*
X143504254Y-127259365D01*
X143472238Y-127277404D01*
X143464088Y-127297080D01*
X143462501Y-127298298D01*
X143460653Y-127297533D01*
X143460252Y-127296099D01*
X143468700Y-127218334D01*
X143468700Y-125003666D01*
X143460090Y-124924414D01*
X143460897Y-124922584D01*
X143462885Y-124922368D01*
X143463820Y-124923216D01*
G37*
G36*
X125683820Y-124923216D02*
G01*
X125700484Y-124952790D01*
X125735746Y-124962635D01*
X125767762Y-124944596D01*
X125775912Y-124924920D01*
X125777499Y-124923702D01*
X125779347Y-124924467D01*
X125779748Y-124925901D01*
X125771300Y-125003666D01*
X125771300Y-127218334D01*
X125779910Y-127297586D01*
X125779103Y-127299416D01*
X125777115Y-127299632D01*
X125776180Y-127298784D01*
X125759516Y-127269210D01*
X125724254Y-127259365D01*
X125692238Y-127277404D01*
X125684088Y-127297080D01*
X125682501Y-127298298D01*
X125680653Y-127297533D01*
X125680252Y-127296099D01*
X125688700Y-127218334D01*
X125688700Y-125003666D01*
X125680090Y-124924414D01*
X125680897Y-124922584D01*
X125682885Y-124922368D01*
X125683820Y-124923216D01*
G37*
G36*
X133303820Y-124923216D02*
G01*
X133320484Y-124952790D01*
X133355746Y-124962635D01*
X133387762Y-124944596D01*
X133395912Y-124924920D01*
X133397499Y-124923702D01*
X133399347Y-124924467D01*
X133399748Y-124925901D01*
X133391300Y-125003666D01*
X133391300Y-127218334D01*
X133399910Y-127297586D01*
X133399103Y-127299416D01*
X133397115Y-127299632D01*
X133396180Y-127298784D01*
X133379516Y-127269210D01*
X133344254Y-127259365D01*
X133312238Y-127277404D01*
X133304088Y-127297080D01*
X133302501Y-127298298D01*
X133300653Y-127297533D01*
X133300252Y-127296099D01*
X133308700Y-127218334D01*
X133308700Y-125003666D01*
X133300090Y-124924414D01*
X133300897Y-124922584D01*
X133302885Y-124922368D01*
X133303820Y-124923216D01*
G37*
G36*
X88853820Y-124923216D02*
G01*
X88870484Y-124952790D01*
X88905746Y-124962635D01*
X88937762Y-124944596D01*
X88945912Y-124924920D01*
X88947499Y-124923702D01*
X88949347Y-124924467D01*
X88949748Y-124925901D01*
X88941300Y-125003666D01*
X88941300Y-127218334D01*
X88949910Y-127297586D01*
X88949103Y-127299416D01*
X88947115Y-127299632D01*
X88946180Y-127298784D01*
X88929516Y-127269210D01*
X88894254Y-127259365D01*
X88862238Y-127277404D01*
X88854088Y-127297080D01*
X88852501Y-127298298D01*
X88850653Y-127297533D01*
X88850252Y-127296099D01*
X88858700Y-127218334D01*
X88858700Y-125003666D01*
X88850090Y-124924414D01*
X88850897Y-124922584D01*
X88852885Y-124922368D01*
X88853820Y-124923216D01*
G37*
G36*
X99013820Y-124923216D02*
G01*
X99030484Y-124952790D01*
X99065746Y-124962635D01*
X99097762Y-124944596D01*
X99105912Y-124924920D01*
X99107499Y-124923702D01*
X99109347Y-124924467D01*
X99109748Y-124925901D01*
X99101300Y-125003666D01*
X99101300Y-127218334D01*
X99109910Y-127297586D01*
X99109103Y-127299416D01*
X99107115Y-127299632D01*
X99106180Y-127298784D01*
X99089516Y-127269210D01*
X99054254Y-127259365D01*
X99022238Y-127277404D01*
X99014088Y-127297080D01*
X99012501Y-127298298D01*
X99010653Y-127297533D01*
X99010252Y-127296099D01*
X99018700Y-127218334D01*
X99018700Y-125003666D01*
X99010090Y-124924414D01*
X99010897Y-124922584D01*
X99012885Y-124922368D01*
X99013820Y-124923216D01*
G37*
G36*
X107903820Y-124923216D02*
G01*
X107920484Y-124952790D01*
X107955746Y-124962635D01*
X107987762Y-124944596D01*
X107995912Y-124924920D01*
X107997499Y-124923702D01*
X107999347Y-124924467D01*
X107999748Y-124925901D01*
X107991300Y-125003666D01*
X107991300Y-127218334D01*
X107999910Y-127297586D01*
X107999103Y-127299416D01*
X107997115Y-127299632D01*
X107996180Y-127298784D01*
X107979516Y-127269210D01*
X107944254Y-127259365D01*
X107912238Y-127277404D01*
X107904088Y-127297080D01*
X107902501Y-127298298D01*
X107900653Y-127297533D01*
X107900252Y-127296099D01*
X107908700Y-127218334D01*
X107908700Y-125003666D01*
X107900090Y-124924414D01*
X107900897Y-124922584D01*
X107902885Y-124922368D01*
X107903820Y-124923216D01*
G37*
G36*
X97743820Y-124923216D02*
G01*
X97760484Y-124952790D01*
X97795746Y-124962635D01*
X97827762Y-124944596D01*
X97835912Y-124924920D01*
X97837499Y-124923702D01*
X97839347Y-124924467D01*
X97839748Y-124925901D01*
X97831300Y-125003666D01*
X97831300Y-127218334D01*
X97839910Y-127297586D01*
X97839103Y-127299416D01*
X97837115Y-127299632D01*
X97836180Y-127298784D01*
X97819516Y-127269210D01*
X97784254Y-127259365D01*
X97752238Y-127277404D01*
X97744088Y-127297080D01*
X97742501Y-127298298D01*
X97740653Y-127297533D01*
X97740252Y-127296099D01*
X97748700Y-127218334D01*
X97748700Y-125003666D01*
X97740090Y-124924414D01*
X97740897Y-124922584D01*
X97742885Y-124922368D01*
X97743820Y-124923216D01*
G37*
G36*
X152353820Y-124923216D02*
G01*
X152370484Y-124952790D01*
X152405746Y-124962635D01*
X152437762Y-124944596D01*
X152445912Y-124924920D01*
X152447499Y-124923702D01*
X152449347Y-124924467D01*
X152449748Y-124925901D01*
X152441300Y-125003666D01*
X152441300Y-127218334D01*
X152449910Y-127297586D01*
X152449103Y-127299416D01*
X152447115Y-127299632D01*
X152446180Y-127298784D01*
X152429516Y-127269210D01*
X152394254Y-127259365D01*
X152362238Y-127277404D01*
X152354088Y-127297080D01*
X152352501Y-127298298D01*
X152350653Y-127297533D01*
X152350252Y-127296099D01*
X152358700Y-127218334D01*
X152358700Y-125003666D01*
X152350090Y-124924414D01*
X152350897Y-124922584D01*
X152352885Y-124922368D01*
X152353820Y-124923216D01*
G37*
G36*
X157433820Y-124923216D02*
G01*
X157450484Y-124952790D01*
X157485746Y-124962635D01*
X157517762Y-124944596D01*
X157525912Y-124924920D01*
X157527499Y-124923702D01*
X157529347Y-124924467D01*
X157529748Y-124925901D01*
X157521300Y-125003666D01*
X157521300Y-127218334D01*
X157529910Y-127297586D01*
X157529103Y-127299416D01*
X157527115Y-127299632D01*
X157526180Y-127298784D01*
X157509516Y-127269210D01*
X157474254Y-127259365D01*
X157442238Y-127277404D01*
X157434088Y-127297080D01*
X157432501Y-127298298D01*
X157430653Y-127297533D01*
X157430252Y-127296099D01*
X157438700Y-127218334D01*
X157438700Y-125003666D01*
X157430090Y-124924414D01*
X157430897Y-124922584D01*
X157432885Y-124922368D01*
X157433820Y-124923216D01*
G37*
G36*
X142193820Y-124923216D02*
G01*
X142210484Y-124952790D01*
X142245746Y-124962635D01*
X142277762Y-124944596D01*
X142285912Y-124924920D01*
X142287499Y-124923702D01*
X142289347Y-124924467D01*
X142289748Y-124925901D01*
X142281300Y-125003666D01*
X142281300Y-127218334D01*
X142289910Y-127297586D01*
X142289103Y-127299416D01*
X142287115Y-127299632D01*
X142286180Y-127298784D01*
X142269516Y-127269210D01*
X142234254Y-127259365D01*
X142202238Y-127277404D01*
X142194088Y-127297080D01*
X142192501Y-127298298D01*
X142190653Y-127297533D01*
X142190252Y-127296099D01*
X142198700Y-127218334D01*
X142198700Y-125003666D01*
X142190090Y-124924414D01*
X142190897Y-124922584D01*
X142192885Y-124922368D01*
X142193820Y-124923216D01*
G37*
M02*
