G04 #@! TF.GenerationSoftware,KiCad,Pcbnew,(5.1.5-0-10_14)*
G04 #@! TF.CreationDate,2020-05-16T14:03:33-04:00*
G04 #@! TF.ProjectId,ROMSIMM,524f4d53-494d-44d2-9e6b-696361645f70,rev?*
G04 #@! TF.SameCoordinates,Original*
G04 #@! TF.FileFunction,Legend,Bot*
G04 #@! TF.FilePolarity,Positive*
%FSLAX46Y46*%
G04 Gerber Fmt 4.6, Leading zero omitted, Abs format (unit mm)*
G04 Created by KiCad (PCBNEW (5.1.5-0-10_14)) date 2020-05-16 14:03:33*
%MOMM*%
%LPD*%
G04 APERTURE LIST*
%ADD10C,0.203200*%
%ADD11C,0.300000*%
%ADD12C,0.225000*%
%ADD13C,0.100000*%
%ADD14C,2.152400*%
G04 APERTURE END LIST*
D10*
X151749276Y-119569895D02*
X151749276Y-120227876D01*
X151710571Y-120305285D01*
X151671866Y-120343990D01*
X151594457Y-120382695D01*
X151439638Y-120382695D01*
X151362228Y-120343990D01*
X151323523Y-120305285D01*
X151284819Y-120227876D01*
X151284819Y-119569895D01*
X150549428Y-119840828D02*
X150549428Y-120382695D01*
X150742952Y-119531190D02*
X150936476Y-120111761D01*
X150433314Y-120111761D01*
X131429276Y-119569895D02*
X131429276Y-120227876D01*
X131390571Y-120305285D01*
X131351866Y-120343990D01*
X131274457Y-120382695D01*
X131119638Y-120382695D01*
X131042228Y-120343990D01*
X131003523Y-120305285D01*
X130964819Y-120227876D01*
X130964819Y-119569895D01*
X130655180Y-119569895D02*
X130152019Y-119569895D01*
X130422952Y-119879533D01*
X130306838Y-119879533D01*
X130229428Y-119918238D01*
X130190723Y-119956942D01*
X130152019Y-120034352D01*
X130152019Y-120227876D01*
X130190723Y-120305285D01*
X130229428Y-120343990D01*
X130306838Y-120382695D01*
X130539066Y-120382695D01*
X130616476Y-120343990D01*
X130655180Y-120305285D01*
X111109276Y-119569895D02*
X111109276Y-120227876D01*
X111070571Y-120305285D01*
X111031866Y-120343990D01*
X110954457Y-120382695D01*
X110799638Y-120382695D01*
X110722228Y-120343990D01*
X110683523Y-120305285D01*
X110644819Y-120227876D01*
X110644819Y-119569895D01*
X110296476Y-119647304D02*
X110257771Y-119608600D01*
X110180361Y-119569895D01*
X109986838Y-119569895D01*
X109909428Y-119608600D01*
X109870723Y-119647304D01*
X109832019Y-119724714D01*
X109832019Y-119802123D01*
X109870723Y-119918238D01*
X110335180Y-120382695D01*
X109832019Y-120382695D01*
X90789276Y-119569895D02*
X90789276Y-120227876D01*
X90750571Y-120305285D01*
X90711866Y-120343990D01*
X90634457Y-120382695D01*
X90479638Y-120382695D01*
X90402228Y-120343990D01*
X90363523Y-120305285D01*
X90324819Y-120227876D01*
X90324819Y-119569895D01*
X89512019Y-120382695D02*
X89976476Y-120382695D01*
X89744247Y-120382695D02*
X89744247Y-119569895D01*
X89821657Y-119686009D01*
X89899066Y-119763419D01*
X89976476Y-119802123D01*
D11*
X110018285Y-110163428D02*
X110526285Y-109437714D01*
X110889142Y-110163428D02*
X110889142Y-108639428D01*
X110308571Y-108639428D01*
X110163428Y-108712000D01*
X110090857Y-108784571D01*
X110018285Y-108929714D01*
X110018285Y-109147428D01*
X110090857Y-109292571D01*
X110163428Y-109365142D01*
X110308571Y-109437714D01*
X110889142Y-109437714D01*
X109074857Y-108639428D02*
X108784571Y-108639428D01*
X108639428Y-108712000D01*
X108494285Y-108857142D01*
X108421714Y-109147428D01*
X108421714Y-109655428D01*
X108494285Y-109945714D01*
X108639428Y-110090857D01*
X108784571Y-110163428D01*
X109074857Y-110163428D01*
X109220000Y-110090857D01*
X109365142Y-109945714D01*
X109437714Y-109655428D01*
X109437714Y-109147428D01*
X109365142Y-108857142D01*
X109220000Y-108712000D01*
X109074857Y-108639428D01*
X107768571Y-110163428D02*
X107768571Y-108639428D01*
X107260571Y-109728000D01*
X106752571Y-108639428D01*
X106752571Y-110163428D01*
X104938285Y-110090857D02*
X104720571Y-110163428D01*
X104357714Y-110163428D01*
X104212571Y-110090857D01*
X104140000Y-110018285D01*
X104067428Y-109873142D01*
X104067428Y-109728000D01*
X104140000Y-109582857D01*
X104212571Y-109510285D01*
X104357714Y-109437714D01*
X104648000Y-109365142D01*
X104793142Y-109292571D01*
X104865714Y-109220000D01*
X104938285Y-109074857D01*
X104938285Y-108929714D01*
X104865714Y-108784571D01*
X104793142Y-108712000D01*
X104648000Y-108639428D01*
X104285142Y-108639428D01*
X104067428Y-108712000D01*
X103414285Y-110163428D02*
X103414285Y-108639428D01*
X102688571Y-110163428D02*
X102688571Y-108639428D01*
X102180571Y-109728000D01*
X101672571Y-108639428D01*
X101672571Y-110163428D01*
X100946857Y-110163428D02*
X100946857Y-108639428D01*
X100438857Y-109728000D01*
X99930857Y-108639428D01*
X99930857Y-110163428D01*
D12*
X145542000Y-108331000D02*
X145687142Y-108258428D01*
X145904857Y-108258428D01*
X146122571Y-108331000D01*
X146267714Y-108476142D01*
X146340285Y-108621285D01*
X146412857Y-108911571D01*
X146412857Y-109129285D01*
X146340285Y-109419571D01*
X146267714Y-109564714D01*
X146122571Y-109709857D01*
X145904857Y-109782428D01*
X145759714Y-109782428D01*
X145542000Y-109709857D01*
X145469428Y-109637285D01*
X145469428Y-109129285D01*
X145759714Y-109129285D01*
X144163142Y-109782428D02*
X144163142Y-108984142D01*
X144235714Y-108839000D01*
X144380857Y-108766428D01*
X144671142Y-108766428D01*
X144816285Y-108839000D01*
X144163142Y-109709857D02*
X144308285Y-109782428D01*
X144671142Y-109782428D01*
X144816285Y-109709857D01*
X144888857Y-109564714D01*
X144888857Y-109419571D01*
X144816285Y-109274428D01*
X144671142Y-109201857D01*
X144308285Y-109201857D01*
X144163142Y-109129285D01*
X143437428Y-109782428D02*
X143437428Y-108766428D01*
X143437428Y-109056714D02*
X143364857Y-108911571D01*
X143292285Y-108839000D01*
X143147142Y-108766428D01*
X143002000Y-108766428D01*
X142494000Y-109782428D02*
X142494000Y-108766428D01*
X142494000Y-109056714D02*
X142421428Y-108911571D01*
X142348857Y-108839000D01*
X142203714Y-108766428D01*
X142058571Y-108766428D01*
X140970000Y-109709857D02*
X141115142Y-109782428D01*
X141405428Y-109782428D01*
X141550571Y-109709857D01*
X141623142Y-109564714D01*
X141623142Y-108984142D01*
X141550571Y-108839000D01*
X141405428Y-108766428D01*
X141115142Y-108766428D01*
X140970000Y-108839000D01*
X140897428Y-108984142D01*
X140897428Y-109129285D01*
X141623142Y-109274428D01*
X140462000Y-108766428D02*
X139881428Y-108766428D01*
X140244285Y-108258428D02*
X140244285Y-109564714D01*
X140171714Y-109709857D01*
X140026571Y-109782428D01*
X139881428Y-109782428D01*
X139591142Y-108766428D02*
X139010571Y-108766428D01*
X139373428Y-108258428D02*
X139373428Y-109564714D01*
X139300857Y-109709857D01*
X139155714Y-109782428D01*
X139010571Y-109782428D01*
X138430000Y-108258428D02*
X138430000Y-108331000D01*
X138502571Y-108476142D01*
X138575142Y-108548714D01*
X137849428Y-109709857D02*
X137704285Y-109782428D01*
X137414000Y-109782428D01*
X137268857Y-109709857D01*
X137196285Y-109564714D01*
X137196285Y-109492142D01*
X137268857Y-109347000D01*
X137414000Y-109274428D01*
X137631714Y-109274428D01*
X137776857Y-109201857D01*
X137849428Y-109056714D01*
X137849428Y-108984142D01*
X137776857Y-108839000D01*
X137631714Y-108766428D01*
X137414000Y-108766428D01*
X137268857Y-108839000D01*
X135527142Y-108258428D02*
X135164285Y-109782428D01*
X134874000Y-108693857D01*
X134583714Y-109782428D01*
X134220857Y-108258428D01*
X133422571Y-109782428D02*
X133567714Y-109709857D01*
X133640285Y-109637285D01*
X133712857Y-109492142D01*
X133712857Y-109056714D01*
X133640285Y-108911571D01*
X133567714Y-108839000D01*
X133422571Y-108766428D01*
X133204857Y-108766428D01*
X133059714Y-108839000D01*
X132987142Y-108911571D01*
X132914571Y-109056714D01*
X132914571Y-109492142D01*
X132987142Y-109637285D01*
X133059714Y-109709857D01*
X133204857Y-109782428D01*
X133422571Y-109782428D01*
X132261428Y-109782428D02*
X132261428Y-108766428D01*
X132261428Y-109056714D02*
X132188857Y-108911571D01*
X132116285Y-108839000D01*
X131971142Y-108766428D01*
X131826000Y-108766428D01*
X131318000Y-109782428D02*
X131318000Y-108258428D01*
X131172857Y-109201857D02*
X130737428Y-109782428D01*
X130737428Y-108766428D02*
X131318000Y-109347000D01*
X130156857Y-109709857D02*
X130011714Y-109782428D01*
X129721428Y-109782428D01*
X129576285Y-109709857D01*
X129503714Y-109564714D01*
X129503714Y-109492142D01*
X129576285Y-109347000D01*
X129721428Y-109274428D01*
X129939142Y-109274428D01*
X130084285Y-109201857D01*
X130156857Y-109056714D01*
X130156857Y-108984142D01*
X130084285Y-108839000D01*
X129939142Y-108766428D01*
X129721428Y-108766428D01*
X129576285Y-108839000D01*
X128850571Y-109782428D02*
X128850571Y-108258428D01*
X128197428Y-109782428D02*
X128197428Y-108984142D01*
X128270000Y-108839000D01*
X128415142Y-108766428D01*
X128632857Y-108766428D01*
X128778000Y-108839000D01*
X128850571Y-108911571D01*
X127254000Y-109782428D02*
X127399142Y-109709857D01*
X127471714Y-109637285D01*
X127544285Y-109492142D01*
X127544285Y-109056714D01*
X127471714Y-108911571D01*
X127399142Y-108839000D01*
X127254000Y-108766428D01*
X127036285Y-108766428D01*
X126891142Y-108839000D01*
X126818571Y-108911571D01*
X126746000Y-109056714D01*
X126746000Y-109492142D01*
X126818571Y-109637285D01*
X126891142Y-109709857D01*
X127036285Y-109782428D01*
X127254000Y-109782428D01*
X126092857Y-108766428D02*
X126092857Y-110290428D01*
X126092857Y-108839000D02*
X125947714Y-108766428D01*
X125657428Y-108766428D01*
X125512285Y-108839000D01*
X125439714Y-108911571D01*
X125367142Y-109056714D01*
X125367142Y-109492142D01*
X125439714Y-109637285D01*
X125512285Y-109709857D01*
X125657428Y-109782428D01*
X125947714Y-109782428D01*
X126092857Y-109709857D01*
D11*
X140357142Y-111010000D02*
X140499999Y-110938571D01*
X140714285Y-110938571D01*
X140928571Y-111010000D01*
X141071428Y-111152857D01*
X141142856Y-111295714D01*
X141214285Y-111581428D01*
X141214285Y-111795714D01*
X141142856Y-112081428D01*
X141071428Y-112224285D01*
X140928571Y-112367142D01*
X140714285Y-112438571D01*
X140571428Y-112438571D01*
X140357142Y-112367142D01*
X140285714Y-112295714D01*
X140285714Y-111795714D01*
X140571428Y-111795714D01*
X139785714Y-110938571D02*
X139428571Y-112438571D01*
X139142856Y-111367142D01*
X138857142Y-112438571D01*
X138499999Y-110938571D01*
D10*
X113707333Y-111542285D02*
X113320285Y-111542285D01*
X113562190Y-112219619D02*
X113562190Y-111348761D01*
X113513809Y-111252000D01*
X113417047Y-111203619D01*
X113320285Y-111203619D01*
X112836476Y-112219619D02*
X112933238Y-112171238D01*
X112981619Y-112122857D01*
X113030000Y-112026095D01*
X113030000Y-111735809D01*
X112981619Y-111639047D01*
X112933238Y-111590666D01*
X112836476Y-111542285D01*
X112691333Y-111542285D01*
X112594571Y-111590666D01*
X112546190Y-111639047D01*
X112497809Y-111735809D01*
X112497809Y-112026095D01*
X112546190Y-112122857D01*
X112594571Y-112171238D01*
X112691333Y-112219619D01*
X112836476Y-112219619D01*
X112062380Y-112219619D02*
X112062380Y-111542285D01*
X112062380Y-111735809D02*
X112014000Y-111639047D01*
X111965619Y-111590666D01*
X111868857Y-111542285D01*
X111772095Y-111542285D01*
X110659333Y-112219619D02*
X110659333Y-111203619D01*
X110320666Y-111929333D01*
X109982000Y-111203619D01*
X109982000Y-112219619D01*
X109062761Y-112219619D02*
X109062761Y-111687428D01*
X109111142Y-111590666D01*
X109207904Y-111542285D01*
X109401428Y-111542285D01*
X109498190Y-111590666D01*
X109062761Y-112171238D02*
X109159523Y-112219619D01*
X109401428Y-112219619D01*
X109498190Y-112171238D01*
X109546571Y-112074476D01*
X109546571Y-111977714D01*
X109498190Y-111880952D01*
X109401428Y-111832571D01*
X109159523Y-111832571D01*
X109062761Y-111784190D01*
X108143523Y-112171238D02*
X108240285Y-112219619D01*
X108433809Y-112219619D01*
X108530571Y-112171238D01*
X108578952Y-112122857D01*
X108627333Y-112026095D01*
X108627333Y-111735809D01*
X108578952Y-111639047D01*
X108530571Y-111590666D01*
X108433809Y-111542285D01*
X108240285Y-111542285D01*
X108143523Y-111590666D01*
X106934000Y-112219619D02*
X106934000Y-111203619D01*
X106450190Y-112219619D02*
X106450190Y-111203619D01*
X104756857Y-112219619D02*
X104756857Y-111687428D01*
X104805238Y-111590666D01*
X104902000Y-111542285D01*
X105095523Y-111542285D01*
X105192285Y-111590666D01*
X104756857Y-112171238D02*
X104853619Y-112219619D01*
X105095523Y-112219619D01*
X105192285Y-112171238D01*
X105240666Y-112074476D01*
X105240666Y-111977714D01*
X105192285Y-111880952D01*
X105095523Y-111832571D01*
X104853619Y-111832571D01*
X104756857Y-111784190D01*
X104273047Y-111542285D02*
X104273047Y-112219619D01*
X104273047Y-111639047D02*
X104224666Y-111590666D01*
X104127904Y-111542285D01*
X103982761Y-111542285D01*
X103886000Y-111590666D01*
X103837619Y-111687428D01*
X103837619Y-112219619D01*
X102918380Y-112219619D02*
X102918380Y-111203619D01*
X102918380Y-112171238D02*
X103015142Y-112219619D01*
X103208666Y-112219619D01*
X103305428Y-112171238D01*
X103353809Y-112122857D01*
X103402190Y-112026095D01*
X103402190Y-111735809D01*
X103353809Y-111639047D01*
X103305428Y-111590666D01*
X103208666Y-111542285D01*
X103015142Y-111542285D01*
X102918380Y-111590666D01*
X101708857Y-112171238D02*
X101563714Y-112219619D01*
X101321809Y-112219619D01*
X101225047Y-112171238D01*
X101176666Y-112122857D01*
X101128285Y-112026095D01*
X101128285Y-111929333D01*
X101176666Y-111832571D01*
X101225047Y-111784190D01*
X101321809Y-111735809D01*
X101515333Y-111687428D01*
X101612095Y-111639047D01*
X101660476Y-111590666D01*
X101708857Y-111493904D01*
X101708857Y-111397142D01*
X101660476Y-111300380D01*
X101612095Y-111252000D01*
X101515333Y-111203619D01*
X101273428Y-111203619D01*
X101128285Y-111252000D01*
X100692857Y-111687428D02*
X100354190Y-111687428D01*
X100209047Y-112219619D02*
X100692857Y-112219619D01*
X100692857Y-111203619D01*
X100209047Y-111203619D01*
X99047904Y-111155238D02*
X99918761Y-112461523D01*
X98806000Y-111203619D02*
X98177047Y-111203619D01*
X98515714Y-111590666D01*
X98370571Y-111590666D01*
X98273809Y-111639047D01*
X98225428Y-111687428D01*
X98177047Y-111784190D01*
X98177047Y-112026095D01*
X98225428Y-112122857D01*
X98273809Y-112171238D01*
X98370571Y-112219619D01*
X98660857Y-112219619D01*
X98757619Y-112171238D01*
X98806000Y-112122857D01*
X97548095Y-111203619D02*
X97451333Y-111203619D01*
X97354571Y-111252000D01*
X97306190Y-111300380D01*
X97257809Y-111397142D01*
X97209428Y-111590666D01*
X97209428Y-111832571D01*
X97257809Y-112026095D01*
X97306190Y-112122857D01*
X97354571Y-112171238D01*
X97451333Y-112219619D01*
X97548095Y-112219619D01*
X97644857Y-112171238D01*
X97693238Y-112122857D01*
X97741619Y-112026095D01*
X97790000Y-111832571D01*
X97790000Y-111590666D01*
X97741619Y-111397142D01*
X97693238Y-111300380D01*
X97644857Y-111252000D01*
X97548095Y-111203619D01*
D11*
X136875286Y-111438571D02*
X136875286Y-112438571D01*
X137232428Y-110867142D02*
X137589571Y-111938571D01*
X136661000Y-111938571D01*
X135446714Y-111438571D02*
X135446714Y-112438571D01*
X135803857Y-110867142D02*
X136161000Y-111938571D01*
X135232428Y-111938571D01*
X134375286Y-110938571D02*
X134232428Y-110938571D01*
X134089571Y-111010000D01*
X134018143Y-111081428D01*
X133946714Y-111224285D01*
X133875286Y-111510000D01*
X133875286Y-111867142D01*
X133946714Y-112152857D01*
X134018143Y-112295714D01*
X134089571Y-112367142D01*
X134232428Y-112438571D01*
X134375286Y-112438571D01*
X134518143Y-112367142D01*
X134589571Y-112295714D01*
X134661000Y-112152857D01*
X134732428Y-111867142D01*
X134732428Y-111510000D01*
X134661000Y-111224285D01*
X134589571Y-111081428D01*
X134518143Y-111010000D01*
X134375286Y-110938571D01*
X132446714Y-112438571D02*
X133303857Y-112438571D01*
X132875286Y-112438571D02*
X132875286Y-110938571D01*
X133018143Y-111152857D01*
X133161000Y-111295714D01*
X133303857Y-111367142D01*
X131875286Y-112010000D02*
X131161000Y-112010000D01*
X132018143Y-112438571D02*
X131518143Y-110938571D01*
X131018143Y-112438571D01*
%LPC*%
D13*
G36*
X163361185Y-124513099D02*
G01*
X163407540Y-124519975D01*
X163452997Y-124531362D01*
X163497119Y-124547149D01*
X163539481Y-124567185D01*
X163579676Y-124591277D01*
X163617315Y-124619192D01*
X163652038Y-124650662D01*
X163683508Y-124685385D01*
X163711423Y-124723024D01*
X163735515Y-124763219D01*
X163755551Y-124805581D01*
X163771338Y-124849703D01*
X163782725Y-124895160D01*
X163789601Y-124941515D01*
X163791900Y-124988320D01*
X163791900Y-127233680D01*
X163789601Y-127280485D01*
X163782725Y-127326840D01*
X163771338Y-127372297D01*
X163755551Y-127416419D01*
X163735515Y-127458781D01*
X163711423Y-127498976D01*
X163683508Y-127536615D01*
X163652038Y-127571338D01*
X163617315Y-127602808D01*
X163579676Y-127630723D01*
X163539481Y-127654815D01*
X163497119Y-127674851D01*
X163452997Y-127690638D01*
X163407540Y-127702025D01*
X163361185Y-127708901D01*
X163314380Y-127711200D01*
X163075620Y-127711200D01*
X163028815Y-127708901D01*
X162982460Y-127702025D01*
X162937003Y-127690638D01*
X162892881Y-127674851D01*
X162850519Y-127654815D01*
X162810324Y-127630723D01*
X162772685Y-127602808D01*
X162737962Y-127571338D01*
X162706492Y-127536615D01*
X162678577Y-127498976D01*
X162654485Y-127458781D01*
X162634449Y-127416419D01*
X162618662Y-127372297D01*
X162607275Y-127326840D01*
X162600399Y-127280485D01*
X162598100Y-127233680D01*
X162598100Y-124988320D01*
X162600399Y-124941515D01*
X162607275Y-124895160D01*
X162618662Y-124849703D01*
X162634449Y-124805581D01*
X162654485Y-124763219D01*
X162678577Y-124723024D01*
X162706492Y-124685385D01*
X162737962Y-124650662D01*
X162772685Y-124619192D01*
X162810324Y-124591277D01*
X162850519Y-124567185D01*
X162892881Y-124547149D01*
X162937003Y-124531362D01*
X162982460Y-124519975D01*
X163028815Y-124513099D01*
X163075620Y-124510800D01*
X163314380Y-124510800D01*
X163361185Y-124513099D01*
G37*
G36*
X162091185Y-124513099D02*
G01*
X162137540Y-124519975D01*
X162182997Y-124531362D01*
X162227119Y-124547149D01*
X162269481Y-124567185D01*
X162309676Y-124591277D01*
X162347315Y-124619192D01*
X162382038Y-124650662D01*
X162413508Y-124685385D01*
X162441423Y-124723024D01*
X162465515Y-124763219D01*
X162485551Y-124805581D01*
X162501338Y-124849703D01*
X162512725Y-124895160D01*
X162519601Y-124941515D01*
X162521900Y-124988320D01*
X162521900Y-127233680D01*
X162519601Y-127280485D01*
X162512725Y-127326840D01*
X162501338Y-127372297D01*
X162485551Y-127416419D01*
X162465515Y-127458781D01*
X162441423Y-127498976D01*
X162413508Y-127536615D01*
X162382038Y-127571338D01*
X162347315Y-127602808D01*
X162309676Y-127630723D01*
X162269481Y-127654815D01*
X162227119Y-127674851D01*
X162182997Y-127690638D01*
X162137540Y-127702025D01*
X162091185Y-127708901D01*
X162044380Y-127711200D01*
X161805620Y-127711200D01*
X161758815Y-127708901D01*
X161712460Y-127702025D01*
X161667003Y-127690638D01*
X161622881Y-127674851D01*
X161580519Y-127654815D01*
X161540324Y-127630723D01*
X161502685Y-127602808D01*
X161467962Y-127571338D01*
X161436492Y-127536615D01*
X161408577Y-127498976D01*
X161384485Y-127458781D01*
X161364449Y-127416419D01*
X161348662Y-127372297D01*
X161337275Y-127326840D01*
X161330399Y-127280485D01*
X161328100Y-127233680D01*
X161328100Y-124988320D01*
X161330399Y-124941515D01*
X161337275Y-124895160D01*
X161348662Y-124849703D01*
X161364449Y-124805581D01*
X161384485Y-124763219D01*
X161408577Y-124723024D01*
X161436492Y-124685385D01*
X161467962Y-124650662D01*
X161502685Y-124619192D01*
X161540324Y-124591277D01*
X161580519Y-124567185D01*
X161622881Y-124547149D01*
X161667003Y-124531362D01*
X161712460Y-124519975D01*
X161758815Y-124513099D01*
X161805620Y-124510800D01*
X162044380Y-124510800D01*
X162091185Y-124513099D01*
G37*
G36*
X160821185Y-124513099D02*
G01*
X160867540Y-124519975D01*
X160912997Y-124531362D01*
X160957119Y-124547149D01*
X160999481Y-124567185D01*
X161039676Y-124591277D01*
X161077315Y-124619192D01*
X161112038Y-124650662D01*
X161143508Y-124685385D01*
X161171423Y-124723024D01*
X161195515Y-124763219D01*
X161215551Y-124805581D01*
X161231338Y-124849703D01*
X161242725Y-124895160D01*
X161249601Y-124941515D01*
X161251900Y-124988320D01*
X161251900Y-127233680D01*
X161249601Y-127280485D01*
X161242725Y-127326840D01*
X161231338Y-127372297D01*
X161215551Y-127416419D01*
X161195515Y-127458781D01*
X161171423Y-127498976D01*
X161143508Y-127536615D01*
X161112038Y-127571338D01*
X161077315Y-127602808D01*
X161039676Y-127630723D01*
X160999481Y-127654815D01*
X160957119Y-127674851D01*
X160912997Y-127690638D01*
X160867540Y-127702025D01*
X160821185Y-127708901D01*
X160774380Y-127711200D01*
X160535620Y-127711200D01*
X160488815Y-127708901D01*
X160442460Y-127702025D01*
X160397003Y-127690638D01*
X160352881Y-127674851D01*
X160310519Y-127654815D01*
X160270324Y-127630723D01*
X160232685Y-127602808D01*
X160197962Y-127571338D01*
X160166492Y-127536615D01*
X160138577Y-127498976D01*
X160114485Y-127458781D01*
X160094449Y-127416419D01*
X160078662Y-127372297D01*
X160067275Y-127326840D01*
X160060399Y-127280485D01*
X160058100Y-127233680D01*
X160058100Y-124988320D01*
X160060399Y-124941515D01*
X160067275Y-124895160D01*
X160078662Y-124849703D01*
X160094449Y-124805581D01*
X160114485Y-124763219D01*
X160138577Y-124723024D01*
X160166492Y-124685385D01*
X160197962Y-124650662D01*
X160232685Y-124619192D01*
X160270324Y-124591277D01*
X160310519Y-124567185D01*
X160352881Y-124547149D01*
X160397003Y-124531362D01*
X160442460Y-124519975D01*
X160488815Y-124513099D01*
X160535620Y-124510800D01*
X160774380Y-124510800D01*
X160821185Y-124513099D01*
G37*
G36*
X159551185Y-124513099D02*
G01*
X159597540Y-124519975D01*
X159642997Y-124531362D01*
X159687119Y-124547149D01*
X159729481Y-124567185D01*
X159769676Y-124591277D01*
X159807315Y-124619192D01*
X159842038Y-124650662D01*
X159873508Y-124685385D01*
X159901423Y-124723024D01*
X159925515Y-124763219D01*
X159945551Y-124805581D01*
X159961338Y-124849703D01*
X159972725Y-124895160D01*
X159979601Y-124941515D01*
X159981900Y-124988320D01*
X159981900Y-127233680D01*
X159979601Y-127280485D01*
X159972725Y-127326840D01*
X159961338Y-127372297D01*
X159945551Y-127416419D01*
X159925515Y-127458781D01*
X159901423Y-127498976D01*
X159873508Y-127536615D01*
X159842038Y-127571338D01*
X159807315Y-127602808D01*
X159769676Y-127630723D01*
X159729481Y-127654815D01*
X159687119Y-127674851D01*
X159642997Y-127690638D01*
X159597540Y-127702025D01*
X159551185Y-127708901D01*
X159504380Y-127711200D01*
X159265620Y-127711200D01*
X159218815Y-127708901D01*
X159172460Y-127702025D01*
X159127003Y-127690638D01*
X159082881Y-127674851D01*
X159040519Y-127654815D01*
X159000324Y-127630723D01*
X158962685Y-127602808D01*
X158927962Y-127571338D01*
X158896492Y-127536615D01*
X158868577Y-127498976D01*
X158844485Y-127458781D01*
X158824449Y-127416419D01*
X158808662Y-127372297D01*
X158797275Y-127326840D01*
X158790399Y-127280485D01*
X158788100Y-127233680D01*
X158788100Y-124988320D01*
X158790399Y-124941515D01*
X158797275Y-124895160D01*
X158808662Y-124849703D01*
X158824449Y-124805581D01*
X158844485Y-124763219D01*
X158868577Y-124723024D01*
X158896492Y-124685385D01*
X158927962Y-124650662D01*
X158962685Y-124619192D01*
X159000324Y-124591277D01*
X159040519Y-124567185D01*
X159082881Y-124547149D01*
X159127003Y-124531362D01*
X159172460Y-124519975D01*
X159218815Y-124513099D01*
X159265620Y-124510800D01*
X159504380Y-124510800D01*
X159551185Y-124513099D01*
G37*
G36*
X158281185Y-124513099D02*
G01*
X158327540Y-124519975D01*
X158372997Y-124531362D01*
X158417119Y-124547149D01*
X158459481Y-124567185D01*
X158499676Y-124591277D01*
X158537315Y-124619192D01*
X158572038Y-124650662D01*
X158603508Y-124685385D01*
X158631423Y-124723024D01*
X158655515Y-124763219D01*
X158675551Y-124805581D01*
X158691338Y-124849703D01*
X158702725Y-124895160D01*
X158709601Y-124941515D01*
X158711900Y-124988320D01*
X158711900Y-127233680D01*
X158709601Y-127280485D01*
X158702725Y-127326840D01*
X158691338Y-127372297D01*
X158675551Y-127416419D01*
X158655515Y-127458781D01*
X158631423Y-127498976D01*
X158603508Y-127536615D01*
X158572038Y-127571338D01*
X158537315Y-127602808D01*
X158499676Y-127630723D01*
X158459481Y-127654815D01*
X158417119Y-127674851D01*
X158372997Y-127690638D01*
X158327540Y-127702025D01*
X158281185Y-127708901D01*
X158234380Y-127711200D01*
X157995620Y-127711200D01*
X157948815Y-127708901D01*
X157902460Y-127702025D01*
X157857003Y-127690638D01*
X157812881Y-127674851D01*
X157770519Y-127654815D01*
X157730324Y-127630723D01*
X157692685Y-127602808D01*
X157657962Y-127571338D01*
X157626492Y-127536615D01*
X157598577Y-127498976D01*
X157574485Y-127458781D01*
X157554449Y-127416419D01*
X157538662Y-127372297D01*
X157527275Y-127326840D01*
X157520399Y-127280485D01*
X157518100Y-127233680D01*
X157518100Y-124988320D01*
X157520399Y-124941515D01*
X157527275Y-124895160D01*
X157538662Y-124849703D01*
X157554449Y-124805581D01*
X157574485Y-124763219D01*
X157598577Y-124723024D01*
X157626492Y-124685385D01*
X157657962Y-124650662D01*
X157692685Y-124619192D01*
X157730324Y-124591277D01*
X157770519Y-124567185D01*
X157812881Y-124547149D01*
X157857003Y-124531362D01*
X157902460Y-124519975D01*
X157948815Y-124513099D01*
X157995620Y-124510800D01*
X158234380Y-124510800D01*
X158281185Y-124513099D01*
G37*
G36*
X157011185Y-124513099D02*
G01*
X157057540Y-124519975D01*
X157102997Y-124531362D01*
X157147119Y-124547149D01*
X157189481Y-124567185D01*
X157229676Y-124591277D01*
X157267315Y-124619192D01*
X157302038Y-124650662D01*
X157333508Y-124685385D01*
X157361423Y-124723024D01*
X157385515Y-124763219D01*
X157405551Y-124805581D01*
X157421338Y-124849703D01*
X157432725Y-124895160D01*
X157439601Y-124941515D01*
X157441900Y-124988320D01*
X157441900Y-127233680D01*
X157439601Y-127280485D01*
X157432725Y-127326840D01*
X157421338Y-127372297D01*
X157405551Y-127416419D01*
X157385515Y-127458781D01*
X157361423Y-127498976D01*
X157333508Y-127536615D01*
X157302038Y-127571338D01*
X157267315Y-127602808D01*
X157229676Y-127630723D01*
X157189481Y-127654815D01*
X157147119Y-127674851D01*
X157102997Y-127690638D01*
X157057540Y-127702025D01*
X157011185Y-127708901D01*
X156964380Y-127711200D01*
X156725620Y-127711200D01*
X156678815Y-127708901D01*
X156632460Y-127702025D01*
X156587003Y-127690638D01*
X156542881Y-127674851D01*
X156500519Y-127654815D01*
X156460324Y-127630723D01*
X156422685Y-127602808D01*
X156387962Y-127571338D01*
X156356492Y-127536615D01*
X156328577Y-127498976D01*
X156304485Y-127458781D01*
X156284449Y-127416419D01*
X156268662Y-127372297D01*
X156257275Y-127326840D01*
X156250399Y-127280485D01*
X156248100Y-127233680D01*
X156248100Y-124988320D01*
X156250399Y-124941515D01*
X156257275Y-124895160D01*
X156268662Y-124849703D01*
X156284449Y-124805581D01*
X156304485Y-124763219D01*
X156328577Y-124723024D01*
X156356492Y-124685385D01*
X156387962Y-124650662D01*
X156422685Y-124619192D01*
X156460324Y-124591277D01*
X156500519Y-124567185D01*
X156542881Y-124547149D01*
X156587003Y-124531362D01*
X156632460Y-124519975D01*
X156678815Y-124513099D01*
X156725620Y-124510800D01*
X156964380Y-124510800D01*
X157011185Y-124513099D01*
G37*
G36*
X155741185Y-124513099D02*
G01*
X155787540Y-124519975D01*
X155832997Y-124531362D01*
X155877119Y-124547149D01*
X155919481Y-124567185D01*
X155959676Y-124591277D01*
X155997315Y-124619192D01*
X156032038Y-124650662D01*
X156063508Y-124685385D01*
X156091423Y-124723024D01*
X156115515Y-124763219D01*
X156135551Y-124805581D01*
X156151338Y-124849703D01*
X156162725Y-124895160D01*
X156169601Y-124941515D01*
X156171900Y-124988320D01*
X156171900Y-127233680D01*
X156169601Y-127280485D01*
X156162725Y-127326840D01*
X156151338Y-127372297D01*
X156135551Y-127416419D01*
X156115515Y-127458781D01*
X156091423Y-127498976D01*
X156063508Y-127536615D01*
X156032038Y-127571338D01*
X155997315Y-127602808D01*
X155959676Y-127630723D01*
X155919481Y-127654815D01*
X155877119Y-127674851D01*
X155832997Y-127690638D01*
X155787540Y-127702025D01*
X155741185Y-127708901D01*
X155694380Y-127711200D01*
X155455620Y-127711200D01*
X155408815Y-127708901D01*
X155362460Y-127702025D01*
X155317003Y-127690638D01*
X155272881Y-127674851D01*
X155230519Y-127654815D01*
X155190324Y-127630723D01*
X155152685Y-127602808D01*
X155117962Y-127571338D01*
X155086492Y-127536615D01*
X155058577Y-127498976D01*
X155034485Y-127458781D01*
X155014449Y-127416419D01*
X154998662Y-127372297D01*
X154987275Y-127326840D01*
X154980399Y-127280485D01*
X154978100Y-127233680D01*
X154978100Y-124988320D01*
X154980399Y-124941515D01*
X154987275Y-124895160D01*
X154998662Y-124849703D01*
X155014449Y-124805581D01*
X155034485Y-124763219D01*
X155058577Y-124723024D01*
X155086492Y-124685385D01*
X155117962Y-124650662D01*
X155152685Y-124619192D01*
X155190324Y-124591277D01*
X155230519Y-124567185D01*
X155272881Y-124547149D01*
X155317003Y-124531362D01*
X155362460Y-124519975D01*
X155408815Y-124513099D01*
X155455620Y-124510800D01*
X155694380Y-124510800D01*
X155741185Y-124513099D01*
G37*
G36*
X154471185Y-124513099D02*
G01*
X154517540Y-124519975D01*
X154562997Y-124531362D01*
X154607119Y-124547149D01*
X154649481Y-124567185D01*
X154689676Y-124591277D01*
X154727315Y-124619192D01*
X154762038Y-124650662D01*
X154793508Y-124685385D01*
X154821423Y-124723024D01*
X154845515Y-124763219D01*
X154865551Y-124805581D01*
X154881338Y-124849703D01*
X154892725Y-124895160D01*
X154899601Y-124941515D01*
X154901900Y-124988320D01*
X154901900Y-127233680D01*
X154899601Y-127280485D01*
X154892725Y-127326840D01*
X154881338Y-127372297D01*
X154865551Y-127416419D01*
X154845515Y-127458781D01*
X154821423Y-127498976D01*
X154793508Y-127536615D01*
X154762038Y-127571338D01*
X154727315Y-127602808D01*
X154689676Y-127630723D01*
X154649481Y-127654815D01*
X154607119Y-127674851D01*
X154562997Y-127690638D01*
X154517540Y-127702025D01*
X154471185Y-127708901D01*
X154424380Y-127711200D01*
X154185620Y-127711200D01*
X154138815Y-127708901D01*
X154092460Y-127702025D01*
X154047003Y-127690638D01*
X154002881Y-127674851D01*
X153960519Y-127654815D01*
X153920324Y-127630723D01*
X153882685Y-127602808D01*
X153847962Y-127571338D01*
X153816492Y-127536615D01*
X153788577Y-127498976D01*
X153764485Y-127458781D01*
X153744449Y-127416419D01*
X153728662Y-127372297D01*
X153717275Y-127326840D01*
X153710399Y-127280485D01*
X153708100Y-127233680D01*
X153708100Y-124988320D01*
X153710399Y-124941515D01*
X153717275Y-124895160D01*
X153728662Y-124849703D01*
X153744449Y-124805581D01*
X153764485Y-124763219D01*
X153788577Y-124723024D01*
X153816492Y-124685385D01*
X153847962Y-124650662D01*
X153882685Y-124619192D01*
X153920324Y-124591277D01*
X153960519Y-124567185D01*
X154002881Y-124547149D01*
X154047003Y-124531362D01*
X154092460Y-124519975D01*
X154138815Y-124513099D01*
X154185620Y-124510800D01*
X154424380Y-124510800D01*
X154471185Y-124513099D01*
G37*
G36*
X153201185Y-124513099D02*
G01*
X153247540Y-124519975D01*
X153292997Y-124531362D01*
X153337119Y-124547149D01*
X153379481Y-124567185D01*
X153419676Y-124591277D01*
X153457315Y-124619192D01*
X153492038Y-124650662D01*
X153523508Y-124685385D01*
X153551423Y-124723024D01*
X153575515Y-124763219D01*
X153595551Y-124805581D01*
X153611338Y-124849703D01*
X153622725Y-124895160D01*
X153629601Y-124941515D01*
X153631900Y-124988320D01*
X153631900Y-127233680D01*
X153629601Y-127280485D01*
X153622725Y-127326840D01*
X153611338Y-127372297D01*
X153595551Y-127416419D01*
X153575515Y-127458781D01*
X153551423Y-127498976D01*
X153523508Y-127536615D01*
X153492038Y-127571338D01*
X153457315Y-127602808D01*
X153419676Y-127630723D01*
X153379481Y-127654815D01*
X153337119Y-127674851D01*
X153292997Y-127690638D01*
X153247540Y-127702025D01*
X153201185Y-127708901D01*
X153154380Y-127711200D01*
X152915620Y-127711200D01*
X152868815Y-127708901D01*
X152822460Y-127702025D01*
X152777003Y-127690638D01*
X152732881Y-127674851D01*
X152690519Y-127654815D01*
X152650324Y-127630723D01*
X152612685Y-127602808D01*
X152577962Y-127571338D01*
X152546492Y-127536615D01*
X152518577Y-127498976D01*
X152494485Y-127458781D01*
X152474449Y-127416419D01*
X152458662Y-127372297D01*
X152447275Y-127326840D01*
X152440399Y-127280485D01*
X152438100Y-127233680D01*
X152438100Y-124988320D01*
X152440399Y-124941515D01*
X152447275Y-124895160D01*
X152458662Y-124849703D01*
X152474449Y-124805581D01*
X152494485Y-124763219D01*
X152518577Y-124723024D01*
X152546492Y-124685385D01*
X152577962Y-124650662D01*
X152612685Y-124619192D01*
X152650324Y-124591277D01*
X152690519Y-124567185D01*
X152732881Y-124547149D01*
X152777003Y-124531362D01*
X152822460Y-124519975D01*
X152868815Y-124513099D01*
X152915620Y-124510800D01*
X153154380Y-124510800D01*
X153201185Y-124513099D01*
G37*
G36*
X151931185Y-124513099D02*
G01*
X151977540Y-124519975D01*
X152022997Y-124531362D01*
X152067119Y-124547149D01*
X152109481Y-124567185D01*
X152149676Y-124591277D01*
X152187315Y-124619192D01*
X152222038Y-124650662D01*
X152253508Y-124685385D01*
X152281423Y-124723024D01*
X152305515Y-124763219D01*
X152325551Y-124805581D01*
X152341338Y-124849703D01*
X152352725Y-124895160D01*
X152359601Y-124941515D01*
X152361900Y-124988320D01*
X152361900Y-127233680D01*
X152359601Y-127280485D01*
X152352725Y-127326840D01*
X152341338Y-127372297D01*
X152325551Y-127416419D01*
X152305515Y-127458781D01*
X152281423Y-127498976D01*
X152253508Y-127536615D01*
X152222038Y-127571338D01*
X152187315Y-127602808D01*
X152149676Y-127630723D01*
X152109481Y-127654815D01*
X152067119Y-127674851D01*
X152022997Y-127690638D01*
X151977540Y-127702025D01*
X151931185Y-127708901D01*
X151884380Y-127711200D01*
X151645620Y-127711200D01*
X151598815Y-127708901D01*
X151552460Y-127702025D01*
X151507003Y-127690638D01*
X151462881Y-127674851D01*
X151420519Y-127654815D01*
X151380324Y-127630723D01*
X151342685Y-127602808D01*
X151307962Y-127571338D01*
X151276492Y-127536615D01*
X151248577Y-127498976D01*
X151224485Y-127458781D01*
X151204449Y-127416419D01*
X151188662Y-127372297D01*
X151177275Y-127326840D01*
X151170399Y-127280485D01*
X151168100Y-127233680D01*
X151168100Y-124988320D01*
X151170399Y-124941515D01*
X151177275Y-124895160D01*
X151188662Y-124849703D01*
X151204449Y-124805581D01*
X151224485Y-124763219D01*
X151248577Y-124723024D01*
X151276492Y-124685385D01*
X151307962Y-124650662D01*
X151342685Y-124619192D01*
X151380324Y-124591277D01*
X151420519Y-124567185D01*
X151462881Y-124547149D01*
X151507003Y-124531362D01*
X151552460Y-124519975D01*
X151598815Y-124513099D01*
X151645620Y-124510800D01*
X151884380Y-124510800D01*
X151931185Y-124513099D01*
G37*
G36*
X150661185Y-124513099D02*
G01*
X150707540Y-124519975D01*
X150752997Y-124531362D01*
X150797119Y-124547149D01*
X150839481Y-124567185D01*
X150879676Y-124591277D01*
X150917315Y-124619192D01*
X150952038Y-124650662D01*
X150983508Y-124685385D01*
X151011423Y-124723024D01*
X151035515Y-124763219D01*
X151055551Y-124805581D01*
X151071338Y-124849703D01*
X151082725Y-124895160D01*
X151089601Y-124941515D01*
X151091900Y-124988320D01*
X151091900Y-127233680D01*
X151089601Y-127280485D01*
X151082725Y-127326840D01*
X151071338Y-127372297D01*
X151055551Y-127416419D01*
X151035515Y-127458781D01*
X151011423Y-127498976D01*
X150983508Y-127536615D01*
X150952038Y-127571338D01*
X150917315Y-127602808D01*
X150879676Y-127630723D01*
X150839481Y-127654815D01*
X150797119Y-127674851D01*
X150752997Y-127690638D01*
X150707540Y-127702025D01*
X150661185Y-127708901D01*
X150614380Y-127711200D01*
X150375620Y-127711200D01*
X150328815Y-127708901D01*
X150282460Y-127702025D01*
X150237003Y-127690638D01*
X150192881Y-127674851D01*
X150150519Y-127654815D01*
X150110324Y-127630723D01*
X150072685Y-127602808D01*
X150037962Y-127571338D01*
X150006492Y-127536615D01*
X149978577Y-127498976D01*
X149954485Y-127458781D01*
X149934449Y-127416419D01*
X149918662Y-127372297D01*
X149907275Y-127326840D01*
X149900399Y-127280485D01*
X149898100Y-127233680D01*
X149898100Y-124988320D01*
X149900399Y-124941515D01*
X149907275Y-124895160D01*
X149918662Y-124849703D01*
X149934449Y-124805581D01*
X149954485Y-124763219D01*
X149978577Y-124723024D01*
X150006492Y-124685385D01*
X150037962Y-124650662D01*
X150072685Y-124619192D01*
X150110324Y-124591277D01*
X150150519Y-124567185D01*
X150192881Y-124547149D01*
X150237003Y-124531362D01*
X150282460Y-124519975D01*
X150328815Y-124513099D01*
X150375620Y-124510800D01*
X150614380Y-124510800D01*
X150661185Y-124513099D01*
G37*
G36*
X149391185Y-124513099D02*
G01*
X149437540Y-124519975D01*
X149482997Y-124531362D01*
X149527119Y-124547149D01*
X149569481Y-124567185D01*
X149609676Y-124591277D01*
X149647315Y-124619192D01*
X149682038Y-124650662D01*
X149713508Y-124685385D01*
X149741423Y-124723024D01*
X149765515Y-124763219D01*
X149785551Y-124805581D01*
X149801338Y-124849703D01*
X149812725Y-124895160D01*
X149819601Y-124941515D01*
X149821900Y-124988320D01*
X149821900Y-127233680D01*
X149819601Y-127280485D01*
X149812725Y-127326840D01*
X149801338Y-127372297D01*
X149785551Y-127416419D01*
X149765515Y-127458781D01*
X149741423Y-127498976D01*
X149713508Y-127536615D01*
X149682038Y-127571338D01*
X149647315Y-127602808D01*
X149609676Y-127630723D01*
X149569481Y-127654815D01*
X149527119Y-127674851D01*
X149482997Y-127690638D01*
X149437540Y-127702025D01*
X149391185Y-127708901D01*
X149344380Y-127711200D01*
X149105620Y-127711200D01*
X149058815Y-127708901D01*
X149012460Y-127702025D01*
X148967003Y-127690638D01*
X148922881Y-127674851D01*
X148880519Y-127654815D01*
X148840324Y-127630723D01*
X148802685Y-127602808D01*
X148767962Y-127571338D01*
X148736492Y-127536615D01*
X148708577Y-127498976D01*
X148684485Y-127458781D01*
X148664449Y-127416419D01*
X148648662Y-127372297D01*
X148637275Y-127326840D01*
X148630399Y-127280485D01*
X148628100Y-127233680D01*
X148628100Y-124988320D01*
X148630399Y-124941515D01*
X148637275Y-124895160D01*
X148648662Y-124849703D01*
X148664449Y-124805581D01*
X148684485Y-124763219D01*
X148708577Y-124723024D01*
X148736492Y-124685385D01*
X148767962Y-124650662D01*
X148802685Y-124619192D01*
X148840324Y-124591277D01*
X148880519Y-124567185D01*
X148922881Y-124547149D01*
X148967003Y-124531362D01*
X149012460Y-124519975D01*
X149058815Y-124513099D01*
X149105620Y-124510800D01*
X149344380Y-124510800D01*
X149391185Y-124513099D01*
G37*
G36*
X148121185Y-124513099D02*
G01*
X148167540Y-124519975D01*
X148212997Y-124531362D01*
X148257119Y-124547149D01*
X148299481Y-124567185D01*
X148339676Y-124591277D01*
X148377315Y-124619192D01*
X148412038Y-124650662D01*
X148443508Y-124685385D01*
X148471423Y-124723024D01*
X148495515Y-124763219D01*
X148515551Y-124805581D01*
X148531338Y-124849703D01*
X148542725Y-124895160D01*
X148549601Y-124941515D01*
X148551900Y-124988320D01*
X148551900Y-127233680D01*
X148549601Y-127280485D01*
X148542725Y-127326840D01*
X148531338Y-127372297D01*
X148515551Y-127416419D01*
X148495515Y-127458781D01*
X148471423Y-127498976D01*
X148443508Y-127536615D01*
X148412038Y-127571338D01*
X148377315Y-127602808D01*
X148339676Y-127630723D01*
X148299481Y-127654815D01*
X148257119Y-127674851D01*
X148212997Y-127690638D01*
X148167540Y-127702025D01*
X148121185Y-127708901D01*
X148074380Y-127711200D01*
X147835620Y-127711200D01*
X147788815Y-127708901D01*
X147742460Y-127702025D01*
X147697003Y-127690638D01*
X147652881Y-127674851D01*
X147610519Y-127654815D01*
X147570324Y-127630723D01*
X147532685Y-127602808D01*
X147497962Y-127571338D01*
X147466492Y-127536615D01*
X147438577Y-127498976D01*
X147414485Y-127458781D01*
X147394449Y-127416419D01*
X147378662Y-127372297D01*
X147367275Y-127326840D01*
X147360399Y-127280485D01*
X147358100Y-127233680D01*
X147358100Y-124988320D01*
X147360399Y-124941515D01*
X147367275Y-124895160D01*
X147378662Y-124849703D01*
X147394449Y-124805581D01*
X147414485Y-124763219D01*
X147438577Y-124723024D01*
X147466492Y-124685385D01*
X147497962Y-124650662D01*
X147532685Y-124619192D01*
X147570324Y-124591277D01*
X147610519Y-124567185D01*
X147652881Y-124547149D01*
X147697003Y-124531362D01*
X147742460Y-124519975D01*
X147788815Y-124513099D01*
X147835620Y-124510800D01*
X148074380Y-124510800D01*
X148121185Y-124513099D01*
G37*
G36*
X146851185Y-124513099D02*
G01*
X146897540Y-124519975D01*
X146942997Y-124531362D01*
X146987119Y-124547149D01*
X147029481Y-124567185D01*
X147069676Y-124591277D01*
X147107315Y-124619192D01*
X147142038Y-124650662D01*
X147173508Y-124685385D01*
X147201423Y-124723024D01*
X147225515Y-124763219D01*
X147245551Y-124805581D01*
X147261338Y-124849703D01*
X147272725Y-124895160D01*
X147279601Y-124941515D01*
X147281900Y-124988320D01*
X147281900Y-127233680D01*
X147279601Y-127280485D01*
X147272725Y-127326840D01*
X147261338Y-127372297D01*
X147245551Y-127416419D01*
X147225515Y-127458781D01*
X147201423Y-127498976D01*
X147173508Y-127536615D01*
X147142038Y-127571338D01*
X147107315Y-127602808D01*
X147069676Y-127630723D01*
X147029481Y-127654815D01*
X146987119Y-127674851D01*
X146942997Y-127690638D01*
X146897540Y-127702025D01*
X146851185Y-127708901D01*
X146804380Y-127711200D01*
X146565620Y-127711200D01*
X146518815Y-127708901D01*
X146472460Y-127702025D01*
X146427003Y-127690638D01*
X146382881Y-127674851D01*
X146340519Y-127654815D01*
X146300324Y-127630723D01*
X146262685Y-127602808D01*
X146227962Y-127571338D01*
X146196492Y-127536615D01*
X146168577Y-127498976D01*
X146144485Y-127458781D01*
X146124449Y-127416419D01*
X146108662Y-127372297D01*
X146097275Y-127326840D01*
X146090399Y-127280485D01*
X146088100Y-127233680D01*
X146088100Y-124988320D01*
X146090399Y-124941515D01*
X146097275Y-124895160D01*
X146108662Y-124849703D01*
X146124449Y-124805581D01*
X146144485Y-124763219D01*
X146168577Y-124723024D01*
X146196492Y-124685385D01*
X146227962Y-124650662D01*
X146262685Y-124619192D01*
X146300324Y-124591277D01*
X146340519Y-124567185D01*
X146382881Y-124547149D01*
X146427003Y-124531362D01*
X146472460Y-124519975D01*
X146518815Y-124513099D01*
X146565620Y-124510800D01*
X146804380Y-124510800D01*
X146851185Y-124513099D01*
G37*
G36*
X145581185Y-124513099D02*
G01*
X145627540Y-124519975D01*
X145672997Y-124531362D01*
X145717119Y-124547149D01*
X145759481Y-124567185D01*
X145799676Y-124591277D01*
X145837315Y-124619192D01*
X145872038Y-124650662D01*
X145903508Y-124685385D01*
X145931423Y-124723024D01*
X145955515Y-124763219D01*
X145975551Y-124805581D01*
X145991338Y-124849703D01*
X146002725Y-124895160D01*
X146009601Y-124941515D01*
X146011900Y-124988320D01*
X146011900Y-127233680D01*
X146009601Y-127280485D01*
X146002725Y-127326840D01*
X145991338Y-127372297D01*
X145975551Y-127416419D01*
X145955515Y-127458781D01*
X145931423Y-127498976D01*
X145903508Y-127536615D01*
X145872038Y-127571338D01*
X145837315Y-127602808D01*
X145799676Y-127630723D01*
X145759481Y-127654815D01*
X145717119Y-127674851D01*
X145672997Y-127690638D01*
X145627540Y-127702025D01*
X145581185Y-127708901D01*
X145534380Y-127711200D01*
X145295620Y-127711200D01*
X145248815Y-127708901D01*
X145202460Y-127702025D01*
X145157003Y-127690638D01*
X145112881Y-127674851D01*
X145070519Y-127654815D01*
X145030324Y-127630723D01*
X144992685Y-127602808D01*
X144957962Y-127571338D01*
X144926492Y-127536615D01*
X144898577Y-127498976D01*
X144874485Y-127458781D01*
X144854449Y-127416419D01*
X144838662Y-127372297D01*
X144827275Y-127326840D01*
X144820399Y-127280485D01*
X144818100Y-127233680D01*
X144818100Y-124988320D01*
X144820399Y-124941515D01*
X144827275Y-124895160D01*
X144838662Y-124849703D01*
X144854449Y-124805581D01*
X144874485Y-124763219D01*
X144898577Y-124723024D01*
X144926492Y-124685385D01*
X144957962Y-124650662D01*
X144992685Y-124619192D01*
X145030324Y-124591277D01*
X145070519Y-124567185D01*
X145112881Y-124547149D01*
X145157003Y-124531362D01*
X145202460Y-124519975D01*
X145248815Y-124513099D01*
X145295620Y-124510800D01*
X145534380Y-124510800D01*
X145581185Y-124513099D01*
G37*
G36*
X144311185Y-124513099D02*
G01*
X144357540Y-124519975D01*
X144402997Y-124531362D01*
X144447119Y-124547149D01*
X144489481Y-124567185D01*
X144529676Y-124591277D01*
X144567315Y-124619192D01*
X144602038Y-124650662D01*
X144633508Y-124685385D01*
X144661423Y-124723024D01*
X144685515Y-124763219D01*
X144705551Y-124805581D01*
X144721338Y-124849703D01*
X144732725Y-124895160D01*
X144739601Y-124941515D01*
X144741900Y-124988320D01*
X144741900Y-127233680D01*
X144739601Y-127280485D01*
X144732725Y-127326840D01*
X144721338Y-127372297D01*
X144705551Y-127416419D01*
X144685515Y-127458781D01*
X144661423Y-127498976D01*
X144633508Y-127536615D01*
X144602038Y-127571338D01*
X144567315Y-127602808D01*
X144529676Y-127630723D01*
X144489481Y-127654815D01*
X144447119Y-127674851D01*
X144402997Y-127690638D01*
X144357540Y-127702025D01*
X144311185Y-127708901D01*
X144264380Y-127711200D01*
X144025620Y-127711200D01*
X143978815Y-127708901D01*
X143932460Y-127702025D01*
X143887003Y-127690638D01*
X143842881Y-127674851D01*
X143800519Y-127654815D01*
X143760324Y-127630723D01*
X143722685Y-127602808D01*
X143687962Y-127571338D01*
X143656492Y-127536615D01*
X143628577Y-127498976D01*
X143604485Y-127458781D01*
X143584449Y-127416419D01*
X143568662Y-127372297D01*
X143557275Y-127326840D01*
X143550399Y-127280485D01*
X143548100Y-127233680D01*
X143548100Y-124988320D01*
X143550399Y-124941515D01*
X143557275Y-124895160D01*
X143568662Y-124849703D01*
X143584449Y-124805581D01*
X143604485Y-124763219D01*
X143628577Y-124723024D01*
X143656492Y-124685385D01*
X143687962Y-124650662D01*
X143722685Y-124619192D01*
X143760324Y-124591277D01*
X143800519Y-124567185D01*
X143842881Y-124547149D01*
X143887003Y-124531362D01*
X143932460Y-124519975D01*
X143978815Y-124513099D01*
X144025620Y-124510800D01*
X144264380Y-124510800D01*
X144311185Y-124513099D01*
G37*
G36*
X143041185Y-124513099D02*
G01*
X143087540Y-124519975D01*
X143132997Y-124531362D01*
X143177119Y-124547149D01*
X143219481Y-124567185D01*
X143259676Y-124591277D01*
X143297315Y-124619192D01*
X143332038Y-124650662D01*
X143363508Y-124685385D01*
X143391423Y-124723024D01*
X143415515Y-124763219D01*
X143435551Y-124805581D01*
X143451338Y-124849703D01*
X143462725Y-124895160D01*
X143469601Y-124941515D01*
X143471900Y-124988320D01*
X143471900Y-127233680D01*
X143469601Y-127280485D01*
X143462725Y-127326840D01*
X143451338Y-127372297D01*
X143435551Y-127416419D01*
X143415515Y-127458781D01*
X143391423Y-127498976D01*
X143363508Y-127536615D01*
X143332038Y-127571338D01*
X143297315Y-127602808D01*
X143259676Y-127630723D01*
X143219481Y-127654815D01*
X143177119Y-127674851D01*
X143132997Y-127690638D01*
X143087540Y-127702025D01*
X143041185Y-127708901D01*
X142994380Y-127711200D01*
X142755620Y-127711200D01*
X142708815Y-127708901D01*
X142662460Y-127702025D01*
X142617003Y-127690638D01*
X142572881Y-127674851D01*
X142530519Y-127654815D01*
X142490324Y-127630723D01*
X142452685Y-127602808D01*
X142417962Y-127571338D01*
X142386492Y-127536615D01*
X142358577Y-127498976D01*
X142334485Y-127458781D01*
X142314449Y-127416419D01*
X142298662Y-127372297D01*
X142287275Y-127326840D01*
X142280399Y-127280485D01*
X142278100Y-127233680D01*
X142278100Y-124988320D01*
X142280399Y-124941515D01*
X142287275Y-124895160D01*
X142298662Y-124849703D01*
X142314449Y-124805581D01*
X142334485Y-124763219D01*
X142358577Y-124723024D01*
X142386492Y-124685385D01*
X142417962Y-124650662D01*
X142452685Y-124619192D01*
X142490324Y-124591277D01*
X142530519Y-124567185D01*
X142572881Y-124547149D01*
X142617003Y-124531362D01*
X142662460Y-124519975D01*
X142708815Y-124513099D01*
X142755620Y-124510800D01*
X142994380Y-124510800D01*
X143041185Y-124513099D01*
G37*
G36*
X141771185Y-124513099D02*
G01*
X141817540Y-124519975D01*
X141862997Y-124531362D01*
X141907119Y-124547149D01*
X141949481Y-124567185D01*
X141989676Y-124591277D01*
X142027315Y-124619192D01*
X142062038Y-124650662D01*
X142093508Y-124685385D01*
X142121423Y-124723024D01*
X142145515Y-124763219D01*
X142165551Y-124805581D01*
X142181338Y-124849703D01*
X142192725Y-124895160D01*
X142199601Y-124941515D01*
X142201900Y-124988320D01*
X142201900Y-127233680D01*
X142199601Y-127280485D01*
X142192725Y-127326840D01*
X142181338Y-127372297D01*
X142165551Y-127416419D01*
X142145515Y-127458781D01*
X142121423Y-127498976D01*
X142093508Y-127536615D01*
X142062038Y-127571338D01*
X142027315Y-127602808D01*
X141989676Y-127630723D01*
X141949481Y-127654815D01*
X141907119Y-127674851D01*
X141862997Y-127690638D01*
X141817540Y-127702025D01*
X141771185Y-127708901D01*
X141724380Y-127711200D01*
X141485620Y-127711200D01*
X141438815Y-127708901D01*
X141392460Y-127702025D01*
X141347003Y-127690638D01*
X141302881Y-127674851D01*
X141260519Y-127654815D01*
X141220324Y-127630723D01*
X141182685Y-127602808D01*
X141147962Y-127571338D01*
X141116492Y-127536615D01*
X141088577Y-127498976D01*
X141064485Y-127458781D01*
X141044449Y-127416419D01*
X141028662Y-127372297D01*
X141017275Y-127326840D01*
X141010399Y-127280485D01*
X141008100Y-127233680D01*
X141008100Y-124988320D01*
X141010399Y-124941515D01*
X141017275Y-124895160D01*
X141028662Y-124849703D01*
X141044449Y-124805581D01*
X141064485Y-124763219D01*
X141088577Y-124723024D01*
X141116492Y-124685385D01*
X141147962Y-124650662D01*
X141182685Y-124619192D01*
X141220324Y-124591277D01*
X141260519Y-124567185D01*
X141302881Y-124547149D01*
X141347003Y-124531362D01*
X141392460Y-124519975D01*
X141438815Y-124513099D01*
X141485620Y-124510800D01*
X141724380Y-124510800D01*
X141771185Y-124513099D01*
G37*
G36*
X140501185Y-124513099D02*
G01*
X140547540Y-124519975D01*
X140592997Y-124531362D01*
X140637119Y-124547149D01*
X140679481Y-124567185D01*
X140719676Y-124591277D01*
X140757315Y-124619192D01*
X140792038Y-124650662D01*
X140823508Y-124685385D01*
X140851423Y-124723024D01*
X140875515Y-124763219D01*
X140895551Y-124805581D01*
X140911338Y-124849703D01*
X140922725Y-124895160D01*
X140929601Y-124941515D01*
X140931900Y-124988320D01*
X140931900Y-127233680D01*
X140929601Y-127280485D01*
X140922725Y-127326840D01*
X140911338Y-127372297D01*
X140895551Y-127416419D01*
X140875515Y-127458781D01*
X140851423Y-127498976D01*
X140823508Y-127536615D01*
X140792038Y-127571338D01*
X140757315Y-127602808D01*
X140719676Y-127630723D01*
X140679481Y-127654815D01*
X140637119Y-127674851D01*
X140592997Y-127690638D01*
X140547540Y-127702025D01*
X140501185Y-127708901D01*
X140454380Y-127711200D01*
X140215620Y-127711200D01*
X140168815Y-127708901D01*
X140122460Y-127702025D01*
X140077003Y-127690638D01*
X140032881Y-127674851D01*
X139990519Y-127654815D01*
X139950324Y-127630723D01*
X139912685Y-127602808D01*
X139877962Y-127571338D01*
X139846492Y-127536615D01*
X139818577Y-127498976D01*
X139794485Y-127458781D01*
X139774449Y-127416419D01*
X139758662Y-127372297D01*
X139747275Y-127326840D01*
X139740399Y-127280485D01*
X139738100Y-127233680D01*
X139738100Y-124988320D01*
X139740399Y-124941515D01*
X139747275Y-124895160D01*
X139758662Y-124849703D01*
X139774449Y-124805581D01*
X139794485Y-124763219D01*
X139818577Y-124723024D01*
X139846492Y-124685385D01*
X139877962Y-124650662D01*
X139912685Y-124619192D01*
X139950324Y-124591277D01*
X139990519Y-124567185D01*
X140032881Y-124547149D01*
X140077003Y-124531362D01*
X140122460Y-124519975D01*
X140168815Y-124513099D01*
X140215620Y-124510800D01*
X140454380Y-124510800D01*
X140501185Y-124513099D01*
G37*
G36*
X139231185Y-124513099D02*
G01*
X139277540Y-124519975D01*
X139322997Y-124531362D01*
X139367119Y-124547149D01*
X139409481Y-124567185D01*
X139449676Y-124591277D01*
X139487315Y-124619192D01*
X139522038Y-124650662D01*
X139553508Y-124685385D01*
X139581423Y-124723024D01*
X139605515Y-124763219D01*
X139625551Y-124805581D01*
X139641338Y-124849703D01*
X139652725Y-124895160D01*
X139659601Y-124941515D01*
X139661900Y-124988320D01*
X139661900Y-127233680D01*
X139659601Y-127280485D01*
X139652725Y-127326840D01*
X139641338Y-127372297D01*
X139625551Y-127416419D01*
X139605515Y-127458781D01*
X139581423Y-127498976D01*
X139553508Y-127536615D01*
X139522038Y-127571338D01*
X139487315Y-127602808D01*
X139449676Y-127630723D01*
X139409481Y-127654815D01*
X139367119Y-127674851D01*
X139322997Y-127690638D01*
X139277540Y-127702025D01*
X139231185Y-127708901D01*
X139184380Y-127711200D01*
X138945620Y-127711200D01*
X138898815Y-127708901D01*
X138852460Y-127702025D01*
X138807003Y-127690638D01*
X138762881Y-127674851D01*
X138720519Y-127654815D01*
X138680324Y-127630723D01*
X138642685Y-127602808D01*
X138607962Y-127571338D01*
X138576492Y-127536615D01*
X138548577Y-127498976D01*
X138524485Y-127458781D01*
X138504449Y-127416419D01*
X138488662Y-127372297D01*
X138477275Y-127326840D01*
X138470399Y-127280485D01*
X138468100Y-127233680D01*
X138468100Y-124988320D01*
X138470399Y-124941515D01*
X138477275Y-124895160D01*
X138488662Y-124849703D01*
X138504449Y-124805581D01*
X138524485Y-124763219D01*
X138548577Y-124723024D01*
X138576492Y-124685385D01*
X138607962Y-124650662D01*
X138642685Y-124619192D01*
X138680324Y-124591277D01*
X138720519Y-124567185D01*
X138762881Y-124547149D01*
X138807003Y-124531362D01*
X138852460Y-124519975D01*
X138898815Y-124513099D01*
X138945620Y-124510800D01*
X139184380Y-124510800D01*
X139231185Y-124513099D01*
G37*
G36*
X137961185Y-124513099D02*
G01*
X138007540Y-124519975D01*
X138052997Y-124531362D01*
X138097119Y-124547149D01*
X138139481Y-124567185D01*
X138179676Y-124591277D01*
X138217315Y-124619192D01*
X138252038Y-124650662D01*
X138283508Y-124685385D01*
X138311423Y-124723024D01*
X138335515Y-124763219D01*
X138355551Y-124805581D01*
X138371338Y-124849703D01*
X138382725Y-124895160D01*
X138389601Y-124941515D01*
X138391900Y-124988320D01*
X138391900Y-127233680D01*
X138389601Y-127280485D01*
X138382725Y-127326840D01*
X138371338Y-127372297D01*
X138355551Y-127416419D01*
X138335515Y-127458781D01*
X138311423Y-127498976D01*
X138283508Y-127536615D01*
X138252038Y-127571338D01*
X138217315Y-127602808D01*
X138179676Y-127630723D01*
X138139481Y-127654815D01*
X138097119Y-127674851D01*
X138052997Y-127690638D01*
X138007540Y-127702025D01*
X137961185Y-127708901D01*
X137914380Y-127711200D01*
X137675620Y-127711200D01*
X137628815Y-127708901D01*
X137582460Y-127702025D01*
X137537003Y-127690638D01*
X137492881Y-127674851D01*
X137450519Y-127654815D01*
X137410324Y-127630723D01*
X137372685Y-127602808D01*
X137337962Y-127571338D01*
X137306492Y-127536615D01*
X137278577Y-127498976D01*
X137254485Y-127458781D01*
X137234449Y-127416419D01*
X137218662Y-127372297D01*
X137207275Y-127326840D01*
X137200399Y-127280485D01*
X137198100Y-127233680D01*
X137198100Y-124988320D01*
X137200399Y-124941515D01*
X137207275Y-124895160D01*
X137218662Y-124849703D01*
X137234449Y-124805581D01*
X137254485Y-124763219D01*
X137278577Y-124723024D01*
X137306492Y-124685385D01*
X137337962Y-124650662D01*
X137372685Y-124619192D01*
X137410324Y-124591277D01*
X137450519Y-124567185D01*
X137492881Y-124547149D01*
X137537003Y-124531362D01*
X137582460Y-124519975D01*
X137628815Y-124513099D01*
X137675620Y-124510800D01*
X137914380Y-124510800D01*
X137961185Y-124513099D01*
G37*
G36*
X136691185Y-124513099D02*
G01*
X136737540Y-124519975D01*
X136782997Y-124531362D01*
X136827119Y-124547149D01*
X136869481Y-124567185D01*
X136909676Y-124591277D01*
X136947315Y-124619192D01*
X136982038Y-124650662D01*
X137013508Y-124685385D01*
X137041423Y-124723024D01*
X137065515Y-124763219D01*
X137085551Y-124805581D01*
X137101338Y-124849703D01*
X137112725Y-124895160D01*
X137119601Y-124941515D01*
X137121900Y-124988320D01*
X137121900Y-127233680D01*
X137119601Y-127280485D01*
X137112725Y-127326840D01*
X137101338Y-127372297D01*
X137085551Y-127416419D01*
X137065515Y-127458781D01*
X137041423Y-127498976D01*
X137013508Y-127536615D01*
X136982038Y-127571338D01*
X136947315Y-127602808D01*
X136909676Y-127630723D01*
X136869481Y-127654815D01*
X136827119Y-127674851D01*
X136782997Y-127690638D01*
X136737540Y-127702025D01*
X136691185Y-127708901D01*
X136644380Y-127711200D01*
X136405620Y-127711200D01*
X136358815Y-127708901D01*
X136312460Y-127702025D01*
X136267003Y-127690638D01*
X136222881Y-127674851D01*
X136180519Y-127654815D01*
X136140324Y-127630723D01*
X136102685Y-127602808D01*
X136067962Y-127571338D01*
X136036492Y-127536615D01*
X136008577Y-127498976D01*
X135984485Y-127458781D01*
X135964449Y-127416419D01*
X135948662Y-127372297D01*
X135937275Y-127326840D01*
X135930399Y-127280485D01*
X135928100Y-127233680D01*
X135928100Y-124988320D01*
X135930399Y-124941515D01*
X135937275Y-124895160D01*
X135948662Y-124849703D01*
X135964449Y-124805581D01*
X135984485Y-124763219D01*
X136008577Y-124723024D01*
X136036492Y-124685385D01*
X136067962Y-124650662D01*
X136102685Y-124619192D01*
X136140324Y-124591277D01*
X136180519Y-124567185D01*
X136222881Y-124547149D01*
X136267003Y-124531362D01*
X136312460Y-124519975D01*
X136358815Y-124513099D01*
X136405620Y-124510800D01*
X136644380Y-124510800D01*
X136691185Y-124513099D01*
G37*
G36*
X135421185Y-124513099D02*
G01*
X135467540Y-124519975D01*
X135512997Y-124531362D01*
X135557119Y-124547149D01*
X135599481Y-124567185D01*
X135639676Y-124591277D01*
X135677315Y-124619192D01*
X135712038Y-124650662D01*
X135743508Y-124685385D01*
X135771423Y-124723024D01*
X135795515Y-124763219D01*
X135815551Y-124805581D01*
X135831338Y-124849703D01*
X135842725Y-124895160D01*
X135849601Y-124941515D01*
X135851900Y-124988320D01*
X135851900Y-127233680D01*
X135849601Y-127280485D01*
X135842725Y-127326840D01*
X135831338Y-127372297D01*
X135815551Y-127416419D01*
X135795515Y-127458781D01*
X135771423Y-127498976D01*
X135743508Y-127536615D01*
X135712038Y-127571338D01*
X135677315Y-127602808D01*
X135639676Y-127630723D01*
X135599481Y-127654815D01*
X135557119Y-127674851D01*
X135512997Y-127690638D01*
X135467540Y-127702025D01*
X135421185Y-127708901D01*
X135374380Y-127711200D01*
X135135620Y-127711200D01*
X135088815Y-127708901D01*
X135042460Y-127702025D01*
X134997003Y-127690638D01*
X134952881Y-127674851D01*
X134910519Y-127654815D01*
X134870324Y-127630723D01*
X134832685Y-127602808D01*
X134797962Y-127571338D01*
X134766492Y-127536615D01*
X134738577Y-127498976D01*
X134714485Y-127458781D01*
X134694449Y-127416419D01*
X134678662Y-127372297D01*
X134667275Y-127326840D01*
X134660399Y-127280485D01*
X134658100Y-127233680D01*
X134658100Y-124988320D01*
X134660399Y-124941515D01*
X134667275Y-124895160D01*
X134678662Y-124849703D01*
X134694449Y-124805581D01*
X134714485Y-124763219D01*
X134738577Y-124723024D01*
X134766492Y-124685385D01*
X134797962Y-124650662D01*
X134832685Y-124619192D01*
X134870324Y-124591277D01*
X134910519Y-124567185D01*
X134952881Y-124547149D01*
X134997003Y-124531362D01*
X135042460Y-124519975D01*
X135088815Y-124513099D01*
X135135620Y-124510800D01*
X135374380Y-124510800D01*
X135421185Y-124513099D01*
G37*
G36*
X134151185Y-124513099D02*
G01*
X134197540Y-124519975D01*
X134242997Y-124531362D01*
X134287119Y-124547149D01*
X134329481Y-124567185D01*
X134369676Y-124591277D01*
X134407315Y-124619192D01*
X134442038Y-124650662D01*
X134473508Y-124685385D01*
X134501423Y-124723024D01*
X134525515Y-124763219D01*
X134545551Y-124805581D01*
X134561338Y-124849703D01*
X134572725Y-124895160D01*
X134579601Y-124941515D01*
X134581900Y-124988320D01*
X134581900Y-127233680D01*
X134579601Y-127280485D01*
X134572725Y-127326840D01*
X134561338Y-127372297D01*
X134545551Y-127416419D01*
X134525515Y-127458781D01*
X134501423Y-127498976D01*
X134473508Y-127536615D01*
X134442038Y-127571338D01*
X134407315Y-127602808D01*
X134369676Y-127630723D01*
X134329481Y-127654815D01*
X134287119Y-127674851D01*
X134242997Y-127690638D01*
X134197540Y-127702025D01*
X134151185Y-127708901D01*
X134104380Y-127711200D01*
X133865620Y-127711200D01*
X133818815Y-127708901D01*
X133772460Y-127702025D01*
X133727003Y-127690638D01*
X133682881Y-127674851D01*
X133640519Y-127654815D01*
X133600324Y-127630723D01*
X133562685Y-127602808D01*
X133527962Y-127571338D01*
X133496492Y-127536615D01*
X133468577Y-127498976D01*
X133444485Y-127458781D01*
X133424449Y-127416419D01*
X133408662Y-127372297D01*
X133397275Y-127326840D01*
X133390399Y-127280485D01*
X133388100Y-127233680D01*
X133388100Y-124988320D01*
X133390399Y-124941515D01*
X133397275Y-124895160D01*
X133408662Y-124849703D01*
X133424449Y-124805581D01*
X133444485Y-124763219D01*
X133468577Y-124723024D01*
X133496492Y-124685385D01*
X133527962Y-124650662D01*
X133562685Y-124619192D01*
X133600324Y-124591277D01*
X133640519Y-124567185D01*
X133682881Y-124547149D01*
X133727003Y-124531362D01*
X133772460Y-124519975D01*
X133818815Y-124513099D01*
X133865620Y-124510800D01*
X134104380Y-124510800D01*
X134151185Y-124513099D01*
G37*
G36*
X132881185Y-124513099D02*
G01*
X132927540Y-124519975D01*
X132972997Y-124531362D01*
X133017119Y-124547149D01*
X133059481Y-124567185D01*
X133099676Y-124591277D01*
X133137315Y-124619192D01*
X133172038Y-124650662D01*
X133203508Y-124685385D01*
X133231423Y-124723024D01*
X133255515Y-124763219D01*
X133275551Y-124805581D01*
X133291338Y-124849703D01*
X133302725Y-124895160D01*
X133309601Y-124941515D01*
X133311900Y-124988320D01*
X133311900Y-127233680D01*
X133309601Y-127280485D01*
X133302725Y-127326840D01*
X133291338Y-127372297D01*
X133275551Y-127416419D01*
X133255515Y-127458781D01*
X133231423Y-127498976D01*
X133203508Y-127536615D01*
X133172038Y-127571338D01*
X133137315Y-127602808D01*
X133099676Y-127630723D01*
X133059481Y-127654815D01*
X133017119Y-127674851D01*
X132972997Y-127690638D01*
X132927540Y-127702025D01*
X132881185Y-127708901D01*
X132834380Y-127711200D01*
X132595620Y-127711200D01*
X132548815Y-127708901D01*
X132502460Y-127702025D01*
X132457003Y-127690638D01*
X132412881Y-127674851D01*
X132370519Y-127654815D01*
X132330324Y-127630723D01*
X132292685Y-127602808D01*
X132257962Y-127571338D01*
X132226492Y-127536615D01*
X132198577Y-127498976D01*
X132174485Y-127458781D01*
X132154449Y-127416419D01*
X132138662Y-127372297D01*
X132127275Y-127326840D01*
X132120399Y-127280485D01*
X132118100Y-127233680D01*
X132118100Y-124988320D01*
X132120399Y-124941515D01*
X132127275Y-124895160D01*
X132138662Y-124849703D01*
X132154449Y-124805581D01*
X132174485Y-124763219D01*
X132198577Y-124723024D01*
X132226492Y-124685385D01*
X132257962Y-124650662D01*
X132292685Y-124619192D01*
X132330324Y-124591277D01*
X132370519Y-124567185D01*
X132412881Y-124547149D01*
X132457003Y-124531362D01*
X132502460Y-124519975D01*
X132548815Y-124513099D01*
X132595620Y-124510800D01*
X132834380Y-124510800D01*
X132881185Y-124513099D01*
G37*
G36*
X131611185Y-124513099D02*
G01*
X131657540Y-124519975D01*
X131702997Y-124531362D01*
X131747119Y-124547149D01*
X131789481Y-124567185D01*
X131829676Y-124591277D01*
X131867315Y-124619192D01*
X131902038Y-124650662D01*
X131933508Y-124685385D01*
X131961423Y-124723024D01*
X131985515Y-124763219D01*
X132005551Y-124805581D01*
X132021338Y-124849703D01*
X132032725Y-124895160D01*
X132039601Y-124941515D01*
X132041900Y-124988320D01*
X132041900Y-127233680D01*
X132039601Y-127280485D01*
X132032725Y-127326840D01*
X132021338Y-127372297D01*
X132005551Y-127416419D01*
X131985515Y-127458781D01*
X131961423Y-127498976D01*
X131933508Y-127536615D01*
X131902038Y-127571338D01*
X131867315Y-127602808D01*
X131829676Y-127630723D01*
X131789481Y-127654815D01*
X131747119Y-127674851D01*
X131702997Y-127690638D01*
X131657540Y-127702025D01*
X131611185Y-127708901D01*
X131564380Y-127711200D01*
X131325620Y-127711200D01*
X131278815Y-127708901D01*
X131232460Y-127702025D01*
X131187003Y-127690638D01*
X131142881Y-127674851D01*
X131100519Y-127654815D01*
X131060324Y-127630723D01*
X131022685Y-127602808D01*
X130987962Y-127571338D01*
X130956492Y-127536615D01*
X130928577Y-127498976D01*
X130904485Y-127458781D01*
X130884449Y-127416419D01*
X130868662Y-127372297D01*
X130857275Y-127326840D01*
X130850399Y-127280485D01*
X130848100Y-127233680D01*
X130848100Y-124988320D01*
X130850399Y-124941515D01*
X130857275Y-124895160D01*
X130868662Y-124849703D01*
X130884449Y-124805581D01*
X130904485Y-124763219D01*
X130928577Y-124723024D01*
X130956492Y-124685385D01*
X130987962Y-124650662D01*
X131022685Y-124619192D01*
X131060324Y-124591277D01*
X131100519Y-124567185D01*
X131142881Y-124547149D01*
X131187003Y-124531362D01*
X131232460Y-124519975D01*
X131278815Y-124513099D01*
X131325620Y-124510800D01*
X131564380Y-124510800D01*
X131611185Y-124513099D01*
G37*
G36*
X130341185Y-124513099D02*
G01*
X130387540Y-124519975D01*
X130432997Y-124531362D01*
X130477119Y-124547149D01*
X130519481Y-124567185D01*
X130559676Y-124591277D01*
X130597315Y-124619192D01*
X130632038Y-124650662D01*
X130663508Y-124685385D01*
X130691423Y-124723024D01*
X130715515Y-124763219D01*
X130735551Y-124805581D01*
X130751338Y-124849703D01*
X130762725Y-124895160D01*
X130769601Y-124941515D01*
X130771900Y-124988320D01*
X130771900Y-127233680D01*
X130769601Y-127280485D01*
X130762725Y-127326840D01*
X130751338Y-127372297D01*
X130735551Y-127416419D01*
X130715515Y-127458781D01*
X130691423Y-127498976D01*
X130663508Y-127536615D01*
X130632038Y-127571338D01*
X130597315Y-127602808D01*
X130559676Y-127630723D01*
X130519481Y-127654815D01*
X130477119Y-127674851D01*
X130432997Y-127690638D01*
X130387540Y-127702025D01*
X130341185Y-127708901D01*
X130294380Y-127711200D01*
X130055620Y-127711200D01*
X130008815Y-127708901D01*
X129962460Y-127702025D01*
X129917003Y-127690638D01*
X129872881Y-127674851D01*
X129830519Y-127654815D01*
X129790324Y-127630723D01*
X129752685Y-127602808D01*
X129717962Y-127571338D01*
X129686492Y-127536615D01*
X129658577Y-127498976D01*
X129634485Y-127458781D01*
X129614449Y-127416419D01*
X129598662Y-127372297D01*
X129587275Y-127326840D01*
X129580399Y-127280485D01*
X129578100Y-127233680D01*
X129578100Y-124988320D01*
X129580399Y-124941515D01*
X129587275Y-124895160D01*
X129598662Y-124849703D01*
X129614449Y-124805581D01*
X129634485Y-124763219D01*
X129658577Y-124723024D01*
X129686492Y-124685385D01*
X129717962Y-124650662D01*
X129752685Y-124619192D01*
X129790324Y-124591277D01*
X129830519Y-124567185D01*
X129872881Y-124547149D01*
X129917003Y-124531362D01*
X129962460Y-124519975D01*
X130008815Y-124513099D01*
X130055620Y-124510800D01*
X130294380Y-124510800D01*
X130341185Y-124513099D01*
G37*
G36*
X129071185Y-124513099D02*
G01*
X129117540Y-124519975D01*
X129162997Y-124531362D01*
X129207119Y-124547149D01*
X129249481Y-124567185D01*
X129289676Y-124591277D01*
X129327315Y-124619192D01*
X129362038Y-124650662D01*
X129393508Y-124685385D01*
X129421423Y-124723024D01*
X129445515Y-124763219D01*
X129465551Y-124805581D01*
X129481338Y-124849703D01*
X129492725Y-124895160D01*
X129499601Y-124941515D01*
X129501900Y-124988320D01*
X129501900Y-127233680D01*
X129499601Y-127280485D01*
X129492725Y-127326840D01*
X129481338Y-127372297D01*
X129465551Y-127416419D01*
X129445515Y-127458781D01*
X129421423Y-127498976D01*
X129393508Y-127536615D01*
X129362038Y-127571338D01*
X129327315Y-127602808D01*
X129289676Y-127630723D01*
X129249481Y-127654815D01*
X129207119Y-127674851D01*
X129162997Y-127690638D01*
X129117540Y-127702025D01*
X129071185Y-127708901D01*
X129024380Y-127711200D01*
X128785620Y-127711200D01*
X128738815Y-127708901D01*
X128692460Y-127702025D01*
X128647003Y-127690638D01*
X128602881Y-127674851D01*
X128560519Y-127654815D01*
X128520324Y-127630723D01*
X128482685Y-127602808D01*
X128447962Y-127571338D01*
X128416492Y-127536615D01*
X128388577Y-127498976D01*
X128364485Y-127458781D01*
X128344449Y-127416419D01*
X128328662Y-127372297D01*
X128317275Y-127326840D01*
X128310399Y-127280485D01*
X128308100Y-127233680D01*
X128308100Y-124988320D01*
X128310399Y-124941515D01*
X128317275Y-124895160D01*
X128328662Y-124849703D01*
X128344449Y-124805581D01*
X128364485Y-124763219D01*
X128388577Y-124723024D01*
X128416492Y-124685385D01*
X128447962Y-124650662D01*
X128482685Y-124619192D01*
X128520324Y-124591277D01*
X128560519Y-124567185D01*
X128602881Y-124547149D01*
X128647003Y-124531362D01*
X128692460Y-124519975D01*
X128738815Y-124513099D01*
X128785620Y-124510800D01*
X129024380Y-124510800D01*
X129071185Y-124513099D01*
G37*
G36*
X127801185Y-124513099D02*
G01*
X127847540Y-124519975D01*
X127892997Y-124531362D01*
X127937119Y-124547149D01*
X127979481Y-124567185D01*
X128019676Y-124591277D01*
X128057315Y-124619192D01*
X128092038Y-124650662D01*
X128123508Y-124685385D01*
X128151423Y-124723024D01*
X128175515Y-124763219D01*
X128195551Y-124805581D01*
X128211338Y-124849703D01*
X128222725Y-124895160D01*
X128229601Y-124941515D01*
X128231900Y-124988320D01*
X128231900Y-127233680D01*
X128229601Y-127280485D01*
X128222725Y-127326840D01*
X128211338Y-127372297D01*
X128195551Y-127416419D01*
X128175515Y-127458781D01*
X128151423Y-127498976D01*
X128123508Y-127536615D01*
X128092038Y-127571338D01*
X128057315Y-127602808D01*
X128019676Y-127630723D01*
X127979481Y-127654815D01*
X127937119Y-127674851D01*
X127892997Y-127690638D01*
X127847540Y-127702025D01*
X127801185Y-127708901D01*
X127754380Y-127711200D01*
X127515620Y-127711200D01*
X127468815Y-127708901D01*
X127422460Y-127702025D01*
X127377003Y-127690638D01*
X127332881Y-127674851D01*
X127290519Y-127654815D01*
X127250324Y-127630723D01*
X127212685Y-127602808D01*
X127177962Y-127571338D01*
X127146492Y-127536615D01*
X127118577Y-127498976D01*
X127094485Y-127458781D01*
X127074449Y-127416419D01*
X127058662Y-127372297D01*
X127047275Y-127326840D01*
X127040399Y-127280485D01*
X127038100Y-127233680D01*
X127038100Y-124988320D01*
X127040399Y-124941515D01*
X127047275Y-124895160D01*
X127058662Y-124849703D01*
X127074449Y-124805581D01*
X127094485Y-124763219D01*
X127118577Y-124723024D01*
X127146492Y-124685385D01*
X127177962Y-124650662D01*
X127212685Y-124619192D01*
X127250324Y-124591277D01*
X127290519Y-124567185D01*
X127332881Y-124547149D01*
X127377003Y-124531362D01*
X127422460Y-124519975D01*
X127468815Y-124513099D01*
X127515620Y-124510800D01*
X127754380Y-124510800D01*
X127801185Y-124513099D01*
G37*
G36*
X126531185Y-124513099D02*
G01*
X126577540Y-124519975D01*
X126622997Y-124531362D01*
X126667119Y-124547149D01*
X126709481Y-124567185D01*
X126749676Y-124591277D01*
X126787315Y-124619192D01*
X126822038Y-124650662D01*
X126853508Y-124685385D01*
X126881423Y-124723024D01*
X126905515Y-124763219D01*
X126925551Y-124805581D01*
X126941338Y-124849703D01*
X126952725Y-124895160D01*
X126959601Y-124941515D01*
X126961900Y-124988320D01*
X126961900Y-127233680D01*
X126959601Y-127280485D01*
X126952725Y-127326840D01*
X126941338Y-127372297D01*
X126925551Y-127416419D01*
X126905515Y-127458781D01*
X126881423Y-127498976D01*
X126853508Y-127536615D01*
X126822038Y-127571338D01*
X126787315Y-127602808D01*
X126749676Y-127630723D01*
X126709481Y-127654815D01*
X126667119Y-127674851D01*
X126622997Y-127690638D01*
X126577540Y-127702025D01*
X126531185Y-127708901D01*
X126484380Y-127711200D01*
X126245620Y-127711200D01*
X126198815Y-127708901D01*
X126152460Y-127702025D01*
X126107003Y-127690638D01*
X126062881Y-127674851D01*
X126020519Y-127654815D01*
X125980324Y-127630723D01*
X125942685Y-127602808D01*
X125907962Y-127571338D01*
X125876492Y-127536615D01*
X125848577Y-127498976D01*
X125824485Y-127458781D01*
X125804449Y-127416419D01*
X125788662Y-127372297D01*
X125777275Y-127326840D01*
X125770399Y-127280485D01*
X125768100Y-127233680D01*
X125768100Y-124988320D01*
X125770399Y-124941515D01*
X125777275Y-124895160D01*
X125788662Y-124849703D01*
X125804449Y-124805581D01*
X125824485Y-124763219D01*
X125848577Y-124723024D01*
X125876492Y-124685385D01*
X125907962Y-124650662D01*
X125942685Y-124619192D01*
X125980324Y-124591277D01*
X126020519Y-124567185D01*
X126062881Y-124547149D01*
X126107003Y-124531362D01*
X126152460Y-124519975D01*
X126198815Y-124513099D01*
X126245620Y-124510800D01*
X126484380Y-124510800D01*
X126531185Y-124513099D01*
G37*
G36*
X125261185Y-124513099D02*
G01*
X125307540Y-124519975D01*
X125352997Y-124531362D01*
X125397119Y-124547149D01*
X125439481Y-124567185D01*
X125479676Y-124591277D01*
X125517315Y-124619192D01*
X125552038Y-124650662D01*
X125583508Y-124685385D01*
X125611423Y-124723024D01*
X125635515Y-124763219D01*
X125655551Y-124805581D01*
X125671338Y-124849703D01*
X125682725Y-124895160D01*
X125689601Y-124941515D01*
X125691900Y-124988320D01*
X125691900Y-127233680D01*
X125689601Y-127280485D01*
X125682725Y-127326840D01*
X125671338Y-127372297D01*
X125655551Y-127416419D01*
X125635515Y-127458781D01*
X125611423Y-127498976D01*
X125583508Y-127536615D01*
X125552038Y-127571338D01*
X125517315Y-127602808D01*
X125479676Y-127630723D01*
X125439481Y-127654815D01*
X125397119Y-127674851D01*
X125352997Y-127690638D01*
X125307540Y-127702025D01*
X125261185Y-127708901D01*
X125214380Y-127711200D01*
X124975620Y-127711200D01*
X124928815Y-127708901D01*
X124882460Y-127702025D01*
X124837003Y-127690638D01*
X124792881Y-127674851D01*
X124750519Y-127654815D01*
X124710324Y-127630723D01*
X124672685Y-127602808D01*
X124637962Y-127571338D01*
X124606492Y-127536615D01*
X124578577Y-127498976D01*
X124554485Y-127458781D01*
X124534449Y-127416419D01*
X124518662Y-127372297D01*
X124507275Y-127326840D01*
X124500399Y-127280485D01*
X124498100Y-127233680D01*
X124498100Y-124988320D01*
X124500399Y-124941515D01*
X124507275Y-124895160D01*
X124518662Y-124849703D01*
X124534449Y-124805581D01*
X124554485Y-124763219D01*
X124578577Y-124723024D01*
X124606492Y-124685385D01*
X124637962Y-124650662D01*
X124672685Y-124619192D01*
X124710324Y-124591277D01*
X124750519Y-124567185D01*
X124792881Y-124547149D01*
X124837003Y-124531362D01*
X124882460Y-124519975D01*
X124928815Y-124513099D01*
X124975620Y-124510800D01*
X125214380Y-124510800D01*
X125261185Y-124513099D01*
G37*
G36*
X123991185Y-124513099D02*
G01*
X124037540Y-124519975D01*
X124082997Y-124531362D01*
X124127119Y-124547149D01*
X124169481Y-124567185D01*
X124209676Y-124591277D01*
X124247315Y-124619192D01*
X124282038Y-124650662D01*
X124313508Y-124685385D01*
X124341423Y-124723024D01*
X124365515Y-124763219D01*
X124385551Y-124805581D01*
X124401338Y-124849703D01*
X124412725Y-124895160D01*
X124419601Y-124941515D01*
X124421900Y-124988320D01*
X124421900Y-127233680D01*
X124419601Y-127280485D01*
X124412725Y-127326840D01*
X124401338Y-127372297D01*
X124385551Y-127416419D01*
X124365515Y-127458781D01*
X124341423Y-127498976D01*
X124313508Y-127536615D01*
X124282038Y-127571338D01*
X124247315Y-127602808D01*
X124209676Y-127630723D01*
X124169481Y-127654815D01*
X124127119Y-127674851D01*
X124082997Y-127690638D01*
X124037540Y-127702025D01*
X123991185Y-127708901D01*
X123944380Y-127711200D01*
X123705620Y-127711200D01*
X123658815Y-127708901D01*
X123612460Y-127702025D01*
X123567003Y-127690638D01*
X123522881Y-127674851D01*
X123480519Y-127654815D01*
X123440324Y-127630723D01*
X123402685Y-127602808D01*
X123367962Y-127571338D01*
X123336492Y-127536615D01*
X123308577Y-127498976D01*
X123284485Y-127458781D01*
X123264449Y-127416419D01*
X123248662Y-127372297D01*
X123237275Y-127326840D01*
X123230399Y-127280485D01*
X123228100Y-127233680D01*
X123228100Y-124988320D01*
X123230399Y-124941515D01*
X123237275Y-124895160D01*
X123248662Y-124849703D01*
X123264449Y-124805581D01*
X123284485Y-124763219D01*
X123308577Y-124723024D01*
X123336492Y-124685385D01*
X123367962Y-124650662D01*
X123402685Y-124619192D01*
X123440324Y-124591277D01*
X123480519Y-124567185D01*
X123522881Y-124547149D01*
X123567003Y-124531362D01*
X123612460Y-124519975D01*
X123658815Y-124513099D01*
X123705620Y-124510800D01*
X123944380Y-124510800D01*
X123991185Y-124513099D01*
G37*
G36*
X117641185Y-124513099D02*
G01*
X117687540Y-124519975D01*
X117732997Y-124531362D01*
X117777119Y-124547149D01*
X117819481Y-124567185D01*
X117859676Y-124591277D01*
X117897315Y-124619192D01*
X117932038Y-124650662D01*
X117963508Y-124685385D01*
X117991423Y-124723024D01*
X118015515Y-124763219D01*
X118035551Y-124805581D01*
X118051338Y-124849703D01*
X118062725Y-124895160D01*
X118069601Y-124941515D01*
X118071900Y-124988320D01*
X118071900Y-127233680D01*
X118069601Y-127280485D01*
X118062725Y-127326840D01*
X118051338Y-127372297D01*
X118035551Y-127416419D01*
X118015515Y-127458781D01*
X117991423Y-127498976D01*
X117963508Y-127536615D01*
X117932038Y-127571338D01*
X117897315Y-127602808D01*
X117859676Y-127630723D01*
X117819481Y-127654815D01*
X117777119Y-127674851D01*
X117732997Y-127690638D01*
X117687540Y-127702025D01*
X117641185Y-127708901D01*
X117594380Y-127711200D01*
X117355620Y-127711200D01*
X117308815Y-127708901D01*
X117262460Y-127702025D01*
X117217003Y-127690638D01*
X117172881Y-127674851D01*
X117130519Y-127654815D01*
X117090324Y-127630723D01*
X117052685Y-127602808D01*
X117017962Y-127571338D01*
X116986492Y-127536615D01*
X116958577Y-127498976D01*
X116934485Y-127458781D01*
X116914449Y-127416419D01*
X116898662Y-127372297D01*
X116887275Y-127326840D01*
X116880399Y-127280485D01*
X116878100Y-127233680D01*
X116878100Y-124988320D01*
X116880399Y-124941515D01*
X116887275Y-124895160D01*
X116898662Y-124849703D01*
X116914449Y-124805581D01*
X116934485Y-124763219D01*
X116958577Y-124723024D01*
X116986492Y-124685385D01*
X117017962Y-124650662D01*
X117052685Y-124619192D01*
X117090324Y-124591277D01*
X117130519Y-124567185D01*
X117172881Y-124547149D01*
X117217003Y-124531362D01*
X117262460Y-124519975D01*
X117308815Y-124513099D01*
X117355620Y-124510800D01*
X117594380Y-124510800D01*
X117641185Y-124513099D01*
G37*
G36*
X116371185Y-124513099D02*
G01*
X116417540Y-124519975D01*
X116462997Y-124531362D01*
X116507119Y-124547149D01*
X116549481Y-124567185D01*
X116589676Y-124591277D01*
X116627315Y-124619192D01*
X116662038Y-124650662D01*
X116693508Y-124685385D01*
X116721423Y-124723024D01*
X116745515Y-124763219D01*
X116765551Y-124805581D01*
X116781338Y-124849703D01*
X116792725Y-124895160D01*
X116799601Y-124941515D01*
X116801900Y-124988320D01*
X116801900Y-127233680D01*
X116799601Y-127280485D01*
X116792725Y-127326840D01*
X116781338Y-127372297D01*
X116765551Y-127416419D01*
X116745515Y-127458781D01*
X116721423Y-127498976D01*
X116693508Y-127536615D01*
X116662038Y-127571338D01*
X116627315Y-127602808D01*
X116589676Y-127630723D01*
X116549481Y-127654815D01*
X116507119Y-127674851D01*
X116462997Y-127690638D01*
X116417540Y-127702025D01*
X116371185Y-127708901D01*
X116324380Y-127711200D01*
X116085620Y-127711200D01*
X116038815Y-127708901D01*
X115992460Y-127702025D01*
X115947003Y-127690638D01*
X115902881Y-127674851D01*
X115860519Y-127654815D01*
X115820324Y-127630723D01*
X115782685Y-127602808D01*
X115747962Y-127571338D01*
X115716492Y-127536615D01*
X115688577Y-127498976D01*
X115664485Y-127458781D01*
X115644449Y-127416419D01*
X115628662Y-127372297D01*
X115617275Y-127326840D01*
X115610399Y-127280485D01*
X115608100Y-127233680D01*
X115608100Y-124988320D01*
X115610399Y-124941515D01*
X115617275Y-124895160D01*
X115628662Y-124849703D01*
X115644449Y-124805581D01*
X115664485Y-124763219D01*
X115688577Y-124723024D01*
X115716492Y-124685385D01*
X115747962Y-124650662D01*
X115782685Y-124619192D01*
X115820324Y-124591277D01*
X115860519Y-124567185D01*
X115902881Y-124547149D01*
X115947003Y-124531362D01*
X115992460Y-124519975D01*
X116038815Y-124513099D01*
X116085620Y-124510800D01*
X116324380Y-124510800D01*
X116371185Y-124513099D01*
G37*
G36*
X115101185Y-124513099D02*
G01*
X115147540Y-124519975D01*
X115192997Y-124531362D01*
X115237119Y-124547149D01*
X115279481Y-124567185D01*
X115319676Y-124591277D01*
X115357315Y-124619192D01*
X115392038Y-124650662D01*
X115423508Y-124685385D01*
X115451423Y-124723024D01*
X115475515Y-124763219D01*
X115495551Y-124805581D01*
X115511338Y-124849703D01*
X115522725Y-124895160D01*
X115529601Y-124941515D01*
X115531900Y-124988320D01*
X115531900Y-127233680D01*
X115529601Y-127280485D01*
X115522725Y-127326840D01*
X115511338Y-127372297D01*
X115495551Y-127416419D01*
X115475515Y-127458781D01*
X115451423Y-127498976D01*
X115423508Y-127536615D01*
X115392038Y-127571338D01*
X115357315Y-127602808D01*
X115319676Y-127630723D01*
X115279481Y-127654815D01*
X115237119Y-127674851D01*
X115192997Y-127690638D01*
X115147540Y-127702025D01*
X115101185Y-127708901D01*
X115054380Y-127711200D01*
X114815620Y-127711200D01*
X114768815Y-127708901D01*
X114722460Y-127702025D01*
X114677003Y-127690638D01*
X114632881Y-127674851D01*
X114590519Y-127654815D01*
X114550324Y-127630723D01*
X114512685Y-127602808D01*
X114477962Y-127571338D01*
X114446492Y-127536615D01*
X114418577Y-127498976D01*
X114394485Y-127458781D01*
X114374449Y-127416419D01*
X114358662Y-127372297D01*
X114347275Y-127326840D01*
X114340399Y-127280485D01*
X114338100Y-127233680D01*
X114338100Y-124988320D01*
X114340399Y-124941515D01*
X114347275Y-124895160D01*
X114358662Y-124849703D01*
X114374449Y-124805581D01*
X114394485Y-124763219D01*
X114418577Y-124723024D01*
X114446492Y-124685385D01*
X114477962Y-124650662D01*
X114512685Y-124619192D01*
X114550324Y-124591277D01*
X114590519Y-124567185D01*
X114632881Y-124547149D01*
X114677003Y-124531362D01*
X114722460Y-124519975D01*
X114768815Y-124513099D01*
X114815620Y-124510800D01*
X115054380Y-124510800D01*
X115101185Y-124513099D01*
G37*
G36*
X113831185Y-124513099D02*
G01*
X113877540Y-124519975D01*
X113922997Y-124531362D01*
X113967119Y-124547149D01*
X114009481Y-124567185D01*
X114049676Y-124591277D01*
X114087315Y-124619192D01*
X114122038Y-124650662D01*
X114153508Y-124685385D01*
X114181423Y-124723024D01*
X114205515Y-124763219D01*
X114225551Y-124805581D01*
X114241338Y-124849703D01*
X114252725Y-124895160D01*
X114259601Y-124941515D01*
X114261900Y-124988320D01*
X114261900Y-127233680D01*
X114259601Y-127280485D01*
X114252725Y-127326840D01*
X114241338Y-127372297D01*
X114225551Y-127416419D01*
X114205515Y-127458781D01*
X114181423Y-127498976D01*
X114153508Y-127536615D01*
X114122038Y-127571338D01*
X114087315Y-127602808D01*
X114049676Y-127630723D01*
X114009481Y-127654815D01*
X113967119Y-127674851D01*
X113922997Y-127690638D01*
X113877540Y-127702025D01*
X113831185Y-127708901D01*
X113784380Y-127711200D01*
X113545620Y-127711200D01*
X113498815Y-127708901D01*
X113452460Y-127702025D01*
X113407003Y-127690638D01*
X113362881Y-127674851D01*
X113320519Y-127654815D01*
X113280324Y-127630723D01*
X113242685Y-127602808D01*
X113207962Y-127571338D01*
X113176492Y-127536615D01*
X113148577Y-127498976D01*
X113124485Y-127458781D01*
X113104449Y-127416419D01*
X113088662Y-127372297D01*
X113077275Y-127326840D01*
X113070399Y-127280485D01*
X113068100Y-127233680D01*
X113068100Y-124988320D01*
X113070399Y-124941515D01*
X113077275Y-124895160D01*
X113088662Y-124849703D01*
X113104449Y-124805581D01*
X113124485Y-124763219D01*
X113148577Y-124723024D01*
X113176492Y-124685385D01*
X113207962Y-124650662D01*
X113242685Y-124619192D01*
X113280324Y-124591277D01*
X113320519Y-124567185D01*
X113362881Y-124547149D01*
X113407003Y-124531362D01*
X113452460Y-124519975D01*
X113498815Y-124513099D01*
X113545620Y-124510800D01*
X113784380Y-124510800D01*
X113831185Y-124513099D01*
G37*
G36*
X112561185Y-124513099D02*
G01*
X112607540Y-124519975D01*
X112652997Y-124531362D01*
X112697119Y-124547149D01*
X112739481Y-124567185D01*
X112779676Y-124591277D01*
X112817315Y-124619192D01*
X112852038Y-124650662D01*
X112883508Y-124685385D01*
X112911423Y-124723024D01*
X112935515Y-124763219D01*
X112955551Y-124805581D01*
X112971338Y-124849703D01*
X112982725Y-124895160D01*
X112989601Y-124941515D01*
X112991900Y-124988320D01*
X112991900Y-127233680D01*
X112989601Y-127280485D01*
X112982725Y-127326840D01*
X112971338Y-127372297D01*
X112955551Y-127416419D01*
X112935515Y-127458781D01*
X112911423Y-127498976D01*
X112883508Y-127536615D01*
X112852038Y-127571338D01*
X112817315Y-127602808D01*
X112779676Y-127630723D01*
X112739481Y-127654815D01*
X112697119Y-127674851D01*
X112652997Y-127690638D01*
X112607540Y-127702025D01*
X112561185Y-127708901D01*
X112514380Y-127711200D01*
X112275620Y-127711200D01*
X112228815Y-127708901D01*
X112182460Y-127702025D01*
X112137003Y-127690638D01*
X112092881Y-127674851D01*
X112050519Y-127654815D01*
X112010324Y-127630723D01*
X111972685Y-127602808D01*
X111937962Y-127571338D01*
X111906492Y-127536615D01*
X111878577Y-127498976D01*
X111854485Y-127458781D01*
X111834449Y-127416419D01*
X111818662Y-127372297D01*
X111807275Y-127326840D01*
X111800399Y-127280485D01*
X111798100Y-127233680D01*
X111798100Y-124988320D01*
X111800399Y-124941515D01*
X111807275Y-124895160D01*
X111818662Y-124849703D01*
X111834449Y-124805581D01*
X111854485Y-124763219D01*
X111878577Y-124723024D01*
X111906492Y-124685385D01*
X111937962Y-124650662D01*
X111972685Y-124619192D01*
X112010324Y-124591277D01*
X112050519Y-124567185D01*
X112092881Y-124547149D01*
X112137003Y-124531362D01*
X112182460Y-124519975D01*
X112228815Y-124513099D01*
X112275620Y-124510800D01*
X112514380Y-124510800D01*
X112561185Y-124513099D01*
G37*
G36*
X111291185Y-124513099D02*
G01*
X111337540Y-124519975D01*
X111382997Y-124531362D01*
X111427119Y-124547149D01*
X111469481Y-124567185D01*
X111509676Y-124591277D01*
X111547315Y-124619192D01*
X111582038Y-124650662D01*
X111613508Y-124685385D01*
X111641423Y-124723024D01*
X111665515Y-124763219D01*
X111685551Y-124805581D01*
X111701338Y-124849703D01*
X111712725Y-124895160D01*
X111719601Y-124941515D01*
X111721900Y-124988320D01*
X111721900Y-127233680D01*
X111719601Y-127280485D01*
X111712725Y-127326840D01*
X111701338Y-127372297D01*
X111685551Y-127416419D01*
X111665515Y-127458781D01*
X111641423Y-127498976D01*
X111613508Y-127536615D01*
X111582038Y-127571338D01*
X111547315Y-127602808D01*
X111509676Y-127630723D01*
X111469481Y-127654815D01*
X111427119Y-127674851D01*
X111382997Y-127690638D01*
X111337540Y-127702025D01*
X111291185Y-127708901D01*
X111244380Y-127711200D01*
X111005620Y-127711200D01*
X110958815Y-127708901D01*
X110912460Y-127702025D01*
X110867003Y-127690638D01*
X110822881Y-127674851D01*
X110780519Y-127654815D01*
X110740324Y-127630723D01*
X110702685Y-127602808D01*
X110667962Y-127571338D01*
X110636492Y-127536615D01*
X110608577Y-127498976D01*
X110584485Y-127458781D01*
X110564449Y-127416419D01*
X110548662Y-127372297D01*
X110537275Y-127326840D01*
X110530399Y-127280485D01*
X110528100Y-127233680D01*
X110528100Y-124988320D01*
X110530399Y-124941515D01*
X110537275Y-124895160D01*
X110548662Y-124849703D01*
X110564449Y-124805581D01*
X110584485Y-124763219D01*
X110608577Y-124723024D01*
X110636492Y-124685385D01*
X110667962Y-124650662D01*
X110702685Y-124619192D01*
X110740324Y-124591277D01*
X110780519Y-124567185D01*
X110822881Y-124547149D01*
X110867003Y-124531362D01*
X110912460Y-124519975D01*
X110958815Y-124513099D01*
X111005620Y-124510800D01*
X111244380Y-124510800D01*
X111291185Y-124513099D01*
G37*
G36*
X110021185Y-124513099D02*
G01*
X110067540Y-124519975D01*
X110112997Y-124531362D01*
X110157119Y-124547149D01*
X110199481Y-124567185D01*
X110239676Y-124591277D01*
X110277315Y-124619192D01*
X110312038Y-124650662D01*
X110343508Y-124685385D01*
X110371423Y-124723024D01*
X110395515Y-124763219D01*
X110415551Y-124805581D01*
X110431338Y-124849703D01*
X110442725Y-124895160D01*
X110449601Y-124941515D01*
X110451900Y-124988320D01*
X110451900Y-127233680D01*
X110449601Y-127280485D01*
X110442725Y-127326840D01*
X110431338Y-127372297D01*
X110415551Y-127416419D01*
X110395515Y-127458781D01*
X110371423Y-127498976D01*
X110343508Y-127536615D01*
X110312038Y-127571338D01*
X110277315Y-127602808D01*
X110239676Y-127630723D01*
X110199481Y-127654815D01*
X110157119Y-127674851D01*
X110112997Y-127690638D01*
X110067540Y-127702025D01*
X110021185Y-127708901D01*
X109974380Y-127711200D01*
X109735620Y-127711200D01*
X109688815Y-127708901D01*
X109642460Y-127702025D01*
X109597003Y-127690638D01*
X109552881Y-127674851D01*
X109510519Y-127654815D01*
X109470324Y-127630723D01*
X109432685Y-127602808D01*
X109397962Y-127571338D01*
X109366492Y-127536615D01*
X109338577Y-127498976D01*
X109314485Y-127458781D01*
X109294449Y-127416419D01*
X109278662Y-127372297D01*
X109267275Y-127326840D01*
X109260399Y-127280485D01*
X109258100Y-127233680D01*
X109258100Y-124988320D01*
X109260399Y-124941515D01*
X109267275Y-124895160D01*
X109278662Y-124849703D01*
X109294449Y-124805581D01*
X109314485Y-124763219D01*
X109338577Y-124723024D01*
X109366492Y-124685385D01*
X109397962Y-124650662D01*
X109432685Y-124619192D01*
X109470324Y-124591277D01*
X109510519Y-124567185D01*
X109552881Y-124547149D01*
X109597003Y-124531362D01*
X109642460Y-124519975D01*
X109688815Y-124513099D01*
X109735620Y-124510800D01*
X109974380Y-124510800D01*
X110021185Y-124513099D01*
G37*
G36*
X108751185Y-124513099D02*
G01*
X108797540Y-124519975D01*
X108842997Y-124531362D01*
X108887119Y-124547149D01*
X108929481Y-124567185D01*
X108969676Y-124591277D01*
X109007315Y-124619192D01*
X109042038Y-124650662D01*
X109073508Y-124685385D01*
X109101423Y-124723024D01*
X109125515Y-124763219D01*
X109145551Y-124805581D01*
X109161338Y-124849703D01*
X109172725Y-124895160D01*
X109179601Y-124941515D01*
X109181900Y-124988320D01*
X109181900Y-127233680D01*
X109179601Y-127280485D01*
X109172725Y-127326840D01*
X109161338Y-127372297D01*
X109145551Y-127416419D01*
X109125515Y-127458781D01*
X109101423Y-127498976D01*
X109073508Y-127536615D01*
X109042038Y-127571338D01*
X109007315Y-127602808D01*
X108969676Y-127630723D01*
X108929481Y-127654815D01*
X108887119Y-127674851D01*
X108842997Y-127690638D01*
X108797540Y-127702025D01*
X108751185Y-127708901D01*
X108704380Y-127711200D01*
X108465620Y-127711200D01*
X108418815Y-127708901D01*
X108372460Y-127702025D01*
X108327003Y-127690638D01*
X108282881Y-127674851D01*
X108240519Y-127654815D01*
X108200324Y-127630723D01*
X108162685Y-127602808D01*
X108127962Y-127571338D01*
X108096492Y-127536615D01*
X108068577Y-127498976D01*
X108044485Y-127458781D01*
X108024449Y-127416419D01*
X108008662Y-127372297D01*
X107997275Y-127326840D01*
X107990399Y-127280485D01*
X107988100Y-127233680D01*
X107988100Y-124988320D01*
X107990399Y-124941515D01*
X107997275Y-124895160D01*
X108008662Y-124849703D01*
X108024449Y-124805581D01*
X108044485Y-124763219D01*
X108068577Y-124723024D01*
X108096492Y-124685385D01*
X108127962Y-124650662D01*
X108162685Y-124619192D01*
X108200324Y-124591277D01*
X108240519Y-124567185D01*
X108282881Y-124547149D01*
X108327003Y-124531362D01*
X108372460Y-124519975D01*
X108418815Y-124513099D01*
X108465620Y-124510800D01*
X108704380Y-124510800D01*
X108751185Y-124513099D01*
G37*
G36*
X107481185Y-124513099D02*
G01*
X107527540Y-124519975D01*
X107572997Y-124531362D01*
X107617119Y-124547149D01*
X107659481Y-124567185D01*
X107699676Y-124591277D01*
X107737315Y-124619192D01*
X107772038Y-124650662D01*
X107803508Y-124685385D01*
X107831423Y-124723024D01*
X107855515Y-124763219D01*
X107875551Y-124805581D01*
X107891338Y-124849703D01*
X107902725Y-124895160D01*
X107909601Y-124941515D01*
X107911900Y-124988320D01*
X107911900Y-127233680D01*
X107909601Y-127280485D01*
X107902725Y-127326840D01*
X107891338Y-127372297D01*
X107875551Y-127416419D01*
X107855515Y-127458781D01*
X107831423Y-127498976D01*
X107803508Y-127536615D01*
X107772038Y-127571338D01*
X107737315Y-127602808D01*
X107699676Y-127630723D01*
X107659481Y-127654815D01*
X107617119Y-127674851D01*
X107572997Y-127690638D01*
X107527540Y-127702025D01*
X107481185Y-127708901D01*
X107434380Y-127711200D01*
X107195620Y-127711200D01*
X107148815Y-127708901D01*
X107102460Y-127702025D01*
X107057003Y-127690638D01*
X107012881Y-127674851D01*
X106970519Y-127654815D01*
X106930324Y-127630723D01*
X106892685Y-127602808D01*
X106857962Y-127571338D01*
X106826492Y-127536615D01*
X106798577Y-127498976D01*
X106774485Y-127458781D01*
X106754449Y-127416419D01*
X106738662Y-127372297D01*
X106727275Y-127326840D01*
X106720399Y-127280485D01*
X106718100Y-127233680D01*
X106718100Y-124988320D01*
X106720399Y-124941515D01*
X106727275Y-124895160D01*
X106738662Y-124849703D01*
X106754449Y-124805581D01*
X106774485Y-124763219D01*
X106798577Y-124723024D01*
X106826492Y-124685385D01*
X106857962Y-124650662D01*
X106892685Y-124619192D01*
X106930324Y-124591277D01*
X106970519Y-124567185D01*
X107012881Y-124547149D01*
X107057003Y-124531362D01*
X107102460Y-124519975D01*
X107148815Y-124513099D01*
X107195620Y-124510800D01*
X107434380Y-124510800D01*
X107481185Y-124513099D01*
G37*
G36*
X106211185Y-124513099D02*
G01*
X106257540Y-124519975D01*
X106302997Y-124531362D01*
X106347119Y-124547149D01*
X106389481Y-124567185D01*
X106429676Y-124591277D01*
X106467315Y-124619192D01*
X106502038Y-124650662D01*
X106533508Y-124685385D01*
X106561423Y-124723024D01*
X106585515Y-124763219D01*
X106605551Y-124805581D01*
X106621338Y-124849703D01*
X106632725Y-124895160D01*
X106639601Y-124941515D01*
X106641900Y-124988320D01*
X106641900Y-127233680D01*
X106639601Y-127280485D01*
X106632725Y-127326840D01*
X106621338Y-127372297D01*
X106605551Y-127416419D01*
X106585515Y-127458781D01*
X106561423Y-127498976D01*
X106533508Y-127536615D01*
X106502038Y-127571338D01*
X106467315Y-127602808D01*
X106429676Y-127630723D01*
X106389481Y-127654815D01*
X106347119Y-127674851D01*
X106302997Y-127690638D01*
X106257540Y-127702025D01*
X106211185Y-127708901D01*
X106164380Y-127711200D01*
X105925620Y-127711200D01*
X105878815Y-127708901D01*
X105832460Y-127702025D01*
X105787003Y-127690638D01*
X105742881Y-127674851D01*
X105700519Y-127654815D01*
X105660324Y-127630723D01*
X105622685Y-127602808D01*
X105587962Y-127571338D01*
X105556492Y-127536615D01*
X105528577Y-127498976D01*
X105504485Y-127458781D01*
X105484449Y-127416419D01*
X105468662Y-127372297D01*
X105457275Y-127326840D01*
X105450399Y-127280485D01*
X105448100Y-127233680D01*
X105448100Y-124988320D01*
X105450399Y-124941515D01*
X105457275Y-124895160D01*
X105468662Y-124849703D01*
X105484449Y-124805581D01*
X105504485Y-124763219D01*
X105528577Y-124723024D01*
X105556492Y-124685385D01*
X105587962Y-124650662D01*
X105622685Y-124619192D01*
X105660324Y-124591277D01*
X105700519Y-124567185D01*
X105742881Y-124547149D01*
X105787003Y-124531362D01*
X105832460Y-124519975D01*
X105878815Y-124513099D01*
X105925620Y-124510800D01*
X106164380Y-124510800D01*
X106211185Y-124513099D01*
G37*
G36*
X104941185Y-124513099D02*
G01*
X104987540Y-124519975D01*
X105032997Y-124531362D01*
X105077119Y-124547149D01*
X105119481Y-124567185D01*
X105159676Y-124591277D01*
X105197315Y-124619192D01*
X105232038Y-124650662D01*
X105263508Y-124685385D01*
X105291423Y-124723024D01*
X105315515Y-124763219D01*
X105335551Y-124805581D01*
X105351338Y-124849703D01*
X105362725Y-124895160D01*
X105369601Y-124941515D01*
X105371900Y-124988320D01*
X105371900Y-127233680D01*
X105369601Y-127280485D01*
X105362725Y-127326840D01*
X105351338Y-127372297D01*
X105335551Y-127416419D01*
X105315515Y-127458781D01*
X105291423Y-127498976D01*
X105263508Y-127536615D01*
X105232038Y-127571338D01*
X105197315Y-127602808D01*
X105159676Y-127630723D01*
X105119481Y-127654815D01*
X105077119Y-127674851D01*
X105032997Y-127690638D01*
X104987540Y-127702025D01*
X104941185Y-127708901D01*
X104894380Y-127711200D01*
X104655620Y-127711200D01*
X104608815Y-127708901D01*
X104562460Y-127702025D01*
X104517003Y-127690638D01*
X104472881Y-127674851D01*
X104430519Y-127654815D01*
X104390324Y-127630723D01*
X104352685Y-127602808D01*
X104317962Y-127571338D01*
X104286492Y-127536615D01*
X104258577Y-127498976D01*
X104234485Y-127458781D01*
X104214449Y-127416419D01*
X104198662Y-127372297D01*
X104187275Y-127326840D01*
X104180399Y-127280485D01*
X104178100Y-127233680D01*
X104178100Y-124988320D01*
X104180399Y-124941515D01*
X104187275Y-124895160D01*
X104198662Y-124849703D01*
X104214449Y-124805581D01*
X104234485Y-124763219D01*
X104258577Y-124723024D01*
X104286492Y-124685385D01*
X104317962Y-124650662D01*
X104352685Y-124619192D01*
X104390324Y-124591277D01*
X104430519Y-124567185D01*
X104472881Y-124547149D01*
X104517003Y-124531362D01*
X104562460Y-124519975D01*
X104608815Y-124513099D01*
X104655620Y-124510800D01*
X104894380Y-124510800D01*
X104941185Y-124513099D01*
G37*
G36*
X103671185Y-124513099D02*
G01*
X103717540Y-124519975D01*
X103762997Y-124531362D01*
X103807119Y-124547149D01*
X103849481Y-124567185D01*
X103889676Y-124591277D01*
X103927315Y-124619192D01*
X103962038Y-124650662D01*
X103993508Y-124685385D01*
X104021423Y-124723024D01*
X104045515Y-124763219D01*
X104065551Y-124805581D01*
X104081338Y-124849703D01*
X104092725Y-124895160D01*
X104099601Y-124941515D01*
X104101900Y-124988320D01*
X104101900Y-127233680D01*
X104099601Y-127280485D01*
X104092725Y-127326840D01*
X104081338Y-127372297D01*
X104065551Y-127416419D01*
X104045515Y-127458781D01*
X104021423Y-127498976D01*
X103993508Y-127536615D01*
X103962038Y-127571338D01*
X103927315Y-127602808D01*
X103889676Y-127630723D01*
X103849481Y-127654815D01*
X103807119Y-127674851D01*
X103762997Y-127690638D01*
X103717540Y-127702025D01*
X103671185Y-127708901D01*
X103624380Y-127711200D01*
X103385620Y-127711200D01*
X103338815Y-127708901D01*
X103292460Y-127702025D01*
X103247003Y-127690638D01*
X103202881Y-127674851D01*
X103160519Y-127654815D01*
X103120324Y-127630723D01*
X103082685Y-127602808D01*
X103047962Y-127571338D01*
X103016492Y-127536615D01*
X102988577Y-127498976D01*
X102964485Y-127458781D01*
X102944449Y-127416419D01*
X102928662Y-127372297D01*
X102917275Y-127326840D01*
X102910399Y-127280485D01*
X102908100Y-127233680D01*
X102908100Y-124988320D01*
X102910399Y-124941515D01*
X102917275Y-124895160D01*
X102928662Y-124849703D01*
X102944449Y-124805581D01*
X102964485Y-124763219D01*
X102988577Y-124723024D01*
X103016492Y-124685385D01*
X103047962Y-124650662D01*
X103082685Y-124619192D01*
X103120324Y-124591277D01*
X103160519Y-124567185D01*
X103202881Y-124547149D01*
X103247003Y-124531362D01*
X103292460Y-124519975D01*
X103338815Y-124513099D01*
X103385620Y-124510800D01*
X103624380Y-124510800D01*
X103671185Y-124513099D01*
G37*
G36*
X102401185Y-124513099D02*
G01*
X102447540Y-124519975D01*
X102492997Y-124531362D01*
X102537119Y-124547149D01*
X102579481Y-124567185D01*
X102619676Y-124591277D01*
X102657315Y-124619192D01*
X102692038Y-124650662D01*
X102723508Y-124685385D01*
X102751423Y-124723024D01*
X102775515Y-124763219D01*
X102795551Y-124805581D01*
X102811338Y-124849703D01*
X102822725Y-124895160D01*
X102829601Y-124941515D01*
X102831900Y-124988320D01*
X102831900Y-127233680D01*
X102829601Y-127280485D01*
X102822725Y-127326840D01*
X102811338Y-127372297D01*
X102795551Y-127416419D01*
X102775515Y-127458781D01*
X102751423Y-127498976D01*
X102723508Y-127536615D01*
X102692038Y-127571338D01*
X102657315Y-127602808D01*
X102619676Y-127630723D01*
X102579481Y-127654815D01*
X102537119Y-127674851D01*
X102492997Y-127690638D01*
X102447540Y-127702025D01*
X102401185Y-127708901D01*
X102354380Y-127711200D01*
X102115620Y-127711200D01*
X102068815Y-127708901D01*
X102022460Y-127702025D01*
X101977003Y-127690638D01*
X101932881Y-127674851D01*
X101890519Y-127654815D01*
X101850324Y-127630723D01*
X101812685Y-127602808D01*
X101777962Y-127571338D01*
X101746492Y-127536615D01*
X101718577Y-127498976D01*
X101694485Y-127458781D01*
X101674449Y-127416419D01*
X101658662Y-127372297D01*
X101647275Y-127326840D01*
X101640399Y-127280485D01*
X101638100Y-127233680D01*
X101638100Y-124988320D01*
X101640399Y-124941515D01*
X101647275Y-124895160D01*
X101658662Y-124849703D01*
X101674449Y-124805581D01*
X101694485Y-124763219D01*
X101718577Y-124723024D01*
X101746492Y-124685385D01*
X101777962Y-124650662D01*
X101812685Y-124619192D01*
X101850324Y-124591277D01*
X101890519Y-124567185D01*
X101932881Y-124547149D01*
X101977003Y-124531362D01*
X102022460Y-124519975D01*
X102068815Y-124513099D01*
X102115620Y-124510800D01*
X102354380Y-124510800D01*
X102401185Y-124513099D01*
G37*
G36*
X101131185Y-124513099D02*
G01*
X101177540Y-124519975D01*
X101222997Y-124531362D01*
X101267119Y-124547149D01*
X101309481Y-124567185D01*
X101349676Y-124591277D01*
X101387315Y-124619192D01*
X101422038Y-124650662D01*
X101453508Y-124685385D01*
X101481423Y-124723024D01*
X101505515Y-124763219D01*
X101525551Y-124805581D01*
X101541338Y-124849703D01*
X101552725Y-124895160D01*
X101559601Y-124941515D01*
X101561900Y-124988320D01*
X101561900Y-127233680D01*
X101559601Y-127280485D01*
X101552725Y-127326840D01*
X101541338Y-127372297D01*
X101525551Y-127416419D01*
X101505515Y-127458781D01*
X101481423Y-127498976D01*
X101453508Y-127536615D01*
X101422038Y-127571338D01*
X101387315Y-127602808D01*
X101349676Y-127630723D01*
X101309481Y-127654815D01*
X101267119Y-127674851D01*
X101222997Y-127690638D01*
X101177540Y-127702025D01*
X101131185Y-127708901D01*
X101084380Y-127711200D01*
X100845620Y-127711200D01*
X100798815Y-127708901D01*
X100752460Y-127702025D01*
X100707003Y-127690638D01*
X100662881Y-127674851D01*
X100620519Y-127654815D01*
X100580324Y-127630723D01*
X100542685Y-127602808D01*
X100507962Y-127571338D01*
X100476492Y-127536615D01*
X100448577Y-127498976D01*
X100424485Y-127458781D01*
X100404449Y-127416419D01*
X100388662Y-127372297D01*
X100377275Y-127326840D01*
X100370399Y-127280485D01*
X100368100Y-127233680D01*
X100368100Y-124988320D01*
X100370399Y-124941515D01*
X100377275Y-124895160D01*
X100388662Y-124849703D01*
X100404449Y-124805581D01*
X100424485Y-124763219D01*
X100448577Y-124723024D01*
X100476492Y-124685385D01*
X100507962Y-124650662D01*
X100542685Y-124619192D01*
X100580324Y-124591277D01*
X100620519Y-124567185D01*
X100662881Y-124547149D01*
X100707003Y-124531362D01*
X100752460Y-124519975D01*
X100798815Y-124513099D01*
X100845620Y-124510800D01*
X101084380Y-124510800D01*
X101131185Y-124513099D01*
G37*
G36*
X99861185Y-124513099D02*
G01*
X99907540Y-124519975D01*
X99952997Y-124531362D01*
X99997119Y-124547149D01*
X100039481Y-124567185D01*
X100079676Y-124591277D01*
X100117315Y-124619192D01*
X100152038Y-124650662D01*
X100183508Y-124685385D01*
X100211423Y-124723024D01*
X100235515Y-124763219D01*
X100255551Y-124805581D01*
X100271338Y-124849703D01*
X100282725Y-124895160D01*
X100289601Y-124941515D01*
X100291900Y-124988320D01*
X100291900Y-127233680D01*
X100289601Y-127280485D01*
X100282725Y-127326840D01*
X100271338Y-127372297D01*
X100255551Y-127416419D01*
X100235515Y-127458781D01*
X100211423Y-127498976D01*
X100183508Y-127536615D01*
X100152038Y-127571338D01*
X100117315Y-127602808D01*
X100079676Y-127630723D01*
X100039481Y-127654815D01*
X99997119Y-127674851D01*
X99952997Y-127690638D01*
X99907540Y-127702025D01*
X99861185Y-127708901D01*
X99814380Y-127711200D01*
X99575620Y-127711200D01*
X99528815Y-127708901D01*
X99482460Y-127702025D01*
X99437003Y-127690638D01*
X99392881Y-127674851D01*
X99350519Y-127654815D01*
X99310324Y-127630723D01*
X99272685Y-127602808D01*
X99237962Y-127571338D01*
X99206492Y-127536615D01*
X99178577Y-127498976D01*
X99154485Y-127458781D01*
X99134449Y-127416419D01*
X99118662Y-127372297D01*
X99107275Y-127326840D01*
X99100399Y-127280485D01*
X99098100Y-127233680D01*
X99098100Y-124988320D01*
X99100399Y-124941515D01*
X99107275Y-124895160D01*
X99118662Y-124849703D01*
X99134449Y-124805581D01*
X99154485Y-124763219D01*
X99178577Y-124723024D01*
X99206492Y-124685385D01*
X99237962Y-124650662D01*
X99272685Y-124619192D01*
X99310324Y-124591277D01*
X99350519Y-124567185D01*
X99392881Y-124547149D01*
X99437003Y-124531362D01*
X99482460Y-124519975D01*
X99528815Y-124513099D01*
X99575620Y-124510800D01*
X99814380Y-124510800D01*
X99861185Y-124513099D01*
G37*
G36*
X98591185Y-124513099D02*
G01*
X98637540Y-124519975D01*
X98682997Y-124531362D01*
X98727119Y-124547149D01*
X98769481Y-124567185D01*
X98809676Y-124591277D01*
X98847315Y-124619192D01*
X98882038Y-124650662D01*
X98913508Y-124685385D01*
X98941423Y-124723024D01*
X98965515Y-124763219D01*
X98985551Y-124805581D01*
X99001338Y-124849703D01*
X99012725Y-124895160D01*
X99019601Y-124941515D01*
X99021900Y-124988320D01*
X99021900Y-127233680D01*
X99019601Y-127280485D01*
X99012725Y-127326840D01*
X99001338Y-127372297D01*
X98985551Y-127416419D01*
X98965515Y-127458781D01*
X98941423Y-127498976D01*
X98913508Y-127536615D01*
X98882038Y-127571338D01*
X98847315Y-127602808D01*
X98809676Y-127630723D01*
X98769481Y-127654815D01*
X98727119Y-127674851D01*
X98682997Y-127690638D01*
X98637540Y-127702025D01*
X98591185Y-127708901D01*
X98544380Y-127711200D01*
X98305620Y-127711200D01*
X98258815Y-127708901D01*
X98212460Y-127702025D01*
X98167003Y-127690638D01*
X98122881Y-127674851D01*
X98080519Y-127654815D01*
X98040324Y-127630723D01*
X98002685Y-127602808D01*
X97967962Y-127571338D01*
X97936492Y-127536615D01*
X97908577Y-127498976D01*
X97884485Y-127458781D01*
X97864449Y-127416419D01*
X97848662Y-127372297D01*
X97837275Y-127326840D01*
X97830399Y-127280485D01*
X97828100Y-127233680D01*
X97828100Y-124988320D01*
X97830399Y-124941515D01*
X97837275Y-124895160D01*
X97848662Y-124849703D01*
X97864449Y-124805581D01*
X97884485Y-124763219D01*
X97908577Y-124723024D01*
X97936492Y-124685385D01*
X97967962Y-124650662D01*
X98002685Y-124619192D01*
X98040324Y-124591277D01*
X98080519Y-124567185D01*
X98122881Y-124547149D01*
X98167003Y-124531362D01*
X98212460Y-124519975D01*
X98258815Y-124513099D01*
X98305620Y-124510800D01*
X98544380Y-124510800D01*
X98591185Y-124513099D01*
G37*
G36*
X97321185Y-124513099D02*
G01*
X97367540Y-124519975D01*
X97412997Y-124531362D01*
X97457119Y-124547149D01*
X97499481Y-124567185D01*
X97539676Y-124591277D01*
X97577315Y-124619192D01*
X97612038Y-124650662D01*
X97643508Y-124685385D01*
X97671423Y-124723024D01*
X97695515Y-124763219D01*
X97715551Y-124805581D01*
X97731338Y-124849703D01*
X97742725Y-124895160D01*
X97749601Y-124941515D01*
X97751900Y-124988320D01*
X97751900Y-127233680D01*
X97749601Y-127280485D01*
X97742725Y-127326840D01*
X97731338Y-127372297D01*
X97715551Y-127416419D01*
X97695515Y-127458781D01*
X97671423Y-127498976D01*
X97643508Y-127536615D01*
X97612038Y-127571338D01*
X97577315Y-127602808D01*
X97539676Y-127630723D01*
X97499481Y-127654815D01*
X97457119Y-127674851D01*
X97412997Y-127690638D01*
X97367540Y-127702025D01*
X97321185Y-127708901D01*
X97274380Y-127711200D01*
X97035620Y-127711200D01*
X96988815Y-127708901D01*
X96942460Y-127702025D01*
X96897003Y-127690638D01*
X96852881Y-127674851D01*
X96810519Y-127654815D01*
X96770324Y-127630723D01*
X96732685Y-127602808D01*
X96697962Y-127571338D01*
X96666492Y-127536615D01*
X96638577Y-127498976D01*
X96614485Y-127458781D01*
X96594449Y-127416419D01*
X96578662Y-127372297D01*
X96567275Y-127326840D01*
X96560399Y-127280485D01*
X96558100Y-127233680D01*
X96558100Y-124988320D01*
X96560399Y-124941515D01*
X96567275Y-124895160D01*
X96578662Y-124849703D01*
X96594449Y-124805581D01*
X96614485Y-124763219D01*
X96638577Y-124723024D01*
X96666492Y-124685385D01*
X96697962Y-124650662D01*
X96732685Y-124619192D01*
X96770324Y-124591277D01*
X96810519Y-124567185D01*
X96852881Y-124547149D01*
X96897003Y-124531362D01*
X96942460Y-124519975D01*
X96988815Y-124513099D01*
X97035620Y-124510800D01*
X97274380Y-124510800D01*
X97321185Y-124513099D01*
G37*
G36*
X96051185Y-124513099D02*
G01*
X96097540Y-124519975D01*
X96142997Y-124531362D01*
X96187119Y-124547149D01*
X96229481Y-124567185D01*
X96269676Y-124591277D01*
X96307315Y-124619192D01*
X96342038Y-124650662D01*
X96373508Y-124685385D01*
X96401423Y-124723024D01*
X96425515Y-124763219D01*
X96445551Y-124805581D01*
X96461338Y-124849703D01*
X96472725Y-124895160D01*
X96479601Y-124941515D01*
X96481900Y-124988320D01*
X96481900Y-127233680D01*
X96479601Y-127280485D01*
X96472725Y-127326840D01*
X96461338Y-127372297D01*
X96445551Y-127416419D01*
X96425515Y-127458781D01*
X96401423Y-127498976D01*
X96373508Y-127536615D01*
X96342038Y-127571338D01*
X96307315Y-127602808D01*
X96269676Y-127630723D01*
X96229481Y-127654815D01*
X96187119Y-127674851D01*
X96142997Y-127690638D01*
X96097540Y-127702025D01*
X96051185Y-127708901D01*
X96004380Y-127711200D01*
X95765620Y-127711200D01*
X95718815Y-127708901D01*
X95672460Y-127702025D01*
X95627003Y-127690638D01*
X95582881Y-127674851D01*
X95540519Y-127654815D01*
X95500324Y-127630723D01*
X95462685Y-127602808D01*
X95427962Y-127571338D01*
X95396492Y-127536615D01*
X95368577Y-127498976D01*
X95344485Y-127458781D01*
X95324449Y-127416419D01*
X95308662Y-127372297D01*
X95297275Y-127326840D01*
X95290399Y-127280485D01*
X95288100Y-127233680D01*
X95288100Y-124988320D01*
X95290399Y-124941515D01*
X95297275Y-124895160D01*
X95308662Y-124849703D01*
X95324449Y-124805581D01*
X95344485Y-124763219D01*
X95368577Y-124723024D01*
X95396492Y-124685385D01*
X95427962Y-124650662D01*
X95462685Y-124619192D01*
X95500324Y-124591277D01*
X95540519Y-124567185D01*
X95582881Y-124547149D01*
X95627003Y-124531362D01*
X95672460Y-124519975D01*
X95718815Y-124513099D01*
X95765620Y-124510800D01*
X96004380Y-124510800D01*
X96051185Y-124513099D01*
G37*
G36*
X94781185Y-124513099D02*
G01*
X94827540Y-124519975D01*
X94872997Y-124531362D01*
X94917119Y-124547149D01*
X94959481Y-124567185D01*
X94999676Y-124591277D01*
X95037315Y-124619192D01*
X95072038Y-124650662D01*
X95103508Y-124685385D01*
X95131423Y-124723024D01*
X95155515Y-124763219D01*
X95175551Y-124805581D01*
X95191338Y-124849703D01*
X95202725Y-124895160D01*
X95209601Y-124941515D01*
X95211900Y-124988320D01*
X95211900Y-127233680D01*
X95209601Y-127280485D01*
X95202725Y-127326840D01*
X95191338Y-127372297D01*
X95175551Y-127416419D01*
X95155515Y-127458781D01*
X95131423Y-127498976D01*
X95103508Y-127536615D01*
X95072038Y-127571338D01*
X95037315Y-127602808D01*
X94999676Y-127630723D01*
X94959481Y-127654815D01*
X94917119Y-127674851D01*
X94872997Y-127690638D01*
X94827540Y-127702025D01*
X94781185Y-127708901D01*
X94734380Y-127711200D01*
X94495620Y-127711200D01*
X94448815Y-127708901D01*
X94402460Y-127702025D01*
X94357003Y-127690638D01*
X94312881Y-127674851D01*
X94270519Y-127654815D01*
X94230324Y-127630723D01*
X94192685Y-127602808D01*
X94157962Y-127571338D01*
X94126492Y-127536615D01*
X94098577Y-127498976D01*
X94074485Y-127458781D01*
X94054449Y-127416419D01*
X94038662Y-127372297D01*
X94027275Y-127326840D01*
X94020399Y-127280485D01*
X94018100Y-127233680D01*
X94018100Y-124988320D01*
X94020399Y-124941515D01*
X94027275Y-124895160D01*
X94038662Y-124849703D01*
X94054449Y-124805581D01*
X94074485Y-124763219D01*
X94098577Y-124723024D01*
X94126492Y-124685385D01*
X94157962Y-124650662D01*
X94192685Y-124619192D01*
X94230324Y-124591277D01*
X94270519Y-124567185D01*
X94312881Y-124547149D01*
X94357003Y-124531362D01*
X94402460Y-124519975D01*
X94448815Y-124513099D01*
X94495620Y-124510800D01*
X94734380Y-124510800D01*
X94781185Y-124513099D01*
G37*
G36*
X93511185Y-124513099D02*
G01*
X93557540Y-124519975D01*
X93602997Y-124531362D01*
X93647119Y-124547149D01*
X93689481Y-124567185D01*
X93729676Y-124591277D01*
X93767315Y-124619192D01*
X93802038Y-124650662D01*
X93833508Y-124685385D01*
X93861423Y-124723024D01*
X93885515Y-124763219D01*
X93905551Y-124805581D01*
X93921338Y-124849703D01*
X93932725Y-124895160D01*
X93939601Y-124941515D01*
X93941900Y-124988320D01*
X93941900Y-127233680D01*
X93939601Y-127280485D01*
X93932725Y-127326840D01*
X93921338Y-127372297D01*
X93905551Y-127416419D01*
X93885515Y-127458781D01*
X93861423Y-127498976D01*
X93833508Y-127536615D01*
X93802038Y-127571338D01*
X93767315Y-127602808D01*
X93729676Y-127630723D01*
X93689481Y-127654815D01*
X93647119Y-127674851D01*
X93602997Y-127690638D01*
X93557540Y-127702025D01*
X93511185Y-127708901D01*
X93464380Y-127711200D01*
X93225620Y-127711200D01*
X93178815Y-127708901D01*
X93132460Y-127702025D01*
X93087003Y-127690638D01*
X93042881Y-127674851D01*
X93000519Y-127654815D01*
X92960324Y-127630723D01*
X92922685Y-127602808D01*
X92887962Y-127571338D01*
X92856492Y-127536615D01*
X92828577Y-127498976D01*
X92804485Y-127458781D01*
X92784449Y-127416419D01*
X92768662Y-127372297D01*
X92757275Y-127326840D01*
X92750399Y-127280485D01*
X92748100Y-127233680D01*
X92748100Y-124988320D01*
X92750399Y-124941515D01*
X92757275Y-124895160D01*
X92768662Y-124849703D01*
X92784449Y-124805581D01*
X92804485Y-124763219D01*
X92828577Y-124723024D01*
X92856492Y-124685385D01*
X92887962Y-124650662D01*
X92922685Y-124619192D01*
X92960324Y-124591277D01*
X93000519Y-124567185D01*
X93042881Y-124547149D01*
X93087003Y-124531362D01*
X93132460Y-124519975D01*
X93178815Y-124513099D01*
X93225620Y-124510800D01*
X93464380Y-124510800D01*
X93511185Y-124513099D01*
G37*
G36*
X92241185Y-124513099D02*
G01*
X92287540Y-124519975D01*
X92332997Y-124531362D01*
X92377119Y-124547149D01*
X92419481Y-124567185D01*
X92459676Y-124591277D01*
X92497315Y-124619192D01*
X92532038Y-124650662D01*
X92563508Y-124685385D01*
X92591423Y-124723024D01*
X92615515Y-124763219D01*
X92635551Y-124805581D01*
X92651338Y-124849703D01*
X92662725Y-124895160D01*
X92669601Y-124941515D01*
X92671900Y-124988320D01*
X92671900Y-127233680D01*
X92669601Y-127280485D01*
X92662725Y-127326840D01*
X92651338Y-127372297D01*
X92635551Y-127416419D01*
X92615515Y-127458781D01*
X92591423Y-127498976D01*
X92563508Y-127536615D01*
X92532038Y-127571338D01*
X92497315Y-127602808D01*
X92459676Y-127630723D01*
X92419481Y-127654815D01*
X92377119Y-127674851D01*
X92332997Y-127690638D01*
X92287540Y-127702025D01*
X92241185Y-127708901D01*
X92194380Y-127711200D01*
X91955620Y-127711200D01*
X91908815Y-127708901D01*
X91862460Y-127702025D01*
X91817003Y-127690638D01*
X91772881Y-127674851D01*
X91730519Y-127654815D01*
X91690324Y-127630723D01*
X91652685Y-127602808D01*
X91617962Y-127571338D01*
X91586492Y-127536615D01*
X91558577Y-127498976D01*
X91534485Y-127458781D01*
X91514449Y-127416419D01*
X91498662Y-127372297D01*
X91487275Y-127326840D01*
X91480399Y-127280485D01*
X91478100Y-127233680D01*
X91478100Y-124988320D01*
X91480399Y-124941515D01*
X91487275Y-124895160D01*
X91498662Y-124849703D01*
X91514449Y-124805581D01*
X91534485Y-124763219D01*
X91558577Y-124723024D01*
X91586492Y-124685385D01*
X91617962Y-124650662D01*
X91652685Y-124619192D01*
X91690324Y-124591277D01*
X91730519Y-124567185D01*
X91772881Y-124547149D01*
X91817003Y-124531362D01*
X91862460Y-124519975D01*
X91908815Y-124513099D01*
X91955620Y-124510800D01*
X92194380Y-124510800D01*
X92241185Y-124513099D01*
G37*
G36*
X90971185Y-124513099D02*
G01*
X91017540Y-124519975D01*
X91062997Y-124531362D01*
X91107119Y-124547149D01*
X91149481Y-124567185D01*
X91189676Y-124591277D01*
X91227315Y-124619192D01*
X91262038Y-124650662D01*
X91293508Y-124685385D01*
X91321423Y-124723024D01*
X91345515Y-124763219D01*
X91365551Y-124805581D01*
X91381338Y-124849703D01*
X91392725Y-124895160D01*
X91399601Y-124941515D01*
X91401900Y-124988320D01*
X91401900Y-127233680D01*
X91399601Y-127280485D01*
X91392725Y-127326840D01*
X91381338Y-127372297D01*
X91365551Y-127416419D01*
X91345515Y-127458781D01*
X91321423Y-127498976D01*
X91293508Y-127536615D01*
X91262038Y-127571338D01*
X91227315Y-127602808D01*
X91189676Y-127630723D01*
X91149481Y-127654815D01*
X91107119Y-127674851D01*
X91062997Y-127690638D01*
X91017540Y-127702025D01*
X90971185Y-127708901D01*
X90924380Y-127711200D01*
X90685620Y-127711200D01*
X90638815Y-127708901D01*
X90592460Y-127702025D01*
X90547003Y-127690638D01*
X90502881Y-127674851D01*
X90460519Y-127654815D01*
X90420324Y-127630723D01*
X90382685Y-127602808D01*
X90347962Y-127571338D01*
X90316492Y-127536615D01*
X90288577Y-127498976D01*
X90264485Y-127458781D01*
X90244449Y-127416419D01*
X90228662Y-127372297D01*
X90217275Y-127326840D01*
X90210399Y-127280485D01*
X90208100Y-127233680D01*
X90208100Y-124988320D01*
X90210399Y-124941515D01*
X90217275Y-124895160D01*
X90228662Y-124849703D01*
X90244449Y-124805581D01*
X90264485Y-124763219D01*
X90288577Y-124723024D01*
X90316492Y-124685385D01*
X90347962Y-124650662D01*
X90382685Y-124619192D01*
X90420324Y-124591277D01*
X90460519Y-124567185D01*
X90502881Y-124547149D01*
X90547003Y-124531362D01*
X90592460Y-124519975D01*
X90638815Y-124513099D01*
X90685620Y-124510800D01*
X90924380Y-124510800D01*
X90971185Y-124513099D01*
G37*
G36*
X89701185Y-124513099D02*
G01*
X89747540Y-124519975D01*
X89792997Y-124531362D01*
X89837119Y-124547149D01*
X89879481Y-124567185D01*
X89919676Y-124591277D01*
X89957315Y-124619192D01*
X89992038Y-124650662D01*
X90023508Y-124685385D01*
X90051423Y-124723024D01*
X90075515Y-124763219D01*
X90095551Y-124805581D01*
X90111338Y-124849703D01*
X90122725Y-124895160D01*
X90129601Y-124941515D01*
X90131900Y-124988320D01*
X90131900Y-127233680D01*
X90129601Y-127280485D01*
X90122725Y-127326840D01*
X90111338Y-127372297D01*
X90095551Y-127416419D01*
X90075515Y-127458781D01*
X90051423Y-127498976D01*
X90023508Y-127536615D01*
X89992038Y-127571338D01*
X89957315Y-127602808D01*
X89919676Y-127630723D01*
X89879481Y-127654815D01*
X89837119Y-127674851D01*
X89792997Y-127690638D01*
X89747540Y-127702025D01*
X89701185Y-127708901D01*
X89654380Y-127711200D01*
X89415620Y-127711200D01*
X89368815Y-127708901D01*
X89322460Y-127702025D01*
X89277003Y-127690638D01*
X89232881Y-127674851D01*
X89190519Y-127654815D01*
X89150324Y-127630723D01*
X89112685Y-127602808D01*
X89077962Y-127571338D01*
X89046492Y-127536615D01*
X89018577Y-127498976D01*
X88994485Y-127458781D01*
X88974449Y-127416419D01*
X88958662Y-127372297D01*
X88947275Y-127326840D01*
X88940399Y-127280485D01*
X88938100Y-127233680D01*
X88938100Y-124988320D01*
X88940399Y-124941515D01*
X88947275Y-124895160D01*
X88958662Y-124849703D01*
X88974449Y-124805581D01*
X88994485Y-124763219D01*
X89018577Y-124723024D01*
X89046492Y-124685385D01*
X89077962Y-124650662D01*
X89112685Y-124619192D01*
X89150324Y-124591277D01*
X89190519Y-124567185D01*
X89232881Y-124547149D01*
X89277003Y-124531362D01*
X89322460Y-124519975D01*
X89368815Y-124513099D01*
X89415620Y-124510800D01*
X89654380Y-124510800D01*
X89701185Y-124513099D01*
G37*
G36*
X88431185Y-124513099D02*
G01*
X88477540Y-124519975D01*
X88522997Y-124531362D01*
X88567119Y-124547149D01*
X88609481Y-124567185D01*
X88649676Y-124591277D01*
X88687315Y-124619192D01*
X88722038Y-124650662D01*
X88753508Y-124685385D01*
X88781423Y-124723024D01*
X88805515Y-124763219D01*
X88825551Y-124805581D01*
X88841338Y-124849703D01*
X88852725Y-124895160D01*
X88859601Y-124941515D01*
X88861900Y-124988320D01*
X88861900Y-127233680D01*
X88859601Y-127280485D01*
X88852725Y-127326840D01*
X88841338Y-127372297D01*
X88825551Y-127416419D01*
X88805515Y-127458781D01*
X88781423Y-127498976D01*
X88753508Y-127536615D01*
X88722038Y-127571338D01*
X88687315Y-127602808D01*
X88649676Y-127630723D01*
X88609481Y-127654815D01*
X88567119Y-127674851D01*
X88522997Y-127690638D01*
X88477540Y-127702025D01*
X88431185Y-127708901D01*
X88384380Y-127711200D01*
X88145620Y-127711200D01*
X88098815Y-127708901D01*
X88052460Y-127702025D01*
X88007003Y-127690638D01*
X87962881Y-127674851D01*
X87920519Y-127654815D01*
X87880324Y-127630723D01*
X87842685Y-127602808D01*
X87807962Y-127571338D01*
X87776492Y-127536615D01*
X87748577Y-127498976D01*
X87724485Y-127458781D01*
X87704449Y-127416419D01*
X87688662Y-127372297D01*
X87677275Y-127326840D01*
X87670399Y-127280485D01*
X87668100Y-127233680D01*
X87668100Y-124988320D01*
X87670399Y-124941515D01*
X87677275Y-124895160D01*
X87688662Y-124849703D01*
X87704449Y-124805581D01*
X87724485Y-124763219D01*
X87748577Y-124723024D01*
X87776492Y-124685385D01*
X87807962Y-124650662D01*
X87842685Y-124619192D01*
X87880324Y-124591277D01*
X87920519Y-124567185D01*
X87962881Y-124547149D01*
X88007003Y-124531362D01*
X88052460Y-124519975D01*
X88098815Y-124513099D01*
X88145620Y-124510800D01*
X88384380Y-124510800D01*
X88431185Y-124513099D01*
G37*
G36*
X87161185Y-124513099D02*
G01*
X87207540Y-124519975D01*
X87252997Y-124531362D01*
X87297119Y-124547149D01*
X87339481Y-124567185D01*
X87379676Y-124591277D01*
X87417315Y-124619192D01*
X87452038Y-124650662D01*
X87483508Y-124685385D01*
X87511423Y-124723024D01*
X87535515Y-124763219D01*
X87555551Y-124805581D01*
X87571338Y-124849703D01*
X87582725Y-124895160D01*
X87589601Y-124941515D01*
X87591900Y-124988320D01*
X87591900Y-127233680D01*
X87589601Y-127280485D01*
X87582725Y-127326840D01*
X87571338Y-127372297D01*
X87555551Y-127416419D01*
X87535515Y-127458781D01*
X87511423Y-127498976D01*
X87483508Y-127536615D01*
X87452038Y-127571338D01*
X87417315Y-127602808D01*
X87379676Y-127630723D01*
X87339481Y-127654815D01*
X87297119Y-127674851D01*
X87252997Y-127690638D01*
X87207540Y-127702025D01*
X87161185Y-127708901D01*
X87114380Y-127711200D01*
X86875620Y-127711200D01*
X86828815Y-127708901D01*
X86782460Y-127702025D01*
X86737003Y-127690638D01*
X86692881Y-127674851D01*
X86650519Y-127654815D01*
X86610324Y-127630723D01*
X86572685Y-127602808D01*
X86537962Y-127571338D01*
X86506492Y-127536615D01*
X86478577Y-127498976D01*
X86454485Y-127458781D01*
X86434449Y-127416419D01*
X86418662Y-127372297D01*
X86407275Y-127326840D01*
X86400399Y-127280485D01*
X86398100Y-127233680D01*
X86398100Y-124988320D01*
X86400399Y-124941515D01*
X86407275Y-124895160D01*
X86418662Y-124849703D01*
X86434449Y-124805581D01*
X86454485Y-124763219D01*
X86478577Y-124723024D01*
X86506492Y-124685385D01*
X86537962Y-124650662D01*
X86572685Y-124619192D01*
X86610324Y-124591277D01*
X86650519Y-124567185D01*
X86692881Y-124547149D01*
X86737003Y-124531362D01*
X86782460Y-124519975D01*
X86828815Y-124513099D01*
X86875620Y-124510800D01*
X87114380Y-124510800D01*
X87161185Y-124513099D01*
G37*
G36*
X85891185Y-124513099D02*
G01*
X85937540Y-124519975D01*
X85982997Y-124531362D01*
X86027119Y-124547149D01*
X86069481Y-124567185D01*
X86109676Y-124591277D01*
X86147315Y-124619192D01*
X86182038Y-124650662D01*
X86213508Y-124685385D01*
X86241423Y-124723024D01*
X86265515Y-124763219D01*
X86285551Y-124805581D01*
X86301338Y-124849703D01*
X86312725Y-124895160D01*
X86319601Y-124941515D01*
X86321900Y-124988320D01*
X86321900Y-127233680D01*
X86319601Y-127280485D01*
X86312725Y-127326840D01*
X86301338Y-127372297D01*
X86285551Y-127416419D01*
X86265515Y-127458781D01*
X86241423Y-127498976D01*
X86213508Y-127536615D01*
X86182038Y-127571338D01*
X86147315Y-127602808D01*
X86109676Y-127630723D01*
X86069481Y-127654815D01*
X86027119Y-127674851D01*
X85982997Y-127690638D01*
X85937540Y-127702025D01*
X85891185Y-127708901D01*
X85844380Y-127711200D01*
X85605620Y-127711200D01*
X85558815Y-127708901D01*
X85512460Y-127702025D01*
X85467003Y-127690638D01*
X85422881Y-127674851D01*
X85380519Y-127654815D01*
X85340324Y-127630723D01*
X85302685Y-127602808D01*
X85267962Y-127571338D01*
X85236492Y-127536615D01*
X85208577Y-127498976D01*
X85184485Y-127458781D01*
X85164449Y-127416419D01*
X85148662Y-127372297D01*
X85137275Y-127326840D01*
X85130399Y-127280485D01*
X85128100Y-127233680D01*
X85128100Y-124988320D01*
X85130399Y-124941515D01*
X85137275Y-124895160D01*
X85148662Y-124849703D01*
X85164449Y-124805581D01*
X85184485Y-124763219D01*
X85208577Y-124723024D01*
X85236492Y-124685385D01*
X85267962Y-124650662D01*
X85302685Y-124619192D01*
X85340324Y-124591277D01*
X85380519Y-124567185D01*
X85422881Y-124547149D01*
X85467003Y-124531362D01*
X85512460Y-124519975D01*
X85558815Y-124513099D01*
X85605620Y-124510800D01*
X85844380Y-124510800D01*
X85891185Y-124513099D01*
G37*
G36*
X84621185Y-124513099D02*
G01*
X84667540Y-124519975D01*
X84712997Y-124531362D01*
X84757119Y-124547149D01*
X84799481Y-124567185D01*
X84839676Y-124591277D01*
X84877315Y-124619192D01*
X84912038Y-124650662D01*
X84943508Y-124685385D01*
X84971423Y-124723024D01*
X84995515Y-124763219D01*
X85015551Y-124805581D01*
X85031338Y-124849703D01*
X85042725Y-124895160D01*
X85049601Y-124941515D01*
X85051900Y-124988320D01*
X85051900Y-127233680D01*
X85049601Y-127280485D01*
X85042725Y-127326840D01*
X85031338Y-127372297D01*
X85015551Y-127416419D01*
X84995515Y-127458781D01*
X84971423Y-127498976D01*
X84943508Y-127536615D01*
X84912038Y-127571338D01*
X84877315Y-127602808D01*
X84839676Y-127630723D01*
X84799481Y-127654815D01*
X84757119Y-127674851D01*
X84712997Y-127690638D01*
X84667540Y-127702025D01*
X84621185Y-127708901D01*
X84574380Y-127711200D01*
X84335620Y-127711200D01*
X84288815Y-127708901D01*
X84242460Y-127702025D01*
X84197003Y-127690638D01*
X84152881Y-127674851D01*
X84110519Y-127654815D01*
X84070324Y-127630723D01*
X84032685Y-127602808D01*
X83997962Y-127571338D01*
X83966492Y-127536615D01*
X83938577Y-127498976D01*
X83914485Y-127458781D01*
X83894449Y-127416419D01*
X83878662Y-127372297D01*
X83867275Y-127326840D01*
X83860399Y-127280485D01*
X83858100Y-127233680D01*
X83858100Y-124988320D01*
X83860399Y-124941515D01*
X83867275Y-124895160D01*
X83878662Y-124849703D01*
X83894449Y-124805581D01*
X83914485Y-124763219D01*
X83938577Y-124723024D01*
X83966492Y-124685385D01*
X83997962Y-124650662D01*
X84032685Y-124619192D01*
X84070324Y-124591277D01*
X84110519Y-124567185D01*
X84152881Y-124547149D01*
X84197003Y-124531362D01*
X84242460Y-124519975D01*
X84288815Y-124513099D01*
X84335620Y-124510800D01*
X84574380Y-124510800D01*
X84621185Y-124513099D01*
G37*
G36*
X83351185Y-124513099D02*
G01*
X83397540Y-124519975D01*
X83442997Y-124531362D01*
X83487119Y-124547149D01*
X83529481Y-124567185D01*
X83569676Y-124591277D01*
X83607315Y-124619192D01*
X83642038Y-124650662D01*
X83673508Y-124685385D01*
X83701423Y-124723024D01*
X83725515Y-124763219D01*
X83745551Y-124805581D01*
X83761338Y-124849703D01*
X83772725Y-124895160D01*
X83779601Y-124941515D01*
X83781900Y-124988320D01*
X83781900Y-127233680D01*
X83779601Y-127280485D01*
X83772725Y-127326840D01*
X83761338Y-127372297D01*
X83745551Y-127416419D01*
X83725515Y-127458781D01*
X83701423Y-127498976D01*
X83673508Y-127536615D01*
X83642038Y-127571338D01*
X83607315Y-127602808D01*
X83569676Y-127630723D01*
X83529481Y-127654815D01*
X83487119Y-127674851D01*
X83442997Y-127690638D01*
X83397540Y-127702025D01*
X83351185Y-127708901D01*
X83304380Y-127711200D01*
X83065620Y-127711200D01*
X83018815Y-127708901D01*
X82972460Y-127702025D01*
X82927003Y-127690638D01*
X82882881Y-127674851D01*
X82840519Y-127654815D01*
X82800324Y-127630723D01*
X82762685Y-127602808D01*
X82727962Y-127571338D01*
X82696492Y-127536615D01*
X82668577Y-127498976D01*
X82644485Y-127458781D01*
X82624449Y-127416419D01*
X82608662Y-127372297D01*
X82597275Y-127326840D01*
X82590399Y-127280485D01*
X82588100Y-127233680D01*
X82588100Y-124988320D01*
X82590399Y-124941515D01*
X82597275Y-124895160D01*
X82608662Y-124849703D01*
X82624449Y-124805581D01*
X82644485Y-124763219D01*
X82668577Y-124723024D01*
X82696492Y-124685385D01*
X82727962Y-124650662D01*
X82762685Y-124619192D01*
X82800324Y-124591277D01*
X82840519Y-124567185D01*
X82882881Y-124547149D01*
X82927003Y-124531362D01*
X82972460Y-124519975D01*
X83018815Y-124513099D01*
X83065620Y-124510800D01*
X83304380Y-124510800D01*
X83351185Y-124513099D01*
G37*
G36*
X82081185Y-124513099D02*
G01*
X82127540Y-124519975D01*
X82172997Y-124531362D01*
X82217119Y-124547149D01*
X82259481Y-124567185D01*
X82299676Y-124591277D01*
X82337315Y-124619192D01*
X82372038Y-124650662D01*
X82403508Y-124685385D01*
X82431423Y-124723024D01*
X82455515Y-124763219D01*
X82475551Y-124805581D01*
X82491338Y-124849703D01*
X82502725Y-124895160D01*
X82509601Y-124941515D01*
X82511900Y-124988320D01*
X82511900Y-127233680D01*
X82509601Y-127280485D01*
X82502725Y-127326840D01*
X82491338Y-127372297D01*
X82475551Y-127416419D01*
X82455515Y-127458781D01*
X82431423Y-127498976D01*
X82403508Y-127536615D01*
X82372038Y-127571338D01*
X82337315Y-127602808D01*
X82299676Y-127630723D01*
X82259481Y-127654815D01*
X82217119Y-127674851D01*
X82172997Y-127690638D01*
X82127540Y-127702025D01*
X82081185Y-127708901D01*
X82034380Y-127711200D01*
X81795620Y-127711200D01*
X81748815Y-127708901D01*
X81702460Y-127702025D01*
X81657003Y-127690638D01*
X81612881Y-127674851D01*
X81570519Y-127654815D01*
X81530324Y-127630723D01*
X81492685Y-127602808D01*
X81457962Y-127571338D01*
X81426492Y-127536615D01*
X81398577Y-127498976D01*
X81374485Y-127458781D01*
X81354449Y-127416419D01*
X81338662Y-127372297D01*
X81327275Y-127326840D01*
X81320399Y-127280485D01*
X81318100Y-127233680D01*
X81318100Y-124988320D01*
X81320399Y-124941515D01*
X81327275Y-124895160D01*
X81338662Y-124849703D01*
X81354449Y-124805581D01*
X81374485Y-124763219D01*
X81398577Y-124723024D01*
X81426492Y-124685385D01*
X81457962Y-124650662D01*
X81492685Y-124619192D01*
X81530324Y-124591277D01*
X81570519Y-124567185D01*
X81612881Y-124547149D01*
X81657003Y-124531362D01*
X81702460Y-124519975D01*
X81748815Y-124513099D01*
X81795620Y-124510800D01*
X82034380Y-124510800D01*
X82081185Y-124513099D01*
G37*
G36*
X80811185Y-124513099D02*
G01*
X80857540Y-124519975D01*
X80902997Y-124531362D01*
X80947119Y-124547149D01*
X80989481Y-124567185D01*
X81029676Y-124591277D01*
X81067315Y-124619192D01*
X81102038Y-124650662D01*
X81133508Y-124685385D01*
X81161423Y-124723024D01*
X81185515Y-124763219D01*
X81205551Y-124805581D01*
X81221338Y-124849703D01*
X81232725Y-124895160D01*
X81239601Y-124941515D01*
X81241900Y-124988320D01*
X81241900Y-127233680D01*
X81239601Y-127280485D01*
X81232725Y-127326840D01*
X81221338Y-127372297D01*
X81205551Y-127416419D01*
X81185515Y-127458781D01*
X81161423Y-127498976D01*
X81133508Y-127536615D01*
X81102038Y-127571338D01*
X81067315Y-127602808D01*
X81029676Y-127630723D01*
X80989481Y-127654815D01*
X80947119Y-127674851D01*
X80902997Y-127690638D01*
X80857540Y-127702025D01*
X80811185Y-127708901D01*
X80764380Y-127711200D01*
X80525620Y-127711200D01*
X80478815Y-127708901D01*
X80432460Y-127702025D01*
X80387003Y-127690638D01*
X80342881Y-127674851D01*
X80300519Y-127654815D01*
X80260324Y-127630723D01*
X80222685Y-127602808D01*
X80187962Y-127571338D01*
X80156492Y-127536615D01*
X80128577Y-127498976D01*
X80104485Y-127458781D01*
X80084449Y-127416419D01*
X80068662Y-127372297D01*
X80057275Y-127326840D01*
X80050399Y-127280485D01*
X80048100Y-127233680D01*
X80048100Y-124988320D01*
X80050399Y-124941515D01*
X80057275Y-124895160D01*
X80068662Y-124849703D01*
X80084449Y-124805581D01*
X80104485Y-124763219D01*
X80128577Y-124723024D01*
X80156492Y-124685385D01*
X80187962Y-124650662D01*
X80222685Y-124619192D01*
X80260324Y-124591277D01*
X80300519Y-124567185D01*
X80342881Y-124547149D01*
X80387003Y-124531362D01*
X80432460Y-124519975D01*
X80478815Y-124513099D01*
X80525620Y-124510800D01*
X80764380Y-124510800D01*
X80811185Y-124513099D01*
G37*
G36*
X79541185Y-124513099D02*
G01*
X79587540Y-124519975D01*
X79632997Y-124531362D01*
X79677119Y-124547149D01*
X79719481Y-124567185D01*
X79759676Y-124591277D01*
X79797315Y-124619192D01*
X79832038Y-124650662D01*
X79863508Y-124685385D01*
X79891423Y-124723024D01*
X79915515Y-124763219D01*
X79935551Y-124805581D01*
X79951338Y-124849703D01*
X79962725Y-124895160D01*
X79969601Y-124941515D01*
X79971900Y-124988320D01*
X79971900Y-127233680D01*
X79969601Y-127280485D01*
X79962725Y-127326840D01*
X79951338Y-127372297D01*
X79935551Y-127416419D01*
X79915515Y-127458781D01*
X79891423Y-127498976D01*
X79863508Y-127536615D01*
X79832038Y-127571338D01*
X79797315Y-127602808D01*
X79759676Y-127630723D01*
X79719481Y-127654815D01*
X79677119Y-127674851D01*
X79632997Y-127690638D01*
X79587540Y-127702025D01*
X79541185Y-127708901D01*
X79494380Y-127711200D01*
X79255620Y-127711200D01*
X79208815Y-127708901D01*
X79162460Y-127702025D01*
X79117003Y-127690638D01*
X79072881Y-127674851D01*
X79030519Y-127654815D01*
X78990324Y-127630723D01*
X78952685Y-127602808D01*
X78917962Y-127571338D01*
X78886492Y-127536615D01*
X78858577Y-127498976D01*
X78834485Y-127458781D01*
X78814449Y-127416419D01*
X78798662Y-127372297D01*
X78787275Y-127326840D01*
X78780399Y-127280485D01*
X78778100Y-127233680D01*
X78778100Y-124988320D01*
X78780399Y-124941515D01*
X78787275Y-124895160D01*
X78798662Y-124849703D01*
X78814449Y-124805581D01*
X78834485Y-124763219D01*
X78858577Y-124723024D01*
X78886492Y-124685385D01*
X78917962Y-124650662D01*
X78952685Y-124619192D01*
X78990324Y-124591277D01*
X79030519Y-124567185D01*
X79072881Y-124547149D01*
X79117003Y-124531362D01*
X79162460Y-124519975D01*
X79208815Y-124513099D01*
X79255620Y-124510800D01*
X79494380Y-124510800D01*
X79541185Y-124513099D01*
G37*
G36*
X78271185Y-124513099D02*
G01*
X78317540Y-124519975D01*
X78362997Y-124531362D01*
X78407119Y-124547149D01*
X78449481Y-124567185D01*
X78489676Y-124591277D01*
X78527315Y-124619192D01*
X78562038Y-124650662D01*
X78593508Y-124685385D01*
X78621423Y-124723024D01*
X78645515Y-124763219D01*
X78665551Y-124805581D01*
X78681338Y-124849703D01*
X78692725Y-124895160D01*
X78699601Y-124941515D01*
X78701900Y-124988320D01*
X78701900Y-127233680D01*
X78699601Y-127280485D01*
X78692725Y-127326840D01*
X78681338Y-127372297D01*
X78665551Y-127416419D01*
X78645515Y-127458781D01*
X78621423Y-127498976D01*
X78593508Y-127536615D01*
X78562038Y-127571338D01*
X78527315Y-127602808D01*
X78489676Y-127630723D01*
X78449481Y-127654815D01*
X78407119Y-127674851D01*
X78362997Y-127690638D01*
X78317540Y-127702025D01*
X78271185Y-127708901D01*
X78224380Y-127711200D01*
X77985620Y-127711200D01*
X77938815Y-127708901D01*
X77892460Y-127702025D01*
X77847003Y-127690638D01*
X77802881Y-127674851D01*
X77760519Y-127654815D01*
X77720324Y-127630723D01*
X77682685Y-127602808D01*
X77647962Y-127571338D01*
X77616492Y-127536615D01*
X77588577Y-127498976D01*
X77564485Y-127458781D01*
X77544449Y-127416419D01*
X77528662Y-127372297D01*
X77517275Y-127326840D01*
X77510399Y-127280485D01*
X77508100Y-127233680D01*
X77508100Y-124988320D01*
X77510399Y-124941515D01*
X77517275Y-124895160D01*
X77528662Y-124849703D01*
X77544449Y-124805581D01*
X77564485Y-124763219D01*
X77588577Y-124723024D01*
X77616492Y-124685385D01*
X77647962Y-124650662D01*
X77682685Y-124619192D01*
X77720324Y-124591277D01*
X77760519Y-124567185D01*
X77802881Y-124547149D01*
X77847003Y-124531362D01*
X77892460Y-124519975D01*
X77938815Y-124513099D01*
X77985620Y-124510800D01*
X78224380Y-124510800D01*
X78271185Y-124513099D01*
G37*
D14*
X167894000Y-103251000D03*
X73406000Y-103251000D03*
X167894000Y-125984000D03*
X75438000Y-125984000D03*
M02*
