G04 #@! TF.GenerationSoftware,KiCad,Pcbnew,(6.0.1-0)*
G04 #@! TF.CreationDate,2022-02-13T04:03:45-05:00*
G04 #@! TF.ProjectId,ROMSIMM,524f4d53-494d-44d2-9e6b-696361645f70,1.0*
G04 #@! TF.SameCoordinates,Original*
G04 #@! TF.FileFunction,AssemblyDrawing,Top*
%FSLAX46Y46*%
G04 Gerber Fmt 4.6, Leading zero omitted, Abs format (unit mm)*
G04 Created by KiCad (PCBNEW (6.0.1-0)) date 2022-02-13 04:03:45*
%MOMM*%
%LPD*%
G01*
G04 APERTURE LIST*
%ADD10C,0.100000*%
%ADD11C,0.063500*%
%ADD12C,0.031750*%
%ADD13C,0.203200*%
%ADD14C,0.127000*%
%ADD15C,0.150000*%
%ADD16C,0.047625*%
%ADD17C,0.095250*%
%ADD18C,0.120000*%
G04 APERTURE END LIST*
D10*
X75009428Y-123415428D02*
X74876095Y-123415428D01*
X74876095Y-123624952D02*
X74876095Y-123224952D01*
X75066571Y-123224952D01*
X75218952Y-123624952D02*
X75218952Y-123224952D01*
X75409428Y-123624952D02*
X75409428Y-123224952D01*
X75504666Y-123224952D01*
X75561809Y-123244000D01*
X75599904Y-123282095D01*
X75618952Y-123320190D01*
X75638000Y-123396380D01*
X75638000Y-123453523D01*
X75618952Y-123529714D01*
X75599904Y-123567809D01*
X75561809Y-123605904D01*
X75504666Y-123624952D01*
X75409428Y-123624952D01*
X75790380Y-123263047D02*
X75809428Y-123244000D01*
X75847523Y-123224952D01*
X75942761Y-123224952D01*
X75980857Y-123244000D01*
X75999904Y-123263047D01*
X76018952Y-123301142D01*
X76018952Y-123339238D01*
X75999904Y-123396380D01*
X75771333Y-123624952D01*
X76018952Y-123624952D01*
D11*
X154307666Y-109540714D02*
X154295571Y-109552809D01*
X154259285Y-109564904D01*
X154235095Y-109564904D01*
X154198809Y-109552809D01*
X154174619Y-109528619D01*
X154162523Y-109504428D01*
X154150428Y-109456047D01*
X154150428Y-109419761D01*
X154162523Y-109371380D01*
X154174619Y-109347190D01*
X154198809Y-109323000D01*
X154235095Y-109310904D01*
X154259285Y-109310904D01*
X154295571Y-109323000D01*
X154307666Y-109335095D01*
X154537476Y-109310904D02*
X154416523Y-109310904D01*
X154404428Y-109431857D01*
X154416523Y-109419761D01*
X154440714Y-109407666D01*
X154501190Y-109407666D01*
X154525380Y-109419761D01*
X154537476Y-109431857D01*
X154549571Y-109456047D01*
X154549571Y-109516523D01*
X154537476Y-109540714D01*
X154525380Y-109552809D01*
X154501190Y-109564904D01*
X154440714Y-109564904D01*
X154416523Y-109552809D01*
X154404428Y-109540714D01*
D12*
X154195785Y-109642547D02*
X154201833Y-109636500D01*
X154213928Y-109630452D01*
X154244166Y-109630452D01*
X154256261Y-109636500D01*
X154262309Y-109642547D01*
X154268357Y-109654642D01*
X154268357Y-109666738D01*
X154262309Y-109684880D01*
X154189738Y-109757452D01*
X154268357Y-109757452D01*
X154377214Y-109672785D02*
X154377214Y-109757452D01*
X154322785Y-109672785D02*
X154322785Y-109739309D01*
X154328833Y-109751404D01*
X154340928Y-109757452D01*
X154359071Y-109757452D01*
X154371166Y-109751404D01*
X154377214Y-109745357D01*
X154431642Y-109642547D02*
X154437690Y-109636500D01*
X154449785Y-109630452D01*
X154480023Y-109630452D01*
X154492119Y-109636500D01*
X154498166Y-109642547D01*
X154504214Y-109654642D01*
X154504214Y-109666738D01*
X154498166Y-109684880D01*
X154425595Y-109757452D01*
X154504214Y-109757452D01*
D11*
X96590714Y-122392333D02*
X96602809Y-122404428D01*
X96614904Y-122440714D01*
X96614904Y-122464904D01*
X96602809Y-122501190D01*
X96578619Y-122525380D01*
X96554428Y-122537476D01*
X96506047Y-122549571D01*
X96469761Y-122549571D01*
X96421380Y-122537476D01*
X96397190Y-122525380D01*
X96373000Y-122501190D01*
X96360904Y-122464904D01*
X96360904Y-122440714D01*
X96373000Y-122404428D01*
X96385095Y-122392333D01*
X96360904Y-122307666D02*
X96360904Y-122138333D01*
X96614904Y-122247190D01*
D12*
X96692547Y-122504214D02*
X96686500Y-122498166D01*
X96680452Y-122486071D01*
X96680452Y-122455833D01*
X96686500Y-122443738D01*
X96692547Y-122437690D01*
X96704642Y-122431642D01*
X96716738Y-122431642D01*
X96734880Y-122437690D01*
X96807452Y-122510261D01*
X96807452Y-122431642D01*
X96722785Y-122322785D02*
X96807452Y-122322785D01*
X96722785Y-122377214D02*
X96789309Y-122377214D01*
X96801404Y-122371166D01*
X96807452Y-122359071D01*
X96807452Y-122340928D01*
X96801404Y-122328833D01*
X96795357Y-122322785D01*
X96692547Y-122268357D02*
X96686500Y-122262309D01*
X96680452Y-122250214D01*
X96680452Y-122219976D01*
X96686500Y-122207880D01*
X96692547Y-122201833D01*
X96704642Y-122195785D01*
X96716738Y-122195785D01*
X96734880Y-122201833D01*
X96807452Y-122274404D01*
X96807452Y-122195785D01*
D11*
X116940714Y-122392333D02*
X116952809Y-122404428D01*
X116964904Y-122440714D01*
X116964904Y-122464904D01*
X116952809Y-122501190D01*
X116928619Y-122525380D01*
X116904428Y-122537476D01*
X116856047Y-122549571D01*
X116819761Y-122549571D01*
X116771380Y-122537476D01*
X116747190Y-122525380D01*
X116723000Y-122501190D01*
X116710904Y-122464904D01*
X116710904Y-122440714D01*
X116723000Y-122404428D01*
X116735095Y-122392333D01*
X116964904Y-122271380D02*
X116964904Y-122223000D01*
X116952809Y-122198809D01*
X116940714Y-122186714D01*
X116904428Y-122162523D01*
X116856047Y-122150428D01*
X116759285Y-122150428D01*
X116735095Y-122162523D01*
X116723000Y-122174619D01*
X116710904Y-122198809D01*
X116710904Y-122247190D01*
X116723000Y-122271380D01*
X116735095Y-122283476D01*
X116759285Y-122295571D01*
X116819761Y-122295571D01*
X116843952Y-122283476D01*
X116856047Y-122271380D01*
X116868142Y-122247190D01*
X116868142Y-122198809D01*
X116856047Y-122174619D01*
X116843952Y-122162523D01*
X116819761Y-122150428D01*
D12*
X117042547Y-122504214D02*
X117036500Y-122498166D01*
X117030452Y-122486071D01*
X117030452Y-122455833D01*
X117036500Y-122443738D01*
X117042547Y-122437690D01*
X117054642Y-122431642D01*
X117066738Y-122431642D01*
X117084880Y-122437690D01*
X117157452Y-122510261D01*
X117157452Y-122431642D01*
X117072785Y-122322785D02*
X117157452Y-122322785D01*
X117072785Y-122377214D02*
X117139309Y-122377214D01*
X117151404Y-122371166D01*
X117157452Y-122359071D01*
X117157452Y-122340928D01*
X117151404Y-122328833D01*
X117145357Y-122322785D01*
X117042547Y-122268357D02*
X117036500Y-122262309D01*
X117030452Y-122250214D01*
X117030452Y-122219976D01*
X117036500Y-122207880D01*
X117042547Y-122201833D01*
X117054642Y-122195785D01*
X117066738Y-122195785D01*
X117084880Y-122201833D01*
X117157452Y-122274404D01*
X117157452Y-122195785D01*
D11*
X139790714Y-122513285D02*
X139802809Y-122525380D01*
X139814904Y-122561666D01*
X139814904Y-122585857D01*
X139802809Y-122622142D01*
X139778619Y-122646333D01*
X139754428Y-122658428D01*
X139706047Y-122670523D01*
X139669761Y-122670523D01*
X139621380Y-122658428D01*
X139597190Y-122646333D01*
X139573000Y-122622142D01*
X139560904Y-122585857D01*
X139560904Y-122561666D01*
X139573000Y-122525380D01*
X139585095Y-122513285D01*
X139814904Y-122271380D02*
X139814904Y-122416523D01*
X139814904Y-122343952D02*
X139560904Y-122343952D01*
X139597190Y-122368142D01*
X139621380Y-122392333D01*
X139633476Y-122416523D01*
X139814904Y-122029476D02*
X139814904Y-122174619D01*
X139814904Y-122102047D02*
X139560904Y-122102047D01*
X139597190Y-122126238D01*
X139621380Y-122150428D01*
X139633476Y-122174619D01*
D12*
X139892547Y-122504214D02*
X139886500Y-122498166D01*
X139880452Y-122486071D01*
X139880452Y-122455833D01*
X139886500Y-122443738D01*
X139892547Y-122437690D01*
X139904642Y-122431642D01*
X139916738Y-122431642D01*
X139934880Y-122437690D01*
X140007452Y-122510261D01*
X140007452Y-122431642D01*
X139922785Y-122322785D02*
X140007452Y-122322785D01*
X139922785Y-122377214D02*
X139989309Y-122377214D01*
X140001404Y-122371166D01*
X140007452Y-122359071D01*
X140007452Y-122340928D01*
X140001404Y-122328833D01*
X139995357Y-122322785D01*
X139892547Y-122268357D02*
X139886500Y-122262309D01*
X139880452Y-122250214D01*
X139880452Y-122219976D01*
X139886500Y-122207880D01*
X139892547Y-122201833D01*
X139904642Y-122195785D01*
X139916738Y-122195785D01*
X139934880Y-122201833D01*
X140007452Y-122274404D01*
X140007452Y-122195785D01*
D11*
X151140714Y-122513285D02*
X151152809Y-122525380D01*
X151164904Y-122561666D01*
X151164904Y-122585857D01*
X151152809Y-122622142D01*
X151128619Y-122646333D01*
X151104428Y-122658428D01*
X151056047Y-122670523D01*
X151019761Y-122670523D01*
X150971380Y-122658428D01*
X150947190Y-122646333D01*
X150923000Y-122622142D01*
X150910904Y-122585857D01*
X150910904Y-122561666D01*
X150923000Y-122525380D01*
X150935095Y-122513285D01*
X151164904Y-122271380D02*
X151164904Y-122416523D01*
X151164904Y-122343952D02*
X150910904Y-122343952D01*
X150947190Y-122368142D01*
X150971380Y-122392333D01*
X150983476Y-122416523D01*
X150935095Y-122174619D02*
X150923000Y-122162523D01*
X150910904Y-122138333D01*
X150910904Y-122077857D01*
X150923000Y-122053666D01*
X150935095Y-122041571D01*
X150959285Y-122029476D01*
X150983476Y-122029476D01*
X151019761Y-122041571D01*
X151164904Y-122186714D01*
X151164904Y-122029476D01*
D12*
X151242547Y-122504214D02*
X151236500Y-122498166D01*
X151230452Y-122486071D01*
X151230452Y-122455833D01*
X151236500Y-122443738D01*
X151242547Y-122437690D01*
X151254642Y-122431642D01*
X151266738Y-122431642D01*
X151284880Y-122437690D01*
X151357452Y-122510261D01*
X151357452Y-122431642D01*
X151272785Y-122322785D02*
X151357452Y-122322785D01*
X151272785Y-122377214D02*
X151339309Y-122377214D01*
X151351404Y-122371166D01*
X151357452Y-122359071D01*
X151357452Y-122340928D01*
X151351404Y-122328833D01*
X151345357Y-122322785D01*
X151242547Y-122268357D02*
X151236500Y-122262309D01*
X151230452Y-122250214D01*
X151230452Y-122219976D01*
X151236500Y-122207880D01*
X151242547Y-122201833D01*
X151254642Y-122195785D01*
X151266738Y-122195785D01*
X151284880Y-122201833D01*
X151357452Y-122274404D01*
X151357452Y-122195785D01*
D11*
X160090714Y-122513285D02*
X160102809Y-122525380D01*
X160114904Y-122561666D01*
X160114904Y-122585857D01*
X160102809Y-122622142D01*
X160078619Y-122646333D01*
X160054428Y-122658428D01*
X160006047Y-122670523D01*
X159969761Y-122670523D01*
X159921380Y-122658428D01*
X159897190Y-122646333D01*
X159873000Y-122622142D01*
X159860904Y-122585857D01*
X159860904Y-122561666D01*
X159873000Y-122525380D01*
X159885095Y-122513285D01*
X160114904Y-122271380D02*
X160114904Y-122416523D01*
X160114904Y-122343952D02*
X159860904Y-122343952D01*
X159897190Y-122368142D01*
X159921380Y-122392333D01*
X159933476Y-122416523D01*
X159860904Y-122186714D02*
X159860904Y-122029476D01*
X159957666Y-122114142D01*
X159957666Y-122077857D01*
X159969761Y-122053666D01*
X159981857Y-122041571D01*
X160006047Y-122029476D01*
X160066523Y-122029476D01*
X160090714Y-122041571D01*
X160102809Y-122053666D01*
X160114904Y-122077857D01*
X160114904Y-122150428D01*
X160102809Y-122174619D01*
X160090714Y-122186714D01*
D12*
X160192547Y-122504214D02*
X160186500Y-122498166D01*
X160180452Y-122486071D01*
X160180452Y-122455833D01*
X160186500Y-122443738D01*
X160192547Y-122437690D01*
X160204642Y-122431642D01*
X160216738Y-122431642D01*
X160234880Y-122437690D01*
X160307452Y-122510261D01*
X160307452Y-122431642D01*
X160222785Y-122322785D02*
X160307452Y-122322785D01*
X160222785Y-122377214D02*
X160289309Y-122377214D01*
X160301404Y-122371166D01*
X160307452Y-122359071D01*
X160307452Y-122340928D01*
X160301404Y-122328833D01*
X160295357Y-122322785D01*
X160192547Y-122268357D02*
X160186500Y-122262309D01*
X160180452Y-122250214D01*
X160180452Y-122219976D01*
X160186500Y-122207880D01*
X160192547Y-122201833D01*
X160204642Y-122195785D01*
X160216738Y-122195785D01*
X160234880Y-122201833D01*
X160307452Y-122274404D01*
X160307452Y-122195785D01*
D13*
X111755723Y-119704895D02*
X111755723Y-120362876D01*
X111794428Y-120440285D01*
X111833133Y-120478990D01*
X111910542Y-120517695D01*
X112065361Y-120517695D01*
X112142771Y-120478990D01*
X112181476Y-120440285D01*
X112220180Y-120362876D01*
X112220180Y-119704895D01*
X112955571Y-119975828D02*
X112955571Y-120517695D01*
X112762047Y-119666190D02*
X112568523Y-120246761D01*
X113071685Y-120246761D01*
D14*
X110500238Y-118855809D02*
X110838904Y-118855809D01*
X110621190Y-119363809D01*
X111250142Y-119025142D02*
X111250142Y-119363809D01*
X111129190Y-118831619D02*
X111008238Y-119194476D01*
X111322714Y-119194476D01*
X111492047Y-119218666D02*
X111733952Y-119218666D01*
X111443666Y-119363809D02*
X111613000Y-118855809D01*
X111782333Y-119363809D01*
X111951666Y-119363809D02*
X111951666Y-118855809D01*
X111951666Y-119097714D02*
X112241952Y-119097714D01*
X112241952Y-119363809D02*
X112241952Y-118855809D01*
X112774142Y-119315428D02*
X112749952Y-119339619D01*
X112677380Y-119363809D01*
X112629000Y-119363809D01*
X112556428Y-119339619D01*
X112508047Y-119291238D01*
X112483857Y-119242857D01*
X112459666Y-119146095D01*
X112459666Y-119073523D01*
X112483857Y-118976761D01*
X112508047Y-118928380D01*
X112556428Y-118880000D01*
X112629000Y-118855809D01*
X112677380Y-118855809D01*
X112749952Y-118880000D01*
X112774142Y-118904190D01*
X112967666Y-118904190D02*
X112991857Y-118880000D01*
X113040238Y-118855809D01*
X113161190Y-118855809D01*
X113209571Y-118880000D01*
X113233761Y-118904190D01*
X113257952Y-118952571D01*
X113257952Y-119000952D01*
X113233761Y-119073523D01*
X112943476Y-119363809D01*
X113257952Y-119363809D01*
X113693380Y-119025142D02*
X113693380Y-119363809D01*
X113572428Y-118831619D02*
X113451476Y-119194476D01*
X113765952Y-119194476D01*
X114201380Y-118855809D02*
X113959476Y-118855809D01*
X113935285Y-119097714D01*
X113959476Y-119073523D01*
X114007857Y-119049333D01*
X114128809Y-119049333D01*
X114177190Y-119073523D01*
X114201380Y-119097714D01*
X114225571Y-119146095D01*
X114225571Y-119267047D01*
X114201380Y-119315428D01*
X114177190Y-119339619D01*
X114128809Y-119363809D01*
X114007857Y-119363809D01*
X113959476Y-119339619D01*
X113935285Y-119315428D01*
D13*
X145955723Y-119704895D02*
X145955723Y-120362876D01*
X145994428Y-120440285D01*
X146033133Y-120478990D01*
X146110542Y-120517695D01*
X146265361Y-120517695D01*
X146342771Y-120478990D01*
X146381476Y-120440285D01*
X146420180Y-120362876D01*
X146420180Y-119704895D01*
X147194276Y-119704895D02*
X146807228Y-119704895D01*
X146768523Y-120091942D01*
X146807228Y-120053238D01*
X146884638Y-120014533D01*
X147078161Y-120014533D01*
X147155571Y-120053238D01*
X147194276Y-120091942D01*
X147232980Y-120169352D01*
X147232980Y-120362876D01*
X147194276Y-120440285D01*
X147155571Y-120478990D01*
X147078161Y-120517695D01*
X146884638Y-120517695D01*
X146807228Y-120478990D01*
X146768523Y-120440285D01*
D14*
X144700238Y-118855809D02*
X145038904Y-118855809D01*
X144821190Y-119363809D01*
X145450142Y-119025142D02*
X145450142Y-119363809D01*
X145329190Y-118831619D02*
X145208238Y-119194476D01*
X145522714Y-119194476D01*
X145692047Y-119218666D02*
X145933952Y-119218666D01*
X145643666Y-119363809D02*
X145813000Y-118855809D01*
X145982333Y-119363809D01*
X146151666Y-119363809D02*
X146151666Y-118855809D01*
X146151666Y-119097714D02*
X146441952Y-119097714D01*
X146441952Y-119363809D02*
X146441952Y-118855809D01*
X146974142Y-119315428D02*
X146949952Y-119339619D01*
X146877380Y-119363809D01*
X146829000Y-119363809D01*
X146756428Y-119339619D01*
X146708047Y-119291238D01*
X146683857Y-119242857D01*
X146659666Y-119146095D01*
X146659666Y-119073523D01*
X146683857Y-118976761D01*
X146708047Y-118928380D01*
X146756428Y-118880000D01*
X146829000Y-118855809D01*
X146877380Y-118855809D01*
X146949952Y-118880000D01*
X146974142Y-118904190D01*
X147167666Y-118904190D02*
X147191857Y-118880000D01*
X147240238Y-118855809D01*
X147361190Y-118855809D01*
X147409571Y-118880000D01*
X147433761Y-118904190D01*
X147457952Y-118952571D01*
X147457952Y-119000952D01*
X147433761Y-119073523D01*
X147143476Y-119363809D01*
X147457952Y-119363809D01*
X147893380Y-119025142D02*
X147893380Y-119363809D01*
X147772428Y-118831619D02*
X147651476Y-119194476D01*
X147965952Y-119194476D01*
X148401380Y-118855809D02*
X148159476Y-118855809D01*
X148135285Y-119097714D01*
X148159476Y-119073523D01*
X148207857Y-119049333D01*
X148328809Y-119049333D01*
X148377190Y-119073523D01*
X148401380Y-119097714D01*
X148425571Y-119146095D01*
X148425571Y-119267047D01*
X148401380Y-119315428D01*
X148377190Y-119339619D01*
X148328809Y-119363809D01*
X148207857Y-119363809D01*
X148159476Y-119339619D01*
X148135285Y-119315428D01*
D15*
X119661085Y-129179580D02*
X119327752Y-128703390D01*
X119089657Y-129179580D02*
X119089657Y-128179580D01*
X119470609Y-128179580D01*
X119565847Y-128227200D01*
X119613466Y-128274819D01*
X119661085Y-128370057D01*
X119661085Y-128512914D01*
X119613466Y-128608152D01*
X119565847Y-128655771D01*
X119470609Y-128703390D01*
X119089657Y-128703390D01*
X120280133Y-128179580D02*
X120470609Y-128179580D01*
X120565847Y-128227200D01*
X120661085Y-128322438D01*
X120708704Y-128512914D01*
X120708704Y-128846247D01*
X120661085Y-129036723D01*
X120565847Y-129131961D01*
X120470609Y-129179580D01*
X120280133Y-129179580D01*
X120184895Y-129131961D01*
X120089657Y-129036723D01*
X120042038Y-128846247D01*
X120042038Y-128512914D01*
X120089657Y-128322438D01*
X120184895Y-128227200D01*
X120280133Y-128179580D01*
X121137276Y-129179580D02*
X121137276Y-128179580D01*
X121470609Y-128893866D01*
X121803942Y-128179580D01*
X121803942Y-129179580D01*
D13*
X134218676Y-119704895D02*
X134218676Y-120362876D01*
X134257380Y-120440285D01*
X134296085Y-120478990D01*
X134373495Y-120517695D01*
X134528314Y-120517695D01*
X134605723Y-120478990D01*
X134644428Y-120440285D01*
X134683133Y-120362876D01*
X134683133Y-119704895D01*
X135495933Y-120517695D02*
X135031476Y-120517695D01*
X135263704Y-120517695D02*
X135263704Y-119704895D01*
X135186295Y-119821009D01*
X135108885Y-119898419D01*
X135031476Y-119937123D01*
X135999095Y-119704895D02*
X136076504Y-119704895D01*
X136153914Y-119743600D01*
X136192619Y-119782304D01*
X136231323Y-119859714D01*
X136270028Y-120014533D01*
X136270028Y-120208057D01*
X136231323Y-120362876D01*
X136192619Y-120440285D01*
X136153914Y-120478990D01*
X136076504Y-120517695D01*
X135999095Y-120517695D01*
X135921685Y-120478990D01*
X135882980Y-120440285D01*
X135844276Y-120362876D01*
X135805571Y-120208057D01*
X135805571Y-120014533D01*
X135844276Y-119859714D01*
X135882980Y-119782304D01*
X135921685Y-119743600D01*
X135999095Y-119704895D01*
D14*
X133350238Y-118855809D02*
X133688904Y-118855809D01*
X133471190Y-119363809D01*
X134100142Y-119025142D02*
X134100142Y-119363809D01*
X133979190Y-118831619D02*
X133858238Y-119194476D01*
X134172714Y-119194476D01*
X134342047Y-119218666D02*
X134583952Y-119218666D01*
X134293666Y-119363809D02*
X134463000Y-118855809D01*
X134632333Y-119363809D01*
X134801666Y-119363809D02*
X134801666Y-118855809D01*
X134801666Y-119097714D02*
X135091952Y-119097714D01*
X135091952Y-119363809D02*
X135091952Y-118855809D01*
X135624142Y-119315428D02*
X135599952Y-119339619D01*
X135527380Y-119363809D01*
X135479000Y-119363809D01*
X135406428Y-119339619D01*
X135358047Y-119291238D01*
X135333857Y-119242857D01*
X135309666Y-119146095D01*
X135309666Y-119073523D01*
X135333857Y-118976761D01*
X135358047Y-118928380D01*
X135406428Y-118880000D01*
X135479000Y-118855809D01*
X135527380Y-118855809D01*
X135599952Y-118880000D01*
X135624142Y-118904190D01*
X135817666Y-118904190D02*
X135841857Y-118880000D01*
X135890238Y-118855809D01*
X136011190Y-118855809D01*
X136059571Y-118880000D01*
X136083761Y-118904190D01*
X136107952Y-118952571D01*
X136107952Y-119000952D01*
X136083761Y-119073523D01*
X135793476Y-119363809D01*
X136107952Y-119363809D01*
X136543380Y-119025142D02*
X136543380Y-119363809D01*
X136422428Y-118831619D02*
X136301476Y-119194476D01*
X136615952Y-119194476D01*
X137051380Y-118855809D02*
X136809476Y-118855809D01*
X136785285Y-119097714D01*
X136809476Y-119073523D01*
X136857857Y-119049333D01*
X136978809Y-119049333D01*
X137027190Y-119073523D01*
X137051380Y-119097714D01*
X137075571Y-119146095D01*
X137075571Y-119267047D01*
X137051380Y-119315428D01*
X137027190Y-119339619D01*
X136978809Y-119363809D01*
X136857857Y-119363809D01*
X136809476Y-119339619D01*
X136785285Y-119315428D01*
D13*
X154905723Y-119704895D02*
X154905723Y-120362876D01*
X154944428Y-120440285D01*
X154983133Y-120478990D01*
X155060542Y-120517695D01*
X155215361Y-120517695D01*
X155292771Y-120478990D01*
X155331476Y-120440285D01*
X155370180Y-120362876D01*
X155370180Y-119704895D01*
X156105571Y-119704895D02*
X155950752Y-119704895D01*
X155873342Y-119743600D01*
X155834638Y-119782304D01*
X155757228Y-119898419D01*
X155718523Y-120053238D01*
X155718523Y-120362876D01*
X155757228Y-120440285D01*
X155795933Y-120478990D01*
X155873342Y-120517695D01*
X156028161Y-120517695D01*
X156105571Y-120478990D01*
X156144276Y-120440285D01*
X156182980Y-120362876D01*
X156182980Y-120169352D01*
X156144276Y-120091942D01*
X156105571Y-120053238D01*
X156028161Y-120014533D01*
X155873342Y-120014533D01*
X155795933Y-120053238D01*
X155757228Y-120091942D01*
X155718523Y-120169352D01*
D14*
X153650238Y-118855809D02*
X153988904Y-118855809D01*
X153771190Y-119363809D01*
X154400142Y-119025142D02*
X154400142Y-119363809D01*
X154279190Y-118831619D02*
X154158238Y-119194476D01*
X154472714Y-119194476D01*
X154642047Y-119218666D02*
X154883952Y-119218666D01*
X154593666Y-119363809D02*
X154763000Y-118855809D01*
X154932333Y-119363809D01*
X155101666Y-119363809D02*
X155101666Y-118855809D01*
X155101666Y-119097714D02*
X155391952Y-119097714D01*
X155391952Y-119363809D02*
X155391952Y-118855809D01*
X155924142Y-119315428D02*
X155899952Y-119339619D01*
X155827380Y-119363809D01*
X155779000Y-119363809D01*
X155706428Y-119339619D01*
X155658047Y-119291238D01*
X155633857Y-119242857D01*
X155609666Y-119146095D01*
X155609666Y-119073523D01*
X155633857Y-118976761D01*
X155658047Y-118928380D01*
X155706428Y-118880000D01*
X155779000Y-118855809D01*
X155827380Y-118855809D01*
X155899952Y-118880000D01*
X155924142Y-118904190D01*
X156117666Y-118904190D02*
X156141857Y-118880000D01*
X156190238Y-118855809D01*
X156311190Y-118855809D01*
X156359571Y-118880000D01*
X156383761Y-118904190D01*
X156407952Y-118952571D01*
X156407952Y-119000952D01*
X156383761Y-119073523D01*
X156093476Y-119363809D01*
X156407952Y-119363809D01*
X156843380Y-119025142D02*
X156843380Y-119363809D01*
X156722428Y-118831619D02*
X156601476Y-119194476D01*
X156915952Y-119194476D01*
X157351380Y-118855809D02*
X157109476Y-118855809D01*
X157085285Y-119097714D01*
X157109476Y-119073523D01*
X157157857Y-119049333D01*
X157278809Y-119049333D01*
X157327190Y-119073523D01*
X157351380Y-119097714D01*
X157375571Y-119146095D01*
X157375571Y-119267047D01*
X157351380Y-119315428D01*
X157327190Y-119339619D01*
X157278809Y-119363809D01*
X157157857Y-119363809D01*
X157109476Y-119339619D01*
X157085285Y-119315428D01*
D11*
X111707666Y-109540714D02*
X111695571Y-109552809D01*
X111659285Y-109564904D01*
X111635095Y-109564904D01*
X111598809Y-109552809D01*
X111574619Y-109528619D01*
X111562523Y-109504428D01*
X111550428Y-109456047D01*
X111550428Y-109419761D01*
X111562523Y-109371380D01*
X111574619Y-109347190D01*
X111598809Y-109323000D01*
X111635095Y-109310904D01*
X111659285Y-109310904D01*
X111695571Y-109323000D01*
X111707666Y-109335095D01*
X111925380Y-109395571D02*
X111925380Y-109564904D01*
X111864904Y-109298809D02*
X111804428Y-109480238D01*
X111961666Y-109480238D01*
D12*
X111595785Y-109642547D02*
X111601833Y-109636500D01*
X111613928Y-109630452D01*
X111644166Y-109630452D01*
X111656261Y-109636500D01*
X111662309Y-109642547D01*
X111668357Y-109654642D01*
X111668357Y-109666738D01*
X111662309Y-109684880D01*
X111589738Y-109757452D01*
X111668357Y-109757452D01*
X111777214Y-109672785D02*
X111777214Y-109757452D01*
X111722785Y-109672785D02*
X111722785Y-109739309D01*
X111728833Y-109751404D01*
X111740928Y-109757452D01*
X111759071Y-109757452D01*
X111771166Y-109751404D01*
X111777214Y-109745357D01*
X111831642Y-109642547D02*
X111837690Y-109636500D01*
X111849785Y-109630452D01*
X111880023Y-109630452D01*
X111892119Y-109636500D01*
X111898166Y-109642547D01*
X111904214Y-109654642D01*
X111904214Y-109666738D01*
X111898166Y-109684880D01*
X111825595Y-109757452D01*
X111904214Y-109757452D01*
D13*
X98830723Y-109254895D02*
X98830723Y-109912876D01*
X98869428Y-109990285D01*
X98908133Y-110028990D01*
X98985542Y-110067695D01*
X99140361Y-110067695D01*
X99217771Y-110028990D01*
X99256476Y-109990285D01*
X99295180Y-109912876D01*
X99295180Y-109254895D01*
X100107980Y-110067695D02*
X99643523Y-110067695D01*
X99875752Y-110067695D02*
X99875752Y-109254895D01*
X99798342Y-109371009D01*
X99720933Y-109448419D01*
X99643523Y-109487123D01*
X96179447Y-111317695D02*
X96179447Y-110504895D01*
X96450380Y-111085466D01*
X96721314Y-110504895D01*
X96721314Y-111317695D01*
X97030952Y-110504895D02*
X97572819Y-111317695D01*
X97572819Y-110504895D02*
X97030952Y-111317695D01*
X97843752Y-110582304D02*
X97882457Y-110543600D01*
X97959866Y-110504895D01*
X98153390Y-110504895D01*
X98230800Y-110543600D01*
X98269504Y-110582304D01*
X98308209Y-110659714D01*
X98308209Y-110737123D01*
X98269504Y-110853238D01*
X97805047Y-111317695D01*
X98308209Y-111317695D01*
X98695257Y-111317695D02*
X98850076Y-111317695D01*
X98927485Y-111278990D01*
X98966190Y-111240285D01*
X99043600Y-111124171D01*
X99082304Y-110969352D01*
X99082304Y-110659714D01*
X99043600Y-110582304D01*
X99004895Y-110543600D01*
X98927485Y-110504895D01*
X98772666Y-110504895D01*
X98695257Y-110543600D01*
X98656552Y-110582304D01*
X98617847Y-110659714D01*
X98617847Y-110853238D01*
X98656552Y-110930647D01*
X98695257Y-110969352D01*
X98772666Y-111008057D01*
X98927485Y-111008057D01*
X99004895Y-110969352D01*
X99043600Y-110930647D01*
X99082304Y-110853238D01*
X99817695Y-111317695D02*
X99430647Y-111317695D01*
X99430647Y-110504895D01*
X99972514Y-110504895D02*
X100243447Y-111317695D01*
X100514380Y-110504895D01*
X101133657Y-110504895D02*
X100978838Y-110504895D01*
X100901428Y-110543600D01*
X100862723Y-110582304D01*
X100785314Y-110698419D01*
X100746609Y-110853238D01*
X100746609Y-111162876D01*
X100785314Y-111240285D01*
X100824019Y-111278990D01*
X100901428Y-111317695D01*
X101056247Y-111317695D01*
X101133657Y-111278990D01*
X101172361Y-111240285D01*
X101211066Y-111162876D01*
X101211066Y-110969352D01*
X101172361Y-110891942D01*
X101133657Y-110853238D01*
X101056247Y-110814533D01*
X100901428Y-110814533D01*
X100824019Y-110853238D01*
X100785314Y-110891942D01*
X100746609Y-110969352D01*
X101907752Y-110775828D02*
X101907752Y-111317695D01*
X101714228Y-110466190D02*
X101520704Y-111046761D01*
X102023866Y-111046761D01*
X102488323Y-110504895D02*
X102565733Y-110504895D01*
X102643142Y-110543600D01*
X102681847Y-110582304D01*
X102720552Y-110659714D01*
X102759257Y-110814533D01*
X102759257Y-111008057D01*
X102720552Y-111162876D01*
X102681847Y-111240285D01*
X102643142Y-111278990D01*
X102565733Y-111317695D01*
X102488323Y-111317695D01*
X102410914Y-111278990D01*
X102372209Y-111240285D01*
X102333504Y-111162876D01*
X102294800Y-111008057D01*
X102294800Y-110814533D01*
X102333504Y-110659714D01*
X102372209Y-110582304D01*
X102410914Y-110543600D01*
X102488323Y-110504895D01*
X101555723Y-119704895D02*
X101555723Y-120362876D01*
X101594428Y-120440285D01*
X101633133Y-120478990D01*
X101710542Y-120517695D01*
X101865361Y-120517695D01*
X101942771Y-120478990D01*
X101981476Y-120440285D01*
X102020180Y-120362876D01*
X102020180Y-119704895D01*
X102329819Y-119704895D02*
X102832980Y-119704895D01*
X102562047Y-120014533D01*
X102678161Y-120014533D01*
X102755571Y-120053238D01*
X102794276Y-120091942D01*
X102832980Y-120169352D01*
X102832980Y-120362876D01*
X102794276Y-120440285D01*
X102755571Y-120478990D01*
X102678161Y-120517695D01*
X102445933Y-120517695D01*
X102368523Y-120478990D01*
X102329819Y-120440285D01*
D14*
X100300238Y-118855809D02*
X100638904Y-118855809D01*
X100421190Y-119363809D01*
X101050142Y-119025142D02*
X101050142Y-119363809D01*
X100929190Y-118831619D02*
X100808238Y-119194476D01*
X101122714Y-119194476D01*
X101292047Y-119218666D02*
X101533952Y-119218666D01*
X101243666Y-119363809D02*
X101413000Y-118855809D01*
X101582333Y-119363809D01*
X101751666Y-119363809D02*
X101751666Y-118855809D01*
X101751666Y-119097714D02*
X102041952Y-119097714D01*
X102041952Y-119363809D02*
X102041952Y-118855809D01*
X102574142Y-119315428D02*
X102549952Y-119339619D01*
X102477380Y-119363809D01*
X102429000Y-119363809D01*
X102356428Y-119339619D01*
X102308047Y-119291238D01*
X102283857Y-119242857D01*
X102259666Y-119146095D01*
X102259666Y-119073523D01*
X102283857Y-118976761D01*
X102308047Y-118928380D01*
X102356428Y-118880000D01*
X102429000Y-118855809D01*
X102477380Y-118855809D01*
X102549952Y-118880000D01*
X102574142Y-118904190D01*
X102767666Y-118904190D02*
X102791857Y-118880000D01*
X102840238Y-118855809D01*
X102961190Y-118855809D01*
X103009571Y-118880000D01*
X103033761Y-118904190D01*
X103057952Y-118952571D01*
X103057952Y-119000952D01*
X103033761Y-119073523D01*
X102743476Y-119363809D01*
X103057952Y-119363809D01*
X103493380Y-119025142D02*
X103493380Y-119363809D01*
X103372428Y-118831619D02*
X103251476Y-119194476D01*
X103565952Y-119194476D01*
X104001380Y-118855809D02*
X103759476Y-118855809D01*
X103735285Y-119097714D01*
X103759476Y-119073523D01*
X103807857Y-119049333D01*
X103928809Y-119049333D01*
X103977190Y-119073523D01*
X104001380Y-119097714D01*
X104025571Y-119146095D01*
X104025571Y-119267047D01*
X104001380Y-119315428D01*
X103977190Y-119339619D01*
X103928809Y-119363809D01*
X103807857Y-119363809D01*
X103759476Y-119339619D01*
X103735285Y-119315428D01*
D11*
X78307666Y-113840714D02*
X78295571Y-113852809D01*
X78259285Y-113864904D01*
X78235095Y-113864904D01*
X78198809Y-113852809D01*
X78174619Y-113828619D01*
X78162523Y-113804428D01*
X78150428Y-113756047D01*
X78150428Y-113719761D01*
X78162523Y-113671380D01*
X78174619Y-113647190D01*
X78198809Y-113623000D01*
X78235095Y-113610904D01*
X78259285Y-113610904D01*
X78295571Y-113623000D01*
X78307666Y-113635095D01*
X78392333Y-113610904D02*
X78549571Y-113610904D01*
X78464904Y-113707666D01*
X78501190Y-113707666D01*
X78525380Y-113719761D01*
X78537476Y-113731857D01*
X78549571Y-113756047D01*
X78549571Y-113816523D01*
X78537476Y-113840714D01*
X78525380Y-113852809D01*
X78501190Y-113864904D01*
X78428619Y-113864904D01*
X78404428Y-113852809D01*
X78392333Y-113840714D01*
D12*
X78195785Y-113942547D02*
X78201833Y-113936500D01*
X78213928Y-113930452D01*
X78244166Y-113930452D01*
X78256261Y-113936500D01*
X78262309Y-113942547D01*
X78268357Y-113954642D01*
X78268357Y-113966738D01*
X78262309Y-113984880D01*
X78189738Y-114057452D01*
X78268357Y-114057452D01*
X78377214Y-113972785D02*
X78377214Y-114057452D01*
X78322785Y-113972785D02*
X78322785Y-114039309D01*
X78328833Y-114051404D01*
X78340928Y-114057452D01*
X78359071Y-114057452D01*
X78371166Y-114051404D01*
X78377214Y-114045357D01*
X78431642Y-113942547D02*
X78437690Y-113936500D01*
X78449785Y-113930452D01*
X78480023Y-113930452D01*
X78492119Y-113936500D01*
X78498166Y-113942547D01*
X78504214Y-113954642D01*
X78504214Y-113966738D01*
X78498166Y-113984880D01*
X78425595Y-114057452D01*
X78504214Y-114057452D01*
D13*
X141620723Y-109254895D02*
X141620723Y-109912876D01*
X141659428Y-109990285D01*
X141698133Y-110028990D01*
X141775542Y-110067695D01*
X141930361Y-110067695D01*
X142007771Y-110028990D01*
X142046476Y-109990285D01*
X142085180Y-109912876D01*
X142085180Y-109254895D01*
X142433523Y-109332304D02*
X142472228Y-109293600D01*
X142549638Y-109254895D01*
X142743161Y-109254895D01*
X142820571Y-109293600D01*
X142859276Y-109332304D01*
X142897980Y-109409714D01*
X142897980Y-109487123D01*
X142859276Y-109603238D01*
X142394819Y-110067695D01*
X142897980Y-110067695D01*
X138969447Y-111317695D02*
X138969447Y-110504895D01*
X139240380Y-111085466D01*
X139511314Y-110504895D01*
X139511314Y-111317695D01*
X139820952Y-110504895D02*
X140362819Y-111317695D01*
X140362819Y-110504895D02*
X139820952Y-111317695D01*
X140633752Y-110582304D02*
X140672457Y-110543600D01*
X140749866Y-110504895D01*
X140943390Y-110504895D01*
X141020800Y-110543600D01*
X141059504Y-110582304D01*
X141098209Y-110659714D01*
X141098209Y-110737123D01*
X141059504Y-110853238D01*
X140595047Y-111317695D01*
X141098209Y-111317695D01*
X141485257Y-111317695D02*
X141640076Y-111317695D01*
X141717485Y-111278990D01*
X141756190Y-111240285D01*
X141833600Y-111124171D01*
X141872304Y-110969352D01*
X141872304Y-110659714D01*
X141833600Y-110582304D01*
X141794895Y-110543600D01*
X141717485Y-110504895D01*
X141562666Y-110504895D01*
X141485257Y-110543600D01*
X141446552Y-110582304D01*
X141407847Y-110659714D01*
X141407847Y-110853238D01*
X141446552Y-110930647D01*
X141485257Y-110969352D01*
X141562666Y-111008057D01*
X141717485Y-111008057D01*
X141794895Y-110969352D01*
X141833600Y-110930647D01*
X141872304Y-110853238D01*
X142607695Y-111317695D02*
X142220647Y-111317695D01*
X142220647Y-110504895D01*
X142762514Y-110504895D02*
X143033447Y-111317695D01*
X143304380Y-110504895D01*
X143923657Y-110504895D02*
X143768838Y-110504895D01*
X143691428Y-110543600D01*
X143652723Y-110582304D01*
X143575314Y-110698419D01*
X143536609Y-110853238D01*
X143536609Y-111162876D01*
X143575314Y-111240285D01*
X143614019Y-111278990D01*
X143691428Y-111317695D01*
X143846247Y-111317695D01*
X143923657Y-111278990D01*
X143962361Y-111240285D01*
X144001066Y-111162876D01*
X144001066Y-110969352D01*
X143962361Y-110891942D01*
X143923657Y-110853238D01*
X143846247Y-110814533D01*
X143691428Y-110814533D01*
X143614019Y-110853238D01*
X143575314Y-110891942D01*
X143536609Y-110969352D01*
X144697752Y-110775828D02*
X144697752Y-111317695D01*
X144504228Y-110466190D02*
X144310704Y-111046761D01*
X144813866Y-111046761D01*
X145278323Y-110504895D02*
X145355733Y-110504895D01*
X145433142Y-110543600D01*
X145471847Y-110582304D01*
X145510552Y-110659714D01*
X145549257Y-110814533D01*
X145549257Y-111008057D01*
X145510552Y-111162876D01*
X145471847Y-111240285D01*
X145433142Y-111278990D01*
X145355733Y-111317695D01*
X145278323Y-111317695D01*
X145200914Y-111278990D01*
X145162209Y-111240285D01*
X145123504Y-111162876D01*
X145084800Y-111008057D01*
X145084800Y-110814533D01*
X145123504Y-110659714D01*
X145162209Y-110582304D01*
X145200914Y-110543600D01*
X145278323Y-110504895D01*
D11*
X86440714Y-122392333D02*
X86452809Y-122404428D01*
X86464904Y-122440714D01*
X86464904Y-122464904D01*
X86452809Y-122501190D01*
X86428619Y-122525380D01*
X86404428Y-122537476D01*
X86356047Y-122549571D01*
X86319761Y-122549571D01*
X86271380Y-122537476D01*
X86247190Y-122525380D01*
X86223000Y-122501190D01*
X86210904Y-122464904D01*
X86210904Y-122440714D01*
X86223000Y-122404428D01*
X86235095Y-122392333D01*
X86210904Y-122174619D02*
X86210904Y-122223000D01*
X86223000Y-122247190D01*
X86235095Y-122259285D01*
X86271380Y-122283476D01*
X86319761Y-122295571D01*
X86416523Y-122295571D01*
X86440714Y-122283476D01*
X86452809Y-122271380D01*
X86464904Y-122247190D01*
X86464904Y-122198809D01*
X86452809Y-122174619D01*
X86440714Y-122162523D01*
X86416523Y-122150428D01*
X86356047Y-122150428D01*
X86331857Y-122162523D01*
X86319761Y-122174619D01*
X86307666Y-122198809D01*
X86307666Y-122247190D01*
X86319761Y-122271380D01*
X86331857Y-122283476D01*
X86356047Y-122295571D01*
D12*
X86542547Y-122504214D02*
X86536500Y-122498166D01*
X86530452Y-122486071D01*
X86530452Y-122455833D01*
X86536500Y-122443738D01*
X86542547Y-122437690D01*
X86554642Y-122431642D01*
X86566738Y-122431642D01*
X86584880Y-122437690D01*
X86657452Y-122510261D01*
X86657452Y-122431642D01*
X86572785Y-122322785D02*
X86657452Y-122322785D01*
X86572785Y-122377214D02*
X86639309Y-122377214D01*
X86651404Y-122371166D01*
X86657452Y-122359071D01*
X86657452Y-122340928D01*
X86651404Y-122328833D01*
X86645357Y-122322785D01*
X86542547Y-122268357D02*
X86536500Y-122262309D01*
X86530452Y-122250214D01*
X86530452Y-122219976D01*
X86536500Y-122207880D01*
X86542547Y-122201833D01*
X86554642Y-122195785D01*
X86566738Y-122195785D01*
X86584880Y-122201833D01*
X86657452Y-122274404D01*
X86657452Y-122195785D01*
D13*
X81255723Y-119704895D02*
X81255723Y-120362876D01*
X81294428Y-120440285D01*
X81333133Y-120478990D01*
X81410542Y-120517695D01*
X81565361Y-120517695D01*
X81642771Y-120478990D01*
X81681476Y-120440285D01*
X81720180Y-120362876D01*
X81720180Y-119704895D01*
X82029819Y-119704895D02*
X82571685Y-119704895D01*
X82223342Y-120517695D01*
D14*
X80000238Y-118855809D02*
X80338904Y-118855809D01*
X80121190Y-119363809D01*
X80750142Y-119025142D02*
X80750142Y-119363809D01*
X80629190Y-118831619D02*
X80508238Y-119194476D01*
X80822714Y-119194476D01*
X80992047Y-119218666D02*
X81233952Y-119218666D01*
X80943666Y-119363809D02*
X81113000Y-118855809D01*
X81282333Y-119363809D01*
X81451666Y-119363809D02*
X81451666Y-118855809D01*
X81451666Y-119097714D02*
X81741952Y-119097714D01*
X81741952Y-119363809D02*
X81741952Y-118855809D01*
X82274142Y-119315428D02*
X82249952Y-119339619D01*
X82177380Y-119363809D01*
X82129000Y-119363809D01*
X82056428Y-119339619D01*
X82008047Y-119291238D01*
X81983857Y-119242857D01*
X81959666Y-119146095D01*
X81959666Y-119073523D01*
X81983857Y-118976761D01*
X82008047Y-118928380D01*
X82056428Y-118880000D01*
X82129000Y-118855809D01*
X82177380Y-118855809D01*
X82249952Y-118880000D01*
X82274142Y-118904190D01*
X82467666Y-118904190D02*
X82491857Y-118880000D01*
X82540238Y-118855809D01*
X82661190Y-118855809D01*
X82709571Y-118880000D01*
X82733761Y-118904190D01*
X82757952Y-118952571D01*
X82757952Y-119000952D01*
X82733761Y-119073523D01*
X82443476Y-119363809D01*
X82757952Y-119363809D01*
X83193380Y-119025142D02*
X83193380Y-119363809D01*
X83072428Y-118831619D02*
X82951476Y-119194476D01*
X83265952Y-119194476D01*
X83701380Y-118855809D02*
X83459476Y-118855809D01*
X83435285Y-119097714D01*
X83459476Y-119073523D01*
X83507857Y-119049333D01*
X83628809Y-119049333D01*
X83677190Y-119073523D01*
X83701380Y-119097714D01*
X83725571Y-119146095D01*
X83725571Y-119267047D01*
X83701380Y-119315428D01*
X83677190Y-119339619D01*
X83628809Y-119363809D01*
X83507857Y-119363809D01*
X83459476Y-119339619D01*
X83435285Y-119315428D01*
D11*
X106804214Y-122392333D02*
X106816309Y-122404428D01*
X106828404Y-122440714D01*
X106828404Y-122464904D01*
X106816309Y-122501190D01*
X106792119Y-122525380D01*
X106767928Y-122537476D01*
X106719547Y-122549571D01*
X106683261Y-122549571D01*
X106634880Y-122537476D01*
X106610690Y-122525380D01*
X106586500Y-122501190D01*
X106574404Y-122464904D01*
X106574404Y-122440714D01*
X106586500Y-122404428D01*
X106598595Y-122392333D01*
X106683261Y-122247190D02*
X106671166Y-122271380D01*
X106659071Y-122283476D01*
X106634880Y-122295571D01*
X106622785Y-122295571D01*
X106598595Y-122283476D01*
X106586500Y-122271380D01*
X106574404Y-122247190D01*
X106574404Y-122198809D01*
X106586500Y-122174619D01*
X106598595Y-122162523D01*
X106622785Y-122150428D01*
X106634880Y-122150428D01*
X106659071Y-122162523D01*
X106671166Y-122174619D01*
X106683261Y-122198809D01*
X106683261Y-122247190D01*
X106695357Y-122271380D01*
X106707452Y-122283476D01*
X106731642Y-122295571D01*
X106780023Y-122295571D01*
X106804214Y-122283476D01*
X106816309Y-122271380D01*
X106828404Y-122247190D01*
X106828404Y-122198809D01*
X106816309Y-122174619D01*
X106804214Y-122162523D01*
X106780023Y-122150428D01*
X106731642Y-122150428D01*
X106707452Y-122162523D01*
X106695357Y-122174619D01*
X106683261Y-122198809D01*
D12*
X106906047Y-122504214D02*
X106900000Y-122498166D01*
X106893952Y-122486071D01*
X106893952Y-122455833D01*
X106900000Y-122443738D01*
X106906047Y-122437690D01*
X106918142Y-122431642D01*
X106930238Y-122431642D01*
X106948380Y-122437690D01*
X107020952Y-122510261D01*
X107020952Y-122431642D01*
X106936285Y-122322785D02*
X107020952Y-122322785D01*
X106936285Y-122377214D02*
X107002809Y-122377214D01*
X107014904Y-122371166D01*
X107020952Y-122359071D01*
X107020952Y-122340928D01*
X107014904Y-122328833D01*
X107008857Y-122322785D01*
X106906047Y-122268357D02*
X106900000Y-122262309D01*
X106893952Y-122250214D01*
X106893952Y-122219976D01*
X106900000Y-122207880D01*
X106906047Y-122201833D01*
X106918142Y-122195785D01*
X106930238Y-122195785D01*
X106948380Y-122201833D01*
X107020952Y-122274404D01*
X107020952Y-122195785D01*
D13*
X124455723Y-119704895D02*
X124455723Y-120362876D01*
X124494428Y-120440285D01*
X124533133Y-120478990D01*
X124610542Y-120517695D01*
X124765361Y-120517695D01*
X124842771Y-120478990D01*
X124881476Y-120440285D01*
X124920180Y-120362876D01*
X124920180Y-119704895D01*
X125345933Y-120517695D02*
X125500752Y-120517695D01*
X125578161Y-120478990D01*
X125616866Y-120440285D01*
X125694276Y-120324171D01*
X125732980Y-120169352D01*
X125732980Y-119859714D01*
X125694276Y-119782304D01*
X125655571Y-119743600D01*
X125578161Y-119704895D01*
X125423342Y-119704895D01*
X125345933Y-119743600D01*
X125307228Y-119782304D01*
X125268523Y-119859714D01*
X125268523Y-120053238D01*
X125307228Y-120130647D01*
X125345933Y-120169352D01*
X125423342Y-120208057D01*
X125578161Y-120208057D01*
X125655571Y-120169352D01*
X125694276Y-120130647D01*
X125732980Y-120053238D01*
D14*
X123200238Y-118855809D02*
X123538904Y-118855809D01*
X123321190Y-119363809D01*
X123950142Y-119025142D02*
X123950142Y-119363809D01*
X123829190Y-118831619D02*
X123708238Y-119194476D01*
X124022714Y-119194476D01*
X124192047Y-119218666D02*
X124433952Y-119218666D01*
X124143666Y-119363809D02*
X124313000Y-118855809D01*
X124482333Y-119363809D01*
X124651666Y-119363809D02*
X124651666Y-118855809D01*
X124651666Y-119097714D02*
X124941952Y-119097714D01*
X124941952Y-119363809D02*
X124941952Y-118855809D01*
X125474142Y-119315428D02*
X125449952Y-119339619D01*
X125377380Y-119363809D01*
X125329000Y-119363809D01*
X125256428Y-119339619D01*
X125208047Y-119291238D01*
X125183857Y-119242857D01*
X125159666Y-119146095D01*
X125159666Y-119073523D01*
X125183857Y-118976761D01*
X125208047Y-118928380D01*
X125256428Y-118880000D01*
X125329000Y-118855809D01*
X125377380Y-118855809D01*
X125449952Y-118880000D01*
X125474142Y-118904190D01*
X125667666Y-118904190D02*
X125691857Y-118880000D01*
X125740238Y-118855809D01*
X125861190Y-118855809D01*
X125909571Y-118880000D01*
X125933761Y-118904190D01*
X125957952Y-118952571D01*
X125957952Y-119000952D01*
X125933761Y-119073523D01*
X125643476Y-119363809D01*
X125957952Y-119363809D01*
X126393380Y-119025142D02*
X126393380Y-119363809D01*
X126272428Y-118831619D02*
X126151476Y-119194476D01*
X126465952Y-119194476D01*
X126901380Y-118855809D02*
X126659476Y-118855809D01*
X126635285Y-119097714D01*
X126659476Y-119073523D01*
X126707857Y-119049333D01*
X126828809Y-119049333D01*
X126877190Y-119073523D01*
X126901380Y-119097714D01*
X126925571Y-119146095D01*
X126925571Y-119267047D01*
X126901380Y-119315428D01*
X126877190Y-119339619D01*
X126828809Y-119363809D01*
X126707857Y-119363809D01*
X126659476Y-119339619D01*
X126635285Y-119315428D01*
D11*
X129640714Y-122513285D02*
X129652809Y-122525380D01*
X129664904Y-122561666D01*
X129664904Y-122585857D01*
X129652809Y-122622142D01*
X129628619Y-122646333D01*
X129604428Y-122658428D01*
X129556047Y-122670523D01*
X129519761Y-122670523D01*
X129471380Y-122658428D01*
X129447190Y-122646333D01*
X129423000Y-122622142D01*
X129410904Y-122585857D01*
X129410904Y-122561666D01*
X129423000Y-122525380D01*
X129435095Y-122513285D01*
X129664904Y-122271380D02*
X129664904Y-122416523D01*
X129664904Y-122343952D02*
X129410904Y-122343952D01*
X129447190Y-122368142D01*
X129471380Y-122392333D01*
X129483476Y-122416523D01*
X129410904Y-122114142D02*
X129410904Y-122089952D01*
X129423000Y-122065761D01*
X129435095Y-122053666D01*
X129459285Y-122041571D01*
X129507666Y-122029476D01*
X129568142Y-122029476D01*
X129616523Y-122041571D01*
X129640714Y-122053666D01*
X129652809Y-122065761D01*
X129664904Y-122089952D01*
X129664904Y-122114142D01*
X129652809Y-122138333D01*
X129640714Y-122150428D01*
X129616523Y-122162523D01*
X129568142Y-122174619D01*
X129507666Y-122174619D01*
X129459285Y-122162523D01*
X129435095Y-122150428D01*
X129423000Y-122138333D01*
X129410904Y-122114142D01*
D12*
X129742547Y-122504214D02*
X129736500Y-122498166D01*
X129730452Y-122486071D01*
X129730452Y-122455833D01*
X129736500Y-122443738D01*
X129742547Y-122437690D01*
X129754642Y-122431642D01*
X129766738Y-122431642D01*
X129784880Y-122437690D01*
X129857452Y-122510261D01*
X129857452Y-122431642D01*
X129772785Y-122322785D02*
X129857452Y-122322785D01*
X129772785Y-122377214D02*
X129839309Y-122377214D01*
X129851404Y-122371166D01*
X129857452Y-122359071D01*
X129857452Y-122340928D01*
X129851404Y-122328833D01*
X129845357Y-122322785D01*
X129742547Y-122268357D02*
X129736500Y-122262309D01*
X129730452Y-122250214D01*
X129730452Y-122219976D01*
X129736500Y-122207880D01*
X129742547Y-122201833D01*
X129754642Y-122195785D01*
X129766738Y-122195785D01*
X129784880Y-122201833D01*
X129857452Y-122274404D01*
X129857452Y-122195785D01*
D11*
X141590714Y-122392333D02*
X141602809Y-122404428D01*
X141614904Y-122440714D01*
X141614904Y-122464904D01*
X141602809Y-122501190D01*
X141578619Y-122525380D01*
X141554428Y-122537476D01*
X141506047Y-122549571D01*
X141469761Y-122549571D01*
X141421380Y-122537476D01*
X141397190Y-122525380D01*
X141373000Y-122501190D01*
X141360904Y-122464904D01*
X141360904Y-122440714D01*
X141373000Y-122404428D01*
X141385095Y-122392333D01*
X141385095Y-122295571D02*
X141373000Y-122283476D01*
X141360904Y-122259285D01*
X141360904Y-122198809D01*
X141373000Y-122174619D01*
X141385095Y-122162523D01*
X141409285Y-122150428D01*
X141433476Y-122150428D01*
X141469761Y-122162523D01*
X141614904Y-122307666D01*
X141614904Y-122150428D01*
D12*
X141692547Y-122504214D02*
X141686500Y-122498166D01*
X141680452Y-122486071D01*
X141680452Y-122455833D01*
X141686500Y-122443738D01*
X141692547Y-122437690D01*
X141704642Y-122431642D01*
X141716738Y-122431642D01*
X141734880Y-122437690D01*
X141807452Y-122510261D01*
X141807452Y-122431642D01*
X141722785Y-122322785D02*
X141807452Y-122322785D01*
X141722785Y-122377214D02*
X141789309Y-122377214D01*
X141801404Y-122371166D01*
X141807452Y-122359071D01*
X141807452Y-122340928D01*
X141801404Y-122328833D01*
X141795357Y-122322785D01*
X141692547Y-122268357D02*
X141686500Y-122262309D01*
X141680452Y-122250214D01*
X141680452Y-122219976D01*
X141686500Y-122207880D01*
X141692547Y-122201833D01*
X141704642Y-122195785D01*
X141716738Y-122195785D01*
X141734880Y-122201833D01*
X141807452Y-122274404D01*
X141807452Y-122195785D01*
D11*
X86690714Y-108863285D02*
X86702809Y-108875380D01*
X86714904Y-108911666D01*
X86714904Y-108935857D01*
X86702809Y-108972142D01*
X86678619Y-108996333D01*
X86654428Y-109008428D01*
X86606047Y-109020523D01*
X86569761Y-109020523D01*
X86521380Y-109008428D01*
X86497190Y-108996333D01*
X86473000Y-108972142D01*
X86460904Y-108935857D01*
X86460904Y-108911666D01*
X86473000Y-108875380D01*
X86485095Y-108863285D01*
X86714904Y-108621380D02*
X86714904Y-108766523D01*
X86714904Y-108693952D02*
X86460904Y-108693952D01*
X86497190Y-108718142D01*
X86521380Y-108742333D01*
X86533476Y-108766523D01*
X86545571Y-108403666D02*
X86714904Y-108403666D01*
X86448809Y-108464142D02*
X86630238Y-108524619D01*
X86630238Y-108367380D01*
D12*
X86792547Y-108854214D02*
X86786500Y-108848166D01*
X86780452Y-108836071D01*
X86780452Y-108805833D01*
X86786500Y-108793738D01*
X86792547Y-108787690D01*
X86804642Y-108781642D01*
X86816738Y-108781642D01*
X86834880Y-108787690D01*
X86907452Y-108860261D01*
X86907452Y-108781642D01*
X86822785Y-108672785D02*
X86907452Y-108672785D01*
X86822785Y-108727214D02*
X86889309Y-108727214D01*
X86901404Y-108721166D01*
X86907452Y-108709071D01*
X86907452Y-108690928D01*
X86901404Y-108678833D01*
X86895357Y-108672785D01*
X86792547Y-108618357D02*
X86786500Y-108612309D01*
X86780452Y-108600214D01*
X86780452Y-108569976D01*
X86786500Y-108557880D01*
X86792547Y-108551833D01*
X86804642Y-108545785D01*
X86816738Y-108545785D01*
X86834880Y-108551833D01*
X86907452Y-108624404D01*
X86907452Y-108545785D01*
D10*
X167465428Y-123415428D02*
X167332095Y-123415428D01*
X167332095Y-123624952D02*
X167332095Y-123224952D01*
X167522571Y-123224952D01*
X167674952Y-123624952D02*
X167674952Y-123224952D01*
X167865428Y-123624952D02*
X167865428Y-123224952D01*
X167960666Y-123224952D01*
X168017809Y-123244000D01*
X168055904Y-123282095D01*
X168074952Y-123320190D01*
X168094000Y-123396380D01*
X168094000Y-123453523D01*
X168074952Y-123529714D01*
X168055904Y-123567809D01*
X168017809Y-123605904D01*
X167960666Y-123624952D01*
X167865428Y-123624952D01*
X168227333Y-123224952D02*
X168474952Y-123224952D01*
X168341619Y-123377333D01*
X168398761Y-123377333D01*
X168436857Y-123396380D01*
X168455904Y-123415428D01*
X168474952Y-123453523D01*
X168474952Y-123548761D01*
X168455904Y-123586857D01*
X168436857Y-123605904D01*
X168398761Y-123624952D01*
X168284476Y-123624952D01*
X168246380Y-123605904D01*
X168227333Y-123586857D01*
X162004428Y-104238428D02*
X161871095Y-104238428D01*
X161871095Y-104447952D02*
X161871095Y-104047952D01*
X162061571Y-104047952D01*
X162213952Y-104447952D02*
X162213952Y-104047952D01*
X162404428Y-104447952D02*
X162404428Y-104047952D01*
X162499666Y-104047952D01*
X162556809Y-104067000D01*
X162594904Y-104105095D01*
X162613952Y-104143190D01*
X162633000Y-104219380D01*
X162633000Y-104276523D01*
X162613952Y-104352714D01*
X162594904Y-104390809D01*
X162556809Y-104428904D01*
X162499666Y-104447952D01*
X162404428Y-104447952D01*
X162975857Y-104181285D02*
X162975857Y-104447952D01*
X162880619Y-104028904D02*
X162785380Y-104314619D01*
X163033000Y-104314619D01*
X75517428Y-104238428D02*
X75384095Y-104238428D01*
X75384095Y-104447952D02*
X75384095Y-104047952D01*
X75574571Y-104047952D01*
X75726952Y-104447952D02*
X75726952Y-104047952D01*
X75917428Y-104447952D02*
X75917428Y-104047952D01*
X76012666Y-104047952D01*
X76069809Y-104067000D01*
X76107904Y-104105095D01*
X76126952Y-104143190D01*
X76146000Y-104219380D01*
X76146000Y-104276523D01*
X76126952Y-104352714D01*
X76107904Y-104390809D01*
X76069809Y-104428904D01*
X76012666Y-104447952D01*
X75917428Y-104447952D01*
X76526952Y-104447952D02*
X76298380Y-104447952D01*
X76412666Y-104447952D02*
X76412666Y-104047952D01*
X76374571Y-104105095D01*
X76336476Y-104143190D01*
X76298380Y-104162238D01*
D11*
X126686714Y-109490714D02*
X126674619Y-109502809D01*
X126638333Y-109514904D01*
X126614142Y-109514904D01*
X126577857Y-109502809D01*
X126553666Y-109478619D01*
X126541571Y-109454428D01*
X126529476Y-109406047D01*
X126529476Y-109369761D01*
X126541571Y-109321380D01*
X126553666Y-109297190D01*
X126577857Y-109273000D01*
X126614142Y-109260904D01*
X126638333Y-109260904D01*
X126674619Y-109273000D01*
X126686714Y-109285095D01*
X126928619Y-109514904D02*
X126783476Y-109514904D01*
X126856047Y-109514904D02*
X126856047Y-109260904D01*
X126831857Y-109297190D01*
X126807666Y-109321380D01*
X126783476Y-109333476D01*
X127158428Y-109260904D02*
X127037476Y-109260904D01*
X127025380Y-109381857D01*
X127037476Y-109369761D01*
X127061666Y-109357666D01*
X127122142Y-109357666D01*
X127146333Y-109369761D01*
X127158428Y-109381857D01*
X127170523Y-109406047D01*
X127170523Y-109466523D01*
X127158428Y-109490714D01*
X127146333Y-109502809D01*
X127122142Y-109514904D01*
X127061666Y-109514904D01*
X127037476Y-109502809D01*
X127025380Y-109490714D01*
D12*
X126695785Y-109592547D02*
X126701833Y-109586500D01*
X126713928Y-109580452D01*
X126744166Y-109580452D01*
X126756261Y-109586500D01*
X126762309Y-109592547D01*
X126768357Y-109604642D01*
X126768357Y-109616738D01*
X126762309Y-109634880D01*
X126689738Y-109707452D01*
X126768357Y-109707452D01*
X126877214Y-109622785D02*
X126877214Y-109707452D01*
X126822785Y-109622785D02*
X126822785Y-109689309D01*
X126828833Y-109701404D01*
X126840928Y-109707452D01*
X126859071Y-109707452D01*
X126871166Y-109701404D01*
X126877214Y-109695357D01*
X126931642Y-109592547D02*
X126937690Y-109586500D01*
X126949785Y-109580452D01*
X126980023Y-109580452D01*
X126992119Y-109586500D01*
X126998166Y-109592547D01*
X127004214Y-109604642D01*
X127004214Y-109616738D01*
X126998166Y-109634880D01*
X126925595Y-109707452D01*
X127004214Y-109707452D01*
D11*
X77690714Y-121165333D02*
X77702809Y-121177428D01*
X77714904Y-121213714D01*
X77714904Y-121237904D01*
X77702809Y-121274190D01*
X77678619Y-121298380D01*
X77654428Y-121310476D01*
X77606047Y-121322571D01*
X77569761Y-121322571D01*
X77521380Y-121310476D01*
X77497190Y-121298380D01*
X77473000Y-121274190D01*
X77460904Y-121237904D01*
X77460904Y-121213714D01*
X77473000Y-121177428D01*
X77485095Y-121165333D01*
X77714904Y-120923428D02*
X77714904Y-121068571D01*
X77714904Y-120996000D02*
X77460904Y-120996000D01*
X77497190Y-121020190D01*
X77521380Y-121044380D01*
X77533476Y-121068571D01*
D12*
X77792547Y-121277214D02*
X77786500Y-121271166D01*
X77780452Y-121259071D01*
X77780452Y-121228833D01*
X77786500Y-121216738D01*
X77792547Y-121210690D01*
X77804642Y-121204642D01*
X77816738Y-121204642D01*
X77834880Y-121210690D01*
X77907452Y-121283261D01*
X77907452Y-121204642D01*
X77822785Y-121095785D02*
X77907452Y-121095785D01*
X77822785Y-121150214D02*
X77889309Y-121150214D01*
X77901404Y-121144166D01*
X77907452Y-121132071D01*
X77907452Y-121113928D01*
X77901404Y-121101833D01*
X77895357Y-121095785D01*
X77792547Y-121041357D02*
X77786500Y-121035309D01*
X77780452Y-121023214D01*
X77780452Y-120992976D01*
X77786500Y-120980880D01*
X77792547Y-120974833D01*
X77804642Y-120968785D01*
X77816738Y-120968785D01*
X77834880Y-120974833D01*
X77907452Y-121047404D01*
X77907452Y-120968785D01*
D11*
X96785523Y-118810904D02*
X96785523Y-119016523D01*
X96797619Y-119040714D01*
X96809714Y-119052809D01*
X96833904Y-119064904D01*
X96882285Y-119064904D01*
X96906476Y-119052809D01*
X96918571Y-119040714D01*
X96930666Y-119016523D01*
X96930666Y-118810904D01*
X97184666Y-119064904D02*
X97039523Y-119064904D01*
X97112095Y-119064904D02*
X97112095Y-118810904D01*
X97087904Y-118847190D01*
X97063714Y-118871380D01*
X97039523Y-118883476D01*
X97281428Y-118835095D02*
X97293523Y-118823000D01*
X97317714Y-118810904D01*
X97378190Y-118810904D01*
X97402380Y-118823000D01*
X97414476Y-118835095D01*
X97426571Y-118859285D01*
X97426571Y-118883476D01*
X97414476Y-118919761D01*
X97269333Y-119064904D01*
X97426571Y-119064904D01*
D16*
X96120285Y-119195678D02*
X96247285Y-119195678D01*
X96165642Y-119386178D01*
X96401500Y-119259178D02*
X96401500Y-119386178D01*
X96356142Y-119186607D02*
X96310785Y-119322678D01*
X96428714Y-119322678D01*
X96592000Y-119386178D02*
X96501285Y-119386178D01*
X96501285Y-119195678D01*
X96628285Y-119195678D02*
X96691785Y-119386178D01*
X96755285Y-119195678D01*
X96927642Y-119368035D02*
X96918571Y-119377107D01*
X96891357Y-119386178D01*
X96873214Y-119386178D01*
X96846000Y-119377107D01*
X96827857Y-119358964D01*
X96818785Y-119340821D01*
X96809714Y-119304535D01*
X96809714Y-119277321D01*
X96818785Y-119241035D01*
X96827857Y-119222892D01*
X96846000Y-119204750D01*
X96873214Y-119195678D01*
X96891357Y-119195678D01*
X96918571Y-119204750D01*
X96927642Y-119213821D01*
X97109071Y-119386178D02*
X97000214Y-119386178D01*
X97054642Y-119386178D02*
X97054642Y-119195678D01*
X97036500Y-119222892D01*
X97018357Y-119241035D01*
X97000214Y-119250107D01*
X97290500Y-119204750D02*
X97272357Y-119195678D01*
X97245142Y-119195678D01*
X97217928Y-119204750D01*
X97199785Y-119222892D01*
X97190714Y-119241035D01*
X97181642Y-119277321D01*
X97181642Y-119304535D01*
X97190714Y-119340821D01*
X97199785Y-119358964D01*
X97217928Y-119377107D01*
X97245142Y-119386178D01*
X97263285Y-119386178D01*
X97290500Y-119377107D01*
X97299571Y-119368035D01*
X97299571Y-119304535D01*
X97263285Y-119304535D01*
X97417500Y-119195678D02*
X97435642Y-119195678D01*
X97453785Y-119204750D01*
X97462857Y-119213821D01*
X97471928Y-119231964D01*
X97481000Y-119268250D01*
X97481000Y-119313607D01*
X97471928Y-119349892D01*
X97462857Y-119368035D01*
X97453785Y-119377107D01*
X97435642Y-119386178D01*
X97417500Y-119386178D01*
X97399357Y-119377107D01*
X97390285Y-119368035D01*
X97381214Y-119349892D01*
X97372142Y-119313607D01*
X97372142Y-119268250D01*
X97381214Y-119231964D01*
X97390285Y-119213821D01*
X97399357Y-119204750D01*
X97417500Y-119195678D01*
X97553571Y-119213821D02*
X97562642Y-119204750D01*
X97580785Y-119195678D01*
X97626142Y-119195678D01*
X97644285Y-119204750D01*
X97653357Y-119213821D01*
X97662428Y-119231964D01*
X97662428Y-119250107D01*
X97653357Y-119277321D01*
X97544500Y-119386178D01*
X97662428Y-119386178D01*
X97843857Y-119204750D02*
X97825714Y-119195678D01*
X97798500Y-119195678D01*
X97771285Y-119204750D01*
X97753142Y-119222892D01*
X97744071Y-119241035D01*
X97735000Y-119277321D01*
X97735000Y-119304535D01*
X97744071Y-119340821D01*
X97753142Y-119358964D01*
X97771285Y-119377107D01*
X97798500Y-119386178D01*
X97816642Y-119386178D01*
X97843857Y-119377107D01*
X97852928Y-119368035D01*
X97852928Y-119304535D01*
X97816642Y-119304535D01*
X97916428Y-119195678D02*
X97961785Y-119386178D01*
X97998071Y-119250107D01*
X98034357Y-119386178D01*
X98079714Y-119195678D01*
D11*
X156807666Y-104514904D02*
X156723000Y-104393952D01*
X156662523Y-104514904D02*
X156662523Y-104260904D01*
X156759285Y-104260904D01*
X156783476Y-104273000D01*
X156795571Y-104285095D01*
X156807666Y-104309285D01*
X156807666Y-104345571D01*
X156795571Y-104369761D01*
X156783476Y-104381857D01*
X156759285Y-104393952D01*
X156662523Y-104393952D01*
X157049571Y-104514904D02*
X156904428Y-104514904D01*
X156977000Y-104514904D02*
X156977000Y-104260904D01*
X156952809Y-104297190D01*
X156928619Y-104321380D01*
X156904428Y-104333476D01*
D12*
X156695785Y-104080452D02*
X156774404Y-104080452D01*
X156732071Y-104128833D01*
X156750214Y-104128833D01*
X156762309Y-104134880D01*
X156768357Y-104140928D01*
X156774404Y-104153023D01*
X156774404Y-104183261D01*
X156768357Y-104195357D01*
X156762309Y-104201404D01*
X156750214Y-104207452D01*
X156713928Y-104207452D01*
X156701833Y-104201404D01*
X156695785Y-104195357D01*
X156828833Y-104207452D02*
X156828833Y-104080452D01*
X156840928Y-104159071D02*
X156877214Y-104207452D01*
X156877214Y-104122785D02*
X156828833Y-104171166D01*
X156919547Y-104080452D02*
X156998166Y-104080452D01*
X156955833Y-104128833D01*
X156973976Y-104128833D01*
X156986071Y-104134880D01*
X156992119Y-104140928D01*
X156998166Y-104153023D01*
X156998166Y-104183261D01*
X156992119Y-104195357D01*
X156986071Y-104201404D01*
X156973976Y-104207452D01*
X156937690Y-104207452D01*
X156925595Y-104201404D01*
X156919547Y-104195357D01*
D11*
X154864904Y-105142333D02*
X154743952Y-105227000D01*
X154864904Y-105287476D02*
X154610904Y-105287476D01*
X154610904Y-105190714D01*
X154623000Y-105166523D01*
X154635095Y-105154428D01*
X154659285Y-105142333D01*
X154695571Y-105142333D01*
X154719761Y-105154428D01*
X154731857Y-105166523D01*
X154743952Y-105190714D01*
X154743952Y-105287476D01*
X154695571Y-104924619D02*
X154864904Y-104924619D01*
X154598809Y-104985095D02*
X154780238Y-105045571D01*
X154780238Y-104888333D01*
D12*
X154930452Y-105254214D02*
X154930452Y-105175595D01*
X154978833Y-105217928D01*
X154978833Y-105199785D01*
X154984880Y-105187690D01*
X154990928Y-105181642D01*
X155003023Y-105175595D01*
X155033261Y-105175595D01*
X155045357Y-105181642D01*
X155051404Y-105187690D01*
X155057452Y-105199785D01*
X155057452Y-105236071D01*
X155051404Y-105248166D01*
X155045357Y-105254214D01*
X155057452Y-105121166D02*
X154930452Y-105121166D01*
X155009071Y-105109071D02*
X155057452Y-105072785D01*
X154972785Y-105072785D02*
X155021166Y-105121166D01*
X154930452Y-105030452D02*
X154930452Y-104951833D01*
X154978833Y-104994166D01*
X154978833Y-104976023D01*
X154984880Y-104963928D01*
X154990928Y-104957880D01*
X155003023Y-104951833D01*
X155033261Y-104951833D01*
X155045357Y-104957880D01*
X155051404Y-104963928D01*
X155057452Y-104976023D01*
X155057452Y-105012309D01*
X155051404Y-105024404D01*
X155045357Y-105030452D01*
D11*
X118707666Y-119814904D02*
X118623000Y-119693952D01*
X118562523Y-119814904D02*
X118562523Y-119560904D01*
X118659285Y-119560904D01*
X118683476Y-119573000D01*
X118695571Y-119585095D01*
X118707666Y-119609285D01*
X118707666Y-119645571D01*
X118695571Y-119669761D01*
X118683476Y-119681857D01*
X118659285Y-119693952D01*
X118562523Y-119693952D01*
X118792333Y-119560904D02*
X118949571Y-119560904D01*
X118864904Y-119657666D01*
X118901190Y-119657666D01*
X118925380Y-119669761D01*
X118937476Y-119681857D01*
X118949571Y-119706047D01*
X118949571Y-119766523D01*
X118937476Y-119790714D01*
X118925380Y-119802809D01*
X118901190Y-119814904D01*
X118828619Y-119814904D01*
X118804428Y-119802809D01*
X118792333Y-119790714D01*
D12*
X118665333Y-119507452D02*
X118592761Y-119507452D01*
X118629047Y-119507452D02*
X118629047Y-119380452D01*
X118616952Y-119398595D01*
X118604857Y-119410690D01*
X118592761Y-119416738D01*
X118743952Y-119380452D02*
X118756047Y-119380452D01*
X118768142Y-119386500D01*
X118774190Y-119392547D01*
X118780238Y-119404642D01*
X118786285Y-119428833D01*
X118786285Y-119459071D01*
X118780238Y-119483261D01*
X118774190Y-119495357D01*
X118768142Y-119501404D01*
X118756047Y-119507452D01*
X118743952Y-119507452D01*
X118731857Y-119501404D01*
X118725809Y-119495357D01*
X118719761Y-119483261D01*
X118713714Y-119459071D01*
X118713714Y-119428833D01*
X118719761Y-119404642D01*
X118725809Y-119392547D01*
X118731857Y-119386500D01*
X118743952Y-119380452D01*
X118864904Y-119380452D02*
X118877000Y-119380452D01*
X118889095Y-119386500D01*
X118895142Y-119392547D01*
X118901190Y-119404642D01*
X118907238Y-119428833D01*
X118907238Y-119459071D01*
X118901190Y-119483261D01*
X118895142Y-119495357D01*
X118889095Y-119501404D01*
X118877000Y-119507452D01*
X118864904Y-119507452D01*
X118852809Y-119501404D01*
X118846761Y-119495357D01*
X118840714Y-119483261D01*
X118834666Y-119459071D01*
X118834666Y-119428833D01*
X118840714Y-119404642D01*
X118846761Y-119392547D01*
X118852809Y-119386500D01*
X118864904Y-119380452D01*
D17*
X78141357Y-111621714D02*
X78449785Y-111621714D01*
X78486071Y-111603571D01*
X78504214Y-111585428D01*
X78522357Y-111549142D01*
X78522357Y-111476571D01*
X78504214Y-111440285D01*
X78486071Y-111422142D01*
X78449785Y-111404000D01*
X78141357Y-111404000D01*
X78522357Y-111023000D02*
X78522357Y-111240714D01*
X78522357Y-111131857D02*
X78141357Y-111131857D01*
X78195785Y-111168142D01*
X78232071Y-111204428D01*
X78250214Y-111240714D01*
X78522357Y-110660142D02*
X78522357Y-110877857D01*
X78522357Y-110769000D02*
X78141357Y-110769000D01*
X78195785Y-110805285D01*
X78232071Y-110841571D01*
X78250214Y-110877857D01*
D12*
X78730452Y-111878738D02*
X78857452Y-111794071D01*
X78730452Y-111794071D02*
X78857452Y-111878738D01*
X78845357Y-111673119D02*
X78851404Y-111679166D01*
X78857452Y-111697309D01*
X78857452Y-111709404D01*
X78851404Y-111727547D01*
X78839309Y-111739642D01*
X78827214Y-111745690D01*
X78803023Y-111751738D01*
X78784880Y-111751738D01*
X78760690Y-111745690D01*
X78748595Y-111739642D01*
X78736500Y-111727547D01*
X78730452Y-111709404D01*
X78730452Y-111697309D01*
X78736500Y-111679166D01*
X78742547Y-111673119D01*
X78730452Y-111564261D02*
X78730452Y-111588452D01*
X78736500Y-111600547D01*
X78742547Y-111606595D01*
X78760690Y-111618690D01*
X78784880Y-111624738D01*
X78833261Y-111624738D01*
X78845357Y-111618690D01*
X78851404Y-111612642D01*
X78857452Y-111600547D01*
X78857452Y-111576357D01*
X78851404Y-111564261D01*
X78845357Y-111558214D01*
X78833261Y-111552166D01*
X78803023Y-111552166D01*
X78790928Y-111558214D01*
X78784880Y-111564261D01*
X78778833Y-111576357D01*
X78778833Y-111600547D01*
X78784880Y-111612642D01*
X78790928Y-111618690D01*
X78803023Y-111624738D01*
X78742547Y-111503785D02*
X78736500Y-111497738D01*
X78730452Y-111485642D01*
X78730452Y-111455404D01*
X78736500Y-111443309D01*
X78742547Y-111437261D01*
X78754642Y-111431214D01*
X78766738Y-111431214D01*
X78784880Y-111437261D01*
X78857452Y-111509833D01*
X78857452Y-111431214D01*
X78730452Y-111352595D02*
X78730452Y-111340500D01*
X78736500Y-111328404D01*
X78742547Y-111322357D01*
X78754642Y-111316309D01*
X78778833Y-111310261D01*
X78809071Y-111310261D01*
X78833261Y-111316309D01*
X78845357Y-111322357D01*
X78851404Y-111328404D01*
X78857452Y-111340500D01*
X78857452Y-111352595D01*
X78851404Y-111364690D01*
X78845357Y-111370738D01*
X78833261Y-111376785D01*
X78809071Y-111382833D01*
X78778833Y-111382833D01*
X78754642Y-111376785D01*
X78742547Y-111370738D01*
X78736500Y-111364690D01*
X78730452Y-111352595D01*
X78730452Y-111201404D02*
X78730452Y-111225595D01*
X78736500Y-111237690D01*
X78742547Y-111243738D01*
X78760690Y-111255833D01*
X78784880Y-111261880D01*
X78833261Y-111261880D01*
X78845357Y-111255833D01*
X78851404Y-111249785D01*
X78857452Y-111237690D01*
X78857452Y-111213500D01*
X78851404Y-111201404D01*
X78845357Y-111195357D01*
X78833261Y-111189309D01*
X78803023Y-111189309D01*
X78790928Y-111195357D01*
X78784880Y-111201404D01*
X78778833Y-111213500D01*
X78778833Y-111237690D01*
X78784880Y-111249785D01*
X78790928Y-111255833D01*
X78803023Y-111261880D01*
X78857452Y-111134880D02*
X78730452Y-111134880D01*
X78730452Y-111086500D01*
X78736500Y-111074404D01*
X78742547Y-111068357D01*
X78754642Y-111062309D01*
X78772785Y-111062309D01*
X78784880Y-111068357D01*
X78790928Y-111074404D01*
X78796976Y-111086500D01*
X78796976Y-111134880D01*
X78730452Y-111019976D02*
X78730452Y-110941357D01*
X78778833Y-110983690D01*
X78778833Y-110965547D01*
X78784880Y-110953452D01*
X78790928Y-110947404D01*
X78803023Y-110941357D01*
X78833261Y-110941357D01*
X78845357Y-110947404D01*
X78851404Y-110953452D01*
X78857452Y-110965547D01*
X78857452Y-111001833D01*
X78851404Y-111013928D01*
X78845357Y-111019976D01*
X78730452Y-110899023D02*
X78730452Y-110820404D01*
X78778833Y-110862738D01*
X78778833Y-110844595D01*
X78784880Y-110832500D01*
X78790928Y-110826452D01*
X78803023Y-110820404D01*
X78833261Y-110820404D01*
X78845357Y-110826452D01*
X78851404Y-110832500D01*
X78857452Y-110844595D01*
X78857452Y-110880880D01*
X78851404Y-110892976D01*
X78845357Y-110899023D01*
X78742547Y-110772023D02*
X78736500Y-110765976D01*
X78730452Y-110753880D01*
X78730452Y-110723642D01*
X78736500Y-110711547D01*
X78742547Y-110705500D01*
X78754642Y-110699452D01*
X78766738Y-110699452D01*
X78784880Y-110705500D01*
X78857452Y-110778071D01*
X78857452Y-110699452D01*
X78857452Y-110645023D02*
X78730452Y-110645023D01*
X78821166Y-110602690D01*
X78730452Y-110560357D01*
X78857452Y-110560357D01*
X78857452Y-110427309D02*
X78796976Y-110469642D01*
X78857452Y-110499880D02*
X78730452Y-110499880D01*
X78730452Y-110451500D01*
X78736500Y-110439404D01*
X78742547Y-110433357D01*
X78754642Y-110427309D01*
X78772785Y-110427309D01*
X78784880Y-110433357D01*
X78790928Y-110439404D01*
X78796976Y-110451500D01*
X78796976Y-110499880D01*
D10*
X73101238Y-104447952D02*
X73101238Y-104047952D01*
X73101238Y-104238428D02*
X73329809Y-104238428D01*
X73329809Y-104447952D02*
X73329809Y-104047952D01*
X73729809Y-104447952D02*
X73501238Y-104447952D01*
X73615523Y-104447952D02*
X73615523Y-104047952D01*
X73577428Y-104105095D01*
X73539333Y-104143190D01*
X73501238Y-104162238D01*
X75133238Y-126164952D02*
X75133238Y-125764952D01*
X75133238Y-125955428D02*
X75361809Y-125955428D01*
X75361809Y-126164952D02*
X75361809Y-125764952D01*
X75533238Y-125803047D02*
X75552285Y-125784000D01*
X75590380Y-125764952D01*
X75685619Y-125764952D01*
X75723714Y-125784000D01*
X75742761Y-125803047D01*
X75761809Y-125841142D01*
X75761809Y-125879238D01*
X75742761Y-125936380D01*
X75514190Y-126164952D01*
X75761809Y-126164952D01*
X167589238Y-126164952D02*
X167589238Y-125764952D01*
X167589238Y-125955428D02*
X167817809Y-125955428D01*
X167817809Y-126164952D02*
X167817809Y-125764952D01*
X167970190Y-125764952D02*
X168217809Y-125764952D01*
X168084476Y-125917333D01*
X168141619Y-125917333D01*
X168179714Y-125936380D01*
X168198761Y-125955428D01*
X168217809Y-125993523D01*
X168217809Y-126088761D01*
X168198761Y-126126857D01*
X168179714Y-126145904D01*
X168141619Y-126164952D01*
X168027333Y-126164952D01*
X167989238Y-126145904D01*
X167970190Y-126126857D01*
X167589238Y-104447952D02*
X167589238Y-104047952D01*
X167589238Y-104238428D02*
X167817809Y-104238428D01*
X167817809Y-104447952D02*
X167817809Y-104047952D01*
X168179714Y-104181285D02*
X168179714Y-104447952D01*
X168084476Y-104028904D02*
X167989238Y-104314619D01*
X168236857Y-104314619D01*
D11*
X159657666Y-104514904D02*
X159573000Y-104393952D01*
X159512523Y-104514904D02*
X159512523Y-104260904D01*
X159609285Y-104260904D01*
X159633476Y-104273000D01*
X159645571Y-104285095D01*
X159657666Y-104309285D01*
X159657666Y-104345571D01*
X159645571Y-104369761D01*
X159633476Y-104381857D01*
X159609285Y-104393952D01*
X159512523Y-104393952D01*
X159754428Y-104285095D02*
X159766523Y-104273000D01*
X159790714Y-104260904D01*
X159851190Y-104260904D01*
X159875380Y-104273000D01*
X159887476Y-104285095D01*
X159899571Y-104309285D01*
X159899571Y-104333476D01*
X159887476Y-104369761D01*
X159742333Y-104514904D01*
X159899571Y-104514904D01*
D12*
X159545785Y-104580452D02*
X159624404Y-104580452D01*
X159582071Y-104628833D01*
X159600214Y-104628833D01*
X159612309Y-104634880D01*
X159618357Y-104640928D01*
X159624404Y-104653023D01*
X159624404Y-104683261D01*
X159618357Y-104695357D01*
X159612309Y-104701404D01*
X159600214Y-104707452D01*
X159563928Y-104707452D01*
X159551833Y-104701404D01*
X159545785Y-104695357D01*
X159678833Y-104707452D02*
X159678833Y-104580452D01*
X159690928Y-104659071D02*
X159727214Y-104707452D01*
X159727214Y-104622785D02*
X159678833Y-104671166D01*
X159769547Y-104580452D02*
X159848166Y-104580452D01*
X159805833Y-104628833D01*
X159823976Y-104628833D01*
X159836071Y-104634880D01*
X159842119Y-104640928D01*
X159848166Y-104653023D01*
X159848166Y-104683261D01*
X159842119Y-104695357D01*
X159836071Y-104701404D01*
X159823976Y-104707452D01*
X159787690Y-104707452D01*
X159775595Y-104701404D01*
X159769547Y-104695357D01*
D13*
X156904266Y-109294990D02*
X157020380Y-109333695D01*
X157213904Y-109333695D01*
X157291314Y-109294990D01*
X157330019Y-109256285D01*
X157368723Y-109178876D01*
X157368723Y-109101466D01*
X157330019Y-109024057D01*
X157291314Y-108985352D01*
X157213904Y-108946647D01*
X157059085Y-108907942D01*
X156981676Y-108869238D01*
X156942971Y-108830533D01*
X156904266Y-108753123D01*
X156904266Y-108675714D01*
X156942971Y-108598304D01*
X156981676Y-108559600D01*
X157059085Y-108520895D01*
X157252609Y-108520895D01*
X157368723Y-108559600D01*
X157639657Y-108520895D02*
X157833180Y-109333695D01*
X157988000Y-108753123D01*
X158142819Y-109333695D01*
X158336342Y-108520895D01*
X159071733Y-109333695D02*
X158607276Y-109333695D01*
X158839504Y-109333695D02*
X158839504Y-108520895D01*
X158762095Y-108637009D01*
X158684685Y-108714419D01*
X158607276Y-108753123D01*
X156532942Y-113143695D02*
X156262009Y-112756647D01*
X156068485Y-113143695D02*
X156068485Y-112330895D01*
X156378123Y-112330895D01*
X156455533Y-112369600D01*
X156494238Y-112408304D01*
X156532942Y-112485714D01*
X156532942Y-112601828D01*
X156494238Y-112679238D01*
X156455533Y-112717942D01*
X156378123Y-112756647D01*
X156068485Y-112756647D01*
X157036104Y-112330895D02*
X157190923Y-112330895D01*
X157268333Y-112369600D01*
X157345742Y-112447009D01*
X157384447Y-112601828D01*
X157384447Y-112872761D01*
X157345742Y-113027580D01*
X157268333Y-113104990D01*
X157190923Y-113143695D01*
X157036104Y-113143695D01*
X156958695Y-113104990D01*
X156881285Y-113027580D01*
X156842580Y-112872761D01*
X156842580Y-112601828D01*
X156881285Y-112447009D01*
X156958695Y-112369600D01*
X157036104Y-112330895D01*
X157732790Y-113143695D02*
X157732790Y-112330895D01*
X158003723Y-112911466D01*
X158274657Y-112330895D01*
X158274657Y-113143695D01*
X159242276Y-113104990D02*
X159358390Y-113143695D01*
X159551914Y-113143695D01*
X159629323Y-113104990D01*
X159668028Y-113066285D01*
X159706733Y-112988876D01*
X159706733Y-112911466D01*
X159668028Y-112834057D01*
X159629323Y-112795352D01*
X159551914Y-112756647D01*
X159397095Y-112717942D01*
X159319685Y-112679238D01*
X159280980Y-112640533D01*
X159242276Y-112563123D01*
X159242276Y-112485714D01*
X159280980Y-112408304D01*
X159319685Y-112369600D01*
X159397095Y-112330895D01*
X159590619Y-112330895D01*
X159706733Y-112369600D01*
X160364714Y-113104990D02*
X160287304Y-113143695D01*
X160132485Y-113143695D01*
X160055076Y-113104990D01*
X160016371Y-113027580D01*
X160016371Y-112717942D01*
X160055076Y-112640533D01*
X160132485Y-112601828D01*
X160287304Y-112601828D01*
X160364714Y-112640533D01*
X160403419Y-112717942D01*
X160403419Y-112795352D01*
X160016371Y-112872761D01*
X160867876Y-113143695D02*
X160790466Y-113104990D01*
X160751761Y-113027580D01*
X160751761Y-112330895D01*
X161177514Y-113066285D02*
X161216219Y-113104990D01*
X161177514Y-113143695D01*
X161138809Y-113104990D01*
X161177514Y-113066285D01*
X161177514Y-113143695D01*
D18*
X156797404Y-111345047D02*
X156759309Y-111421238D01*
X156721214Y-111459333D01*
X156645023Y-111497428D01*
X156416452Y-111497428D01*
X156340261Y-111459333D01*
X156302166Y-111421238D01*
X156264071Y-111345047D01*
X156264071Y-111230761D01*
X156302166Y-111154571D01*
X156340261Y-111116476D01*
X156416452Y-111078380D01*
X156645023Y-111078380D01*
X156721214Y-111116476D01*
X156759309Y-111154571D01*
X156797404Y-111230761D01*
X156797404Y-111345047D01*
X156264071Y-110735523D02*
X156797404Y-110735523D01*
X156340261Y-110735523D02*
X156302166Y-110697428D01*
X156264071Y-110621238D01*
X156264071Y-110506952D01*
X156302166Y-110430761D01*
X156378357Y-110392666D01*
X156797404Y-110392666D01*
D10*
X76438000Y-123444000D02*
G75*
G03*
X76438000Y-123444000I-1000000J0D01*
G01*
X155150000Y-109050000D02*
X155150000Y-109850000D01*
X153550000Y-109050000D02*
X155150000Y-109050000D01*
X153550000Y-109850000D02*
X153550000Y-109050000D01*
X155150000Y-109850000D02*
X153550000Y-109850000D01*
X96900000Y-121550000D02*
X96900000Y-123150000D01*
X96900000Y-123150000D02*
X96100000Y-123150000D01*
X96100000Y-123150000D02*
X96100000Y-121550000D01*
X96100000Y-121550000D02*
X96900000Y-121550000D01*
X117250000Y-121550000D02*
X117250000Y-123150000D01*
X116450000Y-123150000D02*
X116450000Y-121550000D01*
X117250000Y-123150000D02*
X116450000Y-123150000D01*
X116450000Y-121550000D02*
X117250000Y-121550000D01*
X139300000Y-123150000D02*
X139300000Y-121550000D01*
X140100000Y-123150000D02*
X139300000Y-123150000D01*
X140100000Y-121550000D02*
X140100000Y-123150000D01*
X139300000Y-121550000D02*
X140100000Y-121550000D01*
X150650000Y-121550000D02*
X151450000Y-121550000D01*
X151450000Y-123150000D02*
X150650000Y-123150000D01*
X151450000Y-121550000D02*
X151450000Y-123150000D01*
X150650000Y-123150000D02*
X150650000Y-121550000D01*
X160400000Y-121550000D02*
X160400000Y-123150000D01*
X159600000Y-121550000D02*
X160400000Y-121550000D01*
X160400000Y-123150000D02*
X159600000Y-123150000D01*
X159600000Y-123150000D02*
X159600000Y-121550000D01*
D15*
X109125000Y-117950000D02*
X114625000Y-117950000D01*
X115625000Y-118950000D02*
X115625000Y-122350000D01*
X109125000Y-122350000D02*
X109125000Y-117950000D01*
X115625000Y-122350000D02*
X109125000Y-122350000D01*
X114625000Y-117950000D02*
X115625000Y-118950000D01*
X143325000Y-122350000D02*
X143325000Y-117950000D01*
X148825000Y-117950000D02*
X149825000Y-118950000D01*
X143325000Y-117950000D02*
X148825000Y-117950000D01*
X149825000Y-118950000D02*
X149825000Y-122350000D01*
X149825000Y-122350000D02*
X143325000Y-122350000D01*
X138475000Y-118950000D02*
X138475000Y-122350000D01*
X138475000Y-122350000D02*
X131975000Y-122350000D01*
X131975000Y-117950000D02*
X137475000Y-117950000D01*
X131975000Y-122350000D02*
X131975000Y-117950000D01*
X137475000Y-117950000D02*
X138475000Y-118950000D01*
X152275000Y-117950000D02*
X157775000Y-117950000D01*
X152275000Y-122350000D02*
X152275000Y-117950000D01*
X158775000Y-122350000D02*
X152275000Y-122350000D01*
X158775000Y-118950000D02*
X158775000Y-122350000D01*
X157775000Y-117950000D02*
X158775000Y-118950000D01*
D10*
X112550000Y-109850000D02*
X110950000Y-109850000D01*
X112550000Y-109050000D02*
X112550000Y-109850000D01*
X110950000Y-109050000D02*
X112550000Y-109050000D01*
X110950000Y-109850000D02*
X110950000Y-109050000D01*
X108650000Y-103700000D02*
X108650000Y-115700000D01*
X91250000Y-103700000D02*
X108650000Y-103700000D01*
X91250000Y-103700000D02*
X90250000Y-104700000D01*
X108650000Y-115700000D02*
X90250000Y-115700000D01*
X90250000Y-115700000D02*
X90250000Y-104700000D01*
D15*
X98925000Y-117950000D02*
X104425000Y-117950000D01*
X105425000Y-122350000D02*
X98925000Y-122350000D01*
X104425000Y-117950000D02*
X105425000Y-118950000D01*
X105425000Y-118950000D02*
X105425000Y-122350000D01*
X98925000Y-122350000D02*
X98925000Y-117950000D01*
D10*
X77550000Y-113350000D02*
X79150000Y-113350000D01*
X79150000Y-113350000D02*
X79150000Y-114150000D01*
X79150000Y-114150000D02*
X77550000Y-114150000D01*
X77550000Y-114150000D02*
X77550000Y-113350000D01*
X133040000Y-115700000D02*
X133040000Y-104700000D01*
X134040000Y-103700000D02*
X133040000Y-104700000D01*
X134040000Y-103700000D02*
X151440000Y-103700000D01*
X151440000Y-115700000D02*
X133040000Y-115700000D01*
X151440000Y-103700000D02*
X151440000Y-115700000D01*
X85950000Y-121550000D02*
X86750000Y-121550000D01*
X85950000Y-123150000D02*
X85950000Y-121550000D01*
X86750000Y-123150000D02*
X85950000Y-123150000D01*
X86750000Y-121550000D02*
X86750000Y-123150000D01*
D15*
X85125000Y-118950000D02*
X85125000Y-122350000D01*
X85125000Y-122350000D02*
X78625000Y-122350000D01*
X84125000Y-117950000D02*
X85125000Y-118950000D01*
X78625000Y-122350000D02*
X78625000Y-117950000D01*
X78625000Y-117950000D02*
X84125000Y-117950000D01*
D10*
X107113500Y-121550000D02*
X107113500Y-123150000D01*
X106313500Y-123150000D02*
X106313500Y-121550000D01*
X106313500Y-121550000D02*
X107113500Y-121550000D01*
X107113500Y-123150000D02*
X106313500Y-123150000D01*
D15*
X121825000Y-122350000D02*
X121825000Y-117950000D01*
X127325000Y-117950000D02*
X128325000Y-118950000D01*
X128325000Y-118950000D02*
X128325000Y-122350000D01*
X121825000Y-117950000D02*
X127325000Y-117950000D01*
X128325000Y-122350000D02*
X121825000Y-122350000D01*
D10*
X129150000Y-121550000D02*
X129950000Y-121550000D01*
X129950000Y-123150000D02*
X129150000Y-123150000D01*
X129950000Y-121550000D02*
X129950000Y-123150000D01*
X129150000Y-123150000D02*
X129150000Y-121550000D01*
X141900000Y-121550000D02*
X141900000Y-123150000D01*
X141900000Y-123150000D02*
X141100000Y-123150000D01*
X141100000Y-123150000D02*
X141100000Y-121550000D01*
X141100000Y-121550000D02*
X141900000Y-121550000D01*
X87000000Y-107900000D02*
X87000000Y-109500000D01*
X87000000Y-109500000D02*
X86200000Y-109500000D01*
X86200000Y-107900000D02*
X87000000Y-107900000D01*
X86200000Y-109500000D02*
X86200000Y-107900000D01*
X168894000Y-123444000D02*
G75*
G03*
X168894000Y-123444000I-1000000J0D01*
G01*
X163433000Y-104267000D02*
G75*
G03*
X163433000Y-104267000I-1000000J0D01*
G01*
X76946000Y-104267000D02*
G75*
G03*
X76946000Y-104267000I-1000000J0D01*
G01*
X126050000Y-109000000D02*
X127650000Y-109000000D01*
X127650000Y-109000000D02*
X127650000Y-109800000D01*
X126050000Y-109800000D02*
X126050000Y-109000000D01*
X127650000Y-109800000D02*
X126050000Y-109800000D01*
X78000000Y-121923000D02*
X77200000Y-121923000D01*
X77200000Y-121923000D02*
X77200000Y-120323000D01*
X78000000Y-120323000D02*
X78000000Y-121923000D01*
X77200000Y-120323000D02*
X78000000Y-120323000D01*
X96000000Y-118280000D02*
X96000000Y-119130000D01*
X96000000Y-118280000D02*
X98200000Y-118280000D01*
X98200000Y-118280000D02*
X98200000Y-119630000D01*
X96000000Y-119130000D02*
X96500000Y-119630000D01*
X96500000Y-119630000D02*
X98200000Y-119630000D01*
X156050000Y-104800000D02*
X156050000Y-104000000D01*
X157650000Y-104000000D02*
X157650000Y-104800000D01*
X156050000Y-104000000D02*
X157650000Y-104000000D01*
X157650000Y-104800000D02*
X156050000Y-104800000D01*
X155150000Y-104300000D02*
X155150000Y-105900000D01*
X154350000Y-105900000D02*
X154350000Y-104300000D01*
X154350000Y-104300000D02*
X155150000Y-104300000D01*
X155150000Y-105900000D02*
X154350000Y-105900000D01*
X117950000Y-120100000D02*
X117950000Y-119300000D01*
X117950000Y-119300000D02*
X119550000Y-119300000D01*
X119550000Y-120100000D02*
X117950000Y-120100000D01*
X119550000Y-119300000D02*
X119550000Y-120100000D01*
X79050000Y-112100000D02*
X78500000Y-112670000D01*
X77650000Y-112670000D02*
X77650000Y-109630000D01*
X79050000Y-109630000D02*
X77650000Y-109630000D01*
X78500000Y-112670000D02*
X77650000Y-112670000D01*
X79050000Y-112100000D02*
X79050000Y-109650000D01*
X74406000Y-104267000D02*
G75*
G03*
X74406000Y-104267000I-1000000J0D01*
G01*
X76438000Y-125984000D02*
G75*
G03*
X76438000Y-125984000I-1000000J0D01*
G01*
X168894000Y-125984000D02*
G75*
G03*
X168894000Y-125984000I-1000000J0D01*
G01*
X168894000Y-104267000D02*
G75*
G03*
X168894000Y-104267000I-1000000J0D01*
G01*
X158900000Y-104000000D02*
X160500000Y-104000000D01*
X160500000Y-104800000D02*
X158900000Y-104800000D01*
X158900000Y-104800000D02*
X158900000Y-104000000D01*
X160500000Y-104000000D02*
X160500000Y-104800000D01*
X157553000Y-111871000D02*
X157553000Y-111204333D01*
X158223000Y-109871000D02*
X158223000Y-111871000D01*
X155918000Y-112571000D02*
X155918000Y-108171000D01*
X157753000Y-109871000D02*
X156953000Y-109871000D01*
X158623000Y-111871000D02*
X158623000Y-111204333D01*
X160093000Y-111871000D02*
X160093000Y-111204333D01*
X159023000Y-109871000D02*
X158223000Y-109871000D01*
X158723000Y-111871000D02*
X158723000Y-111204333D01*
X158223000Y-111204333D02*
X159023000Y-111204333D01*
X156918000Y-113571000D02*
X155918000Y-112571000D01*
X159793000Y-111871000D02*
X159793000Y-111204333D01*
X160293000Y-109871000D02*
X159493000Y-109871000D01*
X160193000Y-111871000D02*
X160193000Y-111204333D01*
X159023000Y-111871000D02*
X159023000Y-109871000D01*
X159993000Y-111871000D02*
X159993000Y-111204333D01*
X160293000Y-111871000D02*
X160293000Y-109871000D01*
X161328000Y-108171000D02*
X161328000Y-113571000D01*
X159493000Y-111871000D02*
X160293000Y-111871000D01*
X158423000Y-111871000D02*
X158423000Y-111204333D01*
X159693000Y-111871000D02*
X159693000Y-111204333D01*
X158823000Y-111871000D02*
X158823000Y-111204333D01*
X160058000Y-113571000D02*
X156918000Y-113571000D01*
X159493000Y-109871000D02*
X159493000Y-111871000D01*
X157753000Y-111871000D02*
X157753000Y-109871000D01*
X156953000Y-111871000D02*
X157753000Y-111871000D01*
X156953000Y-111204333D02*
X157753000Y-111204333D01*
X157053000Y-111871000D02*
X157053000Y-111204333D01*
X157653000Y-111871000D02*
X157653000Y-111204333D01*
X157153000Y-111871000D02*
X157153000Y-111204333D01*
X158223000Y-111871000D02*
X159023000Y-111871000D01*
X158323000Y-111871000D02*
X158323000Y-111204333D01*
X157453000Y-111871000D02*
X157453000Y-111204333D01*
X157253000Y-111871000D02*
X157253000Y-111204333D01*
X155918000Y-108171000D02*
X160058000Y-108171000D01*
X159893000Y-111871000D02*
X159893000Y-111204333D01*
X159593000Y-111871000D02*
X159593000Y-111204333D01*
X159493000Y-111204333D02*
X160293000Y-111204333D01*
X158923000Y-111871000D02*
X158923000Y-111204333D01*
X157353000Y-111871000D02*
X157353000Y-111204333D01*
X156953000Y-109871000D02*
X156953000Y-111871000D01*
X158523000Y-111871000D02*
X158523000Y-111204333D01*
M02*
