G04 #@! TF.GenerationSoftware,KiCad,Pcbnew,(5.1.5-0-10_14)*
G04 #@! TF.CreationDate,2020-07-05T22:59:27-04:00*
G04 #@! TF.ProjectId,ROMSIMM,524f4d53-494d-44d2-9e6b-696361645f70,rev?*
G04 #@! TF.SameCoordinates,Original*
G04 #@! TF.FileFunction,Soldermask,Bot*
G04 #@! TF.FilePolarity,Negative*
%FSLAX46Y46*%
G04 Gerber Fmt 4.6, Leading zero omitted, Abs format (unit mm)*
G04 Created by KiCad (PCBNEW (5.1.5-0-10_14)) date 2020-07-05 22:59:27*
%MOMM*%
%LPD*%
G04 APERTURE LIST*
%ADD10C,0.100000*%
G04 APERTURE END LIST*
D10*
G36*
X78325114Y-124521202D02*
G01*
X78412594Y-124547739D01*
X78493210Y-124590829D01*
X78563876Y-124648824D01*
X78621871Y-124719490D01*
X78664961Y-124800106D01*
X78692154Y-124889750D01*
X78695905Y-124898805D01*
X78701350Y-124906955D01*
X78708281Y-124913886D01*
X78716431Y-124919331D01*
X78725486Y-124923082D01*
X78735099Y-124924994D01*
X78744901Y-124924994D01*
X78754514Y-124923082D01*
X78763569Y-124919331D01*
X78771719Y-124913886D01*
X78778650Y-124906955D01*
X78784095Y-124898805D01*
X78787846Y-124889750D01*
X78815039Y-124800106D01*
X78858129Y-124719490D01*
X78916124Y-124648824D01*
X78986790Y-124590829D01*
X79067406Y-124547739D01*
X79154886Y-124521202D01*
X79248314Y-124512000D01*
X79501686Y-124512000D01*
X79595114Y-124521202D01*
X79682594Y-124547739D01*
X79763210Y-124590829D01*
X79833876Y-124648824D01*
X79891871Y-124719490D01*
X79934961Y-124800106D01*
X79962154Y-124889750D01*
X79965905Y-124898805D01*
X79971350Y-124906955D01*
X79978281Y-124913886D01*
X79986431Y-124919331D01*
X79995486Y-124923082D01*
X80005099Y-124924994D01*
X80014901Y-124924994D01*
X80024514Y-124923082D01*
X80033569Y-124919331D01*
X80041719Y-124913886D01*
X80048650Y-124906955D01*
X80054095Y-124898805D01*
X80057846Y-124889750D01*
X80085039Y-124800106D01*
X80128129Y-124719490D01*
X80186124Y-124648824D01*
X80256790Y-124590829D01*
X80337406Y-124547739D01*
X80424886Y-124521202D01*
X80518314Y-124512000D01*
X80771686Y-124512000D01*
X80865114Y-124521202D01*
X80952594Y-124547739D01*
X81033210Y-124590829D01*
X81103876Y-124648824D01*
X81161871Y-124719490D01*
X81204961Y-124800106D01*
X81232154Y-124889750D01*
X81235905Y-124898805D01*
X81241350Y-124906955D01*
X81248281Y-124913886D01*
X81256431Y-124919331D01*
X81265486Y-124923082D01*
X81275099Y-124924994D01*
X81284901Y-124924994D01*
X81294514Y-124923082D01*
X81303569Y-124919331D01*
X81311719Y-124913886D01*
X81318650Y-124906955D01*
X81324095Y-124898805D01*
X81327846Y-124889750D01*
X81355039Y-124800106D01*
X81398129Y-124719490D01*
X81456124Y-124648824D01*
X81526790Y-124590829D01*
X81607406Y-124547739D01*
X81694886Y-124521202D01*
X81788314Y-124512000D01*
X82041686Y-124512000D01*
X82135114Y-124521202D01*
X82222594Y-124547739D01*
X82303210Y-124590829D01*
X82373876Y-124648824D01*
X82431871Y-124719490D01*
X82474961Y-124800106D01*
X82502154Y-124889750D01*
X82505905Y-124898805D01*
X82511350Y-124906955D01*
X82518281Y-124913886D01*
X82526431Y-124919331D01*
X82535486Y-124923082D01*
X82545099Y-124924994D01*
X82554901Y-124924994D01*
X82564514Y-124923082D01*
X82573569Y-124919331D01*
X82581719Y-124913886D01*
X82588650Y-124906955D01*
X82594095Y-124898805D01*
X82597846Y-124889750D01*
X82625039Y-124800106D01*
X82668129Y-124719490D01*
X82726124Y-124648824D01*
X82796790Y-124590829D01*
X82877406Y-124547739D01*
X82964886Y-124521202D01*
X83058314Y-124512000D01*
X83311686Y-124512000D01*
X83405114Y-124521202D01*
X83492594Y-124547739D01*
X83573210Y-124590829D01*
X83643876Y-124648824D01*
X83701871Y-124719490D01*
X83744961Y-124800106D01*
X83772154Y-124889750D01*
X83775905Y-124898805D01*
X83781350Y-124906955D01*
X83788281Y-124913886D01*
X83796431Y-124919331D01*
X83805486Y-124923082D01*
X83815099Y-124924994D01*
X83824901Y-124924994D01*
X83834514Y-124923082D01*
X83843569Y-124919331D01*
X83851719Y-124913886D01*
X83858650Y-124906955D01*
X83864095Y-124898805D01*
X83867846Y-124889750D01*
X83895039Y-124800106D01*
X83938129Y-124719490D01*
X83996124Y-124648824D01*
X84066790Y-124590829D01*
X84147406Y-124547739D01*
X84234886Y-124521202D01*
X84328314Y-124512000D01*
X84581686Y-124512000D01*
X84675114Y-124521202D01*
X84762594Y-124547739D01*
X84843210Y-124590829D01*
X84913876Y-124648824D01*
X84971871Y-124719490D01*
X85014961Y-124800106D01*
X85042154Y-124889750D01*
X85045905Y-124898805D01*
X85051350Y-124906955D01*
X85058281Y-124913886D01*
X85066431Y-124919331D01*
X85075486Y-124923082D01*
X85085099Y-124924994D01*
X85094901Y-124924994D01*
X85104514Y-124923082D01*
X85113569Y-124919331D01*
X85121719Y-124913886D01*
X85128650Y-124906955D01*
X85134095Y-124898805D01*
X85137846Y-124889750D01*
X85165039Y-124800106D01*
X85208129Y-124719490D01*
X85266124Y-124648824D01*
X85336790Y-124590829D01*
X85417406Y-124547739D01*
X85504886Y-124521202D01*
X85598314Y-124512000D01*
X85851686Y-124512000D01*
X85945114Y-124521202D01*
X86032594Y-124547739D01*
X86113210Y-124590829D01*
X86183876Y-124648824D01*
X86241871Y-124719490D01*
X86284961Y-124800106D01*
X86312154Y-124889750D01*
X86315905Y-124898805D01*
X86321350Y-124906955D01*
X86328281Y-124913886D01*
X86336431Y-124919331D01*
X86345486Y-124923082D01*
X86355099Y-124924994D01*
X86364901Y-124924994D01*
X86374514Y-124923082D01*
X86383569Y-124919331D01*
X86391719Y-124913886D01*
X86398650Y-124906955D01*
X86404095Y-124898805D01*
X86407846Y-124889750D01*
X86435039Y-124800106D01*
X86478129Y-124719490D01*
X86536124Y-124648824D01*
X86606790Y-124590829D01*
X86687406Y-124547739D01*
X86774886Y-124521202D01*
X86868314Y-124512000D01*
X87121686Y-124512000D01*
X87215114Y-124521202D01*
X87302594Y-124547739D01*
X87383210Y-124590829D01*
X87453876Y-124648824D01*
X87511871Y-124719490D01*
X87554961Y-124800106D01*
X87582154Y-124889750D01*
X87585905Y-124898805D01*
X87591350Y-124906955D01*
X87598281Y-124913886D01*
X87606431Y-124919331D01*
X87615486Y-124923082D01*
X87625099Y-124924994D01*
X87634901Y-124924994D01*
X87644514Y-124923082D01*
X87653569Y-124919331D01*
X87661719Y-124913886D01*
X87668650Y-124906955D01*
X87674095Y-124898805D01*
X87677846Y-124889750D01*
X87705039Y-124800106D01*
X87748129Y-124719490D01*
X87806124Y-124648824D01*
X87876790Y-124590829D01*
X87957406Y-124547739D01*
X88044886Y-124521202D01*
X88138314Y-124512000D01*
X88391686Y-124512000D01*
X88485114Y-124521202D01*
X88572594Y-124547739D01*
X88653210Y-124590829D01*
X88723876Y-124648824D01*
X88781871Y-124719490D01*
X88824961Y-124800106D01*
X88852154Y-124889750D01*
X88855905Y-124898805D01*
X88861350Y-124906955D01*
X88868281Y-124913886D01*
X88876431Y-124919331D01*
X88885486Y-124923082D01*
X88895099Y-124924994D01*
X88904901Y-124924994D01*
X88914514Y-124923082D01*
X88923569Y-124919331D01*
X88931719Y-124913886D01*
X88938650Y-124906955D01*
X88944095Y-124898805D01*
X88947846Y-124889750D01*
X88975039Y-124800106D01*
X89018129Y-124719490D01*
X89076124Y-124648824D01*
X89146790Y-124590829D01*
X89227406Y-124547739D01*
X89314886Y-124521202D01*
X89408314Y-124512000D01*
X89661686Y-124512000D01*
X89755114Y-124521202D01*
X89842594Y-124547739D01*
X89923210Y-124590829D01*
X89993876Y-124648824D01*
X90051871Y-124719490D01*
X90094961Y-124800106D01*
X90122154Y-124889750D01*
X90125905Y-124898805D01*
X90131350Y-124906955D01*
X90138281Y-124913886D01*
X90146431Y-124919331D01*
X90155486Y-124923082D01*
X90165099Y-124924994D01*
X90174901Y-124924994D01*
X90184514Y-124923082D01*
X90193569Y-124919331D01*
X90201719Y-124913886D01*
X90208650Y-124906955D01*
X90214095Y-124898805D01*
X90217846Y-124889750D01*
X90245039Y-124800106D01*
X90288129Y-124719490D01*
X90346124Y-124648824D01*
X90416790Y-124590829D01*
X90497406Y-124547739D01*
X90584886Y-124521202D01*
X90678314Y-124512000D01*
X90931686Y-124512000D01*
X91025114Y-124521202D01*
X91112594Y-124547739D01*
X91193210Y-124590829D01*
X91263876Y-124648824D01*
X91321871Y-124719490D01*
X91364961Y-124800106D01*
X91392154Y-124889750D01*
X91395905Y-124898805D01*
X91401350Y-124906955D01*
X91408281Y-124913886D01*
X91416431Y-124919331D01*
X91425486Y-124923082D01*
X91435099Y-124924994D01*
X91444901Y-124924994D01*
X91454514Y-124923082D01*
X91463569Y-124919331D01*
X91471719Y-124913886D01*
X91478650Y-124906955D01*
X91484095Y-124898805D01*
X91487846Y-124889750D01*
X91515039Y-124800106D01*
X91558129Y-124719490D01*
X91616124Y-124648824D01*
X91686790Y-124590829D01*
X91767406Y-124547739D01*
X91854886Y-124521202D01*
X91948314Y-124512000D01*
X92201686Y-124512000D01*
X92295114Y-124521202D01*
X92382594Y-124547739D01*
X92463210Y-124590829D01*
X92533876Y-124648824D01*
X92591871Y-124719490D01*
X92634961Y-124800106D01*
X92662154Y-124889750D01*
X92665905Y-124898805D01*
X92671350Y-124906955D01*
X92678281Y-124913886D01*
X92686431Y-124919331D01*
X92695486Y-124923082D01*
X92705099Y-124924994D01*
X92714901Y-124924994D01*
X92724514Y-124923082D01*
X92733569Y-124919331D01*
X92741719Y-124913886D01*
X92748650Y-124906955D01*
X92754095Y-124898805D01*
X92757846Y-124889750D01*
X92785039Y-124800106D01*
X92828129Y-124719490D01*
X92886124Y-124648824D01*
X92956790Y-124590829D01*
X93037406Y-124547739D01*
X93124886Y-124521202D01*
X93218314Y-124512000D01*
X93471686Y-124512000D01*
X93565114Y-124521202D01*
X93652594Y-124547739D01*
X93733210Y-124590829D01*
X93803876Y-124648824D01*
X93861871Y-124719490D01*
X93904961Y-124800106D01*
X93932154Y-124889750D01*
X93935905Y-124898805D01*
X93941350Y-124906955D01*
X93948281Y-124913886D01*
X93956431Y-124919331D01*
X93965486Y-124923082D01*
X93975099Y-124924994D01*
X93984901Y-124924994D01*
X93994514Y-124923082D01*
X94003569Y-124919331D01*
X94011719Y-124913886D01*
X94018650Y-124906955D01*
X94024095Y-124898805D01*
X94027846Y-124889750D01*
X94055039Y-124800106D01*
X94098129Y-124719490D01*
X94156124Y-124648824D01*
X94226790Y-124590829D01*
X94307406Y-124547739D01*
X94394886Y-124521202D01*
X94488314Y-124512000D01*
X94741686Y-124512000D01*
X94835114Y-124521202D01*
X94922594Y-124547739D01*
X95003210Y-124590829D01*
X95073876Y-124648824D01*
X95131871Y-124719490D01*
X95174961Y-124800106D01*
X95202154Y-124889750D01*
X95205905Y-124898805D01*
X95211350Y-124906955D01*
X95218281Y-124913886D01*
X95226431Y-124919331D01*
X95235486Y-124923082D01*
X95245099Y-124924994D01*
X95254901Y-124924994D01*
X95264514Y-124923082D01*
X95273569Y-124919331D01*
X95281719Y-124913886D01*
X95288650Y-124906955D01*
X95294095Y-124898805D01*
X95297846Y-124889750D01*
X95325039Y-124800106D01*
X95368129Y-124719490D01*
X95426124Y-124648824D01*
X95496790Y-124590829D01*
X95577406Y-124547739D01*
X95664886Y-124521202D01*
X95758314Y-124512000D01*
X96011686Y-124512000D01*
X96105114Y-124521202D01*
X96192594Y-124547739D01*
X96273210Y-124590829D01*
X96343876Y-124648824D01*
X96401871Y-124719490D01*
X96444961Y-124800106D01*
X96472154Y-124889750D01*
X96475905Y-124898805D01*
X96481350Y-124906955D01*
X96488281Y-124913886D01*
X96496431Y-124919331D01*
X96505486Y-124923082D01*
X96515099Y-124924994D01*
X96524901Y-124924994D01*
X96534514Y-124923082D01*
X96543569Y-124919331D01*
X96551719Y-124913886D01*
X96558650Y-124906955D01*
X96564095Y-124898805D01*
X96567846Y-124889750D01*
X96595039Y-124800106D01*
X96638129Y-124719490D01*
X96696124Y-124648824D01*
X96766790Y-124590829D01*
X96847406Y-124547739D01*
X96934886Y-124521202D01*
X97028314Y-124512000D01*
X97281686Y-124512000D01*
X97375114Y-124521202D01*
X97462594Y-124547739D01*
X97543210Y-124590829D01*
X97613876Y-124648824D01*
X97671871Y-124719490D01*
X97714961Y-124800106D01*
X97742154Y-124889750D01*
X97745905Y-124898805D01*
X97751350Y-124906955D01*
X97758281Y-124913886D01*
X97766431Y-124919331D01*
X97775486Y-124923082D01*
X97785099Y-124924994D01*
X97794901Y-124924994D01*
X97804514Y-124923082D01*
X97813569Y-124919331D01*
X97821719Y-124913886D01*
X97828650Y-124906955D01*
X97834095Y-124898805D01*
X97837846Y-124889750D01*
X97865039Y-124800106D01*
X97908129Y-124719490D01*
X97966124Y-124648824D01*
X98036790Y-124590829D01*
X98117406Y-124547739D01*
X98204886Y-124521202D01*
X98298314Y-124512000D01*
X98551686Y-124512000D01*
X98645114Y-124521202D01*
X98732594Y-124547739D01*
X98813210Y-124590829D01*
X98883876Y-124648824D01*
X98941871Y-124719490D01*
X98984961Y-124800106D01*
X99012154Y-124889750D01*
X99015905Y-124898805D01*
X99021350Y-124906955D01*
X99028281Y-124913886D01*
X99036431Y-124919331D01*
X99045486Y-124923082D01*
X99055099Y-124924994D01*
X99064901Y-124924994D01*
X99074514Y-124923082D01*
X99083569Y-124919331D01*
X99091719Y-124913886D01*
X99098650Y-124906955D01*
X99104095Y-124898805D01*
X99107846Y-124889750D01*
X99135039Y-124800106D01*
X99178129Y-124719490D01*
X99236124Y-124648824D01*
X99306790Y-124590829D01*
X99387406Y-124547739D01*
X99474886Y-124521202D01*
X99568314Y-124512000D01*
X99821686Y-124512000D01*
X99915114Y-124521202D01*
X100002594Y-124547739D01*
X100083210Y-124590829D01*
X100153876Y-124648824D01*
X100211871Y-124719490D01*
X100254961Y-124800106D01*
X100282154Y-124889750D01*
X100285905Y-124898805D01*
X100291350Y-124906955D01*
X100298281Y-124913886D01*
X100306431Y-124919331D01*
X100315486Y-124923082D01*
X100325099Y-124924994D01*
X100334901Y-124924994D01*
X100344514Y-124923082D01*
X100353569Y-124919331D01*
X100361719Y-124913886D01*
X100368650Y-124906955D01*
X100374095Y-124898805D01*
X100377846Y-124889750D01*
X100405039Y-124800106D01*
X100448129Y-124719490D01*
X100506124Y-124648824D01*
X100576790Y-124590829D01*
X100657406Y-124547739D01*
X100744886Y-124521202D01*
X100838314Y-124512000D01*
X101091686Y-124512000D01*
X101185114Y-124521202D01*
X101272594Y-124547739D01*
X101353210Y-124590829D01*
X101423876Y-124648824D01*
X101481871Y-124719490D01*
X101524961Y-124800106D01*
X101552154Y-124889750D01*
X101555905Y-124898805D01*
X101561350Y-124906955D01*
X101568281Y-124913886D01*
X101576431Y-124919331D01*
X101585486Y-124923082D01*
X101595099Y-124924994D01*
X101604901Y-124924994D01*
X101614514Y-124923082D01*
X101623569Y-124919331D01*
X101631719Y-124913886D01*
X101638650Y-124906955D01*
X101644095Y-124898805D01*
X101647846Y-124889750D01*
X101675039Y-124800106D01*
X101718129Y-124719490D01*
X101776124Y-124648824D01*
X101846790Y-124590829D01*
X101927406Y-124547739D01*
X102014886Y-124521202D01*
X102108314Y-124512000D01*
X102361686Y-124512000D01*
X102455114Y-124521202D01*
X102542594Y-124547739D01*
X102623210Y-124590829D01*
X102693876Y-124648824D01*
X102751871Y-124719490D01*
X102794961Y-124800106D01*
X102822154Y-124889750D01*
X102825905Y-124898805D01*
X102831350Y-124906955D01*
X102838281Y-124913886D01*
X102846431Y-124919331D01*
X102855486Y-124923082D01*
X102865099Y-124924994D01*
X102874901Y-124924994D01*
X102884514Y-124923082D01*
X102893569Y-124919331D01*
X102901719Y-124913886D01*
X102908650Y-124906955D01*
X102914095Y-124898805D01*
X102917846Y-124889750D01*
X102945039Y-124800106D01*
X102988129Y-124719490D01*
X103046124Y-124648824D01*
X103116790Y-124590829D01*
X103197406Y-124547739D01*
X103284886Y-124521202D01*
X103378314Y-124512000D01*
X103631686Y-124512000D01*
X103725114Y-124521202D01*
X103812594Y-124547739D01*
X103893210Y-124590829D01*
X103963876Y-124648824D01*
X104021871Y-124719490D01*
X104064961Y-124800106D01*
X104092154Y-124889750D01*
X104095905Y-124898805D01*
X104101350Y-124906955D01*
X104108281Y-124913886D01*
X104116431Y-124919331D01*
X104125486Y-124923082D01*
X104135099Y-124924994D01*
X104144901Y-124924994D01*
X104154514Y-124923082D01*
X104163569Y-124919331D01*
X104171719Y-124913886D01*
X104178650Y-124906955D01*
X104184095Y-124898805D01*
X104187846Y-124889750D01*
X104215039Y-124800106D01*
X104258129Y-124719490D01*
X104316124Y-124648824D01*
X104386790Y-124590829D01*
X104467406Y-124547739D01*
X104554886Y-124521202D01*
X104648314Y-124512000D01*
X104901686Y-124512000D01*
X104995114Y-124521202D01*
X105082594Y-124547739D01*
X105163210Y-124590829D01*
X105233876Y-124648824D01*
X105291871Y-124719490D01*
X105334961Y-124800106D01*
X105362154Y-124889750D01*
X105365905Y-124898805D01*
X105371350Y-124906955D01*
X105378281Y-124913886D01*
X105386431Y-124919331D01*
X105395486Y-124923082D01*
X105405099Y-124924994D01*
X105414901Y-124924994D01*
X105424514Y-124923082D01*
X105433569Y-124919331D01*
X105441719Y-124913886D01*
X105448650Y-124906955D01*
X105454095Y-124898805D01*
X105457846Y-124889750D01*
X105485039Y-124800106D01*
X105528129Y-124719490D01*
X105586124Y-124648824D01*
X105656790Y-124590829D01*
X105737406Y-124547739D01*
X105824886Y-124521202D01*
X105918314Y-124512000D01*
X106171686Y-124512000D01*
X106265114Y-124521202D01*
X106352594Y-124547739D01*
X106433210Y-124590829D01*
X106503876Y-124648824D01*
X106561871Y-124719490D01*
X106604961Y-124800106D01*
X106632154Y-124889750D01*
X106635905Y-124898805D01*
X106641350Y-124906955D01*
X106648281Y-124913886D01*
X106656431Y-124919331D01*
X106665486Y-124923082D01*
X106675099Y-124924994D01*
X106684901Y-124924994D01*
X106694514Y-124923082D01*
X106703569Y-124919331D01*
X106711719Y-124913886D01*
X106718650Y-124906955D01*
X106724095Y-124898805D01*
X106727846Y-124889750D01*
X106755039Y-124800106D01*
X106798129Y-124719490D01*
X106856124Y-124648824D01*
X106926790Y-124590829D01*
X107007406Y-124547739D01*
X107094886Y-124521202D01*
X107188314Y-124512000D01*
X107441686Y-124512000D01*
X107535114Y-124521202D01*
X107622594Y-124547739D01*
X107703210Y-124590829D01*
X107773876Y-124648824D01*
X107831871Y-124719490D01*
X107874961Y-124800106D01*
X107902154Y-124889750D01*
X107905905Y-124898805D01*
X107911350Y-124906955D01*
X107918281Y-124913886D01*
X107926431Y-124919331D01*
X107935486Y-124923082D01*
X107945099Y-124924994D01*
X107954901Y-124924994D01*
X107964514Y-124923082D01*
X107973569Y-124919331D01*
X107981719Y-124913886D01*
X107988650Y-124906955D01*
X107994095Y-124898805D01*
X107997846Y-124889750D01*
X108025039Y-124800106D01*
X108068129Y-124719490D01*
X108126124Y-124648824D01*
X108196790Y-124590829D01*
X108277406Y-124547739D01*
X108364886Y-124521202D01*
X108458314Y-124512000D01*
X108711686Y-124512000D01*
X108805114Y-124521202D01*
X108892594Y-124547739D01*
X108973210Y-124590829D01*
X109043876Y-124648824D01*
X109101871Y-124719490D01*
X109144961Y-124800106D01*
X109172154Y-124889750D01*
X109175905Y-124898805D01*
X109181350Y-124906955D01*
X109188281Y-124913886D01*
X109196431Y-124919331D01*
X109205486Y-124923082D01*
X109215099Y-124924994D01*
X109224901Y-124924994D01*
X109234514Y-124923082D01*
X109243569Y-124919331D01*
X109251719Y-124913886D01*
X109258650Y-124906955D01*
X109264095Y-124898805D01*
X109267846Y-124889750D01*
X109295039Y-124800106D01*
X109338129Y-124719490D01*
X109396124Y-124648824D01*
X109466790Y-124590829D01*
X109547406Y-124547739D01*
X109634886Y-124521202D01*
X109728314Y-124512000D01*
X109981686Y-124512000D01*
X110075114Y-124521202D01*
X110162594Y-124547739D01*
X110243210Y-124590829D01*
X110313876Y-124648824D01*
X110371871Y-124719490D01*
X110414961Y-124800106D01*
X110442154Y-124889750D01*
X110445905Y-124898805D01*
X110451350Y-124906955D01*
X110458281Y-124913886D01*
X110466431Y-124919331D01*
X110475486Y-124923082D01*
X110485099Y-124924994D01*
X110494901Y-124924994D01*
X110504514Y-124923082D01*
X110513569Y-124919331D01*
X110521719Y-124913886D01*
X110528650Y-124906955D01*
X110534095Y-124898805D01*
X110537846Y-124889750D01*
X110565039Y-124800106D01*
X110608129Y-124719490D01*
X110666124Y-124648824D01*
X110736790Y-124590829D01*
X110817406Y-124547739D01*
X110904886Y-124521202D01*
X110998314Y-124512000D01*
X111251686Y-124512000D01*
X111345114Y-124521202D01*
X111432594Y-124547739D01*
X111513210Y-124590829D01*
X111583876Y-124648824D01*
X111641871Y-124719490D01*
X111684961Y-124800106D01*
X111712154Y-124889750D01*
X111715905Y-124898805D01*
X111721350Y-124906955D01*
X111728281Y-124913886D01*
X111736431Y-124919331D01*
X111745486Y-124923082D01*
X111755099Y-124924994D01*
X111764901Y-124924994D01*
X111774514Y-124923082D01*
X111783569Y-124919331D01*
X111791719Y-124913886D01*
X111798650Y-124906955D01*
X111804095Y-124898805D01*
X111807846Y-124889750D01*
X111835039Y-124800106D01*
X111878129Y-124719490D01*
X111936124Y-124648824D01*
X112006790Y-124590829D01*
X112087406Y-124547739D01*
X112174886Y-124521202D01*
X112268314Y-124512000D01*
X112521686Y-124512000D01*
X112615114Y-124521202D01*
X112702594Y-124547739D01*
X112783210Y-124590829D01*
X112853876Y-124648824D01*
X112911871Y-124719490D01*
X112954961Y-124800106D01*
X112982154Y-124889750D01*
X112985905Y-124898805D01*
X112991350Y-124906955D01*
X112998281Y-124913886D01*
X113006431Y-124919331D01*
X113015486Y-124923082D01*
X113025099Y-124924994D01*
X113034901Y-124924994D01*
X113044514Y-124923082D01*
X113053569Y-124919331D01*
X113061719Y-124913886D01*
X113068650Y-124906955D01*
X113074095Y-124898805D01*
X113077846Y-124889750D01*
X113105039Y-124800106D01*
X113148129Y-124719490D01*
X113206124Y-124648824D01*
X113276790Y-124590829D01*
X113357406Y-124547739D01*
X113444886Y-124521202D01*
X113538314Y-124512000D01*
X113791686Y-124512000D01*
X113885114Y-124521202D01*
X113972594Y-124547739D01*
X114053210Y-124590829D01*
X114123876Y-124648824D01*
X114181871Y-124719490D01*
X114224961Y-124800106D01*
X114252154Y-124889750D01*
X114255905Y-124898805D01*
X114261350Y-124906955D01*
X114268281Y-124913886D01*
X114276431Y-124919331D01*
X114285486Y-124923082D01*
X114295099Y-124924994D01*
X114304901Y-124924994D01*
X114314514Y-124923082D01*
X114323569Y-124919331D01*
X114331719Y-124913886D01*
X114338650Y-124906955D01*
X114344095Y-124898805D01*
X114347846Y-124889750D01*
X114375039Y-124800106D01*
X114418129Y-124719490D01*
X114476124Y-124648824D01*
X114546790Y-124590829D01*
X114627406Y-124547739D01*
X114714886Y-124521202D01*
X114808314Y-124512000D01*
X115061686Y-124512000D01*
X115155114Y-124521202D01*
X115242594Y-124547739D01*
X115323210Y-124590829D01*
X115393876Y-124648824D01*
X115451871Y-124719490D01*
X115494961Y-124800106D01*
X115522154Y-124889750D01*
X115525905Y-124898805D01*
X115531350Y-124906955D01*
X115538281Y-124913886D01*
X115546431Y-124919331D01*
X115555486Y-124923082D01*
X115565099Y-124924994D01*
X115574901Y-124924994D01*
X115584514Y-124923082D01*
X115593569Y-124919331D01*
X115601719Y-124913886D01*
X115608650Y-124906955D01*
X115614095Y-124898805D01*
X115617846Y-124889750D01*
X115645039Y-124800106D01*
X115688129Y-124719490D01*
X115746124Y-124648824D01*
X115816790Y-124590829D01*
X115897406Y-124547739D01*
X115984886Y-124521202D01*
X116078314Y-124512000D01*
X116331686Y-124512000D01*
X116425114Y-124521202D01*
X116512594Y-124547739D01*
X116593210Y-124590829D01*
X116663876Y-124648824D01*
X116721871Y-124719490D01*
X116764961Y-124800106D01*
X116792154Y-124889750D01*
X116795905Y-124898805D01*
X116801350Y-124906955D01*
X116808281Y-124913886D01*
X116816431Y-124919331D01*
X116825486Y-124923082D01*
X116835099Y-124924994D01*
X116844901Y-124924994D01*
X116854514Y-124923082D01*
X116863569Y-124919331D01*
X116871719Y-124913886D01*
X116878650Y-124906955D01*
X116884095Y-124898805D01*
X116887846Y-124889750D01*
X116915039Y-124800106D01*
X116958129Y-124719490D01*
X117016124Y-124648824D01*
X117086790Y-124590829D01*
X117167406Y-124547739D01*
X117254886Y-124521202D01*
X117348314Y-124512000D01*
X117601686Y-124512000D01*
X117695114Y-124521202D01*
X117782594Y-124547739D01*
X117863210Y-124590829D01*
X117933876Y-124648824D01*
X117991871Y-124719490D01*
X118034961Y-124800106D01*
X118061498Y-124887586D01*
X118070700Y-124981014D01*
X118070700Y-127240986D01*
X118061498Y-127334414D01*
X118034961Y-127421894D01*
X117991871Y-127502510D01*
X117933876Y-127573176D01*
X117863210Y-127631171D01*
X117782594Y-127674261D01*
X117695114Y-127700798D01*
X117601686Y-127710000D01*
X117348314Y-127710000D01*
X117254886Y-127700798D01*
X117167406Y-127674261D01*
X117086790Y-127631171D01*
X117016124Y-127573176D01*
X116958129Y-127502510D01*
X116915039Y-127421894D01*
X116887846Y-127332250D01*
X116884095Y-127323195D01*
X116878650Y-127315045D01*
X116871719Y-127308114D01*
X116863569Y-127302669D01*
X116854514Y-127298918D01*
X116844901Y-127297006D01*
X116835099Y-127297006D01*
X116825486Y-127298918D01*
X116816431Y-127302669D01*
X116808281Y-127308114D01*
X116801350Y-127315045D01*
X116795905Y-127323195D01*
X116792154Y-127332250D01*
X116764961Y-127421894D01*
X116721871Y-127502510D01*
X116663876Y-127573176D01*
X116593210Y-127631171D01*
X116512594Y-127674261D01*
X116425114Y-127700798D01*
X116331686Y-127710000D01*
X116078314Y-127710000D01*
X115984886Y-127700798D01*
X115897406Y-127674261D01*
X115816790Y-127631171D01*
X115746124Y-127573176D01*
X115688129Y-127502510D01*
X115645039Y-127421894D01*
X115617846Y-127332250D01*
X115614095Y-127323195D01*
X115608650Y-127315045D01*
X115601719Y-127308114D01*
X115593569Y-127302669D01*
X115584514Y-127298918D01*
X115574901Y-127297006D01*
X115565099Y-127297006D01*
X115555486Y-127298918D01*
X115546431Y-127302669D01*
X115538281Y-127308114D01*
X115531350Y-127315045D01*
X115525905Y-127323195D01*
X115522154Y-127332250D01*
X115494961Y-127421894D01*
X115451871Y-127502510D01*
X115393876Y-127573176D01*
X115323210Y-127631171D01*
X115242594Y-127674261D01*
X115155114Y-127700798D01*
X115061686Y-127710000D01*
X114808314Y-127710000D01*
X114714886Y-127700798D01*
X114627406Y-127674261D01*
X114546790Y-127631171D01*
X114476124Y-127573176D01*
X114418129Y-127502510D01*
X114375039Y-127421894D01*
X114347846Y-127332250D01*
X114344095Y-127323195D01*
X114338650Y-127315045D01*
X114331719Y-127308114D01*
X114323569Y-127302669D01*
X114314514Y-127298918D01*
X114304901Y-127297006D01*
X114295099Y-127297006D01*
X114285486Y-127298918D01*
X114276431Y-127302669D01*
X114268281Y-127308114D01*
X114261350Y-127315045D01*
X114255905Y-127323195D01*
X114252154Y-127332250D01*
X114224961Y-127421894D01*
X114181871Y-127502510D01*
X114123876Y-127573176D01*
X114053210Y-127631171D01*
X113972594Y-127674261D01*
X113885114Y-127700798D01*
X113791686Y-127710000D01*
X113538314Y-127710000D01*
X113444886Y-127700798D01*
X113357406Y-127674261D01*
X113276790Y-127631171D01*
X113206124Y-127573176D01*
X113148129Y-127502510D01*
X113105039Y-127421894D01*
X113077846Y-127332250D01*
X113074095Y-127323195D01*
X113068650Y-127315045D01*
X113061719Y-127308114D01*
X113053569Y-127302669D01*
X113044514Y-127298918D01*
X113034901Y-127297006D01*
X113025099Y-127297006D01*
X113015486Y-127298918D01*
X113006431Y-127302669D01*
X112998281Y-127308114D01*
X112991350Y-127315045D01*
X112985905Y-127323195D01*
X112982154Y-127332250D01*
X112954961Y-127421894D01*
X112911871Y-127502510D01*
X112853876Y-127573176D01*
X112783210Y-127631171D01*
X112702594Y-127674261D01*
X112615114Y-127700798D01*
X112521686Y-127710000D01*
X112268314Y-127710000D01*
X112174886Y-127700798D01*
X112087406Y-127674261D01*
X112006790Y-127631171D01*
X111936124Y-127573176D01*
X111878129Y-127502510D01*
X111835039Y-127421894D01*
X111807846Y-127332250D01*
X111804095Y-127323195D01*
X111798650Y-127315045D01*
X111791719Y-127308114D01*
X111783569Y-127302669D01*
X111774514Y-127298918D01*
X111764901Y-127297006D01*
X111755099Y-127297006D01*
X111745486Y-127298918D01*
X111736431Y-127302669D01*
X111728281Y-127308114D01*
X111721350Y-127315045D01*
X111715905Y-127323195D01*
X111712154Y-127332250D01*
X111684961Y-127421894D01*
X111641871Y-127502510D01*
X111583876Y-127573176D01*
X111513210Y-127631171D01*
X111432594Y-127674261D01*
X111345114Y-127700798D01*
X111251686Y-127710000D01*
X110998314Y-127710000D01*
X110904886Y-127700798D01*
X110817406Y-127674261D01*
X110736790Y-127631171D01*
X110666124Y-127573176D01*
X110608129Y-127502510D01*
X110565039Y-127421894D01*
X110537846Y-127332250D01*
X110534095Y-127323195D01*
X110528650Y-127315045D01*
X110521719Y-127308114D01*
X110513569Y-127302669D01*
X110504514Y-127298918D01*
X110494901Y-127297006D01*
X110485099Y-127297006D01*
X110475486Y-127298918D01*
X110466431Y-127302669D01*
X110458281Y-127308114D01*
X110451350Y-127315045D01*
X110445905Y-127323195D01*
X110442154Y-127332250D01*
X110414961Y-127421894D01*
X110371871Y-127502510D01*
X110313876Y-127573176D01*
X110243210Y-127631171D01*
X110162594Y-127674261D01*
X110075114Y-127700798D01*
X109981686Y-127710000D01*
X109728314Y-127710000D01*
X109634886Y-127700798D01*
X109547406Y-127674261D01*
X109466790Y-127631171D01*
X109396124Y-127573176D01*
X109338129Y-127502510D01*
X109295039Y-127421894D01*
X109267846Y-127332250D01*
X109264095Y-127323195D01*
X109258650Y-127315045D01*
X109251719Y-127308114D01*
X109243569Y-127302669D01*
X109234514Y-127298918D01*
X109224901Y-127297006D01*
X109215099Y-127297006D01*
X109205486Y-127298918D01*
X109196431Y-127302669D01*
X109188281Y-127308114D01*
X109181350Y-127315045D01*
X109175905Y-127323195D01*
X109172154Y-127332250D01*
X109144961Y-127421894D01*
X109101871Y-127502510D01*
X109043876Y-127573176D01*
X108973210Y-127631171D01*
X108892594Y-127674261D01*
X108805114Y-127700798D01*
X108711686Y-127710000D01*
X108458314Y-127710000D01*
X108364886Y-127700798D01*
X108277406Y-127674261D01*
X108196790Y-127631171D01*
X108126124Y-127573176D01*
X108068129Y-127502510D01*
X108025039Y-127421894D01*
X107997846Y-127332250D01*
X107994095Y-127323195D01*
X107988650Y-127315045D01*
X107981719Y-127308114D01*
X107973569Y-127302669D01*
X107964514Y-127298918D01*
X107954901Y-127297006D01*
X107945099Y-127297006D01*
X107935486Y-127298918D01*
X107926431Y-127302669D01*
X107918281Y-127308114D01*
X107911350Y-127315045D01*
X107905905Y-127323195D01*
X107902154Y-127332250D01*
X107874961Y-127421894D01*
X107831871Y-127502510D01*
X107773876Y-127573176D01*
X107703210Y-127631171D01*
X107622594Y-127674261D01*
X107535114Y-127700798D01*
X107441686Y-127710000D01*
X107188314Y-127710000D01*
X107094886Y-127700798D01*
X107007406Y-127674261D01*
X106926790Y-127631171D01*
X106856124Y-127573176D01*
X106798129Y-127502510D01*
X106755039Y-127421894D01*
X106727846Y-127332250D01*
X106724095Y-127323195D01*
X106718650Y-127315045D01*
X106711719Y-127308114D01*
X106703569Y-127302669D01*
X106694514Y-127298918D01*
X106684901Y-127297006D01*
X106675099Y-127297006D01*
X106665486Y-127298918D01*
X106656431Y-127302669D01*
X106648281Y-127308114D01*
X106641350Y-127315045D01*
X106635905Y-127323195D01*
X106632154Y-127332250D01*
X106604961Y-127421894D01*
X106561871Y-127502510D01*
X106503876Y-127573176D01*
X106433210Y-127631171D01*
X106352594Y-127674261D01*
X106265114Y-127700798D01*
X106171686Y-127710000D01*
X105918314Y-127710000D01*
X105824886Y-127700798D01*
X105737406Y-127674261D01*
X105656790Y-127631171D01*
X105586124Y-127573176D01*
X105528129Y-127502510D01*
X105485039Y-127421894D01*
X105457846Y-127332250D01*
X105454095Y-127323195D01*
X105448650Y-127315045D01*
X105441719Y-127308114D01*
X105433569Y-127302669D01*
X105424514Y-127298918D01*
X105414901Y-127297006D01*
X105405099Y-127297006D01*
X105395486Y-127298918D01*
X105386431Y-127302669D01*
X105378281Y-127308114D01*
X105371350Y-127315045D01*
X105365905Y-127323195D01*
X105362154Y-127332250D01*
X105334961Y-127421894D01*
X105291871Y-127502510D01*
X105233876Y-127573176D01*
X105163210Y-127631171D01*
X105082594Y-127674261D01*
X104995114Y-127700798D01*
X104901686Y-127710000D01*
X104648314Y-127710000D01*
X104554886Y-127700798D01*
X104467406Y-127674261D01*
X104386790Y-127631171D01*
X104316124Y-127573176D01*
X104258129Y-127502510D01*
X104215039Y-127421894D01*
X104187846Y-127332250D01*
X104184095Y-127323195D01*
X104178650Y-127315045D01*
X104171719Y-127308114D01*
X104163569Y-127302669D01*
X104154514Y-127298918D01*
X104144901Y-127297006D01*
X104135099Y-127297006D01*
X104125486Y-127298918D01*
X104116431Y-127302669D01*
X104108281Y-127308114D01*
X104101350Y-127315045D01*
X104095905Y-127323195D01*
X104092154Y-127332250D01*
X104064961Y-127421894D01*
X104021871Y-127502510D01*
X103963876Y-127573176D01*
X103893210Y-127631171D01*
X103812594Y-127674261D01*
X103725114Y-127700798D01*
X103631686Y-127710000D01*
X103378314Y-127710000D01*
X103284886Y-127700798D01*
X103197406Y-127674261D01*
X103116790Y-127631171D01*
X103046124Y-127573176D01*
X102988129Y-127502510D01*
X102945039Y-127421894D01*
X102917846Y-127332250D01*
X102914095Y-127323195D01*
X102908650Y-127315045D01*
X102901719Y-127308114D01*
X102893569Y-127302669D01*
X102884514Y-127298918D01*
X102874901Y-127297006D01*
X102865099Y-127297006D01*
X102855486Y-127298918D01*
X102846431Y-127302669D01*
X102838281Y-127308114D01*
X102831350Y-127315045D01*
X102825905Y-127323195D01*
X102822154Y-127332250D01*
X102794961Y-127421894D01*
X102751871Y-127502510D01*
X102693876Y-127573176D01*
X102623210Y-127631171D01*
X102542594Y-127674261D01*
X102455114Y-127700798D01*
X102361686Y-127710000D01*
X102108314Y-127710000D01*
X102014886Y-127700798D01*
X101927406Y-127674261D01*
X101846790Y-127631171D01*
X101776124Y-127573176D01*
X101718129Y-127502510D01*
X101675039Y-127421894D01*
X101647846Y-127332250D01*
X101644095Y-127323195D01*
X101638650Y-127315045D01*
X101631719Y-127308114D01*
X101623569Y-127302669D01*
X101614514Y-127298918D01*
X101604901Y-127297006D01*
X101595099Y-127297006D01*
X101585486Y-127298918D01*
X101576431Y-127302669D01*
X101568281Y-127308114D01*
X101561350Y-127315045D01*
X101555905Y-127323195D01*
X101552154Y-127332250D01*
X101524961Y-127421894D01*
X101481871Y-127502510D01*
X101423876Y-127573176D01*
X101353210Y-127631171D01*
X101272594Y-127674261D01*
X101185114Y-127700798D01*
X101091686Y-127710000D01*
X100838314Y-127710000D01*
X100744886Y-127700798D01*
X100657406Y-127674261D01*
X100576790Y-127631171D01*
X100506124Y-127573176D01*
X100448129Y-127502510D01*
X100405039Y-127421894D01*
X100377846Y-127332250D01*
X100374095Y-127323195D01*
X100368650Y-127315045D01*
X100361719Y-127308114D01*
X100353569Y-127302669D01*
X100344514Y-127298918D01*
X100334901Y-127297006D01*
X100325099Y-127297006D01*
X100315486Y-127298918D01*
X100306431Y-127302669D01*
X100298281Y-127308114D01*
X100291350Y-127315045D01*
X100285905Y-127323195D01*
X100282154Y-127332250D01*
X100254961Y-127421894D01*
X100211871Y-127502510D01*
X100153876Y-127573176D01*
X100083210Y-127631171D01*
X100002594Y-127674261D01*
X99915114Y-127700798D01*
X99821686Y-127710000D01*
X99568314Y-127710000D01*
X99474886Y-127700798D01*
X99387406Y-127674261D01*
X99306790Y-127631171D01*
X99236124Y-127573176D01*
X99178129Y-127502510D01*
X99135039Y-127421894D01*
X99107846Y-127332250D01*
X99104095Y-127323195D01*
X99098650Y-127315045D01*
X99091719Y-127308114D01*
X99083569Y-127302669D01*
X99074514Y-127298918D01*
X99064901Y-127297006D01*
X99055099Y-127297006D01*
X99045486Y-127298918D01*
X99036431Y-127302669D01*
X99028281Y-127308114D01*
X99021350Y-127315045D01*
X99015905Y-127323195D01*
X99012154Y-127332250D01*
X98984961Y-127421894D01*
X98941871Y-127502510D01*
X98883876Y-127573176D01*
X98813210Y-127631171D01*
X98732594Y-127674261D01*
X98645114Y-127700798D01*
X98551686Y-127710000D01*
X98298314Y-127710000D01*
X98204886Y-127700798D01*
X98117406Y-127674261D01*
X98036790Y-127631171D01*
X97966124Y-127573176D01*
X97908129Y-127502510D01*
X97865039Y-127421894D01*
X97837846Y-127332250D01*
X97834095Y-127323195D01*
X97828650Y-127315045D01*
X97821719Y-127308114D01*
X97813569Y-127302669D01*
X97804514Y-127298918D01*
X97794901Y-127297006D01*
X97785099Y-127297006D01*
X97775486Y-127298918D01*
X97766431Y-127302669D01*
X97758281Y-127308114D01*
X97751350Y-127315045D01*
X97745905Y-127323195D01*
X97742154Y-127332250D01*
X97714961Y-127421894D01*
X97671871Y-127502510D01*
X97613876Y-127573176D01*
X97543210Y-127631171D01*
X97462594Y-127674261D01*
X97375114Y-127700798D01*
X97281686Y-127710000D01*
X97028314Y-127710000D01*
X96934886Y-127700798D01*
X96847406Y-127674261D01*
X96766790Y-127631171D01*
X96696124Y-127573176D01*
X96638129Y-127502510D01*
X96595039Y-127421894D01*
X96567846Y-127332250D01*
X96564095Y-127323195D01*
X96558650Y-127315045D01*
X96551719Y-127308114D01*
X96543569Y-127302669D01*
X96534514Y-127298918D01*
X96524901Y-127297006D01*
X96515099Y-127297006D01*
X96505486Y-127298918D01*
X96496431Y-127302669D01*
X96488281Y-127308114D01*
X96481350Y-127315045D01*
X96475905Y-127323195D01*
X96472154Y-127332250D01*
X96444961Y-127421894D01*
X96401871Y-127502510D01*
X96343876Y-127573176D01*
X96273210Y-127631171D01*
X96192594Y-127674261D01*
X96105114Y-127700798D01*
X96011686Y-127710000D01*
X95758314Y-127710000D01*
X95664886Y-127700798D01*
X95577406Y-127674261D01*
X95496790Y-127631171D01*
X95426124Y-127573176D01*
X95368129Y-127502510D01*
X95325039Y-127421894D01*
X95297846Y-127332250D01*
X95294095Y-127323195D01*
X95288650Y-127315045D01*
X95281719Y-127308114D01*
X95273569Y-127302669D01*
X95264514Y-127298918D01*
X95254901Y-127297006D01*
X95245099Y-127297006D01*
X95235486Y-127298918D01*
X95226431Y-127302669D01*
X95218281Y-127308114D01*
X95211350Y-127315045D01*
X95205905Y-127323195D01*
X95202154Y-127332250D01*
X95174961Y-127421894D01*
X95131871Y-127502510D01*
X95073876Y-127573176D01*
X95003210Y-127631171D01*
X94922594Y-127674261D01*
X94835114Y-127700798D01*
X94741686Y-127710000D01*
X94488314Y-127710000D01*
X94394886Y-127700798D01*
X94307406Y-127674261D01*
X94226790Y-127631171D01*
X94156124Y-127573176D01*
X94098129Y-127502510D01*
X94055039Y-127421894D01*
X94027846Y-127332250D01*
X94024095Y-127323195D01*
X94018650Y-127315045D01*
X94011719Y-127308114D01*
X94003569Y-127302669D01*
X93994514Y-127298918D01*
X93984901Y-127297006D01*
X93975099Y-127297006D01*
X93965486Y-127298918D01*
X93956431Y-127302669D01*
X93948281Y-127308114D01*
X93941350Y-127315045D01*
X93935905Y-127323195D01*
X93932154Y-127332250D01*
X93904961Y-127421894D01*
X93861871Y-127502510D01*
X93803876Y-127573176D01*
X93733210Y-127631171D01*
X93652594Y-127674261D01*
X93565114Y-127700798D01*
X93471686Y-127710000D01*
X93218314Y-127710000D01*
X93124886Y-127700798D01*
X93037406Y-127674261D01*
X92956790Y-127631171D01*
X92886124Y-127573176D01*
X92828129Y-127502510D01*
X92785039Y-127421894D01*
X92757846Y-127332250D01*
X92754095Y-127323195D01*
X92748650Y-127315045D01*
X92741719Y-127308114D01*
X92733569Y-127302669D01*
X92724514Y-127298918D01*
X92714901Y-127297006D01*
X92705099Y-127297006D01*
X92695486Y-127298918D01*
X92686431Y-127302669D01*
X92678281Y-127308114D01*
X92671350Y-127315045D01*
X92665905Y-127323195D01*
X92662154Y-127332250D01*
X92634961Y-127421894D01*
X92591871Y-127502510D01*
X92533876Y-127573176D01*
X92463210Y-127631171D01*
X92382594Y-127674261D01*
X92295114Y-127700798D01*
X92201686Y-127710000D01*
X91948314Y-127710000D01*
X91854886Y-127700798D01*
X91767406Y-127674261D01*
X91686790Y-127631171D01*
X91616124Y-127573176D01*
X91558129Y-127502510D01*
X91515039Y-127421894D01*
X91487846Y-127332250D01*
X91484095Y-127323195D01*
X91478650Y-127315045D01*
X91471719Y-127308114D01*
X91463569Y-127302669D01*
X91454514Y-127298918D01*
X91444901Y-127297006D01*
X91435099Y-127297006D01*
X91425486Y-127298918D01*
X91416431Y-127302669D01*
X91408281Y-127308114D01*
X91401350Y-127315045D01*
X91395905Y-127323195D01*
X91392154Y-127332250D01*
X91364961Y-127421894D01*
X91321871Y-127502510D01*
X91263876Y-127573176D01*
X91193210Y-127631171D01*
X91112594Y-127674261D01*
X91025114Y-127700798D01*
X90931686Y-127710000D01*
X90678314Y-127710000D01*
X90584886Y-127700798D01*
X90497406Y-127674261D01*
X90416790Y-127631171D01*
X90346124Y-127573176D01*
X90288129Y-127502510D01*
X90245039Y-127421894D01*
X90217846Y-127332250D01*
X90214095Y-127323195D01*
X90208650Y-127315045D01*
X90201719Y-127308114D01*
X90193569Y-127302669D01*
X90184514Y-127298918D01*
X90174901Y-127297006D01*
X90165099Y-127297006D01*
X90155486Y-127298918D01*
X90146431Y-127302669D01*
X90138281Y-127308114D01*
X90131350Y-127315045D01*
X90125905Y-127323195D01*
X90122154Y-127332250D01*
X90094961Y-127421894D01*
X90051871Y-127502510D01*
X89993876Y-127573176D01*
X89923210Y-127631171D01*
X89842594Y-127674261D01*
X89755114Y-127700798D01*
X89661686Y-127710000D01*
X89408314Y-127710000D01*
X89314886Y-127700798D01*
X89227406Y-127674261D01*
X89146790Y-127631171D01*
X89076124Y-127573176D01*
X89018129Y-127502510D01*
X88975039Y-127421894D01*
X88947846Y-127332250D01*
X88944095Y-127323195D01*
X88938650Y-127315045D01*
X88931719Y-127308114D01*
X88923569Y-127302669D01*
X88914514Y-127298918D01*
X88904901Y-127297006D01*
X88895099Y-127297006D01*
X88885486Y-127298918D01*
X88876431Y-127302669D01*
X88868281Y-127308114D01*
X88861350Y-127315045D01*
X88855905Y-127323195D01*
X88852154Y-127332250D01*
X88824961Y-127421894D01*
X88781871Y-127502510D01*
X88723876Y-127573176D01*
X88653210Y-127631171D01*
X88572594Y-127674261D01*
X88485114Y-127700798D01*
X88391686Y-127710000D01*
X88138314Y-127710000D01*
X88044886Y-127700798D01*
X87957406Y-127674261D01*
X87876790Y-127631171D01*
X87806124Y-127573176D01*
X87748129Y-127502510D01*
X87705039Y-127421894D01*
X87677846Y-127332250D01*
X87674095Y-127323195D01*
X87668650Y-127315045D01*
X87661719Y-127308114D01*
X87653569Y-127302669D01*
X87644514Y-127298918D01*
X87634901Y-127297006D01*
X87625099Y-127297006D01*
X87615486Y-127298918D01*
X87606431Y-127302669D01*
X87598281Y-127308114D01*
X87591350Y-127315045D01*
X87585905Y-127323195D01*
X87582154Y-127332250D01*
X87554961Y-127421894D01*
X87511871Y-127502510D01*
X87453876Y-127573176D01*
X87383210Y-127631171D01*
X87302594Y-127674261D01*
X87215114Y-127700798D01*
X87121686Y-127710000D01*
X86868314Y-127710000D01*
X86774886Y-127700798D01*
X86687406Y-127674261D01*
X86606790Y-127631171D01*
X86536124Y-127573176D01*
X86478129Y-127502510D01*
X86435039Y-127421894D01*
X86407846Y-127332250D01*
X86404095Y-127323195D01*
X86398650Y-127315045D01*
X86391719Y-127308114D01*
X86383569Y-127302669D01*
X86374514Y-127298918D01*
X86364901Y-127297006D01*
X86355099Y-127297006D01*
X86345486Y-127298918D01*
X86336431Y-127302669D01*
X86328281Y-127308114D01*
X86321350Y-127315045D01*
X86315905Y-127323195D01*
X86312154Y-127332250D01*
X86284961Y-127421894D01*
X86241871Y-127502510D01*
X86183876Y-127573176D01*
X86113210Y-127631171D01*
X86032594Y-127674261D01*
X85945114Y-127700798D01*
X85851686Y-127710000D01*
X85598314Y-127710000D01*
X85504886Y-127700798D01*
X85417406Y-127674261D01*
X85336790Y-127631171D01*
X85266124Y-127573176D01*
X85208129Y-127502510D01*
X85165039Y-127421894D01*
X85137846Y-127332250D01*
X85134095Y-127323195D01*
X85128650Y-127315045D01*
X85121719Y-127308114D01*
X85113569Y-127302669D01*
X85104514Y-127298918D01*
X85094901Y-127297006D01*
X85085099Y-127297006D01*
X85075486Y-127298918D01*
X85066431Y-127302669D01*
X85058281Y-127308114D01*
X85051350Y-127315045D01*
X85045905Y-127323195D01*
X85042154Y-127332250D01*
X85014961Y-127421894D01*
X84971871Y-127502510D01*
X84913876Y-127573176D01*
X84843210Y-127631171D01*
X84762594Y-127674261D01*
X84675114Y-127700798D01*
X84581686Y-127710000D01*
X84328314Y-127710000D01*
X84234886Y-127700798D01*
X84147406Y-127674261D01*
X84066790Y-127631171D01*
X83996124Y-127573176D01*
X83938129Y-127502510D01*
X83895039Y-127421894D01*
X83867846Y-127332250D01*
X83864095Y-127323195D01*
X83858650Y-127315045D01*
X83851719Y-127308114D01*
X83843569Y-127302669D01*
X83834514Y-127298918D01*
X83824901Y-127297006D01*
X83815099Y-127297006D01*
X83805486Y-127298918D01*
X83796431Y-127302669D01*
X83788281Y-127308114D01*
X83781350Y-127315045D01*
X83775905Y-127323195D01*
X83772154Y-127332250D01*
X83744961Y-127421894D01*
X83701871Y-127502510D01*
X83643876Y-127573176D01*
X83573210Y-127631171D01*
X83492594Y-127674261D01*
X83405114Y-127700798D01*
X83311686Y-127710000D01*
X83058314Y-127710000D01*
X82964886Y-127700798D01*
X82877406Y-127674261D01*
X82796790Y-127631171D01*
X82726124Y-127573176D01*
X82668129Y-127502510D01*
X82625039Y-127421894D01*
X82597846Y-127332250D01*
X82594095Y-127323195D01*
X82588650Y-127315045D01*
X82581719Y-127308114D01*
X82573569Y-127302669D01*
X82564514Y-127298918D01*
X82554901Y-127297006D01*
X82545099Y-127297006D01*
X82535486Y-127298918D01*
X82526431Y-127302669D01*
X82518281Y-127308114D01*
X82511350Y-127315045D01*
X82505905Y-127323195D01*
X82502154Y-127332250D01*
X82474961Y-127421894D01*
X82431871Y-127502510D01*
X82373876Y-127573176D01*
X82303210Y-127631171D01*
X82222594Y-127674261D01*
X82135114Y-127700798D01*
X82041686Y-127710000D01*
X81788314Y-127710000D01*
X81694886Y-127700798D01*
X81607406Y-127674261D01*
X81526790Y-127631171D01*
X81456124Y-127573176D01*
X81398129Y-127502510D01*
X81355039Y-127421894D01*
X81327846Y-127332250D01*
X81324095Y-127323195D01*
X81318650Y-127315045D01*
X81311719Y-127308114D01*
X81303569Y-127302669D01*
X81294514Y-127298918D01*
X81284901Y-127297006D01*
X81275099Y-127297006D01*
X81265486Y-127298918D01*
X81256431Y-127302669D01*
X81248281Y-127308114D01*
X81241350Y-127315045D01*
X81235905Y-127323195D01*
X81232154Y-127332250D01*
X81204961Y-127421894D01*
X81161871Y-127502510D01*
X81103876Y-127573176D01*
X81033210Y-127631171D01*
X80952594Y-127674261D01*
X80865114Y-127700798D01*
X80771686Y-127710000D01*
X80518314Y-127710000D01*
X80424886Y-127700798D01*
X80337406Y-127674261D01*
X80256790Y-127631171D01*
X80186124Y-127573176D01*
X80128129Y-127502510D01*
X80085039Y-127421894D01*
X80057846Y-127332250D01*
X80054095Y-127323195D01*
X80048650Y-127315045D01*
X80041719Y-127308114D01*
X80033569Y-127302669D01*
X80024514Y-127298918D01*
X80014901Y-127297006D01*
X80005099Y-127297006D01*
X79995486Y-127298918D01*
X79986431Y-127302669D01*
X79978281Y-127308114D01*
X79971350Y-127315045D01*
X79965905Y-127323195D01*
X79962154Y-127332250D01*
X79934961Y-127421894D01*
X79891871Y-127502510D01*
X79833876Y-127573176D01*
X79763210Y-127631171D01*
X79682594Y-127674261D01*
X79595114Y-127700798D01*
X79501686Y-127710000D01*
X79248314Y-127710000D01*
X79154886Y-127700798D01*
X79067406Y-127674261D01*
X78986790Y-127631171D01*
X78916124Y-127573176D01*
X78858129Y-127502510D01*
X78815039Y-127421894D01*
X78787846Y-127332250D01*
X78784095Y-127323195D01*
X78778650Y-127315045D01*
X78771719Y-127308114D01*
X78763569Y-127302669D01*
X78754514Y-127298918D01*
X78744901Y-127297006D01*
X78735099Y-127297006D01*
X78725486Y-127298918D01*
X78716431Y-127302669D01*
X78708281Y-127308114D01*
X78701350Y-127315045D01*
X78695905Y-127323195D01*
X78692154Y-127332250D01*
X78664961Y-127421894D01*
X78621871Y-127502510D01*
X78563876Y-127573176D01*
X78493210Y-127631171D01*
X78412594Y-127674261D01*
X78325114Y-127700798D01*
X78231686Y-127710000D01*
X77978314Y-127710000D01*
X77884886Y-127700798D01*
X77797406Y-127674261D01*
X77716790Y-127631171D01*
X77646124Y-127573176D01*
X77588129Y-127502510D01*
X77545039Y-127421894D01*
X77518502Y-127334414D01*
X77509300Y-127240986D01*
X77509300Y-124981014D01*
X77518502Y-124887586D01*
X77545039Y-124800106D01*
X77588129Y-124719490D01*
X77646124Y-124648824D01*
X77716790Y-124590829D01*
X77797406Y-124547739D01*
X77884886Y-124521202D01*
X77978314Y-124512000D01*
X78231686Y-124512000D01*
X78325114Y-124521202D01*
G37*
G36*
X124045114Y-124521202D02*
G01*
X124132594Y-124547739D01*
X124213210Y-124590829D01*
X124283876Y-124648824D01*
X124341871Y-124719490D01*
X124384961Y-124800106D01*
X124412154Y-124889750D01*
X124415905Y-124898805D01*
X124421350Y-124906955D01*
X124428281Y-124913886D01*
X124436431Y-124919331D01*
X124445486Y-124923082D01*
X124455099Y-124924994D01*
X124464901Y-124924994D01*
X124474514Y-124923082D01*
X124483569Y-124919331D01*
X124491719Y-124913886D01*
X124498650Y-124906955D01*
X124504095Y-124898805D01*
X124507846Y-124889750D01*
X124535039Y-124800106D01*
X124578129Y-124719490D01*
X124636124Y-124648824D01*
X124706790Y-124590829D01*
X124787406Y-124547739D01*
X124874886Y-124521202D01*
X124968314Y-124512000D01*
X125221686Y-124512000D01*
X125315114Y-124521202D01*
X125402594Y-124547739D01*
X125483210Y-124590829D01*
X125553876Y-124648824D01*
X125611871Y-124719490D01*
X125654961Y-124800106D01*
X125682154Y-124889750D01*
X125685905Y-124898805D01*
X125691350Y-124906955D01*
X125698281Y-124913886D01*
X125706431Y-124919331D01*
X125715486Y-124923082D01*
X125725099Y-124924994D01*
X125734901Y-124924994D01*
X125744514Y-124923082D01*
X125753569Y-124919331D01*
X125761719Y-124913886D01*
X125768650Y-124906955D01*
X125774095Y-124898805D01*
X125777846Y-124889750D01*
X125805039Y-124800106D01*
X125848129Y-124719490D01*
X125906124Y-124648824D01*
X125976790Y-124590829D01*
X126057406Y-124547739D01*
X126144886Y-124521202D01*
X126238314Y-124512000D01*
X126491686Y-124512000D01*
X126585114Y-124521202D01*
X126672594Y-124547739D01*
X126753210Y-124590829D01*
X126823876Y-124648824D01*
X126881871Y-124719490D01*
X126924961Y-124800106D01*
X126952154Y-124889750D01*
X126955905Y-124898805D01*
X126961350Y-124906955D01*
X126968281Y-124913886D01*
X126976431Y-124919331D01*
X126985486Y-124923082D01*
X126995099Y-124924994D01*
X127004901Y-124924994D01*
X127014514Y-124923082D01*
X127023569Y-124919331D01*
X127031719Y-124913886D01*
X127038650Y-124906955D01*
X127044095Y-124898805D01*
X127047846Y-124889750D01*
X127075039Y-124800106D01*
X127118129Y-124719490D01*
X127176124Y-124648824D01*
X127246790Y-124590829D01*
X127327406Y-124547739D01*
X127414886Y-124521202D01*
X127508314Y-124512000D01*
X127761686Y-124512000D01*
X127855114Y-124521202D01*
X127942594Y-124547739D01*
X128023210Y-124590829D01*
X128093876Y-124648824D01*
X128151871Y-124719490D01*
X128194961Y-124800106D01*
X128222154Y-124889750D01*
X128225905Y-124898805D01*
X128231350Y-124906955D01*
X128238281Y-124913886D01*
X128246431Y-124919331D01*
X128255486Y-124923082D01*
X128265099Y-124924994D01*
X128274901Y-124924994D01*
X128284514Y-124923082D01*
X128293569Y-124919331D01*
X128301719Y-124913886D01*
X128308650Y-124906955D01*
X128314095Y-124898805D01*
X128317846Y-124889750D01*
X128345039Y-124800106D01*
X128388129Y-124719490D01*
X128446124Y-124648824D01*
X128516790Y-124590829D01*
X128597406Y-124547739D01*
X128684886Y-124521202D01*
X128778314Y-124512000D01*
X129031686Y-124512000D01*
X129125114Y-124521202D01*
X129212594Y-124547739D01*
X129293210Y-124590829D01*
X129363876Y-124648824D01*
X129421871Y-124719490D01*
X129464961Y-124800106D01*
X129492154Y-124889750D01*
X129495905Y-124898805D01*
X129501350Y-124906955D01*
X129508281Y-124913886D01*
X129516431Y-124919331D01*
X129525486Y-124923082D01*
X129535099Y-124924994D01*
X129544901Y-124924994D01*
X129554514Y-124923082D01*
X129563569Y-124919331D01*
X129571719Y-124913886D01*
X129578650Y-124906955D01*
X129584095Y-124898805D01*
X129587846Y-124889750D01*
X129615039Y-124800106D01*
X129658129Y-124719490D01*
X129716124Y-124648824D01*
X129786790Y-124590829D01*
X129867406Y-124547739D01*
X129954886Y-124521202D01*
X130048314Y-124512000D01*
X130301686Y-124512000D01*
X130395114Y-124521202D01*
X130482594Y-124547739D01*
X130563210Y-124590829D01*
X130633876Y-124648824D01*
X130691871Y-124719490D01*
X130734961Y-124800106D01*
X130762154Y-124889750D01*
X130765905Y-124898805D01*
X130771350Y-124906955D01*
X130778281Y-124913886D01*
X130786431Y-124919331D01*
X130795486Y-124923082D01*
X130805099Y-124924994D01*
X130814901Y-124924994D01*
X130824514Y-124923082D01*
X130833569Y-124919331D01*
X130841719Y-124913886D01*
X130848650Y-124906955D01*
X130854095Y-124898805D01*
X130857846Y-124889750D01*
X130885039Y-124800106D01*
X130928129Y-124719490D01*
X130986124Y-124648824D01*
X131056790Y-124590829D01*
X131137406Y-124547739D01*
X131224886Y-124521202D01*
X131318314Y-124512000D01*
X131571686Y-124512000D01*
X131665114Y-124521202D01*
X131752594Y-124547739D01*
X131833210Y-124590829D01*
X131903876Y-124648824D01*
X131961871Y-124719490D01*
X132004961Y-124800106D01*
X132032154Y-124889750D01*
X132035905Y-124898805D01*
X132041350Y-124906955D01*
X132048281Y-124913886D01*
X132056431Y-124919331D01*
X132065486Y-124923082D01*
X132075099Y-124924994D01*
X132084901Y-124924994D01*
X132094514Y-124923082D01*
X132103569Y-124919331D01*
X132111719Y-124913886D01*
X132118650Y-124906955D01*
X132124095Y-124898805D01*
X132127846Y-124889750D01*
X132155039Y-124800106D01*
X132198129Y-124719490D01*
X132256124Y-124648824D01*
X132326790Y-124590829D01*
X132407406Y-124547739D01*
X132494886Y-124521202D01*
X132588314Y-124512000D01*
X132841686Y-124512000D01*
X132935114Y-124521202D01*
X133022594Y-124547739D01*
X133103210Y-124590829D01*
X133173876Y-124648824D01*
X133231871Y-124719490D01*
X133274961Y-124800106D01*
X133302154Y-124889750D01*
X133305905Y-124898805D01*
X133311350Y-124906955D01*
X133318281Y-124913886D01*
X133326431Y-124919331D01*
X133335486Y-124923082D01*
X133345099Y-124924994D01*
X133354901Y-124924994D01*
X133364514Y-124923082D01*
X133373569Y-124919331D01*
X133381719Y-124913886D01*
X133388650Y-124906955D01*
X133394095Y-124898805D01*
X133397846Y-124889750D01*
X133425039Y-124800106D01*
X133468129Y-124719490D01*
X133526124Y-124648824D01*
X133596790Y-124590829D01*
X133677406Y-124547739D01*
X133764886Y-124521202D01*
X133858314Y-124512000D01*
X134111686Y-124512000D01*
X134205114Y-124521202D01*
X134292594Y-124547739D01*
X134373210Y-124590829D01*
X134443876Y-124648824D01*
X134501871Y-124719490D01*
X134544961Y-124800106D01*
X134572154Y-124889750D01*
X134575905Y-124898805D01*
X134581350Y-124906955D01*
X134588281Y-124913886D01*
X134596431Y-124919331D01*
X134605486Y-124923082D01*
X134615099Y-124924994D01*
X134624901Y-124924994D01*
X134634514Y-124923082D01*
X134643569Y-124919331D01*
X134651719Y-124913886D01*
X134658650Y-124906955D01*
X134664095Y-124898805D01*
X134667846Y-124889750D01*
X134695039Y-124800106D01*
X134738129Y-124719490D01*
X134796124Y-124648824D01*
X134866790Y-124590829D01*
X134947406Y-124547739D01*
X135034886Y-124521202D01*
X135128314Y-124512000D01*
X135381686Y-124512000D01*
X135475114Y-124521202D01*
X135562594Y-124547739D01*
X135643210Y-124590829D01*
X135713876Y-124648824D01*
X135771871Y-124719490D01*
X135814961Y-124800106D01*
X135842154Y-124889750D01*
X135845905Y-124898805D01*
X135851350Y-124906955D01*
X135858281Y-124913886D01*
X135866431Y-124919331D01*
X135875486Y-124923082D01*
X135885099Y-124924994D01*
X135894901Y-124924994D01*
X135904514Y-124923082D01*
X135913569Y-124919331D01*
X135921719Y-124913886D01*
X135928650Y-124906955D01*
X135934095Y-124898805D01*
X135937846Y-124889750D01*
X135965039Y-124800106D01*
X136008129Y-124719490D01*
X136066124Y-124648824D01*
X136136790Y-124590829D01*
X136217406Y-124547739D01*
X136304886Y-124521202D01*
X136398314Y-124512000D01*
X136651686Y-124512000D01*
X136745114Y-124521202D01*
X136832594Y-124547739D01*
X136913210Y-124590829D01*
X136983876Y-124648824D01*
X137041871Y-124719490D01*
X137084961Y-124800106D01*
X137112154Y-124889750D01*
X137115905Y-124898805D01*
X137121350Y-124906955D01*
X137128281Y-124913886D01*
X137136431Y-124919331D01*
X137145486Y-124923082D01*
X137155099Y-124924994D01*
X137164901Y-124924994D01*
X137174514Y-124923082D01*
X137183569Y-124919331D01*
X137191719Y-124913886D01*
X137198650Y-124906955D01*
X137204095Y-124898805D01*
X137207846Y-124889750D01*
X137235039Y-124800106D01*
X137278129Y-124719490D01*
X137336124Y-124648824D01*
X137406790Y-124590829D01*
X137487406Y-124547739D01*
X137574886Y-124521202D01*
X137668314Y-124512000D01*
X137921686Y-124512000D01*
X138015114Y-124521202D01*
X138102594Y-124547739D01*
X138183210Y-124590829D01*
X138253876Y-124648824D01*
X138311871Y-124719490D01*
X138354961Y-124800106D01*
X138382154Y-124889750D01*
X138385905Y-124898805D01*
X138391350Y-124906955D01*
X138398281Y-124913886D01*
X138406431Y-124919331D01*
X138415486Y-124923082D01*
X138425099Y-124924994D01*
X138434901Y-124924994D01*
X138444514Y-124923082D01*
X138453569Y-124919331D01*
X138461719Y-124913886D01*
X138468650Y-124906955D01*
X138474095Y-124898805D01*
X138477846Y-124889750D01*
X138505039Y-124800106D01*
X138548129Y-124719490D01*
X138606124Y-124648824D01*
X138676790Y-124590829D01*
X138757406Y-124547739D01*
X138844886Y-124521202D01*
X138938314Y-124512000D01*
X139191686Y-124512000D01*
X139285114Y-124521202D01*
X139372594Y-124547739D01*
X139453210Y-124590829D01*
X139523876Y-124648824D01*
X139581871Y-124719490D01*
X139624961Y-124800106D01*
X139652154Y-124889750D01*
X139655905Y-124898805D01*
X139661350Y-124906955D01*
X139668281Y-124913886D01*
X139676431Y-124919331D01*
X139685486Y-124923082D01*
X139695099Y-124924994D01*
X139704901Y-124924994D01*
X139714514Y-124923082D01*
X139723569Y-124919331D01*
X139731719Y-124913886D01*
X139738650Y-124906955D01*
X139744095Y-124898805D01*
X139747846Y-124889750D01*
X139775039Y-124800106D01*
X139818129Y-124719490D01*
X139876124Y-124648824D01*
X139946790Y-124590829D01*
X140027406Y-124547739D01*
X140114886Y-124521202D01*
X140208314Y-124512000D01*
X140461686Y-124512000D01*
X140555114Y-124521202D01*
X140642594Y-124547739D01*
X140723210Y-124590829D01*
X140793876Y-124648824D01*
X140851871Y-124719490D01*
X140894961Y-124800106D01*
X140922154Y-124889750D01*
X140925905Y-124898805D01*
X140931350Y-124906955D01*
X140938281Y-124913886D01*
X140946431Y-124919331D01*
X140955486Y-124923082D01*
X140965099Y-124924994D01*
X140974901Y-124924994D01*
X140984514Y-124923082D01*
X140993569Y-124919331D01*
X141001719Y-124913886D01*
X141008650Y-124906955D01*
X141014095Y-124898805D01*
X141017846Y-124889750D01*
X141045039Y-124800106D01*
X141088129Y-124719490D01*
X141146124Y-124648824D01*
X141216790Y-124590829D01*
X141297406Y-124547739D01*
X141384886Y-124521202D01*
X141478314Y-124512000D01*
X141731686Y-124512000D01*
X141825114Y-124521202D01*
X141912594Y-124547739D01*
X141993210Y-124590829D01*
X142063876Y-124648824D01*
X142121871Y-124719490D01*
X142164961Y-124800106D01*
X142192154Y-124889750D01*
X142195905Y-124898805D01*
X142201350Y-124906955D01*
X142208281Y-124913886D01*
X142216431Y-124919331D01*
X142225486Y-124923082D01*
X142235099Y-124924994D01*
X142244901Y-124924994D01*
X142254514Y-124923082D01*
X142263569Y-124919331D01*
X142271719Y-124913886D01*
X142278650Y-124906955D01*
X142284095Y-124898805D01*
X142287846Y-124889750D01*
X142315039Y-124800106D01*
X142358129Y-124719490D01*
X142416124Y-124648824D01*
X142486790Y-124590829D01*
X142567406Y-124547739D01*
X142654886Y-124521202D01*
X142748314Y-124512000D01*
X143001686Y-124512000D01*
X143095114Y-124521202D01*
X143182594Y-124547739D01*
X143263210Y-124590829D01*
X143333876Y-124648824D01*
X143391871Y-124719490D01*
X143434961Y-124800106D01*
X143462154Y-124889750D01*
X143465905Y-124898805D01*
X143471350Y-124906955D01*
X143478281Y-124913886D01*
X143486431Y-124919331D01*
X143495486Y-124923082D01*
X143505099Y-124924994D01*
X143514901Y-124924994D01*
X143524514Y-124923082D01*
X143533569Y-124919331D01*
X143541719Y-124913886D01*
X143548650Y-124906955D01*
X143554095Y-124898805D01*
X143557846Y-124889750D01*
X143585039Y-124800106D01*
X143628129Y-124719490D01*
X143686124Y-124648824D01*
X143756790Y-124590829D01*
X143837406Y-124547739D01*
X143924886Y-124521202D01*
X144018314Y-124512000D01*
X144271686Y-124512000D01*
X144365114Y-124521202D01*
X144452594Y-124547739D01*
X144533210Y-124590829D01*
X144603876Y-124648824D01*
X144661871Y-124719490D01*
X144704961Y-124800106D01*
X144732154Y-124889750D01*
X144735905Y-124898805D01*
X144741350Y-124906955D01*
X144748281Y-124913886D01*
X144756431Y-124919331D01*
X144765486Y-124923082D01*
X144775099Y-124924994D01*
X144784901Y-124924994D01*
X144794514Y-124923082D01*
X144803569Y-124919331D01*
X144811719Y-124913886D01*
X144818650Y-124906955D01*
X144824095Y-124898805D01*
X144827846Y-124889750D01*
X144855039Y-124800106D01*
X144898129Y-124719490D01*
X144956124Y-124648824D01*
X145026790Y-124590829D01*
X145107406Y-124547739D01*
X145194886Y-124521202D01*
X145288314Y-124512000D01*
X145541686Y-124512000D01*
X145635114Y-124521202D01*
X145722594Y-124547739D01*
X145803210Y-124590829D01*
X145873876Y-124648824D01*
X145931871Y-124719490D01*
X145974961Y-124800106D01*
X146002154Y-124889750D01*
X146005905Y-124898805D01*
X146011350Y-124906955D01*
X146018281Y-124913886D01*
X146026431Y-124919331D01*
X146035486Y-124923082D01*
X146045099Y-124924994D01*
X146054901Y-124924994D01*
X146064514Y-124923082D01*
X146073569Y-124919331D01*
X146081719Y-124913886D01*
X146088650Y-124906955D01*
X146094095Y-124898805D01*
X146097846Y-124889750D01*
X146125039Y-124800106D01*
X146168129Y-124719490D01*
X146226124Y-124648824D01*
X146296790Y-124590829D01*
X146377406Y-124547739D01*
X146464886Y-124521202D01*
X146558314Y-124512000D01*
X146811686Y-124512000D01*
X146905114Y-124521202D01*
X146992594Y-124547739D01*
X147073210Y-124590829D01*
X147143876Y-124648824D01*
X147201871Y-124719490D01*
X147244961Y-124800106D01*
X147272154Y-124889750D01*
X147275905Y-124898805D01*
X147281350Y-124906955D01*
X147288281Y-124913886D01*
X147296431Y-124919331D01*
X147305486Y-124923082D01*
X147315099Y-124924994D01*
X147324901Y-124924994D01*
X147334514Y-124923082D01*
X147343569Y-124919331D01*
X147351719Y-124913886D01*
X147358650Y-124906955D01*
X147364095Y-124898805D01*
X147367846Y-124889750D01*
X147395039Y-124800106D01*
X147438129Y-124719490D01*
X147496124Y-124648824D01*
X147566790Y-124590829D01*
X147647406Y-124547739D01*
X147734886Y-124521202D01*
X147828314Y-124512000D01*
X148081686Y-124512000D01*
X148175114Y-124521202D01*
X148262594Y-124547739D01*
X148343210Y-124590829D01*
X148413876Y-124648824D01*
X148471871Y-124719490D01*
X148514961Y-124800106D01*
X148542154Y-124889750D01*
X148545905Y-124898805D01*
X148551350Y-124906955D01*
X148558281Y-124913886D01*
X148566431Y-124919331D01*
X148575486Y-124923082D01*
X148585099Y-124924994D01*
X148594901Y-124924994D01*
X148604514Y-124923082D01*
X148613569Y-124919331D01*
X148621719Y-124913886D01*
X148628650Y-124906955D01*
X148634095Y-124898805D01*
X148637846Y-124889750D01*
X148665039Y-124800106D01*
X148708129Y-124719490D01*
X148766124Y-124648824D01*
X148836790Y-124590829D01*
X148917406Y-124547739D01*
X149004886Y-124521202D01*
X149098314Y-124512000D01*
X149351686Y-124512000D01*
X149445114Y-124521202D01*
X149532594Y-124547739D01*
X149613210Y-124590829D01*
X149683876Y-124648824D01*
X149741871Y-124719490D01*
X149784961Y-124800106D01*
X149812154Y-124889750D01*
X149815905Y-124898805D01*
X149821350Y-124906955D01*
X149828281Y-124913886D01*
X149836431Y-124919331D01*
X149845486Y-124923082D01*
X149855099Y-124924994D01*
X149864901Y-124924994D01*
X149874514Y-124923082D01*
X149883569Y-124919331D01*
X149891719Y-124913886D01*
X149898650Y-124906955D01*
X149904095Y-124898805D01*
X149907846Y-124889750D01*
X149935039Y-124800106D01*
X149978129Y-124719490D01*
X150036124Y-124648824D01*
X150106790Y-124590829D01*
X150187406Y-124547739D01*
X150274886Y-124521202D01*
X150368314Y-124512000D01*
X150621686Y-124512000D01*
X150715114Y-124521202D01*
X150802594Y-124547739D01*
X150883210Y-124590829D01*
X150953876Y-124648824D01*
X151011871Y-124719490D01*
X151054961Y-124800106D01*
X151082154Y-124889750D01*
X151085905Y-124898805D01*
X151091350Y-124906955D01*
X151098281Y-124913886D01*
X151106431Y-124919331D01*
X151115486Y-124923082D01*
X151125099Y-124924994D01*
X151134901Y-124924994D01*
X151144514Y-124923082D01*
X151153569Y-124919331D01*
X151161719Y-124913886D01*
X151168650Y-124906955D01*
X151174095Y-124898805D01*
X151177846Y-124889750D01*
X151205039Y-124800106D01*
X151248129Y-124719490D01*
X151306124Y-124648824D01*
X151376790Y-124590829D01*
X151457406Y-124547739D01*
X151544886Y-124521202D01*
X151638314Y-124512000D01*
X151891686Y-124512000D01*
X151985114Y-124521202D01*
X152072594Y-124547739D01*
X152153210Y-124590829D01*
X152223876Y-124648824D01*
X152281871Y-124719490D01*
X152324961Y-124800106D01*
X152352154Y-124889750D01*
X152355905Y-124898805D01*
X152361350Y-124906955D01*
X152368281Y-124913886D01*
X152376431Y-124919331D01*
X152385486Y-124923082D01*
X152395099Y-124924994D01*
X152404901Y-124924994D01*
X152414514Y-124923082D01*
X152423569Y-124919331D01*
X152431719Y-124913886D01*
X152438650Y-124906955D01*
X152444095Y-124898805D01*
X152447846Y-124889750D01*
X152475039Y-124800106D01*
X152518129Y-124719490D01*
X152576124Y-124648824D01*
X152646790Y-124590829D01*
X152727406Y-124547739D01*
X152814886Y-124521202D01*
X152908314Y-124512000D01*
X153161686Y-124512000D01*
X153255114Y-124521202D01*
X153342594Y-124547739D01*
X153423210Y-124590829D01*
X153493876Y-124648824D01*
X153551871Y-124719490D01*
X153594961Y-124800106D01*
X153622154Y-124889750D01*
X153625905Y-124898805D01*
X153631350Y-124906955D01*
X153638281Y-124913886D01*
X153646431Y-124919331D01*
X153655486Y-124923082D01*
X153665099Y-124924994D01*
X153674901Y-124924994D01*
X153684514Y-124923082D01*
X153693569Y-124919331D01*
X153701719Y-124913886D01*
X153708650Y-124906955D01*
X153714095Y-124898805D01*
X153717846Y-124889750D01*
X153745039Y-124800106D01*
X153788129Y-124719490D01*
X153846124Y-124648824D01*
X153916790Y-124590829D01*
X153997406Y-124547739D01*
X154084886Y-124521202D01*
X154178314Y-124512000D01*
X154431686Y-124512000D01*
X154525114Y-124521202D01*
X154612594Y-124547739D01*
X154693210Y-124590829D01*
X154763876Y-124648824D01*
X154821871Y-124719490D01*
X154864961Y-124800106D01*
X154892154Y-124889750D01*
X154895905Y-124898805D01*
X154901350Y-124906955D01*
X154908281Y-124913886D01*
X154916431Y-124919331D01*
X154925486Y-124923082D01*
X154935099Y-124924994D01*
X154944901Y-124924994D01*
X154954514Y-124923082D01*
X154963569Y-124919331D01*
X154971719Y-124913886D01*
X154978650Y-124906955D01*
X154984095Y-124898805D01*
X154987846Y-124889750D01*
X155015039Y-124800106D01*
X155058129Y-124719490D01*
X155116124Y-124648824D01*
X155186790Y-124590829D01*
X155267406Y-124547739D01*
X155354886Y-124521202D01*
X155448314Y-124512000D01*
X155701686Y-124512000D01*
X155795114Y-124521202D01*
X155882594Y-124547739D01*
X155963210Y-124590829D01*
X156033876Y-124648824D01*
X156091871Y-124719490D01*
X156134961Y-124800106D01*
X156162154Y-124889750D01*
X156165905Y-124898805D01*
X156171350Y-124906955D01*
X156178281Y-124913886D01*
X156186431Y-124919331D01*
X156195486Y-124923082D01*
X156205099Y-124924994D01*
X156214901Y-124924994D01*
X156224514Y-124923082D01*
X156233569Y-124919331D01*
X156241719Y-124913886D01*
X156248650Y-124906955D01*
X156254095Y-124898805D01*
X156257846Y-124889750D01*
X156285039Y-124800106D01*
X156328129Y-124719490D01*
X156386124Y-124648824D01*
X156456790Y-124590829D01*
X156537406Y-124547739D01*
X156624886Y-124521202D01*
X156718314Y-124512000D01*
X156971686Y-124512000D01*
X157065114Y-124521202D01*
X157152594Y-124547739D01*
X157233210Y-124590829D01*
X157303876Y-124648824D01*
X157361871Y-124719490D01*
X157404961Y-124800106D01*
X157432154Y-124889750D01*
X157435905Y-124898805D01*
X157441350Y-124906955D01*
X157448281Y-124913886D01*
X157456431Y-124919331D01*
X157465486Y-124923082D01*
X157475099Y-124924994D01*
X157484901Y-124924994D01*
X157494514Y-124923082D01*
X157503569Y-124919331D01*
X157511719Y-124913886D01*
X157518650Y-124906955D01*
X157524095Y-124898805D01*
X157527846Y-124889750D01*
X157555039Y-124800106D01*
X157598129Y-124719490D01*
X157656124Y-124648824D01*
X157726790Y-124590829D01*
X157807406Y-124547739D01*
X157894886Y-124521202D01*
X157988314Y-124512000D01*
X158241686Y-124512000D01*
X158335114Y-124521202D01*
X158422594Y-124547739D01*
X158503210Y-124590829D01*
X158573876Y-124648824D01*
X158631871Y-124719490D01*
X158674961Y-124800106D01*
X158702154Y-124889750D01*
X158705905Y-124898805D01*
X158711350Y-124906955D01*
X158718281Y-124913886D01*
X158726431Y-124919331D01*
X158735486Y-124923082D01*
X158745099Y-124924994D01*
X158754901Y-124924994D01*
X158764514Y-124923082D01*
X158773569Y-124919331D01*
X158781719Y-124913886D01*
X158788650Y-124906955D01*
X158794095Y-124898805D01*
X158797846Y-124889750D01*
X158825039Y-124800106D01*
X158868129Y-124719490D01*
X158926124Y-124648824D01*
X158996790Y-124590829D01*
X159077406Y-124547739D01*
X159164886Y-124521202D01*
X159258314Y-124512000D01*
X159511686Y-124512000D01*
X159605114Y-124521202D01*
X159692594Y-124547739D01*
X159773210Y-124590829D01*
X159843876Y-124648824D01*
X159901871Y-124719490D01*
X159944961Y-124800106D01*
X159972154Y-124889750D01*
X159975905Y-124898805D01*
X159981350Y-124906955D01*
X159988281Y-124913886D01*
X159996431Y-124919331D01*
X160005486Y-124923082D01*
X160015099Y-124924994D01*
X160024901Y-124924994D01*
X160034514Y-124923082D01*
X160043569Y-124919331D01*
X160051719Y-124913886D01*
X160058650Y-124906955D01*
X160064095Y-124898805D01*
X160067846Y-124889750D01*
X160095039Y-124800106D01*
X160138129Y-124719490D01*
X160196124Y-124648824D01*
X160266790Y-124590829D01*
X160347406Y-124547739D01*
X160434886Y-124521202D01*
X160528314Y-124512000D01*
X160781686Y-124512000D01*
X160875114Y-124521202D01*
X160962594Y-124547739D01*
X161043210Y-124590829D01*
X161113876Y-124648824D01*
X161171871Y-124719490D01*
X161214961Y-124800106D01*
X161242154Y-124889750D01*
X161245905Y-124898805D01*
X161251350Y-124906955D01*
X161258281Y-124913886D01*
X161266431Y-124919331D01*
X161275486Y-124923082D01*
X161285099Y-124924994D01*
X161294901Y-124924994D01*
X161304514Y-124923082D01*
X161313569Y-124919331D01*
X161321719Y-124913886D01*
X161328650Y-124906955D01*
X161334095Y-124898805D01*
X161337846Y-124889750D01*
X161365039Y-124800106D01*
X161408129Y-124719490D01*
X161466124Y-124648824D01*
X161536790Y-124590829D01*
X161617406Y-124547739D01*
X161704886Y-124521202D01*
X161798314Y-124512000D01*
X162051686Y-124512000D01*
X162145114Y-124521202D01*
X162232594Y-124547739D01*
X162313210Y-124590829D01*
X162383876Y-124648824D01*
X162441871Y-124719490D01*
X162484961Y-124800106D01*
X162512154Y-124889750D01*
X162515905Y-124898805D01*
X162521350Y-124906955D01*
X162528281Y-124913886D01*
X162536431Y-124919331D01*
X162545486Y-124923082D01*
X162555099Y-124924994D01*
X162564901Y-124924994D01*
X162574514Y-124923082D01*
X162583569Y-124919331D01*
X162591719Y-124913886D01*
X162598650Y-124906955D01*
X162604095Y-124898805D01*
X162607846Y-124889750D01*
X162635039Y-124800106D01*
X162678129Y-124719490D01*
X162736124Y-124648824D01*
X162806790Y-124590829D01*
X162887406Y-124547739D01*
X162974886Y-124521202D01*
X163068314Y-124512000D01*
X163321686Y-124512000D01*
X163415114Y-124521202D01*
X163502594Y-124547739D01*
X163583210Y-124590829D01*
X163653876Y-124648824D01*
X163711871Y-124719490D01*
X163754961Y-124800106D01*
X163781498Y-124887586D01*
X163790700Y-124981014D01*
X163790700Y-127240986D01*
X163781498Y-127334414D01*
X163754961Y-127421894D01*
X163711871Y-127502510D01*
X163653876Y-127573176D01*
X163583210Y-127631171D01*
X163502594Y-127674261D01*
X163415114Y-127700798D01*
X163321686Y-127710000D01*
X163068314Y-127710000D01*
X162974886Y-127700798D01*
X162887406Y-127674261D01*
X162806790Y-127631171D01*
X162736124Y-127573176D01*
X162678129Y-127502510D01*
X162635039Y-127421894D01*
X162607846Y-127332250D01*
X162604095Y-127323195D01*
X162598650Y-127315045D01*
X162591719Y-127308114D01*
X162583569Y-127302669D01*
X162574514Y-127298918D01*
X162564901Y-127297006D01*
X162555099Y-127297006D01*
X162545486Y-127298918D01*
X162536431Y-127302669D01*
X162528281Y-127308114D01*
X162521350Y-127315045D01*
X162515905Y-127323195D01*
X162512154Y-127332250D01*
X162484961Y-127421894D01*
X162441871Y-127502510D01*
X162383876Y-127573176D01*
X162313210Y-127631171D01*
X162232594Y-127674261D01*
X162145114Y-127700798D01*
X162051686Y-127710000D01*
X161798314Y-127710000D01*
X161704886Y-127700798D01*
X161617406Y-127674261D01*
X161536790Y-127631171D01*
X161466124Y-127573176D01*
X161408129Y-127502510D01*
X161365039Y-127421894D01*
X161337846Y-127332250D01*
X161334095Y-127323195D01*
X161328650Y-127315045D01*
X161321719Y-127308114D01*
X161313569Y-127302669D01*
X161304514Y-127298918D01*
X161294901Y-127297006D01*
X161285099Y-127297006D01*
X161275486Y-127298918D01*
X161266431Y-127302669D01*
X161258281Y-127308114D01*
X161251350Y-127315045D01*
X161245905Y-127323195D01*
X161242154Y-127332250D01*
X161214961Y-127421894D01*
X161171871Y-127502510D01*
X161113876Y-127573176D01*
X161043210Y-127631171D01*
X160962594Y-127674261D01*
X160875114Y-127700798D01*
X160781686Y-127710000D01*
X160528314Y-127710000D01*
X160434886Y-127700798D01*
X160347406Y-127674261D01*
X160266790Y-127631171D01*
X160196124Y-127573176D01*
X160138129Y-127502510D01*
X160095039Y-127421894D01*
X160067846Y-127332250D01*
X160064095Y-127323195D01*
X160058650Y-127315045D01*
X160051719Y-127308114D01*
X160043569Y-127302669D01*
X160034514Y-127298918D01*
X160024901Y-127297006D01*
X160015099Y-127297006D01*
X160005486Y-127298918D01*
X159996431Y-127302669D01*
X159988281Y-127308114D01*
X159981350Y-127315045D01*
X159975905Y-127323195D01*
X159972154Y-127332250D01*
X159944961Y-127421894D01*
X159901871Y-127502510D01*
X159843876Y-127573176D01*
X159773210Y-127631171D01*
X159692594Y-127674261D01*
X159605114Y-127700798D01*
X159511686Y-127710000D01*
X159258314Y-127710000D01*
X159164886Y-127700798D01*
X159077406Y-127674261D01*
X158996790Y-127631171D01*
X158926124Y-127573176D01*
X158868129Y-127502510D01*
X158825039Y-127421894D01*
X158797846Y-127332250D01*
X158794095Y-127323195D01*
X158788650Y-127315045D01*
X158781719Y-127308114D01*
X158773569Y-127302669D01*
X158764514Y-127298918D01*
X158754901Y-127297006D01*
X158745099Y-127297006D01*
X158735486Y-127298918D01*
X158726431Y-127302669D01*
X158718281Y-127308114D01*
X158711350Y-127315045D01*
X158705905Y-127323195D01*
X158702154Y-127332250D01*
X158674961Y-127421894D01*
X158631871Y-127502510D01*
X158573876Y-127573176D01*
X158503210Y-127631171D01*
X158422594Y-127674261D01*
X158335114Y-127700798D01*
X158241686Y-127710000D01*
X157988314Y-127710000D01*
X157894886Y-127700798D01*
X157807406Y-127674261D01*
X157726790Y-127631171D01*
X157656124Y-127573176D01*
X157598129Y-127502510D01*
X157555039Y-127421894D01*
X157527846Y-127332250D01*
X157524095Y-127323195D01*
X157518650Y-127315045D01*
X157511719Y-127308114D01*
X157503569Y-127302669D01*
X157494514Y-127298918D01*
X157484901Y-127297006D01*
X157475099Y-127297006D01*
X157465486Y-127298918D01*
X157456431Y-127302669D01*
X157448281Y-127308114D01*
X157441350Y-127315045D01*
X157435905Y-127323195D01*
X157432154Y-127332250D01*
X157404961Y-127421894D01*
X157361871Y-127502510D01*
X157303876Y-127573176D01*
X157233210Y-127631171D01*
X157152594Y-127674261D01*
X157065114Y-127700798D01*
X156971686Y-127710000D01*
X156718314Y-127710000D01*
X156624886Y-127700798D01*
X156537406Y-127674261D01*
X156456790Y-127631171D01*
X156386124Y-127573176D01*
X156328129Y-127502510D01*
X156285039Y-127421894D01*
X156257846Y-127332250D01*
X156254095Y-127323195D01*
X156248650Y-127315045D01*
X156241719Y-127308114D01*
X156233569Y-127302669D01*
X156224514Y-127298918D01*
X156214901Y-127297006D01*
X156205099Y-127297006D01*
X156195486Y-127298918D01*
X156186431Y-127302669D01*
X156178281Y-127308114D01*
X156171350Y-127315045D01*
X156165905Y-127323195D01*
X156162154Y-127332250D01*
X156134961Y-127421894D01*
X156091871Y-127502510D01*
X156033876Y-127573176D01*
X155963210Y-127631171D01*
X155882594Y-127674261D01*
X155795114Y-127700798D01*
X155701686Y-127710000D01*
X155448314Y-127710000D01*
X155354886Y-127700798D01*
X155267406Y-127674261D01*
X155186790Y-127631171D01*
X155116124Y-127573176D01*
X155058129Y-127502510D01*
X155015039Y-127421894D01*
X154987846Y-127332250D01*
X154984095Y-127323195D01*
X154978650Y-127315045D01*
X154971719Y-127308114D01*
X154963569Y-127302669D01*
X154954514Y-127298918D01*
X154944901Y-127297006D01*
X154935099Y-127297006D01*
X154925486Y-127298918D01*
X154916431Y-127302669D01*
X154908281Y-127308114D01*
X154901350Y-127315045D01*
X154895905Y-127323195D01*
X154892154Y-127332250D01*
X154864961Y-127421894D01*
X154821871Y-127502510D01*
X154763876Y-127573176D01*
X154693210Y-127631171D01*
X154612594Y-127674261D01*
X154525114Y-127700798D01*
X154431686Y-127710000D01*
X154178314Y-127710000D01*
X154084886Y-127700798D01*
X153997406Y-127674261D01*
X153916790Y-127631171D01*
X153846124Y-127573176D01*
X153788129Y-127502510D01*
X153745039Y-127421894D01*
X153717846Y-127332250D01*
X153714095Y-127323195D01*
X153708650Y-127315045D01*
X153701719Y-127308114D01*
X153693569Y-127302669D01*
X153684514Y-127298918D01*
X153674901Y-127297006D01*
X153665099Y-127297006D01*
X153655486Y-127298918D01*
X153646431Y-127302669D01*
X153638281Y-127308114D01*
X153631350Y-127315045D01*
X153625905Y-127323195D01*
X153622154Y-127332250D01*
X153594961Y-127421894D01*
X153551871Y-127502510D01*
X153493876Y-127573176D01*
X153423210Y-127631171D01*
X153342594Y-127674261D01*
X153255114Y-127700798D01*
X153161686Y-127710000D01*
X152908314Y-127710000D01*
X152814886Y-127700798D01*
X152727406Y-127674261D01*
X152646790Y-127631171D01*
X152576124Y-127573176D01*
X152518129Y-127502510D01*
X152475039Y-127421894D01*
X152447846Y-127332250D01*
X152444095Y-127323195D01*
X152438650Y-127315045D01*
X152431719Y-127308114D01*
X152423569Y-127302669D01*
X152414514Y-127298918D01*
X152404901Y-127297006D01*
X152395099Y-127297006D01*
X152385486Y-127298918D01*
X152376431Y-127302669D01*
X152368281Y-127308114D01*
X152361350Y-127315045D01*
X152355905Y-127323195D01*
X152352154Y-127332250D01*
X152324961Y-127421894D01*
X152281871Y-127502510D01*
X152223876Y-127573176D01*
X152153210Y-127631171D01*
X152072594Y-127674261D01*
X151985114Y-127700798D01*
X151891686Y-127710000D01*
X151638314Y-127710000D01*
X151544886Y-127700798D01*
X151457406Y-127674261D01*
X151376790Y-127631171D01*
X151306124Y-127573176D01*
X151248129Y-127502510D01*
X151205039Y-127421894D01*
X151177846Y-127332250D01*
X151174095Y-127323195D01*
X151168650Y-127315045D01*
X151161719Y-127308114D01*
X151153569Y-127302669D01*
X151144514Y-127298918D01*
X151134901Y-127297006D01*
X151125099Y-127297006D01*
X151115486Y-127298918D01*
X151106431Y-127302669D01*
X151098281Y-127308114D01*
X151091350Y-127315045D01*
X151085905Y-127323195D01*
X151082154Y-127332250D01*
X151054961Y-127421894D01*
X151011871Y-127502510D01*
X150953876Y-127573176D01*
X150883210Y-127631171D01*
X150802594Y-127674261D01*
X150715114Y-127700798D01*
X150621686Y-127710000D01*
X150368314Y-127710000D01*
X150274886Y-127700798D01*
X150187406Y-127674261D01*
X150106790Y-127631171D01*
X150036124Y-127573176D01*
X149978129Y-127502510D01*
X149935039Y-127421894D01*
X149907846Y-127332250D01*
X149904095Y-127323195D01*
X149898650Y-127315045D01*
X149891719Y-127308114D01*
X149883569Y-127302669D01*
X149874514Y-127298918D01*
X149864901Y-127297006D01*
X149855099Y-127297006D01*
X149845486Y-127298918D01*
X149836431Y-127302669D01*
X149828281Y-127308114D01*
X149821350Y-127315045D01*
X149815905Y-127323195D01*
X149812154Y-127332250D01*
X149784961Y-127421894D01*
X149741871Y-127502510D01*
X149683876Y-127573176D01*
X149613210Y-127631171D01*
X149532594Y-127674261D01*
X149445114Y-127700798D01*
X149351686Y-127710000D01*
X149098314Y-127710000D01*
X149004886Y-127700798D01*
X148917406Y-127674261D01*
X148836790Y-127631171D01*
X148766124Y-127573176D01*
X148708129Y-127502510D01*
X148665039Y-127421894D01*
X148637846Y-127332250D01*
X148634095Y-127323195D01*
X148628650Y-127315045D01*
X148621719Y-127308114D01*
X148613569Y-127302669D01*
X148604514Y-127298918D01*
X148594901Y-127297006D01*
X148585099Y-127297006D01*
X148575486Y-127298918D01*
X148566431Y-127302669D01*
X148558281Y-127308114D01*
X148551350Y-127315045D01*
X148545905Y-127323195D01*
X148542154Y-127332250D01*
X148514961Y-127421894D01*
X148471871Y-127502510D01*
X148413876Y-127573176D01*
X148343210Y-127631171D01*
X148262594Y-127674261D01*
X148175114Y-127700798D01*
X148081686Y-127710000D01*
X147828314Y-127710000D01*
X147734886Y-127700798D01*
X147647406Y-127674261D01*
X147566790Y-127631171D01*
X147496124Y-127573176D01*
X147438129Y-127502510D01*
X147395039Y-127421894D01*
X147367846Y-127332250D01*
X147364095Y-127323195D01*
X147358650Y-127315045D01*
X147351719Y-127308114D01*
X147343569Y-127302669D01*
X147334514Y-127298918D01*
X147324901Y-127297006D01*
X147315099Y-127297006D01*
X147305486Y-127298918D01*
X147296431Y-127302669D01*
X147288281Y-127308114D01*
X147281350Y-127315045D01*
X147275905Y-127323195D01*
X147272154Y-127332250D01*
X147244961Y-127421894D01*
X147201871Y-127502510D01*
X147143876Y-127573176D01*
X147073210Y-127631171D01*
X146992594Y-127674261D01*
X146905114Y-127700798D01*
X146811686Y-127710000D01*
X146558314Y-127710000D01*
X146464886Y-127700798D01*
X146377406Y-127674261D01*
X146296790Y-127631171D01*
X146226124Y-127573176D01*
X146168129Y-127502510D01*
X146125039Y-127421894D01*
X146097846Y-127332250D01*
X146094095Y-127323195D01*
X146088650Y-127315045D01*
X146081719Y-127308114D01*
X146073569Y-127302669D01*
X146064514Y-127298918D01*
X146054901Y-127297006D01*
X146045099Y-127297006D01*
X146035486Y-127298918D01*
X146026431Y-127302669D01*
X146018281Y-127308114D01*
X146011350Y-127315045D01*
X146005905Y-127323195D01*
X146002154Y-127332250D01*
X145974961Y-127421894D01*
X145931871Y-127502510D01*
X145873876Y-127573176D01*
X145803210Y-127631171D01*
X145722594Y-127674261D01*
X145635114Y-127700798D01*
X145541686Y-127710000D01*
X145288314Y-127710000D01*
X145194886Y-127700798D01*
X145107406Y-127674261D01*
X145026790Y-127631171D01*
X144956124Y-127573176D01*
X144898129Y-127502510D01*
X144855039Y-127421894D01*
X144827846Y-127332250D01*
X144824095Y-127323195D01*
X144818650Y-127315045D01*
X144811719Y-127308114D01*
X144803569Y-127302669D01*
X144794514Y-127298918D01*
X144784901Y-127297006D01*
X144775099Y-127297006D01*
X144765486Y-127298918D01*
X144756431Y-127302669D01*
X144748281Y-127308114D01*
X144741350Y-127315045D01*
X144735905Y-127323195D01*
X144732154Y-127332250D01*
X144704961Y-127421894D01*
X144661871Y-127502510D01*
X144603876Y-127573176D01*
X144533210Y-127631171D01*
X144452594Y-127674261D01*
X144365114Y-127700798D01*
X144271686Y-127710000D01*
X144018314Y-127710000D01*
X143924886Y-127700798D01*
X143837406Y-127674261D01*
X143756790Y-127631171D01*
X143686124Y-127573176D01*
X143628129Y-127502510D01*
X143585039Y-127421894D01*
X143557846Y-127332250D01*
X143554095Y-127323195D01*
X143548650Y-127315045D01*
X143541719Y-127308114D01*
X143533569Y-127302669D01*
X143524514Y-127298918D01*
X143514901Y-127297006D01*
X143505099Y-127297006D01*
X143495486Y-127298918D01*
X143486431Y-127302669D01*
X143478281Y-127308114D01*
X143471350Y-127315045D01*
X143465905Y-127323195D01*
X143462154Y-127332250D01*
X143434961Y-127421894D01*
X143391871Y-127502510D01*
X143333876Y-127573176D01*
X143263210Y-127631171D01*
X143182594Y-127674261D01*
X143095114Y-127700798D01*
X143001686Y-127710000D01*
X142748314Y-127710000D01*
X142654886Y-127700798D01*
X142567406Y-127674261D01*
X142486790Y-127631171D01*
X142416124Y-127573176D01*
X142358129Y-127502510D01*
X142315039Y-127421894D01*
X142287846Y-127332250D01*
X142284095Y-127323195D01*
X142278650Y-127315045D01*
X142271719Y-127308114D01*
X142263569Y-127302669D01*
X142254514Y-127298918D01*
X142244901Y-127297006D01*
X142235099Y-127297006D01*
X142225486Y-127298918D01*
X142216431Y-127302669D01*
X142208281Y-127308114D01*
X142201350Y-127315045D01*
X142195905Y-127323195D01*
X142192154Y-127332250D01*
X142164961Y-127421894D01*
X142121871Y-127502510D01*
X142063876Y-127573176D01*
X141993210Y-127631171D01*
X141912594Y-127674261D01*
X141825114Y-127700798D01*
X141731686Y-127710000D01*
X141478314Y-127710000D01*
X141384886Y-127700798D01*
X141297406Y-127674261D01*
X141216790Y-127631171D01*
X141146124Y-127573176D01*
X141088129Y-127502510D01*
X141045039Y-127421894D01*
X141017846Y-127332250D01*
X141014095Y-127323195D01*
X141008650Y-127315045D01*
X141001719Y-127308114D01*
X140993569Y-127302669D01*
X140984514Y-127298918D01*
X140974901Y-127297006D01*
X140965099Y-127297006D01*
X140955486Y-127298918D01*
X140946431Y-127302669D01*
X140938281Y-127308114D01*
X140931350Y-127315045D01*
X140925905Y-127323195D01*
X140922154Y-127332250D01*
X140894961Y-127421894D01*
X140851871Y-127502510D01*
X140793876Y-127573176D01*
X140723210Y-127631171D01*
X140642594Y-127674261D01*
X140555114Y-127700798D01*
X140461686Y-127710000D01*
X140208314Y-127710000D01*
X140114886Y-127700798D01*
X140027406Y-127674261D01*
X139946790Y-127631171D01*
X139876124Y-127573176D01*
X139818129Y-127502510D01*
X139775039Y-127421894D01*
X139747846Y-127332250D01*
X139744095Y-127323195D01*
X139738650Y-127315045D01*
X139731719Y-127308114D01*
X139723569Y-127302669D01*
X139714514Y-127298918D01*
X139704901Y-127297006D01*
X139695099Y-127297006D01*
X139685486Y-127298918D01*
X139676431Y-127302669D01*
X139668281Y-127308114D01*
X139661350Y-127315045D01*
X139655905Y-127323195D01*
X139652154Y-127332250D01*
X139624961Y-127421894D01*
X139581871Y-127502510D01*
X139523876Y-127573176D01*
X139453210Y-127631171D01*
X139372594Y-127674261D01*
X139285114Y-127700798D01*
X139191686Y-127710000D01*
X138938314Y-127710000D01*
X138844886Y-127700798D01*
X138757406Y-127674261D01*
X138676790Y-127631171D01*
X138606124Y-127573176D01*
X138548129Y-127502510D01*
X138505039Y-127421894D01*
X138477846Y-127332250D01*
X138474095Y-127323195D01*
X138468650Y-127315045D01*
X138461719Y-127308114D01*
X138453569Y-127302669D01*
X138444514Y-127298918D01*
X138434901Y-127297006D01*
X138425099Y-127297006D01*
X138415486Y-127298918D01*
X138406431Y-127302669D01*
X138398281Y-127308114D01*
X138391350Y-127315045D01*
X138385905Y-127323195D01*
X138382154Y-127332250D01*
X138354961Y-127421894D01*
X138311871Y-127502510D01*
X138253876Y-127573176D01*
X138183210Y-127631171D01*
X138102594Y-127674261D01*
X138015114Y-127700798D01*
X137921686Y-127710000D01*
X137668314Y-127710000D01*
X137574886Y-127700798D01*
X137487406Y-127674261D01*
X137406790Y-127631171D01*
X137336124Y-127573176D01*
X137278129Y-127502510D01*
X137235039Y-127421894D01*
X137207846Y-127332250D01*
X137204095Y-127323195D01*
X137198650Y-127315045D01*
X137191719Y-127308114D01*
X137183569Y-127302669D01*
X137174514Y-127298918D01*
X137164901Y-127297006D01*
X137155099Y-127297006D01*
X137145486Y-127298918D01*
X137136431Y-127302669D01*
X137128281Y-127308114D01*
X137121350Y-127315045D01*
X137115905Y-127323195D01*
X137112154Y-127332250D01*
X137084961Y-127421894D01*
X137041871Y-127502510D01*
X136983876Y-127573176D01*
X136913210Y-127631171D01*
X136832594Y-127674261D01*
X136745114Y-127700798D01*
X136651686Y-127710000D01*
X136398314Y-127710000D01*
X136304886Y-127700798D01*
X136217406Y-127674261D01*
X136136790Y-127631171D01*
X136066124Y-127573176D01*
X136008129Y-127502510D01*
X135965039Y-127421894D01*
X135937846Y-127332250D01*
X135934095Y-127323195D01*
X135928650Y-127315045D01*
X135921719Y-127308114D01*
X135913569Y-127302669D01*
X135904514Y-127298918D01*
X135894901Y-127297006D01*
X135885099Y-127297006D01*
X135875486Y-127298918D01*
X135866431Y-127302669D01*
X135858281Y-127308114D01*
X135851350Y-127315045D01*
X135845905Y-127323195D01*
X135842154Y-127332250D01*
X135814961Y-127421894D01*
X135771871Y-127502510D01*
X135713876Y-127573176D01*
X135643210Y-127631171D01*
X135562594Y-127674261D01*
X135475114Y-127700798D01*
X135381686Y-127710000D01*
X135128314Y-127710000D01*
X135034886Y-127700798D01*
X134947406Y-127674261D01*
X134866790Y-127631171D01*
X134796124Y-127573176D01*
X134738129Y-127502510D01*
X134695039Y-127421894D01*
X134667846Y-127332250D01*
X134664095Y-127323195D01*
X134658650Y-127315045D01*
X134651719Y-127308114D01*
X134643569Y-127302669D01*
X134634514Y-127298918D01*
X134624901Y-127297006D01*
X134615099Y-127297006D01*
X134605486Y-127298918D01*
X134596431Y-127302669D01*
X134588281Y-127308114D01*
X134581350Y-127315045D01*
X134575905Y-127323195D01*
X134572154Y-127332250D01*
X134544961Y-127421894D01*
X134501871Y-127502510D01*
X134443876Y-127573176D01*
X134373210Y-127631171D01*
X134292594Y-127674261D01*
X134205114Y-127700798D01*
X134111686Y-127710000D01*
X133858314Y-127710000D01*
X133764886Y-127700798D01*
X133677406Y-127674261D01*
X133596790Y-127631171D01*
X133526124Y-127573176D01*
X133468129Y-127502510D01*
X133425039Y-127421894D01*
X133397846Y-127332250D01*
X133394095Y-127323195D01*
X133388650Y-127315045D01*
X133381719Y-127308114D01*
X133373569Y-127302669D01*
X133364514Y-127298918D01*
X133354901Y-127297006D01*
X133345099Y-127297006D01*
X133335486Y-127298918D01*
X133326431Y-127302669D01*
X133318281Y-127308114D01*
X133311350Y-127315045D01*
X133305905Y-127323195D01*
X133302154Y-127332250D01*
X133274961Y-127421894D01*
X133231871Y-127502510D01*
X133173876Y-127573176D01*
X133103210Y-127631171D01*
X133022594Y-127674261D01*
X132935114Y-127700798D01*
X132841686Y-127710000D01*
X132588314Y-127710000D01*
X132494886Y-127700798D01*
X132407406Y-127674261D01*
X132326790Y-127631171D01*
X132256124Y-127573176D01*
X132198129Y-127502510D01*
X132155039Y-127421894D01*
X132127846Y-127332250D01*
X132124095Y-127323195D01*
X132118650Y-127315045D01*
X132111719Y-127308114D01*
X132103569Y-127302669D01*
X132094514Y-127298918D01*
X132084901Y-127297006D01*
X132075099Y-127297006D01*
X132065486Y-127298918D01*
X132056431Y-127302669D01*
X132048281Y-127308114D01*
X132041350Y-127315045D01*
X132035905Y-127323195D01*
X132032154Y-127332250D01*
X132004961Y-127421894D01*
X131961871Y-127502510D01*
X131903876Y-127573176D01*
X131833210Y-127631171D01*
X131752594Y-127674261D01*
X131665114Y-127700798D01*
X131571686Y-127710000D01*
X131318314Y-127710000D01*
X131224886Y-127700798D01*
X131137406Y-127674261D01*
X131056790Y-127631171D01*
X130986124Y-127573176D01*
X130928129Y-127502510D01*
X130885039Y-127421894D01*
X130857846Y-127332250D01*
X130854095Y-127323195D01*
X130848650Y-127315045D01*
X130841719Y-127308114D01*
X130833569Y-127302669D01*
X130824514Y-127298918D01*
X130814901Y-127297006D01*
X130805099Y-127297006D01*
X130795486Y-127298918D01*
X130786431Y-127302669D01*
X130778281Y-127308114D01*
X130771350Y-127315045D01*
X130765905Y-127323195D01*
X130762154Y-127332250D01*
X130734961Y-127421894D01*
X130691871Y-127502510D01*
X130633876Y-127573176D01*
X130563210Y-127631171D01*
X130482594Y-127674261D01*
X130395114Y-127700798D01*
X130301686Y-127710000D01*
X130048314Y-127710000D01*
X129954886Y-127700798D01*
X129867406Y-127674261D01*
X129786790Y-127631171D01*
X129716124Y-127573176D01*
X129658129Y-127502510D01*
X129615039Y-127421894D01*
X129587846Y-127332250D01*
X129584095Y-127323195D01*
X129578650Y-127315045D01*
X129571719Y-127308114D01*
X129563569Y-127302669D01*
X129554514Y-127298918D01*
X129544901Y-127297006D01*
X129535099Y-127297006D01*
X129525486Y-127298918D01*
X129516431Y-127302669D01*
X129508281Y-127308114D01*
X129501350Y-127315045D01*
X129495905Y-127323195D01*
X129492154Y-127332250D01*
X129464961Y-127421894D01*
X129421871Y-127502510D01*
X129363876Y-127573176D01*
X129293210Y-127631171D01*
X129212594Y-127674261D01*
X129125114Y-127700798D01*
X129031686Y-127710000D01*
X128778314Y-127710000D01*
X128684886Y-127700798D01*
X128597406Y-127674261D01*
X128516790Y-127631171D01*
X128446124Y-127573176D01*
X128388129Y-127502510D01*
X128345039Y-127421894D01*
X128317846Y-127332250D01*
X128314095Y-127323195D01*
X128308650Y-127315045D01*
X128301719Y-127308114D01*
X128293569Y-127302669D01*
X128284514Y-127298918D01*
X128274901Y-127297006D01*
X128265099Y-127297006D01*
X128255486Y-127298918D01*
X128246431Y-127302669D01*
X128238281Y-127308114D01*
X128231350Y-127315045D01*
X128225905Y-127323195D01*
X128222154Y-127332250D01*
X128194961Y-127421894D01*
X128151871Y-127502510D01*
X128093876Y-127573176D01*
X128023210Y-127631171D01*
X127942594Y-127674261D01*
X127855114Y-127700798D01*
X127761686Y-127710000D01*
X127508314Y-127710000D01*
X127414886Y-127700798D01*
X127327406Y-127674261D01*
X127246790Y-127631171D01*
X127176124Y-127573176D01*
X127118129Y-127502510D01*
X127075039Y-127421894D01*
X127047846Y-127332250D01*
X127044095Y-127323195D01*
X127038650Y-127315045D01*
X127031719Y-127308114D01*
X127023569Y-127302669D01*
X127014514Y-127298918D01*
X127004901Y-127297006D01*
X126995099Y-127297006D01*
X126985486Y-127298918D01*
X126976431Y-127302669D01*
X126968281Y-127308114D01*
X126961350Y-127315045D01*
X126955905Y-127323195D01*
X126952154Y-127332250D01*
X126924961Y-127421894D01*
X126881871Y-127502510D01*
X126823876Y-127573176D01*
X126753210Y-127631171D01*
X126672594Y-127674261D01*
X126585114Y-127700798D01*
X126491686Y-127710000D01*
X126238314Y-127710000D01*
X126144886Y-127700798D01*
X126057406Y-127674261D01*
X125976790Y-127631171D01*
X125906124Y-127573176D01*
X125848129Y-127502510D01*
X125805039Y-127421894D01*
X125777846Y-127332250D01*
X125774095Y-127323195D01*
X125768650Y-127315045D01*
X125761719Y-127308114D01*
X125753569Y-127302669D01*
X125744514Y-127298918D01*
X125734901Y-127297006D01*
X125725099Y-127297006D01*
X125715486Y-127298918D01*
X125706431Y-127302669D01*
X125698281Y-127308114D01*
X125691350Y-127315045D01*
X125685905Y-127323195D01*
X125682154Y-127332250D01*
X125654961Y-127421894D01*
X125611871Y-127502510D01*
X125553876Y-127573176D01*
X125483210Y-127631171D01*
X125402594Y-127674261D01*
X125315114Y-127700798D01*
X125221686Y-127710000D01*
X124968314Y-127710000D01*
X124874886Y-127700798D01*
X124787406Y-127674261D01*
X124706790Y-127631171D01*
X124636124Y-127573176D01*
X124578129Y-127502510D01*
X124535039Y-127421894D01*
X124507846Y-127332250D01*
X124504095Y-127323195D01*
X124498650Y-127315045D01*
X124491719Y-127308114D01*
X124483569Y-127302669D01*
X124474514Y-127298918D01*
X124464901Y-127297006D01*
X124455099Y-127297006D01*
X124445486Y-127298918D01*
X124436431Y-127302669D01*
X124428281Y-127308114D01*
X124421350Y-127315045D01*
X124415905Y-127323195D01*
X124412154Y-127332250D01*
X124384961Y-127421894D01*
X124341871Y-127502510D01*
X124283876Y-127573176D01*
X124213210Y-127631171D01*
X124132594Y-127674261D01*
X124045114Y-127700798D01*
X123951686Y-127710000D01*
X123698314Y-127710000D01*
X123604886Y-127700798D01*
X123517406Y-127674261D01*
X123436790Y-127631171D01*
X123366124Y-127573176D01*
X123308129Y-127502510D01*
X123265039Y-127421894D01*
X123238502Y-127334414D01*
X123229300Y-127240986D01*
X123229300Y-124981014D01*
X123238502Y-124887586D01*
X123265039Y-124800106D01*
X123308129Y-124719490D01*
X123366124Y-124648824D01*
X123436790Y-124590829D01*
X123517406Y-124547739D01*
X123604886Y-124521202D01*
X123698314Y-124512000D01*
X123951686Y-124512000D01*
X124045114Y-124521202D01*
G37*
G36*
X168207564Y-124950311D02*
G01*
X168403202Y-125031347D01*
X168403203Y-125031348D01*
X168579272Y-125148993D01*
X168729007Y-125298728D01*
X168807615Y-125416374D01*
X168846653Y-125474798D01*
X168927689Y-125670436D01*
X168969000Y-125878120D01*
X168969000Y-126089880D01*
X168927689Y-126297564D01*
X168846653Y-126493202D01*
X168846652Y-126493203D01*
X168729007Y-126669272D01*
X168579272Y-126819007D01*
X168461626Y-126897615D01*
X168403202Y-126936653D01*
X168207564Y-127017689D01*
X167999880Y-127059000D01*
X167788120Y-127059000D01*
X167580436Y-127017689D01*
X167384798Y-126936653D01*
X167326374Y-126897615D01*
X167208728Y-126819007D01*
X167058993Y-126669272D01*
X166941348Y-126493203D01*
X166941347Y-126493202D01*
X166860311Y-126297564D01*
X166819000Y-126089880D01*
X166819000Y-125878120D01*
X166860311Y-125670436D01*
X166941347Y-125474798D01*
X166980385Y-125416374D01*
X167058993Y-125298728D01*
X167208728Y-125148993D01*
X167384797Y-125031348D01*
X167384798Y-125031347D01*
X167580436Y-124950311D01*
X167788120Y-124909000D01*
X167999880Y-124909000D01*
X168207564Y-124950311D01*
G37*
G36*
X75751564Y-124950311D02*
G01*
X75947202Y-125031347D01*
X75947203Y-125031348D01*
X76123272Y-125148993D01*
X76273007Y-125298728D01*
X76351615Y-125416374D01*
X76390653Y-125474798D01*
X76471689Y-125670436D01*
X76513000Y-125878120D01*
X76513000Y-126089880D01*
X76471689Y-126297564D01*
X76390653Y-126493202D01*
X76390652Y-126493203D01*
X76273007Y-126669272D01*
X76123272Y-126819007D01*
X76005626Y-126897615D01*
X75947202Y-126936653D01*
X75751564Y-127017689D01*
X75543880Y-127059000D01*
X75332120Y-127059000D01*
X75124436Y-127017689D01*
X74928798Y-126936653D01*
X74870374Y-126897615D01*
X74752728Y-126819007D01*
X74602993Y-126669272D01*
X74485348Y-126493203D01*
X74485347Y-126493202D01*
X74404311Y-126297564D01*
X74363000Y-126089880D01*
X74363000Y-125878120D01*
X74404311Y-125670436D01*
X74485347Y-125474798D01*
X74524385Y-125416374D01*
X74602993Y-125298728D01*
X74752728Y-125148993D01*
X74928797Y-125031348D01*
X74928798Y-125031347D01*
X75124436Y-124950311D01*
X75332120Y-124909000D01*
X75543880Y-124909000D01*
X75751564Y-124950311D01*
G37*
G36*
X168207564Y-103233311D02*
G01*
X168403202Y-103314347D01*
X168403203Y-103314348D01*
X168579272Y-103431993D01*
X168729007Y-103581728D01*
X168807615Y-103699374D01*
X168846653Y-103757798D01*
X168927689Y-103953436D01*
X168969000Y-104161120D01*
X168969000Y-104372880D01*
X168927689Y-104580564D01*
X168846653Y-104776202D01*
X168846652Y-104776203D01*
X168729007Y-104952272D01*
X168579272Y-105102007D01*
X168461626Y-105180615D01*
X168403202Y-105219653D01*
X168207564Y-105300689D01*
X167999880Y-105342000D01*
X167788120Y-105342000D01*
X167580436Y-105300689D01*
X167384798Y-105219653D01*
X167326374Y-105180615D01*
X167208728Y-105102007D01*
X167058993Y-104952272D01*
X166941348Y-104776203D01*
X166941347Y-104776202D01*
X166860311Y-104580564D01*
X166819000Y-104372880D01*
X166819000Y-104161120D01*
X166860311Y-103953436D01*
X166941347Y-103757798D01*
X166980385Y-103699374D01*
X167058993Y-103581728D01*
X167208728Y-103431993D01*
X167384797Y-103314348D01*
X167384798Y-103314347D01*
X167580436Y-103233311D01*
X167788120Y-103192000D01*
X167999880Y-103192000D01*
X168207564Y-103233311D01*
G37*
G36*
X73719564Y-103233311D02*
G01*
X73915202Y-103314347D01*
X73915203Y-103314348D01*
X74091272Y-103431993D01*
X74241007Y-103581728D01*
X74319615Y-103699374D01*
X74358653Y-103757798D01*
X74439689Y-103953436D01*
X74481000Y-104161120D01*
X74481000Y-104372880D01*
X74439689Y-104580564D01*
X74358653Y-104776202D01*
X74358652Y-104776203D01*
X74241007Y-104952272D01*
X74091272Y-105102007D01*
X73973626Y-105180615D01*
X73915202Y-105219653D01*
X73719564Y-105300689D01*
X73511880Y-105342000D01*
X73300120Y-105342000D01*
X73092436Y-105300689D01*
X72896798Y-105219653D01*
X72838374Y-105180615D01*
X72720728Y-105102007D01*
X72570993Y-104952272D01*
X72453348Y-104776203D01*
X72453347Y-104776202D01*
X72372311Y-104580564D01*
X72331000Y-104372880D01*
X72331000Y-104161120D01*
X72372311Y-103953436D01*
X72453347Y-103757798D01*
X72492385Y-103699374D01*
X72570993Y-103581728D01*
X72720728Y-103431993D01*
X72896797Y-103314348D01*
X72896798Y-103314347D01*
X73092436Y-103233311D01*
X73300120Y-103192000D01*
X73511880Y-103192000D01*
X73719564Y-103233311D01*
G37*
M02*
